<svg id="f09cc881-dd8b-41ce-9895-6c43b7d007a4" data-name="Ebene 1" xmlns="http://www.w3.org/2000/svg" width="56.69" height="39.68" viewBox="0 0 56.69 39.68">
  <defs>
    <style>
      .a2fed5c7-026a-4a2f-9c73-522d1c4a03a8 {
        fill: #acacac;
      }

      .a5b811a5-029a-46b4-981e-4f0d380538c0 {
        fill: #585858;
      }

      .b249cd13-bfd9-41d7-8e31-6e96f109445b {
        fill: #242424;
      }

      .ac42cd4a-9e16-45c0-a23d-f1903001de85 {
        fill: #e8aaaf;
      }

      .b4911776-f135-4a1d-90bc-c594c51fcfca {
        fill: #cc5e66;
      }

      .e0519acd-6b33-452f-84c2-93c5a936c89f {
        fill: #c1272d;
      }
    </style>
  </defs>
  <g>
    <g>
      <polygon class="a2fed5c7-026a-4a2f-9c73-522d1c4a03a8" points="17.01 5.67 28.35 0 39.69 5.67 28.35 11.34 17.01 5.67"/>
      <polygon class="a5b811a5-029a-46b4-981e-4f0d380538c0" points="17.01 5.67 28.35 11.34 28.35 22.68 17.01 17.01 17.01 5.67"/>
      <polygon class="b249cd13-bfd9-41d7-8e31-6e96f109445b" points="28.35 11.34 39.69 5.67 39.69 17.01 28.35 22.68 28.35 11.34"/>
    </g>
    <g>
      <polygon class="a2fed5c7-026a-4a2f-9c73-522d1c4a03a8" points="34.02 14.17 45.35 8.5 56.69 14.17 45.35 19.84 34.02 14.17"/>
      <polygon class="a5b811a5-029a-46b4-981e-4f0d380538c0" points="34.02 14.17 45.35 19.84 45.35 31.18 34.02 25.51 34.02 14.17"/>
      <polygon class="b249cd13-bfd9-41d7-8e31-6e96f109445b" points="45.35 19.84 56.69 14.17 56.69 25.51 45.35 31.18 45.35 19.84"/>
    </g>
    <g>
      <polygon class="a2fed5c7-026a-4a2f-9c73-522d1c4a03a8" points="0 14.17 11.34 8.5 22.68 14.17 11.34 19.84 0 14.17"/>
      <polygon class="a5b811a5-029a-46b4-981e-4f0d380538c0" points="0 14.17 11.34 19.84 11.34 31.18 0 25.51 0 14.17"/>
      <polygon class="b249cd13-bfd9-41d7-8e31-6e96f109445b" points="11.34 19.84 22.68 14.17 22.68 25.51 11.34 31.18 11.34 19.84"/>
    </g>
    <g>
      <polygon class="ac42cd4a-9e16-45c0-a23d-f1903001de85" points="17.01 22.68 28.35 17.01 39.69 22.68 28.35 28.35 17.01 22.68"/>
      <polygon class="b4911776-f135-4a1d-90bc-c594c51fcfca" points="17.01 22.68 28.35 28.35 28.35 39.69 17.01 34.02 17.01 22.68"/>
      <polygon class="e0519acd-6b33-452f-84c2-93c5a936c89f" points="28.35 28.35 39.69 22.68 39.69 34.02 28.35 39.69 28.35 28.35"/>
    </g>
  </g>
</svg>
