<?xml version="1.0" standalone="no"?>
<!DOCTYPE svg PUBLIC "-//W3C//DTD SVG 1.1//EN" "http://www.w3.org/Graphics/SVG/1.1/DTD/svg11.dtd" >
<svg xmlns="http://www.w3.org/2000/svg" xmlns:xlink="http://www.w3.org/1999/xlink" version="1.1">
<metadata></metadata>
<defs>
<font id="chantelli_antiquaregular" horiz-adv-x="1964" >
<font-face units-per-em="2048" ascent="1638" descent="-410" />
<missing-glyph horiz-adv-x="625" />
<glyph horiz-adv-x="0" />
<glyph unicode="&#xd;" horiz-adv-x="1024" />
<glyph unicode=" "  horiz-adv-x="625" />
<glyph unicode="&#x09;" horiz-adv-x="625" />
<glyph unicode="&#xa0;" horiz-adv-x="625" />
<glyph unicode="!" horiz-adv-x="526" d="M143 66.5q15 60.5 88 76.5t110.5 -7t27 -77t-75 -75.5t-115 0.5t-35.5 82.5zM173 1755h175l-49 -1185h-85z" />
<glyph unicode="&#x22;" horiz-adv-x="774" d="M93 1755h175l-49 -517h-85zM491 1755h175l-49 -517h-85z" />
<glyph unicode="#" horiz-adv-x="1785" d="M138 483l23 98h469l104 440h-468l23 98h469l128 541h117l-128 -541h440l130 547h117l-130 -547h469l-23 -98h-469l-104 -440h468l-23 -98h-469l-116 -488h-117l116 488h-440l-116 -488h-117l115 488h-468zM747 581h440l104 440h-439z" />
<glyph unicode="$" horiz-adv-x="1180" d="M103.5 1320q59.5 270 396.5 336v115l126 83v-198q200 -1 328 -61l-147 -214l-80 28l90 61q-66 88 -191 112v-647q384 -209 423.5 -423t-101.5 -360.5t-322 -161.5v-147l-126 -97v245q-224 2 -393 130l72 146q188 -171 321 -175v711q-456 247 -396.5 517zM258.5 1357.5 q-22.5 -198.5 241.5 -358.5v584q-219 -27 -241.5 -225.5zM626 75q222 -5 253.5 241.5t-253.5 420.5v-662z" />
<glyph unicode="%" horiz-adv-x="1789" d="M139 1086q-21 153 24.5 282t129.5 184t198 60t199.5 -64t107.5 -217t-22 -282.5t-134.5 -190.5t-201 -57t-195.5 65.5t-106 219.5zM272.5 1286q-18.5 -151 27 -270t138.5 -139t149 39.5t75.5 206t-27 282.5t-136 149t-149 -52t-78 -216zM283 -6l1184 1677h117 l-1180 -1677h-121zM1081 341q-21 153 24.5 282t129.5 184t198 60t199.5 -64t107.5 -217t-22 -282.5t-134.5 -190.5t-201 -57t-195.5 65.5t-106 219.5zM1214.5 541q-18.5 -151 27 -270t138.5 -139t149 39.5t75.5 206t-27 282.5t-136 149t-149 -52t-78 -216z" />
<glyph unicode="&#x26;" horiz-adv-x="1744" d="M75.5 360.5q-40.5 319.5 365.5 558.5q-130 277 -99 465.5t265 270t348.5 -44.5t44 -323.5t-390.5 -366.5q142 -275 445 -592q142 139 122.5 371t-158.5 239l-19 65q343 -50 654 44l23 -22l-108 -131q-187 46 -314 29q100 -53 89.5 -237.5t-217.5 -424.5q293 -291 553 -28 l68 -49q-395 -329 -726 -43q-330 -238 -617.5 -169t-328 388.5zM221.5 438q21.5 -253 238 -343.5t478.5 111.5q-290 298 -463 643q-275 -158 -253.5 -411zM492.5 1468.5q-49.5 -163.5 83.5 -481.5q297 138 303 370t-165.5 253.5t-221 -142z" />
<glyph unicode="'" horiz-adv-x="317" d="M363 1755h175l-49 -517h-85z" />
<glyph unicode="(" horiz-adv-x="759" d="M121 675q-23 738 538 1120l43 -48q-398 -223 -402 -1012t403 -1093l-48 -43q-511 338 -534 1076z" />
<glyph unicode=")" horiz-adv-x="742" d="M48 -358l48 -43q511 338 534 1076t-538 1120l-43 -48q398 -223 402 -1012t-403 -1093z" />
<glyph unicode="*" horiz-adv-x="716" d="M71 1391l36 106l214 -95l-19 236h112l-20 -236l219 89l35 -106l-232 -51l152 -179l-87 -68l-120 202l-127 -202l-89 67l159 180z" />
<glyph unicode="+" horiz-adv-x="1445" d="M-693 722v99h599v599h96v-599h600v-99h-600v-599h-96v599h-599z" />
<glyph unicode="," horiz-adv-x="555" d="M114 115l230 81q104 -262 -159 -490l-25 37q152 118 47 362l-72 -39z" />
<glyph unicode="-" horiz-adv-x="788" d="M118 530v154h556v-154h-556z" />
<glyph unicode="." horiz-adv-x="526" d="M143 66.5q15 60.5 88 76.5t110.5 -7t27 -77t-75 -75.5t-115 0.5t-35.5 82.5z" />
<glyph unicode="/" horiz-adv-x="860" d="M45 -101l657 1899h107l-653 -1899h-111z" />
<glyph unicode="0" horiz-adv-x="1693" d="M123.5 1063.5q70.5 305.5 300.5 479.5t535.5 130.5t474.5 -279t157 -551.5t-151 -530.5t-403.5 -298.5t-519.5 38.5t-359.5 414t-34 597zM290.5 1054.5q-50.5 -299.5 46 -545.5t271.5 -358t389.5 -59.5t315 263.5t92 499t-154 497.5t-363 245.5t-382 -103.5t-215 -439z " />
<glyph unicode="1" horiz-adv-x="717" d="M78 1385q220 92 392 277l34 -25l-39 -69q-66 -527 -28 -1544l-204 -59l-26 21q104 169 85 1459l-209 -157z" />
<glyph unicode="2" horiz-adv-x="1233" d="M79 15q329 359 534.5 626t226.5 465.5t-78.5 309t-264.5 106t-372 -137.5l-29 29q194 153 285 302l70 -8l-136 -166q219 103 390.5 65.5t259.5 -168t45 -328.5t-232 -436t-410 -583q624 -12 752 148l41 -12l-259 -317l-101 11l115 78q-578 37 -822 -13z" />
<glyph unicode="3" horiz-adv-x="1198" d="M48 96l121 108q172 -189 362.5 -167.5t289 213t52.5 416.5t-230 285t-373 13l6 61q261 22 365.5 128t63 231.5t-188 144.5t-336.5 -90l-32 36q131 54 236 223l102 12l-118 -130q265 65 390 7t120.5 -210.5t-240.5 -306.5q183 -23 297.5 -132t126 -310.5t-62.5 -339 t-199 -220t-353 -87.5t-399 115z" />
<glyph unicode="4" horiz-adv-x="1204" d="M93 618q695 837 660 1018l166 31q-84 -258 -70 -966q166 4 322 32l-91 -148q-80 42 -227 42q-13 -298 -2 -595l-210 -64l-19 26q96 33 95 629q-416 11 -617 -45zM305 703l411 -1q2 339 7 573q-319 -396 -418 -572z" />
<glyph unicode="5" horiz-adv-x="1150" d="M141 52l66 118q208 -155 378.5 -98.5t242.5 255.5t12 448.5t-233.5 326.5t-432.5 -9l-13 26q97 247 30 523q497 -33 775 22l-47 -151q-357 87 -550 42l-23 -348q373 52 555 -140t132 -524.5t-319 -478t-573 -12.5z" />
<glyph unicode="6" horiz-adv-x="1330" d="M140.5 590.5q-17.5 268.5 58.5 500t246 381t454 212.5l63 -142q-207 38 -352 -35.5t-212.5 -227t-91.5 -402.5q163 204 381 196t353 -153.5t136.5 -372.5t-150 -388.5t-378.5 -158t-358.5 162.5t-149 427.5zM325.5 735q-29.5 -135 5 -285.5t133.5 -262t232 -118t214 106 t85 290.5t-66 323.5t-196.5 186.5t-252 -32.5t-155 -208.5z" />
<glyph unicode="7" horiz-adv-x="1095" d="M43 1474l37 164q696 -58 954 20l32 -22q-434 -418 -671 -1635l-196 -44l-8 17q365 1138 617 1562q-560 28 -765 -62z" />
<glyph unicode="8" horiz-adv-x="1247" d="M97.5 522.5q36.5 217.5 341.5 421.5q-213 148 -208 334.5t122 284.5t261 98.5t261 -87t105 -261t-233 -364.5q353 -162 390.5 -397.5t-112 -405.5t-403.5 -169t-407.5 164.5t-117 381zM257.5 499.5q-1.5 -136.5 96.5 -271t250 -163.5t261.5 48.5t123.5 233.5t-105 310 t-353 239q-127 -45 -199.5 -152.5t-74 -244zM383 1419.5q-27 -134.5 50.5 -253.5t251.5 -185q164 140 163 300.5t-109.5 251.5t-218.5 56t-137 -169.5z" />
<glyph unicode="9" horiz-adv-x="1268" d="M100.5 1127q-1.5 227 150 388.5t378.5 158t358.5 -162.5t149 -427.5t-58.5 -500t-246 -381t-454 -212.5l-63 142q207 -38 352 35.5t212.5 227t91.5 402.5q-163 -204 -381 -196t-353 153.5t-136.5 372.5zM272 1198q-4 -178 71 -318.5t201.5 -181.5t252 32.5t155 208.5 t-5 285.5t-133.5 262t-232 118t-219 -111t-90 -295.5z" />
<glyph unicode=":" horiz-adv-x="519" d="M143 207.5q15 60.5 88 76.5t110.5 -7t27 -77t-75 -75.5t-115 0.5t-35.5 82.5zM143 998.5q15 60.5 88 76.5t110.5 -7t27 -77t-75 -75.5t-115 0.5t-35.5 82.5z" />
<glyph unicode=";" horiz-adv-x="554" d="M114 115l230 81q104 -262 -159 -490l-25 37q152 118 47 362l-72 -39zM157 998.5q15 60.5 88 76.5t110.5 -7t27 -77t-75 -75.5t-115 0.5t-35.5 82.5z" />
<glyph unicode="&#x3c;" horiz-adv-x="1074" d="M73 749v47l913 511v-120l-748 -415l748 -408v-123z" />
<glyph unicode="=" horiz-adv-x="1189" d="M82 497v109h1019v-109h-1019zM82 910v109h1019v-109h-1019z" />
<glyph unicode="&#x3e;" horiz-adv-x="1064" d="M92 241l913 508v47l-913 511v-120l748 -415l-748 -408v-123z" />
<glyph unicode="?" horiz-adv-x="999" d="M57 1613q120 42 275 241l71 -29l-111 -123q323 91 506 -16.5t112 -343.5t-483 -396q47 -102 21 -347l-174 -47q44 381 -76 378l5 42q308 28 443.5 180.5t81.5 315t-240.5 192.5t-389.5 -94zM234 66.5q15 60.5 88 76.5t110.5 -7t27 -77t-75 -75.5t-115 0.5t-35.5 82.5z " />
<glyph unicode="@" horiz-adv-x="1973" d="M112.5 367.5q-65.5 383.5 98.5 698t657 412t760 -149t214 -684.5t-323 -535t-345 -162l-23 212q-238 -178 -364 -170t-167.5 244t72 397.5t475.5 -10.5q49 300 -14.5 426.5t-483.5 -84.5l-37 45q217 72 329 258l79 -29l-138 -112q317 93 367 62t61 -200t-7.5 -438.5 t3.5 -472.5q318 109 366 520t-185 632.5t-555 199t-527.5 -285t-149.5 -679.5t390 -610.5t713 -10.5l12 -63q-559 -199 -885.5 3.5t-392 586zM785 260q44 -180 141 -172.5t226 145.5l4 307q-254 167 -334.5 33.5t-36.5 -313.5z" />
<glyph unicode="A" d="M14 -3q386 544 618.5 1014t300.5 752l61 10q367 -986 865 -1725l112 26l15 -46q-231 -31 -358 -72q-182 479 -405 921q-216 48 -364 48q-121 0 -196 -32q-391 -703 -385 -840l93 -14v-41zM725 994l437 -10q-132 381 -244 519z" />
<glyph unicode="B" horiz-adv-x="1428" d="M76 -5l24 58l143 -17q31 463 31 861q0 440 -38 800l-153 -21l-4 59q196 10 347 10q340 -1 448 -53q156 -76 155 -242q0 -173 -215 -299q190 -38 316 -166q127 -127 141 -355q2 -26 2 -52q0 -192 -95 -326q-107 -150 -270 -211q-143 -53 -330 -53q-26 0 -54 2 q-163 6 -330 6q-59 0 -118 -1zM407 1681l4 -1568q160 -67 280 -68q91 -1 159 39q158 90 212 255q34 106 34 209q0 58 -11 114q-30 158 -119 260q-88 102 -212 126q-36 7 -71 7q-83 0 -154 -42l-19 64q178 24 272 109q83 74 83 194q1 17 -1 35q-14 145 -130 219 q-85 55 -221 54q-50 0 -106 -7z" />
<glyph unicode="C" horiz-adv-x="1774" d="M128 656q-15 87 -15 170q1 214 99 404q136 262 356 380q220 119 486 146q57 6 119 6q230 0 533 -78l-207 -206l-76 15l123 73q-251 101 -502 101q-22 0 -42 -1q-272 -9 -463 -170t-235 -450q-12 -81 -13 -158q0 -200 83 -377q115 -246 349 -367q161 -83 337 -83 q80 0 163 17q266 55 415 210l29 -87q-117 -35 -340 -320l-77 30l160 138q-217 -80 -440 -80q-39 1 -78 3q-263 16 -487.5 194t-276.5 490z" />
<glyph unicode="D" horiz-adv-x="1924" d="M25 72l208 -27q56 288 56 716q0 397 -48 914l-179 -30l-12 84h154q284 -1 540 5q25 1 49 1q297 -1 553 -85q278 -92 388 -387q66 -175 67 -346q-1 -119 -33 -235q-78 -286 -290 -458q-212 -170 -512 -212q-167 -23 -437 -24q-214 0 -492 15zM434 1641l6 -1519 q216 -49 388 -50q149 0 264 38q248 80 379.5 271.5t140.5 441.5q1 21 1 42q0 225 -89 406q-97 198 -280 286q-184 89 -380 103q-60 4 -123 4q-144 0 -307 -23z" />
<glyph unicode="E" horiz-adv-x="1240" d="M38 1673l26 62q202 -12 386 -12q283 0 527 28l-55 -138q-282 51 -434 51q-44 0 -77 -4v-617q476 0 642 62l-78 -174q-255 50 -401 50q-114 0 -163 -30l-20 -887q526 5 659 155l43 -16l-265 -332l-92 9l111 105q-140 14 -282 14q-198 0 -399 -27l-7 33q79 39 95 597 q4 122 4 243q0 431 -46 844z" />
<glyph unicode="F" horiz-adv-x="1186" d="M42 1673l26 62q198 -12 386 -12q289 0 557 28l-55 -148q-292 55 -450 55q-60 0 -101 -8v-667q67 -2 128 -2q318 0 474 44l-78 -164q-248 47 -383 47q-103 0 -141 -27v-837l-245 -82l-7 33q103 39 107 602q1 76 1 151q0 483 -25 941z" />
<glyph unicode="G" horiz-adv-x="1869" d="M113 966q53 348 271 535.5t548 247.5q125 23 268 23q232 0 510 -61l-163 -322l-54 82l89 92q-251 116 -509 116q-33 0 -67 -2q-292 -17 -488.5 -191t-225.5 -506q-5 -48 -5 -95q0 -272 145 -483q171 -247 456 -328q105 -30 192 -30q150 0 248 88q156 139 264 537l213 51 l20 -33q-184 -66 -424 -1081l-256 -21q166 191 233 452q-161 -61 -376 -61q-95 0 -201 12q-345 39 -543 334q-156 234 -156 499q0 72 11 145z" />
<glyph unicode="H" horiz-adv-x="2039" d="M147 -50q97 66 112 752q2 95 2 183q0 543 -80 793l224 85v-732l1146 -20l-25 668l203 86l19 -28q-36 -40 -52 -375q-3 -65 -3 -150q0 -359 56 -1089l130 80l18 -71q-153 -37 -322 -198l-42 5q37 152 37 428q0 217 -23 511q-429 72 -756 72q-221 0 -395 -33l10 -885 l-220 -104z" />
<glyph unicode="I" horiz-adv-x="680" d="M165 -15q87 61 91 821q0 43 1 84q0 682 -56 778l214 91q-26 -523 -26 -915q0 -520 46 -808l-251 -85z" />
<glyph unicode="J" horiz-adv-x="673" d="M26 -407l1 64q17 -5 32 -5q203 0 203 891v37q-5 996 -54 1098l214 91q-17 -679 -17 -1119q0 -362 11 -562q2 -26 2 -50q0 -396 -392 -445z" />
<glyph unicode="K" horiz-adv-x="1615" d="M152 -9q79 13 99 665q5 169 5 321q0 432 -42 719l199 65v-763q5 -6 14 -6q104 0 798 765l125 -85q-501 -372 -687 -622q708 -1013 936 -1013q26 0 47 14l17 -46q-81 -10 -151 -10q-226 1 -328 103q-133 134 -680 869l-99 -64v-874l-241 -67z" />
<glyph unicode="L" horiz-adv-x="1146" d="M166 5q80 39 96 597q4 122 3 243q0 431 -46 844l199 68l-20 -1693q526 5 659 155l43 -16l-265 -332l-92 9l111 105q-140 14 -282 14q-198 0 -399 -27z" />
<glyph unicode="M" horiz-adv-x="2434" d="M87 -7q331 1260 331 1650q0 54 -6 91l71 11l695 -1412q624 1156 624 1381v11l64 22q179 -1243 368 -1692l181 44l16 -63q-276 -23 -415 -81l-265 1383l-598 -1335l-52 5q-46 238 -621 1391q-182 -900 -182 -1228q0 -99 17 -146l160 21l-7 -53h-381z" />
<glyph unicode="N" horiz-adv-x="1945" d="M203 1708l55 40l1292 -1346v633q0 538 -92 654l230 72q-44 -750 -44 -1188q0 -433 43 -561l-84 -25q-182 362 -1242 1394v-628q0 -601 65 -711l172 22v-58l-379 -14q46 698 46 1118q0 486 -62 598z" />
<glyph unicode="O" horiz-adv-x="2045" d="M139 1122q86 322 367 506q225 147 508 146q72 0 146 -9q372 -46 578 -294q193 -231 193 -536q0 -22 -1 -45q-15 -333 -184.5 -559.5t-491.5 -314.5q-131 -36 -261 -36q-189 0 -373 76q-312 130 -440 437q-76 183 -76 372q0 127 35 257zM326 1116q-22 -109 -23 -212 q0 -196 80 -368q121 -262 341 -380q150 -81 323 -81q81 -1 166 17q269 56 395 280q117 207 117 485q-1 23 -1 46q-10 306 -193 528.5t-456 260.5q-56 8 -110 8q-205 0 -369 -118q-206 -148 -270 -466z" />
<glyph unicode="P" horiz-adv-x="1251" d="M87 1680v65q115 4 215 4q455 0 607 -75q173 -85 172 -298v-30q-13 -237 -214 -362.5t-402 -131.5l-1 73q20 -1 39 -1q195 0 299 111q104 112 104 276v31q-10 185 -138 275q-99 70 -260 70q-47 0 -98 -6v-1648l-224 -85l-12 42q60 28 76 594q4 148 5 294q0 416 -33 823z " />
<glyph unicode="Q" horiz-adv-x="2047" d="M134 1122q86 322 367 506q225 146 508 146q71 0 145 -9q373 -46 584 -304q194 -236 194 -588q0 -32 -2 -65q-19 -396 -420 -686q271 -294 459 -294q31 0 60 8l25 -49q-27 -1 -54 -1q-379 0 -630 254q-192 -63 -370 -63q-189 0 -362 71q-335 138 -462 445q-77 183 -77 372 q0 127 35 257zM320 1116q-21 -109 -21 -212q0 -196 79 -368q121 -261 389 -400q154 -80 307 -80l229 44l-213 211l193 39l160 -164q282 200 285 591v10q0 384 -192 624q-193 243 -466 281q-56 8 -110 8q-206 0 -370 -118q-206 -148 -270 -466z" />
<glyph unicode="R" horiz-adv-x="1652" d="M90 1680v65q140 4 257 4q415 0 540 -55q157 -70 157 -261v-7q-3 -197 -364 -374q708 -1020 969 -1021q40 0 69 24l25 -56q-76 -8 -143 -8q-268 0 -406 124q-173 155 -717 950q215 28 313 120q82 76 82 189q0 23 -4 48q-20 145 -132 215q-82 51 -216 51q-50 0 -107 -7 v-1658l-201 -65q44 477 44 951q0 397 -31 792z" />
<glyph unicode="S" horiz-adv-x="1176" d="M104 148l95 148q208 -218 397 -218q16 0 34 2q204 22 250 236q8 36 7 71q-1 172 -181 318q-218 175 -412 325q-159 123 -159 296q1 40 9 82q44 227 285 314q107 39 229 39q153 0 329 -61l-132 -210l-84 28l94 63q-142 111 -286 111q-29 0 -58 -4q-175 -26 -227 -180 q-15 -44 -15 -88q-1 -107 91 -209q128 -144 384.5 -307.5t284.5 -385.5q4 -33 4 -64q0 -181 -137 -313q-148 -142 -360 -142q-18 0 -38 1q-238 14 -404 148z" />
<glyph unicode="T" horiz-adv-x="1505" d="M63 1602l78 143q321 -25 656 -25q307 0 625 21l-55 -148q-249 64 -434 64q-62 0 -117 -7q-23 -554 -22.5 -956t22.5 -650l-265 -82l-7 33q104 39 118 664q6 271 6 492q0 291 -11 498q-70 7 -145 7q-206 0 -449 -54z" />
<glyph unicode="U" horiz-adv-x="1975" d="M119 1701l335 79q-19 -346 -29 -818q-1 -34 -1 -68q0 -419 118 -613q126 -207 407 -207h5q286 2 420 158t141 598q1 74 1 147q0 368 -29 735l217 52q-39 -354 -47 -928q-2 -118 -2 -220q0 -393 25 -542l121 61l32 -42l-333 -131l-5 260q-243 -231 -611 -241h-30 q-345 -1 -473 227q-117 207 -117 481q0 41 3 83q9 145 9 342q0 246 -14 572l-133 -50z" />
<glyph unicode="V" horiz-adv-x="2061" d="M-22 1700q231 31 358 72q254 -598 696 -1475q660 1241 654 1368l-93 14v41l410 46q-439 -579 -671.5 -1049t-300.5 -752l-61 -10q-367 986 -865 1725l-112 -26z" />
<glyph unicode="W" horiz-adv-x="2402" d="M-20 1676q276 23 405 81l232 -1341l621 1283l52 -5q21 -216 591 -1358q229 920 229 1233q0 78 -14 118l-160 -21l7 53h381q-376 -1368 -376 -1689q0 -18 1 -32l-71 -11l-665 1382q-640 -1185 -654 -1362l-64 -22q-129 1213 -318 1672l-181 -44z" />
<glyph unicode="X" horiz-adv-x="1704" d="M-7 1675q269 58 321 92q137 -254 537 -781q481 598 481 773v9l205 -90q-277 -279 -640 -750q495 -689 654 -898l117 44l19 -61l-351 -56q-191 345 -551 857q-436 -561 -473 -785l150 31l-9 -65l-403 -3q249 313 682 880q-427 620 -587 802l-143 -64z" />
<glyph unicode="Y" horiz-adv-x="1620" d="M-16 1691q204 8 351 60l550 -906q454 689 454 847q0 37 -24 45l236 -31q-602 -836 -601 -1027q-9 -134 -9 -270q0 -186 17 -376l-250 -77l-9 31q81 22 81 329q0 140 -17 340q-51 272 -598 1018l-168 -51z" />
<glyph unicode="Z" horiz-adv-x="1519" d="M50 20q937 1414 1040 1614q-208 11 -373 11q-407 0 -546 -67l46 164q372 -31 646 -31q279 0 459 32l26 -22q-892 -1251 -1045 -1641q111 -3 210 -3q679 0 830 149l44 -13l-262 -347l-100 9l126 112q-204 22 -502 22q-255 0 -578 -16z" />
<glyph unicode="[" horiz-adv-x="694" d="M94 -330q117 146 46 2008l32 27q122 -31 483 8l33 -31l-143 -106q-131 57 -247 33v-1855q247 0 315 26l34 -8l-98 -131q-304 58 -424 2z" />
<glyph unicode="\" horiz-adv-x="859" d="M45 1798l653 -1899h111l-657 1899h-107z" />
<glyph unicode="]" horiz-adv-x="734" d="M22 -328l143 106q131 -57 247 -33v1855q-247 0 -315 -26l-34 8l98 131q304 -58 424 -2l31 -27q-117 -146 -46 -2008l-32 -27q-122 31 -483 -8z" />
<glyph unicode="^" horiz-adv-x="1181" d="M22 807l552 920h39l545 -920h-148l-419 732l-439 -732h-130z" />
<glyph unicode="_" horiz-adv-x="1155" d="M31 0h1092v-98h-1092v98z" />
<glyph unicode="`" horiz-adv-x="460" d="M43 1602l342 -142l33 36l-313 254z" />
<glyph unicode="a" horiz-adv-x="1048" d="M124 234q-11 63 -11 121q-1 159 83 277q55 78 169 78q121 0 307 -89q21 131 21 228q1 127 -35 199q-24 47 -98 47q-123 0 -386 -132l-37 45q217 72 329 258l79 -29l-138 -112q238 70 325 70q29 0 42 -8q50 -31 61 -200q4 -63 4 -140q1 -129 -11 -299q-8 -123 -9 -232 q0 -130 12 -240l158 62l1 -58q-236 -67 -311 -132l-23 212q-228 -170 -353 -170h-11q-126 8 -168 244zM290 261q42 -173 133 -172q4 -1 8 -1q97 8 226 146l4 307q-141 93 -229 93q-70 0 -106 -60q-52 -86 -52 -192q0 -57 16 -121z" />
<glyph unicode="b" horiz-adv-x="1173" d="M57 1700l8 63q332 31 388 76l18 -20q-80 -33 -86 -724q152 131 362 131h17q222 -6 274 -354q19 -129 20 -240q0 -188 -56 -324q-88 -216 -262 -273q-136 -45 -406 -45q-74 0 -159 3l-5 31q66 11 66 713t-2 1006zM385 100q102 -38 181 -37q59 1 106 21q108 50 162 208 q43 127 43 318q-1 48 -3 100q-14 260 -88 360q-63 84 -151 84q-17 0 -35 -4q-112 -20 -172 -158q-47 -108 -47 -589q0 -137 4 -303z" />
<glyph unicode="c" horiz-adv-x="943" d="M96 586q7 266 133 448q125 182 353 192q9 0 18 -1q211 0 243 -220l-148 -83q-11 148 -105 214q-30 21 -62 20q-66 0 -136 -94q-104 -140 -118 -422q-1 -32 -1 -62q0 -236 90 -358q94 -128 207 -129q10 0 18 1q122 11 275 178l49 -83q-206 -192 -415 -192h-6 q-212 3 -307 164q-88 150 -88 391v36z" />
<glyph unicode="d" horiz-adv-x="1171" d="M143 364q-18 111 -18 212q1 141 35 265q60 213 217 296t431 86l28 527l-192 -43l5 60q252 7 398 76l11 -29q-102 -160 -102 -986q0 -326 16 -755l158 48l10 -52q-219 -35 -328 -125l-13 199q-179 -147 -323 -147q-57 0 -108 22q-182 82 -225 346zM308 458 q20 -220 124 -314q65 -59 132 -59q40 0 80 20q108 55 144 183q23 81 24 376q0 170 -8 411q-93 74 -187 74q-45 0 -91 -17q-140 -53 -188 -254q-35 -142 -35 -294q-1 -62 5 -126z" />
<glyph unicode="e" horiz-adv-x="998" d="M94 586q7 266 133 448t380 192h11q243 0 247 -437l-590 -74q-2 -48 -2 -93q0 -284 88 -412q95 -138 216 -139q9 0 19 1q132 11 265 198l49 -83q-206 -192 -415 -192h-6q-212 3 -307 164q-88 150 -88 391v36zM289 771l408 52q2 23 2 45q0 135 -73 232q-43 57 -93 57 q-49 0 -104 -54q-112 -110 -140 -332z" />
<glyph unicode="f" horiz-adv-x="742" d="M42 1131l43 65l177 -3q0 237 5.5 383.5t136.5 209.5q87 41 207 41q61 0 130 -11l-51 -59q-43 18 -83 18q-56 0 -105 -37q-84 -63 -91 -540l274 -1l-41 -61l-237 14q-14 -697 -14 -1067q0 -242 6 -344l-183 -152l-27 20q66 167 66 1140q0 184 -2 398z" />
<glyph unicode="g" horiz-adv-x="1139" d="M94 488q-11 70 -11 135q0 139 49 253q70 168 254 251q160 72 386 72q35 0 72 -2l175 46l21 -39q-130 -53 -139.5 -175t-24.5 -351q-2 -43 -2 -86q0 -195 52 -424q18 -74 18 -141q0 -183 -132 -303q-164 -153 -366 -153q-17 0 -34 1q-221 14 -286 126q-14 26 -14 54 q0 97 174 230l21 -26q-40 -49 -40 -101q0 -47 33 -95q69 -102 213 -112q10 -1 19 -1q131 0 207 127q37 61 37 172q0 137 -56 351q-177 -126 -314 -126q-58 0 -108 23q-171 75 -204 294zM258 582q18 -174 116 -274q59 -60 121 -60q41 0 83 26q105 66 132 204q25 133 25 559 v33q-106 51 -191 51q-55 0 -100 -21q-118 -54 -162 -198q-30 -102 -30 -218q0 -49 6 -102z" />
<glyph unicode="h" horiz-adv-x="1201" d="M83 1721l6 38q253 12 350 72l20 -23q-65 -46 -65 -612q0 -91 2 -194q228 188 396 214q19 3 36 3q134 -1 151 -179q9 -99 9 -218q0 -123 -10 -267q-9 -131 -8 -243q0 -132 12 -237l124 60l7 -47l-301 -122q16 281 22 663q0 29 1 56q1 331 -73 389q-32 25 -73 25 q-59 -1 -137 -55q-130 -92 -167 -373l-25 -619l123 65l8 -51l-306 -110q67 730 67 1364q0 218 -8 425z" />
<glyph unicode="i" horiz-adv-x="635" d="M93 1132q192 3 300 102l30 -3q-51 -146 -50 -624q0 -229 11 -535l123 65l8 -51l-306 -130q22 467 22 747q0 344 -33 405l-101 -34zM197 1632q15 60 88 76q30 7 54 7q35 0 57 -14q29 -18 29 -55q-1 -10 -3 -22q-10 -54 -74 -76q-32 -11 -61 -10q-29 0 -55 11 q-39 17 -38 57q0 12 3 26z" />
<glyph unicode="j" horiz-adv-x="632" d="M-4 -388q222 92 246 739q7 187 7 329q0 350 -42 428l-101 -34l-4 58q192 3 280 102l30 -3q-26 -526 -26 -883q0 -69 1 -132v-12q0 -378 -353 -629zM200 1624q10 52 76 78q33 13 62 13t54 -12q41 -21 41 -61q0 -9 -1 -18q-11 -54 -66 -76q-26 -10 -55 -10t-59 11 q-53 19 -53 61q0 6 1 14z" />
<glyph unicode="k" horiz-adv-x="1229" d="M60 1706l21 51h6q226 0 339 75q-48 -459 -48 -872q0 -74 2 -146q10 -2 21 -2q148 0 514 402l167 -94q-184 -41 -481 -285q438 -796 620 -796q31 0 54 23l7 -57q-58 -14 -112 -14q-258 -1 -436 309q-215 374 -293 460l-59 -26l12 -676l150 38l17 -45q-187 -27 -353 -115 q36 913 36 1584q0 112 -1 217z" />
<glyph unicode="l" horiz-adv-x="633" d="M62 1706l11 51h6q235 0 349 75q-50 -600 -50 -1143q0 -326 18 -631l160 58l17 -55q-197 -37 -363 -125q36 913 36 1584q0 112 -1 217z" />
<glyph unicode="m" horiz-adv-x="1762" d="M109 1122q212 13 290 122l30 -3l-13 -239q198 188 356 214q14 2 28 2q134 0 173 -236q190 202 370 237q20 4 39 4q145 0 171 -243q11 -100 11 -254q0 -266 -33 -692l147 59l15 -46l-331 -83q36 272 36 586q0 52 -1 106q-7 376 -91 434q-28 19 -59 19q-65 0 -147 -78 q-122 -116 -132 -360q-20 -263 -20 -457q0 -87 4 -159l124 50l7 -47l-301 -92q16 281 28 663q2 54 1 102q1 289 -59 343q-28 25 -66 25q-56 -1 -130 -55q-126 -92 -161 -373l-25 -629l133 45l8 -51l-316 -60q61 638 61 921q0 170 -22 211l-111 -34z" />
<glyph unicode="n" horiz-adv-x="1184" d="M103 1122q202 23 289 120l24 -18l-34 -236q236 202 404 228q19 3 36 3q134 -1 151 -179q9 -99 9 -218q0 -123 -10 -267q-9 -131 -8 -245q0 -134 12 -245l124 70l7 -57l-301 -122q16 291 22 673q0 29 1 56q1 331 -73 389q-32 25 -73 25q-59 -1 -137 -55 q-130 -92 -167 -373l-25 -639l123 65l8 -51l-306 -90q61 650 61 938q0 173 -22 214l-101 -34z" />
<glyph unicode="o" horiz-adv-x="1179" d="M114 414q-9 73 -10 142q0 152 45 286q65 195 184 279t281 91h21q150 0 264 -98q121 -104 153 -328q10 -75 11 -148q0 -145 -42 -281q-63 -204 -192 -288.5t-286 -86.5h-6q-153 0 -273 99q-120 101 -150 333zM286 717q-11 -77 -10 -148q0 -148 46 -274q68 -185 210 -217 q36 -8 68 -8q95 0 157 70q83 94 117 322q11 75 10 147q0 149 -46 293q-69 212 -206 234q-23 3 -45 3q-107 -1 -180 -85q-89 -102 -121 -337z" />
<glyph unicode="p" horiz-adv-x="1190" d="M101 1075l3 49q142 3 248 111l26 -17v-197q235 190 381 190h12q149 -8 215 -181q55 -145 55 -358q0 -42 -2 -86q-13 -271 -147 -441q-113 -145 -410 -145q-52 0 -110 5q-13 -114 -13 -203q0 -138 32 -216l-187 -17q32 570 32 973q0 341 -23 562zM382 151q123 -79 241 -79 h5q120 2 181 188q55 169 55 371v44q-7 228 -78 355q-48 86 -122 86q-34 0 -74 -18q-126 -60 -174 -208q-37 -115 -37 -495q0 -111 3 -244z" />
<glyph unicode="q" horiz-adv-x="1172" d="M101 416q-2 35 -2 69q0 239 99 415q113 200 278 260q72 26 153 26q104 0 221 -43l201 87l17 -57q-121 -13 -142.5 -145.5t-28.5 -1335.5l391 97l6 -85h-18q-268 0 -555 -140l-23 25q55 78 55 478v69q-189 -134 -331 -134q-70 0 -128 32q-177 99 -193 382zM282 441 q24 -283 188 -321q30 -8 58 -8q125 0 209 141q25 283 25 490q0 69 -3 129q-11 236 -167 236h-8q-164 -7 -246 -196q-62 -144 -62 -345q0 -61 6 -126z" />
<glyph unicode="r" horiz-adv-x="787" d="M104 1122q202 23 289 120l24 -18l-16 -164q126 162 279 162q49 0 102 -17l-79 -156q-92 59 -154 59q-61 0 -93 -56q-65 -114 -76 -401l-5 -619l123 65l8 -51l-306 -90q44 593 44 884q0 220 -25 268l-101 -34z" />
<glyph unicode="s" horiz-adv-x="883" d="M103 64l67 144q150 -147 283 -152h9q124 0 158 130q7 26 7 51q1 106 -117 203q-146 120 -284 226q-115 89 -115 231q1 27 5 56q26 179 201 241q78 27 167 27q112 0 242 -42l-94 -188l-59 19l47 55q-103 78 -196 78h-14q-100 -6 -150 -97q-17 -31 -17 -65q0 -63 63 -132 q96 -106 270 -221q174 -116 200 -280q4 -28 4 -53q0 -129 -106 -218q-118 -98 -268 -98q-14 0 -28 1q-168 10 -275 84z" />
<glyph unicode="t" horiz-adv-x="814" d="M64 1115l3 70l226 4q23 204 23 313q0 41 -3 68l183 87l-67 -464q203 7 334 60l-15 -85l-322 -27q-53 -532 -52 -760q0 -65 4 -106q20 -181 88 -213q14 -6 31 -6q66 0 174 102l75 -33q-221 -155 -330 -170q-10 -1 -20 -1q-94 0 -150 130q-24 56 -24 227q0 269 59 823z" />
<glyph unicode="u" horiz-adv-x="1221" d="M108 1139q234 23 320 96q-84 -411 -84 -692q0 -71 6 -133q26 -310 134 -322q11 -1 21 -2q97 0 193 95q106 105 124 426l10 520l-140 -46l-7 68h18q215 0 291 95q-32 -394 -32 -750q0 -219 12 -422l144 87l11 -74l-306 -123l-13 247q-198 -187 -360 -215q-26 -5 -49 -5 q-122 0 -173 127q-46 115 -46 340q0 68 4 148q18 338 55 512l-120 -49z" />
<glyph unicode="v" horiz-adv-x="1085" d="M-22 1064l1 55q161 16 301 106l16 -30q-13 -12 -13 -46q0 -161 287 -811q265 574 265 782q0 62 -23 91l221 -52q-454 -964 -479 -1178l-47 -3q-305 883 -429 1127z" />
<glyph unicode="w" horiz-adv-x="1541" d="M-19 1103q218 51 312 122l29 -19q23 -493 108 -851q322 607 322 778q0 18 -3 31l46 4q102 -362 363 -856q120 507 120 735q0 138 -44 173l245 -74q-265 -860 -299 -1144h-60l-363 791q-233 -393 -384 -795l-61 4q-84 787 -195 1105l-122 -61z" />
<glyph unicode="x" horiz-adv-x="1095" d="M-8 1133q209 14 300 92q63 -201 263 -540q239 360 239 493q0 20 -5 35l209 -61q-165 -189 -399 -526l375 -573l86 35l16 -49l-261 -73q-134 235 -322 554q-195 -352 -244 -529h-213q177 212 421 598q-252 420 -359 524l-83 -34z" />
<glyph unicode="y" horiz-adv-x="1101" d="M-14 1137q175 23 271 92l339 -787q264 517 264 695q0 58 -28 80l248 -43q-265 -359 -699 -1538l-306 -66l-8 41q245 52 419 650q-1 167 -371 856l-117 -26z" />
<glyph unicode="z" horiz-adv-x="996" d="M50 11q233 168 596 1083q-98 13 -181 13q-216 0 -335 -88l43 182q242 -17 414 -17q228 0 334 30l33 -26q-171 -88 -596 -1080h28q417 0 514 118l43 -16l-231 -307l-62 10l89 85q-111 16 -247 16q-184 0 -415 -29z" />
<glyph unicode="{" horiz-adv-x="701" d="M33 672v42q232 0 247 256.5t0 521.5t317 295l-5 -43q-181 -30 -161 -271t0 -512t-232 -271q217 0 237 -249t0 -510.5t157 -291.5v-38q-338 30 -318 308.5t0 520.5t-242 242z" />
<glyph unicode="|" horiz-adv-x="400" d="M150 -414v2241h99v-2241h-99z" />
<glyph unicode="}" horiz-adv-x="704" d="M108 1787l5 -43q181 -30 161 -271t0 -512t232 -271q-217 0 -237 -249t0 -510.5t-157 -291.5v-38q338 30 318 308.5t0 520.5t242 242v42q-232 0 -247 256.5t0 521.5t-317 295z" />
<glyph unicode="~" horiz-adv-x="1299" d="M27 571q6 159 85.5 242.5t186.5 83.5q51 0 105 -18q121 -34 319.5 -119.5t277.5 -85.5q87 0 147 57t71 162h52q-4 -153 -86.5 -238.5t-199.5 -85.5q-53 0 -114.5 18t-319.5 123q-181 76 -256 76q-81 0 -138 -51t-78 -164h-52z" />
<glyph unicode="&#xa1;" horiz-adv-x="309" />
<glyph unicode="&#xa2;" horiz-adv-x="636" />
<glyph unicode="&#xa3;" horiz-adv-x="636" />
<glyph unicode="&#xa4;" horiz-adv-x="420" />
<glyph unicode="&#xa5;" horiz-adv-x="636" />
<glyph unicode="&#xa6;" horiz-adv-x="201" />
<glyph unicode="&#xa7;" horiz-adv-x="977" d="M95 769.5q16 198.5 218 286.5q-185 148 -149.5 346t216 256t461.5 -73l-99 -185l-64 23l54 57q-119 116 -253.5 127t-178.5 -111.5t57 -236t304 -260t233 -285t-26 -258.5t-168 -154q120 -112 132.5 -266t-121 -257.5t-302 -91t-289.5 129.5l71 139q158 -185 309 -190.5 t174.5 140.5t-125 272.5t-309.5 259.5t-145 331.5zM229 836.5q-11 -153.5 154 -307t274.5 -156t111.5 137.5t-147 295.5t-265.5 169.5t-127.5 -139.5z" />
<glyph unicode="&#xa8;" horiz-adv-x="708" d="M38 1631.5q15 60.5 88 76.5t110.5 -7t27 -77t-75 -75.5t-115 0.5t-35.5 82.5zM443 1631.5q15 60.5 88 76.5t110.5 -7t27 -77t-75 -75.5t-115 0.5t-35.5 82.5z" />
<glyph unicode="&#xa9;" horiz-adv-x="1200" d="M102 1230q0 130 67 250t186.5 184.5t245.5 64.5t245.5 -64.5t187 -184.5t67.5 -250t-66 -248.5t-185 -184.5t-249 -66q-129 0 -248 66t-185 184.5t-66 248.5zM175 1230q0 -111 56.5 -212t158 -157.5t211.5 -56.5q111 0 212.5 56.5t158 157.5t56.5 212t-57.5 213.5 t-159.5 157.5t-210 55q-107 0 -209 -55t-159.5 -157.5t-57.5 -213.5zM280 1160q-18 106 24 190t133 133.5t181.5 54t215.5 -32.5l-79 -102l-41 8l42 25q-76 40 -161.5 47t-146 -43t-75 -148t24.5 -177t106 -113.5t148.5 -29.5t164.5 69l17 -39q-34 -14 -105 -113l-51 9 l59 44q-84 -21 -180 -15.5t-177.5 66.5t-99.5 167z" />
<glyph unicode="&#xaa;" horiz-adv-x="402" />
<glyph unicode="&#xab;" horiz-adv-x="540" />
<glyph unicode="&#xac;" horiz-adv-x="1395" />
<glyph unicode="&#xad;" horiz-adv-x="788" d="M118 530v154h556v-154h-556z" />
<glyph unicode="&#xae;" horiz-adv-x="1200" d="M101 1230q0 130 67 250t186.5 184.5t245.5 64.5t245.5 -64.5t187 -184.5t67.5 -250t-66 -248.5t-185 -184.5t-249 -66q-129 0 -248 66t-185 184.5t-66 248.5zM174 1230q0 -111 56.5 -212t158 -157.5t211.5 -56.5q111 0 212.5 56.5t158 157.5t56.5 212t-57.5 213.5 t-159.5 157.5t-210 55q-107 0 -209 -55t-159.5 -157.5t-57.5 -213.5zM375 1504v32q268 7 323 -17t54 -91.5t-125 -134.5q278 -394 353 -318l10 -34q-156 -13 -215 39.5t-244 317.5q73 9 106.5 44t26.5 82.5t-45 68t-110 11.5v-555l-92 -22q27 299 4 584z" />
<glyph unicode="&#xaf;" horiz-adv-x="360" />
<glyph unicode="&#xb0;" horiz-adv-x="488" d="M46 1436q0 119 82.5 202t200.5 83q120 0 202.5 -83t82.5 -202q0 -117 -83 -200t-202 -83q-117 0 -200 83t-83 200zM142 1438q0 -78 54.5 -133.5t132.5 -55.5t132.5 55.5t54.5 133.5t-54.5 132.5t-132.5 54.5t-132.5 -54.5t-54.5 -132.5z" />
<glyph unicode="&#xb1;" horiz-adv-x="636" />
<glyph unicode="&#xb2;" horiz-adv-x="300" />
<glyph unicode="&#xb3;" horiz-adv-x="300" />
<glyph unicode="&#xb4;" horiz-adv-x="460" d="M43 1496l313 254l62 -148l-342 -142z" />
<glyph unicode="&#xb5;" horiz-adv-x="420" />
<glyph unicode="&#xb6;" horiz-adv-x="945" d="M1 1236q0 490 415 490h529v-74h-106v-2102h-100v2102h-223v-2102h-100v1178q-415 0 -415 508z" />
<glyph unicode="&#xb7;" horiz-adv-x="207" />
<glyph unicode="&#xb8;" horiz-adv-x="410" d="M68 -413l29 48q103 -22 148 9t53 78t-35 85t-121 18l124 194h85l-62 -106q106 -10 134.5 -90t-20.5 -145t-137 -86.5t-198 -4.5z" />
<glyph unicode="&#xb9;" horiz-adv-x="300" />
<glyph unicode="&#xba;" horiz-adv-x="402" />
<glyph unicode="&#xbb;" horiz-adv-x="540" />
<glyph unicode="&#xbc;" horiz-adv-x="786" />
<glyph unicode="&#xbd;" horiz-adv-x="786" />
<glyph unicode="&#xbe;" horiz-adv-x="786" />
<glyph unicode="&#xbf;" horiz-adv-x="567" />
<glyph unicode="&#xc0;" d="M14 -3q386 544 618.5 1014t300.5 752l61 10q367 -986 865 -1725l112 26l15 -46q-231 -31 -358 -72q-182 479 -405 921q-392 87 -560 16q-391 -703 -385 -840l93 -14v-41zM725 994l437 -10q-132 381 -244 519zM797 2032l342 -142l33 36l-313 254z" />
<glyph unicode="&#xc1;" d="M14 -3q386 544 618.5 1014t300.5 752l61 10q367 -986 865 -1725l112 26l15 -46q-231 -31 -358 -72q-182 479 -405 921q-392 87 -560 16q-391 -703 -385 -840l93 -14v-41zM725 994l437 -10q-132 381 -244 519zM798 1926l313 254l62 -148l-342 -142z" />
<glyph unicode="&#xc2;" d="M14 -3q386 544 618.5 1014t300.5 752l61 10q367 -986 865 -1725l112 26l15 -46q-231 -31 -358 -72q-182 479 -405 921q-392 87 -560 16q-391 -703 -385 -840l93 -14v-41zM683 1915l233 262h58l230 -262l-54 -40l-206 165l-212 -164zM725 994l437 -10q-132 381 -244 519z " />
<glyph unicode="&#xc3;" d="M14 -3q386 544 618.5 1014t300.5 752l61 10q367 -986 865 -1725l112 26l15 -46q-231 -31 -358 -72q-182 479 -405 921q-392 87 -560 16q-391 -703 -385 -840l93 -14v-41zM714 1937q0 314 235 175.5t235 40.5h51q0 -314 -235.5 -176.5t-235.5 -39.5h-50zM725 994l437 -10 q-132 381 -244 519z" />
<glyph unicode="&#xc4;" d="M14 -3q386 544 618.5 1014t300.5 752l61 10q367 -986 865 -1725l112 26l15 -46q-231 -31 -358 -72q-182 479 -405 921q-392 87 -560 16q-391 -703 -385 -840l93 -14v-41zM660 2064.5q15 60.5 88 76.5t110.5 -7t27 -77t-75 -75.5t-115 0.5t-35.5 82.5zM725 994l437 -10 q-132 381 -244 519zM1065 2064.5q15 60.5 88 76.5t110.5 -7t27 -77t-75 -75.5t-115 0.5t-35.5 82.5z" />
<glyph unicode="&#xc5;" d="M14 -3q386 544 618.5 1014t300.5 752l61 10q367 -986 865 -1725l112 26l15 -46q-231 -31 -358 -72q-182 479 -405 921q-392 87 -560 16q-391 -703 -385 -840l93 -14v-41zM725 994l437 -10q-132 381 -244 519zM766 1917q0 82 57 139.5t139 57.5q83 0 140 -57.5t57 -139.5 q0 -81 -57.5 -138.5t-139.5 -57.5q-81 0 -138.5 57.5t-57.5 138.5zM847 1918q0 -48 33.5 -82t81.5 -34t81.5 34t33.5 82t-33.5 81.5t-81.5 33.5t-81.5 -33.5t-33.5 -81.5z" />
<glyph unicode="&#xc6;" horiz-adv-x="2208" d="M-4 -6q728 830 1139 1677l-185 -8l36 72q561 -30 963 16l-55 -138q-363 66 -511 47v-617q476 0 642 62l-78 -174q-452 57 -564 20l-20 -887q526 5 659 155l43 -16l-265 -332l-92 9l111 105q-335 33 -681 -13l-7 33q79 39 93 410t6 534l-410 -3q-400 -602 -507 -891 l91 -32l-4 -29h-404zM886 1037l357 4q5 398 -52 568z" />
<glyph unicode="&#xc7;" horiz-adv-x="1774" d="M127.5 656.5q-52.5 311.5 84 574t356 380.5t486 145t652.5 -72l-207 -206l-76 15l123 73q-272 109 -543.5 100t-463 -170t-236 -450t70.5 -535t349 -367t500 -66t415 210l29 -87q-117 -35 -340 -320l-77 30l160 138q-255 -94 -518 -77.5t-487.5 195t-277 490zM783 -413 l29 48q103 -22 148 9t53 78t-35 85t-121 18l124 194h85l-62 -106q106 -10 134.5 -90t-20.5 -145t-137 -86.5t-198 -4.5z" />
<glyph unicode="&#xc8;" horiz-adv-x="1240" d="M38 1673l26 62q511 -30 913 16l-55 -138q-363 66 -511 47v-617q476 0 642 62l-78 -174q-452 89 -564 20l-20 -887q526 5 659 155l43 -16l-265 -332l-92 9l111 105q-335 33 -681 -13l-7 33q79 39 95.5 597t-42.5 1087zM353 2032l342 -142l33 36l-313 254z" />
<glyph unicode="&#xc9;" horiz-adv-x="1240" d="M38 1673l26 62q511 -30 913 16l-55 -138q-363 66 -511 47v-617q476 0 642 62l-78 -174q-452 89 -564 20l-20 -887q526 5 659 155l43 -16l-265 -332l-92 9l111 105q-335 33 -681 -13l-7 33q79 39 95.5 597t-42.5 1087zM333 1926l313 254l62 -148l-342 -142z" />
<glyph unicode="&#xca;" horiz-adv-x="1240" d="M38 1673l26 62q511 -30 913 16l-55 -138q-363 66 -511 47v-617q476 0 642 62l-78 -174q-452 89 -564 20l-20 -887q526 5 659 155l43 -16l-265 -332l-92 9l111 105q-335 33 -681 -13l-7 33q79 39 95.5 597t-42.5 1087zM317 1915l233 262h58l230 -262l-54 -40l-206 165 l-212 -164z" />
<glyph unicode="&#xcb;" horiz-adv-x="1240" d="M38 1673l26 62q511 -30 913 16l-55 -138q-363 66 -511 47v-617q476 0 642 62l-78 -174q-452 89 -564 20l-20 -887q526 5 659 155l43 -16l-265 -332l-92 9l111 105q-335 33 -681 -13l-7 33q79 39 95.5 597t-42.5 1087zM238 2064.5q15 60.5 88 76.5t110.5 -7t27 -77 t-75 -75.5t-115 0.5t-35.5 82.5zM643 2064.5q15 60.5 88 76.5t110.5 -7t27 -77t-75 -75.5t-115 0.5t-35.5 82.5z" />
<glyph unicode="&#xcc;" horiz-adv-x="680" d="M114 2035l342 -142l33 36l-313 254zM165 -15q88 62 91.5 821.5t-55.5 861.5l214 91q-61 -1218 20 -1723l-251 -85z" />
<glyph unicode="&#xcd;" horiz-adv-x="680" d="M165 -15q88 62 91.5 821.5t-55.5 861.5l214 91q-61 -1218 20 -1723l-251 -85zM174 1929l313 254l62 -148l-342 -142z" />
<glyph unicode="&#xce;" horiz-adv-x="680" d="M65 1915l233 262h58l230 -262l-54 -40l-206 165l-212 -164zM165 -15q88 62 91.5 821.5t-55.5 861.5l214 91q-61 -1218 20 -1723l-251 -85z" />
<glyph unicode="&#xcf;" horiz-adv-x="680" d="M9 2064.5q15 60.5 88 76.5t110.5 -7t27 -77t-75 -75.5t-115 0.5t-35.5 82.5zM165 -15q88 62 91.5 821.5t-55.5 861.5l214 91q-61 -1218 20 -1723l-251 -85zM414 2064.5q15 60.5 88 76.5t110.5 -7t27 -77t-75 -75.5t-115 0.5t-35.5 82.5z" />
<glyph unicode="&#xd0;" horiz-adv-x="663" />
<glyph unicode="&#xd1;" horiz-adv-x="1945" d="M203 1708l55 40l1292 -1346v633q0 538 -92 654l230 72q-88 -1491 -1 -1749l-84 -25q-182 362 -1242 1394v-628q0 -601 65 -711l172 22v-58l-379 -14q100 1508 -16 1716zM705 1937q0 314 235 175.5t235 40.5h51q0 -314 -235.5 -176.5t-235.5 -39.5h-50z" />
<glyph unicode="&#xd2;" horiz-adv-x="2045" d="M139 1122q86 322 367 505.5t653.5 137.5t579 -294t191.5 -581t-184.5 -559.5t-492 -315t-634 41t-439 436.5t-41.5 629zM325.5 1116q-63.5 -318 57.5 -579.5t341 -380.5t489 -63.5t395.5 280t116 530.5t-193.5 528.5t-456 261t-479.5 -110t-270 -466.5zM813 2035 l342 -142l33 36l-313 254z" />
<glyph unicode="&#xd3;" horiz-adv-x="2045" d="M139 1122q86 322 367 505.5t653.5 137.5t579 -294t191.5 -581t-184.5 -559.5t-492 -315t-634 41t-439 436.5t-41.5 629zM325.5 1116q-63.5 -318 57.5 -579.5t341 -380.5t489 -63.5t395.5 280t116 530.5t-193.5 528.5t-456 261t-479.5 -110t-270 -466.5zM814 1929l313 254 l62 -148l-342 -142z" />
<glyph unicode="&#xd4;" horiz-adv-x="2045" d="M139 1122q86 322 367 505.5t653.5 137.5t579 -294t191.5 -581t-184.5 -559.5t-492 -315t-634 41t-439 436.5t-41.5 629zM325.5 1116q-63.5 -318 57.5 -579.5t341 -380.5t489 -63.5t395.5 280t116 530.5t-193.5 528.5t-456 261t-479.5 -110t-270 -466.5zM757 1915l233 262 h58l230 -262l-54 -40l-206 165l-212 -164z" />
<glyph unicode="&#xd5;" horiz-adv-x="2045" d="M139 1122q86 322 367 505.5t653.5 137.5t579 -294t191.5 -581t-184.5 -559.5t-492 -315t-634 41t-439 436.5t-41.5 629zM325.5 1116q-63.5 -318 57.5 -579.5t341 -380.5t489 -63.5t395.5 280t116 530.5t-193.5 528.5t-456 261t-479.5 -110t-270 -466.5zM773 1937 q0 314 235 175.5t235 40.5h51q0 -314 -235.5 -176.5t-235.5 -39.5h-50z" />
<glyph unicode="&#xd6;" horiz-adv-x="2045" d="M139 1122q86 322 367 505.5t653.5 137.5t579 -294t191.5 -581t-184.5 -559.5t-492 -315t-634 41t-439 436.5t-41.5 629zM325.5 1116q-63.5 -318 57.5 -579.5t341 -380.5t489 -63.5t395.5 280t116 530.5t-193.5 528.5t-456 261t-479.5 -110t-270 -466.5zM693 2064.5 q15 60.5 88 76.5t110.5 -7t27 -77t-75 -75.5t-115 0.5t-35.5 82.5zM1098 2064.5q15 60.5 88 76.5t110.5 -7t27 -77t-75 -75.5t-115 0.5t-35.5 82.5z" />
<glyph unicode="&#xd7;" horiz-adv-x="636" />
<glyph unicode="&#xd8;" horiz-adv-x="696" />
<glyph unicode="&#xd9;" horiz-adv-x="1975" d="M119 1701l335 79q-19 -347 -29 -818.5t117 -680.5t412.5 -207t419.5 158t141 597.5t-28 882.5l217 52q-39 -355 -47 -928.5t23 -761.5l121 61l32 -42l-333 -131l-5 260q-243 -231 -611.5 -241t-502.5 227.5t-114 563.5t-5 914l-133 -50zM778 2035l342 -142l33 36 l-313 254z" />
<glyph unicode="&#xda;" horiz-adv-x="1975" d="M119 1701l335 79q-19 -347 -29 -818.5t117 -680.5t412.5 -207t419.5 158t141 597.5t-28 882.5l217 52q-39 -355 -47 -928.5t23 -761.5l121 61l32 -42l-333 -131l-5 260q-243 -231 -611.5 -241t-502.5 227.5t-114 563.5t-5 914l-133 -50zM779 1929l313 254l62 -148 l-342 -142z" />
<glyph unicode="&#xdb;" horiz-adv-x="1975" d="M119 1701l335 79q-19 -347 -29 -818.5t117 -680.5t412.5 -207t419.5 158t141 597.5t-28 882.5l217 52q-39 -355 -47 -928.5t23 -761.5l121 61l32 -42l-333 -131l-5 260q-243 -231 -611.5 -241t-502.5 227.5t-114 563.5t-5 914l-133 -50zM729 1915l233 262h58l230 -262 l-54 -40l-206 165l-212 -164z" />
<glyph unicode="&#xdc;" horiz-adv-x="1975" d="M119 1701l335 79q-19 -347 -29 -818.5t117 -680.5t412.5 -207t419.5 158t141 597.5t-28 882.5l217 52q-39 -355 -47 -928.5t23 -761.5l121 61l32 -42l-333 -131l-5 260q-243 -231 -611.5 -241t-502.5 227.5t-114 563.5t-5 914l-133 -50zM663 2064.5q15 60.5 88 76.5 t110.5 -7t27 -77t-75 -75.5t-115 0.5t-35.5 82.5zM1068 2064.5q15 60.5 88 76.5t110.5 -7t27 -77t-75 -75.5t-115 0.5t-35.5 82.5z" />
<glyph unicode="&#xdd;" horiz-adv-x="526" />
<glyph unicode="&#xde;" horiz-adv-x="576" />
<glyph unicode="&#xdf;" horiz-adv-x="1266" d="M108 -404q77 232 70 984.5t10.5 1002.5t347.5 237.5t395 -163.5t-9 -284t-215 -184q195 -8 322.5 -193.5t87 -538.5t-271 -429t-433.5 22l68 88q110 -81 235.5 -82.5t188.5 242t12 474.5t-161.5 310.5t-312.5 46.5l-1 64q244 -5 304 109.5t28 281.5t-203.5 188.5 t-205 -162.5t-33.5 -1878l-202 -157z" />
<glyph unicode="&#xe0;" horiz-adv-x="1048" d="M124.5 234q-41.5 236 72 397.5t475.5 -10.5q49 300 -14.5 426.5t-483.5 -84.5l-37 45q217 72 329 258l79 -29l-138 -112q317 93 367 62t61 -200t-7.5 -438.5t3.5 -472.5l158 62l1 -58q-236 -67 -311 -132l-23 212q-238 -178 -364 -170t-167.5 244zM290 261 q44 -180 141 -172.5t226 145.5l4 307q-254 167 -334.5 33.5t-36.5 -313.5zM332 1602l342 -142l33 36l-313 254z" />
<glyph unicode="&#xe1;" horiz-adv-x="1048" d="M124.5 234q-41.5 236 72 397.5t475.5 -10.5q49 300 -14.5 426.5t-483.5 -84.5l-37 45q217 72 329 258l79 -29l-138 -112q317 93 367 62t61 -200t-7.5 -438.5t3.5 -472.5l158 62l1 -58q-236 -67 -311 -132l-23 212q-238 -178 -364 -170t-167.5 244zM290 261 q44 -180 141 -172.5t226 145.5l4 307q-254 167 -334.5 33.5t-36.5 -313.5zM333 1496l313 254l62 -148l-342 -142z" />
<glyph unicode="&#xe2;" horiz-adv-x="1048" d="M124.5 234q-41.5 236 72 397.5t475.5 -10.5q49 300 -14.5 426.5t-483.5 -84.5l-37 45q217 72 329 258l79 -29l-138 -112q317 93 367 62t61 -200t-7.5 -438.5t3.5 -472.5l158 62l1 -58q-236 -67 -311 -132l-23 212q-238 -178 -364 -170t-167.5 244zM260 1471l233 262h58 l230 -262l-54 -40l-206 165l-212 -164zM290 261q44 -180 141 -172.5t226 145.5l4 307q-254 167 -334.5 33.5t-36.5 -313.5z" />
<glyph unicode="&#xe3;" horiz-adv-x="1048" d="M124.5 234q-41.5 236 72 397.5t475.5 -10.5q49 300 -14.5 426.5t-483.5 -84.5l-37 45q217 72 329 258l79 -29l-138 -112q317 93 367 62t61 -200t-7.5 -438.5t3.5 -472.5l158 62l1 -58q-236 -67 -311 -132l-23 212q-238 -178 -364 -170t-167.5 244zM260 1508 q0 314 235 175.5t235 40.5h51q0 -314 -235.5 -176.5t-235.5 -39.5h-50zM290 261q44 -180 141 -172.5t226 145.5l4 307q-254 167 -334.5 33.5t-36.5 -313.5z" />
<glyph unicode="&#xe4;" horiz-adv-x="1048" d="M124.5 234q-41.5 236 72 397.5t475.5 -10.5q49 300 -14.5 426.5t-483.5 -84.5l-37 45q217 72 329 258l79 -29l-138 -112q317 93 367 62t61 -200t-7.5 -438.5t3.5 -472.5l158 62l1 -58q-236 -67 -311 -132l-23 212q-238 -178 -364 -170t-167.5 244zM198 1631.5 q15 60.5 88 76.5t110.5 -7t27 -77t-75 -75.5t-115 0.5t-35.5 82.5zM290 261q44 -180 141 -172.5t226 145.5l4 307q-254 167 -334.5 33.5t-36.5 -313.5zM603 1631.5q15 60.5 88 76.5t110.5 -7t27 -77t-75 -75.5t-115 0.5t-35.5 82.5z" />
<glyph unicode="&#xe5;" horiz-adv-x="1048" d="M124.5 234q-41.5 236 72 397.5t475.5 -10.5q49 300 -14.5 426.5t-483.5 -84.5l-37 45q217 72 329 258l79 -29l-138 -112q317 93 367 62t61 -200t-7.5 -438.5t3.5 -472.5l158 62l1 -58q-236 -67 -311 -132l-23 212q-238 -178 -364 -170t-167.5 244zM290 261 q44 -180 141 -172.5t226 145.5l4 307q-254 167 -334.5 33.5t-36.5 -313.5zM324 1584q0 82 57 139.5t139 57.5q83 0 140 -57.5t57 -139.5q0 -81 -57.5 -138.5t-139.5 -57.5q-81 0 -138.5 57.5t-57.5 138.5zM405 1585q0 -48 33.5 -82t81.5 -34t81.5 34t33.5 82t-33.5 81.5 t-81.5 33.5t-81.5 -33.5t-33.5 -81.5z" />
<glyph unicode="&#xe6;" horiz-adv-x="1576" d="M126.5 233q-39.5 237 74 398.5t487.5 -10.5q20 352 -56.5 443.5t-455.5 -99.5l-41 49q225 67 330 255l79 -35l-134 -108q212 78 291.5 48t107.5 -125q125 168 377.5 175t252.5 -428l-589 -84q-12 -361 86 -507t231 -135.5t272 202.5l55 -96q-221 -189 -432.5 -183 t-304.5 169q-103 -77 -223 -129.5t-244 -44.5t-163.5 245zM291 261q44 -180 165 -178.5t176 102.5t50 356q-274 167 -354.5 33.5t-36.5 -313.5zM862 771l408 52q14 164 -71 277t-197 3t-140 -332z" />
<glyph unicode="&#xe7;" horiz-adv-x="943" d="M93 586.5q7 266.5 133 448t353.5 191t260.5 -220.5l-148 -83q-12 148 -105.5 213.5t-198 -73.5t-117.5 -421.5t89 -421t224.5 -127.5t275.5 178l49 -83q-209 -195 -421 -192t-307 164t-88 427.5zM294 -413l29 48q103 -22 148 9t53 78t-35 85t-121 18l124 194h85l-62 -106 q106 -10 134.5 -90t-20.5 -145t-137 -86.5t-198 -4.5z" />
<glyph unicode="&#xe8;" horiz-adv-x="998" d="M94 586.5q7 266.5 133 448t380 191.5t258 -437l-590 -74q-16 -357 86 -505.5t234.5 -137.5t265.5 198l49 -83q-209 -195 -421 -192t-307 164t-88 427.5zM289 771l408 52q14 164 -71 277t-197 3t-140 -332zM309 1602l342 -142l33 36l-313 254z" />
<glyph unicode="&#xe9;" horiz-adv-x="998" d="M94 586.5q7 266.5 133 448t380 191.5t258 -437l-590 -74q-16 -357 86 -505.5t234.5 -137.5t265.5 198l49 -83q-209 -195 -421 -192t-307 164t-88 427.5zM289 771l408 52q14 164 -71 277t-197 3t-140 -332zM310 1496l313 254l62 -148l-342 -142z" />
<glyph unicode="&#xea;" horiz-adv-x="998" d="M94 586.5q7 266.5 133 448t380 191.5t258 -437l-590 -74q-16 -357 86 -505.5t234.5 -137.5t265.5 198l49 -83q-209 -195 -421 -192t-307 164t-88 427.5zM250 1471l233 262h58l230 -262l-54 -40l-206 165l-212 -164zM289 771l408 52q14 164 -71 277t-197 3t-140 -332z" />
<glyph unicode="&#xeb;" horiz-adv-x="998" d="M94 586.5q7 266.5 133 448t380 191.5t258 -437l-590 -74q-16 -357 86 -505.5t234.5 -137.5t265.5 198l49 -83q-209 -195 -421 -192t-307 164t-88 427.5zM212 1631.5q15 60.5 88 76.5t110.5 -7t27 -77t-75 -75.5t-115 0.5t-35.5 82.5zM289 771l408 52q14 164 -71 277 t-197 3t-140 -332zM617 1631.5q15 60.5 88 76.5t110.5 -7t27 -77t-75 -75.5t-115 0.5t-35.5 82.5z" />
<glyph unicode="&#xec;" horiz-adv-x="635" d="M93 1132q192 3 300 102l30 -3q-75 -216 -39 -1159l123 65l8 -51l-306 -130q48 1042 -11 1152l-101 -34zM93 1602l342 -142l33 36l-313 254z" />
<glyph unicode="&#xed;" horiz-adv-x="635" d="M93 1132q192 3 300 102l30 -3q-75 -216 -39 -1159l123 65l8 -51l-306 -130q48 1042 -11 1152l-101 -34zM94 1496l313 254l62 -148l-342 -142z" />
<glyph unicode="&#xee;" horiz-adv-x="635" d="M29 1471l233 262h58l230 -262l-54 -40l-206 165l-212 -164zM93 1132q192 3 300 102l30 -3q-75 -216 -39 -1159l123 65l8 -51l-306 -130q48 1042 -11 1152l-101 -34z" />
<glyph unicode="&#xef;" horiz-adv-x="635" d="M-5 1631.5q15 60.5 88 76.5t110.5 -7t27 -77t-75 -75.5t-115 0.5t-35.5 82.5zM93 1132q192 3 300 102l30 -3q-75 -216 -39 -1159l123 65l8 -51l-306 -130q48 1042 -11 1152l-101 -34zM400 1631.5q15 60.5 88 76.5t110.5 -7t27 -77t-75 -75.5t-115 0.5t-35.5 82.5z" />
<glyph unicode="&#xf0;" horiz-adv-x="483" />
<glyph unicode="&#xf1;" horiz-adv-x="1184" d="M103 1122q202 23 289 120l24 -18l-34 -236q237 202 404.5 227.5t186.5 -175t-0.5 -485.5t3.5 -490l124 70l7 -57l-301 -122q16 291 22.5 673t-73 444.5t-210 -29t-166.5 -373.5l-25 -639l123 65l8 -51l-306 -90q98 1042 39 1152l-101 -34zM321 1508q0 314 235 175.5 t235 40.5h51q0 -314 -235.5 -176.5t-235.5 -39.5h-50z" />
<glyph unicode="&#xf2;" horiz-adv-x="1179" d="M113.5 414.5q-29.5 232.5 35.5 427.5t184 279t281.5 91t284.5 -97.5t153.5 -329t-31.5 -428.5t-192 -288.5t-286 -86.5t-278.5 99t-151 333.5zM286.5 717q-32.5 -236 35 -422t210 -217.5t225.5 62t116.5 322t-35.5 441t-206 233t-225 -81t-120.5 -337.5zM374 1602 l342 -142l33 36l-313 254z" />
<glyph unicode="&#xf3;" horiz-adv-x="1179" d="M113.5 414.5q-29.5 232.5 35.5 427.5t184 279t281.5 91t284.5 -97.5t153.5 -329t-31.5 -428.5t-192 -288.5t-286 -86.5t-278.5 99t-151 333.5zM286.5 717q-32.5 -236 35 -422t210 -217.5t225.5 62t116.5 322t-35.5 441t-206 233t-225 -81t-120.5 -337.5zM399 1496 l313 254l62 -148l-342 -142z" />
<glyph unicode="&#xf4;" horiz-adv-x="1179" d="M113.5 414.5q-29.5 232.5 35.5 427.5t184 279t281.5 91t284.5 -97.5t153.5 -329t-31.5 -428.5t-192 -288.5t-286 -86.5t-278.5 99t-151 333.5zM286.5 717q-32.5 -236 35 -422t210 -217.5t225.5 62t116.5 322t-35.5 441t-206 233t-225 -81t-120.5 -337.5zM314 1471 l233 262h58l230 -262l-54 -40l-206 165l-212 -164z" />
<glyph unicode="&#xf5;" horiz-adv-x="1179" d="M113.5 414.5q-29.5 232.5 35.5 427.5t184 279t281.5 91t284.5 -97.5t153.5 -329t-31.5 -428.5t-192 -288.5t-286 -86.5t-278.5 99t-151 333.5zM286.5 717q-32.5 -236 35 -422t210 -217.5t225.5 62t116.5 322t-35.5 441t-206 233t-225 -81t-120.5 -337.5zM306 1508 q0 314 235 175.5t235 40.5h51q0 -314 -235.5 -176.5t-235.5 -39.5h-50z" />
<glyph unicode="&#xf6;" horiz-adv-x="1179" d="M113.5 414.5q-29.5 232.5 35.5 427.5t184 279t281.5 91t284.5 -97.5t153.5 -329t-31.5 -428.5t-192 -288.5t-286 -86.5t-278.5 99t-151 333.5zM281 1631.5q15 60.5 88 76.5t110.5 -7t27 -77t-75 -75.5t-115 0.5t-35.5 82.5zM286.5 717q-32.5 -236 35 -422t210 -217.5 t225.5 62t116.5 322t-35.5 441t-206 233t-225 -81t-120.5 -337.5zM686 1631.5q15 60.5 88 76.5t110.5 -7t27 -77t-75 -75.5t-115 0.5t-35.5 82.5z" />
<glyph unicode="&#xf7;" horiz-adv-x="1155" d="M105 722v99h945v-99h-945zM456 470.5q15 60.5 88 76.5t110.5 -7t27 -77t-75 -75.5t-115 0.5t-35.5 82.5zM456 1071.5q15 60.5 88 76.5t110.5 -7t27 -77t-75 -75.5t-115 0.5t-35.5 82.5z" />
<glyph unicode="&#xf8;" horiz-adv-x="366" />
<glyph unicode="&#xf9;" horiz-adv-x="1221" d="M108 1139q234 23 320 96q-105 -515 -78.5 -825.5t134.5 -322t213.5 93.5t124.5 426l10 520l-140 -46l-7 68q230 -4 309 95q-52 -637 -20 -1172l144 87l11 -74l-306 -123l-13 247q-199 -187 -360.5 -215.5t-221.5 122.5t-41.5 488.5t54.5 511.5l-120 -49zM396 1602 l342 -142l33 36l-313 254z" />
<glyph unicode="&#xfa;" horiz-adv-x="1221" d="M108 1139q234 23 320 96q-105 -515 -78.5 -825.5t134.5 -322t213.5 93.5t124.5 426l10 520l-140 -46l-7 68q230 -4 309 95q-52 -637 -20 -1172l144 87l11 -74l-306 -123l-13 247q-199 -187 -360.5 -215.5t-221.5 122.5t-41.5 488.5t54.5 511.5l-120 -49zM397 1496 l313 254l62 -148l-342 -142z" />
<glyph unicode="&#xfb;" horiz-adv-x="1221" d="M108 1139q234 23 320 96q-105 -515 -78.5 -825.5t134.5 -322t213.5 93.5t124.5 426l10 520l-140 -46l-7 68q230 -4 309 95q-52 -637 -20 -1172l144 87l11 -74l-306 -123l-13 247q-199 -187 -360.5 -215.5t-221.5 122.5t-41.5 488.5t54.5 511.5l-120 -49zM318 1471 l233 262h58l230 -262l-54 -40l-206 165l-212 -164z" />
<glyph unicode="&#xfc;" horiz-adv-x="1221" d="M108 1139q234 23 320 96q-105 -515 -78.5 -825.5t134.5 -322t213.5 93.5t124.5 426l10 520l-140 -46l-7 68q230 -4 309 95q-52 -637 -20 -1172l144 87l11 -74l-306 -123l-13 247q-199 -187 -360.5 -215.5t-221.5 122.5t-41.5 488.5t54.5 511.5l-120 -49zM281 1631.5 q15 60.5 88 76.5t110.5 -7t27 -77t-75 -75.5t-115 0.5t-35.5 82.5zM686 1631.5q15 60.5 88 76.5t110.5 -7t27 -77t-75 -75.5t-115 0.5t-35.5 82.5z" />
<glyph unicode="&#xfd;" horiz-adv-x="393" />
<glyph unicode="&#xfe;" horiz-adv-x="348" />
<glyph unicode="&#xff;" horiz-adv-x="393" />
<glyph unicode="&#x152;" horiz-adv-x="2729" d="M165 1112.5q86 323.5 369 504t653.5 133.5t556.5 -272l-20 205l-182 -13l36 68q517 -35 917 10l-62 -137q-364 69 -517 49v-621q481 0 651 59l-82 -166q-455 84 -569 16l-19 -881q530 0 670 156l35 -23l-266 -335l-98 20l127 97q-338 36 -683 -10l-10 36q82 33 82 306 q-153 -225 -475 -312.5t-636 42.5t-439 437.5t-39 631zM349.5 1106q-63.5 -318 57.5 -579.5t341 -380.5t489 -63.5t395.5 280t116 530.5t-193.5 528.5t-456 261t-479.5 -110t-270 -466.5z" />
<glyph unicode="&#x153;" horiz-adv-x="1790" d="M106 413q-29 232 36 428.5t186.5 279.5t283 90t254.5 -73t119 -153q159 233 412.5 241t255.5 -435l-592 -74q-12 -361 89.5 -510.5t236 -138.5t264.5 202l48 -83q-210 -196 -423 -193t-333 209q-154 -216 -358.5 -219t-327 97t-151.5 332zM286.5 717q-27.5 -236 40 -422 t205 -217.5t220.5 62t111.5 322t-40.5 441t-201 233t-220 -81t-115.5 -337.5zM1078 771l408 52q14 164 -71 277t-197 3t-140 -332z" />
<glyph unicode="&#x178;" horiz-adv-x="526" />
<glyph unicode="&#x2c6;" horiz-adv-x="580" d="M30 1471l233 262h58l230 -262l-54 -40l-206 165l-212 -164z" />
<glyph unicode="&#x2dc;" horiz-adv-x="584" d="M30 1508q0 314 235 175.5t235 40.5h51q0 -314 -235.5 -176.5t-235.5 -39.5h-50z" />
<glyph unicode="&#x2000;" horiz-adv-x="1091" />
<glyph unicode="&#x2001;" horiz-adv-x="2183" />
<glyph unicode="&#x2002;" horiz-adv-x="1091" />
<glyph unicode="&#x2003;" horiz-adv-x="2183" />
<glyph unicode="&#x2004;" horiz-adv-x="727" />
<glyph unicode="&#x2005;" horiz-adv-x="545" />
<glyph unicode="&#x2006;" horiz-adv-x="363" />
<glyph unicode="&#x2007;" horiz-adv-x="363" />
<glyph unicode="&#x2008;" horiz-adv-x="272" />
<glyph unicode="&#x2009;" horiz-adv-x="436" />
<glyph unicode="&#x200a;" horiz-adv-x="121" />
<glyph unicode="&#x2010;" horiz-adv-x="788" d="M118 530v154h556v-154h-556z" />
<glyph unicode="&#x2011;" horiz-adv-x="788" d="M118 530v154h556v-154h-556z" />
<glyph unicode="&#x2012;" horiz-adv-x="788" d="M118 530v154h556v-154h-556z" />
<glyph unicode="&#x2013;" horiz-adv-x="684" />
<glyph unicode="&#x2014;" horiz-adv-x="894" />
<glyph unicode="&#x2018;" horiz-adv-x="502" d="M179 1494q-104 262 159 490l25 -37q-152 -118 -47 -362l72 39l21 -49z" />
<glyph unicode="&#x2019;" horiz-adv-x="497" d="M125 1575l230 -81q104 262 -159 490l-25 -37q152 -118 47 -362l-72 39z" />
<glyph unicode="&#x201a;" horiz-adv-x="555" d="M114 115l230 81q104 -262 -159 -490l-25 37q152 118 47 362l-72 -39z" />
<glyph unicode="&#x201c;" horiz-adv-x="864" d="M175 1494q-104 262 159 490l25 -37q-152 -118 -47 -362l72 39l21 -49zM529 1494q-104 262 159 490l25 -37q-152 -118 -47 -362l72 39l21 -49z" />
<glyph unicode="&#x201d;" horiz-adv-x="868" d="M125 1575l230 -81q104 262 -159 490l-25 -37q152 -118 47 -362l-72 39zM479 1575l230 -81q104 262 -159 490l-25 -37q152 -118 47 -362l-72 39z" />
<glyph unicode="&#x201e;" horiz-adv-x="886" d="M114 115l230 81q104 -262 -159 -490l-25 37q152 118 47 362l-72 -39zM468 115l230 81q104 -262 -159 -490l-25 37q152 118 47 362l-72 -39z" />
<glyph unicode="&#x2022;" horiz-adv-x="387" />
<glyph unicode="&#x2026;" horiz-adv-x="792" />
<glyph unicode="&#x202f;" horiz-adv-x="436" />
<glyph unicode="&#x2039;" horiz-adv-x="321" />
<glyph unicode="&#x203a;" horiz-adv-x="321" />
<glyph unicode="&#x205f;" horiz-adv-x="545" />
<glyph unicode="&#x2122;" horiz-adv-x="1318" d="M64 1663l27 71q214 -17 446 -2l-19 -72q-116 30 -174 20q-16 -362 0 -535l-127 -29l-3 29q40 14 45 221t-2 313q-77 10 -193 -16zM464 1127q121 500 110 606l28 4l239 -443q216 364 196 436l40 8q62 -433 121 -575l63 8l6 -39q-96 -2 -172 -20l-77 397l-182 -382l-32 2 q-1 62 -192 396q-76 -317 -44 -369l52 7l-6 -36h-150z" />
<glyph unicode="&#x25fc;" horiz-adv-x="1225" d="M0 0v1225h1225v-1225h-1225z" />
</font>
</defs>
</svg>
