<?xml version="1.0" standalone="no"?>
<!DOCTYPE svg PUBLIC "-//W3C//DTD SVG 1.1//EN" "http://www.w3.org/Graphics/SVG/1.1/DTD/svg11.dtd" >
<svg xmlns="http://www.w3.org/2000/svg" xmlns:xlink="http://www.w3.org/1999/xlink" version="1.1">
<metadata></metadata>
<defs>
<font id="gothic_ultra_otregular" horiz-adv-x="1067" >
<font-face units-per-em="2048" ascent="1536" descent="-512" />
<missing-glyph horiz-adv-x="360" />
<glyph unicode="&#xfb01;" horiz-adv-x="823" d="M-66.5 -545q-1.5 5 9.5 13q45 37 80 94q2 3 9.5 12.5t11 18t1.5 18.5q-2 8 8 22.5t8 30.5q-2 18 6.5 34t8.5 17q14 54 30 166q23 183 31 330q1 9 8.5 28t8 29t-12.5 31q-9 10 1 38.5t1 41.5q-7 10 -7 24.5t3.5 33t3.5 28.5v160q-34 1 -155 12q3 0 6.5 2t6 4.5t7 6.5t7 7 t8 9.5t8.5 9.5q41 41 61 39l58 -4q4 46 8 73l12 62q0 2 12 19.5t4 39.5q-4 8 0 18.5t12 24t11 19.5q38 84 104 153q34 34 70 54q31 21 39 16q43 -49 47 -55l18 -29q-10 -18 0 -25l11 -5q10 -4 12 -9q22 -49 22 -96q0 -35 -10 -58q-2 -6 -5 -10.5t-8 -8.5t-7.5 -5.5t-9.5 -6 t-9 -5.5q-1 0 -6 -4q-37 -20 -37 -17q15 40 9 82q-1 6 -10.5 13t-12.5 13.5t4 28.5q4 8 0 15.5t-12.5 16.5t-11.5 13q-16 25 -52 70q-91 -141 -94 -365q0 -6 -1 -17.5t-1 -16.5h125q112 0 158 26q15 7 16.5 5t-10.5 -13q-42 -34 -78 -55q-40 -20 -49 -23q-6 -2 -13 5 t-12 8.5t-20 -13.5t-51 -20q-35 -6 -66 -6q-3 -218 -14 -390q-6 -93 -15 -196q0 -1 -11 -20t-1 -27q6 -6 8 -12t1 -10.5t-3.5 -14t-3.5 -16.5q-25 -162 -86.5 -284t-183.5 -194q-14 -9 -15.5 -4zM573 193q0 25 1.5 52.5t4 54t3.5 36.5l10 88q1 3 9 13t3 16q-9 11 -9.5 23 t4 28t5.5 22q12 14 13 24t-3.5 19t-3.5 15q3 23 8 88q3 42 0 57q-3 10 48 41q64 42 67 39q9 -12 6 -57q0 -9 -7.5 -19t-10 -14.5t5.5 -16.5q5 -5 6.5 -13.5t0.5 -20.5t-2 -21.5t-3.5 -23.5t-3.5 -17q-5 -38 -16 -102t-13 -82q0 -5 -4.5 -50.5t-5.5 -74.5q0 -3 2.5 -11 t0.5 -14t-11 -12q-5 -6 -3 -11.5t6.5 -16t4.5 -15.5q7 -115 51 -149q21 -18 58 -15q-6 -3 -27.5 -21t-32.5 -26q-39 -31 -61 -31q-28 0 -53 25q-2 2 -8.5 9t-10 11.5t-8 13t-6.5 17.5q-2 6 6.5 23t-0.5 18q-11 6 -15 11.5t-4 17v12.5q-2 18 -2 60zM610 1032q-4 7 24 26.5 t58 35.5l29 16q1 -2 -0.5 -7t-2.5 -9t2 -8t11 -5q5 -1 7 -7t3 -15t2 -12l11 -21q0 -7 -27.5 -27.5t-55 -36.5t-28.5 -14t-5.5 7.5t-6 9t1.5 8.5q15 17 11 20.5t-21 3.5q-4 0 -5.5 4t-2 10.5t-1.5 8.5z" />
<glyph unicode="&#xfb02;" horiz-adv-x="874" d="M-66.5 -545q-1.5 5 9.5 13q45 37 80 94q2 3 9.5 12.5t11 18t1.5 18.5q-2 8 8 22.5t8 30.5q-2 18 6.5 34t8.5 17q14 54 30 166q23 183 31 330q1 9 8.5 28t8 29t-12.5 31q-9 10 1 38.5t1 41.5q-7 10 -7 24.5t3.5 33t3.5 28.5v160q-34 1 -155 12q3 0 6.5 2t6 4.5t7 6.5t7 7 t8 9.5t8.5 9.5q41 41 61 39l58 -4q4 46 8 73l12 62q0 2 12 19.5t4 39.5q-4 8 0 18.5t12 24t11 19.5q38 84 104 153q34 34 70 54q31 21 39 16q43 -49 47 -55l18 -29q-10 -18 0 -25l11 -5q10 -4 12 -9q22 -49 22 -96q0 -35 -10 -58q-2 -6 -5 -10.5t-8 -8.5t-7.5 -5.5t-9.5 -6 t-9 -5.5q-1 0 -6 -4q-37 -20 -37 -17q15 40 9 82q-1 6 -10.5 13t-12.5 13.5t4 28.5q4 8 0 15.5t-12.5 16.5t-11.5 13q-16 25 -52 70q-91 -141 -94 -365q0 -6 -1 -17.5t-1 -16.5h125q112 0 158 26q15 7 16.5 5t-10.5 -13q-42 -34 -78 -55q-40 -20 -49 -23q-6 -2 -13 5 t-12 8.5t-20 -13.5t-51 -20q-35 -6 -66 -6q-3 -218 -14 -390q-6 -93 -15 -196q0 -1 -11 -20t-1 -27q6 -6 8 -12t1 -10.5t-3.5 -14t-3.5 -16.5q-25 -162 -86.5 -284t-183.5 -194q-14 -9 -15.5 -4zM618.5 194q0.5 2 2.5 11q6 10 6 17t-3 12.5t-3 9.5q0 10 1 31.5t1 31.5 q0 31 12 41q10 10 8 15t-8.5 13t-5.5 13l14 139q4 54 16.5 177.5t16.5 185.5q1 5 7.5 14.5t7.5 14.5t-7 14q-8 5 -9 15t2 25t3 21q-3 59 -14 86q-8 22 -23 29q-1 1 15 15.5t40 33.5q48 34 56 29q17 -14 24 -66q1 -3 -5.5 -11t-6.5 -11q1 -3 10 -8.5t12 -14.5q6 -3 2 -32 l-4 -29q0 -24 -10 -172l-4 -60q-8 -10 -8.5 -18.5t2.5 -17t2 -13.5q-1 -6 -9.5 -19t-2.5 -20q6 -6 7.5 -17t0.5 -19t-3.5 -20t-2.5 -15q-2 -19 -9.5 -81t-12.5 -123t-5 -114q0 -28 4 -78q0 -3 1 -13.5t0.5 -17t-3.5 -10.5q-5 -9 -2.5 -13t10.5 -10.5t9 -10.5q20 -66 57 -84 q21 -12 51 -9q-35 -35 -45 -43q-35 -31 -57 -34q-44 -6 -70 14q-27 21 -43 68q-14 42 -20 104q0 2 -2.5 12t-2 12z" />
<glyph horiz-adv-x="0" />
<glyph horiz-adv-x="682" />
<glyph unicode=" "  horiz-adv-x="360" />
<glyph unicode="&#x09;" horiz-adv-x="360" />
<glyph unicode="&#xa0;" horiz-adv-x="360" />
<glyph unicode="!" horiz-adv-x="401" d="M98 63q-1 2 6 9l7 8l39 29q1 -1 2.5 -2t5.5 -2t7.5 0t7 6.5t5.5 15.5q30 17 31 14l22 -55q1 -1 -1 -4t-4.5 -5t-5.5 -5l-3 -2l-37 -29l-16 -10q-15 -10 -28.5 -18t-14.5 -5zM143 266q0 8 1 24.5t1 24.5q2 70 7 140t16 179.5t14 139.5q0 4 7.5 19.5t5.5 21.5q-21 60 4 96 q11 10 3 20t-7 17q4 78 4 115q2 19 57 45q46 20 53 29q-1 -62 -5.5 -137t-8.5 -121.5t-13 -141t-12 -125.5q-1 -7 -8.5 -18t-9.5 -16t6 -15q3 -3 5 -10t1.5 -18.5t-1 -20.5t-2 -22.5t-1.5 -18.5q-1 -15 -2.5 -42t-2.5 -49t-1 -42q0 -21 -59 -45q-51 -24 -52 -29z" />
<glyph unicode="&#x22;" horiz-adv-x="512" d="M117 727v43q0 9 3.5 21.5t4 20.5t-5.5 30q7 14 7.5 22t-2.5 15t-3 12q6 108 6 215q0 20 51 43q7 4 23.5 10.5t25 11.5t11.5 9q0 -70 -2 -105q0 -5 -4.5 -14t-5 -14t6.5 -15q0 -10 -1 -31.5t-1 -31.5q-4 -110 -4 -166q0 -23 -57 -47q-6 -3 -14.5 -7t-14.5 -6.5t-11.5 -5.5 t-8.5 -5.5t-4 -4.5zM317 756q0 4 1 13.5t1 14.5q0 3 2 9t2 11t-4 9t2.5 19t4.5 20q-4 9 -4 41q4 78 8 242q0 20 51 43q10 5 24.5 11.5t23.5 11t11 7.5q0 -27 -1 -57t-2.5 -66t-2.5 -57q0 -4 -4.5 -10.5t-6 -10t4.5 -8.5q5 -3 6 -10t-0.5 -18.5t-1.5 -14.5l-4 -125 q0 -21 -57 -45q-53 -25 -54 -30z" />
<glyph unicode="#" horiz-adv-x="751" d="M51 725q8 2 47 41q37 37 58 37q7 0 21.5 1t21.5 1q5 28 8 35q1 3 1.5 12t4.5 15.5t14 11.5q3 3 2 7t-4 11.5t-2 11.5l6 23q-49 0 -147 -4q4 1 10 7t17 16.5t18 17.5q41 37 59 37q42 0 62 2l16 75q7 8 58 37q45 24 53 39q-28 -113 -35 -149l129 4q3 17 16 67q7 13 60 41 q43 22 49 31q-4 -12 -14 -57q-1 -4 -9.5 -13.5t-5.5 -15.5q5 -7 0 -33q-4 -12 -4 -18l139 6q-2 -1 -36 -35q-43 -43 -64 -43q-20 -2 -57 -2l-29 -129l156 6q-3 -2 -14 -12.5t-17 -15.5q-47 -47 -70 -50q-50 -4 -73 -4l-21 -88q-5 -19 -45 -39q-6 -3 -17 -8t-17 -8t-13.5 -7 t-11.5 -7.5t-6 -6.5q1 4 4.5 12.5t5.5 16t2 16.5q0 3 5.5 13t6.5 14q2 6 0.5 14.5t1.5 22.5l12 51l-129 -4l-18 -80q-5 -19 -47 -37q-7 -3 -17.5 -8t-17 -8t-14 -6.5t-11.5 -7.5t-6 -7q1 5 37 152h-30q-5 0 -10.5 5t-10.5 5q-4 0 -17 -5t-18 -5q-7 0 -21.5 -1t-21.5 -1z M293 807l129 4l29 127q-22 0 -65 -1t-64 -1z" />
<glyph unicode="$" horiz-adv-x="520" d="M23 111q0 16 47 36q42 17 47 27q-1 -34 21.5 -60t60.5 -40l24 272q-101 68 -131 100q-43 46 -43 101q0 69 64.5 129.5t150.5 83.5l12 141q0 9 27 23q4 2 11.5 5t12 5t5.5 4q-14 -132 -17 -168q39 3 76 -6q4 -1 7.5 -9t7 -13.5t8.5 -2.5q17 10 35 -8q18 -15 28 -39 q5 -8 -47 -41l-39 -22q-4 -9 -8 -35q-2 -10 -4 -12q-2 0 -4 4q-3 8 -2 16q0 3 1 7.5t2.5 11t2.5 10.5q-21 37 -72 57l-6 -78q-15 -12 -16.5 -21.5t5 -19.5t7.5 -14q-6 -6 -7 -12.5t1 -15t2 -11.5q-4 -26 -8 -78q52 -35 79.5 -56t58.5 -57t40 -71q11 -44 -3.5 -85 t-47.5 -71.5t-76.5 -52.5t-91.5 -33l-17 -176q0 -7 -22 -18q-6 -3 -14 -6.5t-13 -6t-6 -4.5l8 76q1 6 6.5 11t5.5 8t-10 16l8 92h-24q-52 0 -92 19q-7 5 -4 13.5t-0.5 14.5t-20.5 2q-13 -3 -20.5 17t-5.5 41zM127 568q-7 -10 3 -9h3q16 2 29 -18q24 -34 74 -68l22 227 q-28 6 -57 2q-40 -7 -56 -40.5t-6 -73.5q0 -2 -12 -20zM250 61h20q49 0 80 25t25 74q-1 8 -0.5 15.5t-1.5 15t-8 10.5q-4 2 -4 14.5t-1 17.5q-2 4 -10.5 7.5t-11.5 7.5l-21 22q-21 21 -45 39z" />
<glyph unicode="%" horiz-adv-x="917" d="M61 504q-22 102 66 196q107 103 192 103q36 0 66 -21q49 -10 123 -10q159 0 295 57q4 1 4.5 0.5t-2.5 -2.5l-2 -2l-2 -2q-286 -394 -408 -577q-12 3 -17.5 -5.5t1.5 -23.5l-37 -51l-90 -137q-11 -18 -56.5 -40.5t-50.5 -27.5q145 228 430 625q11 -3 15 2t10 30 q2 5 13 7.5t14 15.5q10 29 16 37q3 5 25 37.5t34 48.5q-124 -48 -254 -51q27 -56 27 -107q0 -93 -65 -155q-108 -103 -187 -103q-37 0 -74 27l-32 31q-3 4 -3 14.5t-5 16.5t-21 5q-7 0 -7.5 17t-8.5 18q5 12 -2 19zM139 594q0 -48 23 -86q59 -85 110 -98q46 -9 68 4 q55 35 55 129q0 32 -10 65q-1 4 4 17t4.5 20.5t-14.5 3.5q-6 -2 -10.5 2t-9 12.5t-5.5 10.5q-26 34 -49 49l-4 2q-2 0 -2 2q-2 1 -9.5 4.5t-10.5 5t-9.5 4.5t-10 4t-9.5 2.5t-10.5 1.5h-10t-10.5 -1.5t-10 -4.5q-33 -20 -51.5 -61.5t-18.5 -87.5zM475 168q0 84 70 160 q49 45 94 71q26 16 37 9q14 -8 21.5 4.5t11.5 13.5q8 -9 18 -2.5t12 6.5q46 0 88 -39q64 -67 64 -158q0 -93 -66 -153q-65 -61 -108 -82q-7 -2 -17.5 1.5t-15 1t-4.5 -18.5q-18 -7 -35 -7q-40 -3 -80 27q-90 72 -90 166zM544.5 276.5q-2.5 -4.5 4.5 -14.5q4 -3 5 -8t0 -14.5 t-1 -10.5q0 -51 27 -94q59 -85 110 -98q43 -9 66 6q57 39 57 131q0 32 -10 62q-24 82 -86 118q-49 22 -88 8q-40 -12 -60 -61q-2 -4 -12 -12t-12.5 -12.5z" />
<glyph unicode="&#x26;" horiz-adv-x="1107" d="M55 266q0 48 15 94q53 165 297 314q-40 98 -43 190q-11 180 155 295q94 66 176 66q66 0 109 -51q37 -42 37 -97q0 -151 -307 -340q3 -5 10.5 -19.5t11.5 -21.5q2 -5 -0.5 -13t-5.5 -13.5t1 -11t17 -7.5q6 -1 9.5 -4t7.5 -11t6 -11q2 -4 3.5 -24.5t11.5 -33t36 -8.5 q109 -160 258 -297q53 115 53 227q-2 86 -46.5 144.5t-116.5 58.5q-40 0 -84 -20q-9 -4 -9 -2q1 6 23 22q41 35 76 51q55 28 121 25q14 -24 25 -27t32 15q24 -12 35 -23q13 -11 28 -41q27 -62 27 -127q0 -77 -35 -170q-39 -101 -88 -168q15 -15 27 -22q116 -99 186 -129 q29 -13 60 -13q57 0 98 50q12 15 25 15.5t-3 -22.5q-10 -15 -26 -31.5t-45 -39t-73.5 -37t-94.5 -14.5q-15 0 -32.5 5t-32 11t-33.5 17.5t-31 19.5t-31.5 24t-27.5 23t-27 23.5t-23 19.5q-120 -123 -278 -180q-73 -27 -150 -27q-131 0 -217 86q-117 120 -117 260zM166 334 q0 -62 27 -121q31 -67 77 -113q5 -5 8 -17.5t6.5 -20.5t10.5 -5q21 10 35.5 7t20 -9t12.5 -15.5t14 -12.5q74 -31 137 -31q75 0 150 37q73 34 131 114q-28 24 -41 37q-4 15 -13.5 24t-22 15t-16.5 10q-237 219 -327 422q-1 0 -3 -1t-3 -1q-87 -44 -145 -132.5t-58 -186.5z M432 963q6 -105 55 -213q147 91 191 192q2 6 7 15.5t9 17t7 15.5t1 13t-10 7q-15 4 -14.5 22t-1.5 29q-3 6 4.5 22t3.5 21q-3 3 -23.5 4t-23.5 4q-22 19 -59 29q-45 11 -72 4t-43 -43q-34 -72 -31 -139z" />
<glyph unicode="'" horiz-adv-x="319" d="M117 727q0 50 4 152q0 5 6 15t6.5 16t-10.5 20q-4 7 -3.5 13t3 16.5t2.5 15.5q2 43 2 131q0 17 57 45q48 21 54 29q0 -64 -5.5 -189.5t-5.5 -187.5q0 -18 -41 -39q-10 -5 -29 -13.5t-28.5 -14t-11.5 -9.5z" />
<glyph unicode="(" horiz-adv-x="628" d="M59 403q0 256 102.5 491.5t284.5 377.5q9 6 29 6q17 0 45.5 -5t32.5 -5h2q-58 -46 -82 -72q-3 -3 -22.5 -33.5t-36.5 -32.5q-19 -3 -25 -10.5t-6.5 -19t-3.5 -15.5q-100 -141 -153.5 -319.5t-53.5 -362.5q0 -246 97.5 -455t289.5 -329h-6q-5 0 -34 -5t-44 -5t-24 6 q-133 84 -224 211q-7 11 -11.5 32.5t-13.5 37.5t-32 24q-6 2 -6 10.5t2.5 18t-3 19t-22.5 12.5q-10 2 -14 12.5t-5.5 27.5t-4.5 25q-58 168 -58 358z" />
<glyph unicode=")" horiz-adv-x="620" d="M59 -410q192 120 289.5 329.5t97.5 455.5q0 108 -18 213q-2 13 10.5 37.5t12.5 36.5q0 28 -52 49q-14 5 -18.5 21t-6 39t-5.5 34q-106 279 -306 434h3q4 0 32 5t45 5q20 0 29 -6q182 -142 284.5 -377t102.5 -491q0 -177 -49 -334q-1 -4 -24 -38.5t-17 -65.5 q3 -18 -5.5 -37t-25.5 -25q-25 -9 -36 -27t-16.5 -41.5t-14.5 -35.5q-83 -108 -203 -185q-9 -6 -25 -6q-15 0 -43.5 5t-33.5 5h-7z" />
<glyph unicode="*" horiz-adv-x="954" d="M121.5 843.5q-4.5 21.5 2.5 39.5l7 18q0 3 1.5 8t5.5 19t10 21t16 14.5t22 -0.5l269 -127q-17 77 -31 155q-1 4 1 10.5t5 12t4.5 11.5t-0.5 10.5t-10 6.5q-10 3 -16 17.5t-7.5 29t-2.5 33.5t-1 21q-2 23 17.5 30t39.5 3l21 -5h8t18 -2t22.5 -5.5t17.5 -11.5t8 -19 q0 -16 -12.5 -90t-24.5 -141l-12 -66q41 26 94 55q6 4 22 2.5t23 11.5q4 5 24 16t23 19q4 9 10.5 12t14 3t10.5 1q47 21 59 21q18 -2 29.5 -16t13.5 -27l2 -14q3 -6 6 -16t3 -32.5t-13 -35.5q-11 -9 -71 -19q-6 -1 -22.5 3.5t-32.5 4.5t-27 -12q-6 -6 -11 -8t-10 -1.5 t-14 -0.5l-119 -10q176 -168 227 -213q6 -14 -3 -32t-21 -29l-12 -11l-5 -5t-13.5 -11.5t-19.5 -12t-22.5 -6.5t-23.5 6q-19 15 -55 86.5t-62 136.5l-27 64q-30 -63 -63 -133q-3 -6 -10.5 -14t-6.5 -19q2 -12 -4.5 -26.5t-18.5 -31.5t-12 -18q-20 -39 -24 -45 q-13 -8 -32.5 -5.5t-36.5 8.5l-17 7q-3 2 -7 4.5t-14.5 11.5t-14.5 17t-7 20.5t8 22.5q17 21 73 78t103 103l47 47q-69 2 -141 6q-29 0 -43 2q-6 1 -16 7t-16 8t-15 -3q-6 -5 -12.5 -6.5t-14 -0.5t-12 2t-12.5 4l-8 3q-24 7 -28.5 28.5z" />
<glyph unicode="+" horiz-adv-x="831" d="M102 293q11 1 52 43q35 35 55 35l141 -6l4 49q0 5 7 15t4 15q-7 10 -7 27l4 64q2 22 62 47q46 18 51 28l-6 -94q-1 -5 -6 -16t-5.5 -16t7.5 -17q3 -6 3 -9.5t-2.5 -10.5t-2.5 -11l-6 -71h57q146 0 205 30q1 0 4 1t4 1q0 -2 -5 -6.5t-11 -10.5l-6 -5q-23 -20 -50 -37 q-3 -2 -9.5 -7t-12 -7.5t-10.5 -1.5q-18 2 -31.5 -7t-16.5 -10q-47 -15 -122 -18q-10 -142 -11 -170q0 -17 -49 -41q-59 -29 -61 -37q8 170 14 248h-43q-16 0 -27 4q-6 2 -20.5 -1t-17.5 -3q-1 0 -136 6z" />
<glyph unicode="," horiz-adv-x="389" d="M98 -182q-2 6 8 12q29 19 48 43q12 15 16.5 28.5t7.5 43.5q0 15 -2 30.5t-4 27t-7 29t-8 26t-10 29t-10 28.5q0 9 27.5 27.5t55.5 33.5l28 14l12 -32q1 -3 -0.5 -10t0 -11.5t10.5 -5.5q4 -1 6 -5.5t2 -12.5t1 -11q1 -2 -2.5 -7t-5 -7.5t2.5 -5.5q15 -6 15 -47 q0 -87 -82 -152q-66 -51 -88 -63q-18 -9 -21 -2z" />
<glyph unicode="-" horiz-adv-x="776" d="M111 406q13 2 43 45q1 1 5.5 6.5t5.5 7t5 6.5t6 6.5t6 5t7 5t6.5 3.5t7.5 2.5t8 0.5q7 0 21.5 -1t37 -2t39.5 -2q5 0 21.5 -10t23.5 -4q13 11 25 13.5t28 -0.5t21 -3q54 0 74 2q14 1 38 2.5t35.5 3t28 4t29 6.5t24.5 11q9 6 15 6h2q0 -5 -12 -14q-124 -113 -322 -113 h-14.5h-17t-16.5 0.5t-17 2t-13.5 4t-11.5 6.5q-10 6 -16 4.5t-18 -6t-21 -3.5q-78 5 -84 5z" />
<glyph unicode="." horiz-adv-x="372" d="M102 82q0 8 48.5 43t60.5 35q3 0 14 -15q2 -2 0.5 -11t1.5 -9q21 -8 21 -19q-1 -11 4 -19.5t11.5 -13t6.5 -5.5q0 -8 -49 -43t-61 -35q-3 0 -13 16q-2 3 0 13.5t0 13.5t-11 5t-11 5q-20 36 -23 39z" />
<glyph unicode="/" horiz-adv-x="342" d="M-47 -33q1 6 32 67q5 9 7 15l295 744q1 4 11.5 23.5t14.5 43.5q1 7 8.5 13t12 15t0.5 25q-2 6 1 14t9 17.5t8 13.5l66 166q7 19 53 41q7 3 15.5 7.5t14.5 7.5t12 5.5t9.5 2t5.5 -3.5q4 -8 -2.5 -21t-18 -31.5t-15.5 -29.5q-53 -136 -156 -389t-148 -367q-2 -5 -9.5 -7 t-8.5 -13q-4 -34 -6 -39q-33 -83 -51 -133q-2 -4 -9 -12t-8.5 -12.5t0.5 -14.5q0 -7 -5 -20.5t-13.5 -32t-11.5 -27.5q-8 -20 -48 -37q-20 -10 -55 -33q-12 -8 -10 2z" />
<glyph unicode="0" horiz-adv-x="819" d="M53 362q0 141 107 263q176 168 315 168q40 0 86 -19q4 -2 10.5 -8t12.5 -9t12 -1q10 3 17 -2.5t14.5 -17t11.5 -15.5q61 -61 94 -140t33 -161q0 -154 -109 -260q-168 -164 -297 -164q-75 0 -135 49q-6 4 -1.5 16.5t-0.5 16.5q-4 4 -29.5 10.5t-29.5 11.5 q-111 117 -111 262zM150.5 424.5q0.5 -5.5 5.5 -16.5q10 -11 5.5 -32t2.5 -24q18 -14 28 -47.5t13 -38.5q41 -70 115.5 -133t146.5 -63q55 0 98 43q53 55 77 135t13 160q-1 6 -10.5 28.5t-3.5 32.5q8 12 1.5 28t-24.5 25q-7 4 -12 18.5t-6 16.5q-54 88 -123 125 q-60 31 -117 31q-59 0 -94 -35q-96 -99 -108 -215q-1 -5 -4.5 -19t-3 -19.5z" />
<glyph unicode="1" horiz-adv-x="555" d="M109 623q-1 1 2 4.5t7 6.5l3 3q44 35 80 55l114 68q16 13 31 16q13 9 16 6q0 -2 -4 -6q24 -12 21 -108q0 -8 -8 -22.5t-10.5 -23t8.5 -26.5q7 -8 7.5 -20.5t-3 -32.5t-4.5 -27q-32 -319 -25 -395q7 -59 23 -66q-7 -3 -43 -39q-39 -45 -64 -39q-26 9 -29 86q0 5 4.5 13 t4.5 18.5t-9 26.5q-5 9 7.5 36.5t3.5 39.5q-10 14 -11 27t3.5 31t5.5 26q3 40 10.5 120.5t11.5 134.5t4 91q0 67 -16 73q-18 -11 -60 -34t-63 -37z" />
<glyph unicode="2" horiz-adv-x="745" d="M8 -2q64 53 78 61q254 156 365 322q57 81 57 162q0 53 -33 92q-1 1 -7.5 8.5t-7.5 9t-8.5 8t-10 5.5t-11 2t-12.5 -2q-29 -10 -76 4q-18 3 -23.5 1t-10.5 -9.5t-9 -8.5q-61 -19 -117 -51.5t-69 -52.5q-15 -24 -29 -18q-12 5 -2 17q1 2 2 3q44 42 76 69.5t79 63.5t94.5 57 t92.5 27q95 11 150 -43t55 -137q0 -38 -17 -84q-23 -62 -58.5 -119t-74.5 -74q-16 -6 -24.5 -14.5t-15.5 -19t-13 -15.5q-2 -2 -45 -23t-45 -30q-2 -7 -2 -14q-1 -6 -11 -13q-5 -4 -8 -6q-71 -52 -139 -94q35 1 99.5 -0.5t84.5 -1.5q88 0 155 15.5t122 60.5q13 10 10 0 q-1 -7 -10 -25q-10 -21 -33 -47.5t-37 -36.5q-55 -35 -127 -45q-8 -1 -21 4t-25 5t-25 -13q-4 11 -14 11.5t-25 -4.5t-21 -5q-22 1 -87.5 4.5t-100.5 3.5q-71 0 -115 -10z" />
<glyph unicode="3" horiz-adv-x="747" d="M-98 -369q-1 9 26 9q64 -2 149.5 28.5t166 81t143.5 124t78 149.5q6 30 10 86q0 3 11.5 16t11.5 16q0 6 -12 13.5t-13 13.5q-14 93 -82 121q-61 26 -133 26q-28 0 -49 -6q-4 -2 -10.5 -5.5t-10.5 -6t-10.5 -6t-10.5 -5.5l-10 -5t-8.5 -4t-6.5 -3t-4.5 -1t-2.5 1 q-3 4 20.5 22t30.5 21q1 0 2 1t2 1l11 9l8 4q56 43 109 99t116 131.5t96 111.5q-16 -2 -63 -2q-30 0 -102 2t-107 2q-115 0 -139 -19q-9 -7 -7 0q7 21 51 67q46 48 77 52q44 6 112 6q7 0 18 -5t21.5 -5t22.5 10q11 0 27 -6.5t26 -9t31 5.5q16 8 34.5 9.5t44 -1t33.5 -2.5h74 q-41 -43 -120 -133t-120 -133q-1 -2 -16 -6.5t-14 -20.5l-17 -20q-51 -51 -98 -90q50 16 94 16q49 0 88 -16q65 -28 98 -86t33 -129q0 -86 -45 -162q-90 -154 -269.5 -267.5t-365.5 -109.5q-29 0 -30 10z" />
<glyph unicode="4" horiz-adv-x="661" d="M-45 0q92 131 195 317l43 76q4 7 12.5 8t15 7.5t8.5 27.5q2 25 37 88q64 107 117 183v2l2 2q7 10 56.5 38.5t52.5 32.5v-2q-8 -112 -17 -405q0 -9 -4.5 -23.5t-5 -22.5t7.5 -26q0 -7 -4 -17t-7.5 -17.5t-2.5 -16.5t10 -16q7 -12 6.5 -19t-5 -24.5t-5.5 -24.5 q-2 -27 -10 -86q98 12 139 41q9 6 8 1q-2 -14 -22 -30q-80 -69 -133 -82q-29 -199 -82 -303q-33 -63 -92.5 -116t-116.5 -68q-35 -9 -34 2q0 5 9 8q18 7 29 12t31 18.5t38 36t35 54.5q14 23 17 33q2 5 7 8.5t7.5 12.5t1.5 32q-1 16 8 42t10 34q19 99 31 184h-20 q-184 -6 -371 -6q-4 0 -2 4zM55 78q17 0 80.5 -1.5t95.5 -0.5h123q4 30 8 86q6 87 9.5 244.5t5.5 201.5q-106 -166 -275 -452z" />
<glyph unicode="5" horiz-adv-x="702" d="M29 -464q21 23 75 59l9 6q60 33 128 91t130 131t102.5 160.5t40.5 166.5q0 57 -20 104q-58 127 -230 127q-100 0 -209 -41h-4l12 145q1 15 16 26.5t15 12.5q0 7 -26 23l10 145q1 17 47.5 48.5t64.5 29.5q24 -1 91 -8t104 -8q7 0 30 -1t38 -1q4 0 12 -4t16.5 -4t18.5 8 q8 7 19.5 8t26.5 -1t23 -1q65 7 86 28q8 11 13 3q3 -6 -4 -21q-14 -29 -58.5 -53.5t-87.5 -30.5q-74 -12 -145 -12q-85 0 -187 10q-5 -245 -22 -262q121 41 217 41q140 0 199 -86q42 -66 24 -90q-11 -14 2 -38.5t12 -35.5q-3 -43 -18 -90q-34 -100 -104 -199 q-159 -219 -457 -385q-18 -9 -10 -1z" />
<glyph unicode="6" horiz-adv-x="802" d="M57 344q-9 86 11 160q63 240 315 432q4 3 11 10.5t13.5 12.5t12.5 4q15 -2 21 2t9 11.5t7 10.5q88 55 137 76q37 16 28 2q-12 -19 -55 -47l-6 -4q-103 -60 -194 -144.5t-146 -181.5q13 13 25 19q86 60 174 77q5 1 18 -3.5t17 -4.5q6 0 17 6t17 6q50 -3 84 -28 q79 -54 130 -147t51 -193q0 -40 -13 -90q-29 -113 -126.5 -216t-208.5 -122q-88 -14 -161.5 28.5t-121.5 124.5q-7 11 -2 22.5t-1 24t-30 19.5q-15 43 -22 70q13 24 11.5 31t-11.5 16t-11 16zM162 469q2 -118 64 -235.5t165 -153.5q35 -12 66 -12q63 0 108 48.5t63.5 115 t14.5 135.5q12 12 13.5 23t-4 17.5t-13.5 16.5t-10 18t0.5 23.5t5 27.5t-3 21t-21.5 8q-10 -1 -18.5 8t-17.5 26.5t-11 21.5q-91 135 -209 135q-65 0 -127 -43q-15 -12 -24 -15q-44 -96 -41 -186z" />
<glyph unicode="7" horiz-adv-x="745" d="M-95 -450q-1 5 7 10q19 8 46.5 25t68 46.5t82.5 73.5t71 92q83 137 164 342q3 8 13 19t15 23.5t1 33.5q-3 16 4 34.5t19 39.5t16 33q16 11 20.5 23t2 20.5t1.5 21.5q73 203 94 256q3 9 6.5 17t5 13.5t3.5 12.5q-103 11 -238 21q-16 2 -59 2q-133 0 -178 -45 q-4 -5 -9.5 -6.5t-6.5 2t5 12.5q56 75 127 98q53 17 131 14q3 0 14 0.5t17 0t15 -1.5t16 -3.5t12 -7.5q20 -14 27.5 -13.5t20.5 7.5t22 6q148 -16 235 -16q-50 -143 -81.5 -229.5t-81.5 -209t-99 -221.5q-132 -261 -317 -424q-32 -29 -102.5 -73t-94.5 -52q-11 -4 -15 3z " />
<glyph unicode="8" horiz-adv-x="811" d="M76 221q0 91 73 176.5t177 147.5q-90 61 -123 98q-50 55 -43 117q1 7 22 12q14 4 4 27q-10 24 29 63q67 69 179 106t186 17q66 -17 101.5 -56.5t35.5 -90.5q0 -74 -68 -133q-72 -63 -155 -113q32 -20 55.5 -36.5t53.5 -38t51 -41t43 -42.5t35 -45.5t21.5 -47t8 -50.5 t-9.5 -53q-38 -108 -155 -182t-243 -74q-66 0 -125 24q-24 9 -55 33q-5 4 1.5 14t3 17t-31.5 8q-6 0 -12 2t-11.5 8t-9 9.5t-8 13t-6 12.5l-6.5 13l-4 11q-14 35 -14 74zM188 301q0 -89 56 -145q37 -39 111.5 -70t140.5 -31q100 0 131 72q20 44 20 84q0 39 -18 76 q-2 4 -4.5 17t-9 21t-21.5 15q0 18 -6 25.5t-17 10t-16 7.5q-21 19 -49.5 40.5t-49.5 36t-57.5 38t-52.5 34.5l-39 -22q-55 -24 -87 -83t-32 -126zM264 840q-5 -65 49 -119q31 -33 160 -117q30 16 40.5 22t37 24.5t37 32t19 36t5.5 45.5q-4 26 -8 35q-2 6 -4 27q-4 31 -9 32 q-1 0 -3 -2q-12 -11 -31.5 5t-21.5 28q-2 11 -13 15t-25 2.5t-28 0.5q-46 8 -82 8q-116 0 -123 -75z" />
<glyph unicode="9" horiz-adv-x="798" d="M47 344q0 64 21 125q37 117 149 218t225 101q99 0 175 -75t104 -170q20 -67 20 -142q0 -102 -34 -200q-91 -271 -435 -506q-66 -46 -114 -74q-38 -22 -36 -9q3 14 31 37q4 3 7 5l71 47q5 4 16.5 7t19.5 8.5t12 19.5q11 1 19.5 7.5t17.5 18t14 15.5q172 154 243 309 l-14 -10q-127 -80 -221 -80q-46 0 -92 18q-38 17 -74 45q-2 2 -17 9.5t-22.5 16.5t-3.5 21q9 18 3.5 30.5t-36.5 17.5q-10 2 -15 12t-8 28t-5 25q-21 59 -21 125zM146 452.5q-2 -9.5 4 -22.5q11 -11 14 -20.5t1.5 -17.5t0.5 -21q20 -99 84 -191.5t145 -118.5q30 -10 84 6 t107 48q25 61 35 129q2 12 7 32.5t7.5 37t1.5 32.5q-1 11 -10 36.5t-11 33.5q-1 4 12.5 14.5t14.5 15.5q1 7 -10.5 13t-26.5 6q-21 75 -69 135q-30 37 -70 64q-67 43 -121 43q-101 0 -153 -117q-18 -37 -27 -82q-1 -8 -9.5 -27t-10.5 -28.5z" />
<glyph unicode=":" horiz-adv-x="374" d="M102 629q0 8 48.5 43t60.5 35q4 0 17 -20t26.5 -45t15.5 -28q0 -11 -65 -53q-4 -2 -10.5 -2.5t-11 -0.5t-7.5 -3.5t-2 -11.5q-9 -6 -14 -6q-2 0 -17 22q-34 61 -41 70zM104 80q0 8 48.5 43t60.5 35q2 0 27 -37q-1 -12 3 -19t10.5 -12t8.5 -8l10 -16q0 -8 -49 -43t-61 -35 q-3 0 -15 20t-26.5 44.5t-16.5 27.5z" />
<glyph unicode=";" horiz-adv-x="391" d="M98 -182q-2 6 8 12q29 19 48 43q12 15 16.5 28.5t7.5 43.5q0 5 -5.5 40.5t-0.5 47.5q5 19 3.5 20.5t-9.5 2t-10 7.5l-19 52q0 13 66 51l45 24q1 -2 6 -15t6 -15.5t5.5 -14.5t5.5 -16t4.5 -14.5t5 -16t3.5 -15t3 -16.5t1.5 -15.5t0.5 -16.5q0 -87 -82 -152 q-66 -51 -88 -63q-18 -9 -21 -2zM102 629q0 8 48.5 43t60.5 35q3 0 14 -15q2 -3 2 -13t3.5 -15t13.5 0q2 1 2.5 -2t1 -6.5t2.5 -4.5q5 -2 12 -19t8 -18q0 -8 -49 -42.5t-61 -34.5q-3 0 -15 20t-26.5 44.5t-16.5 27.5z" />
<glyph unicode="&#x3c;" horiz-adv-x="675" d="M102 311q0 10 299 279q41 41 84 72q7 5 14 2q3 -4 -3 -11q-26 -23 -75 -71t-75 -72l-133 -121l96 -51q6 -3 10.5 -13t11.5 -15t21 -1q5 2 19 -9.5t28 -8.5l174 -92q-3 1 -11 -6.5t-21.5 -22t-24.5 -23.5q-32 -28 -47 -28q-4 0 -6 2q-26 13 -65.5 37.5t-76 44t-77.5 35.5 q-5 2 -23.5 13.5t-38.5 16.5q-5 1 -43 23z" />
<glyph unicode="=" horiz-adv-x="763" d="M106 233q15 2 46 37q13 14 19 20.5t18 13.5t24 7q96 -6 281 -6q109 0 151 27q12 6 14 6q3 0 3 -2q0 -1 -11 -12q-69 -59 -142 -81t-175 -22q-25 -2 -66 2q-3 0 -9 -1t-9 -0.5t-9 4.5t-12 12q-5 3 -10 0.5t-13.5 -7t-12.5 -4.5q-6 0 -38.5 3t-48.5 3zM106 436q15 2 50 41 q33 37 57 37q96 -6 281 -6q109 0 151 27q12 6 14 6q3 0 3 -2t-11 -13q-54 -45 -116 -71q-3 -1 -20 -2.5t-26 -12.5q-5 -1 -13.5 5.5t-12.5 3.5q-22 -18 -41 -21q-54 -4 -88 -4q-46 -2 -123.5 5t-104.5 7z" />
<glyph unicode="&#x3e;" horiz-adv-x="675" d="M105 98l8 11q40 33 101 69t106 59.5t124 61.5q-6 6 -73 67.5t-101 94.5q-5 6 -1.5 13t-0.5 14.5t-20 9.5q-21 3 -39 18l-41 39q-1 0 6.5 7t21 18t27.5 22q39 31 51 31h5l292 -271q3 -4 -39.5 -34t-52.5 -35l-360 -193q-16 -8 -14 -2z" />
<glyph unicode="?" horiz-adv-x="759" d="M102 997l11 11q197 176 350 176q53 0 100 -21q3 -1 3.5 -7t3 -8t18.5 1q17 -11 35 -33q16 -14 17 -40t13 -34q6 -4 7 -11t-1 -16.5t-2 -13.5q0 -53 -20 -113.5t-42 -100t-65 -110t-61 -102.5q-80 -146 -80 -264v-24q0 -17 -49 -41q-59 -28 -61 -37v22q0 63 20 131 q2 5 9 16.5t11.5 24.5t2.5 29q-1 9 6.5 15.5t9.5 11.5q39 77 80 143q44 73 65.5 113.5t42.5 102.5t21 116q0 78 -64 126t-143 48q-81 0 -143 -53q-11 -9 -49.5 -33.5t-43.5 -24.5h-2zM276 39q1 -2 6.5 5t15 19.5t22 25t30.5 21.5t37 9q1 0 6 -11.5t11 -26t8 -18.5 q0 -2 -7.5 -8.5t-7.5 -7.5q-1 -1 -10 -9t-18.5 -16t-22 -16.5t-24.5 -14t-21 -5.5q-2 0 -12 21.5t-13 31.5z" />
<glyph unicode="@" horiz-adv-x="1280" d="M37 195q0 145 47.5 289.5t130.5 265.5q64 93 163.5 177t227.5 141.5t244 57.5h14.5h16t15 -0.5t15.5 -1.5t13 -3.5t12 -6.5t8 -10q9 -14 21.5 -15.5t23 3.5t21.5 0q3 -1 41 -23q88 -55 141 -153.5t53 -227.5q0 -206 -109.5 -374t-289.5 -265q-3 -1 -15.5 -8t-20.5 -11 t-20.5 -9.5t-23.5 -8t-21 -2.5q-53 0 -53 94v46q-49 -66 -127 -117q-52 -33 -82 -33q-25 0 -44.5 28t-30 69t-16 80.5t-5.5 70.5q0 354 248 506q77 47 141 47q90 0 109 -84q11 -56 -9 -147.5t-46.5 -196.5t-26.5 -176q0 -45 12.5 -77t38.5 -32q28 0 63 27t56 53 q160 196 160 440q0 106 -33 191q-2 6 -3 22t-7 26t-23 17q-5 9 0 17.5t2 18t-22 13.5q-15 3 -54 37q-107 92 -282 92q-125 0 -233.5 -71.5t-180 -185t-112 -252t-40.5 -275.5q0 -130 43.5 -237.5t118.5 -170.5q3 -3 5 -10t4.5 -11t7.5 -3q15 4 24 0.5t16 -10.5t11 -9 q61 -28 125 -28q90 0 188 55q9 6 10.5 3.5t-6.5 -11.5q-60 -54 -147 -87.5t-162 -33.5q-159 0 -254 143q-23 35 -35 62q-4 9 -1 16.5t-0.5 16.5t-18.5 16q-7 4 -10 12t-4.5 22.5t-2.5 18.5q-20 79 -20 183zM489 193q4 -27 17 -31q10 -4 15 -10.5t7 -18t2 -12.5 q27 -65 58 -43q28 18 69 107t70 188q12 55 27 108q1 5 21 63t20 83q0 40 -41.5 67t-83.5 27q-44 0 -79 -36.5t-54.5 -94.5t-29.5 -117.5t-11 -116.5q0 -54 6 -110q1 -8 -6.5 -26.5t-6.5 -26.5z" />
<glyph unicode="A" d="M43 -92v20q0 104 29 205q32 111 92 250q13 31 33 74l-2 2q2 0 2 2q80 177 233 465q2 3 7.5 7t8 9t0.5 14q10 9 14.5 17t6 17t4.5 14l70 126l10 23q0 2 4 10t10 11q10 8 49 30q48 27 48 31l18 -127q0 -3 6.5 -23.5t1.5 -29.5q-7 -22 -5.5 -29t9 -18t8.5 -19 q-2 -23 6 -44.5t9 -26.5q27 -138 57 -273q9 -43 14 -61q14 7 23 16l-21 -22q15 -56 33 -111q2 -5 2 -27q0 -14 15 -26q16 -14 20 -45q0 -11 4 -27q25 -71 60 -139q36 -74 77 -115q9 -9 22 -15.5t33.5 -5.5t37.5 15q10 8 12 2q2 -4 -4 -12q-58 -80 -131 -80q-43 0 -82 33 q-15 12 -23 20t-14.5 23.5t-3.5 33.5q3 19 -8 28t-25.5 14.5t-17.5 11.5q-4 10 -2 18t-2.5 18t-20.5 19q-8 4 -12 14.5t-7 25t-6 21.5q-25 67 -49 148q-10 29 -20 67q-108 -57 -256 -57q-87 0 -178 16q-53 -146 -58 -163l-12 -43q-15 -7 -17.5 -16.5t1 -22t2.5 -19.5 q-11 -46 -17 -106q-1 -6 -4.5 -15t-6 -15.5t-1.5 -14.5t8 -15q4 -4 4 -11.5t-2 -17t-2 -14.5q1 -41 14 -81.5t36.5 -75t62.5 -52.5q27 -12 58 -12q14 0 28 2q-6 -2 -38 -32.5t-50 -32.5q-17 -3 -34 -3q-67 0 -112 56q-56 70 -59 166zM272 530q24 14 39 11q52 -13 148 -25 q48 -4 88 -4q29 0 53 2q44 4 62 8q4 0 6 2q-69 265 -111 568q-204 -370 -285 -562z" />
<glyph unicode="B" horiz-adv-x="1003" d="M106 991q-8 5 5 15q135 115 350 182q90 24 129 31q6 1 16.5 -7t19.5 -13.5t13 -0.5q19 23 37 27.5t33 -0.5q7 -1 30 -12.5t37 -4.5q6 6 17.5 0t16.5 -10t15.5 -15t14.5 -14q67 -63 67 -135q0 -22 -6 -45q-1 -5 -6 -11t-7.5 -13t-0.5 -17q1 -6 -2.5 -12.5t-11 -15 t-9.5 -11.5q-67 -94 -194 -166l41 -10q13 -3 40 -19.5t48 -19.5q15 -2 33 -22.5t36 -28.5q6 -2 15 -14t10 -13q43 -49 63 -108q17 -60 17 -98q0 -102 -74 -199q-6 -9 -24 -19.5t-25 -17.5q-5 -5 -15.5 -24t-17.5 -25q-82 -70 -184 -117q-90 -43 -195 -43q-54 0 -104 15 q-41 11 -78 32q-2 1 -24 10.5t-31 19t-13 26.5q-6 7 -8.5 24t-9.5 29t-25 16q-11 2 -15 13.5t-4 34.5t-1 30q-12 85 -12 174q0 77 9 169t19.5 157.5t29 171t26.5 157.5l-2 -4l2 7v2q-16 -11 -72 -54q-11 -9 -19 -4zM225 426q4 -132 41 -217q13 -35 41 -70q1 -1 6.5 -8.5 t7.5 -9.5t7 -8.5t8 -9t8.5 -7t9.5 -7t9.5 -5.5t11.5 -4q23 -6 50 -19t46 -16q34 -6 68 -6q75 0 143 25.5t118 80t60 129.5q4 26 4 51q0 88 -45 160q-19 29 -26 37l-13.5 13.5t-16 18t-8.5 20t-1 28.5q1 5 -8 2q-27 -8 -29 -8l-4 2q-85 62 -187 74q-4 0 -11.5 1t-10.5 1 l-4 -2q0 2 2 2q-22 1 -42 -1.5t-42.5 -8.5t-37 -10t-42.5 -14.5t-41 -14.5q10 3 47 36.5t57 40.5q14 5 49.5 17t52 17t43 10t48.5 6l16 6q79 17 132 69q44 43 44 105q0 13 -2 26q-6 71 -57 119q-3 3 -9.5 10t-10 10t-9.5 8t-12 8t-14 5q-5 2 -25 4.5t-26 5.5q-12 7 -22 9 t-21 0.5t-17 -0.5q-22 1 -43 1q-110 0 -215 -38q-6 -42 -24.5 -147t-26.5 -162l-6 -48q-1 -8 -9.5 -19.5t-9 -19t10.5 -32.5q4 -11 3 -18.5t-5 -21.5t-5 -20q-7 -69 -7 -139q0 -23 1 -47z" />
<glyph unicode="C" horiz-adv-x="1024" d="M53 575q0 18 4 64q1 10 8.5 16.5t15 9t12 8.5t1.5 15q-4 9 -8.5 19.5t-5.5 13.5t-2 9t0.5 11t5.5 15q37 96 115.5 188t181.5 160q8 5 21.5 15.5t25.5 18t27 11.5q9 4 45.5 13.5t58.5 31.5q7 7 17.5 10.5t26 5.5t22.5 4q77 17 135 17q172 0 293 -113q1 0 -7 -7t-22.5 -19 t-28.5 -23q-40 -31 -57 -37q-13 -64 -14 -82q-3 -20 -7 -21q-7 -1 -8 26v10q14 68 17 73q-1 1 -49 37q-1 1 -6 3.5t-6.5 3.5t-6 3.5t-6.5 4.5t-6 5t-6.5 5.5t-5.5 6.5t-5 8t-4 9q-7 9 -15 8.5t-23 -3.5t-23 -1q-66 17 -119 17q-166 0 -301.5 -109t-161.5 -278q-6 -44 -6 -86 q0 -82 25 -168q2 -4 2 -9.5t-1 -12t-1 -9.5q0 -12 18 -20q-15 -35 2 -45q1 -1 13 -7t16 -12q38 -69 104 -135q60 -57 138 -100q7 -4 10.5 -13t12.5 -15.5t32 -6.5q12 0 35 -7t28 -8q44 -12 92 -12q39 0 72 8q38 9 109 66q2 2 38.5 27.5t45.5 33.5q16 12 26 5q13 -9 -16 -33 q-230 -193 -410 -193q-98 0 -188 53q-9 5 -36 30.5t-54 33.5q-16 4 -28.5 16t-27.5 32t-22 28q-111 124 -145 268q-13 54 -13 108z" />
<glyph unicode="D" horiz-adv-x="1036" d="M65 1033q2 4 17 16q63 56 186 98l6 6v-4q115 35 218 35q79 0 165 -25q6 -2 17.5 -9t21 -10.5t17.5 -0.5q16 5 27.5 -1t24 -20.5t19.5 -19.5q53 -37 90 -82q66 -81 97 -166q14 -38 0 -55q-14 -14 -11.5 -26t11 -18t18 -15.5t10.5 -18.5q1 -12 1 -25q0 -84 -30 -170 q-34 -99 -97 -185.5t-143 -161t-173 -134.5q-153 -100 -268 -100q-54 0 -99 26q-85 52 -90 277q0 5 8 13t8 16t-16 20q-6 4 -6 13t3 21t3 17q2 126 21 342q1 11 7 27t7 26.5t-6 38.5q-4 11 5.5 34.5t0.5 41.5q-5 17 -4 26t6 27t6 27l13 131q0 8 6 14q-18 -8 -70 -37 q-28 -14 -27 -9zM203 236.5q-2 -10.5 3 -15t11.5 -10.5t7.5 -12q27 -163 151 -163q7 0 15 1q41 4 103 26q8 3 22.5 2t22.5 5q4 2 17.5 17t18.5 17q27 11 49 25.5t34 25.5t30 31q94 101 143 244q3 9 13 30t13.5 37.5t0.5 37.5q-2 20 2.5 55.5t3.5 52.5q-3 47 -12 94 q-26 110 -96 189q-66 75 -152 125q-8 4 -18.5 14.5t-23.5 16.5t-38 8q-18 1 -46.5 11.5t-39.5 12.5q-39 8 -84 8q-19 0 -65 -4q-6 -2 -19 -2l-26 -293q-1 -10 0 -19t-3 -22t-14 -26q-8 -4 -0.5 -20t6.5 -23q-9 -109 -12 -217q-6 -123 -6 -152q0 -9 4 -28.5t4.5 -29 t-6.5 -24.5q-12 -15 -14 -25.5z" />
<glyph unicode="E" horiz-adv-x="911" d="M6 279q-1 10 -1 21q0 74 50 144q4 6 15 9.5t19 12.5t11 32q9 10 37 28t45 39q7 9 18 16.5t19 11.5t23.5 11t21.5 10q72 37 121 56q-63 18 -111.5 44t-79.5 73q-21 32 -21 68q0 18 5 36q36 137 219 248q106 63 234 63q57 0 112 -12q5 -1 12 -9t13 -9.5t25 4.5 q33 -7 54.5 -20.5t31.5 -16.5q14 -4 22.5 -9.5t15.5 -12t11 -9.5q-2 -1 -9 -7.5t-19 -17.5t-23 -20q-46 -42 -63 -42q-3 0 -5 1q-52 35 -127 65q-5 2 -11.5 8t-14.5 9t-23 0q-9 -2 -17 13.5t-16 17.5q-6 1 -31.5 -6.5t-31.5 -6.5q-16 2 -32 2q-44 0 -89 -12 q-52 -15 -84.5 -61.5t-32.5 -100.5q0 -64 45 -106q6 -5 14.5 -18t19 -20t30.5 -9q9 -1 24.5 -13t24.5 -12q28 0 74 -17t67 -20q-6 -2 -13.5 -8.5t-19 -19t-16.5 -17.5q-41 -41 -62 -41h-4h-4q-13 -10 -24 -10q-53 -10 -106 -28t-106.5 -46.5t-86.5 -72.5t-33 -95 q0 -43 22 -88q16 -33 52 -78q3 -36 15.5 -53t27.5 -6q9 9 17.5 6t13 -7.5t10.5 -12.5t10 -11q57 -39 117 -59q7 -2 21 -5t22.5 -7t17.5 -13q13 -13 30.5 -15.5t38.5 0t29 1.5q30 -4 59 -4q140 0 232 90q22 22 34 18q14 -5 -32 -47l-4 -4q-92 -77 -163.5 -110t-162.5 -33 q-44 0 -112 10q-86 14 -166 49q-4 2 -24 17t-42 16q-12 1 -24 7.5t-19.5 13t-20.5 19.5l-18 18q-7 21 -28 36.5t-25 20.5q-39 51 -45 113z" />
<glyph unicode="F" horiz-adv-x="1087" d="M33 176q-2 20 2 38.5t8.5 30t18 28t19.5 22t24.5 22t21.5 19.5q22 19 29 12q4 -7 -21 -31q-15 -14 -15 -33q0 -24 23 -57q4 -6 6.5 -18.5t10.5 -21.5t30 -17q-1 -11 3.5 -15t10.5 -4t12 -1.5t7 -6.5q7 -26 19 -34t31 -7t28 -4q103 -49 205 -49q96 0 151 47 q100 82 156 254q3 7 10 22t10.5 30t4.5 40q0 16 6.5 43t7.5 35q6 45 14 139q-60 6 -121 9q-70 4 -106 4q-51 0 -104 -6q-1 0 -14 -2t-23.5 -4t-27.5 -5.5t-31.5 -8t-31 -10.5t-31.5 -13.5t-26 -16.5q-9 -8 -12.5 -3.5t6.5 13.5q96 76 201.5 105t232.5 29q16 0 46 -1t46 -1 v55q0 124 -10 244q-56 -26 -117 -26q-21 0 -43 3q-37 4 -106 20q-3 0 -26.5 10.5t-43.5 4.5q-15 -2 -23 -0.5t-23 6.5t-23 6q-4 1 -25.5 12t-36.5 9q-25 -5 -63 -5q-17 1 -33 1q-83 0 -125 -31q-15 -12 -20.5 -6.5t12.5 18.5q140 98 289 98q44 0 69 -4q73 -5 88 -24 q19 -20 31 -17.5t28 10t25 3.5q13 -7 21.5 -9.5t19 -3t19.5 -2.5q103 -14 125 -14q26 0 45.5 7t54.5 28l-12 -15q16 10 16 15q10 -102 10 -193q0 -14 -7.5 -32.5t-10 -31t5.5 -42.5q8 -21 8 -58q0 -7 -1 -22.5t-1 -22.5q82 -4 119 -4q-3 -1 -46.5 -43.5t-64.5 -42.5h-20 q-49 -309 -203 -487q-152 -177 -354 -180q-8 0 -27.5 -2.5t-34 -0.5t-32.5 11q-23 12 -38.5 16.5t-52.5 5.5q-8 0 -16.5 3t-20 9t-18.5 9q-138 61 -145 143z" />
<glyph unicode="G" horiz-adv-x="1193" d="M74 553q0 92 30 164q51 126 158 233q4 4 26.5 20t37.5 38q10 16 25.5 28t40.5 25.5t34 19.5q20 -4 38 15t21 20q176 92 344 92q107 0 187 -34q8 -3 17.5 -17.5t19.5 -13.5q11 1 20.5 -1t14 -4.5t12.5 -9.5t10 -8l29 -24q0 -2 -49 -41q-52 -42 -64 -45q-36 -96 -37 -103 q-4 -21 -15 -11q-8 8 -7 17q1 4 9.5 24t19 45t14.5 36q-44 36 -107 67q-7 3 -13.5 11.5t-11 13.5t-16 6.5t-28.5 -8.5q-7 2 -35 2.5t-45 9.5q-7 4 -16.5 5.5t-17 1t-20 -2.5t-18.5 -2q-168 -9 -302.5 -110.5t-170.5 -261.5q-12 -52 -12 -105q0 -86 28 -168q3 -8 2.5 -27.5 t3.5 -27.5q3 -6 17.5 -17.5t17.5 -17.5q7 -14 3.5 -22.5t-2.5 -13.5t14 -7q25 -4 46 -25.5t38.5 -49.5t27.5 -36q168 -145 324 -163q36 -4 63 -4q117 0 160 38q-1 5 -4.5 12.5t-3.5 10.5t2 14q5 14 5 28q0 19 -11 36q-10 17 3.5 47.5t8.5 36.5q-6 8 -9 15.5t-3.5 10t1 13.5 t1.5 14q10 104 41 240l4 26q-63 6 -164 31q-36 8 -66 8q-56 0 -81 -22q-10 -8 -15 -4.5t8 14.5q57 53 86 67q47 21 97 21q8 1 20 -4.5t20 -6.5t27 9q18 3 23.5 2.5t13 -4t12.5 -4.5l142 -21q18 -2 35 -2q67 0 102 33q5 4 9 2.5t-1 -8.5q-77 -88 -162 -107q-12 -64 -16 -92 q-1 -5 -9 -14.5t-10.5 -16t5.5 -20.5q9 -9 9.5 -21.5t-4 -31t-5.5 -27.5q-2 -29 -2 -57q0 -82 16 -144q2 -7 -25 -30q-82 -81 -185.5 -128.5t-209.5 -47.5q-95 0 -178 38l-45 23q-18 10 -45 45q-13 17 -35 19t-27 6q-110 86 -175.5 200.5t-65.5 239.5z" />
<glyph unicode="H" d="M53 517q-4 9 17 26q68 56 145 86q2 33 10 104q1 8 7 20t6.5 19.5t-7.5 28.5q-5 9 4 35t7 34q-5 19 -6 33.5t0 31t0 28.5q-4 82 -19 114q-6 13 -23.5 20t-35.5 1q-19 -7 -64 -45q-7 -7 -10.5 -3.5t4.5 13.5q13 13 26.5 25.5t39.5 35t49.5 37.5t48.5 26.5t45.5 9 t32.5 -20.5q35 -56 35 -158q0 -43 -17 -193l-20 -161l41 8q101 16 235 16h60q3 0 39.5 -7t54.5 1q14 4 24.5 4.5t24.5 -1t24 -1.5q8 0 24 -1t24 -1l10 104q0 9 0.5 36t2.5 45t7 32q4 10 5.5 19.5t2 16t-1.5 15t-3 12.5t-5 14l-6 15q-6 17 -10 45.5t-9 38.5q-16 37 -47 37 q1 1 12.5 13.5t21.5 22t23.5 21.5t26.5 18.5t23 6.5q76 0 76 -195q0 -69 -15 -219q-2 -16 -4 -48t-4 -48q6 0 18 1t17 1q-8 -4 -39 -35l-6 -33q-5 -18 -7 -52t-12 -54q-9 -18 -9 -29.5t4 -23t3 -21.5q-14 -150 -14 -229q0 -75 12 -115q12 -39 35 -39q-11 -3 -39 -32 q-40 -46 -63 -46h-2q-53 4 -53 150q0 17 1 37q2 3 5.5 7t5 6t3.5 5.5t2 6t-1 6t-4 7.5t-8 9q1 10 1 33.5t1.5 43t5.5 36.5q3 15 8 82q13 135 20 194q-49 -5 -83 -5q-26 0 -44 3q-10 1 -28 6.5t-36 8t-40 -0.5q-18 -2 -29.5 -5t-16 -4t-11.5 -1h-66q-4 0 -10.5 -0.5t-11 -0.5 t-10 1t-9.5 4q-16 7 -22.5 6t-17.5 -6t-17 -6q-11 -1 -31 -1.5t-36.5 -1.5t-31.5 -3q-11 -93 -16 -160q-1 -11 -8.5 -30t-9 -29t9.5 -31q8 -18 7.5 -27.5t-5.5 -30t-6 -28.5q0 -10 -1 -30t-1 -29q0 -50 6 -80q6 -50 24 -47q-6 -3 -23 -20.5t-24 -24.5q-39 -39 -63 -41h-3 q-30 0 -38 61q-4 23 -4 76q0 54 6.5 130t13.5 131.5t15 111.5t8 59q0 4 1 11.5t1 11.5q-92 -22 -148 -62q-6 -6 -8 1zM1020 686q1 0 3 1t3 1q-4 0 -6 -2z" />
<glyph unicode="I" horiz-adv-x="362" d="M52.5 1049.5q-3.5 3.5 4.5 13.5q61 61 113 96q56 38 90 38q26 0 39 -21q35 -56 35 -158q0 -43 -17 -193q-21 -143 -38 -333l-9 -97q-1 -11 -6.5 -31t-6.5 -30.5t7 -32.5q5 -16 4.5 -25t-3.5 -25t-3 -24q-10 -27 -10 -38t5.5 -30t6.5 -26q6 -61 23 -61h2q-10 -6 -45 -41 q-43 -43 -66 -45q-18 -3 -29 19t-14 61q-2 18 -2 59q0 54 6.5 129.5t13.5 131t15 110.5t8 59q1 12 7 35.5t7.5 36t-2.5 39.5q-2 15 -1 22.5t4 22t4 22.5q1 10 7 30.5t6 30.5t-5 37q-6 26 -5 43t4.5 45t2.5 44q-4 82 -19 114q-6 13 -23.5 20t-35.5 1q-19 -7 -64 -45 q-7 -7 -10.5 -3.5z" />
<glyph unicode="J" horiz-adv-x="311" d="M-240 -495.5q-2 2.5 11 14.5q113 99 186 252l31 69q5 9 13 23t20 47.5t8 54.5l22 94l39 303q16 203 25 365q1 12 5 31t6.5 32t1.5 28t-9 24q0 5 3.5 17.5t4.5 21.5t-4 24q-9 27 -9 37t5 30t6 29q2 52 2 83.5t-2 41.5q-8 -3 -43 -22.5t-51 -26.5q-8 -8 -17 -3q-6 4 6 13 q54 35 134 81q67 37 85 37q3 0 5 -1q3 -22 3 -55t-2.5 -97.5t-2.5 -82.5q0 -86 -13 -318q-1 -15 1.5 -39t2.5 -34q0 -32 -12 -64q-21 -19 -21 -39q0 -17 17 -35q7 -1 1.5 -21.5t-5.5 -23.5q-7 -81 -14 -125q-30 -217 -108.5 -390t-229.5 -304q-36 -33 -84 -63 q-15 -11 -17 -8.5z" />
<glyph unicode="K" horiz-adv-x="960" d="M52.5 1047.5q-3.5 3.5 4.5 13.5q13 13 26.5 25.5t39.5 35t49.5 37.5t48.5 26.5t45.5 9t32.5 -20.5q2 -4 10 -15.5t11 -16.5t7 -17.5t-1 -18.5q-3 -15 -2 -21.5t5 -17.5t5 -18q1 -11 1 -26q0 -30 -3 -77q-7 -12 -8.5 -31t0.5 -36.5t0 -36.5l-15 -99q45 66 86 115 q4 5 21 20t30 37q7 12 30 29t32 35q10 20 21.5 31t27.5 19.5t23 14.5q156 135 263 135q20 0 38 -5q6 -1 12 -9t14 -13t23 -1q4 1 8 -3t8.5 -10.5t7.5 -9.5q24 -29 33 -45q3 -6 -27 -28t-62 -40.5t-34 -15.5q-33 56 -76 74q-21 9 -44 9q-157 0 -427 -415q-6 -8 -8 -12 q70 41 125 41q69 0 121 -34q28 -18 55 -52q-2 -15 4 -23t16 -14.5t13 -11.5q18 -32 27 -55q3 -9 21 -74.5t44 -143.5t53 -132q3 -7 8 -21t8 -21.5t10.5 -15.5t16.5 -10q11 -2 25 -17t21 -18q27 -10 51 6q41 26 43 16q1 -7 -25 -26q-72 -51 -108 -60q-35 -8 -60 5 q-67 34 -104 137q-3 10 -1.5 18t-2 17.5t-15.5 17.5q-11 7 -16 21t-7.5 36t-4.5 31q3 17 -0.5 27t-10 18t-8.5 15q-23 82 -55 141q-34 62 -94.5 113t-122.5 51q-20 0 -41 -6q-35 -300 -35 -426q0 -44 2 -60q6 -75 29 -75h2q-2 -2 -21.5 -24.5t-33.5 -33.5q-32 -28 -60 -28 q-36 3 -43 86q-1 6 1.5 17t2.5 20.5t-6 15.5q13 21 0 59q-6 25 -5 34.5t5.5 24.5t5.5 25q12 133 37 287q2 18 11 96t12 112q3 33 5 93q1 33 2 63q0 23 -1 44q-4 82 -19 114q-6 13 -23.5 20t-35.5 1q-19 -7 -64 -45q-7 -7 -10.5 -3.5z" />
<glyph unicode="L" horiz-adv-x="854" d="M2 -15q-6 5 23 31q25 22 49 37q19 23 39 72q21 61 30 123q16 123 19 229q1 13 -0.5 37.5t-1.5 32.5q0 4 3 19.5t2.5 27.5t-7.5 18q18 28 18.5 33.5t-10.5 26.5q-3 15 -3.5 19t2.5 22t3 20q7 87 29 156q30 89 109 171.5t184 131.5q90 42 173 42q14 0 27 -1q1 0 3 -1t3 -1 q10 -6 29 -25q3 -3 6 -15t10 -13q9 -2 14.5 -7t12 -16t6.5 -12q4 -7 1 -17t1.5 -19t20.5 -9q4 0 6 -3t2 -7.5t0.5 -10t1.5 -8.5q15 -45 24 -92q1 -5 4.5 -15.5t4.5 -15.5t-2 -14q-7 -16 -6.5 -22t4.5 -14t4 -13q-3 -102 -58 -154q-34 -31 -82 -61l-28 -13q-5 -2 -4 1 q1 2 6 6q45 40 45 142q0 21 -2 44q0 7 1 30t-2.5 37t-13.5 23q-11 9 -16 38.5t-6 33.5q-47 114 -100 139h-7q-14 1 -27 1q-110 0 -171 -83q-4 -6 -19 -18.5t-20.5 -26t-1.5 -35.5q2 -14 -8 -36t-11 -27q2 -6 1 -15q0 -19 -7 -49q-11 -44 -12 -55q-4 -42 -8 -137 q0 -16 -1 -76.5t-2.5 -104t-6.5 -84.5q-1 -9 -10 -17t-11 -17q-2 -10 -0.5 -44t-1.5 -42q-39 -137 -121 -203q34 10 86 10q18 0 68 -4q9 -1 23.5 -6.5t23.5 -7t29 3.5q25 9 51 -21q4 -6 18 0.5t19 5.5q159 -27 223 -30q3 0 13 -3t13 -3q10 5 18.5 8t18 3h14.5t17 -2t16 -3 q7 -1 13 -1q37 0 71 29q12 11 15.5 2.5t-8.5 -20.5q-76 -84 -201 -94q-23 -2 -47 -1.5t-49 1.5q-9 1 -18.5 8t-18.5 8q-10 1 -40 -1t-40 -1q-67 9 -187.5 28t-160.5 25q-25 4 -53 -4t-39 -18q-16 -12 -21 -7z" />
<glyph unicode="M" horiz-adv-x="1282" d="M-59 1079q-6 5 6 21q48 62 98 88q41 21 92 21q12 0 25 -1q104 -7 190 -137q5 -8 0.5 -15.5t-2.5 -16.5t17 -13q15 -5 39 -47l51 -102q44 -99 53 -134q13 -45 39 -86q6 -10 10 -21t8 -26t6 -22q45 -142 62 -234l33 95q2 5 9 11t9 12t0 28q-2 7 1.5 15.5t9.5 18.5t8 15 q4 12 40 96q92 204 187 330q51 71 129 143l51 41q7 4 10.5 2t10 2.5t14.5 20.5q4 7 10.5 11.5t20 9.5t14.5 5q52 28 141 32h10.5t12 -0.5t9 -2.5t9.5 -6q-1 0 -5.5 -6t-12.5 -10q-15 -6 -19 -19.5t-6 -15.5q-29 -41 -59 -41q-1 0 -8.5 1t-16 1.5t-22.5 -0.5t-27 -4 q-25 -73 -41 -162q-2 -9 -4.5 -42.5t-9.5 -53.5q-3 -8 -3 -30.5t-5 -31.5q-12 -19 -13 -29.5t3 -17.5t3 -14q-3 -27 -14 -217q-2 -53 -2 -158q0 -123 4 -182q6 -62 16 -86t31 -39q17 -14 55.5 -5t55.5 31q8 11 8 4q0 -10 -12 -28q-22 -31 -66.5 -62.5t-85.5 -31.5 q-42 0 -69 36q-44 58 -48 226q-1 11 3.5 25.5t9 25.5t2 26t-14.5 29q-7 8 1 29t2 29q-2 22 -1.5 30.5t4.5 44t5 45.5q15 155 71 445q13 84 29 119q-96 -70 -190 -244q-20 -38 -48 -66q-13 -13 -16.5 -42.5t-7.5 -39.5q-31 -68 -47 -110q-89 -221 -141 -436q0 -3 1 -8t1 -7 q0 -14 -37 -33t-45 -28q-6 129 -43 276q-1 6 0.5 12.5t2.5 9.5t-2.5 7.5t-13.5 9.5q-9 10 -14 29t-8 42t-6 32t-1.5 16t-1.5 16.5t-14 18.5q-6 5 -9 14t-5 21t-4 18q-9 26 -30 75t-25 60q-70 167 -142 285l-8 10q2 -25 2 -69q-3 -129 -12 -265q-1 -8 -5 -28t-4 -28.5 t5 -25.5q5 -14 4.5 -19.5t-3.5 -14t-3 -13.5q-9 -13 -9.5 -21t3 -15.5t2.5 -12.5q-12 -214 -12 -300q0 -23 1 -36q6 -62 24 -92.5t54 -44.5q6 -2 13 -2q27 0 65 33q15 13 19 7q3 -6 -23 -32q-78 -78 -150 -78q-33 0 -61 19q-43 26 -57 117q-1 5 0.5 14t0.5 17t-6 14 q-2 13 -2 32q0 30 5 74q1 6 5 15t4.5 14t-5.5 22q-5 16 -4.5 24.5t5 26.5t5.5 27q7 72 26.5 213t26.5 205q21 171 21 223q0 38 -7 78q-22 20 -57 39q-15 8 -35 8q-20 1 -44 -7q-50 -16 -85 -58q-16 -20 -24 -13zM172 1147l2 -10q0 -6 4 -2z" />
<glyph unicode="N" horiz-adv-x="1003" d="M-10 1162q-1 4 4 9q69 80 137 82h7q23 0 55 -16q37 -21 53 -41q1 -1 17 -15t18 -24q3 -15 8.5 -21.5t13 -10t10.5 -7.5q80 -107 144 -209q3 -5 18 -41.5t33 -44.5q8 -4 12 -10.5t6.5 -16t5.5 -14.5l58 -102l43 -80q167 -332 182 -362q-2 41 -2 124q0 210 21 412 q7 117 26 219q1 3 10 31.5t9 48.5q0 12 4 25t7.5 20.5t12 23t10.5 19.5q1 2 11.5 11.5t11.5 25.5q15 3 20 10t7 17.5t6 15.5q88 92 171 92h5q-9 -2 -33 -29t-43 -26q-20 0 -41 -18.5t-31 -40.5q-32 -69 -53 -170q-28 -147 -37 -291q-1 -9 -5.5 -28.5t-5 -28t6.5 -23.5 q6 -12 5.5 -18.5t-4 -18.5t-3.5 -18q-5 -6 -5.5 -13t1.5 -15.5t2 -12.5q-2 -61 -2 -183q0 -9 -6 -18.5t-5.5 -15.5t13.5 -13q0 -10 -7.5 -32t-9.5 -34.5t9 -31.5q6 -6 8.5 -18t2.5 -20.5t-0.5 -24t-0.5 -19.5l8 -123q1 -7 -19.5 -22.5t-41.5 -26.5l-21 -12l-75 153 q-4 8 -5 22t-7 25.5t-23 22.5q-12 7 -18 38.5t-23 43.5q-6 4 -10.5 12t-8.5 19t-6 16q-61 119 -139 262q-2 4 -8.5 9.5t-9.5 12.5t0 19q2 16 -2 21t-10.5 6t-8.5 4q-77 134 -145 241l-37 60l-27 39v-49q0 -29 -4 -99q0 -4 -4.5 -20.5t-1.5 -24.5q6 -22 6 -31.5t-3.5 -33 t-4.5 -33.5q-5 -90 -16 -199l-13 -121q-1 -5 -3.5 -20.5t-2.5 -21.5t2 -21q4 -12 4 -26.5t-2 -32t-2 -27.5q1 -8 5 -22.5t4 -21t-5 -20.5q-3 -13 -3 -17.5t5 -18t6 -17.5q6 -32 26 -68.5t46 -45.5q11 -6 35.5 3t42.5 23q16 14 20 9q5 -4 -24 -33t-69.5 -51.5t-80.5 -22.5 q-34 0 -61 18q-57 38 -57 187q0 22 6 133q1 6 5.5 19t5 21t-4.5 27q-3 8 10 31t4 37q-6 10 -7.5 23.5t1 24t6 27.5t4.5 27q40 291 41 301q1 11 8.5 59.5t12 92t4.5 80.5q0 21 -2 31q-7 9 -49 51q-22 19 -32.5 27t-32 17.5t-40.5 6.5q-26 -6 -43 -23q-11 -13 -16 -7z" />
<glyph unicode="O" horiz-adv-x="1216" d="M74 537q0 49 8 90q34 176 149 315q4 5 14 6.5t16.5 9t8.5 29.5q1 5 13 7.5t18 21.5q6 6 31 26q142 121 258 158q55 17 112 17q143 0 271 -103q6 -4 9 -17t9 -16q39 -21 60 -45q43 -53 65 -96q4 -6 7 -21.5t7.5 -25t12.5 -6.5q7 3 10.5 -8.5t1.5 -20.5q-4 -19 9 -42.5 t14 -27.5q26 -96 26 -184q0 -119 -43 -229.5t-127 -194.5q-157 -153 -284 -207q-69 -28 -146 -28q-162 0 -297 129q-4 4 -12 8.5t-15 11t-12 19.5q-15 37 -47 53q-16 8 -23.5 17.5t-11 22t-8.5 19.5q-104 152 -104 312zM197 616q0 -60 10 -104q1 -3 3.5 -12.5t3 -14 t0.5 -13.5t-3 -19q-4 -11 2 -19t27 -26q6 -6 11.5 -20t8.5 -19q33 -58 62 -93q43 -56 90 -100q5 -5 10.5 -15.5t14 -17.5t24.5 -10q8 -2 16 -7.5t16 -14t13 -11.5q5 -13 13.5 -18t19.5 -6.5t16 -3.5q89 -47 170 -47q111 0 201 90q6 6 17.5 15t20 20t15.5 28q2 6 7.5 10.5 t10.5 7t10 13t7 27.5q1 13 13 34t15 29q45 116 45 234q0 26 -2 51q-1 8 3.5 21t2.5 24t-16 26q-6 7 -4.5 33.5t-15.5 40.5q-4 4 -6 9.5t-4 13t-3 10.5q3 17 0.5 23t-14 16t-14.5 16q-82 144 -209 234q-5 3 -8 12.5t-10 15.5t-23 6q-16 -2 -41 12t-35 33q-4 8 -15 8t-26 -3 t-22 -2q-25 4 -48 4q-111 0 -200 -93q-85 -90 -132.5 -201.5t-47.5 -226.5z" />
<glyph unicode="P" horiz-adv-x="940" d="M96 1035q-5 4 6 14q15 13 68.5 47t110.5 63q142 73 268 78h20q79 0 154 -28q84 -32 143 -93q1 -1 5.5 -16t27.5 -23q7 -3 11.5 -9.5t7.5 -17t6 -14.5q34 -64 34 -147q0 -22 -8 -72q-1 -5 -8 -15t-8.5 -16t2.5 -18q4 -3 1.5 -11.5t-4.5 -13t-7.5 -13.5t-7.5 -13 q-67 -148 -215 -240t-312 -92q-80 0 -160 25q-4 -86 -4 -148q0 -74 9 -129q5 -35 15.5 -55t24.5 -17q-12 -8 -49 -41t-59 -40q-21 -7 -34 10.5t-19 54.5q-12 58 -12 142q0 18 1 38q0 7 2.5 17.5t3 17.5t-3.5 25q-4 12 -2.5 26.5t7.5 22.5q8 10 9 29t-1 36t-2 19 q3 41 28 276.5t25 362.5v18q-25 -12 -61 -39q-7 -7 -13 -1zM242 549h2q21 -15 45 -27q4 -2 9 -8t11.5 -8.5t18.5 0.5q6 2 10.5 -7l9 -18t10.5 -6q12 6 25 7.5t20.5 0.5t21 -4t19.5 -4q41 -6 80 -6q64 0 113 14q95 25 149 121q50 88 50 187v18q-4 107 -56 182.5t-135 116.5 q-5 2 -15 3.5t-18.5 7t-19.5 20.5q-5 7 -17 7.5t-27 -1t-22 -0.5q-7 14 -18 15.5t-27 -4t-24 -5.5q-88 0 -164 -23q0 -38 -4 -116q-6 -45 -4 -51q3 -23 3 -32.5t-5.5 -31.5t-6.5 -31t-5.5 -25.5t-5.5 -26t3 -28.5l-4 -30q-16 -143 -22 -207z" />
<glyph unicode="Q" horiz-adv-x="1236" d="M69.5 548.5q0.5 6.5 2.5 18.5t2 17q4 45 8 65q41 204 186 361q169 166 322 213q62 16 112 16q128 0 248 -86q6 -4 11.5 -21.5t15.5 -19.5q28 -5 39 -17.5t20 -15.5q22 -9 35.5 -24.5t25.5 -43.5t15 -32q0 -8 -1 -23t-0.5 -21t4 -12.5t11.5 -9.5q11 -4 17.5 -9.5t8 -9 t3 -11t2.5 -9.5q47 -121 47 -249q0 -73 -14 -136q-7 -29 -21 -73q-14 -39 -26 -64q-3 -6 -8 -18.5t-8.5 -20t-10 -16t-14.5 -14.5q-26 -18 -43.5 -45.5t-24.5 -34.5q-116 -112 -196 -162q-26 -18 -71.5 -51.5t-57.5 -42.5q-4 -3 -20 -8.5t-21 -12.5q-15 -25 -41 -41 q-16 4 -22 -0.5t-8.5 -13.5t-6.5 -12l-82 -54q25 5 61 5q39 0 70 -5q188 -21 207 -28q4 -1 12 -7t14 -9t17 -1t22 11q5 4 13.5 4t19 -2t14.5 -2q52 3 80 26q22 17 29 10q2 -5 -10 -16q-61 -57 -123 -85q-52 -22 -112 -22q-13 0 -27 1q-6 1 -18 -2t-21 -0.5t-17 14.5 q-5 7 -31 1.5t-34 0.5q-12 11 -22 12.5t-21 -2t-17 -2.5q-54 9 -71 10q-80 11 -109 11q-35 0 -59 -9q-37 -12 -60 -26q-18 -13 -22 -7q-1 1 0 3q4 7 28.5 27t28.5 22q36 28 70 43l18 8l99 68l149 108l21 17q-53 -15 -103 -15q-162 0 -297 129q-133 127 -190 262 q12 25 -8 54.5t-21 36.5q-2 6 -2 30.5t-10 40.5q-4 6 -5.5 14t-1 14.5zM195 637q0 -87 30 -170q3 -7 7 -27t10 -32t18 -17q19 -9 27 -22.5t12.5 -30.5t11.5 -27q30 -42 88 -100q4 -4 14.5 -16t18.5 -18.5t17 -10.5q38 -14 56.5 -26.5t31.5 -35.5q6 -11 20 -19t25 -11 t32.5 -8t28.5 -7q45 -10 80 -10q77 0 143 41l17 10l2 2q4 4 6 4l33 31q78 78 120.5 190.5t42.5 231.5q0 95 -32 193q-3 9 -2.5 30.5t-7.5 36.5t-33 25q-7 2 -15.5 26t-11.5 27q-16 14 -28.5 31t-20.5 26q-118 142 -246 191q-5 2 -10.5 8.5t-9.5 10.5t-13.5 4t-23.5 -7 q-5 -7 -32 -0.5t-34 6.5q-104 -3 -188 -90q-88 -91 -139 -215q-17 -20 -20.5 -32.5t1.5 -24.5q5 -25 -6 -48.5t-12 -29.5q-8 -62 -8 -90z" />
<glyph unicode="R" horiz-adv-x="1024" d="M104.5 1018.5q0.5 5.5 6.5 9.5q49 35 65 43q16 9 56 31t59 32t57.5 27.5t68.5 27t74.5 20t92.5 16.5q36 4 59 4q124 0 211 -43q3 -2 5 -14t20 -13q4 -4 20.5 -8.5t20.5 -9.5q51 -51 51 -127q0 -93 -94 -180q-5 -4 -13 -12.5t-15.5 -14.5t-14.5 -10q-17 -7 -34 -22 t-20 -17q-5 -3 -21.5 -5.5t-19.5 -9.5t-7.5 -12.5t-11 -9.5t-10 -6t-12 -5.5t-10.5 -4.5q-61 -29 -98 -43q83 -48 162 -218q3 -7 2.5 -15.5t3 -14t16.5 -11.5q5 -13 12 -32.5t14.5 -43t10.5 -32.5q1 -2 2 -6q9 -24 6 -31q0 -1 -1 -3l-9 -24q-3 -12 4.5 -17t20 -9t16.5 -12 q41 -74 102 -106q40 -21 80 -21q21 0 43 6q-11 -16 -39 -38t-51 -30q-42 -14 -65 -14q-9 0 -15 2q-6 3 -22.5 6.5t-24.5 7.5q-4 2 -9 12t-9 13t-18.5 9t-20.5 13q-35 42 -56 93t-44 123.5t-50 129.5q-2 4 -2.5 13t-4 16t-13.5 12q1 15 -3.5 24.5t-11 13t-12 8t-6.5 10.5 q-2 33 -11.5 46t-27 17t-24.5 10q-51 41 -103 52q-70 -12 -139 -15q7 2 28 23.5t45 41.5t42 21q13 1 58 2.5t62 2.5t55 6.5t61.5 14t55.5 24.5t62 38q39 29 61.5 73t22.5 89q0 39 -21 80q-59 113 -229 127q-7 1 -28 5.5t-33 4t-13 -9.5q-2 0 -19.5 -4t-23.5 -3.5t-22 5.5 q-13 4 -19 2t-18.5 -9.5t-20.5 -9.5q-61 -15 -120 -36q-2 -118 -17 -297q-1 -8 -12.5 -25t-3.5 -31t9 -32t-3 -45t-4 -33l-8 -113q-11 -170 -11 -213q0 -101 17 -162q12 -43 53 -61q-25 -15 -53 -43q-43 -43 -66 -43h-4q-35 6 -51 59q-8 24 -8 44q0 17 6 32q7 17 -5 48 t-12 46q11 14 12 24t-4 19t-5 15q2 51 10 149q3 61 20 263t17 315l-2 24l-33 -20q-8 -4 -12.5 -2.5t-4 7z" />
<glyph unicode="S" horiz-adv-x="851" d="M4 133q0 1 2 4t8 6t13 2q13 -2 34 19q44 38 58 38q3 0 4 -1q20 -20 29 -41q2 -4 14 -4.5t16 -3.5q64 -42 147.5 -70.5t157.5 -28.5q5 0 13.5 -5.5t13.5 -7.5t14 5q4 5 13.5 9.5t22 8t16.5 5.5q11 -2 18 1.5t14 10.5t11 10q69 48 82 148q2 14 2 28q0 96 -89 185 q-2 2 -12 14t-19.5 19.5t-23.5 13.5q-12 5 -28.5 18.5t-20.5 15.5q-40 27 -121 75.5t-112 70.5q-5 4 -11.5 18.5t-19 23t-37.5 7.5q-6 4 -9.5 14t-12 16.5t-31.5 8.5q-8 1 -13.5 23t-13.5 22q-14 0 -26 21t-17 45q-3 14 -3 28q0 86 116 178q60 47 139 74t158 27 q74 0 139 -23q26 -9 35 -14q7 -3 14 -15.5t17 -11.5q15 1 24 -3t18.5 -14.5t10.5 -10.5q20 -15 30 -35q3 -5 1 -6.5t-11 -1.5q-5 0 -9 -0.5t-9 -1.5q-9 -2 -20.5 -9t-18 -12.5t-18 -16t-13.5 -12.5q-4 -9 -14 -32t-15.5 -38.5t-5.5 -23.5q0 -20 -11 -21q-10 1 -11 17 q0 10 37 92q-78 81 -232 103q-13 2 -22 0.5t-21 0.5t-22 11q-25 21 -49 -12q-13 4 -16.5 3t-7.5 -7t-7 -7q-43 -16 -69.5 -45.5t-26.5 -70.5q0 -28 12 -58q11 -24 32 -49t39.5 -42.5t57.5 -44t57.5 -38t67.5 -41.5q3 -2 10.5 -6t11.5 -7t9.5 -7.5t8 -9t3.5 -9.5 q1 -15 9 -16.5t19 2t15 0.5l45 -31q86 -60 127 -106q64 -70 76 -142q2 -9 -6 -15.5t-9 -14.5q0 -5 6 -22t9 -28t-2 -18q-11 -6 -13 -11.5t0.5 -11t1.5 -8.5q-47 -119 -204 -208q-80 -45 -199 -45q-22 0 -72 4q-7 1 -15 9t-15 9q-19 3 -35 0h-6q-24 0 -62 14q-75 28 -133 76 q-22 22 -25 23q-14 5 -14 18z" />
<glyph unicode="T" horiz-adv-x="704" d="M8.5 1024.5q-5.5 2.5 1.5 17.5q35 67 142 97q5 1 12 -1t15 -0.5t18 11.5q5 5 14.5 7t17.5 1t17 0q37 4 106 4q86 0 129 -2q9 0 22.5 -4t22.5 -5q12 -9 17.5 -7t13.5 7.5t12 6.5q44 0 64 -2q78 -4 92 -5q30 0 51 3.5t28 6t19.5 10t14.5 8.5q8 4 15 1q5 -2 -3 -10 q-61 -61 -129 -82q-38 -13 -47 -4q-14 10 -18 7.5t-9.5 -10.5t-11.5 -9q-19 -2 -119 -2h-22q0 -13 -5 -76q-1 -4 -13.5 -13.5t-4.5 -18.5q14 -19 14 -33l-12 -133q-1 -6 -4.5 -16.5t-3.5 -16.5t4 -21q9 -21 -4 -41q-6 -9 -6.5 -17.5t1.5 -18t1 -15.5l-15 -172l-8 -90 q-1 -5 -10 -11.5t-11 -9.5t9 -10q8 -4 8 -41q0 -7 -3 -20t-3 -23.5t6 -19.5q2 -2 2 -5.5t-1 -8.5t-1 -7q3 -72 23 -116q16 -42 49 -45q-17 -5 -45 -37l-5 -5q-41 -41 -61 -42h-4q-28 0 -47 28q-11 14 -18 41q-1 4 2 12.5t6 16t2 14t-10 8.5q-4 1 -6.5 3t-4 6t-2.5 7.5 t-1.5 9.5t-0.5 9v10v9q-1 16 -1 35q0 78 14 196q8 111 14 168q1 6 8.5 18.5t8.5 19t-11 19.5q1 7 7.5 16.5t8.5 15.5t-4 24q-8 13 -2 59q19 199 21 324v18q-94 4 -139 4q-189 -10 -213 -43q-9 -12 -14.5 -9.5z" />
<glyph unicode="U" horiz-adv-x="1110" d="M109 1092q-1 4 8 12q32 27 86 55q43 25 74 26q22 0 38 -14q21 -21 27 -63q1 -6 1 -12q0 -26 -11 -56q-5 -11 2.5 -16.5t7.5 -9.5t-1 -17.5t-1 -17.5q-3 -44 -22.5 -208.5t-20.5 -254.5q-1 -20 -1 -40q0 -107 19 -183q2 -10 0 -16t1.5 -16t15.5 -21q3 -2 0 -9t-7 -13 t-1 -13.5t16 -11.5q7 -2 13.5 -6.5t9 -6.5t9 -10.5t7.5 -9.5q49 -59 125 -76q26 -6 51 -6q34 0 66 11q55 19 96 63t70 95t51 111q2 21 22 142q1 8 6 15t6 11q0 2 -2 18.5t-1.5 38t8.5 40.5q4 7 5 17t0.5 24t0.5 22l6 43q1 5 6 18t6.5 20.5t-2.5 18.5q-9 15 -10.5 25 t2.5 21.5t4 15.5q12 147 12 200q0 20 -2 27q-5 18 -19 29t-26 2q14 21 35 39q47 41 70 47q22 6 36.5 -10t22.5 -49q8 -39 8 -109q0 -4 -6.5 -14t-8.5 -17t7 -18q4 -3 5 -10t-1 -17.5t-2 -13.5q-7 -100 -29 -238l-24 -168q-1 -8 -7.5 -23.5t-7.5 -24t3 -27.5q4 -17 2.5 -25.5 t-7 -27t-6.5 -27.5q-4 -32 -4 -68q0 -148 51 -199q19 -18 44 -18q27 0 61 21q17 10 17 4q1 -4 -11 -15q-24 -21 -86 -59q-55 -33 -93 -33q-29 0 -50 19q-50 45 -50 186v33q-88 -126 -227 -203q-90 -49 -172 -49q-108 0 -174 88q-27 38 -45 78q-3 6 -18 51q-2 8 0 15t0 15.5 t-11 14.5q9 10 10 19.5t-4 15.5t-10 14.5t-6 15.5q-4 54 -4 80q0 54 5.5 113t16 137t13.5 103q2 6 4 34q0 3 5 13t8.5 18.5t0.5 11.5q-6 6 -7.5 10.5t-1 7.5t2 8t2.5 9q8 11 8.5 19t-2.5 15t-2 13q2 23 2 66q0 99 -28 121q-11 10 -27 10q-18 0 -41 -14q-16 -10 -18 -2z" />
<glyph unicode="V" horiz-adv-x="940" d="M-2 1079q-16 -2 7 20q20 20 50 36q41 23 66 23q13 0 22 -7q28 -22 47 -61q1 -3 -0.5 -9.5t-3.5 -12.5t1.5 -12t13.5 -9q4 -1 8 -7.5t6 -13t4.5 -16t3.5 -11.5q5 -15 12 -34.5t11 -34.5q25 -82 39 -139q1 -2 -2 -25t8 -33q6 -7 9.5 -12t5.5 -9.5t2.5 -7t2 -9t2.5 -11.5 l49 -188q1 -4 -1 -9.5t-4 -9.5t1 -9t13 -11q4 -3 6 -9t3.5 -15t2.5 -13q38 -129 66 -203q31 -86 53 -115q17 -22 28 -26q91 118 129 198q2 4 16.5 25t14.5 33q0 27 5 43.5t15 33t13 23.5q31 79 50 135t36.5 135.5t17.5 145.5q0 64 -14 119q-1 4 1.5 11.5t4 13t-3 11.5 t-18.5 9q-4 1 -7 6.5t-5.5 13.5t-4.5 12q-24 39 -59 52q-16 6 -35 6q-22 0 -47 -8q-46 -16 -59 -29q-4 -4 -9.5 -5.5t-5.5 1.5t8 12q39 42 91 72q63 38 112 38q9 0 17 -1q45 -6 71 -29q11 -8 27 -29q-11 -25 -4 -30.5t22 0.5q29 -65 29 -156q0 -72 -14 -137 q-13 -80 -47 -180q0 -1 -9.5 -14t-9.5 -34q-28 -8 -22 -53q1 -20 0.5 -24t-6.5 -9t-9 -10q-47 -107 -112 -219q-55 -90 -108.5 -151.5t-125.5 -100.5q-9 -5 -19 -5q-46 0 -96 110q-2 5 3.5 16t3.5 16q-3 7 -19.5 21.5t-19.5 21.5q-54 140 -95 310q-1 5 -7.5 17.5t-6.5 19.5 t6 26q4 7 -14 25q-9 9 -12 31.5t-4 25.5q-66 232 -76 262q-53 176 -118 176h-3z" />
<glyph unicode="W" horiz-adv-x="1392" d="M4 1083q6 4 16 12t24.5 20.5t23.5 19.5q30 21 41 26q13 4 26 5q41 0 76 -48q3 -4 8 -24t23 -33q-7 -18 -5 -23.5t11.5 -14.5t11.5 -15l25 -82l18 -78q1 -4 6 -12t4.5 -18.5t-8.5 -31.5q-3 -8 7.5 -20t11.5 -18q17 -91 26 -130l10 -49q1 -6 -1.5 -18t-0.5 -22t15 -17 q11 -7 11 -27t-7 -34q-5 -20 -2 -29t14 -26.5t14 -28.5q39 -159 76 -224q27 -45 47 -57q19 -12 43 16q155 225 168 498q-2 16 -9.5 90.5t-12.5 110.5q-1 8 7 25t1 22q-21 19 -25 47q-12 60 -26 94q-20 47 -52 47h-4q5 3 25.5 22t34.5 29q31 23 45 25h6q36 0 61 -63 q2 -4 0 -11t-4 -13t2 -12.5t17 -11.5q9 -4 11.5 -15t1.5 -23t1 -25l6 -47q3 -29 6.5 -66.5t6 -62t4.5 -35.5q6 -45 13 -134t9 -112q0 -5 3 -21t2 -27t-9 -27q-3 -6 9 -23.5t10 -24.5q-4 -25 -4 -31t5.5 -11.5t6.5 -10.5q20 -101 57 -174q1 -2 7 -12.5t9 -15t9 -12.5 t12.5 -12.5t13.5 -6.5q18 -9 47 20q44 51 78 109q4 6 11.5 12t12.5 16t9 33q5 27 17.5 45t13.5 21q53 127 82 254q1 8 8.5 15.5t9 14.5t-3.5 35q-4 12 3 36t7 28q8 64 8 120q0 28 -2 54q-8 124 -69 182q-3 3 -2.5 15.5t-3.5 13.5q-6 5 -18.5 0.5t-18.5 -2.5q-24 7 -51 3 t-37 -18q-9 -13 -21 -4q-6 4 -2 10q31 49 88 81q37 21 75 22q20 0 40 -6q85 -25 112 -133q1 -6 -1.5 -14.5t-0.5 -18t13 -23.5t11 -29q0 -19 -17 -40q-6 -7 2 -24t8 -23q-4 -56 -8 -82q0 -3 -9.5 -25t-9.5 -35q0 -38 -8 -71q-19 -91 -63 -201q-2 -5 -8 -10.5t-9.5 -13 t-1.5 -21.5q2 -11 -2.5 -22.5t-14 -24.5t-12.5 -19q-17 -37 -32 -63q-111 -204 -242 -289q-32 -22 -61 -22q-12 0 -25 4q-18 6 -35 26q-3 3 -13.5 11t-16 17.5t-5.5 26.5q5 30 2.5 36t-11.5 11t-11 13q-32 107 -49 283q-54 -167 -140 -308q-32 -51 -78 -79q-39 -24 -76 -24 q-7 0 -13 1q-63 9 -105 123q-20 49 -35 106q-1 2 -3 33t-19 49q-6 7 -9 17t-4 23.5t-2 19.5q-23 104 -53 272q-1 6 1 17t0.5 20t-11.5 18q-1 5 3 17t5.5 19.5t-2.5 12.5q-10 5 -15.5 11t-6.5 10t-2.5 15t-2.5 18q-38 188 -94 256q-29 35 -64 35q-13 0 -26 -5z" />
<glyph unicode="X" horiz-adv-x="880" d="M19 1108q-5 4 6 14q94 86 153 86q47 0 88 -41q80 -77 150 -211q2 -3 5 -20t15 -23q11 -7 6.5 -17t0 -24t24.5 -20q12 -4 18 -16t9.5 -31t7.5 -27q10 -26 33 -73q82 95 147 182q38 53 56.5 80t38.5 80q15 41 15 76l-1 22q0 18 53 43q8 5 19.5 10.5t19.5 9.5t15.5 8 t11.5 6.5t3 4.5q2 -10 2 -21q1 -32 -13 -69q-18 -49 -36.5 -78t-52.5 -76q-5 -8 -18.5 -16.5t-22 -20t-10.5 -31.5q-3 -27 -47 -45q-21 -7 -22 -25t-3 -20l-39 -45l-98 -114l-2 -2l65 -150q2 -4 21.5 -36t17.5 -50q-2 -21 23 -51.5t22 -46.5q-3 -17 2.5 -29t16 -23t14.5 -18 l24 -48t33 -62.5t31 -45.5q6 -8 17 -14t25.5 -8.5t25.5 10.5q16 19 24 9q4 -8 -4 -21q-21 -37 -55.5 -62.5t-69.5 -25.5q-42 0 -67 37q-34 46 -58 90q-2 5 -1 17.5t2 20t-5 11.5q-15 5 -22.5 9.5t-9.5 7.5t-3.5 9t-3.5 9q-4 7 -13 23t-14.5 28.5t-6.5 24.5q-2 17 -6 27 t-10 17t-9 13q-2 3 -6.5 30.5t-11.5 32.5q-17 11 -21.5 18t-4.5 15.5t-3 16.5q-32 66 -51 112l-45 -53q-28 -38 -54 -49q-26 -13 -31.5 -38.5t-9.5 -31.5t-8 -17t-9 -17.5t-15 -8.5q-13 -3 -19.5 -13t-10.5 -24.5t-7 -19.5q-88 -135 -88 -228v-10q0 -19 -47 -43 q-10 -5 -31 -14t-31.5 -14.5t-13.5 -10.5v10q0 52 27 117q2 4 7.5 12t9 15.5t3.5 13.5q0 15 24.5 36.5t30.5 47.5q4 18 27 49q28 41 62.5 83.5t54.5 66t67.5 76.5t63.5 71l26 31l-28 68q-2 6 -17.5 30.5t-15.5 40.5q0 17 -4.5 26.5t-13 17.5t-11.5 14q-41 83 -73 137 q-22 37 -58 90q-1 2 -7 8.5t-7.5 11.5t-5.5 19q-4 15 -11.5 20.5t-17 7t-12.5 3.5q1 16 -2.5 19t-10.5 0t-10 -1q-20 14 -44.5 14t-53.5 -14q-14 -8 -20 -2z" />
<glyph unicode="Y" horiz-adv-x="888" d="M-20 1090.5q-4 3.5 2 9.5q67 74 122 74q47 0 93 -52q92 -104 186 -299q2 -3 3.5 -5.5t2.5 -3.5t2 -3.5t1.5 -6.5t1.5 -10.5t1 -17.5q0 -35 25 -49q11 -6 15.5 -13t6 -15.5t4.5 -12.5q8 -17 25 -50.5t28 -58.5t17 -49q117 110 176 195q3 5 12 8.5t14 11t3 23.5q-1 8 4 16 t13 17.5t12 15.5q34 69 41 117q2 9 -5 36.5t2 32.5q9 16 8.5 20t-9.5 8.5t-11 8.5q-8 22 -35 49q-22 22 -46.5 36t-53 17.5t-51.5 -14.5l-16 -11q-17 -11 -32 -19.5t-18 -5.5q-3 5 23.5 27.5t32.5 25.5q105 72 163 78q12 2 28.5 -1.5t21.5 -11.5q8 -13 13.5 -15.5t8 1.5 t6.5 7.5t8 0.5q22 -13 39 -33q12 -12 23 -34q8 -16 16 -52q-10 -8 -4.5 -42t4.5 -44q-6 -36 -20 -69q-57 -123 -164 -246q-7 -7 -13.5 -3t-13.5 1t-10 -21q-1 -8 -5.5 -17t-9.5 -16t-14.5 -17t-14.5 -15t-16.5 -15t-13.5 -12l-59 -57l-31 -29v-16q-8 -135 -8 -183v-10 q0 -6 3 -15.5t3.5 -15.5t-4.5 -24q-4 -8 3 -25t7 -20q-8 -10 -9.5 -19t1.5 -14l7.5 -12.5t6.5 -11.5q20 -66 66 -72q-12 -18 -43 -43q-30 -26 -51 -23q-26 3 -43 27q-4 5 -9 23t-14 24q-9 5 -11.5 15t-1 26.5t0.5 22.5q-6 53 -6 108q0 52 6 127q2 41 2 68.5t-2 42.5 q-1 8 -12 32.5t-8 41.5q0 1 2.5 7.5t2.5 10t-4.5 8t-15.5 8.5q-6 14 -45 90q-12 24 -80 146q-20 32 -20 57q-1 23 -8.5 30.5t-18 9t-14.5 7.5q2 17 -5.5 29.5t-21 25.5t-18.5 21q-26 42 -66 82q-35 35 -59.5 40t-44.5 -15q-6 -5 -10 -1.5z" />
<glyph unicode="Z" horiz-adv-x="854" d="M-71 -13q0 4 3 7q38 47 74 76q39 112 189 329q4 5 11.5 9.5t13.5 13.5t11 29q3 9 9 17.5t15 18.5t13 15q18 25 54 71q-63 0 -187 9q6 3 27 24.5t43.5 37t40.5 13.5q90 -4 141 -4l145 164q3 4 12.5 8t15 10.5t5.5 20.5q6 6 20 16t23 21t13 27q3 13 8.5 19.5t13 10.5 t10.5 8l82 101q-16 -2 -55 -2q-45 1 -126 10.5t-105 11.5q-65 5 -107 5q-21 0 -37 -1q-75 -8 -153 -59q-10 -8 -12 -4q-2 3 5 10q43 43 78.5 68t89.5 45q51 16 74 20q5 1 12 -3.5t13.5 -4t15.5 11.5q18 -11 22.5 -10.5t8.5 6.5t8 6q88 0 225 -18q93 -10 109 -10q74 0 117 43 q14 14 18 6q1 -6 -4 -12q-28 -42 -64 -68q-51 -63 -215 -254q-5 -6 -22 -12.5t-27 -15t-6 -23.5q2 -7 -1 -14.5t-7 -12t-12 -12.5t-11 -12l-45 -54q-11 -15 -41 -49q12 0 38 -1t40 -1q89 0 133 29q13 9 13.5 5t-11.5 -15q-7 -6 -19 -19t-22.5 -21.5t-23.5 -13.5 q-71 -34 -211 -41q-116 -139 -195 -260q-5 -7 -18.5 -11.5t-21.5 -7.5t-3 -9q8 -11 8 -25q-1 -12 -8 -26t-16.5 -28t-11.5 -18q-14 -25 -21 -53q64 21 135 21q20 0 60 -4q6 -1 16.5 -1.5t15.5 -1t12.5 -3.5t14 -10t14.5 -19q9 -8 19.5 -4.5t27 10t23.5 4.5q4 -1 16.5 -7 t32.5 -9q10 -2 33 -7.5t36 -8.5t32.5 -5.5t35.5 -1.5q100 3 140 55q9 11 13 8t-1 -14q-21 -45 -57 -74q-43 -35 -109 -51q-4 -1 -25.5 6t-37.5 -8q-6 10 -14 12t-14 -2t-13.5 -8t-10.5 -4q-40 0 -67 4q-50 10 -92.5 23t-96.5 22q-13 2 -41 7.5t-42 7.5t-42 4t-41 -4l-34 -11 q-53 -40 -69 -40q-4 0 -6 2q-1 1 -1 4v2q-32 -18 -51 -37q-13 -13 -14 -5z" />
<glyph unicode="[" horiz-adv-x="522" d="M96 -309q-6 10 1.5 30t6.5 33l9 352q1 2 3 4.5t5.5 10.5t4.5 15.5t-1 16.5t-10 15q14 22 14 61q0 38 -10 58q-7 19 -6.5 42.5t4.5 42.5l4 19l14 535l4 200l24 22q17 20 -3 19q-11 4 -16 10t-4 9l1 4q0 9 4 44t2 54q-1 7 -4.5 16.5t-5.5 16.5t0 10q9 16 45 0 q11 -4 27.5 -4.5t44 1t43.5 1.5q11 0 24 -5t21.5 -7t30.5 4q11 4 23.5 4t27 -2t20.5 -2q48 0 48 -8t-121 -8q-19 0 -57.5 1t-55.5 1l-6 -250q-2 -1 -3.5 -5t-3.5 -19t5 -38q7 -15 -3.5 -70.5t-4.5 -88.5q6 -16 6 -47t-3 -53l-3 -23l-15 -539q-1 -2 -3 -6.5t-5.5 -17 t-5.5 -25t0 -30.5t8 -34q5 -15 5 -43.5t-2 -49.5l-3 -21l-6 -230q150 17 215 17q8 0 12 -3t4 -6t-1 -7l-1 -5q0 -1 -58 -5t-131.5 -12t-104.5 -18q-19 -5 -36.5 0t-17.5 13z" />
<glyph unicode="\" horiz-adv-x="413" d="M-129.5 1196.5q-1.5 2.5 0.5 7.5q5 3 6.5 2.5t8 -5.5t10.5 -7q10 -6 38 -18q41 -18 50 -39l24 -62q1 -2 8 -12.5t7 -24.5q0 -6 8.5 -19t7.5 -22q-2 -12 -1.5 -17.5t2 -7.5t3.5 -2h4.5t3.5 -3l86 -222q4 -10 13 -19t14.5 -23.5t7.5 -43.5q2 -24 7.5 -37.5t14 -23 t11.5 -18.5l80 -201q4 -9 15.5 -32.5t17 -40.5t4.5 -34q-1 -22 7 -37.5t20 -30t16 -26.5q27 -73 38 -100q5 -13 13.5 -29.5t12 -25.5t1.5 -13q-9 -21 -45 -2q-40 17 -49 39q-13 33 -50 124t-57 142q-3 9 -1.5 15t-2 14.5t-14.5 17.5q-9 7 -10 28.5t-4 27.5q-2 6 -15 22 t-12 25q2 26 0 31t-9 8t-9 8l-228 569q-3 8 -1 17t0.5 17t-9.5 9q-7 1 -18 29l-13 31q-1 3 -6 7.5t-6.5 7z" />
<glyph unicode="]" horiz-adv-x="446" d="M12 1278q0 8 47 8q18 0 76 4t90 4h60q34 0 73 -10q6 -2 6.5 -29.5t-2 -74t-2.5 -62.5q0 -4 -11 -11t-14 -12t11 -16q15 -9 17.5 -34.5t-3 -50.5t-14.5 -46q-11 -29 -8 -37t11.5 -19t8.5 -22l-12 -446q-1 -11 1.5 -30.5t-0.5 -39.5t-15 -51q-10 -16 -1 -44.5t9 -35.5 q-1 -47 0.5 -145.5t1.5 -126.5q0 -98 -6 -129q-6 -20 -6 -30.5t3 -17.5t3 -14q0 -11 5 -29t5 -31.5t-10 -23.5q-26 -22 -55 -22q-35 0 -98 3.5t-111.5 8t-48.5 6.5q0 17 24 21q34 6 82 6q55 0 98 -6q-1 49 2.5 136.5t3.5 117.5q0 45 -6 86q-7 65 -2 76q10 18 10 29t-5 20.5 t-5 17.5q9 21 9.5 35.5t-3.5 29t-4 23.5l6 232q1 16 15.5 60.5t3.5 70.5q-16 39 -16 71q0 14 3 38t3 36q4 200 4 303q0 126 -2 189q-74 -2 -153 3t-79 11z" />
<glyph unicode="^" horiz-adv-x="763" d="M104 709q-4 5 4.5 15t22 24.5t16.5 25.5t15.5 26t25.5 21q7 3 8 16.5t3 16.5q82 128 96 152q7 12 8.5 22.5t7.5 15.5q16 13 57.5 40.5t51.5 27.5h2l10 -12q10 -13 10 -27q-1 -16 16.5 -23t18.5 -8l84 -104q3 -3 4 -9t5 -11.5t16 -10.5t22.5 -17t9.5 -24q-1 -15 4 -20.5 t12.5 -7t10.5 -4.5q3 -4 11.5 -9t13 -12t4.5 -20q0 -5 -2 -8.5t-6.5 -7.5t-8.5 -7t-12 -8.5t-14 -9.5q-1 -1 -11 -10t-18 -15t-19.5 -11.5t-15.5 1.5q-3 11 -7.5 17t-11 10t-9.5 8l-74 94q-5 7 -7 24.5t-12 20.5q-24 7 -43 31l-55 67l-61 -98q-2 -3 -10.5 -4.5t-11 -5 t0.5 -21.5q-13 -2 -17.5 -9t-5 -18t-3.5 -16l-29 -45q-11 -16 -45 -35q-10 -5 -26 -14.5t-24 -13.5t-12 0z" />
<glyph unicode="_" horiz-adv-x="497" d="M0 -76h82q72 4 84 -4q11 -3 18.5 -2t11.5 4l3 2h299v-47h-60q-25 8 -43 0q-5 -3 -14.5 -3t-16.5 2l-6 1h-192q-39 0 -64 8q-6 2 -13 0.5t-12 -5.5l-5 -3h-72v47z" />
<glyph unicode="`" horiz-adv-x="509" d="M100 1083q0 1 7 5.5t20.5 14t24.5 17.5q7 5 16.5 14t14.5 13.5t13.5 8.5t12.5 -3q45 -45 94 -82q21 -15 29 -33q4 -11 11 -15t15.5 -4.5t12.5 -2.5q5 -2 14 -9.5t14 -9.5q1 0 -8 -8t-19 -16.5t-12 -9.5q-1 -1 -7 -6.5t-11 -9t-14 -7t-19 -4.5q-31 2 -78 31q-3 2 -10 6 t-11 6.5t-9 7t-7.5 10.5t-3.5 13q-2 18 -11 21.5t-18 -0.5t-16 1q-2 2 -10.5 9t-13 11t-10.5 10.5t-9 11.5t-2 9z" />
<glyph unicode="a" horiz-adv-x="587" d="M43 293q8 108 47.5 211.5t106.5 179.5l9 5q9 5 13 20q2 6 14.5 11t20.5 17t39 25q59 32 125 32q11 0 22 -1q62 -7 86 -45q2 -3 -2 -20t8 -21q14 -8 14 -42q0 -15 -3 -36q-1 -10 -5 -31.5t-10.5 -57.5t-11.5 -63q-1 -7 -8 -21.5t-7.5 -22t5.5 -25.5q3 -10 2.5 -15.5 t-4 -17.5t-4.5 -17q-8 -78 -8 -114q0 -82 20 -123q19 -39 51 -39q-4 -2 -11 -8.5t-19 -19t-17 -17.5q-37 -33 -55 -33q-30 0 -51 31l-8.5 8.5t-7.5 9t1 8.5q7 12 5.5 17t-8 13.5t-7.5 14.5q-4 23 -4 70q-34 -52 -76 -94q-95 -95 -150 -95q-17 0 -30 9q-46 28 -66 104 q-1 4 1 9.5t4 10t-1 10t-12 9.5q-5 3 -6 9t0 15t0 13q-4 37 -4 71q0 24 2 46zM139.5 319.5q-2.5 -8.5 7.5 -26.5q8 -10 11 -24.5t3.5 -34t0.5 -21.5q-5 -16 -4.5 -22t7 -17t7.5 -16q12 -44 30.5 -70.5t33.5 -19.5q41 22 85.5 102.5t73.5 177.5q18 95 27 168q1 7 6 18.5 t6 18.5t-6 25q-5 9 0.5 30t-0.5 25q-10 6 -7.5 23t1.5 20q-7 17 -14 22q-30 23 -64 23q-60 0 -100 -47q-65 -73 -80 -258q-4 -28 -4 -43q-1 -11 -9.5 -28t-11 -25.5z" />
<glyph unicode="b" horiz-adv-x="573" d="M33 1145q3 2 47 41q37 33 55 37q7 2 13 2q32 0 51 -45q13 -33 20 -95q1 -5 -3 -14.5t-3.5 -18t10.5 -14.5q4 -3 4 -8.5t-2 -13t-2 -10.5q0 -10 1 -21q0 -131 -23 -346q52 50 137 96q35 19 66 18q28 0 53 -14q3 -2 3 -10.5t3 -11t20 1.5q4 2 7.5 -1.5t6.5 -12t5 -11.5 q28 -53 28 -122v-13q-4 -209 -73 -332q-3 -6 -15.5 -8t-22 -8t-7.5 -21q2 -24 -27 -53q-154 -134 -231 -134q-27 0 -45 17q-62 59 -62 168q0 33 8 103l6 51q1 8 6 17t9.5 15.5t3.5 17t-10 22.5q-3 9 -2.5 14t4 16t4.5 15q1 9 5.5 25t5.5 24t-1 31q-2 25 -0.5 37t6.5 36.5 t6 36.5q20 152 20 263q0 19 -1 38q0 4 1 16.5t0 21.5t-5 20q-2 6 1.5 16t3 18.5t-11.5 14.5q-8 5 -9 23t-3 22q-17 44 -50 44q-5 0 -11 -1zM156 285.5q-2 -32.5 2 -45.5q3 -21 10 -47q2 -5 0 -13t-3 -13.5t4 -10.5t19 -6q7 -1 13 -14t8 -15q26 -33 57 -33q46 0 88 82 q46 101 62 197q1 5 5 13.5t4.5 13.5t-3.5 16q-4 12 -3.5 19.5t3 21t2.5 20.5q0 5 5 13.5t4.5 15.5t-11.5 12q-15 7 -17 18.5t1.5 26t1.5 21.5q-24 85 -70 98q-9 2 -17 2q-62 0 -128 -113l-19 -143q-2 -12 -7 -44t-7 -46t-4 -46.5z" />
<glyph unicode="c" horiz-adv-x="471" d="M41 274q0 4 8.5 25t-0.5 27q-6 9 -7 22t1 22.5t5.5 24t4.5 21.5q15 104 57.5 175t127.5 130q73 51 135 51q52 0 80 -41q7 -9 12 -39.5t16 -50.5q4 -4 4.5 -7.5t-2 -6.5t-5.5 -6t-9 -5.5t-11.5 -5t-12.5 -5.5t-11 -5l-53 -27l-33 -90q-4 -12 -8.5 -14t-7 3.5t-0.5 14.5 q3 12 15.5 41.5t21.5 44.5q-8 28 -21 58q-1 2 2 7.5t6.5 10t0 9t-16.5 6.5q-8 1 -25 18q-24 31 -49 31q-28 0 -47 -39q-26 -48 -41 -103q-1 -6 0 -11.5t-0.5 -11t-5.5 -7.5q-14 -6 -15.5 -13.5t3.5 -16t4 -13.5q-8 -66 -8 -101q0 -119 28 -202q1 -4 -2 -16t0 -18.5t19 -6.5 q8 0 12 -7.5t7 -18.5t7 -15q33 -41 80 -41q45 0 101 39q42 29 40 16q-4 -15 -36 -39q-126 -94 -217 -94q-46 0 -70 24q-52 49 -72 140q-3 11 -4.5 31t-5.5 40q-2 14 -2 45z" />
<glyph unicode="d" horiz-adv-x="618" d="M43 245.5q1 12.5 0 18.5q-2 28 -2 55q1 95 27 181q34 112 120 180q120 96 207 96q24 0 54 -10q6 82 6 168q0 3 4 23.5t2.5 36.5t-12.5 22q-8 4 -9.5 15t0.5 21t0 19q-10 41 -24 41q-11 0 24 32q15 14 31 25q38 27 55 21q24 -8 35 -53q8 -31 8 -74q0 -40 -4 -68 q0 -81 -6 -161q-1 -6 -7.5 -18t-7 -18.5t10.5 -19.5q5 -8 5 -13t-4 -17t-5 -17l-8 -110q-1 -6 -6.5 -50.5t-11 -88.5t-11 -106.5t-6.5 -111.5q0 -5 -4 -14t-4 -17t8 -16q4 -4 4 -8.5t-2 -11t-2 -9.5q0 -54 12 -88q14 -34 33 -37q-7 -4 -23.5 -21t-23.5 -24q-33 -33 -57 -33 q-3 0 -7 1q-29 6 -39 63q-8 33 -8 88q-20 -25 -55 -53q-100 -84 -153 -84h-5q-67 5 -104 109q-1 4 3 11.5t2 15t-17 14.5q-8 4 -5 26t-10 33q-6 5 -7.5 14.5t-0.5 22zM140 402.5q2 -7.5 12 -13.5q6 -4 6 -11.5t-2.5 -18.5t-1.5 -17q7 -72 22 -117q5 -17 13 -36t19.5 -41 t25 -37t28.5 -23.5t32.5 -2t33.5 29.5q50 70 73 155q10 66 10 91q0 8 -1 12q-2 14 -1.5 19.5t3.5 14.5t4 13q1 6 5.5 17.5t5.5 16.5t-5 15q-9 9 -9.5 20.5t3.5 21t9 19.5t5 13l6 78q-4 0 -4 2q-47 51 -94 67q-29 10 -51.5 10t-38.5 -10q-32 -21 -55 -82q-31 -92 -39 -168 q-1 -5 -5.5 -12t-7.5 -12.5t-1 -13z" />
<glyph unicode="e" horiz-adv-x="514" d="M43 285q0 56 10 121q1 8 9.5 20.5t10.5 19.5t-5 23q-6 5 -3 16.5t7 19.5t11.5 20t10.5 18q14 36 37 65q73 103 182 154q28 14 62 14q55 0 85 -40q21 -27 21 -65q0 -18 -4 -38q-9 -33 -24 -39q-13 -8 -12 -13.5t5.5 -13.5t2.5 -12q-49 -100 -158 -178q-4 -3 -13.5 -11.5 t-17.5 -13.5t-16 -6q-16 -2 -27 -12t-12 -10q-9 -5 -19.5 -10.5t-23 -11.5t-19.5 -9q7 -14 17 -19q13 -7 16 -26.5t-4 -34.5q-2 -12 -1.5 -15.5t6 -9.5t7.5 -10q17 -39 46.5 -66.5t66.5 -27.5q34 0 68 22q19 12 86 70q14 7 19 3q2 -3 -7 -11q-16 -15 -32.5 -30t-42.5 -36 t-50 -37.5t-53 -32t-54.5 -23t-51.5 -6.5t-46 13q-2 1 -8 18.5t-27 18.5q-8 1 -12.5 9.5t-8 23t-5.5 20.5q-29 77 -29 179zM143 322l13 6q106 46 163 116q3 4 12.5 11t15 13t3.5 11q-6 17 5 43t12 35q1 15 1 28q0 73 -42 101q-22 16 -41.5 13t-34 -12t-27 -31t-21 -42.5 t-15.5 -47.5t-10.5 -46.5t-6.5 -38.5q-8 -53 -10 -84q0 -3 0.5 -9t1 -10.5t-0.5 -9.5t-3 -8q-12 -17 -15 -38z" />
<glyph unicode="f" horiz-adv-x="534" d="M-66.5 -545q-1.5 5 9.5 13q45 37 80 94q2 3 9.5 12.5t11 18t1.5 18.5q-2 8 8 22.5t8 30.5q-2 18 6.5 34t8.5 17q14 54 30 166q23 183 31 330q1 9 8.5 28t8 29t-12.5 31q-9 10 1 38.5t1 41.5q-7 10 -7 24.5t3.5 33t3.5 28.5v160q-34 1 -155 12q3 0 6.5 2t6 4.5t7 6.5t7 7 t8 9.5t8.5 9.5q39 39 59 39h2l58 -4q4 46 8 73l12 62q0 2 12 19.5t4 39.5q-4 8 0 18.5t12 24t11 19.5q38 84 104 153q34 34 70 54q31 21 39 16q43 -49 47 -55l18 -29q-10 -18 0 -25l11 -5q10 -4 12 -9q22 -49 22 -96q0 -35 -10 -58q-2 -6 -5 -10.5t-8 -8.5t-7.5 -5.5 t-9.5 -6t-9 -5.5q-1 0 -6 -4q-37 -20 -37 -17q11 29 11 58q0 12 -2 24q-1 6 -10.5 13t-12.5 13.5t4 28.5q4 8 0 15.5t-12.5 16.5t-11.5 13q-16 25 -52 70q-91 -141 -94 -365q0 -6 -1 -17.5t-1 -16.5h125q112 0 158 26q15 7 16.5 5t-10.5 -13q-42 -34 -78 -55 q-40 -20 -49 -23q-6 -2 -13 5t-12 8.5t-20 -13.5t-51 -20q-35 -6 -66 -6q-3 -218 -14 -390q-6 -93 -15 -196q0 -1 -11 -20t-1 -27q6 -6 8 -12t1 -10.5t-3.5 -14t-3.5 -16.5q-25 -162 -86.5 -284t-183.5 -194q-14 -9 -15.5 -4z" />
<glyph unicode="g" horiz-adv-x="600" d="M38.5 232q-0.5 10 2 24t2.5 20t6.5 17t7 17.5t-11.5 21.5q-4 8 -4 12.5t3.5 15l4.5 13.5q20 150 92 239q23 28 48 53.5t61 55.5t69 46.5t73 26.5q15 3 29 3q22 0 42 -9q72 -25 72 -280q0 -54 -3 -109q0 -4 0.5 -13.5t1 -15.5t-1.5 -13.5t-6 -12.5q-9 -15 -8.5 -22.5 t5 -19t3.5 -17.5q-7 -96 -12 -142q0 -5 1.5 -18t0.5 -22t-6 -15q-14 -16 -15.5 -26.5t3.5 -20.5t4 -18q-14 -127 -29 -209q-5 -38 -22 -80q-3 -6 -10 -19t-9 -20q-4 -17 -9.5 -24.5t-12 -10.5t-9.5 -8q-55 -69 -134.5 -110.5t-125.5 -43.5q-33 -3 -43 11q-7 10 13 13 q6 1 14 1h8q52 0 107 47q4 3 11 3.5t12.5 7t10.5 24.5q2 6 12.5 9.5t18 11.5t4.5 28q-1 11 11.5 26.5t13.5 18.5q7 15 13 29t11 31.5t7.5 27.5t6.5 31.5t5 28t5 33.5t5 32q10 118 12 186q0 24 9 121q-67 -118 -148 -182q-27 -20 -65 -36.5t-60 -8.5q-51 17 -76 129 q-3 16 0 30t0.5 32t-14.5 32q-6 7 -6.5 17zM156 371q0 -110 4 -144q1 -5 9 -25t3 -28q-5 -15 -0.5 -21.5t13.5 -15.5t10 -16q1 -12 4 -18t10.5 -10.5t9.5 -6.5q14 -13 29 -13q45 0 98 119q71 157 84 242l6 29q6 65 6 117q-2 57 -20.5 90t-69.5 41q-11 2 -21 2 q-67 0 -114 -74q-2 -4 -7 -21t-13 -20q-16 -7 -19.5 -16t-1 -21.5t1.5 -17.5q-17 -66 -22 -172z" />
<glyph unicode="h" horiz-adv-x="600" d="M68 113q0 15 1 37.5t1 27.5q3 112 20 262q1 10 6.5 27.5t7 26t-5.5 22.5q-5 11 -4.5 17t5 20t5.5 20q1 4 5.5 11.5t5.5 11.5t-4 14q-6 14 -4.5 23t6.5 26.5t6 26.5q20 150 28 279q3 24 3 69q0 5 5 16t4.5 19.5t-12.5 13.5q-4 2 -4.5 6.5t0.5 9.5t0 9q-7 38 -20 49 q-2 1 3 8t15.5 17t22.5 20q46 35 63 35q4 0 6 -2q20 -9 27 -43q4 -18 4.5 -44.5t-1 -47t-4.5 -45.5t-3 -31q-2 -35 -10 -115q0 -4 1 -23t-2.5 -30.5t-13.5 -13.5q-11 -2 -12.5 -7t2.5 -10t8.5 -12t3.5 -12l-14 -115q50 50 123 92q48 27 90 27q30 0 57 -14q2 -1 6 -2.5t7 -3 t6.5 -3.5t5 -4.5t0.5 -5.5q-4 -15 0 -20t11.5 -7t9.5 -6q11 -30 10 -67v-17q-1 -12 -18.5 -134.5t-22.5 -201.5q-1 -5 1 -18t0 -22.5t-11 -16.5q-5 -7 -3 -13t6.5 -17t4.5 -17q3 -78 26 -119q19 -36 52 -39q-3 -3 -10.5 -10t-18.5 -17.5t-19 -17.5q-36 -33 -57 -33 q-3 0 -6 1q-34 8 -53 47q-12 24 -21 84q-1 5 2 14t2.5 18t-8.5 19q-5 13 -5.5 18.5t3 21.5t4.5 21q2 35 6.5 74t10 74.5t6.5 44.5q13 104 14 110t5.5 16t7.5 17.5t1.5 15.5t-10.5 13q-9 4 -9.5 15t2 25.5t1.5 20.5q-6 30 -29.5 55t-54.5 29q-27 3 -55 -16q-2 -1 -6 -2 t-7.5 -2t-6 -4t-1.5 -9q1 -4 -1.5 -7t-7.5 -6.5t-7 -6.5q-27 -40 -45 -96q-23 -194 -25 -285q0 -7 -6 -20.5t-6.5 -20t10.5 -18.5q3 -5 3 -9.5t-2.5 -15t-2.5 -16.5q0 -4 -1.5 -13t-1 -16.5t4.5 -15.5q5 -10 7 -33t6 -31q11 -29 30 -37q-8 -4 -47 -43q-36 -36 -56 -36 q-3 0 -5 1q-20 5 -35 39q-12 32 -12 99z" />
<glyph unicode="i" horiz-adv-x="319" d="M70 193q0 11 8 143l10 88q1 3 9 13t3 16q-9 11 -9.5 23t4 28t5.5 22q12 14 13 24t-3.5 19t-3.5 15q6 48 9 88q3 42 0 57q-1 4 13 16.5t34 24.5q60 39 66 39h1q10 -13 7 -57q0 -9 -8 -19t-10.5 -14.5t5.5 -16.5q5 -5 6.5 -13.5t0.5 -20.5t-2 -21.5t-3.5 -23.5t-3.5 -17 q-5 -37 -15.5 -101.5t-12.5 -82.5q0 -7 -5 -51.5t-6 -73.5q0 -3 2.5 -11t0.5 -14t-11 -12q-5 -6 -3 -11.5t6.5 -16t4.5 -15.5q7 -115 51 -149q21 -18 58 -15q-6 -3 -27.5 -21t-32.5 -26q-39 -31 -61 -31q-28 0 -53 25q-2 2 -8.5 9t-10 11.5t-8 13t-6.5 17.5q-2 6 6.5 23 t-0.5 18q-11 6 -15 11.5t-3.5 16.5t0.5 13q-2 18 -2 60zM106 1032q-4 7 24 26.5t58 35.5l29 16q1 -2 -0.5 -7t-2.5 -9t2 -8t11 -5q5 -1 7.5 -7t3.5 -15t2 -12l10 -21q0 -7 -27.5 -27.5t-55 -36.5t-28.5 -14t-5.5 7.5t-6 9t1.5 8.5q15 17 11 20.5t-21 3.5q-4 0 -5.5 4 t-1.5 10.5t-1 8.5z" />
<glyph unicode="j" horiz-adv-x="301" d="M-199 -462q-5 9 10 12q7 1 17 1h7q38 0 87 31q52 34 90 101q55 96 68 227q1 6 6.5 16t7 15t-3.5 12q-8 6 -9 15t2 20.5t3 15.5q0 11 2.5 41.5t3.5 46.5q22 311 27 414q0 8 11.5 31.5t4.5 31.5q-8 9 -12 18.5t-4 14.5t1 14t1 13q0 37 -2 51q-3 38 -13 45q5 2 56 47 q34 30 59 39q6 -15 6 -74v-63q0 -114 -6 -258q-1 -7 -5.5 -21t-5 -21.5t6.5 -25.5q-1 -6 -5.5 -20.5t-5 -21t6.5 -19.5q6 -13 5.5 -20.5t-4.5 -25t-5 -24.5q-16 -252 -33 -375q-11 -68 -49 -129q-1 -1 -13 -7t-10 -23q-3 -3 -7 -11t-8 -12.5t-9 -5.5q-19 -2 -24.5 -7t-2 -10 t-2.5 -10q-52 -45 -111.5 -71.5t-95.5 -28.5q-35 -3 -43 11zM78 1026q-4 7 23.5 26.5t56.5 35.5l30 16l9 -21q1 -4 -5 -13t-4 -13q1 -3 12.5 -7.5t12.5 -7.5q2 -4 8 -22q0 -7 -27 -27.5t-54.5 -36.5t-28.5 -14q-24 54 -33 84z" />
<glyph unicode="k" horiz-adv-x="598" d="M66 96q0 55 8 68q18 32 18 55q0 19 -14 33q-6 12 -5.5 18t4.5 20.5t5 20.5l6 70q4 62 16 174l9 117q1 11 7.5 19t7.5 10.5t-7 15.5q-5 5 -5.5 12t2.5 20t3 15q8 121 10 184q0 9 1 34.5t1 41.5q0 57 -10 86q-11 25 -25 31q2 0 49 43q40 37 56 37q3 0 6 -2q13 -7 24 -35 q12 -35 12 -93q0 -15 -1 -32q0 -8 -9 -15t-12.5 -10t4.5 -10q14 -9 14 -56q0 -15 -1 -34l-9 -109q0 -1 -3.5 -12t1.5 -20q2 -6 -4 -45q0 -4 -9 -30.5t-3 -43.5q4 -9 4.5 -17.5t-2 -25.5t-2.5 -21q-4 -30 -8 -94q48 65 96 111q35 35 70 59q2 2 18.5 7t20.5 20q4 3 19 8.5 t20 11.5q8 9 15.5 12t17.5 3t14 2q14 3 26 3q31 0 56 -16q18 -14 28 -32q2 -2 -3 -8t-15.5 -14.5t-22.5 -16.5l-39 -25q-8 -5 -15 -16t-13 -11q-9 0 -11.5 18t-3.5 19q-18 24 -47 24q-14 0 -30 -5q-49 -19 -99 -84l-14 -17l-19 -22q-10 -1 -15.5 -7.5t-6.5 -13.5v-6l-53 -65 q0 -1 -1 -3t-1 -3q51 28 98 28q69 0 106 -78q14 -28 11 -37q-4 -12 8.5 -22t13.5 -12l53 -123q1 -2 4.5 -7.5t5.5 -9.5t1 -8q-3 -13 1.5 -23t12.5 -10q9 0 12.5 -5.5t4.5 -15t3 -13.5q10 -19 18 -31t18.5 -20.5t23 -7t26.5 13.5q9 8 16.5 12t10.5 2.5t3.5 -5t-4.5 -10.5 t-13 -14q-66 -58 -119 -63q-17 -1 -33 9.5t-28.5 30t-20 34t-14.5 32.5q-2 6 0 13.5t1 15t-7 10.5q-13 6 -25 31q-28 65 -61 158q-11 35 -33.5 68t-50.5 40q-19 5 -45 -4l-7 -100q-1 -10 -0.5 -19.5t-1.5 -20t-8 -16.5q-6 -9 -5 -15t5 -17t4 -17q0 -3 -2 -33.5t-2 -52.5 q0 -37 6 -61q8 -26 21 -29q-2 -2 -9.5 -10t-15 -15.5t-14.5 -13.5q-41 -36 -63 -36q-4 0 -7 1q-19 5 -26 54q-4 40 -4 69z" />
<glyph unicode="l" horiz-adv-x="339" d="M83.5 194q0.5 2 2.5 11q6 10 6 17t-3 12.5t-3 9.5q0 10 1 31.5t1 31.5q0 31 12 41q10 10 8 15t-8.5 13t-5.5 13l15 139q4 54 16 177.5t16 185.5q1 5 8 14.5t8 14.5t-7 14q-8 5 -9 15t1.5 25.5t2.5 20.5q-3 60 -14 86q-8 22 -22 29q-1 1 15 15.5t40 33.5q47 34 55 29 q18 -15 25 -66q1 -3 -6 -11t-7 -11q1 -3 10.5 -8.5t12.5 -14.5q6 -3 2 -32l-4 -29q0 -24 -10 -172l-4 -60q-8 -10 -9 -18.5t2 -17t2 -13.5q-1 -6 -9.5 -19t-2.5 -20q6 -6 7.5 -17t0.5 -19t-3.5 -20t-2.5 -15l-9 -81t-12 -123.5t-5 -113.5q0 -28 4 -78q0 -3 1 -13.5t0.5 -17 t-3.5 -10.5q-5 -9 -3 -13t10 -10.5t9 -10.5q20 -66 57 -84q21 -12 52 -9q-35 -35 -45 -43q-35 -31 -58 -34q-10 -1 -19 -1q-30 0 -50 15q-27 21 -43 68q-15 47 -21 104q0 2 -2.5 12t-2 12z" />
<glyph unicode="m" horiz-adv-x="923" d="M59 94q0 44 7 119q1 8 9.5 37t6.5 43q-1 6 -3 13.5t-3 11t-2 11.5t0 15q1 6 11 22.5t5 24.5q-10 16 -10.5 30t2.5 23q12 144 12 189q0 7 5 18t5 15q0 3 -6 11t-6 11q-3 38 -18 35q7 3 25 20t28 25q38 30 53 33q19 3 25 -35q2 -16 2 -42q0 -37 -4 -93q178 160 262 160 q50 0 67 -58q10 -51 13 -92q107 96 194 133l27 8q20 4 29 4q34 2 54 -22t21 -80v-6q0 -22 -10 -90q-1 -3 -7.5 -12.5t-7.5 -15.5t7 -17l-6 -39v-16t-2.5 -21t-7.5 -12q-17 -12 -18 -21t6.5 -18t6.5 -15q-12 -102 -12 -149q0 -28 4 -64q1 -7 -2 -20.5t-3 -22t7 -10.5 q14 -2 24 -21t11 -20q19 -19 43 -22q-8 -6 -43 -41q-44 -37 -63 -37h-4q-24 7 -37 20q-43 43 -43 166q0 60 12 154q1 7 14 26t9 27q-6 10 -8 20.5t-1.5 15.5t2.5 15t2 11q19 112 19 141q0 71 -43 104q-15 11 -33 11t-34.5 -8t-34.5 -23t-33 -30.5t-31 -32.5q-5 -6 -8 -9 q-2 -45 -13.5 -123t-13.5 -104q-1 -5 -6.5 -23.5t-6.5 -29.5t5 -27q4 -9 3.5 -14.5t-4 -16.5t-3.5 -18q-1 -12 0 -23q0 -71 22 -110q4 -8 19 -23l-33 -33q-46 -46 -61 -46q-2 0 -4 1q-12 9 -21 27q-2 3 1.5 16t2.5 17t-10 6.5t-10 7.5q-11 51 -11 95q0 19 2 38q2 62 19 227 q1 6 13 18.5t9 20.5q-14 39 -12 62q2 18 2 61q12 14 13.5 24.5t-3 15t-12.5 10.5t-10 10q-13 26 -37 34q-11 5 -23.5 5.5t-25.5 -5t-24 -10.5t-25 -17.5t-23 -20.5t-23.5 -23.5t-20.5 -22.5t-19 -22q-3 -37 -14.5 -148t-14.5 -166q-1 -8 -8.5 -22t-10.5 -21.5t3 -15.5 q6 -4 9 -12.5t3 -14.5v-18v-14q0 -32 8 -60q6 -25 23 -28q-4 -3 -20.5 -20t-26.5 -26q-37 -33 -57 -33q-4 0 -7 1q-16 3 -22 35q-7 32 -7 71z" />
<glyph unicode="n" horiz-adv-x="593" d="M57 109q0 44 13 204q1 7 18 32q10 17 -2 20q-12 2 -13 17t5 40.5t6 30.5q10 105 10 165q0 79 -20 82q17 21 48 47t56 31q17 3 23 -22q7 -30 0 -37q-9 -12 -8 -14t6.5 -4.5t5.5 -6.5q0 -29 -2 -43l10 8q53 49 78 66q8 5 14.5 2.5t14 0.5t12.5 17q6 15 47 33q43 15 63 15 q47 0 75 -35q24 -31 25 -88q0 -8 -1 -17l-11 -71q-1 -4 0.5 -17t0 -21.5t-8.5 -11.5q-14 -5 -18 -11.5t-1 -12t7.5 -13t3.5 -12.5q-25 -162 -25 -247q0 -108 33 -152q19 -25 49 -25q-5 -3 -13 -9.5t-19 -17.5t-17 -16q-36 -32 -55 -32h-4q-29 6 -43 26q-19 22 -29 70 q-1 5 5 15t9.5 16t-2.5 10q-20 6 -20 37q0 49 12 143q1 7 6 16t9.5 15t3.5 15.5t-11 19.5q-6 11 -5 18.5t7 21t7 17.5q1 5 7 14t6.5 14t-7.5 17q-4 8 -4 12.5t3.5 15l4.5 13.5q6 56 6 88q0 48 -12 66q-21 38 -62 38q-65 0 -153 -100q-2 -27 -14 -144.5t-15 -176.5 q0 -4 1.5 -13.5t1 -16.5t-4.5 -11q-12 -13 -12.5 -20t5 -12t5.5 -9q0 -5 2 -14.5t2 -17t-4 -11.5q-10 -16 -9.5 -21t6.5 -13t7 -11q7 -47 23 -54q-10 -4 -43 -37q-41 -41 -59 -41q-2 0 -5 1q-19 3 -25 45q-6 35 -6 84z" />
<glyph unicode="o" horiz-adv-x="569" d="M43 358q23 298 242 422q45 25 75 25q46 0 78 -37q13 -13 13 -41q-1 -17 5 -20t12.5 1t10.5 -3q27 -57 38 -133q9 -64 9 -117v-19q-23 -298 -241 -422q-40 -22 -76 -22q-73 0 -119 94q-1 3 -0.5 14t-5.5 27q-2 6 -11.5 18t-11.5 21q-1 4 1.5 9t6 9.5t5.5 9.5t-1 9.5 t-12 7.5q-9 4 -12.5 11.5t-3.5 24.5v19q-4 29 -4 56q0 18 2 36zM139 475q1 -14 8 -24t7 -15q-2 -24 -2 -48q0 -50 7 -104q10 -81 42 -139q2 -4 1 -14.5t1 -13.5q3 -3 14 -6.5t14 -6.5q18 -18 33 -28q26 -16 55.5 7.5t49.5 68.5q39 95 47 206v2q2 36 2 66t-2 53q-1 5 5.5 12 t5.5 15t-17 18q-6 4 -8 12t-2 19t-1 16q-1 4 2 13t1 15t-15 9q-7 2 -10.5 9t-6 18t-5.5 16q-27 42 -62 60q-19 10 -35 10q-14 -1 -26 -9q-24 -18 -35 -44q-33 -86 -43 -150q-1 -5 -13.5 -17t-11.5 -26z" />
<glyph unicode="p" horiz-adv-x="583" d="M20 719l46 41q27 23 47 33q18 8 33 8q31 0 49 -35q17 -33 24 -88q81 81 156 108q23 8 43 8q47 0 78 -46q10 -16 4 -39q-3 -13 11 -16t15 -17q5 -51 11 -62t7 -21t-1 -22.5t-2 -19.5v-20q0 -107 -29 -213q-33 -116 -100 -195q-3 -4 -12 -5t-15 -7t-8 -23q-1 -7 -7 -12.5 t-17 -11.5t-15 -9q-83 -65 -150 -65h-10q-6 -60 -49 -412q-2 -20 -20 4q-31 42 -36 106l-1 17q0 4 -0.5 17.5t0 20.5t1.5 18t3.5 19.5t7.5 16.5q6 9 -0.5 26.5t-5.5 24.5q0 4 0.5 20t3 25.5t8.5 14.5q5 5 7.5 9t1 8t-3 6.5t-5.5 8t-6 7.5q-4 10 -4 15t3.5 16t4.5 16l10 190 q1 8 4 18.5t2.5 15t-4.5 22.5q0 1 4.5 19t-0.5 28q-3 9 -2.5 15t2.5 18.5t2 19.5q5 88 5 115q0 73 -9 137q-1 6 2 15t5.5 15t-1.5 13.5t-16 13.5q-8 5 -12.5 23t-5.5 20q-17 28 -44 28q-5 0 -10 -1zM188 82q38 -27 70 -27q33 0 61.5 26t48 70.5t32.5 95t20 107.5 q1 10 8 22.5t8 19t-4 24.5q-4 8 -5.5 17.5t-1.5 15.5t0.5 17.5t0.5 16.5q0 63 -10 101q-30 108 -84 129q-15 6 -36.5 -7.5t-34.5 -27.5t-38 -43q4 -58 4 -82q0 -5 -8.5 -12t-12 -13t6.5 -22q10 -13 10 -43q-12 -168 -20 -248q-1 -4 -6 -11.5t-5.5 -12.5t7.5 -19 q3 -9 3 -13.5t-3 -15t-4 -14.5z" />
<glyph unicode="q" horiz-adv-x="589" d="M45 248q0 180 72 321q8 16 22 37q1 2 17 12.5t16 30.5q0 7 6 13.5t16.5 14t14.5 11.5q61 59 129 89q38 17 72 17q27 0 51 -10q59 -23 74 -127q1 -9 -9.5 -34t-1.5 -33q7 -6 10.5 -14t3.5 -13t-0.5 -15t-0.5 -13q0 -13 -5 -76q-3 -33 -7 -68t-9 -76t-8 -65l-27 -273 q-1 -8 -6.5 -21t-6.5 -20t7 -26q4 -11 4 -16.5t-3.5 -18t-4.5 -18.5l-22 -263q-2 -35 -26 -16q-26 22 -39 66l-3 20q-4 40 -4 55q0 2 5 8.5t5 12.5t-10 10q-4 2 -4 9t2 19.5t2 18.5q0 5 6 16t8.5 18.5t-4.5 18.5q-6 7 -8 19t-1.5 21.5t3.5 28.5t4 28l14 246 q-63 -92 -143 -158q-26 -21 -62.5 -38t-58.5 -9q-40 12 -63 80q-2 6 4 17.5t7 18.5t-13 17q-17 9 -21 57q-4 46 -4 70zM148.5 226.5q0.5 -7.5 6.5 -16.5t7 -13q9 -43 41 -93q14 -22 26 -30.5t24 -4t23 17t25 36.5q81 140 111 256q4 60 8 96q1 6 5 17.5t4 16.5t-7 21 q-5 8 0.5 30t5.5 26q0 65 -8 86q-19 45 -68 45q-30 0 -71 -23q-48 -28 -79 -100t-40 -145q-1 -5 2 -13.5t2.5 -16.5t-8.5 -16q-5 -5 -6 -13t0.5 -20t1.5 -16v-59q0 -2 3 -20t-1 -19q-8 -22 -7.5 -29.5z" />
<glyph unicode="r" horiz-adv-x="456" d="M68.5 156q-0.5 7 1.5 17.5t2 14.5q6 101 14 152q1 6 3 22.5t4.5 37t4.5 40.5q1 6 4 16t3.5 16.5t-1.5 23.5q-1 5 0.5 14.5t1.5 11.5q5 40 5 51q0 6 4 16.5t4 19.5t-8 18q-4 4 -4.5 10t0 11t-0.5 11q-6 38 -26 48q3 2 10 8.5t18.5 17.5t20.5 19q38 33 54 33q3 0 5 -1 q24 -11 31 -65q2 -16 1 -92q26 51 75 82q31 22 68.5 31t62 7t31.5 -10q6 -8 -15.5 -36.5t-46.5 -50t-26 -13.5q-1 19 -10.5 23t-16.5 -5q-6 -9 -18 -6t-15 2q-27 -10 -47 -30q-25 -24 -36.5 -47t-18.5 -68q4 -23 -10 -41q-9 -7 -9 -19t4 -20l5 -8q0 -3 -4 -39 q-9 -63 -11 -111q0 -16 -6 -30q-3 -9 1.5 -15t4.5 -8q3 -77 21 -113q17 -33 45 -36q-5 -3 -13.5 -10.5t-20.5 -19.5t-19 -18q-33 -30 -56 -30h-4q-21 3 -37 22q-23 33 -26 101q0 4 3.5 12t4 11.5t-5.5 10.5q-5 4 -5.5 11z" />
<glyph unicode="s" horiz-adv-x="516" d="M6 104q3 26 35 39q6 2 17 9t17.5 10.5t16 5.5t12.5 -6q5 -7 5.5 -20t5.5 -21l9 -12q10 -12 9 -19q-2 -11 4.5 -14t15 -1.5t15.5 -2.5q29 -16 53 -19q8 -1 16 -1q45 0 82 20q39 21 39 72v10q-3 36 -14 63q-2 4 0.5 11t5.5 13t0.5 11t-12.5 6q-9 1 -16 4t-10 6t-8 9t-7 8 q-32 38 -105 98.5t-94 83.5q-45 51 -45 106q0 83 84.5 150t181.5 70h29q39 0 43 -13q3 -15 15 -13.5t20 -0.5q2 -2 13 -8.5t15 -9.5t10 -10.5t9 -16.5q2 -5 -8.5 -12l-24 -16t-16.5 -19q-8 -22 -27 -33q-17 -57 -18 -59q-7 -21 -19 -21q-10 0 -4 14q2 5 11.5 26t13.5 34h-2 q-10 29 -37 47q-22 16 -47 25q-3 1 -7 1t-8 2.5t-10 10.5q-9 9 -14.5 8.5t-15 -5.5t-13.5 -5q-29 0 -45 -8q-49 -21 -49 -74q0 -39 29 -76q1 -2 14 -12.5t14 -18.5q2 -16 7 -20.5t13.5 -4.5t12.5 -3q1 -1 18 -7.5t23 -27.5q2 -5 7 -9.5t13 -8.5t11 -7q69 -53 110.5 -97.5 t53.5 -94.5q6 -24 6 -46t-6 -42q-12 -40 -42.5 -71.5t-71.5 -53.5t-87.5 -33.5t-91.5 -11.5q-96 0 -137 49q-23 26 -23 63z" />
<glyph unicode="t" horiz-adv-x="382" d="M-14 659q5 2 20 20.5t27 27.5q32 28 55 28h4l72 -4q1 23 1 43q0 33 -3 55q-6 43 -23 60q-1 1 5 7.5t17.5 16t24.5 19.5q49 36 61 36q2 0 3 -1q16 -16 22 -58q0 -3 2.5 -9.5t2.5 -10t-3 -8.5q-9 -10 -8.5 -14t5.5 -10.5t5 -10.5t-5.5 -11t-6 -11t9.5 -15q4 -7 4 -11 t-3.5 -14.5l-4.5 -13.5l-4 -39q10 0 30.5 -1t29.5 -1q73 0 123 29q23 12 22 5q0 -4 -10 -13q-55 -44 -80 -56q-53 -31 -125 -45l-12 -80q-1 -4 0 -11t0.5 -11.5t-4 -10t-11.5 -10.5q-4 -5 -3 -10.5t4.5 -15.5t2.5 -15q-18 -137 -18 -215q0 -27 4 -67q3 -7 2.5 -14.5 t-8.5 -22.5q-2 -3 3 -8t11.5 -11t8.5 -10q13 -33 36 -47q20 -14 48 -14q9 0 20 2l-39 -39q-41 -37 -63 -39q-12 -2 -23 -2q-29 0 -49 12q-63 36 -63 188q0 21 1 44q0 4 -2 18t-0.5 23t7.5 14q13 11 14 20.5t-4 19.5t-4 17q1 6 5.5 19.5t5.5 20t-3 16.5q-5 11 -4 18.5t6 21.5 t6 21q3 23 12.5 82.5t12.5 89.5q-4 0 -11 1t-10 1q-8 0 -19 5.5t-18 6.5t-27 -2t-28 -2z" />
<glyph unicode="u" horiz-adv-x="641" d="M49 717q4 3 11.5 10t17.5 17.5t18 17.5q37 33 58 33q29 0 45 -23q20 -28 26 -86q1 -5 -4 -13.5t-5 -16t11 -13.5q5 -7 4.5 -12.5t-3.5 -16.5t-3 -16q-3 -78 -12 -137q-1 -7 -10 -21.5t-6 -19.5q10 -15 4 -45q-2 -13 -8 -47t-9.5 -64t-3.5 -55q0 -49 17 -82q28 -55 65 -55 q43 0 88 75q2 3 14 5t15 18q2 7 2.5 21.5t3.5 19.5q39 79 61 162q26 131 31 176q1 5 6.5 15t6 14.5t-8.5 15.5q-5 6 -4.5 11.5t3.5 15.5t3 14q0 19 -4 43q-6 29 -20 37q14 24 49 51q34 29 52 29q5 0 9 -2q16 -8 23 -43q3 -18 3 -43q0 -28 -4 -64q-8 -68 -21.5 -135.5 t-14.5 -79.5q-15 -124 -16 -154q0 -3 -5.5 -8t-5.5 -10.5t11 -13.5q6 0 4 -18t-2 -21l6 -39q1 -4 -4 -12t-3 -13.5t15 -9.5q11 -21 35 -35q11 -7 35 -10l-37 -35q-47 -41 -74 -41q-34 3 -51 23q-37 37 -37 141v2q-52 -67 -115 -111q-86 -63 -157 -63q-80 0 -80 111v8l-2 15 q-1 15 1 27.5t9 26.5q4 6 5 14.5t1.5 22.5t1.5 19t14.5 30t6.5 41q-4 8 -5 17t-0.5 14t2 15t1.5 14q10 92 10 162q0 112 -29 157q-16 23 -41 23z" />
<glyph unicode="v" horiz-adv-x="661" d="M-1 680q-2 4 5 10q20 18 49.5 37t48.5 27q7 3 14 3q28 0 60 -48q3 -5 1 -10.5t1.5 -11.5t16.5 -9q6 -1 9 -6.5t5 -16t4 -14.5q47 -109 104 -334q1 -4 -1 -10t-4 -10.5t1.5 -10.5t14.5 -12q4 -3 5.5 -9t1.5 -14.5t1 -11.5q8 -34 17.5 -84.5t13.5 -66.5q78 129 129 268 q17 46 28 113q1 6 0 17t0 19t6 13q12 12 12 20.5t-6 17t-6 13.5q0 52 -12 84q-20 49 -72 59q-25 4 -51.5 -4t-36.5 -20q-4 -5 -9.5 -6t-6 2.5t5.5 11.5q28 32 71 60.5t81 37.5q13 3 25 3q40 0 65 -31q22 -22 18 -31t5 -22.5t10 -16.5q1 -5 0 -23t6 -28q3 -5 3 -12t-1.5 -15 t-1.5 -12q-6 -119 -66 -250q-3 -5 -6 -16.5t-7 -20t-11 -12.5q-18 -11 -23.5 -21.5t-2.5 -16.5t-3 -15q-1 -2 -8 -18.5t-15 -20.5q-19 -7 -21 -24l-3 -17q-31 -47 -82 -117l-6 -8q-7 -13 -60 -39l-6 -4l2 2q-35 -16 -35 -18q-1 7 -4 20.5t-9 38t-11 45.5q-1 4 -5.5 17.5 t-4.5 20t2 28.5q2 10 -8 27.5t-11 23.5q-2 8 -3 25.5t-4 30t-11 19.5q-10 9 -13 20.5t-2 21t-2 20.5q-10 41 -34 119q-1 4 4.5 13t7.5 15.5t-8 14.5q-22 11 -27 24q-34 101 -61 140q-11 18 -27 23.5t-31 -5.5q-12 -10 -15 -2z" />
<glyph unicode="w" horiz-adv-x="935" d="M20 709q-2 -1 1 3q12 15 42 36l35 22q6 3 11 3q25 0 53 -50q34 -61 69 -174q2 -7 3.5 -22t4.5 -25.5t11 -14.5q10 -5 13 -16t3 -27t2 -24q2 -5 -1 -16.5t-4 -17.5t5 -11q7 -4 11.5 -10.5t6 -11.5t3 -14.5t2.5 -12.5q8 -38 25 -113t22 -104l31 81q1 3 7 8t8 9t-1 18 q8 4 11 13.5t4.5 24t4.5 22.5l27 80q1 5 8.5 13.5t9 14t-3.5 19.5q-3 9 -2 14t6.5 16t6.5 15q15 79 16 88q-7 23 -20 59t-17 47q-1 3 1 6.5t6 8.5t5 8l-4 8h-2q-1 0 -2 1t-2 1q-6 0 -14 6.5t-12 11.5q-18 29 -29 23q-3 -1 1 3q11 13 36 30q30 23 41 28q15 7 32.5 -9 t32.5 -50l2 -2l6 -14q1 -3 6.5 -8.5t7 -9t-0.5 -9.5q-6 -17 -4.5 -22t10 -11.5t10.5 -11.5q26 -79 51 -186q2 -8 -1 -22t-4 -21t7 -15q10 -6 16 -16.5t7.5 -19t3 -23.5t2.5 -19q19 -89 33 -172l8 -49q37 58 66 117q2 4 8.5 8t9.5 10.5t0 20.5q-1 6 13 25t10 30q-2 14 0 19 t9.5 15.5t10.5 18.5q35 96 35 203q0 70 -12 94q-8 18 -25 35q-3 3 -4.5 14t-5.5 13t-19 -0.5t-18 -1.5q-24 4 -51 -4.5t-37 -20.5q-4 -5 -9.5 -6t-6 2.5t5.5 11.5q28 33 70.5 61.5t80.5 37.5q11 2 22 2q25 0 43 -11q28 -16 42 -47q12 -31 18 -65q4 -25 5 -50q0 -9 -1 -18 q-1 -8 -6 -23t-6.5 -22t4.5 -18q4 -13 3 -19t-6.5 -24t-6.5 -21q-2 -10 -8.5 -21.5t-8.5 -17.5t-14.5 -15t-9.5 -26q4 -16 0 -30t-15.5 -33t-13.5 -23q-55 -112 -160 -256l-4 -6q0 -15 -67 -47q-3 -1 -7 -3t-6.5 -3.5t-5.5 -3t-4.5 -2.5l-3 -2t-2 -2t-0.5 -2q0 2 -3 22 t-7 37q-1 5 3 16t3 22t-14 22q-5 5 -8 12.5t-4.5 20.5t-2.5 18q-1 7 -1 24t-2.5 29t-10.5 18q-9 7 -11.5 19.5t-3 29t-2.5 25.5l-28 121q-39 -124 -156 -371q2 -9 -21.5 -23.5t-47.5 -26t-23 -13.5l-10 43q-9 53 -31 139q-1 5 2 16t1 19.5t-15 13.5q-7 3 -9.5 11t-2.5 20.5 t-1 17.5q-3 14 -1.5 25t-2 23.5t-14.5 21.5q-6 5 -7.5 20.5t-2.5 18.5q-26 91 -56 176q-3 9 0 18t0 17.5t-16 11.5q-9 2 -13 10.5t-5.5 21.5t-3.5 17q-14 30 -26 44.5t-22 11.5z" />
<glyph unicode="x" horiz-adv-x="618" d="M-2 -18q-10 8 0 41q15 39 22 51q1 2 6.5 14t13 20.5t19.5 12.5q6 2 6 8.5t3 13.5q46 58 108 121q4 4 16.5 10.5t16.5 10.5q3 3 5 12t5 12l51 56q-36 114 -71 190q-1 4 -0.5 12t2 15.5t-2 15t-14.5 10.5q-4 1 -7 3t-5 3.5t-5 5t-4 4.5t-3.5 5.5t-3.5 5.5q-53 81 -105 81 q-20 0 -39 -11q-5 -5 -7 0q-1 2 1 4q8 10 38 31.5t44 27.5q22 10 44 10q29 0 58 -18q13 -10 19 -25q5 -13 18 -18t15 -8l24 -41q3 -7 1.5 -22t6.5 -19q26 -22 39 -62q17 -47 37 -108l68 82q2 2 9.5 12t10 13t9.5 12.5t10 14.5t9 14t9.5 15.5t8 14.5t7.5 15.5t5 15.5 q7 23 4 45q-1 11 17.5 23.5t47.5 25.5q9 4 20 11.5t19.5 11t18.5 3.5t-6 -26q-9 -15 -11 -21q-7 -31 -37 -82q0 -1 -16.5 -11t-11.5 -32q-20 -25 -23 -28q-6 -6 -12 -4t-12 -1.5t-7 -17.5q0 -13 -24 -37q-51 -51 -78 -82q-4 -4 -10 -12t-10 -12l24 -68q10 -25 10 -39 q0 -16 9 -25t10 -12q32 -85 45 -110q3 -6 0.5 -21t1.5 -24q3 -5 18.5 -14t18.5 -13q26 -32 51 -32q17 0 33 14q18 15 17 4q-1 -14 -13 -25q-76 -65 -121 -65q-33 0 -53 28q-36 52 -60 107q-2 4 -0.5 19t-3.5 16q-11 7 -15.5 11.5t-5 12t-1.5 9.5q-4 10 -14 35.5t-15 39.5 q-4 8 -20 62q-10 -12 -29.5 -35t-35 -41.5t-28.5 -34.5q-86 -108 -86 -168v-10q0 -17 -45 -39q-51 -26 -59 -20z" />
<glyph unicode="y" horiz-adv-x="638" d="M39 713q6 23 41 51q34 27 58 27h5q20 0 37 -17q21 -21 27 -69q1 -5 5 -17.5t4.5 -19t-3.5 -17.5q-9 -16 -9 -26t4.5 -19t4.5 -16q-1 -48 -18 -195q-1 -6 -7 -17.5t-7.5 -18.5t5.5 -23q4 -11 4 -15t-3.5 -15.5t-4.5 -20.5q-10 -91 -10 -143q0 -34 4 -52q10 -38 50 -44 q8 -2 16 -2q29 0 49 19q31 22 67 89q2 4 8 7.5t10 10t3 20.5q0 7 16 39q32 78 45 129l4 50q1 7 7.5 18t9 17t-3.5 14q-11 9 -13 19t1.5 22t3.5 16q2 62 2 102t-2 58q-1 10 -5 21t-5 15.5t3 16.5q4 10 11 16t19.5 13t21.5 14q2 2 16 16.5t23.5 20t17.5 0.5q6 -4 7 -9 t-0.5 -15t-0.5 -17q2 -31 2 -125q0 -5 -6 -15t-8.5 -16.5t4.5 -17.5q8 -10 8 -45l-12 -260q0 -5 -4.5 -11.5t-5 -12t7.5 -21.5q6 -1 2 -25.5t-4 -26.5q0 -5 -5 -12t-5.5 -12t8.5 -19q4 -9 4 -14.5t-3.5 -17.5t-4.5 -17q-6 -93 -15 -161q-1 -6 -6 -15t-6 -14t6 -21 q4 -11 3 -17t-5.5 -16.5t-5.5 -15.5q-9 -60 -40 -113.5t-70.5 -88.5t-83.5 -61t-79 -38.5t-59 -13.5q-35 -3 -43 11q-5 9 10 12q7 1 17 1h7q38 0 87 31q52 33 90 100q3 5 12 11t11.5 11t-0.5 21q-2 7 5.5 21t8.5 18q33 102 37 240q0 15 1.5 39.5t4 61t4.5 63.5 q-59 -87 -127 -133q-81 -62 -149 -62q-42 0 -66 30q-21 27 -21 81v14q0 1 -1.5 11t0 18.5t6.5 15.5q12 15 12.5 23t-4.5 15t-4 13q14 137 18 216q1 6 8 15.5t7.5 15.5t-11.5 24q-6 12 -5.5 19.5t4 23t3.5 22.5q0 121 -22 164q-13 26 -35 23z" />
<glyph unicode="z" horiz-adv-x="628" d="M-59 -11q-2 3 2 9q23 29 28 33q31 46 60 78q5 6 11 3t12.5 2.5t8.5 22.5q2 14 21 37l147 170l-43 4q-4 0 -11.5 10.5t-18.5 3.5q-19 -12 -45 -8q-35 4 -43 8q-11 1 11 18q19 14 25 19q40 35 63 35h3q82 -4 125 -4q29 36 68 96q3 4 12 7t14.5 9t3.5 21q-2 10 11 31 q56 103 57 106h-31q-39 0 -59 2q-5 1 -14.5 0t-17 0t-11.5 5q-11 12 -19 12.5t-14.5 -4.5t-11.5 -4q-46 4 -68 4q-77 0 -127 -31q-24 -16 -26 -7.5t14 21.5q36 33 58 48t64.5 27.5t100.5 12.5q38 0 61 -2t81.5 -13t88.5 -11q49 0 82 24q16 13 16 2q0 -5 -3 -8 q-17 -16 -29 -24q-53 -122 -227 -324h4q8 0 30.5 -1t34.5 -1q4 0 11.5 1t12 1.5t9.5 -1.5t8 -7q10 -10 15.5 -9t15.5 8.5t14 8.5q59 7 95 27q15 8 17 5t-11 -13q-55 -44 -78 -56q-90 -49 -254 -49q-3 -3 -7.5 -9.5t-8 -11t-7.5 -8.5q-3 -3 -12 -3.5t-13.5 -6t-0.5 -22.5 q1 -5 -3 -10t-10.5 -10.5t-9.5 -8.5l-35 -45q-2 -2 -4 -6.5t-3.5 -8t-4.5 -6.5t-6 -4q-13 -2 -17.5 -5.5t-3 -7t2.5 -7t0 -6.5l-27 -39q27 6 57 6q26 0 56 -6q22 -4 34 -19q12 -11 17 -10t13 6t13 4q140 -34 187 -34q50 0 76 18q13 9 13 2t-11 -18q-33 -33 -76 -54 q-15 -9 -58 -18q-4 0 -14 -3t-17 -4t-16 2.5t-16 12.5q-5 5 -9 2.5t-12 -8t-14 -4.5t-63 12q-114 28 -144 33q-11 1 -23 1q-30 0 -73 -8q-60 -12 -84 -36q-15 -15 -20 -7z" />
<glyph unicode="{" horiz-adv-x="567" d="M33 526q2 2 4 2l-4 4q0 5 37 5q37 1 64.5 18t44 44.5t27 67.5t14 81.5t3.5 93.5q0 45 -4 139q-1 11 9.5 29t10 33.5t-23.5 31.5q-8 5 -8.5 16.5t3 27.5t3.5 22q0 71 20 119t59 72t82.5 33t104.5 9q65 0 127 -10q18 -5 4 -9q-10 -2 -20 -1q-46 4 -105 4q-118 0 -149 -131 q-2 -8 -8.5 -19t-10.5 -19t-3 -20t10 -26q5 -12 4.5 -19.5t-3.5 -22.5t-3 -22q0 -63 4 -149t4 -129q0 -6 -5 -14.5t-8.5 -15t-1.5 -15t13 -17.5q5 -7 4.5 -11.5t-5 -15.5t-5.5 -16q-10 -69 -41 -108q-35 -46 -113 -60q105 -20 129 -77q3 -6 9 -18.5t10 -22t7.5 -20.5 t3.5 -19.5t-5 -14.5q-14 -25 -12.5 -37.5t10 -36t8.5 -36.5q0 -45 -4 -127q-1 -7 -7.5 -20.5t-6.5 -21t12 -28.5q5 -7 5 -17.5t-2.5 -26.5t-2.5 -25q0 -45 3 -80.5t13.5 -74.5t27.5 -64.5t47.5 -42.5t71.5 -17q59 0 115 6q21 2 20 -5q-1 -3 -4 -5q-6 -3 -53.5 -7.5 t-79.5 -4.5q-47 0 -87.5 6.5t-78.5 21t-63.5 42.5t-32.5 67q-12 74 -12 151q0 12 6 23t11 18t3.5 17t-14.5 22q-11 10 -11 34.5t5.5 56t5.5 42.5v25q0 25 0.5 53t-2.5 57.5t-7.5 57.5t-15.5 53.5t-26 44.5t-39 30.5t-55 12.5q-37 0 -37 6z" />
<glyph unicode="|" horiz-adv-x="360" d="M100 -446q0 69 2 104q0 9 7.5 24.5t9 25.5t-9.5 30q-7 9 -7 21t3.5 29t3.5 26l10 331q0 6 3.5 44t-1.5 44q-4 30 -4 44t3.5 46t4.5 46q0 4 5.5 36t-3.5 54q-3 26 -3.5 34.5t2.5 34.5t3 35l8 258q1 8 5.5 26.5t4.5 26.5t-8 29q-6 16 -5.5 24.5t4 26.5t3.5 27q2 35 2 102 q0 3 2.5 18t-2.5 29q-1 13 28 21.5t58 6.5t29 -17q-4 -18 -4.5 -28.5t1 -19.5t1.5 -16q0 -63 -2 -96q-3 -67 -5 -142t-4 -167t-3 -142q0 -7 -3.5 -20t-4 -19.5t3.5 -17.5q10 -15 10 -30t-5 -34t-5 -30q0 -64 -4 -181t-5 -159q0 -4 -4 -39.5t2 -42.5q4 -24 4 -35.5 t-3.5 -36.5t-4.5 -37q0 -10 1.5 -31.5t1 -38.5t-4.5 -32q-6 -22 -6.5 -41t1.5 -39t1 -33q0 -69 2 -79q3 -15 -59 -15q-60 0 -60 15z" />
<glyph unicode="}" horiz-adv-x="593" d="M-21 1359q1 4 11 7q62 10 127 10q90 0 150.5 -22t90.5 -82q17 -38 21 -64q4 -20 4 -65q0 -7 2.5 -23t2 -27.5t-6.5 -19.5q-15 -18 -15.5 -29t6.5 -20.5t7 -17.5q-6 -159 -6 -162q0 -76 8 -131q9 -50 2 -70q-6 -23 0 -29t18 -5.5t15 -4.5q37 -62 110 -65q37 0 37 -4 q0 -2 -6 -5l6 -2q0 -6 -37 -6q-36 -1 -62.5 -16.5t-41 -40t-25 -56.5t-12.5 -66t-4 -67.5t0 -62.5v-25q0 -81 -12 -108q-10 -31 -6 -43.5t14 -30t10 -31.5q0 -82 -29 -98q-7 -6 -2 -13t13 -20t6 -20q-7 -39 -32.5 -67t-63.5 -42.5t-78.5 -21t-87.5 -6.5q-35 0 -79.5 4 t-53.5 8q-5 3 2 8q6 5 20 4q5 0 46.5 -4t62.5 -4q111 0 145 113q2 7 8.5 14.5t11 12.5t4 17t-9.5 29q-6 18 -5 29t5 32t4 32q0 9 7 18.5t7 21.5t-14 35q-4 7 -4.5 17t1 22.5t1.5 16.5q-4 90 -4 135q0 10 8 17.5t14.5 11t8 15t-11.5 30.5q-23 35 12 131q25 58 127 77 q-76 14 -111 60q-49 63 -49 213q0 11 14 34t3 50q-15 35 -11 119q0 8 6.5 28t8 33.5t-7.5 34.5q-9 15 -11 31t-0.5 29.5t-1.5 33.5q-25 164 -155 164q-53 0 -113 -6q-20 -2 -19 5z" />
<glyph unicode="~" horiz-adv-x="845" d="M135.5 396q-0.5 6 1.5 10q28 37 89 71.5t122 34.5q19 0 51 -4q29 -6 33 -10q7 -8 12 -8t9 3.5t8 2.5q104 -23 155 -23q16 0 37.5 8t30.5 23q9 12 13 7t1 -15q-18 -41 -83 -68t-128 -27q-33 0 -120 17q-4 1 -10.5 6.5t-11 7t-15.5 -3.5q-5 -4 -35 2q-40 4 -64 4 q-20 0 -43 -12t-36 -27q-6 -7 -11 -6t-5.5 7z" />
<glyph unicode="&#xa1;" horiz-adv-x="399" d="M74 -365q1 62 5 136t8 123.5t11.5 138.5t10.5 127q1 7 8.5 18t9.5 16t-6 15q-3 3 -5 10t-1.5 18.5t1 20.5t2 22.5t1.5 18.5q4 90 4 133q0 21 59 45q46 18 51 29q0 -8 -1 -25t-1 -24q-1 -69 -5.5 -141.5t-14 -175.5t-12.5 -142q0 -4 -7.5 -19.5t-5.5 -21.5q21 -60 -4 -96 q-7 -13 -5.5 -16t6.5 -8.5t5 -12.5q-4 -78 -4 -115q-2 -19 -57 -45q-51 -20 -53 -29zM143 686q-1 2 2 5.5t8 6.5l5 4l37 29l15 10q16 10 29.5 18t14.5 5l22 -55q1 -1 -2 -4.5t-6.5 -7.5t-3.5 -5l-39 -28q-1 1 -2.5 2t-5.5 2t-7.5 0t-7 -7t-5.5 -16q-28 -16 -29 -14 q-3 5 -25 55z" />
<glyph unicode="&#xa2;" horiz-adv-x="471" d="M33 346q0 24 4 60q11 84 50 143.5t124 118.5q2 1 45 26l20 207q0 9 27 23q4 2 11.5 5t12 5t5.5 4q-1 -13 -5.5 -51t-9 -84t-8.5 -88q18 6 39 6q36 0 64 -25q11 -9 12 -12t-2 -31q-1 -3 4.5 -6.5t12 -8t7.5 -7.5q6 -17 9 -43q0 -17 -33 -35q-11 -6 -26 -17.5t-25 -18 t-15 -5.5t-5.5 11.5t1 22.5t-1.5 23q-19 59 -47 84q-5 -55 -13.5 -138t-14 -137.5t-7.5 -80.5q-15 -12 -16.5 -21.5t5 -19.5t7.5 -14q-6 -6 -7 -12.5t1 -15t2 -11.5l-6 -56h8q56 0 133 52q35 23 46 18q13 -5 -35 -39q-92 -67 -158 -92q-6 -90 -21 -250q0 -7 -22 -18 q-6 -3 -14 -6.5t-13 -6t-6 -4.5l21 207q1 6 6.5 11t5.5 8t-10 16q0 5 1 15.5t1 15.5h-17q-38 0 -65 24q-38 38 -54 80q-2 5 11.5 21t-4.5 28l-9 9t-7 8t-5.5 6.5t-4 6t-2 5t-1.5 5.5t-1 5t-0.5 5.5t-0.5 5.5q-4 40 -4 63zM126 419.5q1 -6.5 7 -16.5t6 -16q0 -176 68 -223 l47 502q-22 -7 -41 -29q-53 -55 -66 -141q-1 -6 -2 -18t-3 -21t-7 -15q-10 -16 -9 -22.5z" />
<glyph unicode="&#xa3;" horiz-adv-x="854" d="M2 -15q-6 5 23 31q25 22 49 37q19 23 39 72q21 61 30 123q14 118 19 205h-6q-5 0 -16 -2t-19 -2t-12 4q-12 11 -21 11t-16 -5.5t-11 -5.5h-26q-5 0 -7 4t-1 10t3.5 13.5t6.5 15.5q20 36 35 36h88v15q0 4 3 19.5t2.5 27.5t-7.5 18q18 28 18.5 33.5t-10.5 26.5 q-3 15 -3.5 19t2.5 22t3 20q7 87 29 156q30 89 109 171.5t184 131.5t200 41q1 0 3 -1t3 -1q10 -6 29 -25q3 -3 6 -15t10 -13q9 -2 14.5 -7t12 -16t6.5 -12q4 -7 1 -17t1.5 -19t20.5 -9q4 0 6 -3t2 -7.5t0.5 -10t1.5 -8.5q15 -45 24 -92q1 -5 4.5 -15.5t4.5 -15.5t-2 -14 q-7 -16 -6.5 -22t4.5 -14t4 -13q-3 -102 -58 -154q-34 -31 -82 -61l-28 -13q-5 -2 -4 1q1 2 6 6q54 48 43 186q0 7 1 30t-2.5 37t-13.5 23q-11 9 -16 38.5t-6 33.5q-47 114 -100 139h-7q-129 11 -198 -82q-4 -6 -19 -18.5t-20.5 -26t-1.5 -35.5q2 -14 -8 -36t-11 -27 q5 -20 -6 -63.5t-12 -55.5q-4 -42 -8 -137q-2 -43 -2 -136q14 0 40 1.5t38 1.5q5 0 8.5 -2.5t12 -8.5t22.5 -12q4 -2 7 4.5t5.5 13.5t5.5 7q25 0 31 2q10 2 14 -4.5t2.5 -17t-6.5 -23.5q-7 -16 -17 -28.5t-20 -12.5h-147q0 -18 -4 -50q-1 -9 -10 -17t-11 -17 q-2 -10 -0.5 -44t-1.5 -42q-39 -137 -121 -203q34 10 86 10q18 0 68 -4q9 -1 23.5 -6.5t23.5 -7t29 3.5q25 9 51 -21q4 -6 18 0.5t19 5.5q159 -27 223 -30q3 0 13 -3t13 -3q10 5 18.5 8t18 3h14.5t17 -2t16 -3q45 -6 84 28q12 11 15.5 2.5t-8.5 -20.5q-76 -84 -201 -94 q-46 -3 -96 0q-9 1 -18.5 8t-18.5 8q-10 1 -40 -1t-40 -1q-67 9 -187.5 28t-160.5 25q-25 4 -53 -4t-39 -18q-16 -12 -21 -7z" />
<glyph unicode="&#xa4;" horiz-adv-x="1024" d="M-47 514q21 3 49 43q29 33 51 35q0 15 4 47q1 10 8.5 16.5t15 9t12 8.5t1.5 15l-8 19q-123 10 -133 10q20 3 47 41q33 37 57 37l41 -4q41 88 115 170t168 143q8 5 21.5 15.5t25.5 18t27 11.5q9 4 45.5 13.5t58.5 31.5q7 7 17.5 10.5t26 5.5t22.5 4q77 17 135 17 q172 0 293 -113q1 0 -7 -7t-22.5 -19t-28.5 -23q-40 -31 -57 -37q-13 -64 -14 -82q-3 -20 -7 -21q-7 -1 -8 26v10q14 68 17 73q-1 1 -49 37q-1 1 -6 3.5t-6.5 3.5t-6 3.5t-6.5 4.5t-6 5t-6.5 5.5t-5.5 6.5t-5 8t-4 9q-7 9 -15 8.5t-23 -3.5t-23 -1q-66 17 -119 17 q-158 0 -289.5 -99.5t-167.5 -257.5h150q109 0 151 27q12 6 15 6q2 0 2 -2t-10 -12q-55 -47 -117 -72q-3 -1 -19.5 -2t-25.5 -12q-5 -1 -14 5t-13 3q-21 -17 -41 -20q-54 -4 -88 -4h-2v-33q0 -42 6 -86h156q110 0 151 26q12 6 15 6q2 0 2 -2t-10 -12q-65 -56 -133.5 -78 t-161.5 -24q2 -4 2 -9.5t-1 -11.5t-1 -8q0 -12 18 -20q-15 -35 2 -45q1 -1 13 -7t16 -12q38 -69 104 -135q60 -57 138 -100q7 -4 10.5 -13t12.5 -15.5t32 -6.5q12 0 35 -7t28 -8q44 -12 92 -12q39 0 72 8q38 9 109 66q2 2 38.5 27.5t45.5 33.5q16 12 26 5q13 -9 -16 -33 q-230 -193 -410 -193q-98 0 -188 53q-9 5 -36 30.5t-54 33.5q-16 4 -28.5 16t-27.5 32t-22 28q-111 124 -145 268q-9 26 -11 47q-2 -1 -6 -2.5t-7 -2.5t-5 -1q-8 0 -38 3t-46 3z" />
<glyph unicode="&#xa5;" horiz-adv-x="888" d="M-20 1090.5q-4 3.5 2 9.5q67 74 122 74q47 0 93 -52q92 -104 186 -299q2 -3 3.5 -5.5t2.5 -3.5t2 -3.5t1.5 -6.5t1.5 -10.5t1 -17.5q0 -35 25 -49q11 -6 15.5 -13t6 -15.5t4.5 -12.5q8 -17 25 -50.5t28 -58.5t17 -49q117 110 176 195q3 5 12 8.5t14 11t3 23.5q-1 8 4 16 t13 17.5t12 15.5q34 69 41 117q2 9 -5 36.5t2 32.5q9 16 8.5 20t-9.5 8.5t-11 8.5q-8 22 -35 49q-22 22 -46.5 36t-53 17.5t-51.5 -14.5l-16 -11q-17 -11 -32 -19.5t-18 -5.5q-3 5 23.5 27.5t32.5 25.5q105 72 163 78q12 2 28.5 -1.5t21.5 -11.5q8 -13 13.5 -15.5t8 1.5 t6.5 7.5t8 0.5q22 -13 39 -33q12 -12 23 -34q8 -16 16 -52q-10 -8 -4.5 -42t4.5 -44q-6 -36 -20 -69q-57 -123 -164 -246q-7 -7 -13.5 -3t-13.5 1t-10 -21q-1 -8 -5.5 -17t-9.5 -16t-14.5 -17t-14.5 -15t-16.5 -15t-13.5 -12l-59 -57h53q110 0 152 27q12 6 14 6t2 -2 q0 -3 -10 -13q-53 -45 -117 -71q-3 -1 -19.5 -2.5t-25.5 -12.5q-5 -1 -14 5.5t-13 3.5q-23 -18 -40 -21q-3 0 -8.5 -1t-8.5 -1q-4 -58 -4 -106h72q110 0 151 26q12 6 15 6q2 0 2 -2q0 -1 -11 -12q-98 -83 -223 -98q3 -8 -4 -25q-4 -8 3 -25t7 -20q-8 -10 -9.5 -19t1.5 -14 l7.5 -12.5t6.5 -11.5q20 -66 66 -72q-12 -18 -43 -43q-30 -26 -51 -23q-26 3 -43 27q-4 5 -9 23t-14 24q-9 5 -11.5 15t-1 26.5t0.5 22.5q-6 53 -6 108v13q-24 0 -60 4q-3 0 -9 -1t-9 -0.5t-8.5 4t-11.5 11.5q-5 3 -10 1t-14 -6.5t-13 -4.5q-6 0 -37.5 3t-48.5 3q14 2 31 22 t36 38t39 18q18 -2 37.5 -3t43 -1.5t36.5 -1.5l4 28q0 17 1 41t1 33q-40 0 -110 7t-99 7q14 2 31.5 22t36.5 38t39 18q54 -4 80 -4q-3 10 0 23q0 1 2.5 7.5t2.5 10t-4.5 8t-15.5 8.5q-6 14 -45 90q-12 24 -80 146q-20 32 -20 57q-1 23 -8.5 30.5t-18 9t-14.5 7.5 q2 17 -5.5 29.5t-21 25.5t-18.5 21q-26 42 -66 82q-35 35 -59.5 40t-44.5 -15q-6 -5 -10 -1.5z" />
<glyph unicode="&#xa6;" horiz-adv-x="360" d="M100 -446q0 69 2 104q0 9 7.5 24.5t9 25.5t-9.5 30q-7 9 -7 21t3.5 29t3.5 26l10 331q0 6 3.5 44t-1.5 44q-4 30 -4 44t3.5 46t4.5 46q0 4 5.5 36t-3.5 54q-3 26 -3.5 34.5t2.5 34.5t3 35l8 258q1 8 5.5 26.5t4.5 26.5t-8 29q-6 16 -5.5 24.5t4 26.5t3.5 27q2 35 2 102 q0 3 2.5 18t-2.5 29q-1 13 28 21.5t58 6.5t29 -17q-4 -18 -4.5 -28.5t1 -19.5t1.5 -16q0 -63 -2 -96q-3 -67 -5 -142t-4 -167t-3 -142q0 -7 -3.5 -20t-4 -19.5t3.5 -17.5q10 -15 10 -30t-5 -34t-5 -30q0 -64 -4 -181t-5 -159q0 -4 -4 -39.5t2 -42.5q4 -24 4 -35.5 t-3.5 -36.5t-4.5 -37q0 -10 1.5 -31.5t1 -38.5t-4.5 -32q-6 -22 -6.5 -41t1.5 -39t1 -33q0 -69 2 -79q3 -15 -59 -15q-60 0 -60 15z" />
<glyph unicode="&#xa7;" horiz-adv-x="851" d="M33 -367q0 2 1.5 5t6.5 6.5t12 3.5q13 -2 35 20q50 50 59 41q19 -19 31 -39q2 -4 15 -4t16 -2q66 -39 151 -61.5t160 -18.5q5 0 13.5 -5t13.5 -6.5t14 5.5q4 5 13 10t20 9.5t16 7.5q11 -2 18 1.5t14 11.5t11 11q64 51 72 152q8 112 -98 207l-14 14t-21 18.5t-25 12.5 q-11 3 -27 14.5t-24 15.5q-44 26 -128 69.5t-114 62.5q-7 5 -29.5 14.5t-47.5 25.5t-47 39q-4 4 -8.5 16t-10 20.5t-12.5 8.5q-14 -1 -27 18.5t-20 43.5q-28 99 100 213q46 46 117 76l-8 8q-5 4 -11.5 18.5t-19 23t-37.5 7.5q-6 4 -9.5 14t-12 16.5t-31.5 8.5q-8 1 -13.5 23 t-13.5 22q-14 0 -26 21t-17 45q-22 99 113 206q60 47 139 74t158 27q74 0 139 -23q26 -9 35 -14q7 -3 14 -15.5t17 -11.5q15 1 24 -3t18.5 -14.5t10.5 -10.5q20 -15 30 -35q3 -5 1 -6.5t-11 -1.5q-5 0 -9 -0.5t-9 -1.5q-9 -2 -20.5 -9t-18 -12.5t-18 -16t-13.5 -12.5 q-4 -9 -14 -32t-15.5 -38.5t-5.5 -23.5q0 -20 -11 -21q-10 1 -11 17q0 10 37 92q-78 81 -232 103q-13 2 -22 0.5t-21 0.5t-22 11q-25 21 -49 -12q-13 4 -16.5 3t-7.5 -7t-7 -7q-43 -16 -69.5 -45.5t-26.5 -70.5q0 -28 12 -58q11 -24 32 -49t39.5 -42.5t57.5 -44t57.5 -38 t67.5 -41.5q3 -2 10.5 -6t11.5 -7t9.5 -7.5t8 -9t3.5 -9.5q1 -15 9 -16.5t19 2t15 0.5l45 -31q86 -60 127 -106q64 -70 76 -142q2 -9 -6 -15.5t-9 -14.5q0 -5 6 -22t9 -28t-2 -18q-11 -6 -13 -11.5t0.5 -11t1.5 -8.5q-19 -52 -112 -141l53 -45q69 -66 84 -135q10 -29 8 -43 q2 -11 -4.5 -29t-15.5 -24q-15 -7 -3 -18.5t11 -14.5q-39 -125 -191 -221q-108 -68 -268 -58q-7 0 -15.5 8t-15.5 9q-24 0 -34 -2q-30 -5 -70 10q-73 21 -137 65q-21 21 -27 23q-14 3 -14 16zM172 483q0 -24 16 -61q15 -29 41.5 -56t68 -53.5t72.5 -44t87 -45.5 q3 -2 12.5 -7t15 -8.5t11 -9.5t6.5 -12q1 -11 6.5 -14.5t12 -1t13.5 4t11 -0.5l47 -27l55 -36q47 47 58 127q15 111 -87 213q-5 5 -6.5 23t-5.5 29t-18 5q-11 -5 -20 -5.5t-17 3t-13.5 7.5t-12.5 10t-11 9l-135 84q-25 0 -39 11q-26 21 -47 -15q-14 4 -17.5 2.5t-7 -7.5 t-6.5 -7q-40 -19 -65 -49t-25 -68z" />
<glyph unicode="&#xa8;" horiz-adv-x="319" d="M55 1124q0 4 26 22.5t32 18.5l8 -8q1 -1 0 -5t0 -5q12 -5 12 -10q-1 -4 0.5 -8t3.5 -6.5t4 -4t2 -2.5q0 -4 -25.5 -22.5t-31.5 -18.5q-2 0 -6 8q-1 2 0 8t0 7q-1 2 -6 3t-6 3zM174 1124q0 4 25.5 22.5t31.5 18.5q1 0 4 -4t6 -9t5 -7q1 -1 0.5 -3.5t-1 -4.5t0.5 -2 q12 -5 12 -11q-1 -6 0 -7.5t3 -0.5t3 0q0 -4 -26.5 -22.5t-32.5 -18.5q-2 4 -6 8l-6 15q-9 14 -9 6z" />
<glyph unicode="&#xa9;" horiz-adv-x="1296" d="M74 539q0 136 69 268q2 5 7 15.5t8 16.5t8.5 13.5t11.5 11.5q19 14 34 38t19 28l27 28q1 1 19 10.5t26 30.5q4 9 12.5 15.5t22 13.5t18.5 10q157 103 328 103q102 0 195 -35q7 -3 15 -10.5t13 -10.5q6 -3 23.5 -7t23.5 -7q72 -39 133 -104q29 -29 27 -45q-3 -19 4.5 -25 t18.5 -6.5t14 -5.5q77 -128 74 -273q-1 -123 -59 -237.5t-156 -198.5q-3 -2 -8.5 -7.5t-8.5 -7.5t-9.5 -5t-16.5 -4q-7 -1 -17 -15t-14 -16q-153 -96 -315 -96q-55 0 -127 14q-3 0 -14 0.5t-17 2.5t-10 7q-15 19 -24 22.5t-16.5 -1t-13.5 -2.5q-161 68 -249 208 q-4 6 -4.5 19.5t-6 24t-22.5 16.5q-8 3 -11.5 12t-5.5 23.5t-4 19.5q-22 74 -22 148zM158 627q0 -57 8 -101q13 -74 10 -106q-1 -15 20 -32.5t25 -25.5q3 -6 8 -19.5t9 -22t11.5 -17.5t16.5 -12q18 -7 29 -27.5t14 -23.5q99 -104 236 -140q3 -1 13 -1t18.5 -4.5t17.5 -16.5 q7 -6 13 -4.5t17.5 5.5t18.5 3q18 -2 53 -2q131 0 232.5 65t155 171.5t57.5 236.5q-1 11 4 35.5t2.5 41.5t-19.5 27q-13 8 -16 39.5t-6 38.5q-6 14 -3 24t-3 23t-27 25q-14 7 -25 33t-14 30q-79 110 -196 164q-2 1 -25.5 7t-30.5 16q-12 16 -20.5 18.5t-17.5 -1.5t-15 -3 q-68 14 -127 14q-95 0 -183.5 -42t-146.5 -117q-114 -150 -114 -299zM418 553q0 59 45 126t121 114t153 47q29 0 43 -4q6 -1 11.5 -9.5t11.5 -11.5q3 -2 16.5 -2t16.5 -2l20 -16q0 -5 -37 -35q-31 -27 -45 -27l-2 2q-14 14 -29 23q-37 22 -86 22q-66 0 -110.5 -44.5 t-44.5 -121.5q0 -38 16 -84q2 -6 8 -11t9 -13.5t0 -28.5q-2 -15 3.5 -19.5t14.5 -4t12 -2.5q65 -76 152 -76q18 0 39 10.5t33.5 20.5t35.5 30q8 7 9.5 2t-3.5 -10q-29 -35 -98.5 -72t-107.5 -37q-41 0 -52 19q-9 17 -29 18.5t-24 5.5q-3 3 -6 24t-20 22q-25 3 -39 28 q-37 60 -37 117z" />
<glyph unicode="&#xaa;" horiz-adv-x="397" d="M47.5 411.5q0.5 2.5 0.5 5.5l1 3v69q3 122 84 226q1 2 8 3.5t9 8.5q1 4 8.5 7.5t13.5 10.5q1 5 18 11q36 25 82 18q44 0 52 -24q1 -1 -0.5 -10t4.5 -13q6 -3 7.5 -9.5t0 -19.5t-1.5 -16q0 -6 -6.5 -35t-8.5 -49q-1 -5 -5.5 -14.5t-5 -14.5t4.5 -16q2 -3 -1 -14t-3 -15 q-6 -35 -6 -63q0 -50 14 -72q13 -22 27 -22q-3 -2 -11.5 -11.5t-13.5 -13.5q-16 -16 -30 -16q-19 0 -29 16q-6 0 -9 5t1 9q3 6 2 8.5t-6 8.5t-6 10q-2 12 -2 39q-18 -30 -43 -55q-69 -69 -101 -52q-31 27 -41 64q0 2 3 6t2 7t-9 7q-2 3 -3 6.5t-0.5 6zM104 489q7 -8 9.5 -27 t3.5 -20q-4 -5 -4 -9.5t2 -7.5t5.5 -6.5l4.5 -4.5q5 -27 15 -42.5t20 -11.5q47 26 92 162q0 3 14 94q0 3 6 16t-2 19q-6 5 -3 19t3 16q-5 3 -5.5 6t0.5 9t1 10q-3 2 -5.5 6t-4.5 4q-25 17 -50 11.5t-44 -25.5q-29 -33 -45 -148q0 -3 -2 -11.5t-2 -12.5q0 -6 -7 -21.5 t-2 -24.5z" />
<glyph unicode="&#xab;" horiz-adv-x="577" d="M53 354q0 1 1 2t1 2l31 70q2 3 8.5 9t7.5 18q2 11 7 23.5t13 29t11 22.5q1 3 9.5 14t13.5 34q1 9 4.5 18t9.5 20.5t8 16.5l49 106q5 12 31 25q31 11 37 20q-18 -52 -25 -63q-12 -37 -20 -41q-14 -5 -15.5 -10.5t2 -12t1.5 -10.5l-50 -110q-3 -5 -12 -16.5t-12 -16.5 q-2 -4 -1.5 -11.5t-0.5 -11.5l-10 -20q-23 -46 -23 -51v-2l41 -95q14 -24 16 -34q1 -11 4 -18t8 -13t7 -10q25 -62 26 -68q2 -18 15.5 -34.5t15.5 -20.5q14 -36 39 -88q0 -4 -29 -25q-10 -7 -20.5 -13.5t-17.5 -10.5t-7 -3l-12 27q-1 2 2.5 16t-6.5 15q-13 5 -21 22l-63 140 q-1 1 -1 23t-15 32q-8 4 -14.5 12t-9 13t-7 18.5t-6.5 17.5q0 1 -10.5 19t-10.5 24zM274 365v2l29 63q1 2 7 3.5t10 8.5t2 23q-2 5 -0.5 10t6 11.5t6.5 9.5q27 60 45 104q2 6 15.5 19t15.5 34q5 24 20 58l16 39q8 10 35 26q29 11 37 19l-16 -37l-13 -33q-11 -22 -20 -29 q-8 -8 -8 -19.5t-2 -14.5l-25 -56q-16 -37 -26 -45q-12 -9 -13.5 -16t1.5 -13t1 -10q-6 -9 -14 -28t-10 -23q-23 -46 -23 -53l43 -96q11 -39 10 -48q-2 -12 9 -16.5t12 -7.5q25 -54 45 -94q12 -42 12 -54q0 -6 9 -11.5t12 -10.5q14 -32 20 -43q0 -8 -41 -33l-35 -20 q-7 17 -67 145l-5 23q-5 24 -20 36q-5 4 -8 11t-6 16.5t-6 15.5q-1 4 -1.5 12.5t-3.5 15t-12 13.5q-6 5 -10 12t-7.5 21t-4.5 17q-21 31 -21 43zM518 795l2 2z" />
<glyph unicode="&#xac;" horiz-adv-x="954" d="M121.5 700.5q-4.5 21.5 2.5 39.5l7 18q0 2 0.5 4.5t2.5 10.5t5 14.5t7.5 15t10 12t13 6.5t16.5 -2l269 -127q-17 78 -31 156q-1 4 1 10.5t5 12t4.5 11.5t-0.5 10.5t-10 6.5q-10 3 -16 17.5t-7.5 29t-2.5 33t-1 20.5q-2 23 17.5 30t39.5 3l21 -4h8t18 -2.5t22.5 -6 t17.5 -11.5t8 -19q0 -16 -12.5 -90t-24.5 -141l-12 -66q41 27 94 56q6 4 22 2.5t23 11.5q4 5 24 16t23 19q4 9 10.5 12t14 3t10.5 1q47 21 59 21q18 -2 29.5 -16.5t13.5 -27.5l2 -14q3 -6 6 -16t3 -32.5t-13 -35.5q-9 -7 -71 -18q-6 -1 -22.5 3.5t-32.5 4.5t-27 -12 q-5 -5 -9 -7.5t-6.5 -2.5h-8.5t-11 -1l-119 -10q176 -168 227 -213q6 -14 -3 -31.5t-21 -28.5l-12 -11l-5 -5t-13.5 -11.5t-19.5 -12t-22.5 -6.5t-23.5 6q-19 15 -55 86.5t-62 135.5l-27 65q-30 -64 -63 -134q-3 -7 -10.5 -14t-6.5 -18q2 -12 -4.5 -26.5t-18.5 -31.5 t-12 -18q-20 -39 -24 -45q-13 -8 -32.5 -5.5t-36.5 9.5l-17 6q-3 2 -7 4.5t-14.5 11.5t-14.5 17t-7 20.5t8 22.5q17 21 73 77.5t103 102.5l47 47q-69 2 -141 6q-29 0 -43 2q-4 1 -21.5 10.5t-25.5 2.5q-6 -5 -12.5 -6.5t-14 -0.5t-12 2t-12.5 4l-8 3q-24 7 -28.5 28.5z" />
<glyph unicode="&#xad;" horiz-adv-x="776" d="M111 406q13 2 43 45q1 1 5.5 6.5t5.5 7t5 6.5t6 6.5t6 5t7 5t6.5 3.5t7.5 2.5t8 0.5q7 0 21.5 -1t37 -2t39.5 -2q5 0 21.5 -10t23.5 -4q13 11 25 13.5t28 -0.5t21 -3q54 0 74 2q14 1 38 2.5t35.5 3t28 4t29 6.5t24.5 11q9 6 15 6h2q0 -5 -12 -14q-124 -113 -322 -113 h-14.5h-17t-16.5 0.5t-17 2t-13.5 4t-11.5 6.5q-10 6 -16 4.5t-18 -6t-21 -3.5q-78 5 -84 5z" />
<glyph unicode="&#xae;" horiz-adv-x="1239" d="M49 545q0 115 49.5 225.5t131 193t194 133t231.5 50.5q93 0 172 -27q3 -1 11.5 -2.5t13.5 -4t8 -7.5q7 -15 29 -18.5t24 -4.5q96 -52 165.5 -138t99.5 -195q0 -1 2.5 -8t2 -9t-2.5 -12q-2 -4 3.5 -11.5t6.5 -11.5q4 -30 8 -82q-4 -113 -54.5 -221t-131.5 -188t-191 -129 t-227 -49q-42 0 -82 6q-23 0 -27 4q-6 8 -10.5 9t-9.5 -1.5t-8 -1.5q-94 24 -176 78q-4 3 -13 7t-14.5 8t-7.5 9q-5 14 -22 23.5t-19 11.5q-3 3 -4.5 8.5t-6 9.5t-14.5 7q-5 2 -9 7t-8 13t-7 11q-38 48 -60 96q-3 7 -0.5 12.5t-0.5 12.5t-15 12q-5 2 -6.5 6.5t-2.5 13 t-1 10.5q-21 67 -21 144zM131 625q0 -49 10 -107q1 -3 5.5 -12.5t3.5 -13.5t-5 -21q-6 -14 7 -25.5t14 -13.5q35 -96 100 -170q3 -3 9.5 -8t12 -12.5t9.5 -22.5q2 -8 17 -13t18 -7q144 -115 338 -115q188 0 313 131q3 3 8.5 6t10 8t8.5 17q2 7 11 17t11 13q3 4 9.5 11 t10.5 14.5t7 20.5q2 10 10 26t10 21q32 91 35 190q0 4 4 9.5t5 9.5t-5 12q-8 8 -8 24q-16 117 -66 201l-2 13q-2 12 -16 18q-6 3 -10.5 8.5t-8.5 14t-6 12.5l-36 45l-1 8q-2 8 -16 10q-3 1 -8.5 6.5l-7.5 7.5q-44 38 -74 56q-3 2 -14 5t-13 9q-5 11 -11.5 14.5t-11 1.5 t-11.5 0l-25 11q-1 0 -17 3.5t-22 8.5q-9 7 -17.5 9t-19 2t-16.5 1q-60 11 -105 11q-106 0 -188 -39q-6 -3 -21 -7t-25.5 -10t-14.5 -18q-3 -9 -20 -19t-21 -14q-3 -3 -9 -10.5t-11.5 -12.5t-10.5 -8q-10 -4 -15 -9.5t-8 -13t-6 -11.5q-94 -127 -94 -293zM412 766 q22 17 53.5 38t93 50t103.5 29q60 0 110 -19q2 -1 10 -11.5t19 -4.5q4 2 6.5 -1t5.5 -10t4 -8q12 -15 12 -36q0 -40 -24 -70q-1 -1 -7.5 -10.5t-11.5 -10.5q-12 -2 -16.5 -10.5t-5.5 -9.5q-37 -27 -105 -53q4 -3 14.5 -7t20.5 -11t17 -21q13 -21 10 -35q-4 -18 6.5 -25.5 t11.5 -9.5q3 -8 9.5 -28.5t10 -30t9.5 -25t11 -24t12.5 -17.5t15.5 -14q6 -3 20 1.5t23 12.5q7 7 10 0q2 -3 -4 -10q-63 -63 -108 -63q-44 0 -72 75q-2 7 -0.5 12t-0.5 12.5t-11 14.5q-4 4 -6.5 10t-4 14.5t-2.5 12.5q-2 6 -0.5 11t0 11.5t-9.5 10.5q-6 4 -8.5 16t-3.5 13 q-30 61 -84 61h-6q-15 0 -25 -2q2 9 27.5 33t44.5 24l49 4q44 3 80.5 22.5t36.5 47.5q0 30 -27 57q-12 12 -12 19q-1 8 -4 10t-6 0t-7 -3.5t-6 -0.5q-41 18 -80 18q-28 0 -82 -12q-1 -8 -9.5 -88t-12.5 -131q-2 -29 -2 -82q0 -1 1 -11t-0.5 -17.5t-6.5 -16.5q-3 -6 4 -13.5 t8 -11.5l6 -26q1 -2 3 -6.5t2.5 -6.5t2.5 -5l3 -4.5t3.5 -3t4.5 -1.5q-9 -4 -31 -31q-28 -28 -43 -28q-20 0 -29 28q-12 34 -12 99q0 28 4 90q0 1 3 13.5t-1 19.5q-2 11 -2 16t2.5 16.5t3.5 16.5q1 4 6 12.5t6 13t-4 13.5q-4 10 -4.5 13.5t2.5 14.5t4 15q6 44 6 63v2 q-7 -4 -12.5 -8t-8.5 -6t-5 -3.5t-2.5 -2t-1.5 -0.5q-18 0 -4 10z" />
<glyph unicode="&#xaf;" horiz-adv-x="571" d="M72 1090q0 5 13.5 18.5t31.5 26.5q46 32 61 32h45q6 0 18 -6.5t19.5 -8t22.5 8.5q6 5 16 6.5t26.5 0.5t18.5 -1q141 0 141 -2q0 -1 -5.5 -7t-16 -16t-21.5 -18q-38 -34 -61 -34q-32 -8 -57 0q-13 6 -26 6t-20 -3l-6 -3h-200z" />
<glyph unicode="&#xb0;" horiz-adv-x="550" d="M70 928q0 86 69 155q103 103 193 103q39 0 72.5 -26t54.5 -68q14 -23 8 -45q-3 -13 5 -15.5t9 -5.5q4 -24 4 -39q0 -82 -81 -168t-171 -86q-22 0 -40 6q-2 1 -11 3t-14 5.5t-6 8.5q-5 21 -19 25.5t-16 6.5q-3 3 -3 10t-3.5 13t-16.5 10q-5 2 -7.5 6t-5.5 13t-3 10 q-18 44 -18 78zM150 979q0 -76 53 -141q4 -5 1.5 -12t-0.5 -13.5t13 -5.5q12 1 18.5 -1t13 -7t7.5 -6q28 -14 55 -11q39 4 64.5 46.5t30.5 93.5q6 52 -21 110q-1 4 0.5 10.5t0.5 11.5t-9 9q-9 4 -29 24q-43 46 -92 43q-34 -2 -57 -19t-32.5 -43t-13 -46.5t-3.5 -42.5z" />
<glyph unicode="&#xb1;" horiz-adv-x="831" d="M74 31q4 1 8.5 3.5t10 7t9.5 9t11.5 12l11.5 11.5q35 35 55 35q37 0 113 -3.5t113 -3.5q5 0 17.5 -8t18.5 -8q7 0 21 8t22 8q144 0 205 31q1 0 4 1t4 1q0 -2 -5 -6.5t-11 -10.5l-6 -5q-26 -22 -49 -37q-4 -2 -12 -4t-13.5 -5t-7.5 -8q-4 -9 -14.5 -13.5t-28.5 -7.5 t-19 -3q-37 -12 -90 -12q-11 0 -35.5 1t-39.5 1t-34 5t-34 5q-4 0 -25 -9t-30 -6q-12 5 -35 5q-21 0 -43.5 1t-49.5 2.5t-42 2.5zM102 453q11 1 52 43q34 34 55 34q20 0 43.5 -1t52.5 -2.5t45 -2.5l4 49q0 5 7 15.5t4 15.5q-7 10 -7 27l4 63q2 22 62 47q46 18 51 29l-6 -94 q-1 -5 -6 -16t-5.5 -16t7.5 -17q3 -6 3 -9.5t-2.5 -10.5t-2.5 -11l-6 -72h57q144 0 205 31q1 0 4 1t4 1q0 -2 -5 -6.5t-11 -10.5l-6 -5q-23 -20 -50 -37q-3 -2 -9.5 -7.5t-12 -8t-10.5 -1.5q-18 2 -32 -6.5t-16 -9.5q-51 -16 -122 -19q-10 -143 -11 -170q0 -16 -49 -40 q-59 -29 -61 -37q8 167 14 247h-43q-14 0 -27 5q-6 2 -20.5 -1.5t-17.5 -3.5q-28 0 -77 3.5t-59 3.5z" />
<glyph unicode="&#xb2;" horiz-adv-x="745" d="M8 410q64 53 78 61q254 156 365 322q57 81 57 161q0 54 -33 93q-1 1 -6 7t-7 8l-6.5 6.5t-8 6t-8.5 3.5t-10 1.5t-11 -2.5q-29 -10 -76 4q-18 3 -23.5 1t-10.5 -9t-9 -8q-61 -19 -117 -51.5t-69 -52.5q-15 -24 -29 -18q-12 5 -2 17q1 2 2 3q44 42 76 69.5t79 63.5 t94.5 57t92.5 27q95 11 150 -43.5t55 -137.5q0 -38 -17 -84q-23 -62 -58.5 -118.5t-74.5 -73.5q-16 -6 -24.5 -14.5t-15.5 -19t-13 -15.5q-2 -2 -45 -23t-45 -30q-2 -7 -2 -14q-1 -6 -11 -13q-5 -4 -8 -6q-71 -52 -139 -94q35 1 99.5 -0.5t84.5 -1.5q89 0 155.5 15t121.5 60 q10 8 11 3q-1 -6 -11 -27t-33 -47.5t-37 -36.5q-55 -35 -127 -45q-8 -1 -21 4t-25 5t-25 -13q-4 11 -14 11.5t-25 -4.5t-21 -5q-22 1 -87.5 4.5t-100.5 3.5q-71 0 -115 -10z" />
<glyph unicode="&#xb3;" horiz-adv-x="747" d="M-18 24q-1 9 26 9q64 -2 149.5 28.5t166 81t143.5 124t78 149.5q6 30 10 86q0 3 11.5 16.5t11.5 16.5q0 6 -12 13t-13 13q-14 93 -82 121q-64 27 -133 27q-24 0 -49 -7q-17 -9 -24.5 -13.5t-21.5 -11.5t-20.5 -9t-7.5 0q-3 4 20.5 22t30.5 21q1 0 2 1t2 1l11 8l8 4 q56 43 109 99t116 131.5t96 111.5q-16 -2 -63 -2q-30 0 -102 2t-107 2q-116 0 -139 -18q-9 -7 -7 0q7 22 51 67q45 47 76 51q51 7 113 7q7 0 18 -5t21.5 -5t22.5 10q11 0 27 -7t26 -9.5t31 5.5q16 8 34.5 9.5t44 -1t33.5 -2.5h74q-41 -43 -120 -133t-120 -133q-1 -2 -16 -6 t-14 -20l-17 -21q-51 -51 -98 -90q50 16 94 16q49 0 88 -16q65 -28 98 -86t33 -129q0 -86 -45 -162q-90 -154 -269.5 -267.5t-365.5 -109.5q-29 0 -30 10z" />
<glyph unicode="&#xb4;" horiz-adv-x="473" d="M80 1004q60 25 135 92q6 5 12 3.5t11.5 1t5.5 13.5q0 5 22 27q12 12 15 14q9 0 36 -19t49 -38.5t21 -20.5q-58 -52 -59 -53q-5 -3 -11.5 0t-12.5 1.5t-7 -11.5q0 -14 -14 -23q-9 -5 -29 -12q-9 -3 -18 -11.5t-11 -9.5l-51 -22q-6 0 -14 4t-13.5 8t-13.5 10l-8 7 q-1 1 -6.5 5t-12 9.5t-12.5 11t-10.5 9.5t-3.5 4z" />
<glyph unicode="&#xb5;" horiz-adv-x="673" d="M79.5 -296q0.5 7 1.5 18t3.5 19.5t7.5 16.5q6 9 -0.5 27t-5.5 25q1 5 1 15.5t0.5 17.5t3 14.5t7.5 11.5q5 5 7.5 9t1 8t-3 6.5t-5.5 8t-6 7.5q-4 10 -4 15t3.5 16t4.5 16q4 57 8 174q-4 31 11 59q4 6 5 14.5t1.5 22.5t1.5 19t14 30t6 41q-4 8 -5 17t-0.5 14t2 15t1.5 14 q11 101 11 162q0 112 -29 157q-16 23 -41 23q4 3 11.5 10t17.5 17.5t18 17.5q37 33 57 33q29 0 45 -23q21 -30 27 -86q1 -5 -4 -13.5t-5 -16t11 -13.5q5 -7 4.5 -12.5t-3.5 -16.5t-3 -16q-3 -78 -12 -137q-1 -7 -10.5 -21.5t-6.5 -19.5q10 -15 4 -45q-1 -11 -7 -46.5 t-9.5 -64.5t-3.5 -55q0 -51 16 -82q28 -55 66 -55q43 0 88 75q2 3 14 5t15 18q2 7 2.5 21.5t3.5 19.5q39 79 61 162q26 131 31 176q1 5 6.5 15t6 14.5t-8.5 15.5q-5 6 -4.5 11.5t3.5 15.5t3 14q0 19 -4 43q-6 29 -20 37q14 24 49 51q44 38 61 27q16 -8 23 -43q7 -39 -1 -107 t-21.5 -135.5t-14.5 -79.5q-1 -6 -5.5 -37.5t-7.5 -60.5t-4 -56q0 -3 -5.5 -8t-5.5 -10.5t11 -13.5q6 0 4 -18t-2 -21l7 -39q1 -4 -4 -12t-3.5 -13.5t15.5 -9.5q10 -21 35 -35q11 -7 34 -10l-36 -35q-47 -41 -74 -41q-34 3 -51 23q-37 37 -37 141v2q-52 -67 -115 -111 q-79 -57 -147 -63q-11 -93 -32.5 -248.5t-27.5 -212.5q-2 -20 -20 4q-31 42 -36 106l-1 17q0 4 -0.5 17.5t0 20.5z" />
<glyph unicode="&#xb6;" horiz-adv-x="872" d="M63 864q36 136 220 248q108 64 233 64q53 0 113 -13q5 -1 12 -9t12.5 -9.5t24.5 4.5q33 -7 54.5 -20.5t31.5 -16.5q14 -4 22.5 -9.5t15.5 -12t11 -9.5q-2 -1 -9 -7.5t-19 -17.5t-23 -20q-54 -50 -68 -41l-51 31q0 -8 -1 -23t-1 -22q-3 -67 -5 -142t-4 -167t-3 -142 q0 -5 -5.5 -30t1.5 -27q10 -15 10 -30t-5 -34t-5 -30q0 -64 -4 -181t-5 -159q0 -4 -4 -39.5t2 -42.5q4 -24 4 -35.5t-3.5 -36.5t-4.5 -37q0 -10 1.5 -31.5t1 -38.5t-4.5 -32q-6 -22 -6.5 -41t1.5 -39t1 -33q0 -69 2 -79q3 -15 -59 -15q-60 0 -60 15q0 69 2 104q0 9 7.5 24.5 t9 25.5t-9.5 30q-7 9 -7 21t3.5 29t3.5 26l10 331q0 6 3 44t-1 44q-4 30 -4 44t3.5 46t4.5 46q0 4 5.5 36t-3.5 54q-3 26 -3.5 34.5t2.5 34.5t3 35l8 258q1 8 5.5 26.5t4.5 26.5t-8 29q-6 16 -5.5 24.5t4 26.5t3.5 27q2 33 2 96h-12q-9 -2 -17 13.5t-16 17.5q-6 1 -31.5 -6 t-31.5 -6q-57 6 -121 -11q-53 -15 -85 -61t-32 -100q0 -65 45 -107q6 -5 14.5 -18t19 -20t30.5 -9q9 -1 24.5 -13t24.5 -12q28 0 73 -16.5t66 -19.5q-6 -3 -13.5 -10t-18 -18.5t-15.5 -16.5q-45 -45 -65 -41q-38 5 -79 15t-88 30t-81.5 46t-52 65t-5.5 85z" />
<glyph unicode="&#xb7;" horiz-adv-x="372" d="M92 455q0 8 48.5 42.5t60.5 34.5q3 0 14 -14q2 -2 0.5 -11t1.5 -9q21 -8 21 -19q-1 -11 4 -19.5t12 -13.5l6 -6q0 -8 -49 -43t-61 -35q-3 0 -13 17q-2 3 0 13.5t0 13.5t-11 5t-11 5q-20 36 -23 39z" />
<glyph unicode="&#xb8;" horiz-adv-x="483" d="M116 -425q0 8 7 15t63 48t89.5 77.5t33.5 69.5q0 34 -28 48.5t-62 16.5q-37 0 -53 -16q-4 -4 -8.5 -4t-6 3.5t0.5 8.5q15 21 52 42.5t91 25.5q39 3 67.5 -12.5t28.5 -47.5q0 -59 -72 -131q-2 -2 -6.5 -10t-9.5 -12t-14 -6q-12 -3 -16 -6.5t-4.5 -8.5t-4.5 -8 q-25 -21 -53.5 -40.5t-55.5 -36.5t-28 -17q-11 -7 -11 1z" />
<glyph unicode="&#xb9;" horiz-adv-x="555" d="M90 1030q-1 1 2 4.5t6 6.5l4 3q48 38 80 56l115 67q18 14 31 17q13 9 16 6q0 -2 -4 -6q23 -12 20 -109q0 -8 -8 -22t-10.5 -22.5t8.5 -26.5q7 -8 7.5 -20.5t-3 -32.5t-4.5 -27q-31 -315 -24 -396q7 -58 22 -65q-7 -3 -43 -39q-39 -44 -63 -39q-26 9 -29 86q0 5 4.5 12.5 t4.5 18t-9 26.5q-5 9 7 36.5t3 39.5q-10 14 -11 27t3.5 31t5.5 26q3 43 10.5 121.5t12 133.5t4.5 91q0 67 -17 74q-17 -10 -58.5 -34t-63.5 -38z" />
<glyph unicode="&#xba;" horiz-adv-x="425" d="M72 487q-3 29 0 52q10 167 137 243q56 29 88 -8q6 -9 6 -24q0 -10 4 -12t8.5 0.5t6.5 -1.5q26 -64 26 -153q-13 -172 -139 -242q-74 -42 -111 41q-2 3 -1.5 8.5t-2.5 14.5q-1 2 -6 9t-6 13q-1 3 2.5 9t4.5 9.5t-7 8.5q-5 2 -7 6.5t-2.5 13.5t-0.5 12zM127 606q0 -8 3 -14 t3 -8q-5 -110 27 -166q2 -3 1.5 -10t0.5 -7q2 -2 8 -4t8 -4q11 -11 21 -16q13 -10 30.5 4t28.5 39q22 58 27 119v2q3 26 0 67q0 2 3.5 6.5t2.5 9t-10 9.5q-4 3 -5 8t-1 10.5t-1 7.5t0 6t2 7t-0.5 6t-7.5 4q-3 1 -5.5 4t-3.5 6t-2 8.5t-1 6.5q-18 25 -37 32q-33 19 -55 -24 q-17 -47 -25 -86q0 -2 -6.5 -9t-5.5 -14z" />
<glyph unicode="&#xbb;" horiz-adv-x="585" d="M98 -8q9 15 15 33q1 2 6.5 16.5t11.5 21.5q10 13 14.5 22t6 17.5t4.5 14.5l14 20q15 20 14 35q0 6 1.5 11t3 8t5 8t5.5 10q17 40 47 102q1 3 11.5 24.5t10.5 26.5v3q-3 6 -8.5 18t-7.5 16q-1 2 -4 15.5t-12 19.5q-4 3 -7 8t-5 13t-3 10q-1 4 1 12t2 13.5t-7 7.5 q-13 3 -29 41l-38 88q-14 29 -11 41q5 13 -8 20t-14 10l-19 41q0 5 18 18.5t36.5 24t19.5 9.5l16 -39q2 -4 7 -7.5t7.5 -9.5t2.5 -20q0 -9 9.5 -25t10.5 -18q2 -4 9 -15t10.5 -19t1.5 -15q-2 -15 1 -21t9 -9.5t8 -8.5q9 -22 29 -62.5t29 -62.5q20 -30 20 -43v-4 q-11 -20 -20 -43q-2 -4 -4.5 -12t-5.5 -13.5t-7 -9.5q-12 -9 -16 -17.5t-2.5 -14.5t-1.5 -15l-15 -35q-11 -22 -24 -35q-17 -16 -16.5 -29.5t-0.5 -21.5q-2 -4 -9.5 -20t-10.5 -25q-2 -4 -12 -12.5t-11 -12.5q-2 -4 -1 -12.5t-1 -13.5l-14 -33q-5 -12 -37.5 -27.5 t-34.5 -17.5zM328 -6l20 45q1 3 5.5 4.5t7 6.5t1.5 16q-1 4 1.5 9.5t6.5 11.5t5 9q3 6 15 29.5t20 46.5q3 9 10.5 25t9.5 20q2 5 7 11t8.5 14t5.5 22q1 8 4.5 15.5t9.5 17t8 14.5q23 46 23 51v3q-1 4 -11 24q-1 3 -1.5 10.5t-3.5 14t-11 14.5q-3 3 -7.5 14t-6.5 15l-29 61 q-1 4 -2 14t-2 13q-2 4 -8 9t-8 9l-25 55q-2 4 -1.5 17t-8.5 18q-6 5 -25 43q-5 8 -11 24.5t-7 18.5q0 7 30 29q9 6 18.5 11.5t16 9t6.5 2.5l21 -41q1 -5 8.5 -18t7.5 -21q1 -17 10.5 -29t10.5 -14q5 -12 15 -34t11 -24q17 -44 15 -57q-2 -17 9.5 -20.5t12.5 -8.5 q2 -5 13 -28.5t16 -36.5q20 -30 20 -43v-4l-32 -72q-2 -4 -4.5 -12.5t-6 -15.5t-8.5 -11q-8 -6 -10.5 -12t-2.5 -11t-1 -8q-16 -41 -31 -69q-2 -6 -11.5 -13t-8.5 -20q1 -6 -2.5 -15.5t-8.5 -21t-6 -14.5l-37 -80q-7 -14 -32 -25q-7 -4 -16 -7.5t-15 -5.5t-8 -5zM328 -6v-2 v2z" />
<glyph unicode="&#xbc;" horiz-adv-x="1427" d="M27 995q-1 1 2 4.5t7 6.5l3 4q44 35 80 55l114 68q16 13 31 16q14 9 17 6q0 -1 -5 -6q24 -12 21 -109q0 -8 -8 -22t-10.5 -22.5t8.5 -26.5q7 -8 7.5 -20.5t-3 -32.5t-4.5 -27q-32 -319 -25 -395q7 -59 23 -66q-7 -3 -43 -39q-39 -45 -64 -39q-25 8 -28 86q0 5 4.5 13 t4.5 18.5t-9 26.5q-5 9 7 36t3 39q-10 14 -11 27t3.5 31t5.5 26q3 40 10.5 120.5t11.5 134.5t4 91q0 68 -16 74q-17 -11 -59.5 -34.5t-63.5 -37.5zM377 -33q1 6 32 67q5 9 7 15l295 744q1 4 11.5 23.5t14.5 43.5q1 7 8.5 13t12 15t0.5 25q-2 6 1 14t9 17.5t8 13.5l66 166 q7 19 53 41q7 3 15.5 7.5t14.5 7.5t12 5.5t9.5 2t5.5 -3.5q4 -8 -2.5 -21t-18.5 -31t-16 -30q-54 -137 -156.5 -391t-146.5 -365q-2 -5 -9.5 -7t-8.5 -13q-4 -34 -6 -39q-33 -83 -51 -133q-2 -4 -9 -12t-8.5 -12.5t0.5 -14.5q0 -7 -5.5 -20.5t-13.5 -31.5t-12 -28 q-9 -20 -47 -37q-20 -10 -55 -33q-12 -8 -10 2zM721 0q87 124 194 317l43 76q4 7 13 8t15.5 7.5t8.5 27.5q2 25 37 88q64 107 117 183v2l2 2q7 10 56.5 38.5t52.5 32.5v-2q-8 -112 -17 -405q0 -9 -4.5 -23.5t-5 -22.5t7.5 -26q0 -7 -4 -17t-7.5 -17.5t-2.5 -16.5t10 -16 q7 -12 6.5 -19t-5 -24.5t-5.5 -24.5q-2 -27 -10 -86q98 12 139 41q9 6 8 1q-2 -14 -22 -30q-79 -69 -134 -82q-29 -202 -81 -303q-33 -63 -92.5 -116t-116.5 -68q-35 -9 -34 2q0 5 9 8q18 7 29 12t31 18.5t38 36t35 54.5q14 22 17 33q2 5 7 8.5t7.5 12.5t1.5 32q-1 16 8 42 t10 34q19 99 31 184h-20q-185 -6 -371 -6q-4 0 -2 4zM821 78q17 0 80.5 -1.5t95.5 -0.5h123q4 30 8 86q6 87 9.5 244.5t5.5 201.5q-106 -166 -275 -452z" />
<glyph unicode="&#xbd;" horiz-adv-x="1425" d="M37 993q-1 1 2 4.5t7 6.5l3 4q44 35 80 55l115 67q18 15 30 17q14 9 17 6q0 -2 -4 -6q23 -12 20 -109q0 -8 -8 -22t-10.5 -22.5t8.5 -26.5q7 -8 7.5 -20.5t-3 -32.5t-4.5 -27q-32 -319 -25 -395q7 -59 23 -66q-7 -3 -43 -39q-39 -45 -64 -39q-25 8 -28 86q0 5 4.5 13 t4.5 18.5t-9 26.5q-5 9 7 36t3 39q-10 14 -11 27t3.5 31t5.5 26q3 43 10.5 121.5t12 133.5t4.5 91q0 67 -17 74q-17 -11 -59.5 -34.5t-63.5 -37.5zM326 -33q1 6 32 67q5 9 7 15l294 744q2 5 12.5 24t14.5 43q1 7 8.5 13t12 15t0.5 25q-2 6 1 14t9 17.5t8 13.5l66 166 q7 19 53 41q7 3 15.5 7.5t14.5 7.5t12 5.5t9.5 2t5.5 -3.5q4 -8 -2.5 -21t-18.5 -31t-16 -30q-54 -137 -156.5 -391t-146.5 -365q-2 -5 -9.5 -7t-8.5 -13q-4 -34 -6 -39q-42 -106 -52 -133q-2 -3 -8.5 -11.5t-8 -13t0.5 -14.5q0 -7 -5.5 -20.5t-13.5 -31.5t-12 -28 q-9 -20 -47 -37q-20 -10 -55 -33q-12 -8 -10 2zM723 -2q64 53 78 61q252 155 364 322q58 83 58 162q0 53 -33 92q-1 1 -7.5 8.5t-7.5 9t-8.5 8t-10 5.5t-11 2t-12.5 -2q-29 -10 -76 4q-18 3 -23.5 1t-10.5 -9.5t-9 -8.5q-61 -19 -117.5 -51.5t-69.5 -52.5q-14 -23 -28 -18 q-11 4 -3 16q1 2 3 4q44 42 76 69.5t79 63.5t94.5 57t92.5 27q95 11 150 -43t55 -137q0 -38 -17 -84q-23 -62 -58.5 -119t-74.5 -74q-16 -6 -24.5 -14.5t-15.5 -19t-13 -15.5q-2 -2 -45 -23t-45 -30q-2 -7 -2 -14q-1 -6 -11 -13q-2 -2 -4 -3.5t-4 -2.5q-71 -52 -139 -94 q35 1 99.5 -0.5t84.5 -1.5q88 0 155 15.5t122 60.5q13 10 10 0q-1 -7 -10 -25q-10 -21 -33 -47.5t-37 -36.5q-55 -35 -127 -45q-8 -1 -21 4t-25.5 5t-25.5 -13q-4 11 -14 11.5t-24.5 -4.5t-20.5 -5q-22 1 -87.5 4.5t-100.5 3.5q-71 0 -115 -10z" />
<glyph unicode="&#xbe;" horiz-adv-x="1734" d="M38 24q-2 9 25 9q64 -2 149.5 28.5t166 81t143.5 124t78 149.5q6 30 10 86q0 3 11.5 16.5t11.5 16.5q0 6 -12 13t-13 13q-14 93 -82 121q-64 27 -133 27q-25 0 -49 -7q-17 -9 -24.5 -13.5t-21.5 -11.5t-20.5 -9t-7.5 0q-3 4 21 22t31 21q1 0 2 1t2 1l10 8l8 4 q56 43 109 98.5t117 132t96 111.5q-16 -2 -64 -2q-30 0 -102 2t-107 2q-116 0 -139 -18q-9 -7 -7 0q7 21 51 66q46 47 77 52q51 7 112 7q7 0 18 -5t21.5 -5t22.5 10q11 0 27 -7t26 -9.5t31 5.5q16 8 34.5 9.5t44 -1t33.5 -2.5h74q-41 -43 -119.5 -133t-119.5 -133 q-1 -2 -16.5 -6t-14.5 -20l-17 -21q-51 -51 -98 -90q50 16 94 16q49 0 88 -16q65 -28 98.5 -86t33.5 -129q0 -84 -46 -162q-90 -155 -269 -268t-365 -109q-29 0 -30 10zM684 -33q1 6 32 67q5 9 7 15l295 744q1 4 11.5 23.5t14.5 43.5q1 7 8.5 13t12 15t0.5 25q-2 6 1 14 t9 17.5t8 13.5l66 166q7 19 53 41q7 3 16 7.5t14.5 7.5t12 5.5t10 2t5.5 -3.5q4 -8 -2.5 -21t-18.5 -31t-16 -30q-54 -137 -156.5 -391t-146.5 -365q-2 -5 -10 -7t-9 -13q-4 -34 -6 -39q-33 -84 -51 -133q-2 -4 -9 -12t-8.5 -12.5t0.5 -14.5q0 -7 -5 -20.5t-13.5 -32 t-11.5 -27.5q-9 -20 -47 -37q-24 -11 -56 -33q-12 -8 -10 2zM1028 0q92 131 195 317l43 76q4 7 13 8t15.5 7.5t8.5 27.5q2 27 36 88q64 107 117 183v2l2 2q7 10 56.5 38.5t52.5 32.5v-2q-8 -112 -17 -405q0 -9 -4.5 -23.5t-5 -22.5t7.5 -26q0 -7 -4 -17t-7.5 -17.5 t-2.5 -16.5t10 -16q7 -12 6.5 -19t-5 -24.5t-5.5 -24.5q-2 -27 -10 -86q98 12 139 41q9 6 8 1q-2 -14 -22 -30q-80 -69 -133 -82q-29 -199 -82 -303q-33 -63 -92.5 -116t-116.5 -68q-35 -9 -34 2q0 5 9 8q18 7 29 12t31 18.5t38 36t35 54.5q13 22 17 33q2 5 7 8.5t7.5 12.5 t1.5 32q-1 15 8.5 41.5t10.5 34.5q16 83 30 184h-20q-185 -6 -371 -6q-4 0 -2 4zM1128 78q17 0 81 -1.5t96 -0.5h122q6 45 9 86q6 86 9 241t5 205q-93 -146 -274 -452z" />
<glyph unicode="&#xbf;" horiz-adv-x="665" d="M44.5 -246q-0.5 7 2 16t2.5 13q1 53 23.5 113t45 98.5t68.5 108.5t64 100q86 149 88 262v24q3 20 51 39q10 6 26 12t26 11t12 8q0 -3 -1 -9t-1 -9q0 -56 -25 -129q-2 -6 -9 -17t-12 -24t-4 -29q1 -9 -6.5 -15.5t-9.5 -11.5q-46 -80 -84 -139q-45 -70 -68.5 -111t-46 -102 t-24.5 -115q-3 -78 59.5 -128t140.5 -52q81 -3 146 47q10 8 49 32t45 24h2q0 -1 -10 -11q-206 -168 -356 -166q-52 3 -101 25q-3 1 -2.5 7t-2 8t-17.5 -1q-19 16 -35 35q-16 14 -16.5 40t-12.5 34q-6 5 -6.5 12zM324 713q0 2 7 8.5t7 7.5q1 1 8.5 7t14.5 12t17.5 13.5t20 13 t19.5 9.5t18 4q1 0 5 -10.5t10 -25t8 -19.5q-1 1 -7 -6t-16 -19t-22.5 -23.5t-31 -20t-36.5 -7.5q-1 0 -5 11.5t-9 26t-8 18.5z" />
<glyph unicode="&#xc0;" d="M43 -92q-3 114 29 225t92 250q13 31 33 74l-2 2q2 0 2 2q80 177 233 465q2 3 7.5 7t8 9t0.5 14q10 9 14.5 17t6 17t4.5 14l70 126l10 23q0 2 4 10q3 5 8 8q11 11 51 33q48 27 48 31l18 -127q0 -3 6.5 -23.5t1.5 -29.5q-7 -22 -5.5 -29t9 -18t8.5 -19q-2 -23 6 -44.5 t9 -26.5q27 -138 57 -273q9 -43 14 -61q14 7 23 16l-21 -22q15 -56 33 -111q2 -5 2 -27q0 -14 15 -26q16 -14 20 -45q0 -11 4 -27q25 -71 60 -139q36 -74 77 -115q9 -9 22 -15.5t33.5 -5.5t37.5 15q10 8 12 2q2 -4 -4 -12q-58 -80 -131 -80q-43 0 -82 33q-15 12 -23 20 t-14.5 23.5t-3.5 33.5q3 19 -8 28t-25.5 14.5t-17.5 11.5q-4 10 -2 18t-2.5 18t-20.5 19q-8 4 -12 14.5t-7 25t-6 21.5q-25 67 -49 148q-10 29 -20 67q-108 -57 -256 -57q-87 0 -178 16q-53 -146 -58 -163l-12 -43q-15 -7 -17.5 -16.5t1 -22t2.5 -19.5q-11 -46 -17 -106 q-1 -6 -4.5 -15t-6 -15.5t-1.5 -14.5t8 -15q4 -4 4 -11.5t-2 -17t-2 -14.5q1 -41 14 -81.5t36.5 -75t62.5 -52.5t86 -10q-6 -2 -38 -32.5t-50 -32.5q-90 -17 -146 53.5t-59 165.5zM272 530q24 14 39 11q52 -13 148 -25q82 -7 141 -2q44 4 62 8q4 0 6 2q-69 265 -111 568 q-204 -370 -285 -562zM406 1444q0 1 6.5 5.5t20 14t24.5 17.5q7 5 16.5 14t14.5 13.5t13.5 8t12.5 -3.5q40 -40 94 -81q21 -15 29 -33q4 -11 11 -15t15.5 -5t12.5 -3q5 -2 14.5 -9t14.5 -9q1 0 -8 -8.5t-19 -17t-12 -9.5q-1 -1 -7 -6.5t-11 -9t-14.5 -7t-19.5 -4.5 q-30 2 -77 31q-3 2 -10 6t-11 6.5t-9 7t-7.5 10.5t-3.5 13q-2 18 -11 22t-18 0t-16 1q-2 2 -10.5 9t-13 11t-10.5 10.5t-9 11.5t-2 9z" />
<glyph unicode="&#xc1;" d="M43 -92q-3 114 29 225t92 250q13 31 33 74l-2 2q2 0 2 2q80 177 233 465q2 3 7.5 7t8 9t0.5 14q10 9 14.5 17t6 17t4.5 14l70 126l10 23q0 2 4 10q3 5 8 8q11 11 51 33q48 27 48 31l18 -127q0 -3 6.5 -23.5t1.5 -29.5q-7 -22 -5.5 -29t9 -18t8.5 -19q-2 -23 6 -44.5 t9 -26.5q27 -138 57 -273q9 -43 14 -61q14 7 23 16l-21 -22q15 -56 33 -111q2 -5 2 -27q0 -14 15 -26q16 -14 20 -45q0 -11 4 -27q25 -71 60 -139q36 -74 77 -115q9 -9 22 -15.5t33.5 -5.5t37.5 15q10 8 12 2q2 -4 -4 -12q-58 -80 -131 -80q-43 0 -82 33q-15 12 -23 20 t-14.5 23.5t-3.5 33.5q3 19 -8 28t-25.5 14.5t-17.5 11.5q-4 10 -2 18t-2.5 18t-20.5 19q-8 4 -12 14.5t-7 25t-6 21.5q-25 67 -49 148q-10 29 -20 67q-108 -57 -256 -57q-87 0 -178 16q-53 -146 -58 -163l-12 -43q-15 -7 -17.5 -16.5t1 -22t2.5 -19.5q-11 -46 -17 -106 q-1 -6 -4.5 -15t-6 -15.5t-1.5 -14.5t8 -15q4 -4 4 -11.5t-2 -17t-2 -14.5q1 -41 14 -81.5t36.5 -75t62.5 -52.5t86 -10q-6 -2 -38 -32.5t-50 -32.5q-90 -17 -146 53.5t-59 165.5zM272 530q24 14 39 11q52 -13 148 -25q82 -7 141 -2q44 4 62 8q4 0 6 2q-69 265 -111 568 q-204 -370 -285 -562zM467 1343q58 24 135 93q6 5 12 3.5t11.5 1t5.5 13.5q0 5 22 27q12 12 15 14q9 0 36 -19t49 -38.5t21 -20.5q-58 -52 -59 -53q-5 -3 -11.5 0t-12.5 1.5t-7 -11.5q0 -14 -14 -23q-9 -5 -29 -12q-9 -3 -18 -11.5t-11 -9.5l-51 -22q-6 0 -14 4t-13.5 8 t-13.5 10l-8 7q-1 1 -6.5 5t-12 9.5t-12.5 11t-10.5 9t-3.5 3.5z" />
<glyph unicode="&#xc2;" d="M43 -92q-3 114 29 225t92 250q13 31 33 74l-2 2q2 0 2 2q80 177 233 465q2 3 7.5 7t8 9t0.5 14q10 9 14.5 17t6 17t4.5 14l70 126l10 23q0 2 4 10t10 11q10 8 49 30q48 27 48 31l18 -127q0 -3 6.5 -23.5t1.5 -29.5q-7 -22 -5.5 -29t9 -18t8.5 -19q-2 -23 6 -44.5t9 -26.5 q27 -138 57 -273q9 -43 14 -61q14 7 23 16l-21 -22q15 -56 33 -111q2 -5 2 -27q0 -14 15 -26q16 -14 20 -45q0 -11 4 -27q25 -71 60 -139q36 -74 77 -115q9 -9 22 -15.5t33.5 -5.5t37.5 15q10 8 12 2q2 -4 -4 -12q-58 -80 -131 -80q-43 0 -82 33q-15 12 -23 20t-14.5 23.5 t-3.5 33.5q3 19 -8 28t-25.5 14.5t-17.5 11.5q-4 10 -2 18t-2.5 18t-20.5 19q-8 4 -12 14.5t-7 25t-6 21.5q-25 67 -49 148q-10 29 -20 67q-108 -57 -256 -57q-87 0 -178 16q-53 -146 -58 -163l-12 -43q-15 -7 -17.5 -16.5t1 -22t2.5 -19.5q-11 -46 -17 -106q-1 -6 -4.5 -15 t-6 -15.5t-1.5 -14.5t8 -15q4 -4 4 -11.5t-2 -17t-2 -14.5q1 -41 14 -81.5t36.5 -75t62.5 -52.5t86 -10q-6 -2 -38 -32.5t-50 -32.5q-90 -17 -146 53.5t-59 165.5zM272 530q24 14 39 11q52 -13 148 -25q82 -7 141 -2q44 4 62 8q4 0 6 2q-69 265 -111 568 q-204 -370 -285 -562zM451 1335l22 29l19 25q2 3 7.5 5t9 6.5t3.5 14.5q0 5 4.5 11t12 12.5t10.5 9.5q2 2 17 19t22 26q5 8 47 8q41 0 49 -8l51 -66q1 -1 3 -6.5t9 -9.5q6 -3 19 -20q2 -2 6.5 -13t13.5 -14q4 -2 7.5 -5.5t6.5 -9.5t5 -8q-38 -8 -54 2q-8 5 -17 13.5t-20 23 t-19 25t-22.5 31t-21.5 30.5l-16 -22q-1 -1 -6 0t-10.5 -3.5t-4.5 -13.5q0 -4 -3 -10t-6 -10l-3 -4l-45 -57q-13 -19 -27 -19q-6 0 -13.5 1t-8.5 1q-2 0 -13.5 1t-23 2.5t-10.5 2.5z" />
<glyph unicode="&#xc3;" d="M43 -92q-3 114 29 225t92 250q13 31 33 74l-2 2q2 0 2 2q80 177 233 465q2 3 7.5 7t8 9t0.5 14q10 9 14.5 17t6 17t4.5 14l70 126l10 23q0 2 4 10t10 11q10 8 49 30q48 27 48 31l18 -127q0 -3 6.5 -23.5t1.5 -29.5q-7 -22 -5.5 -29t9 -18t8.5 -19q-2 -23 6 -44.5t9 -26.5 q27 -138 57 -273q9 -43 14 -61q14 7 23 16l-21 -22q15 -56 33 -111q2 -5 2 -27q0 -14 15 -26q16 -14 20 -45q0 -11 4 -27q25 -71 60 -139q36 -74 77 -115q9 -9 22 -15.5t33.5 -5.5t37.5 15q10 8 12 2q2 -4 -4 -12q-58 -80 -131 -80q-43 0 -82 33q-15 12 -23 20t-14.5 23.5 t-3.5 33.5q3 19 -8 28t-25.5 14.5t-17.5 11.5q-4 10 -2 18t-2.5 18t-20.5 19q-8 4 -12 14.5t-7 25t-6 21.5q-25 67 -49 148q-10 29 -20 67q-108 -57 -256 -57q-87 0 -178 16q-53 -146 -58 -163l-12 -43q-15 -7 -17.5 -16.5t1 -22t2.5 -19.5q-11 -46 -17 -106q-1 -6 -4.5 -15 t-6 -15.5t-1.5 -14.5t8 -15q4 -4 4 -11.5t-2 -17t-2 -14.5q1 -41 14 -81.5t36.5 -75t62.5 -52.5t86 -10q-6 -2 -38 -32.5t-50 -32.5q-90 -17 -146 53.5t-59 165.5zM272 530q24 14 39 11q52 -13 148 -25q82 -7 141 -2q44 4 62 8q4 0 6 2q-69 265 -111 568 q-204 -370 -285 -562zM406 1344q-6 1 0 10q29 39 80 72.5t94 33.5q14 0 88 -18q27 -9 32 -15q4 -6 10.5 -6t13.5 3t9 3q50 -3 76 27q10 10 13.5 5t-3.5 -15q-15 -27 -72.5 -60.5t-89.5 -33.5q-29 0 -71 10q-22 4 -29 16q-1 5 -15 2t-16 -2q-24 6 -45 6q-35 0 -59 -30 q-8 -10 -16 -8z" />
<glyph unicode="&#xc4;" d="M43 -92q-3 114 29 225t92 250q13 31 33 74l-2 2q2 0 2 2q80 177 233 465q2 3 7.5 7t8 9t0.5 14q10 9 14.5 17t6 17t4.5 14l70 126l10 23q0 2 4 10t10 11q10 8 49 30q48 27 48 31l18 -127q0 -3 6.5 -23.5t1.5 -29.5q-7 -22 -5.5 -29t9 -18t8.5 -19q-2 -23 6 -44.5t9 -26.5 q27 -138 57 -273q9 -43 14 -61q14 7 23 16l-21 -22q15 -56 33 -111q2 -5 2 -27q0 -14 15 -26q16 -14 20 -45q0 -11 4 -27q25 -71 60 -139q36 -74 77 -115q9 -9 22 -15.5t33.5 -5.5t37.5 15q10 8 12 2q2 -4 -4 -12q-58 -80 -131 -80q-43 0 -82 33q-15 12 -23 20t-14.5 23.5 t-3.5 33.5q3 19 -8 28t-25.5 14.5t-17.5 11.5q-4 10 -2 18t-2.5 18t-20.5 19q-8 4 -12 14.5t-7 25t-6 21.5q-25 67 -49 148q-10 29 -20 67q-108 -57 -256 -57q-87 0 -178 16q-53 -146 -58 -163l-12 -43q-15 -7 -17.5 -16.5t1 -22t2.5 -19.5q-11 -46 -17 -106q-1 -6 -4.5 -15 t-6 -15.5t-1.5 -14.5t8 -15q4 -4 4 -11.5t-2 -17t-2 -14.5q1 -41 14 -81.5t36.5 -75t62.5 -52.5t86 -10q-6 -2 -38 -32.5t-50 -32.5q-90 -17 -146 53.5t-59 165.5zM272 530q24 14 39 11q52 -13 148 -25q82 -7 141 -2q44 4 62 8q4 0 6 2q-69 265 -111 568 q-204 -370 -285 -562zM528 1397q0 4 26 22.5t32 18.5l8 -8q1 -1 0 -5.5t0 -5.5q12 -5 12 -10q-1 -5 1.5 -9.5t5.5 -7t3 -3.5q0 -4 -25.5 -22.5t-31.5 -18.5q-2 0 -6 8q-1 2 0 7.5t0 6.5q-1 2 -6 3t-6 3zM647 1397q0 4 26 22.5t32 18.5q1 0 3.5 -4.5t5.5 -9.5t5 -7 q1 -1 0.5 -3.5t-1 -4.5t0.5 -2q12 -5 12 -10q-1 -6 0 -7.5t3 -0.5t3 0q0 -4 -26.5 -22.5t-32.5 -18.5q-2 4 -6 8l-6 14q-9 14 -9 6zM657 1376q2 -2 2 0h-2z" />
<glyph unicode="&#xc5;" d="M43 -92q-3 114 29 225t92 250q13 31 33 74l-2 2q2 0 2 2q80 177 233 465q2 3 7.5 7t8 9t0.5 14q10 9 14.5 17t6 17t4.5 14l47 88q-22 4 -24 14q-5 21 -19.5 26t-15.5 7q0 1 -3 13.5t-20 18.5q-5 2 -7.5 6t-5.5 13t-3 10q-19 46 -19 78q0 86 70 156q102 102 193 102 q39 0 72.5 -26t54.5 -68q14 -23 8 -45q-3 -13 5 -15.5t9 -5.5q4 -24 4 -39q0 -54 -40 -116.5t-99 -100.5q0 -8 2 -12q0 -3 6.5 -23.5t1.5 -29.5q-7 -22 -5.5 -29t9 -18t8.5 -19q-2 -23 6 -44.5t9 -26.5q27 -138 57 -273q9 -43 14 -61q14 7 23 16l-21 -22q15 -56 33 -111 q2 -5 2 -27q0 -14 15 -26q16 -14 20 -45q0 -11 4 -27q25 -71 60 -139q36 -74 77 -115q9 -9 22 -15.5t33.5 -5.5t37.5 15q10 8 12 2q2 -4 -4 -12q-58 -80 -131 -80q-43 0 -82 33q-15 12 -23 20t-14.5 23.5t-3.5 33.5q3 19 -8 28t-25.5 14.5t-17.5 11.5q-4 10 -2 18t-2.5 18 t-20.5 19q-8 4 -12 14.5t-7 25t-6 21.5q-25 67 -49 148q-10 29 -20 67q-108 -57 -256 -57q-87 0 -178 16q-53 -146 -58 -163l-12 -43q-15 -7 -17.5 -16.5t1 -22t2.5 -19.5q-11 -46 -17 -106q-1 -6 -4.5 -15t-6 -15.5t-1.5 -14.5t8 -15q4 -4 4 -11.5t-2 -17t-2 -14.5 q1 -41 14 -81.5t36.5 -75t62.5 -52.5t86 -10q-6 -2 -38 -32.5t-50 -32.5q-90 -17 -146 53.5t-59 165.5zM272 530q24 14 39 11q52 -13 148 -25q82 -7 141 -2q44 4 62 8q4 0 6 2q-68 254 -111 559h-4q-205 -375 -281 -553zM481 1329q0 -32 14.5 -71t39.5 -70q4 -5 1.5 -12 t-0.5 -13.5t13 -5.5h2l4 6q4 8 10 11q10 8 49 30q48 27 48 31l12 -90q51 32 63 127q6 54 -20 110q-1 4 0.5 10.5t0.5 11.5t-9 9q-7 3 -29 25q-43 46 -92 43q-34 -2 -57 -19t-33 -43t-13.5 -47t-3.5 -43z" />
<glyph unicode="&#xc6;" horiz-adv-x="1665" d="M43 -92q-3 114 29 225t92 250q13 31 33 74l-2 2q2 0 2 2q80 177 233 465q2 3 7.5 7t8 9t0.5 14q10 9 14.5 17t6 17t4.5 14l70 126l10 23q0 2 4 10t10 11q10 8 49 30q48 27 48 31l18 -127q0 -3 6.5 -23.5t1.5 -29.5q-7 -22 -5.5 -29t9 -18t8.5 -19q-2 -23 6 -44.5t9 -26.5 q27 -138 57 -273q9 -43 14 -61q14 7 23 16q-12 -16 -21 -25l31 -104q5 7 8 27q9 10 37 28t45 39q7 9 18 16.5t19 11.5t23.5 11t21.5 10q72 37 121 56q-63 18 -111.5 44t-79.5 73t-16 104q36 137 219 248q106 63 234 63q56 0 112 -12q5 -1 12 -9t13 -9.5t25 4.5 q33 -7 54.5 -20.5t31.5 -16.5q14 -4 22.5 -9.5t15.5 -12t11 -9.5q-2 -1 -9 -7.5t-19 -17.5t-23 -20q-54 -50 -68 -41q-52 35 -127 65q-5 2 -11.5 8t-14.5 9t-23 0q-9 -2 -17 13.5t-16 17.5q-6 1 -31.5 -6.5t-31.5 -6.5q-59 6 -121 -10q-52 -15 -84.5 -61.5t-32.5 -100.5 q0 -64 45 -106q6 -5 14.5 -18t19 -20t30.5 -9q9 -1 24.5 -13t24.5 -12q28 0 73 -17t66 -20q-6 -3 -13.5 -10t-18 -18.5t-15.5 -16.5q-45 -45 -66 -41h-4q-13 -10 -24 -10q-53 -10 -106 -28t-106 -46.5t-86 -71.5t-34 -94q4 -10 8 -30q0 -11 4 -27q2 -5 8 -22t9 -25 q17 -33 45 -64q3 -36 15.5 -53t27.5 -6q9 9 17.5 6t13 -7.5t10.5 -12.5t10 -11q57 -39 117 -59q7 -2 21 -5t22.5 -7t17.5 -13q13 -13 30.5 -15.5t38.5 0t29 1.5q180 -22 291 86q22 22 34 18q14 -5 -32 -47l-4 -4q-92 -77 -163.5 -110t-162.5 -33q-44 0 -112 10 q-86 14 -166 49q-4 2 -24 17t-42 16q-13 0 -24 15q-21 13 -23 20q-10 22 -32 37.5t-25 21.5q-2 4 -5.5 19t-10.5 26.5t-23 20.5q-12 5 -20 43q-17 8 -17 25q-2 10 -2 28q-26 77 -35 113q-10 29 -20 67q-112 -59 -254 -59q-77 0 -180 21q-57 -162 -58 -166l-12 -43 q-15 -7 -17.5 -16.5t1 -22t2.5 -19.5q-11 -46 -17 -106q-1 -6 -4.5 -15t-6 -15.5t-1.5 -14.5t8 -15q4 -4 4 -11.5t-2 -17t-2 -14.5q1 -41 14 -81.5t36.5 -75t62.5 -52.5t86 -10q-6 -2 -38 -32.5t-50 -32.5q-90 -17 -146 53.5t-59 165.5zM272 530q24 14 39 11q52 -13 148 -25 q82 -7 141 -2q44 4 62 8q4 0 6 2q-69 265 -111 568q-204 -370 -285 -562z" />
<glyph unicode="&#xc7;" horiz-adv-x="1024" d="M53 575q0 18 4 64q1 10 8.5 16.5t15 9t12 8.5t1.5 15q-4 9 -8.5 19.5t-5.5 13.5t-2 9t0.5 11t5.5 15q37 96 115.5 188t181.5 160q8 5 21.5 15.5t25.5 18t27 11.5q9 4 45.5 13.5t58.5 31.5q7 7 17.5 10.5t26 5.5t22.5 4q77 17 135 17q172 0 293 -113q1 0 -7 -7t-22.5 -19 t-28.5 -23q-40 -31 -57 -37q-13 -64 -14 -82q-3 -20 -7 -21q-7 -1 -8 26v10q14 68 17 73q-1 1 -49 37q-1 1 -6 3.5t-6.5 3.5t-6 3.5t-6.5 4.5t-6 5t-6.5 5.5t-5.5 6.5t-5 8t-4 9q-7 9 -15 8.5t-23 -3.5t-23 -1q-66 17 -119 17q-166 0 -301.5 -109t-161.5 -278q-6 -44 -6 -86 q0 -82 25 -168q2 -4 2 -9.5t-1 -12t-1 -9.5q0 -12 18 -20q-15 -35 2 -45q1 -1 13 -7t16 -12q38 -69 104 -135q60 -57 138 -100q7 -4 10.5 -13t12.5 -15.5t32 -6.5q12 0 35 -7t28 -8q44 -12 92 -12q39 0 72 8q38 9 109 66q2 2 38.5 27.5t45.5 33.5q16 12 26 5q13 -9 -16 -33 q-230 -193 -410 -193q-98 0 -188 53q-9 5 -36 30.5t-54 33.5q-16 4 -28.5 16t-27.5 32t-22 28q-111 124 -145 268q-13 54 -13 108zM376 -425q0 8 7 15t63 48t89.5 77.5t33.5 69.5q0 34 -28 48.5t-62 16.5q-37 0 -53 -16q-4 -4 -8.5 -4t-6 3.5t0.5 8.5q15 21 52 42.5t91 25.5 q39 3 67.5 -12.5t28.5 -47.5q0 -60 -71 -131q-1 -1 -6 -9.5t-10.5 -12.5t-14.5 -6q-12 -3 -16 -6.5t-4.5 -8.5t-4.5 -8q-25 -21 -53.5 -40.5t-55.5 -36.5t-28 -17q-11 -7 -11 1z" />
<glyph unicode="&#xc8;" horiz-adv-x="940" d="M6 279q-8 85 49 165q4 6 15 9.5t19 12.5t11 32q9 10 37 28t45 39q7 9 18 16.5t19 11.5t23.5 11t21.5 10q72 37 121 56q-63 18 -111.5 44t-79.5 73t-16 104q36 137 219 248q106 63 234 63q57 0 112 -12q5 -1 12 -9t13 -9.5t25 4.5q33 -7 54.5 -20.5t31.5 -16.5 q14 -4 22.5 -9.5t15.5 -12t11 -9.5q-2 -1 -9 -7.5t-19 -17.5t-23 -20q-54 -50 -68 -41q-52 35 -127 65q-5 2 -11.5 8t-14.5 9t-23 0q-9 -2 -17 13.5t-16 17.5q-6 1 -31.5 -6.5t-31.5 -6.5q-59 6 -121 -10q-52 -15 -84.5 -61.5t-32.5 -100.5q0 -64 45 -106q6 -5 14.5 -18 t19 -20t30.5 -9q9 -1 24.5 -13t24.5 -12q28 0 74 -17t67 -20q-6 -2 -13.5 -8.5t-19 -19t-16.5 -17.5q-45 -45 -66 -41h-4q-13 -10 -24 -10q-53 -10 -106 -28t-106.5 -46.5t-86.5 -72.5t-33 -95q0 -43 22 -88q16 -33 52 -78q3 -36 15.5 -53t27.5 -6q9 9 17.5 6t13 -7.5 t10.5 -12.5t10 -11q57 -39 117 -59q7 -2 21 -5t22.5 -7t17.5 -13q13 -13 30.5 -15.5t38.5 0t29 1.5q180 -22 291 86q22 22 34 18q14 -5 -32 -47l-4 -4q-92 -77 -163.5 -110t-162.5 -33q-44 0 -112 10q-86 14 -166 49q-4 2 -24 17t-42 16q-12 1 -24 7.5t-19.5 13t-20.5 19.5 l-18 18q-7 21 -28 36.5t-25 20.5q-39 51 -45 113zM475 1444q0 1 6.5 5.5t20 14t24.5 17.5q7 5 16.5 14t15 13.5t14 8t12.5 -3.5q40 -40 94 -81q21 -15 29 -33q4 -11 10.5 -15t15 -5t12.5 -3q5 -2 14.5 -9t14.5 -9q1 0 -8 -8.5t-19 -17t-12 -9.5q-1 -1 -7 -6.5t-11 -9t-14 -7 t-19 -4.5q-31 2 -78 31q-3 2 -10 6t-11 6.5t-9 7t-7.5 10.5t-3.5 13q-2 18 -11 22t-18 0t-16 1q-2 2 -10.5 9t-13 11t-10.5 10.5t-9 11.5t-2 9z" />
<glyph unicode="&#xc9;" horiz-adv-x="940" d="M6 279q-8 85 49 165q4 6 15 9.5t19 12.5t11 32q9 10 37 28t45 39q7 9 18 16.5t19 11.5t23.5 11t21.5 10q72 37 121 56q-63 18 -111.5 44t-79.5 73t-16 104q36 137 219 248q106 63 234 63q57 0 112 -12q5 -1 12 -9t13 -9.5t25 4.5q33 -7 54.5 -20.5t31.5 -16.5 q14 -4 22.5 -9.5t15.5 -12t11 -9.5q-2 -1 -9 -7.5t-19 -17.5t-23 -20q-54 -50 -68 -41q-52 35 -127 65q-5 2 -11.5 8t-14.5 9t-23 0q-9 -2 -17 13.5t-16 17.5q-6 1 -31.5 -6.5t-31.5 -6.5q-59 6 -121 -10q-52 -15 -84.5 -61.5t-32.5 -100.5q0 -64 45 -106q6 -5 14.5 -18 t19 -20t30.5 -9q9 -1 24.5 -13t24.5 -12q28 0 74 -17t67 -20q-6 -2 -13.5 -8.5t-19 -19t-16.5 -17.5q-45 -45 -66 -41h-4q-13 -10 -24 -10q-53 -10 -106 -28t-106.5 -46.5t-86.5 -72.5t-33 -95q0 -43 22 -88q16 -33 52 -78q3 -36 15.5 -53t27.5 -6q9 9 17.5 6t13 -7.5 t10.5 -12.5t10 -11q57 -39 117 -59q7 -2 21 -5t22.5 -7t17.5 -13q13 -13 30.5 -15.5t38.5 0t29 1.5q180 -22 291 86q22 22 34 18q14 -5 -32 -47l-4 -4q-92 -77 -163.5 -110t-162.5 -33q-44 0 -112 10q-86 14 -166 49q-4 2 -24 17t-42 16q-12 1 -24 7.5t-19.5 13t-20.5 19.5 l-18 18q-7 21 -28 36.5t-25 20.5q-39 51 -45 113zM459 1343q58 24 135 93q6 5 12 3.5t11.5 1t5.5 13.5q0 5 22 27q1 1 3.5 4t5 5.5t5.5 4.5q9 0 36 -19t49.5 -38.5t21.5 -20.5q-58 -52 -59 -53q-5 -3 -11.5 0t-12.5 1.5t-7 -11.5q0 -14 -14 -23q-9 -5 -29 -12 q-9 -3 -18 -11.5t-11 -9.5l-51 -22q-6 0 -14 4t-13.5 8t-13.5 10l-8 7q-1 1 -6.5 5t-12 9.5t-12.5 11t-10.5 9t-3.5 3.5z" />
<glyph unicode="&#xca;" horiz-adv-x="940" d="M6 279q-8 85 49 165q4 6 15 9.5t19 12.5t11 32q9 10 37 28t45 39q7 9 18 16.5t19 11.5t23.5 11t21.5 10q72 37 121 56q-63 18 -111.5 44t-79.5 73t-16 104q36 137 219 248q106 63 234 63q57 0 112 -12q5 -1 12 -9t13 -9.5t25 4.5q33 -7 54.5 -20.5t31.5 -16.5 q14 -4 22.5 -9.5t15.5 -12t11 -9.5q-2 -1 -9 -7.5t-19 -17.5t-23 -20q-54 -50 -68 -41q-52 35 -127 65q-5 2 -11.5 8t-14.5 9t-23 0q-9 -2 -17 13.5t-16 17.5q-6 1 -31.5 -6.5t-31.5 -6.5q-59 6 -121 -10q-52 -15 -84.5 -61.5t-32.5 -100.5q0 -64 45 -106q6 -5 14.5 -18 t19 -20t30.5 -9q9 -1 24.5 -13t24.5 -12q28 0 74 -17t67 -20q-6 -2 -13.5 -8.5t-19 -19t-16.5 -17.5q-45 -45 -66 -41h-4q-13 -10 -24 -10q-53 -10 -106 -28t-106.5 -46.5t-86.5 -72.5t-33 -95q0 -43 22 -88q16 -33 52 -78q3 -36 15.5 -53t27.5 -6q9 9 17.5 6t13 -7.5 t10.5 -12.5t10 -11q57 -39 117 -59q7 -2 21 -5t22.5 -7t17.5 -13q13 -13 30.5 -15.5t38.5 0t29 1.5q180 -22 291 86q22 22 34 18q14 -5 -32 -47l-4 -4q-92 -77 -163.5 -110t-162.5 -33q-44 0 -112 10q-86 14 -166 49q-4 2 -24 17t-42 16q-12 1 -24 7.5t-19.5 13t-20.5 19.5 l-18 18q-7 21 -28 36.5t-25 20.5q-39 51 -45 113zM475 1303l23 28l18 25q2 3 8 5t9.5 6.5t3.5 14.5q0 5 4.5 11t11.5 12.5t10 9.5q1 2 16.5 18.5t22.5 26.5q5 8 47 8q41 0 49 -8l52 -65q1 -1 3 -7t9 -10q5 -2 18 -20q2 -2 7 -12.5t14 -14.5q4 -2 7 -5.5t6 -9t5 -7.5 q-37 -8 -53 2q-8 5 -17 13.5t-20 23t-19 25t-22.5 31t-21.5 30.5l-17 -23q-1 -1 -6 0t-10 -3t-4 -13q0 -4 -3.5 -10.5t-6.5 -10.5l-3 -4l-45 -57q-13 -19 -26 -19q-6 0 -14 1t-9 1t-13 1.5t-23.5 3t-10.5 2.5z" />
<glyph unicode="&#xcb;" horiz-adv-x="940" d="M6 279q-8 85 49 165q4 6 15 9.5t19 12.5t11 32q9 10 37 28t45 39q7 9 18 16.5t19 11.5t23.5 11t21.5 10q72 37 121 56q-63 18 -111.5 44t-79.5 73t-16 104q36 137 219 248q106 63 234 63q57 0 112 -12q5 -1 12 -9t13 -9.5t25 4.5q33 -7 54.5 -20.5t31.5 -16.5 q14 -4 22.5 -9.5t15.5 -12t11 -9.5q-2 -1 -9 -7.5t-19 -17.5t-23 -20q-54 -50 -68 -41q-52 35 -127 65q-5 2 -11.5 8t-14.5 9t-23 0q-9 -2 -17 13.5t-16 17.5q-6 1 -31.5 -6.5t-31.5 -6.5q-59 6 -121 -10q-52 -15 -84.5 -61.5t-32.5 -100.5q0 -64 45 -106q6 -5 14.5 -18 t19 -20t30.5 -9q9 -1 24.5 -13t24.5 -12q28 0 74 -17t67 -20q-6 -2 -13.5 -8.5t-19 -19t-16.5 -17.5q-45 -45 -66 -41h-4q-13 -10 -24 -10q-53 -10 -106 -28t-106.5 -46.5t-86.5 -72.5t-33 -95q0 -43 22 -88q16 -33 52 -78q3 -36 15.5 -53t27.5 -6q9 9 17.5 6t13 -7.5 t10.5 -12.5t10 -11q57 -39 117 -59q7 -2 21 -5t22.5 -7t17.5 -13q13 -13 30.5 -15.5t38.5 0t29 1.5q180 -22 291 86q22 22 34 18q14 -5 -32 -47l-4 -4q-92 -77 -163.5 -110t-162.5 -33q-44 0 -112 10q-86 14 -166 49q-4 2 -24 17t-42 16q-12 1 -24 7.5t-19.5 13t-20.5 19.5 l-18 18q-7 21 -28 36.5t-25 20.5q-39 51 -45 113zM520 1399q0 4 26 22.5t32 18.5l8 -8q1 -1 0 -5.5t0 -5.5q12 -5 12 -10q-1 -5 1.5 -9.5t5.5 -7t3 -3.5q0 -4 -25.5 -22.5t-31.5 -18.5q-2 0 -6 8q-1 2 0 7.5t0 6.5q-1 2 -6.5 3t-6.5 3zM639 1399q0 4 25.5 22.5t31.5 18.5 q1 0 4 -4.5t6 -9.5t5 -7q1 -1 0.5 -3.5t-1 -4.5t0.5 -2q12 -5 12 -10q-1 -6 0 -7.5t3 -0.5t3 0q0 -4 -26.5 -22.5t-32.5 -18.5q-2 4 -6 8l-7 14q-8 12 -8 6zM649 1378q2 -2 2 0h-2z" />
<glyph unicode="&#xcc;" horiz-adv-x="362" d="M33 1423q0 1 6.5 5.5t20 14t24.5 17.5q7 5 16.5 14t14.5 13.5t13.5 8.5t12.5 -3q41 -41 95 -82q20 -14 28 -33q4 -11 11 -15t15.5 -4.5t12.5 -2.5q5 -2 14.5 -9.5t14.5 -9.5q1 0 -8 -8t-19 -16.5t-12 -9.5q-1 -1 -7 -6.5t-11 -9t-14 -7t-19 -4.5q-31 2 -78 31q-3 2 -10 6 t-11 6.5t-9 7t-7.5 10.5t-3.5 13q-2 18 -11 21.5t-18 -0.5t-16 1q-2 2 -10.5 9t-13 11t-10.5 10.5t-9 11.5t-2 9zM52.5 1049.5q-3.5 3.5 4.5 13.5q61 61 113 96q97 67 129 17q35 -56 35 -158q0 -43 -17 -193q-21 -143 -38 -333l-9 -97q-1 -11 -6.5 -31t-6.5 -30.5t7 -32.5 q5 -16 4.5 -25t-3.5 -25t-3 -24q-10 -27 -10 -38t5.5 -30t6.5 -26q6 -64 25 -61q-10 -6 -45 -41q-43 -43 -66 -45q-18 -3 -29 19t-14 61q-2 18 -2 59q0 54 6.5 129.5t13.5 131t15 110.5t8 59q1 12 7 35.5t7.5 36t-2.5 39.5q-2 15 -1 22.5t4 22t4 22.5q1 10 7 30.5t6 30.5 t-5 37q-6 26 -5 43t4.5 45t2.5 44q-4 82 -19 114q-6 13 -23.5 20t-35.5 1q-19 -7 -64 -45q-7 -7 -10.5 -3.5z" />
<glyph unicode="&#xcd;" horiz-adv-x="362" d="M52.5 1049.5q-3.5 3.5 4.5 13.5q61 61 113 96q97 67 129 17q35 -56 35 -158q0 -43 -17 -193q-21 -143 -38 -333l-9 -97q-1 -11 -6.5 -31t-6.5 -30.5t7 -32.5q5 -16 4.5 -25t-3.5 -25t-3 -24q-10 -27 -10 -38t5.5 -30t6.5 -26q6 -64 25 -61q-10 -6 -45 -41 q-43 -43 -66 -45q-18 -3 -29 19t-14 61q-2 18 -2 59q0 54 6.5 129.5t13.5 131t15 110.5t8 59q1 12 7 35.5t7.5 36t-2.5 39.5q-2 15 -1 22.5t4 22t4 22.5q1 10 7 30.5t6 30.5t-5 37q-6 26 -5 43t4.5 45t2.5 44q-4 82 -19 114q-6 13 -23.5 20t-35.5 1q-19 -7 -64 -45 q-7 -7 -10.5 -3.5zM55 1372q60 25 135 92q4 4 11.5 3.5t12.5 2t5 13.5q0 4 4 8.5t11 10.5t8 7t5.5 7t8.5 8q9 0 36 -19t49 -38.5t21 -20.5q-58 -52 -59 -53q-3 -2 -8 -1.5t-10 2t-8.5 -1t-4.5 -10.5q0 -13 -14 -22q-9 -5 -29 -12q-9 -3 -17 -11.5t-11 -9.5l-51 -22 q-13 0 -50 28q-1 1 -6.5 5t-12 9.5t-12.5 11t-10.5 9.5t-3.5 4z" />
<glyph unicode="&#xce;" horiz-adv-x="362" d="M10 1325l23 29l18 24q2 3 8 5t9.5 7t3.5 15q0 5 4.5 11t11.5 12.5t10 9.5q1 2 16.5 19t22.5 26q5 8 47 8q41 0 49 -8l52 -66q1 -1 3 -6.5t9 -9.5q4 -2 18 -21q2 -2 7 -12t14 -14q4 -2 7 -5.5t6 -9t5 -8.5q-37 -8 -53 2q-8 5 -17 13.5t-20 23t-19 25t-22.5 31t-21.5 30.5 l-17 -22q-1 -1 -6 0t-10 -3.5t-4 -13.5q0 -4 -3 -10t-6 -10l-3 -4l-46 -58q-12 -18 -26 -18q-6 0 -14 1t-9 1q-2 0 -13.5 1t-23 2.5t-10.5 2.5zM52.5 1049.5q-3.5 3.5 4.5 13.5q61 61 113 96q97 67 129 17q35 -56 35 -158q0 -43 -17 -193q-21 -143 -38 -333l-9 -97 q-1 -11 -6.5 -31t-6.5 -30.5t7 -32.5q5 -16 4.5 -25t-3.5 -25t-3 -24q-10 -27 -10 -38t5.5 -30t6.5 -26q6 -64 25 -61q-10 -6 -45 -41q-43 -43 -66 -45q-18 -3 -29 19t-14 61q-2 18 -2 59q0 54 6.5 129.5t13.5 131t15 110.5t8 59q1 12 7 35.5t7.5 36t-2.5 39.5 q-2 15 -1 22.5t4 22t4 22.5q1 10 7 30.5t6 30.5t-5 37q-6 26 -5 43t4.5 45t2.5 44q-4 82 -19 114q-6 13 -23.5 20t-35.5 1q-19 -7 -64 -45q-7 -7 -10.5 -3.5z" />
<glyph unicode="&#xcf;" horiz-adv-x="362" d="M52.5 1049.5q-3.5 3.5 4.5 13.5q61 61 113 96q97 67 129 17q35 -56 35 -158q0 -43 -17 -193q-21 -143 -38 -333l-9 -97q-1 -11 -6.5 -31t-6.5 -30.5t7 -32.5q5 -16 4.5 -25t-3.5 -25t-3 -24q-10 -27 -10 -38t5.5 -30t6.5 -26q6 -64 25 -61q-10 -6 -45 -41 q-43 -43 -66 -45q-18 -3 -29 19t-14 61q-2 18 -2 59q0 54 6.5 129.5t13.5 131t15 110.5t8 59q1 12 7 35.5t7.5 36t-2.5 39.5q-2 15 -1 22.5t4 22t4 22.5q1 10 7 30.5t6 30.5t-5 37q-6 26 -5 43t4.5 45t2.5 44q-4 82 -19 114q-6 13 -23.5 20t-35.5 1q-19 -7 -64 -45 q-7 -7 -10.5 -3.5zM86 1374q0 4 25.5 22.5t31.5 18.5q1 0 9 -8q1 -1 0 -5t0 -5q12 -5 12 -11q-1 -5 1.5 -9.5t5.5 -7t3 -3.5q0 -4 -25.5 -22.5t-31.5 -18.5q-2 0 -6 8q-1 2 0 8t0 7q-1 2 -6.5 3t-6.5 3zM205 1374q0 4 25.5 22.5t31.5 18.5q1 0 3.5 -4t5.5 -9t5 -7 q1 -1 0.5 -4t-1 -5t0.5 -2q13 -5 13 -10q-1 -6 0 -7.5t3 -0.5t3 0q0 -4 -26.5 -22.5t-32.5 -18.5q-3 4 -7 8l-6 15q-8 12 -8 6zM215 1354q2 -2 2 0h-2z" />
<glyph unicode="&#xd0;" horiz-adv-x="1036" d="M-41 541q15 2 41 45q1 1 5.5 6.5t5.5 7t5 6.5t6 6.5t6 5t7 5t6.5 3.5t7.5 2.5t8 0.5q3 0 23.5 -1t34.5 -1l6 59q1 11 7 27t7 26.5t-6 38.5q-4 11 5.5 34.5t0.5 41.5q-5 17 -4 26t6 27t6 27l13 131q0 8 6 14q-18 -8 -70 -37q-28 -14 -27 -9q2 4 17 16q63 56 186 98l6 6v-4 q115 35 218 35q79 0 165 -25q6 -2 17.5 -9t21 -10.5t17.5 -0.5q16 5 27.5 -1t24 -20.5t19.5 -19.5q53 -37 90 -82q66 -81 97 -166q14 -38 0 -55q-14 -14 -11.5 -26t11 -18t18 -15.5t10.5 -18.5q5 -96 -29 -195t-97 -185.5t-143 -161t-173 -134.5q-153 -100 -268 -100 q-54 0 -99 26q-85 52 -90 277q-2 108 9 288q-10 3 -13 9q-10 6 -16 4.5t-18 -5.5t-21 -3q-62 4 -82 4zM203 236.5q-2 -10.5 3 -15t11.5 -10.5t7.5 -12q29 -172 166 -162q41 4 103 26q8 3 22.5 2t22.5 5q4 2 17.5 17t18.5 17q27 11 49 25.5t34 25.5t30 31q94 101 143 244 q3 9 13 30t13.5 37.5t0.5 37.5q-2 20 2.5 55.5t3.5 52.5q-3 47 -12 94q-26 110 -96 189q-66 75 -152 125q-8 4 -18.5 14.5t-23.5 16.5t-38 8q-18 1 -46.5 11.5t-39.5 12.5q-39 8 -84 8q-19 0 -65 -4q-6 -2 -19 -2q-2 -25 -19.5 -210t-23.5 -283q4 3 23.5 0.5t23.5 -2.5 q54 0 74 2q15 1 46.5 3t44 3.5t31.5 6.5t34 13q9 6 14 6h2q0 -5 -12 -14q-112 -104 -287 -113v-32q-6 -123 -6 -152q0 -9 4 -28.5t4.5 -29t-6.5 -24.5q-12 -15 -14 -25.5z" />
<glyph unicode="&#xd1;" horiz-adv-x="1003" d="M-10 1162q-1 4 4 9q69 80 137 82q25 3 62 -16q37 -21 53 -41q1 -1 17 -15t18 -24q3 -15 8.5 -21.5t13 -10t10.5 -7.5q80 -107 144 -209q3 -5 18 -41.5t33 -44.5q8 -4 12 -10.5t6.5 -16t5.5 -14.5l58 -102l43 -80q167 -332 182 -362q-2 41 -2 124q0 210 21 412 q7 117 26 219q1 3 10 31.5t9 48.5q0 12 4 25t7.5 20.5t12 23t10.5 19.5q1 2 11.5 11.5t11.5 25.5q15 3 20 10t7 17.5t6 15.5q91 95 176 92q-9 -2 -33 -29t-43 -26q-20 0 -41 -18.5t-31 -40.5q-32 -69 -53 -170q-28 -147 -37 -291q-1 -9 -5.5 -28.5t-5 -28t6.5 -23.5 q6 -12 5.5 -18.5t-4 -18.5t-3.5 -18q-5 -6 -5.5 -13t1.5 -15.5t2 -12.5q-2 -61 -2 -183q0 -9 -6 -18.5t-5.5 -15.5t13.5 -13q0 -10 -7.5 -32t-9.5 -34.5t9 -31.5q6 -6 8.5 -18t2.5 -20.5t-0.5 -24t-0.5 -19.5l8 -123q1 -7 -19.5 -22.5t-41.5 -26.5l-21 -12l-75 153 q-4 8 -5 22t-7 25.5t-23 22.5q-12 7 -18 38.5t-23 43.5q-6 4 -10.5 12t-8.5 19t-6 16q-61 119 -139 262q-2 4 -8.5 9.5t-9.5 12.5t0 19q2 16 -2 21t-10.5 6t-8.5 4q-77 134 -145 241l-37 60l-27 39v-49q0 -29 -4 -99q0 -4 -4.5 -20.5t-1.5 -24.5q6 -22 6 -31.5t-3.5 -33 t-4.5 -33.5q-5 -90 -16 -199l-13 -121q-1 -5 -3.5 -20.5t-2.5 -21.5t2 -21q4 -12 4 -26.5t-2 -32t-2 -27.5q1 -8 5 -22.5t4 -21t-5 -20.5q-3 -13 -3 -17.5t5 -18t6 -17.5q6 -32 26 -68.5t46 -45.5q11 -6 35.5 3t42.5 23q16 14 20 9q5 -4 -24 -33t-69.5 -51.5t-80.5 -22.5 q-34 0 -61 18q-57 38 -57 187q0 22 6 133q1 6 5.5 19t5 21t-4.5 27q-3 8 10 31t4 37q-6 10 -7.5 23.5t1 24t6 27.5t4.5 27q40 291 41 301q1 11 8.5 59.5t12 92t4.5 80.5q0 21 -2 31q-7 9 -49 51q-22 19 -32.5 27t-32 17.5t-40.5 6.5q-26 -6 -43 -23q-11 -13 -16 -7z M373 1356q-6 1 0 10q29 39 80 73t94 34q11 0 24 -2.5t34 -8.5t30 -8q3 -1 9 -2.5t9.5 -2.5t7.5 -3.5t7 -5.5q4 -6 10 -6t13 3t9 3q50 -3 76 26q10 10 13.5 5t-3.5 -15q-15 -27 -72 -60.5t-89 -33.5q-30 0 -72 10q-21 4 -29 17q-1 5 -14 2t-16 -2q-24 6 -45 6q-35 0 -60 -31 q-8 -10 -16 -8z" />
<glyph unicode="&#xd2;" horiz-adv-x="1216" d="M74 537q0 49 8 90q34 176 149 315q4 5 14 6.5t16.5 9t8.5 29.5q1 5 13 7.5t18 21.5q6 6 31 26q142 121 258 158q55 17 112 17q143 0 271 -103q6 -4 9 -17t9 -16q39 -21 60 -45q43 -53 65 -96q4 -6 7 -21.5t7.5 -25t12.5 -6.5q7 3 10.5 -8.5t1.5 -20.5q-4 -19 9 -42.5 t14 -27.5q26 -96 26 -184q0 -119 -43 -229.5t-127 -194.5q-157 -153 -284 -207q-69 -28 -146 -28q-162 0 -297 129q-4 4 -12 8.5t-15 11t-12 19.5q-15 37 -47 53q-16 8 -23.5 17.5t-11 22t-8.5 19.5q-104 152 -104 312zM197 616q0 -60 10 -104q1 -3 3.5 -12.5t3 -14 t0.5 -13.5t-3 -19q-4 -11 2 -19t27 -26q6 -6 11.5 -20t8.5 -19q33 -58 62 -93q43 -56 90 -100q5 -5 10.5 -15.5t14 -17.5t24.5 -10q8 -2 16 -7.5t16 -14t13 -11.5q5 -13 13.5 -18t19.5 -6.5t16 -3.5q89 -47 170 -47q111 0 201 90q6 6 17.5 15t20 20t15.5 28q2 6 7.5 10.5 t10.5 7t10 13t7 27.5q1 13 13 34t15 29q55 141 43 285q-1 8 3.5 21t2.5 24t-16 26q-6 7 -4.5 33.5t-15.5 40.5q-4 4 -6 9.5t-4 13t-3 10.5q3 17 0.5 23t-14 16t-14.5 16q-82 144 -209 234q-5 3 -8 12.5t-10 15.5t-23 6q-16 -2 -41 12t-35 33q-4 8 -15 8t-26 -3t-22 -2 q-141 24 -248 -89q-85 -90 -132.5 -201.5t-47.5 -226.5zM469 1434q0 1 6.5 5.5t20 13.5t24.5 17q7 5 16.5 14t15 13.5t14 8.5t12.5 -3q45 -45 94 -82q20 -14 28 -32q4 -11 11 -15t15.5 -5t12.5 -3q5 -2 14.5 -9t14.5 -9q1 0 -8 -8.5t-19 -17t-12 -9.5q-1 -1 -7 -6.5t-11 -9 t-14 -7t-19 -4.5q-31 2 -78 31q-3 2 -10 6t-11 6.5t-9 7t-7.5 10.5t-3.5 13q-2 18 -11 21.5t-18 -0.5t-16 1q-47 41 -45 52z" />
<glyph unicode="&#xd3;" horiz-adv-x="1216" d="M74 537q0 49 8 90q34 176 149 315q4 5 14 6.5t16.5 9t8.5 29.5q1 5 13 7.5t18 21.5q6 6 31 26q142 121 258 158q55 17 112 17q143 0 271 -103q6 -4 9 -17t9 -16q39 -21 60 -45q43 -53 65 -96q4 -6 7 -21.5t7.5 -25t12.5 -6.5q7 3 10.5 -8.5t1.5 -20.5q-4 -19 9 -42.5 t14 -27.5q26 -96 26 -184q0 -119 -43 -229.5t-127 -194.5q-157 -153 -284 -207q-69 -28 -146 -28q-162 0 -297 129q-4 4 -12 8.5t-15 11t-12 19.5q-15 37 -47 53q-16 8 -23.5 17.5t-11 22t-8.5 19.5q-104 152 -104 312zM197 616q0 -60 10 -104q1 -3 3.5 -12.5t3 -14 t0.5 -13.5t-3 -19q-4 -11 2 -19t27 -26q6 -6 11.5 -20t8.5 -19q33 -58 62 -93q43 -56 90 -100q5 -5 10.5 -15.5t14 -17.5t24.5 -10q8 -2 16 -7.5t16 -14t13 -11.5q5 -13 13.5 -18t19.5 -6.5t16 -3.5q89 -47 170 -47q111 0 201 90q6 6 17.5 15t20 20t15.5 28q2 6 7.5 10.5 t10.5 7t10 13t7 27.5q1 13 13 34t15 29q55 141 43 285q-1 8 3.5 21t2.5 24t-16 26q-6 7 -4.5 33.5t-15.5 40.5q-4 4 -6 9.5t-4 13t-3 10.5q3 17 0.5 23t-14 16t-14.5 16q-82 144 -209 234q-5 3 -8 12.5t-10 15.5t-23 6q-16 -2 -41 12t-35 33q-4 8 -15 8t-26 -3t-22 -2 q-141 24 -248 -89q-85 -90 -132.5 -201.5t-47.5 -226.5zM510 1341q58 24 135 93q6 5 12 3.5t11.5 1t5.5 13.5q0 5 22 27q12 12 15 14q9 0 36 -19t49 -38.5t21 -20.5q-58 -52 -59 -53q-5 -3 -11.5 0t-12.5 1.5t-7 -11.5q0 -14 -14 -23q-9 -5 -29 -12q-9 -3 -18 -11.5 t-11 -9.5l-51 -22q-6 0 -14 4t-13.5 8t-13.5 10l-8 7q-1 1 -6.5 5t-12 9.5t-12.5 11t-10.5 9t-3.5 3.5z" />
<glyph unicode="&#xd4;" horiz-adv-x="1216" d="M74 537q0 49 8 90q34 176 149 315q4 5 14 6.5t16.5 9t8.5 29.5q1 5 13 7.5t18 21.5q6 6 31 26q142 121 258 158q55 17 112 17q143 0 271 -103q6 -4 9 -17t9 -16q39 -21 60 -45q43 -53 65 -96q4 -6 7 -21.5t7.5 -25t12.5 -6.5q7 3 10.5 -8.5t1.5 -20.5q-4 -19 9 -42.5 t14 -27.5q26 -96 26 -184q0 -119 -43 -229.5t-127 -194.5q-157 -153 -284 -207q-69 -28 -146 -28q-162 0 -297 129q-4 4 -12 8.5t-15 11t-12 19.5q-15 37 -47 53q-16 8 -23.5 17.5t-11 22t-8.5 19.5q-104 152 -104 312zM197 616q0 -60 10 -104q1 -3 3.5 -12.5t3 -14 t0.5 -13.5t-3 -19q-4 -11 2 -19t27 -26q6 -6 11.5 -20t8.5 -19q33 -58 62 -93q43 -56 90 -100q5 -5 10.5 -15.5t14 -17.5t24.5 -10q8 -2 16 -7.5t16 -14t13 -11.5q5 -13 13.5 -18t19.5 -6.5t16 -3.5q89 -47 170 -47q111 0 201 90q6 6 17.5 15t20 20t15.5 28q2 6 7.5 10.5 t10.5 7t10 13t7 27.5q1 13 13 34t15 29q55 141 43 285q-1 8 3.5 21t2.5 24t-16 26q-6 7 -4.5 33.5t-15.5 40.5q-4 4 -6 9.5t-4 13t-3 10.5q3 17 0.5 23t-14 16t-14.5 16q-82 144 -209 234q-5 3 -8 12.5t-10 15.5t-23 6q-16 -2 -41 12t-35 33q-4 8 -15 8t-26 -3t-22 -2 q-141 24 -248 -89q-85 -90 -132.5 -201.5t-47.5 -226.5zM469 1335l23 29l18 25q2 3 7.5 5t9 6.5t3.5 14.5q0 5 4.5 11t12 12.5t10.5 9.5q2 2 17 19t22 26q5 8 47 8q41 0 49 -8l51 -66l3 -6q3 -6 10 -10q5 -2 18 -20q2 -2 7 -12.5t14 -14.5q4 -2 7 -5.5t6 -9t5 -8.5 q-37 -8 -53 2q-8 5 -16.5 13t-20.5 23.5t-19 24.5t-23.5 32t-21.5 30l-16 -22q-1 -1 -6 0t-10 -3.5t-4 -13.5q0 -4 -3.5 -10t-6.5 -10l-3 -4l-45 -57q-13 -19 -26 -19q-6 0 -14 1t-9 1q-2 0 -13.5 1t-23 2.5t-10.5 2.5z" />
<glyph unicode="&#xd5;" horiz-adv-x="1216" d="M74 537q0 49 8 90q34 176 149 315q4 5 14 6.5t16.5 9t8.5 29.5q1 5 13 7.5t18 21.5q6 6 31 26q142 121 258 158q55 17 112 17q143 0 271 -103q6 -4 9 -17t9 -16q39 -21 60 -45q43 -53 65 -96q4 -6 7 -21.5t7.5 -25t12.5 -6.5q7 3 10.5 -8.5t1.5 -20.5q-4 -19 9 -42.5 t14 -27.5q26 -96 26 -184q0 -119 -43 -229.5t-127 -194.5q-157 -153 -284 -207q-69 -28 -146 -28q-162 0 -297 129q-4 4 -12 8.5t-15 11t-12 19.5q-15 37 -47 53q-16 8 -23.5 17.5t-11 22t-8.5 19.5q-104 152 -104 312zM197 616q0 -60 10 -104q1 -3 3.5 -12.5t3 -14 t0.5 -13.5t-3 -19q-4 -11 2 -19t27 -26q6 -6 11.5 -20t8.5 -19q33 -58 62 -93q43 -56 90 -100q5 -5 10.5 -15.5t14 -17.5t24.5 -10q8 -2 16 -7.5t16 -14t13 -11.5q5 -13 13.5 -18t19.5 -6.5t16 -3.5q89 -47 170 -47q111 0 201 90q6 6 17.5 15t20 20t15.5 28q2 6 7.5 10.5 t10.5 7t10 13t7 27.5q1 13 13 34t15 29q55 141 43 285q-1 8 3.5 21t2.5 24t-16 26q-6 7 -4.5 33.5t-15.5 40.5q-4 4 -6 9.5t-4 13t-3 10.5q3 17 0.5 23t-14 16t-14.5 16q-82 144 -209 234q-5 3 -8 12.5t-10 15.5t-23 6q-16 -2 -41 12t-35 33q-4 8 -15 8t-26 -3t-22 -2 q-141 24 -248 -89q-85 -90 -132.5 -201.5t-47.5 -226.5zM457 1344q-6 1 0 10q29 39 80 72.5t94 33.5q14 0 88 -18q3 -1 9 -2.5t9.5 -2.5t7.5 -3.5t7 -6.5q4 -6 10 -6t13 3t9 3q50 -3 76 27q10 10 13.5 5t-3.5 -15q-15 -27 -72 -60.5t-89 -33.5q-30 0 -72 10q-22 4 -29 16 q-1 5 -14 2t-16 -2q-24 6 -46 6q-35 0 -59 -30q-8 -10 -16 -8z" />
<glyph unicode="&#xd6;" horiz-adv-x="1216" d="M74 537q0 49 8 90q34 176 149 315q4 5 14 6.5t16.5 9t8.5 29.5q1 5 13 7.5t18 21.5q6 6 31 26q142 121 258 158q55 17 112 17q143 0 271 -103q6 -4 9 -17t9 -16q39 -21 60 -45q43 -53 65 -96q4 -6 7 -21.5t7.5 -25t12.5 -6.5q7 3 10.5 -8.5t1.5 -20.5q-4 -19 9 -42.5 t14 -27.5q26 -96 26 -184q0 -119 -43 -229.5t-127 -194.5q-157 -153 -284 -207q-69 -28 -146 -28q-162 0 -297 129q-4 4 -12 8.5t-15 11t-12 19.5q-15 37 -47 53q-16 8 -23.5 17.5t-11 22t-8.5 19.5q-104 152 -104 312zM197 616q0 -60 10 -104q1 -3 3.5 -12.5t3 -14 t0.5 -13.5t-3 -19q-4 -11 2 -19t27 -26q6 -6 11.5 -20t8.5 -19q33 -58 62 -93q43 -56 90 -100q5 -5 10.5 -15.5t14 -17.5t24.5 -10q8 -2 16 -7.5t16 -14t13 -11.5q5 -13 13.5 -18t19.5 -6.5t16 -3.5q89 -47 170 -47q111 0 201 90q6 6 17.5 15t20 20t15.5 28q2 6 7.5 10.5 t10.5 7t10 13t7 27.5q1 13 13 34t15 29q55 141 43 285q-1 8 3.5 21t2.5 24t-16 26q-6 7 -4.5 33.5t-15.5 40.5q-4 4 -6 9.5t-4 13t-3 10.5q3 17 0.5 23t-14 16t-14.5 16q-82 144 -209 234q-5 3 -8 12.5t-10 15.5t-23 6q-16 -2 -41 12t-35 33q-4 8 -15 8t-26 -3t-22 -2 q-141 24 -248 -89q-85 -90 -132.5 -201.5t-47.5 -226.5zM594 1374q0 4 25.5 22.5t31.5 18.5l8 -8q1 -1 0 -5t0 -5q13 -5 13 -11q-1 -5 1.5 -9.5t5.5 -7t3 -3.5q0 -4 -25.5 -22.5t-31.5 -18.5q-3 0 -7 8q-1 2 0 8t0 7q-1 2 -6 3t-6 3zM713 1374q0 4 25.5 22.5t31.5 18.5 q1 0 3.5 -4t5.5 -9t5 -7q1 -1 0.5 -4t-1 -5t0.5 -2q13 -5 13 -10q-1 -6 0 -7.5t3 -0.5t3 0q0 -4 -27 -22.5t-33 -18.5q-2 4 -6 8l-6 15q-8 12 -8 6zM723 1354q2 -2 2 0h-2z" />
<glyph unicode="&#xd7;" horiz-adv-x="665" d="M94 178l49 60l37 43q5 5 13.5 10t16 13.5t13.5 25.5q2 6 6.5 11t12 10.5t10.5 8.5l12 15l-43 51q-4 5 -7 15t-9.5 18t-22.5 14q-6 3 -10.5 8.5t-9 14t-8.5 12.5l-37 43q-1 1 8 9t23 19t30 23q39 27 47 27h2l19 -23l9.5 -9.5t11 -12.5t5.5 -11q3 -14 7.5 -19.5t10.5 -7.5 t9 -5l20 -31q3 -4 9 -8t8 -6l18 -23l78 88q17 22 51 41q48 21 58 31l-64 -74q-26 -31 -45 -39q-14 -6 -21 -25t-12 -24l-22 -25l74 -88q2 -2 12 -11.5t12 -16.5q4 -13 9 -19.5t12 -11t10 -8.5l37 -45q3 -6 -49 -45q-49 -35 -60 -35l-2 2q-3 4 -7 13.5t-7 13.5l-21 16 q-2 3 -8.5 14t-12.5 18.5t-11 8.5q-9 1 -13.5 6.5t-8.5 15t-9 15.5l-47 57l-82 -94q-13 -16 -33 -29q-13 -8 -42 -22.5t-36 -22.5z" />
<glyph unicode="&#xd8;" horiz-adv-x="1216" d="M74 537q0 49 8 90q34 176 149 315q4 5 14 6.5t16.5 9t8.5 29.5q1 5 13 7.5t18 21.5q6 6 31 26q142 121 258 158q55 17 112 17q100 0 193 -52q6 3 14.5 7.5t13.5 7.5t10.5 5t9 2t5.5 -3q5 -13 -14 -43q21 -12 39 -27q6 -4 9 -17t9 -16q39 -21 60 -45q43 -53 65 -96 q4 -6 7 -21.5t7.5 -25t12.5 -6.5q7 3 10.5 -8.5t1.5 -20.5q-4 -19 9 -42.5t14 -27.5q26 -96 26 -184q0 -119 -43 -229.5t-127 -194.5q-157 -153 -284 -207q-69 -28 -146 -28q-94 0 -182 45q-10 -6 -23 -14.5t-16 -10.5q-16 -10 -7 12q4 11 15 31q-43 25 -84 66q-4 4 -12 8.5 t-15 11t-12 19.5q-15 37 -47 53q-16 8 -23.5 17.5t-11 22t-8.5 19.5q-104 152 -104 312zM197 616q0 -60 10 -104q1 -3 3.5 -12.5t3 -14t0.5 -13.5t-3 -19q-4 -11 2 -19t27 -26q6 -6 11.5 -20t8.5 -19q33 -58 62 -93q43 -56 90 -100q4 -4 12.5 -19t21.5 -20l261 656 q1 4 11.5 23.5t14.5 43.5q1 7 8.5 13t12 15t0.5 25q-2 6 1 14t9 17.5t8 13.5q26 62 35 91q-2 0 -2 2q-5 3 -8 12.5t-10 15.5t-23 6q-16 -2 -41 12t-35 33q-4 8 -15 8t-26 -3t-22 -2q-141 24 -248 -89q-85 -90 -132.5 -201.5t-47.5 -226.5zM510 90q7 -10 25.5 -14t19.5 -4 q89 -47 170 -47q111 0 201 90q6 6 17.5 15t20 20t15.5 28q2 6 7.5 10.5t10.5 7t10 13t7 27.5q1 13 13 34t15 29q55 141 43 285q-1 8 3.5 21t2.5 24t-16 26q-6 7 -4.5 33.5t-15.5 40.5q-4 4 -6 9.5t-4 13t-3 10.5q3 17 0.5 23t-14 16t-14.5 16q-60 102 -144 180 q-18 -46 -114.5 -285t-147.5 -366q-2 -5 -9.5 -7t-8.5 -13q-4 -34 -6 -39q-42 -106 -52 -133q-2 -3 -8.5 -11.5t-8 -13t0.5 -14.5q0 -10 -6 -25z" />
<glyph unicode="&#xd9;" horiz-adv-x="1110" d="M109 1092q-1 4 8 12q32 27 86 55q75 44 112 12q21 -21 27 -63q3 -30 -10 -68q-5 -11 2.5 -16.5t7.5 -9.5t-1 -17.5t-1 -17.5q-3 -44 -22.5 -208.5t-20.5 -254.5q-4 -133 18 -223q2 -10 0 -16t1.5 -16t15.5 -21q3 -2 0 -9t-7 -13t-1 -13.5t16 -11.5q7 -2 13.5 -6.5t9 -6.5 t9 -10.5t7.5 -9.5q49 -59 125 -76q62 -14 117 5t96 63t70 95t51 111q2 21 22 142q1 8 6 15t6 11q0 2 -2 18.5t-1.5 38t8.5 40.5q4 7 5 17t0.5 24t0.5 22l6 43q1 5 6 18t6.5 20.5t-2.5 18.5q-9 15 -10.5 25t2.5 21.5t4 15.5q16 202 10 227q-5 18 -19 29t-26 2q14 21 35 39 q47 41 70 47q22 6 36.5 -10t22.5 -49q8 -39 8 -109q0 -4 -6.5 -14t-8.5 -17t7 -18q4 -3 4.5 -10t-1 -17.5t-1.5 -13.5q-7 -100 -29 -238l-24 -168q-1 -8 -7.5 -23.5t-7.5 -24t3 -27.5q4 -17 2.5 -25.5t-7 -27t-6.5 -27.5q-4 -32 -4 -68q0 -148 51 -199q40 -37 105 3 q17 10 17 4q1 -4 -11 -15q-24 -21 -86 -59q-96 -58 -143 -14q-50 45 -50 186v33q-88 -126 -227 -203q-90 -49 -172 -49q-108 0 -174 88q-27 38 -45 78q-3 6 -18 51q-2 8 0 15t0 15.5t-11 14.5q9 10 10 19.5t-4 15.5t-10 14.5t-6 15.5q-4 54 -4 80q0 54 5.5 113t16 137 t13.5 103q2 6 4 34q0 3 5 13t8.5 18.5t0.5 11.5q-6 6 -7.5 10.5t-1 7.5t2 8t2.5 9q8 11 8.5 19t-2.5 15t-2 13q2 23 2 66q0 99 -28 121q-25 21 -68 -4q-16 -10 -18 -2zM438 1444q0 1 6.5 5.5t20 14t24.5 17.5q7 5 16.5 14t15 13.5t14 8t12.5 -3.5q40 -40 94 -81 q21 -15 29 -33q4 -11 11 -15t15.5 -5t12.5 -3q5 -2 14 -9t14 -9q1 0 -8 -8.5t-19 -17t-12 -9.5q-1 -1 -7 -6.5t-11 -9t-14 -7t-19 -4.5q-31 2 -78 31q-3 2 -10 6t-11 6.5t-9 7t-7.5 10.5t-3.5 13q-2 18 -11 22t-18 0t-16 1q-2 2 -10.5 9t-13 11t-10.5 10.5t-9 11.5t-2 9z " />
<glyph unicode="&#xda;" horiz-adv-x="1110" d="M109 1092q-1 4 8 12q32 27 86 55q75 44 112 12q21 -21 27 -63q3 -30 -10 -68q-5 -11 2.5 -16.5t7.5 -9.5t-1 -17.5t-1 -17.5q-3 -44 -22.5 -208.5t-20.5 -254.5q-4 -133 18 -223q2 -10 0 -16t1.5 -16t15.5 -21q3 -2 0 -9t-7 -13t-1 -13.5t16 -11.5q7 -2 13.5 -6.5t9 -6.5 t9 -10.5t7.5 -9.5q49 -59 125 -76q62 -14 117 5t96 63t70 95t51 111q2 21 22 142q1 8 6 15t6 11q0 2 -2 18.5t-1.5 38t8.5 40.5q4 7 5 17t0.5 24t0.5 22l6 43q1 5 6 18t6.5 20.5t-2.5 18.5q-9 15 -10.5 25t2.5 21.5t4 15.5q16 202 10 227q-5 18 -19 29t-26 2q14 21 35 39 q47 41 70 47q22 6 36.5 -10t22.5 -49q8 -39 8 -109q0 -4 -6.5 -14t-8.5 -17t7 -18q4 -3 4.5 -10t-1 -17.5t-1.5 -13.5q-7 -100 -29 -238l-24 -168q-1 -8 -7.5 -23.5t-7.5 -24t3 -27.5q4 -17 2.5 -25.5t-7 -27t-6.5 -27.5q-4 -32 -4 -68q0 -148 51 -199q40 -37 105 3 q17 10 17 4q1 -4 -11 -15q-24 -21 -86 -59q-96 -58 -143 -14q-50 45 -50 186v33q-88 -126 -227 -203q-90 -49 -172 -49q-108 0 -174 88q-27 38 -45 78q-3 6 -18 51q-2 8 0 15t0 15.5t-11 14.5q9 10 10 19.5t-4 15.5t-10 14.5t-6 15.5q-4 54 -4 80q0 54 5.5 113t16 137 t13.5 103q2 6 4 34q0 3 5 13t8.5 18.5t0.5 11.5q-6 6 -7.5 10.5t-1 7.5t2 8t2.5 9q8 11 8.5 19t-2.5 15t-2 13q2 23 2 66q0 99 -28 121q-25 21 -68 -4q-16 -10 -18 -2zM446 1364q62 25 136 92q4 4 11.5 3.5t12 2t4.5 13.5q0 4 4 8.5t11 10.5t8 7t5.5 7t8.5 8q9 0 36 -19 t49.5 -38.5t21.5 -20.5l-60 -54q-5 -3 -11 0t-12 1.5t-7 -11.5q0 -12 -15 -22q-14 -8 -28 -13q-9 -3 -18 -11t-11 -9l-51 -23q-6 0 -14 4t-13.5 8t-13.5 10l-8 7q-1 1 -6.5 5t-12 9.5l-13 11t-11 9.5t-3.5 4z" />
<glyph unicode="&#xdb;" horiz-adv-x="1110" d="M109 1092q-1 4 8 12q32 27 86 55q75 44 112 12q21 -21 27 -63q3 -30 -10 -68q-5 -11 2.5 -16.5t7.5 -9.5t-1 -17.5t-1 -17.5q-3 -44 -22.5 -208.5t-20.5 -254.5q-4 -133 18 -223q2 -10 0 -16t1.5 -16t15.5 -21q3 -2 0 -9t-7 -13t-1 -13.5t16 -11.5q7 -2 13.5 -6.5t9 -6.5 t9 -10.5t7.5 -9.5q49 -59 125 -76q62 -14 117 5t96 63t70 95t51 111q2 21 22 142q1 8 6 15t6 11q0 2 -2 18.5t-1.5 38t8.5 40.5q4 7 5 17t0.5 24t0.5 22l6 43q1 5 6 18t6.5 20.5t-2.5 18.5q-9 15 -10.5 25t2.5 21.5t4 15.5q16 202 10 227q-5 18 -19 29t-26 2q14 21 35 39 q47 41 70 47q22 6 36.5 -10t22.5 -49q8 -39 8 -109q0 -4 -6.5 -14t-8.5 -17t7 -18q4 -3 4.5 -10t-1 -17.5t-1.5 -13.5q-7 -100 -29 -238l-24 -168q-1 -8 -7.5 -23.5t-7.5 -24t3 -27.5q4 -17 2.5 -25.5t-7 -27t-6.5 -27.5q-4 -32 -4 -68q0 -148 51 -199q40 -37 105 3 q17 10 17 4q1 -4 -11 -15q-24 -21 -86 -59q-96 -58 -143 -14q-50 45 -50 186v33q-88 -126 -227 -203q-90 -49 -172 -49q-108 0 -174 88q-27 38 -45 78q-3 6 -18 51q-2 8 0 15t0 15.5t-11 14.5q9 10 10 19.5t-4 15.5t-10 14.5t-6 15.5q-4 54 -4 80q0 54 5.5 113t16 137 t13.5 103q2 6 4 34q0 3 5 13t8.5 18.5t0.5 11.5q-6 6 -7.5 10.5t-1 7.5t2 8t2.5 9q8 11 8.5 19t-2.5 15t-2 13q2 23 2 66q0 99 -28 121q-25 21 -68 -4q-16 -10 -18 -2zM438 1335l23 29l18 25q2 3 8 5t9.5 6.5t3.5 14.5q0 5 4.5 11t11.5 12.5t10 9.5q2 2 17 19t22 26 q5 8 47 8t50 -8l51 -66q1 -1 3 -6.5t9 -9.5q5 -2 18 -20q2 -2 7 -12.5t14 -14.5q4 -2 7 -5.5t6 -9t5 -8.5q-37 -8 -53 2q-8 5 -17 13.5t-20 23t-19 25t-22.5 31t-21.5 30.5l-17 -22q-1 -1 -6 0t-10 -3.5t-4 -13.5q0 -4 -3 -10t-6 -10l-3 -4l-45 -57q-13 -19 -27 -19 q-6 0 -14 1t-9 1q-2 0 -13.5 1t-23 2.5t-10.5 2.5z" />
<glyph unicode="&#xdc;" horiz-adv-x="1110" d="M109 1092q-1 4 8 12q32 27 86 55q75 44 112 12q21 -21 27 -63q3 -30 -10 -68q-5 -11 2.5 -16.5t7.5 -9.5t-1 -17.5t-1 -17.5q-3 -44 -22.5 -208.5t-20.5 -254.5q-4 -133 18 -223q2 -10 0 -16t1.5 -16t15.5 -21q3 -2 0 -9t-7 -13t-1 -13.5t16 -11.5q7 -2 13.5 -6.5t9 -6.5 t9 -10.5t7.5 -9.5q49 -59 125 -76q62 -14 117 5t96 63t70 95t51 111q2 21 22 142q1 8 6 15t6 11q0 2 -2 18.5t-1.5 38t8.5 40.5q4 7 5 17t0.5 24t0.5 22l6 43q1 5 6 18t6.5 20.5t-2.5 18.5q-9 15 -10.5 25t2.5 21.5t4 15.5q16 202 10 227q-5 18 -19 29t-26 2q14 21 35 39 q47 41 70 47q22 6 36.5 -10t22.5 -49q8 -39 8 -109q0 -4 -6.5 -14t-8.5 -17t7 -18q4 -3 4.5 -10t-1 -17.5t-1.5 -13.5q-7 -100 -29 -238l-24 -168q-1 -8 -7.5 -23.5t-7.5 -24t3 -27.5q4 -17 2.5 -25.5t-7 -27t-6.5 -27.5q-4 -32 -4 -68q0 -148 51 -199q40 -37 105 3 q17 10 17 4q1 -4 -11 -15q-24 -21 -86 -59q-96 -58 -143 -14q-50 45 -50 186v33q-88 -126 -227 -203q-90 -49 -172 -49q-108 0 -174 88q-27 38 -45 78q-3 6 -18 51q-2 8 0 15t0 15.5t-11 14.5q9 10 10 19.5t-4 15.5t-10 14.5t-6 15.5q-4 54 -4 80q0 54 5.5 113t16 137 t13.5 103q2 6 4 34q0 3 5 13t8.5 18.5t0.5 11.5q-6 6 -7.5 10.5t-1 7.5t2 8t2.5 9q8 11 8.5 19t-2.5 15t-2 13q2 23 2 66q0 99 -28 121q-25 21 -68 -4q-16 -10 -18 -2zM516 1386q0 4 25.5 22.5t31.5 18.5q1 0 9 -8q1 -1 0 -5t0 -5q12 -5 12 -10q-1 -4 0.5 -8t3.5 -6.5t4 -4 t2 -2.5q0 -4 -25.5 -22.5t-31.5 -18.5q-1 0 -6 9q-1 2 0 7.5t0 6.5q-1 2 -6.5 3t-6.5 3zM635 1386q0 4 25.5 22.5t31.5 18.5q1 0 4 -4t6 -9t5 -7q1 -1 0.5 -3.5t-1 -4.5t0.5 -2q12 -5 12 -11q-1 -6 0 -7.5t3 -0.5t3 0q0 -4 -26.5 -22.5t-32.5 -18.5q-3 5 -7 9l-6 14 q-8 12 -8 6zM645 1366q2 -2 2 0h-2z" />
<glyph unicode="&#xdd;" horiz-adv-x="888" d="M-20 1090.5q-4 3.5 2 9.5q67 74 122 74q47 0 93 -52q92 -104 186 -299q2 -3 3.5 -5.5t2.5 -3.5t2 -3.5t1.5 -6.5t1.5 -10.5t1 -17.5q0 -35 25 -49q11 -6 15.5 -13t6 -15.5t4.5 -12.5q8 -17 25 -50.5t28 -58.5t17 -49q117 110 176 195q3 5 12 8.5t14 11t3 23.5q-1 8 4 16 t13 17.5t12 15.5q34 69 41 117q2 9 -5 36.5t2 32.5q9 16 8.5 20t-9.5 8.5t-11 8.5q-8 22 -35 49q-22 22 -46.5 36t-53 17.5t-51.5 -14.5l-16 -11q-17 -11 -32 -19.5t-18 -5.5q-3 5 23.5 27.5t32.5 25.5q105 72 163 78q12 2 28.5 -1.5t21.5 -11.5q8 -13 13.5 -15.5t8 1.5 t6.5 7.5t8 0.5q22 -13 39 -33q12 -12 23 -34q8 -16 16 -52q-10 -8 -4.5 -42t4.5 -44q-6 -36 -20 -69q-57 -123 -164 -246q-7 -7 -13.5 -3t-13.5 1t-10 -21q-1 -8 -5.5 -17t-9.5 -16t-14.5 -17t-14.5 -15t-16.5 -15t-13.5 -12l-59 -57l-31 -29v-16q-9 -150 -8 -193 q0 -6 3 -15.5t3.5 -15.5t-4.5 -24q-4 -8 3 -25t7 -20q-8 -10 -9.5 -19t1.5 -14l7.5 -12.5t6.5 -11.5q20 -66 66 -72q-12 -18 -43 -43q-30 -26 -51 -23q-26 3 -43 27q-4 5 -9 23t-14 24q-9 5 -11.5 15t-1 26.5t0.5 22.5q-6 53 -6 108q0 52 6 127q3 82 0 111q-1 8 -12 32.5 t-8 41.5q0 1 2.5 7.5t2.5 10t-4.5 8t-15.5 8.5q-6 14 -45 90q-12 24 -80 146q-20 32 -20 57q-1 23 -8.5 30.5t-18 9t-14.5 7.5q2 17 -5.5 29.5t-21 25.5t-18.5 21q-26 42 -66 82q-35 35 -59.5 40t-44.5 -15q-6 -5 -10 -1.5zM324 1354q60 25 135 92q5 5 11.5 3.5t11.5 1 t5 13.5q0 4 4 8.5t11 11.5l8 7q1 1 3.5 4t5 5.5t5.5 4.5q9 0 36 -19t49.5 -38.5t21.5 -20.5q-50 -45 -60 -53q-5 -3 -11 0t-12 1.5t-7 -11.5q0 -13 -15 -23q-10 -6 -28 -12q-9 -3 -18 -11t-11 -9l-51 -23q-6 0 -14 4t-13.5 8t-13.5 10l-8 7q-1 1 -6.5 5t-12 9.5t-12.5 11 t-10.5 9.5t-3.5 4z" />
<glyph unicode="&#xde;" horiz-adv-x="1026" d="M52.5 1071.5q-3.5 3.5 4.5 13.5q64 64 113 97q97 66 129 16q32 -52 35 -147q103 47 215 53q90 4 174 -28t143 -93q1 -1 5.5 -16t27.5 -23q7 -3 11.5 -9.5t7.5 -17t6 -14.5q34 -64 34 -147q0 -22 -8 -72q-1 -5 -8 -15t-8.5 -16t2.5 -18q4 -3 1.5 -11.5t-4.5 -13 t-7.5 -13.5t-7.5 -13q-67 -149 -208 -240.5t-300 -91.5q-79 0 -146 20q-2 -8 -2 -22q-10 -27 -10 -38t5.5 -30t6.5 -26q6 -65 25 -62q-10 -6 -45 -41q-43 -43 -66 -45q-18 -3 -29 19t-14 61q-2 18 -2 59q0 54 6.5 129.5t13.5 131t15 111t8 59.5q1 12 7 35t7.5 35.5 t-2.5 39.5q-2 15 -1 23t4 22.5t4 22.5q1 10 7 30.5t6 30.5t-5 37q-6 26 -5 42.5t4.5 44.5t2.5 44q-4 83 -19 115q-6 13 -23.5 19.5t-35.5 0.5q-19 -7 -64 -45q-7 -7 -10.5 -3.5zM266 399l23 -10q4 -2 9 -8t11.5 -8.5t18.5 0.5q6 2 10.5 -7l9 -18t10.5 -6q12 6 25 7.5 t20.5 0.5t21 -4t19.5 -4q40 -6 80 -6q64 0 113 14q95 25 149.5 121.5t49.5 204.5q-4 107 -56 182.5t-135 116.5q-5 2 -15 3.5t-18.5 7t-19.5 20.5q-5 7 -17 7.5t-27 -1t-22 -0.5q-7 14 -18 15.5t-27 -4t-24 -5.5q-74 0 -123 -12q-1 -34 -8.5 -92t-8.5 -66q-21 -141 -38 -334 l-9 -96q0 -7 -4 -19z" />
<glyph unicode="&#xdf;" horiz-adv-x="784" d="M5 -478q-2 4 3 9q32 28 45 63q39 98 39 259q0 45 -4 135.5t-4 134.5v242q0 6 6 14.5t6 17t-12 21.5q-9 10 -9 25.5t4.5 35t4.5 29.5q0 18 1 54t1 54q1 12 8 32.5t8 31.5t-10 39q-5 16 -4.5 25t5 27.5t5.5 27.5q1 18 5 77.5t6 81t8 71t13.5 79t20 70t29.5 77.5 q46 103 150.5 187t208.5 84q49 0 90.5 -25t67 -64t39.5 -84t14 -87q0 -125 -91 -244q-23 -30 -77 -75.5t-84.5 -87t-30.5 -95.5q0 -73 32 -137t91 -133q1 -2 18 -11.5t21 -31.5q2 -16 26.5 -37.5t28.5 -26.5q5 -7 20.5 -21t23 -27t5.5 -30q-1 -14 9 -37.5t10 -35.5 q0 -93 -94 -178t-187 -85q-26 0 -63 11q-4 1 -13 3t-15 3.5t-12.5 4t-10 6.5t-3.5 9q-1 24 -24.5 34.5t-26.5 14.5q-37 53 -37 115q0 20 51 43q12 6 24 16t19.5 16.5t10.5 6.5q7 -1 7 -16.5t6 -43.5t26 -53q73 -88 153 -88q39 0 57.5 22.5t18.5 59.5q0 68 -45 135 q-15 22 -102 127q-8 10 -3.5 19.5t-3 22.5t-34.5 22q-7 2 -13 5.5t-10.5 9.5t-7 9.5t-7.5 12.5t-7 12q-56 90 -56 162q0 50 29 98q24 39 62.5 80t70.5 73t62 70.5t47.5 89.5t17.5 113q0 68 -31 123q-3 4 -3 19.5t-8.5 25t-33.5 10.5q-13 0 -30.5 21t-22.5 24q-54 35 -94 35 q-94 0 -156 -207q-3 -10 -4 -26.5t-7 -30t-24 -31.5q-8 -8 -8 -23t2.5 -33.5t1.5 -27.5q-31 -177 -31 -499q0 -14 -4 -40t-4 -47t8 -38q6 -14 6 -31.5t-3 -39.5t-3 -34q0 -10 -4 -25.5t-4 -30.5t8 -34q4 -7 4 -16.5t-2 -21t-2 -17.5v-162q0 -14 -5 -41t-4.5 -49.5 t12.5 -46.5q6 -13 6.5 -28t-3 -36.5t-3.5 -29.5q-11 -173 -107 -250q-6 -5 -16.5 -14t-12.5 -10.5t-8.5 -5.5t-11 -6t-12.5 -5q-17 -6 -20 3z" />
<glyph unicode="&#xe0;" horiz-adv-x="587" d="M43 293q8 108 47.5 211.5t106.5 179.5l9 5q9 5 13 20q2 6 14.5 11t20.5 17t39 25q69 37 147 31q62 -7 86 -45q2 -3 -2 -20t8 -21q20 -12 11 -78q-1 -10 -5 -31.5t-10.5 -57.5t-11.5 -63q-1 -7 -8 -21.5t-7.5 -22t5.5 -25.5q3 -10 2.5 -15.5t-4 -17.5t-4.5 -17 q-8 -78 -8 -114q0 -82 20 -123q19 -39 51 -39q-4 -2 -11 -8.5t-19 -19t-17 -17.5q-37 -33 -55 -33q-30 0 -51 31l-8.5 8.5t-7.5 9t1 8.5q7 12 5.5 17t-8 13.5t-7.5 14.5q-4 23 -4 70q-34 -52 -76 -94q-123 -123 -180 -86q-46 28 -66 104q-1 4 1 9.5t4 10t-1 10t-12 9.5 q-5 3 -6 9t0 15t0 13q-6 61 -2 117zM139.5 319.5q-2.5 -8.5 7.5 -26.5q8 -10 11 -24.5t3.5 -34t0.5 -21.5q-5 -16 -4.5 -22t7 -17t7.5 -16q12 -44 30.5 -70.5t33.5 -19.5q41 22 85.5 102.5t73.5 177.5q18 95 27 168q1 7 6 18.5t6 18.5t-6 25q-5 9 0.5 30t-0.5 25 q-10 6 -7.5 23t1.5 20q-7 17 -14 22q-30 23 -64 23q-60 0 -100 -47q-65 -73 -80 -258q-4 -28 -4 -43q-1 -11 -9.5 -28t-11 -25.5zM221 1038q0 1 6.5 5.5t20 14t24.5 17.5q7 5 16.5 14t15 13.5t14 8.5t12.5 -3q45 -44 94 -82q21 -15 29 -33q4 -11 11 -15t15.5 -4.5t12.5 -2.5 q5 -2 14 -9.5t14 -9.5q1 0 -8 -8t-19 -16.5t-12 -9.5q-1 -1 -7 -6.5t-11 -9t-14 -7t-19 -4.5q-31 2 -78 31q-3 2 -10 6t-11 6.5t-9 7t-7.5 10.5t-3.5 13q-2 18 -11 21.5t-18 -0.5t-16 1q-2 2 -10.5 9t-13 11t-10.5 10.5t-9 11.5t-2 9z" />
<glyph unicode="&#xe1;" horiz-adv-x="587" d="M43 293q8 108 47.5 211.5t106.5 179.5l9 5q9 5 13 20q2 6 14.5 11t20.5 17t39 25q69 37 147 31q62 -7 86 -45q2 -3 -2 -20t8 -21q20 -12 11 -78q-1 -10 -5 -31.5t-10.5 -57.5t-11.5 -63q-1 -7 -8 -21.5t-7.5 -22t5.5 -25.5q3 -10 2.5 -15.5t-4 -17.5t-4.5 -17 q-8 -78 -8 -114q0 -82 20 -123q19 -39 51 -39q-4 -2 -11 -8.5t-19 -19t-17 -17.5q-37 -33 -55 -33q-30 0 -51 31l-8.5 8.5t-7.5 9t1 8.5q7 12 5.5 17t-8 13.5t-7.5 14.5q-4 23 -4 70q-34 -52 -76 -94q-123 -123 -180 -86q-46 28 -66 104q-1 4 1 9.5t4 10t-1 10t-12 9.5 q-5 3 -6 9t0 15t0 13q-6 61 -2 117zM139.5 319.5q-2.5 -8.5 7.5 -26.5q8 -10 11 -24.5t3.5 -34t0.5 -21.5q-5 -16 -4.5 -22t7 -17t7.5 -16q12 -44 30.5 -70.5t33.5 -19.5q41 22 85.5 102t73.5 176q20 109 27 170q1 7 6 18.5t6 18.5t-6 25q-5 9 0.5 30t-0.5 25q-10 6 -7.5 23 t1.5 20q-7 17 -14 22q-30 23 -64 23q-60 0 -100 -47q-65 -73 -80 -258q-4 -28 -4 -43q-1 -11 -9.5 -28t-11 -25.5zM205 961q60 25 135 92q6 5 12 3.5t11.5 1t5.5 13.5q0 5 22 27q12 12 15 14q9 0 36 -19t49 -38.5t21 -20.5q-58 -52 -59 -53q-5 -3 -11.5 0t-12.5 1.5 t-7 -11.5q0 -14 -14 -23q-9 -5 -29 -12q-9 -3 -18 -11.5t-11 -9.5l-51 -22q-6 0 -14 4t-13.5 8t-13.5 11l-8 6q-1 1 -6.5 5t-12 9.5t-12.5 11t-10.5 9.5t-3.5 4z" />
<glyph unicode="&#xe2;" horiz-adv-x="587" d="M43 293q8 108 47.5 211.5t106.5 179.5l9 5q9 5 13 20q2 6 14.5 11t20.5 17t39 25q69 37 147 31q62 -7 86 -45q2 -3 -2 -20t8 -21q20 -12 11 -78q-1 -10 -5 -31.5t-10.5 -57.5t-11.5 -63q-1 -7 -8 -21.5t-7.5 -22t5.5 -25.5q3 -10 2.5 -15.5t-4 -17.5t-4.5 -17 q-8 -78 -8 -114q0 -82 20 -123q19 -39 51 -39q-4 -2 -11 -8.5t-19 -19t-17 -17.5q-37 -33 -55 -33q-30 0 -51 31l-8.5 8.5t-7.5 9t1 8.5q7 12 5.5 17t-8 13.5t-7.5 14.5q-4 23 -4 70q-34 -52 -76 -94q-123 -123 -180 -86q-46 28 -66 104q-1 4 1 9.5t4 10t-1 10t-12 9.5 q-5 3 -6 9t0 15t0 13q-6 61 -2 117zM139.5 319.5q-2.5 -8.5 7.5 -26.5q8 -10 11 -24.5t3.5 -34t0.5 -21.5q-5 -16 -4.5 -22t7 -17t7.5 -16q12 -44 30.5 -70.5t33.5 -19.5q41 22 85.5 102.5t73.5 177.5q18 95 27 168q1 7 6 18.5t6 18.5t-6 25q-5 9 0.5 30t-0.5 25 q-10 6 -7.5 23t1.5 20q-7 17 -14 22q-30 23 -64 23q-60 0 -100 -47q-65 -73 -80 -258q-4 -28 -4 -43q-1 -11 -9.5 -28t-11 -25.5zM223 897l23 29l18 24q2 3 8 5t9.5 7t3.5 15q0 5 4.5 11t11.5 12.5t10 9.5q2 2 17 19t22 26q5 8 47 8q41 0 49 -8l52 -66q1 -1 3 -6.5t9 -9.5 q4 -2 18 -21q2 -2 7 -12t14 -14q4 -2 7 -5.5t6 -9t5 -8.5q-37 -8 -53 2q-8 5 -17 13.5t-20 23t-19 25t-22.5 31t-21.5 30.5l-17 -22q-1 -1 -6 0t-10 -3.5t-4 -13.5q0 -4 -3 -10t-6 -10l-3 -4l-46 -58q-12 -18 -26 -18q-6 0 -14 1t-9 1q-2 0 -13.5 1t-23 2.5t-10.5 2.5z" />
<glyph unicode="&#xe3;" horiz-adv-x="587" d="M43 293q8 108 47.5 211.5t106.5 179.5l9 5q9 5 13 20q2 6 14.5 11t20.5 17t39 25q69 37 147 31q62 -7 86 -45q2 -3 -2 -20t8 -21q20 -12 11 -78q-1 -10 -5 -31.5t-10.5 -57.5t-11.5 -63q-1 -7 -8 -21.5t-7.5 -22t5.5 -25.5q3 -10 2.5 -15.5t-4 -17.5t-4.5 -17 q-8 -78 -8 -114q0 -82 20 -123q19 -39 51 -39q-4 -2 -11 -8.5t-19 -19t-17 -17.5q-37 -33 -55 -33q-30 0 -51 31l-8.5 8.5t-7.5 9t1 8.5q7 12 5.5 17t-8 13.5t-7.5 14.5q-4 23 -4 70q-34 -52 -76 -94q-123 -123 -180 -86q-46 28 -66 104q-1 4 1 9.5t4 10t-1 10t-12 9.5 q-5 3 -6 9t0 15t0 13q-6 61 -2 117zM139.5 319.5q-2.5 -8.5 7.5 -26.5q8 -10 11 -24.5t3.5 -34t0.5 -21.5q-5 -16 -4.5 -22t7 -17t7.5 -16q12 -44 30.5 -70.5t33.5 -19.5q41 22 85.5 102.5t73.5 177.5q18 95 27 168q1 7 6 18.5t6 18.5t-6 25q-5 9 0.5 30t-0.5 25 q-10 6 -7.5 23t1.5 20q-7 17 -14 22q-30 23 -64 23q-60 0 -100 -47q-65 -73 -80 -258q-4 -28 -4 -43q-1 -11 -9.5 -28t-11 -25.5zM178 895q-6 2 0 10q29 39 80 73t94 34q11 0 24 -2.5t34 -8.5t30 -8q3 -1 9 -2.5t9.5 -2.5t7.5 -3.5t7 -5.5q4 -6 10.5 -6t13.5 3t9 3 q50 -3 76 27q11 11 14 3q1 -6 -4 -14q-15 -27 -72.5 -60.5t-89.5 -33.5q-30 0 -72 10q-20 4 -28 17q-1 5 -15 2t-16 -2q-24 6 -45 6q-34 0 -59 -31q-8 -10 -17 -8z" />
<glyph unicode="&#xe4;" horiz-adv-x="587" d="M43 293q8 108 47.5 211.5t106.5 179.5l9 5q9 5 13 20q2 6 14.5 11t20.5 17t39 25q69 37 147 31q62 -7 86 -45q2 -3 -2 -20t8 -21q20 -12 11 -78q-1 -10 -5 -31.5t-10.5 -57.5t-11.5 -63q-1 -7 -8 -21.5t-7.5 -22t5.5 -25.5q3 -10 2.5 -15.5t-4 -17.5t-4.5 -17 q-8 -78 -8 -114q0 -82 20 -123q19 -39 51 -39q-4 -2 -11 -8.5t-19 -19t-17 -17.5q-37 -33 -55 -33q-30 0 -51 31l-8.5 8.5t-7.5 9t1 8.5q7 12 5.5 17t-8 13.5t-7.5 14.5q-4 23 -4 70q-34 -52 -76 -94q-123 -123 -180 -86q-46 28 -66 104q-1 4 1 9.5t4 10t-1 10t-12 9.5 q-5 3 -6 9t0 15t0 13q-6 61 -2 117zM139.5 319.5q-2.5 -8.5 7.5 -26.5q8 -10 11 -24.5t3.5 -34t0.5 -21.5q-5 -16 -4.5 -22t7 -17t7.5 -16q12 -44 30.5 -70.5t33.5 -19.5q41 22 85.5 102.5t73.5 177.5q18 95 27 168q1 7 6 18.5t6 18.5t-6 25q-5 9 0.5 30t-0.5 25 q-10 6 -7.5 23t1.5 20q-7 17 -14 22q-30 23 -64 23q-60 0 -100 -47q-65 -73 -80 -258q-4 -28 -4 -43q-1 -11 -9.5 -28t-11 -25.5zM309 958q0 4 26 22.5t32 18.5l8 -8q1 -1 0 -5t0 -5q12 -5 12 -10q-1 -4 0.5 -8t3.5 -6.5t4 -4t2 -2.5q0 -4 -25.5 -22.5t-31.5 -18.5 q-2 0 -6 9q-1 2 0 7.5t0 6.5q-1 2 -6 3t-6 3zM428 958q0 4 25.5 22.5t31.5 18.5q1 0 4 -4t6 -9t5 -7q1 -1 0.5 -3.5t-1 -4.5t0.5 -2q12 -5 12 -11q-1 -6 0 -7.5t3 -0.5t3 0q0 -4 -26.5 -22.5t-32.5 -18.5q-2 5 -6 9l-7 14q-8 12 -8 6zM438 938q2 -2 2 0h-2z" />
<glyph unicode="&#xe5;" horiz-adv-x="587" d="M43 293q8 108 47.5 211.5t106.5 179.5l9 5q9 5 13 20q2 6 14.5 11t20.5 17q5 7 25 19q-13 4 -13 12q-5 21 -19.5 26t-15.5 7q-3 3 -2.5 10t-3 13t-16.5 10q-6 2 -16 28q-19 46 -19 78q0 86 70 156q102 102 192 102q39 0 72.5 -26t54.5 -68q14 -23 8 -45q-3 -13 5.5 -15.5 t9.5 -5.5q4 -24 4 -39q0 -52 -37.5 -111.5t-93.5 -99.5q46 -9 67 -40q2 -3 -2 -20t8 -21q20 -12 11 -78q-1 -10 -5 -31.5t-10.5 -57.5t-11.5 -63q-1 -7 -8 -21.5t-7.5 -22t5.5 -25.5q3 -10 2.5 -15.5t-4 -17.5t-4.5 -17q-8 -78 -8 -114q0 -82 20 -123q19 -39 51 -39 q-4 -2 -11 -8.5t-19 -19t-17 -17.5q-37 -33 -55 -33q-30 0 -51 31l-8.5 8.5t-7.5 9t1 8.5q7 12 5.5 17t-8 13.5t-7.5 14.5q-4 23 -4 70q-34 -52 -76 -94q-123 -123 -180 -86q-46 28 -66 104q-1 4 1 9.5t4 10t-1 10t-12 9.5q-5 3 -6 9t0 15t0 13q-6 61 -2 117zM139.5 319.5 q-2.5 -8.5 7.5 -26.5q8 -10 11 -24.5t3.5 -34t0.5 -21.5q-5 -16 -4.5 -22t7 -17t7.5 -16q12 -44 30.5 -70.5t33.5 -19.5q41 22 85.5 102t73.5 176q20 109 27 170q1 7 6 18.5t6 18.5t-6 25q-5 9 0.5 30t-0.5 25q-10 6 -7.5 23t1.5 20q-7 17 -14 22q-30 23 -64 23 q-60 0 -100 -47q-65 -73 -80 -258q-4 -28 -4 -43q-1 -11 -9.5 -28t-11 -25.5zM254 991q0 -76 53 -141q4 -5 2 -12t0 -13.5t13 -5.5q12 1 18.5 -1t12 -7t7.5 -6q26 -13 56 -10q38 4 63.5 46t30.5 93q6 52 -21 110q-1 4 0.5 10.5t0.5 11.5t-9 9q-6 3 -11 7t-10 10t-7 8 q-43 46 -93 43q-34 -2 -57 -19t-32.5 -43t-13 -47t-3.5 -43z" />
<glyph unicode="&#xe6;" horiz-adv-x="864" d="M43 293q8 108 47.5 211.5t106.5 179.5l9 5q9 5 13 20q2 6 14.5 11t20.5 17t39 25q69 37 147 31q62 -7 86 -45q2 -3 -2 -20t8 -21q12 -9 15 -25q50 48 117 80q28 14 61 14q55 0 85.5 -39.5t16.5 -103.5q-9 -33 -24 -39q-13 -8 -12 -13.5t5.5 -13.5t2.5 -12 q-49 -100 -158 -178q-4 -3 -13.5 -11.5t-17.5 -13.5t-16 -6q-16 -2 -27 -12t-12 -10q-5 -3 -61 -31q7 -15 16 -19q13 -7 16 -26.5t-4 -34.5q-2 -12 -1.5 -15.5t6.5 -9.5t8 -10q17 -40 46 -67t66 -27q34 0 68 22q19 12 86 70q14 7 19 3q2 -3 -7 -11q-16 -15 -32.5 -30 t-42.5 -36t-50 -37.5t-53 -32t-54.5 -23t-51.5 -6.5t-46 13q-2 1 -7.5 18.5t-26.5 18.5q-8 1 -12.5 9.5t-8.5 23.5t-6 20l-6 13v4q-13 22 -19 72v10q-46 -77 -92 -123q-123 -123 -180 -86q-46 28 -66 104q-1 4 1 9.5t4 10t-1 10t-12 9.5q-5 3 -6 9t0 15t0 13q-6 61 -2 117z M139.5 319.5q-2.5 -8.5 7.5 -26.5q8 -10 11 -24.5t3.5 -34t0.5 -21.5q-5 -16 -4.5 -22t7 -17t7.5 -16q12 -44 30.5 -70.5t33.5 -19.5q41 22 84.5 100.5t74.5 175.5q4 44 8 62q0 4 5 14q4 17 8 51q-7 13 4 31v2q2 4 2 12q1 7 6 18.5t6 18.5t-6 25q-5 9 0.5 30t-0.5 25 q-10 6 -7.5 23t1.5 20q-7 17 -14 22q-30 23 -64 23q-60 0 -100 -47q-65 -73 -80 -258q-4 -28 -4 -43q-1 -11 -9.5 -28t-11 -25.5zM496 322l10 6q108 46 164 116q3 4 12.5 11t14.5 13t3 11q-6 17 5 43t12 35q9 96 -41 129q-22 16 -41.5 13t-34 -12t-27 -31t-21 -42.5 t-15.5 -47.5t-10.5 -46.5t-6.5 -38.5q-8 -53 -10 -84q0 -3 0.5 -9t1 -10.5t-0.5 -9.5t-3 -8q-7 -11 -10 -22l-2 -2v-14zM514 31q11 7 4 8l-2 -2z" />
<glyph unicode="&#xe7;" horiz-adv-x="471" d="M41 274q0 4 8.5 25t-0.5 27q-6 9 -7 22t1 22.5t5.5 24t4.5 21.5q15 104 57.5 175t127.5 130q73 51 135 51q52 0 80 -41q7 -9 12 -39.5t16 -50.5q4 -4 4.5 -7.5t-2 -6.5t-5.5 -6t-9 -5.5t-11.5 -5t-12.5 -5.5t-11 -5l-53 -27l-33 -90q-4 -12 -8.5 -14t-7 3.5t-0.5 14.5 q3 12 15.5 41.5t21.5 44.5q-8 28 -21 58q-1 2 2 7.5t6.5 10t0 9t-16.5 6.5q-8 1 -25 18q-24 31 -49 31q-28 0 -47 -39q-26 -48 -41 -103q-1 -6 0 -11.5t-0.5 -11t-5.5 -7.5q-14 -6 -15.5 -13.5t3.5 -16t4 -13.5q-8 -66 -8 -101q0 -119 28 -202q1 -4 -2 -16t0 -18.5t19 -6.5 q8 0 12 -7.5t7 -18.5t7 -15q33 -41 80 -41q45 0 101 39q42 29 40 16q-4 -15 -36 -39q-126 -94 -217 -94q-46 0 -70 24q-52 49 -72 140q-3 11 -4.5 31t-5.5 40q-2 14 -2 45zM102 -425q0 8 7 15t63 48t89.5 77.5t33.5 69.5q0 34 -28 48.5t-62 16.5q-37 0 -53 -16q-4 -4 -9 -4 t-6.5 3.5t0.5 8.5q15 21 52.5 42.5t91.5 25.5q39 3 67.5 -12.5t28.5 -47.5q0 -59 -72 -131q-1 -1 -6 -9.5t-10.5 -12.5t-14.5 -6q-16 -4 -19 -12.5t-5 -10.5q-25 -21 -53.5 -40.5t-55.5 -36.5t-28 -17q-11 -7 -11 1z" />
<glyph unicode="&#xe8;" horiz-adv-x="514" d="M43 285q0 56 10 121q1 8 9.5 20.5t10.5 19.5t-5 23q-6 5 -3 16.5t7 19.5t11.5 20t10.5 18q14 36 37 65q73 103 182 154q28 14 62 14q55 0 85.5 -39.5t16.5 -103.5q-9 -33 -24 -39q-13 -8 -12 -13.5t5.5 -13.5t2.5 -12q-49 -100 -158 -178q-4 -3 -13.5 -11.5t-17.5 -13.5 t-16 -6q-16 -2 -27 -12t-12 -10q-9 -5 -19.5 -10.5t-23 -11.5t-19.5 -9q7 -14 17 -19q13 -7 16 -26.5t-4 -34.5q-2 -12 -1.5 -15.5t6 -9.5t7.5 -10q17 -39 46.5 -66.5t66.5 -27.5q34 0 68 22q19 12 86 70q14 7 19 3q2 -3 -7 -11q-16 -15 -32.5 -30t-42.5 -36t-50 -37.5 t-53 -32t-54.5 -23t-51.5 -6.5t-46 13q-2 1 -8 18.5t-27 18.5q-8 1 -12.5 9.5t-8 23t-5.5 20.5q-29 77 -29 179zM143 322l13 6q106 46 163 116q3 4 12.5 11t15 13t3.5 11q-6 17 5 43t12 35q9 96 -41 129q-22 16 -41.5 13t-34 -12t-27 -31t-21 -42.5t-15.5 -47.5t-10.5 -46.5 t-6.5 -38.5q-8 -53 -10 -84q0 -3 0.5 -9t1 -10.5t-0.5 -9.5t-3 -8q-12 -17 -15 -38zM174 1006q0 1 6.5 5.5t20 13.5t24.5 17q7 5 16.5 14t15 13.5t14 8.5t12.5 -3q44 -45 94 -82q22 -15 29 -32q4 -11 10.5 -15t15 -5t12.5 -3q5 -2 14.5 -9t14.5 -9q1 0 -8 -8.5t-19 -17 t-12 -9.5q-1 -1 -7 -6.5t-11 -9t-14 -7t-19 -4.5q-31 2 -78 31q-3 2 -10 6t-11 6.5t-9 7t-7.5 10.5t-3.5 13q-2 18 -11 21.5t-18 -0.5t-16 1q-47 41 -45 52z" />
<glyph unicode="&#xe9;" horiz-adv-x="514" d="M43 285q0 56 10 121q1 8 9.5 20.5t10.5 19.5t-5 23q-6 5 -3 16.5t7 19.5t11.5 20t10.5 18q14 36 37 65q73 103 182 154q28 14 62 14q55 0 85.5 -39.5t16.5 -103.5q-9 -33 -24 -39q-13 -8 -12 -13.5t5.5 -13.5t2.5 -12q-49 -100 -158 -178q-4 -3 -13.5 -11.5t-17.5 -13.5 t-16 -6q-16 -2 -27 -12t-12 -10q-9 -5 -19.5 -10.5t-23 -11.5t-19.5 -9q7 -14 17 -19q13 -7 16 -26.5t-4 -34.5q-2 -12 -1.5 -15.5t6 -9.5t7.5 -10q17 -39 46.5 -66.5t66.5 -27.5q34 0 68 22q19 12 86 70q14 7 19 3q2 -3 -7 -11q-16 -15 -32.5 -30t-42.5 -36t-50 -37.5 t-53 -32t-54.5 -23t-51.5 -6.5t-46 13q-2 1 -8 18.5t-27 18.5q-8 1 -12.5 9.5t-8 23t-5.5 20.5q-29 77 -29 179zM143 322l13 6q106 46 163 116q3 4 12.5 11t15 13t3.5 11q-6 17 5 43t12 35q9 96 -41 129q-22 16 -41.5 13t-34 -12t-27 -31t-21 -42.5t-15.5 -47.5t-10.5 -46.5 t-6.5 -38.5q-8 -53 -10 -84q0 -3 0.5 -9t1 -10.5t-0.5 -9.5t-3 -8q-12 -17 -15 -38zM180 936q60 25 135 92q4 4 11.5 3.5t12.5 2t5 13.5q0 4 4 8.5t11 10.5t8 7l14 14q9 0 36 -19t49 -38t21 -20q-5 -4 -26 -24.5t-33 -29.5q-5 -3 -11.5 0t-12.5 1.5t-7 -11.5q0 -13 -14 -22 q-13 -8 -29 -13q-9 -3 -17.5 -11t-10.5 -9l-52 -23q-6 0 -14 4t-13.5 8t-13.5 10l-8 7q-1 1 -6.5 5t-12 9.5t-12.5 11t-10.5 9.5t-3.5 4z" />
<glyph unicode="&#xea;" horiz-adv-x="514" d="M43 285q0 56 10 121q1 8 9.5 20.5t10.5 19.5t-5 23q-6 5 -3 16.5t7 19.5t11.5 20t10.5 18q14 36 37 65q73 103 182 154q28 14 62 14q55 0 85.5 -39.5t16.5 -103.5q-9 -33 -24 -39q-13 -8 -12 -13.5t5.5 -13.5t2.5 -12q-49 -100 -158 -178q-4 -3 -13.5 -11.5t-17.5 -13.5 t-16 -6q-16 -2 -27 -12t-12 -10q-9 -5 -19.5 -10.5t-23 -11.5t-19.5 -9q7 -14 17 -19q13 -7 16 -26.5t-4 -34.5q-2 -12 -1.5 -15.5t6 -9.5t7.5 -10q17 -39 46.5 -66.5t66.5 -27.5q34 0 68 22q19 12 86 70q14 7 19 3q2 -3 -7 -11q-16 -15 -32.5 -30t-42.5 -36t-50 -37.5 t-53 -32t-54.5 -23t-51.5 -6.5t-46 13q-2 1 -8 18.5t-27 18.5q-8 1 -12.5 9.5t-8 23t-5.5 20.5q-29 77 -29 179zM141 862l23 29l18 24q2 3 8 5t9.5 7t3.5 15q0 5 4.5 11t11.5 12.5t10 9.5q2 2 17 19t22 26q5 8 47 8t50 -8l51 -66q1 -1 3 -6.5t9 -9.5q5 -2 18 -20 q2 -2 7 -12.5t14 -14.5q4 -2 7 -5.5t6 -9t5 -8.5q-37 -8 -53 2q-8 5 -17 13.5t-20 23t-19 25t-22.5 31t-21.5 30.5l-17 -22q-1 -1 -6 0t-10 -3.5t-4 -13.5q0 -4 -3 -10t-6 -10l-3 -4l-45 -58q-12 -18 -27 -18q-6 0 -14 1t-9 1q-2 0 -13.5 1t-23 2.5t-10.5 2.5zM143 322l13 6 q106 46 163 116q3 4 12.5 11t15 13t3.5 11q-6 17 5 43t12 35q9 96 -41 129q-22 16 -41.5 13t-34 -12t-27 -31t-21 -42.5t-15.5 -47.5t-10.5 -46.5t-6.5 -38.5q-8 -53 -10 -84q0 -3 0.5 -9t1 -10.5t-0.5 -9.5t-3 -8q-12 -17 -15 -38z" />
<glyph unicode="&#xeb;" horiz-adv-x="514" d="M43 285q0 56 10 121q1 8 9.5 20.5t10.5 19.5t-5 23q-6 5 -3 16.5t7 19.5t11.5 20t10.5 18q14 36 37 65q73 103 182 154q28 14 62 14q55 0 85.5 -39.5t16.5 -103.5q-9 -33 -24 -39q-13 -8 -12 -13.5t5.5 -13.5t2.5 -12q-49 -100 -158 -178q-4 -3 -13.5 -11.5t-17.5 -13.5 t-16 -6q-16 -2 -27 -12t-12 -10q-9 -5 -19.5 -10.5t-23 -11.5t-19.5 -9q7 -14 17 -19q13 -7 16 -26.5t-4 -34.5q-2 -12 -1.5 -15.5t6 -9.5t7.5 -10q17 -39 46.5 -66.5t66.5 -27.5q34 0 68 22q19 12 86 70q14 7 19 3q2 -3 -7 -11q-16 -15 -32.5 -30t-42.5 -36t-50 -37.5 t-53 -32t-54.5 -23t-51.5 -6.5t-46 13q-2 1 -8 18.5t-27 18.5q-8 1 -12.5 9.5t-8 23t-5.5 20.5q-29 77 -29 179zM143 322l13 6q106 46 163 116q3 4 12.5 11t15 13t3.5 11q-6 17 5 43t12 35q9 96 -41 129q-22 16 -41.5 13t-34 -12t-27 -31t-21 -42.5t-15.5 -47.5t-10.5 -46.5 t-6.5 -38.5q-8 -53 -10 -84q0 -3 0.5 -9t1 -10.5t-0.5 -9.5t-3 -8q-12 -17 -15 -38zM240 926q0 4 25.5 22.5t31.5 18.5q1 0 2 -1.5t2.5 -3.5t3.5 -4q1 -1 0 -5t0 -5q12 -5 12 -10q-1 -5 2 -9.5t6 -7t3 -3.5q0 -4 -26 -22.5t-32 -18.5q-2 0 -6 8q-1 2 0 7.5t0 6.5q-1 2 -6 3 t-6 3zM358 926q0 4 26 22.5t32 18.5q1 0 3.5 -4.5t5.5 -9.5t5 -7q1 -1 0.5 -3.5t-1 -4.5t0.5 -2q12 -5 12 -10q-1 -6 0.5 -7.5t3.5 -0.5t3 0q0 -4 -27 -22.5t-33 -18.5q-2 4 -6 8l-6 14q-8 12 -8 6zM369 905q2 -2 2 0h-2z" />
<glyph unicode="&#xec;" horiz-adv-x="319" d="M10 1083q0 1 6.5 5.5t20 14t24.5 17.5q7 5 16.5 14t15 13.5t14 8.5t12.5 -3q44 -45 94 -82q21 -15 29 -33q4 -11 11 -15t15.5 -4.5t12.5 -2.5q5 -2 14 -9.5t14 -9.5q1 0 -8 -8t-19 -16.5t-12 -9.5q-1 -1 -7 -6.5t-11 -9t-14 -7t-19 -4.5q-31 2 -78 31q-3 2 -10 6t-11 6.5 t-9 7t-7.5 10.5t-3.5 13q-2 18 -11 21.5t-18 -0.5t-16 1q-2 2 -10.5 9t-13 11t-10.5 10.5t-9 11.5t-2 9zM70 193q0 11 8 143l10 88q1 3 9 13t3 16q-9 11 -9.5 23t4 28t5.5 22q12 14 13 24t-3.5 19t-3.5 15q6 48 9 88q3 42 0 57q-1 4 13 16.5t34 24.5q64 42 67 39 q10 -13 7 -57q0 -9 -8 -19t-10.5 -14.5t5.5 -16.5q5 -5 6.5 -13.5t0.5 -20.5t-2 -21.5t-3.5 -23.5t-3.5 -17q-5 -37 -15.5 -101.5t-12.5 -82.5q0 -7 -5 -51.5t-6 -73.5q0 -3 2.5 -11t0.5 -14t-11 -12q-5 -6 -3 -11.5t6.5 -16t4.5 -15.5q7 -115 51 -149q21 -18 58 -15 q-6 -3 -27.5 -21t-32.5 -26q-39 -31 -61 -31q-28 0 -53 25q-2 2 -8.5 9t-10 11.5t-8 13t-6.5 17.5q-2 6 6.5 23t-0.5 18q-11 6 -15 11.5t-3.5 16.5t0.5 13q-2 18 -2 60z" />
<glyph unicode="&#xed;" horiz-adv-x="319" d="M51 993q60 25 135 92q4 4 11.5 3.5t12.5 2t5 13.5q0 4 4 8.5t11 10.5t8 7t5.5 7t8.5 8q9 0 36 -19t49 -38.5t21 -20.5q-58 -52 -59 -53q-5 -3 -11.5 0t-12.5 1.5t-7 -11.5q0 -14 -14 -23q-9 -5 -29 -12q-9 -3 -17 -11.5t-11 -9.5l-52 -22q-12 0 -49 28q-1 1 -6.5 5 t-12 9.5t-12.5 11t-10.5 9.5t-3.5 4zM70 193q0 11 8 143l10 88q1 3 9 13t3 16q-9 11 -9.5 23t4 28t5.5 22q12 14 13 24t-3.5 19t-3.5 15q6 48 9 88q3 42 0 57q-1 4 13 16.5t34 24.5q64 42 67 39q10 -13 7 -57q0 -9 -8 -19t-10.5 -14.5t5.5 -16.5q5 -5 6.5 -13.5t0.5 -20.5 t-2 -21.5t-3.5 -23.5t-3.5 -17q-5 -37 -15.5 -101.5t-12.5 -82.5q0 -7 -5 -51.5t-6 -73.5q0 -3 2.5 -11t0.5 -14t-11 -12q-5 -6 -3 -11.5t6.5 -16t4.5 -15.5q7 -115 51 -149q21 -18 58 -15q-6 -3 -27.5 -21t-32.5 -26q-39 -31 -61 -31q-28 0 -53 25q-2 2 -8.5 9t-10 11.5 t-8 13t-6.5 17.5q-2 6 6.5 23t-0.5 18q-11 6 -15 11.5t-3.5 16.5t0.5 13q-2 18 -2 60z" />
<glyph unicode="&#xee;" horiz-adv-x="319" d="M45 930l18 28l15 25l8 7q8 6 8 20q0 7 10 19t11 13q4 7 14 21.5t14 21.5q6 9 37 9q33 0 39 -9l39 -63q1 -1 2.5 -7t7.5 -9q7 -4 15 -21q1 -2 4.5 -12.5t11.5 -14.5q3 -2 7.5 -10.5t6.5 -11.5q-29 -8 -43 2q-6 5 -12.5 13.5t-15 22.5t-15 25.5t-17.5 31t-17 30.5l-13 -23 q-1 -1 -4.5 0t-7.5 -3t-4 -13l-8 -25l-35 -57q-10 -18 -21 -18q-4 0 -10 1t-8 1q-3 0 -20 2.5t-17 3.5zM70 193q0 11 8 143l10 88q1 3 9 13t3 16q-9 11 -9.5 23t4 28t5.5 22q12 14 13 24t-3.5 19t-3.5 15q6 48 9 88q3 42 0 57q-1 4 13 16.5t34 24.5q64 42 67 39 q10 -13 7 -57q0 -9 -8 -19t-10.5 -14.5t5.5 -16.5q5 -5 6.5 -13.5t0.5 -20.5t-2 -21.5t-3.5 -23.5t-3.5 -17q-5 -37 -15.5 -101.5t-12.5 -82.5q0 -7 -5 -51.5t-6 -73.5q0 -3 2.5 -11t0.5 -14t-11 -12q-5 -6 -3 -11.5t6.5 -16t4.5 -15.5q7 -115 51 -149q21 -18 58 -15 q-6 -3 -27.5 -21t-32.5 -26q-39 -31 -61 -31q-28 0 -53 25q-2 2 -8.5 9t-10 11.5t-8 13t-6.5 17.5q-2 6 6.5 23t-0.5 18q-11 6 -15 11.5t-3.5 16.5t0.5 13q-2 18 -2 60z" />
<glyph unicode="&#xef;" horiz-adv-x="319" d="M70 193q0 11 8 143l10 88q1 3 9 13t3 16q-9 11 -9.5 23t4 28t5.5 22q12 14 13 24t-3.5 19t-3.5 15q6 48 9 88q3 42 0 57q-1 4 13 16.5t34 24.5q64 42 67 39q10 -13 7 -57q0 -9 -8 -19t-10.5 -14.5t5.5 -16.5q5 -5 6.5 -13.5t0.5 -20.5t-2 -21.5t-3.5 -23.5t-3.5 -17 q-5 -37 -15.5 -101.5t-12.5 -82.5q0 -7 -5 -51.5t-6 -73.5q0 -3 2.5 -11t0.5 -14t-11 -12q-5 -6 -3 -11.5t6.5 -16t4.5 -15.5q7 -115 51 -149q21 -18 58 -15q-6 -3 -27.5 -21t-32.5 -26q-39 -31 -61 -31q-28 0 -53 25q-2 2 -8.5 9t-10 11.5t-8 13t-6.5 17.5q-2 6 6.5 23 t-0.5 18q-11 6 -15 11.5t-3.5 16.5t0.5 13q-2 18 -2 60zM78 1081q0 4 25.5 22.5t31.5 18.5l8 -8q1 -1 0 -5t0 -5q13 -5 13 -10q-1 -4 0.5 -8t3.5 -6.5t4 -4t2 -2.5q0 -4 -25.5 -22.5t-31.5 -18.5q-3 0 -7 8q-1 2 0 8t0 7q-1 2 -6 3t-6 3zM197 1081q0 4 25.5 22.5t31.5 18.5 q1 0 3.5 -4t5.5 -9t5 -7q1 -1 0.5 -3.5t-1 -4.5t0.5 -2q13 -5 13 -11q-1 -6 0 -7.5t3 -0.5t3 0q0 -4 -27 -22.5t-33 -18.5q-2 4 -6 8l-6 15q-8 12 -8 6zM207 1061q2 -2 2 0h-2z" />
<glyph unicode="&#xf0;" horiz-adv-x="569" d="M43 358q9 137 63 242q2 4 19.5 18t17.5 39q0 7 5 13.5t14 13t12 10.5q44 47 111 86l28 15q-2 6 -11.5 38t-16.5 52q-6 14 -15 41l-94 -129q-37 4 -45 4l43 57l37 27v22l43 60q-3 8 -9.5 25t-8.5 24q-3 8 -0.5 14.5t-0.5 13.5t-16 11q-4 1 -6 6t-3.5 12t-2.5 10 q-7 17 -25 43q-5 11 -1.5 26.5t15.5 26t21 3.5q12 -9 39 -39q14 -13 10 -31q-2 -8 3 -10t12.5 -2.5t9.5 -3.5l26 -41l91 121l41 -2q-7 -11 -19 -27q-1 -2 -12 -9.5t-12 -13.5q-1 -7 -2 -10.5t-4 -7t-5 -6.5l-57 -80l31 -55l24 -50q1 -2 3 -6.5t3 -7t2.5 -6t1.5 -6.5t-0.5 -6 t-1.5 -6q-7 -15 10 -27.5t17 -13.5q37 -84 55 -140q24 -57 34.5 -130.5t8.5 -129.5q-9 -148 -73 -258q-2 -4 -8.5 -6t-11.5 -2.5t-8 -6.5t-1 -18q1 -5 -2 -10.5t-10.5 -14t-8.5 -9.5q-53 -60 -118 -97q-40 -22 -76 -22q-73 0 -119 94q0 1 -2.5 8t-9.5 23q-15 33 -17 49 q-1 4 -5.5 18t-4.5 27q0 10 -1 19t-2.5 19t-2.5 17q-6 48 -2 92zM141.5 308q-1.5 -6 5.5 -15q10 -7 15 -33q3 -20 10 -45q1 -3 4.5 -7.5t4.5 -7t-1 -7.5q-11 -12 -9.5 -20.5t6.5 -11.5t13.5 -7.5t10.5 -8.5q2 -3 6 -14t6 -14q3 -3 9 -6.5t9 -6.5q18 -18 33 -28 q26 -16 55.5 7.5t49.5 68.5q39 95 47 206v2q4 72 0 119q-6 40 -6 45q-2 15 -11 47q-1 4 2 13t1 15t-15 9q-7 2 -10.5 9t-6 18t-5.5 16q-27 42 -62 60q-37 20 -61.5 1.5t-34.5 -44.5q-33 -86 -43 -150q0 -3 -4.5 -13.5t-3.5 -25.5t-0.5 -28t-1.5 -15q-3 -41 0 -94 q0 -6 -5.5 -17t-7 -17z" />
<glyph unicode="&#xf1;" horiz-adv-x="593" d="M57 109q0 44 13 204q1 7 18 32q10 17 -2 20q-12 2 -13 17t5 40.5t6 30.5q10 105 10 165q0 79 -20 82q17 21 48 47t56 31q17 3 23 -22q7 -30 0 -37q-9 -12 -8 -14t6.5 -4.5t5.5 -6.5q0 -29 -2 -43l10 8q53 49 78 66q8 5 14.5 2.5t14 0.5t12.5 17q6 15 47 33q43 15 63 15 q47 0 75 -35t24 -105l-11 -71q-1 -4 0.5 -17t0 -21.5t-8.5 -11.5q-14 -5 -18 -11.5t-1 -12t7.5 -13t3.5 -12.5q-25 -162 -25 -247q0 -108 33 -152q19 -25 49 -25q-5 -3 -13 -9.5t-19 -17.5t-17 -16q-40 -36 -59 -32q-29 6 -43 26q-19 22 -29 70q-1 5 5 15t9.5 16t-2.5 10 q-20 6 -20 37q0 49 12 143q1 7 6 16t9.5 15t3.5 15.5t-11 19.5q-6 11 -5 18.5t7 21t7 17.5q1 5 7 14t6.5 14t-7.5 17q-4 8 -4 12.5t3.5 15l4.5 13.5q6 56 6 88q0 48 -12 66q-21 38 -62 38q-65 0 -153 -100q-2 -27 -14 -144.5t-15 -176.5q0 -4 1.5 -13.5t1 -16.5t-4.5 -11 q-12 -13 -12.5 -20t5 -12t5.5 -9q0 -5 2 -14.5t2 -17t-4 -11.5q-10 -16 -9.5 -21t6.5 -13t7 -11q7 -47 23 -54q-10 -4 -43 -37q-46 -46 -64 -40q-19 3 -25 45q-6 35 -6 84zM102 895q-6 2 0 10q29 39 80 73t94 34q11 0 89 -19q3 -1 11 -3t12.5 -4t8.5 -7q4 -6 10.5 -6t13.5 3 t9 3q50 -3 76 27q11 11 14 3q1 -6 -4 -14q-15 -27 -72.5 -60.5t-89.5 -33.5q-29 0 -71 10q-21 4 -29 17q-1 5 -15 2t-16 -2q-24 6 -45 6q-34 0 -59 -31q-8 -10 -17 -8z" />
<glyph unicode="&#xf2;" horiz-adv-x="569" d="M43 358q23 298 242 422q45 25 75 25q46 0 78 -37q13 -13 13 -41q-1 -17 5 -20t12.5 1t10.5 -3q27 -57 38 -133t9 -136q-23 -298 -241 -422q-40 -22 -76 -22q-73 0 -119 94q-1 3 -0.5 14t-5.5 27q-2 6 -11.5 18t-11.5 21q-1 4 1.5 9t6 9.5t5.5 9.5t-1 9.5t-12 7.5 q-9 4 -12.5 11.5t-3.5 24.5v19q-6 48 -2 92zM139 475q1 -14 8 -24t7 -15q-5 -71 5 -152t42 -139q2 -4 1 -14.5t1 -13.5q3 -3 14 -6.5t14 -6.5q18 -18 33 -28q26 -16 55.5 7.5t49.5 68.5q39 95 47 206v2q4 72 0 119q-1 5 5.5 12t5.5 15t-17 18q-6 4 -8 12t-2 19t-1 16 q-1 4 2 13t1 15t-15 9q-7 2 -10.5 9t-6 18t-5.5 16q-27 42 -62 60q-37 20 -61.5 1.5t-34.5 -44.5q-33 -86 -43 -150q-1 -5 -13.5 -17t-11.5 -26zM168 1028q0 1 6.5 5.5t20 14t24.5 17.5q7 5 16.5 14t14.5 13.5t13.5 8.5t12.5 -3q41 -41 95 -82q20 -14 28 -33q4 -11 11 -15 t15.5 -4.5t12.5 -2.5q5 -2 14.5 -9.5t14.5 -9.5q1 0 -8 -8.5t-19 -17t-12 -9.5q-1 -1 -7 -6t-10.5 -8.5t-14 -7t-19.5 -4.5q-33 3 -78 30q-3 2 -10 6t-11 6.5t-9 7t-7.5 10.5t-3.5 13q-2 18 -11 22t-18 0t-16 1q-2 2 -10.5 9t-13 11t-10.5 10.5t-9 11.5t-2 9z" />
<glyph unicode="&#xf3;" horiz-adv-x="569" d="M43 358q23 298 242 422q45 25 75 25q46 0 78 -37q13 -13 13 -41q-1 -17 5 -20t12.5 1t10.5 -3q27 -57 38 -133t9 -136q-23 -298 -241 -422q-40 -22 -76 -22q-73 0 -119 94q-1 3 -0.5 14t-5.5 27q-2 6 -11.5 18t-11.5 21q-1 4 1.5 9t6 9.5t5.5 9.5t-1 9.5t-12 7.5 q-9 4 -12.5 11.5t-3.5 24.5v19q-6 48 -2 92zM139 475q1 -14 8 -24t7 -15q-5 -71 5 -152t42 -139q2 -4 1 -14.5t1 -13.5q3 -3 14 -6.5t14 -6.5q18 -18 33 -28q26 -16 55.5 7.5t49.5 68.5q39 95 47 206v2q4 72 0 119q-1 5 5.5 12t5.5 15t-17 18q-6 4 -8 12t-2 19t-1 16 q-1 4 2 13t1 15t-15 9q-7 2 -10.5 9t-6 18t-5.5 16q-27 42 -62 60q-37 20 -61.5 1.5t-34.5 -44.5q-33 -86 -43 -150q-1 -5 -13.5 -17t-11.5 -26zM154 958q58 24 135 93q5 5 11.5 3.5t11.5 1t5 13.5q0 4 4 8.5t11 11.5l8 7l14 14q9 0 36 -19t49.5 -38.5t21.5 -20.5 q-50 -45 -60 -53q-5 -3 -11 0t-12 1.5t-7 -11.5q0 -13 -15 -23q-10 -6 -28 -12q-9 -3 -18 -11.5t-11 -9.5l-51 -22q-6 0 -14 4t-13.5 8t-13.5 11l-8 6q-1 1 -6.5 5t-12 9.5t-12.5 11t-10.5 9t-3.5 3.5z" />
<glyph unicode="&#xf4;" horiz-adv-x="569" d="M43 358q23 298 242 422q45 25 75 25q46 0 78 -37q13 -13 13 -41q-1 -17 5 -20t12.5 1t10.5 -3q27 -57 38 -133t9 -136q-23 -298 -241 -422q-40 -22 -76 -22q-73 0 -119 94q-1 3 -0.5 14t-5.5 27q-2 6 -11.5 18t-11.5 21q-1 4 1.5 9t6 9.5t5.5 9.5t-1 9.5t-12 7.5 q-9 4 -12.5 11.5t-3.5 24.5v19q-6 48 -2 92zM139 475q1 -14 8 -24t7 -15q-5 -71 5 -152t42 -139q2 -4 1 -14.5t1 -13.5q3 -3 14 -6.5t14 -6.5q18 -18 33 -28q26 -16 55.5 7.5t49.5 68.5q39 95 47 206v2q4 72 0 119q-1 5 5.5 12t5.5 15t-17 18q-6 4 -8 12t-2 19t-1 16 q-1 4 2 13t1 15t-15 9q-7 2 -10.5 9t-6 18t-5.5 16q-27 42 -62 60q-37 20 -61.5 1.5t-34.5 -44.5q-33 -86 -43 -150q-1 -5 -13.5 -17t-11.5 -26zM158 897l22 29l19 24q2 3 7.5 5t9 7t3.5 15q0 5 4.5 11t12 12.5t10.5 9.5q1 2 16.5 19t22.5 26q5 8 47 8q41 0 49 -8l51 -66 q1 -1 3 -6.5t9 -9.5q5 -3 19 -21q2 -2 6.5 -12.5t13.5 -13.5q4 -2 7.5 -5.5t6.5 -9.5t5 -8q-37 -8 -53 2q-8 5 -16.5 13t-20.5 23.5t-19 24.5t-23.5 32t-21.5 30l-16 -22q-1 -1 -6 0t-10.5 -3.5t-4.5 -13.5q0 -4 -3 -10t-6 -10l-3 -4l-45 -58q-12 -18 -27 -18q-6 0 -13.5 1 t-8.5 1q-2 0 -13.5 1t-23 2.5t-10.5 2.5z" />
<glyph unicode="&#xf5;" horiz-adv-x="569" d="M43 358q23 298 242 422q45 25 75 25q46 0 78 -37q13 -13 13 -41q-1 -17 5 -20t12.5 1t10.5 -3q27 -57 38 -133t9 -136q-23 -298 -241 -422q-40 -22 -76 -22q-73 0 -119 94q-1 3 -0.5 14t-5.5 27q-2 6 -11.5 18t-11.5 21q-1 4 1.5 9t6 9.5t5.5 9.5t-1 9.5t-12 7.5 q-9 4 -12.5 11.5t-3.5 24.5v19q-6 48 -2 92zM139 475q1 -14 8 -24t7 -15q-5 -71 5 -152t42 -139q2 -4 1 -14.5t1 -13.5q3 -3 14 -6.5t14 -6.5q18 -18 33 -28q26 -16 55.5 7.5t49.5 68.5q39 95 47 206v2q4 72 0 119q-1 5 5.5 12t5.5 15t-17 18q-6 4 -8 12t-2 19t-1 16 q-1 4 2 13t1 15t-15 9q-7 2 -10.5 9t-6 18t-5.5 16q-27 42 -62 60q-37 20 -61.5 1.5t-34.5 -44.5q-33 -86 -43 -150q-1 -5 -13.5 -17t-11.5 -26zM154 883q-6 1 0 10q29 39 80 72.5t94 33.5q14 0 88 -18q3 -1 9 -2.5t9.5 -2.5t7.5 -3.5t7 -5.5q4 -6 10 -6t13 3t9 3 q50 -3 76 26q10 10 13.5 5t-3.5 -15q-15 -27 -72 -60.5t-89 -33.5q-30 0 -72 10q-22 4 -29 16q-1 5 -15 2t-16 -2q-28 7 -45 7q-34 0 -59 -31q-8 -10 -16 -8z" />
<glyph unicode="&#xf6;" horiz-adv-x="569" d="M43 358q23 298 242 422q45 25 75 25q46 0 78 -37q13 -13 13 -41q-1 -17 5 -20t12.5 1t10.5 -3q27 -57 38 -133t9 -136q-23 -298 -241 -422q-40 -22 -76 -22q-73 0 -119 94q-1 3 -0.5 14t-5.5 27q-2 6 -11.5 18t-11.5 21q-1 4 1.5 9t6 9.5t5.5 9.5t-1 9.5t-12 7.5 q-9 4 -12.5 11.5t-3.5 24.5v19q-6 48 -2 92zM139 475q1 -14 8 -24t7 -15q-5 -71 5 -152t42 -139q2 -4 1 -14.5t1 -13.5q3 -3 14 -6.5t14 -6.5q18 -18 33 -28q26 -16 55.5 7.5t49.5 68.5q39 95 47 206v2q4 72 0 119q-1 5 5.5 12t5.5 15t-17 18q-6 4 -8 12t-2 19t-1 16 q-1 4 2 13t1 15t-15 9q-7 2 -10.5 9t-6 18t-5.5 16q-27 42 -62 60q-37 20 -61.5 1.5t-34.5 -44.5q-33 -86 -43 -150q-1 -5 -13.5 -17t-11.5 -26zM246 969q0 4 25.5 22.5t31.5 18.5q1 0 2 -1.5t2.5 -3.5t3.5 -4q1 -1 0 -5t0 -5q13 -5 13 -10q-1 -5 1.5 -9.5t5.5 -7t3 -3.5 q0 -4 -26 -22.5t-32 -18.5q-2 0 -6 8q-1 2 0 7.5t0 6.5q-1 2 -6 3t-6 3zM365 969q0 4 25.5 22.5t31.5 18.5q1 0 3.5 -4.5t5.5 -9.5t5 -7q1 -1 0.5 -3.5t-1 -4.5t0.5 -2q13 -5 13 -10q-1 -6 0 -7.5t3 -0.5t3 0q0 -4 -27 -22.5t-33 -18.5q-2 4 -6 8l-6 14q-8 12 -8 6zM375 948 q2 -2 2 0h-2z" />
<glyph unicode="&#xf7;" horiz-adv-x="704" d="M41 350q4 1 8.5 3.5t10 7t9.5 9t11.5 12l11.5 11.5q35 35 55 35q37 0 113 -3t113 -3h80q143 0 204 31q1 0 4.5 1t4.5 1q0 -2 -5 -7t-11 -10l-7 -6q-25 -22 -49 -37q-3 -2 -7.5 -5.5t-8 -5.5t-8.5 -4t-9 -1q-18 2 -31 -7t-16 -10q-62 -18 -180 -18h-92q-16 0 -27 4 q-6 2 -21 -1t-18 -3zM260 211q0 8 48.5 43t60.5 35q1 0 26 -37q-1 -12 3.5 -19t11 -12t8.5 -8l10 -16q0 -8 -49.5 -43t-61.5 -35q-3 0 -15 20t-26 44t-16 28zM276 569q0 8 48.5 43t60.5 35q4 0 17 -19.5t26.5 -44.5t15.5 -28q0 -11 -65 -53q-4 -3 -13.5 -3t-14.5 -3t-3 -13 q-9 -6 -14 -6q-2 0 -17 23q-32 57 -41 69z" />
<glyph unicode="&#xf8;" horiz-adv-x="569" d="M43 358q23 298 242 422q45 25 75 25q33 0 58 -19q9 3 18 9q6 3 15.5 7.5t15 7.5t12 5.5t10 1.5t5.5 -4q4 -8 -2.5 -21t-18.5 -31t-16 -30l-6 -16q1 -11 12.5 -8t15.5 -2q27 -57 38 -133t9 -136q-23 -298 -241 -422q-40 -22 -76 -22q-23 0 -51 12l-31 -16q-20 -10 -55 -33 q-12 -8 -10 3q2 10 22 49q13 24 16 32l6 16q-8 10 -16 31q-1 3 -0.5 14t-5.5 27q-2 6 -11.5 18t-11.5 21q-1 4 1.5 9t6 9.5t5.5 9.5t-1 9.5t-12 7.5q-9 4 -12.5 11.5t-3.5 24.5v19q-6 48 -2 92zM139 475q1 -14 8 -24t7 -15q-8 -117 18 -217q13 35 80 203q2 5 12.5 24 t14.5 43q0 4 13 18t7 36q-2 6 1 14t9 17.5t8 13.5q17 46 33 82q-25 29 -47 41q-37 20 -61.5 1.5t-34.5 -44.5q-33 -86 -43 -150q-1 -5 -13.5 -17t-11.5 -26zM203 117q3 -3 14 -6.5t14 -6.5q18 -18 33 -28q26 -16 55.5 7.5t49.5 68.5q39 95 47 206v2q4 72 0 119q-1 5 5.5 12 t5.5 15t-17 18q-6 4 -8 12t-2 19t-1 16q-1 3 0.5 11.5t1.5 11.5q-14 -36 -39 -96t-65 -162q-2 -5 -9.5 -7.5t-8.5 -13.5q-4 -29 -7 -39q-33 -84 -51 -133q-2 -5 -9.5 -13t-8.5 -13z" />
<glyph unicode="&#xf9;" horiz-adv-x="673" d="M82 717q4 3 11.5 10t17.5 17.5t18 17.5q37 33 57 33q29 0 45 -23q21 -30 27 -86q1 -5 -4 -13.5t-5 -16t11 -13.5q5 -7 4.5 -12.5t-3.5 -16.5t-3 -16q-3 -78 -12 -137q-1 -7 -10.5 -21.5t-6.5 -19.5q10 -15 4 -45q-1 -11 -7 -46.5t-9.5 -64.5t-3.5 -55q0 -51 16 -82 q28 -55 66 -55q43 0 88 75q2 3 14 5t15 18q2 7 2.5 21.5t3.5 19.5q39 79 61 162q26 131 31 176q1 5 6.5 15t6 14.5t-8.5 15.5q-5 6 -4.5 11.5t3.5 15.5t3 14q0 19 -4 43q-6 29 -20 37q14 24 49 51q44 38 61 27q16 -8 23 -43q7 -39 -1 -107t-21.5 -135.5t-14.5 -79.5 q-1 -6 -5.5 -37.5t-7.5 -60.5t-4 -56q0 -3 -5.5 -8t-5.5 -10.5t11 -13.5q6 0 4 -18t-2 -21l7 -39q1 -4 -4 -12t-3.5 -13.5t15.5 -9.5q10 -21 35 -35q11 -7 34 -10l-36 -35q-47 -41 -74 -41q-34 3 -51 23q-37 37 -37 141v2q-52 -67 -115 -111q-86 -63 -158 -63q-83 0 -80 119 q0 3 -1 12t-1 16t2.5 18.5t8.5 22.5q4 6 5 14.5t1.5 22.5t1.5 19t14 30t6 41q-4 8 -5 17t-0.5 14t2 15t1.5 14q11 101 11 162q0 112 -29 157q-16 23 -41 23zM242 1038q0 1 6.5 5.5t20 14t24.5 17.5q7 5 16.5 14t14.5 13.5t13.5 8.5t12.5 -3q44 -44 94 -82q21 -15 29 -33 q4 -11 11 -15t15.5 -4.5t12.5 -2.5q5 -2 14.5 -9.5t14.5 -9.5q1 0 -8 -8t-19 -16.5t-12 -9.5q-1 -1 -7 -6.5t-11 -9t-14 -7t-19 -4.5q-31 2 -78 31q-3 2 -10 6t-11 6.5t-9 7t-7.5 10.5t-3.5 13q-2 18 -11 21.5t-18 -0.5t-16 1q-2 2 -10.5 9t-13 11t-10.5 10.5t-9 11.5t-2 9z " />
<glyph unicode="&#xfa;" horiz-adv-x="673" d="M82 717q4 3 11.5 10t17.5 17.5t18 17.5q37 33 57 33q29 0 45 -23q21 -30 27 -86q1 -5 -4 -13.5t-5 -16t11 -13.5q5 -7 4.5 -12.5t-3.5 -16.5t-3 -16q-3 -78 -12 -137q-1 -7 -10.5 -21.5t-6.5 -19.5q10 -15 4 -45q-1 -11 -7 -46.5t-9.5 -64.5t-3.5 -55q0 -51 16 -82 q28 -55 66 -55q43 0 88 75q2 3 14 5t15 18q2 7 2.5 21.5t3.5 19.5q39 79 61 162q26 131 31 176q1 5 6.5 15t6 14.5t-8.5 15.5q-5 6 -4.5 11.5t3.5 15.5t3 14q0 19 -4 43q-6 29 -20 37q14 24 49 51q44 38 61 27q16 -8 23 -43q7 -39 -1 -107t-21.5 -135.5t-14.5 -79.5 q-1 -6 -5.5 -37.5t-7.5 -60.5t-4 -56q0 -3 -5.5 -8t-5.5 -10.5t11 -13.5q6 0 4 -18t-2 -21l7 -39q1 -4 -4 -12t-3.5 -13.5t15.5 -9.5q10 -21 35 -35q11 -7 34 -10l-36 -35q-47 -41 -74 -41q-34 3 -51 23q-37 37 -37 141v2q-52 -67 -115 -111q-86 -63 -158 -63q-83 0 -80 119 q0 3 -1 12t-1 16t2.5 18.5t8.5 22.5q4 6 5 14.5t1.5 22.5t1.5 19t14 30t6 41q-4 8 -5 17t-0.5 14t2 15t1.5 14q11 101 11 162q0 112 -29 157q-16 23 -41 23zM227 961q60 25 135 92q6 5 12 3.5t11.5 1t5.5 13.5q0 4 4 8.5t11 11.5l8 7q1 1 3.5 4t5 5.5t5.5 4.5q9 0 36 -19 t49.5 -38.5t21.5 -20.5q-50 -45 -60 -53q-5 -3 -11.5 0t-12.5 1.5t-7 -11.5q0 -14 -14 -23q-9 -5 -29 -12q-9 -3 -17 -11.5t-11 -9.5l-51 -22q-11 0 -50 29q-1 1 -6.5 5t-12 9.5t-12.5 11t-10.5 9.5t-3.5 4z" />
<glyph unicode="&#xfb;" horiz-adv-x="673" d="M82 717q4 3 11.5 10t17.5 17.5t18 17.5q37 33 57 33q29 0 45 -23q21 -30 27 -86q1 -5 -4 -13.5t-5 -16t11 -13.5q5 -7 4.5 -12.5t-3.5 -16.5t-3 -16q-3 -78 -12 -137q-1 -7 -10.5 -21.5t-6.5 -19.5q10 -15 4 -45q-1 -11 -7 -46.5t-9.5 -64.5t-3.5 -55q0 -51 16 -82 q28 -55 66 -55q43 0 88 75q2 3 14 5t15 18q2 7 2.5 21.5t3.5 19.5q39 79 61 162q26 131 31 176q1 5 6.5 15t6 14.5t-8.5 15.5q-5 6 -4.5 11.5t3.5 15.5t3 14q0 19 -4 43q-6 29 -20 37q14 24 49 51q44 38 61 27q16 -8 23 -43q7 -39 -1 -107t-21.5 -135.5t-14.5 -79.5 q-1 -6 -5.5 -37.5t-7.5 -60.5t-4 -56q0 -3 -5.5 -8t-5.5 -10.5t11 -13.5q6 0 4 -18t-2 -21l7 -39q1 -4 -4 -12t-3.5 -13.5t15.5 -9.5q10 -21 35 -35q11 -7 34 -10l-36 -35q-47 -41 -74 -41q-34 3 -51 23q-37 37 -37 141v2q-52 -67 -115 -111q-86 -63 -158 -63q-83 0 -80 119 q0 3 -1 12t-1 16t2.5 18.5t8.5 22.5q4 6 5 14.5t1.5 22.5t1.5 19t14 30t6 41q-4 8 -5 17t-0.5 14t2 15t1.5 14q11 101 11 162q0 112 -29 157q-16 23 -41 23zM199 918l22 28l19 25q2 3 7.5 5t9 6.5t3.5 14.5q0 5 4.5 11t12 12.5t10.5 9.5q2 2 17 19t22 26q5 8 47 8 q41 0 49 -8l51 -65q1 -1 3 -7t9 -10q6 -3 19 -20q2 -2 6.5 -13t13.5 -14q4 -2 7.5 -5t6.5 -9t5 -8q-38 -8 -54 2q-8 5 -17 13.5t-20 23t-19 25t-22.5 31t-21.5 30.5l-16 -23q-1 -1 -6 0t-10.5 -3t-4.5 -13q0 -4 -3 -10.5t-6 -10.5l-3 -4l-45 -57q-13 -19 -27 -19 q-6 0 -13.5 1t-8.5 1t-13 1.5t-23.5 3t-10.5 2.5z" />
<glyph unicode="&#xfc;" horiz-adv-x="673" d="M82 717q4 3 11.5 10t17.5 17.5t18 17.5q37 33 57 33q29 0 45 -23q21 -30 27 -86q1 -5 -4 -13.5t-5 -16t11 -13.5q5 -7 4.5 -12.5t-3.5 -16.5t-3 -16q-3 -78 -12 -137q-1 -7 -10.5 -21.5t-6.5 -19.5q10 -15 4 -45q-1 -11 -7 -46.5t-9.5 -64.5t-3.5 -55q0 -51 16 -82 q28 -55 66 -55q43 0 88 75q2 3 14 5t15 18q2 7 2.5 21.5t3.5 19.5q39 79 61 162q26 131 31 176q1 5 6.5 15t6 14.5t-8.5 15.5q-5 6 -4.5 11.5t3.5 15.5t3 14q0 19 -4 43q-6 29 -20 37q14 24 49 51q44 38 61 27q16 -8 23 -43q7 -39 -1 -107t-21.5 -135.5t-14.5 -79.5 q-1 -6 -5.5 -37.5t-7.5 -60.5t-4 -56q0 -3 -5.5 -8t-5.5 -10.5t11 -13.5q6 0 4 -18t-2 -21l7 -39q1 -4 -4 -12t-3.5 -13.5t15.5 -9.5q10 -21 35 -35q11 -7 34 -10l-36 -35q-47 -41 -74 -41q-34 3 -51 23q-37 37 -37 141v2q-52 -67 -115 -111q-86 -63 -158 -63q-83 0 -80 119 q0 3 -1 12t-1 16t2.5 18.5t8.5 22.5q4 6 5 14.5t1.5 22.5t1.5 19t14 30t6 41q-4 8 -5 17t-0.5 14t2 15t1.5 14q11 101 11 162q0 112 -29 157q-16 23 -41 23zM287 1014q0 4 25.5 22.5t31.5 18.5l8 -8q1 -1 0 -5.5t0 -5.5q13 -5 13 -10q-1 -5 1.5 -9.5t5.5 -7t3 -3.5 q0 -4 -26 -22.5t-32 -18.5q-2 0 -6 8q-1 2 0 7.5t0 6.5q-1 2 -6 3t-6 3zM406 1014q0 4 25.5 22.5t31.5 18.5q1 0 3.5 -4.5t5.5 -9.5t5 -7q1 -1 0.5 -3.5t-1 -4.5t0.5 -2q12 -5 12 -10q-1 -6 0.5 -7.5t3.5 -0.5t3 0q0 -4 -27 -22.5t-33 -18.5q-2 4 -6 8l-6 14q-8 12 -8 6z M416 993q2 -2 2 0h-2z" />
<glyph unicode="&#xfd;" horiz-adv-x="638" d="M39 713q6 23 41 51q37 30 63 27q20 0 37 -17q21 -21 27 -69q1 -5 5 -17.5t4.5 -19t-3.5 -17.5q-9 -16 -9 -26t4.5 -19t4.5 -16q-1 -48 -18 -195q-1 -6 -7 -17.5t-7.5 -18.5t5.5 -23q4 -11 4 -15t-3.5 -15.5t-4.5 -20.5q-17 -150 -6 -195q10 -38 49.5 -44.5t65.5 17.5 q31 22 67 89q2 4 8 7.5t10 10t3 20.5q0 7 16 39q32 78 45 129l4 50q1 7 7.5 18t9 17t-3.5 14q-11 9 -13 19t1.5 22t3.5 16q4 125 0 160q-1 10 -5 21t-5 15.5t3 16.5q4 10 11 16t19.5 13t21.5 14q2 2 16 16.5t23.5 20t17.5 0.5q6 -4 7 -9t-0.5 -15t-0.5 -17q2 -31 2 -125 q0 -5 -6 -15t-8.5 -16.5t4.5 -17.5q8 -10 8 -45l-12 -260q0 -5 -4.5 -11.5t-5 -12t7.5 -21.5q6 -1 2 -25.5t-4 -26.5q0 -5 -5 -12t-5.5 -12t8.5 -19q4 -9 4 -14.5t-3.5 -17.5t-4.5 -17q-6 -93 -15 -161q-1 -6 -6 -15t-6 -14t6 -21q4 -11 3 -17t-5.5 -16.5t-5.5 -15.5 q-9 -60 -40 -113.5t-70.5 -88.5t-83.5 -61t-79 -38.5t-59 -13.5q-35 -3 -43 11q-5 9 10 12q7 1 17 1q41 -3 93.5 30.5t90.5 100.5q3 5 12 11t11.5 11t-0.5 21q-2 7 5.5 21t8.5 18q33 102 37 240q0 15 1.5 39.5t4 61t4.5 63.5q-59 -87 -127 -133q-81 -62 -149 -62 q-42 0 -66 30t-21 95q0 1 -1.5 11t0 18.5t6.5 15.5q12 15 12.5 23t-4.5 15t-4 13q14 137 18 216q1 6 8 15.5t7.5 15.5t-11.5 24q-6 12 -5.5 19.5t4 23t3.5 22.5q0 121 -22 164q-13 26 -35 23zM166 979q60 25 135 92q4 4 11.5 3.5t12.5 2t5 13.5q0 4 3.5 8.5t10.5 11.5l8 6 q12 12 15 14q9 0 36 -19t49 -38t21 -20q-5 -4 -26 -24.5t-33 -29.5q-5 -3 -11.5 0t-12.5 1.5t-7 -11.5q0 -13 -14 -22q-13 -7 -29 -13q-9 -3 -18 -11t-11 -9l-51 -23q-6 0 -14 4t-13.5 8t-13.5 11l-8 6q-1 1 -6.5 5t-12 9.5t-12.5 11t-10.5 9.5t-3.5 4z" />
<glyph unicode="&#xfe;" horiz-adv-x="583" d="M35 1143l45 41q27 23 47 33q56 26 92 -52q17 -39 21 -227q0 -14 -13 -37q-5 -8 4 -15t9 -9q0 -73 -4 -183q70 67 139 92q77 28 121 -38q10 -16 4 -39q-3 -13 11 -16t15 -17q5 -51 11 -62t7 -21t-1 -22.5t-2 -19.5q3 -117 -29.5 -233t-99.5 -195q-3 -4 -12 -5t-15 -7 t-8 -23q-1 -7 -7 -12.5t-17 -11.5t-15 -9q-83 -65 -150 -65h-10q-6 -60 -49 -412q-2 -20 -20 4q-31 42 -36 106l-1 17q0 4 -0.5 17.5t0 20.5t1.5 18t3.5 19.5t7.5 16.5q6 9 -0.5 26.5t-5.5 24.5q0 4 0.5 20t3 25.5t8.5 14.5q5 5 7.5 9t1 8t-3 6.5t-5.5 8t-6 7.5q-4 10 -4 15 t3.5 16t4.5 16l10 190q1 8 4 18.5t2.5 15t-4.5 22.5q0 1 4.5 19t-0.5 28q-3 9 -2.5 15t2.5 18.5t2 19.5l9 192q0 5 3.5 13.5t4 14.5t-5.5 20q-4 11 -3.5 17.5t3 19t2.5 18.5t4 15.5t4.5 15t-6.5 16.5q-5 10 -4.5 16t3.5 18.5t3 18.5q0 25 1 73t1 69q0 103 -8 139 q-1 7 3.5 19t3 21.5t-17.5 16.5q-8 5 -12.5 23t-5.5 20q-20 33 -53 27zM188 82q38 -27 70 -27q33 0 61.5 26t48 70.5t32.5 95t20 107.5q1 10 8 22.5t8 19t-4 24.5q-4 8 -5.5 17.5t-1.5 15.5t0.5 17.5t0.5 16.5q0 63 -10 101q-30 108 -84 129q-33 12 -99 -66l-6 -94 q-1 -5 -10 -12t-11 -13t7 -22q10 -13 10 -43q-12 -168 -20 -248q-1 -4 -6 -11.5t-5.5 -12.5t7.5 -19q3 -9 3 -13.5t-3 -15t-4 -14.5z" />
<glyph unicode="&#xff;" horiz-adv-x="638" d="M39 713q6 23 41 51q37 30 63 27q20 0 37 -17q21 -21 27 -69q1 -5 5 -17.5t4.5 -19t-3.5 -17.5q-9 -16 -9 -26t4.5 -19t4.5 -16q-1 -48 -18 -195q-1 -6 -7 -17.5t-7.5 -18.5t5.5 -23q4 -11 4 -15t-3.5 -15.5t-4.5 -20.5q-17 -150 -6 -195q10 -38 49.5 -44.5t65.5 17.5 q31 22 67 89q2 4 8 7.5t10 10t3 20.5q0 7 16 39q32 78 45 129l4 50q1 7 7.5 18t9 17t-3.5 14q-11 9 -13 19t1.5 22t3.5 16q4 125 0 160q-1 10 -5 21t-5 15.5t3 16.5q4 10 11 16t19.5 13t21.5 14q2 2 16 16.5t23.5 20t17.5 0.5q6 -4 7 -9t-0.5 -15t-0.5 -17q2 -31 2 -125 q0 -5 -6 -15t-8.5 -16.5t4.5 -17.5q8 -10 8 -45l-12 -260q0 -5 -4.5 -11.5t-5 -12t7.5 -21.5q6 -1 2 -25.5t-4 -26.5q0 -5 -5 -12t-5.5 -12t8.5 -19q4 -9 4 -14.5t-3.5 -17.5t-4.5 -17q-6 -93 -15 -161q-1 -6 -6 -15t-6 -14t6 -21q4 -11 3 -17t-5.5 -16.5t-5.5 -15.5 q-9 -60 -40 -113.5t-70.5 -88.5t-83.5 -61t-79 -38.5t-59 -13.5q-35 -3 -43 11q-5 9 10 12q7 1 17 1q41 -3 93.5 30.5t90.5 100.5q3 5 12 11t11.5 11t-0.5 21q-2 7 5.5 21t8.5 18q33 102 37 240q0 15 1.5 39.5t4 61t4.5 63.5q-59 -87 -127 -133q-81 -62 -149 -62 q-42 0 -66 30t-21 95q0 1 -1.5 11t0 18.5t6.5 15.5q12 15 12.5 23t-4.5 15t-4 13q14 137 18 216q1 6 8 15.5t7.5 15.5t-11.5 24q-6 12 -5.5 19.5t4 23t3.5 22.5q0 121 -22 164q-13 26 -35 23zM238 1001q0 4 25.5 22.5t31.5 18.5l8 -8q1 -1 0 -5t0 -5q12 -5 12 -10 q-1 -5 2 -10t6 -7.5t3 -3.5q0 -4 -26 -22.5t-32 -18.5q-2 0 -6 9q-1 2 0 7.5t0 6.5q-1 2 -6 3t-6 3zM356 1001q0 4 26 22.5t32 18.5q1 0 3.5 -4t5.5 -9t5 -7q1 -1 0.5 -3.5t-1 -4.5t0.5 -2q12 -5 12 -11q-1 -6 0 -7.5t3 -0.5t3 0q0 -4 -26.5 -22.5t-32.5 -18.5q-2 5 -6 9 l-6 14q-8 12 -8 6zM367 981q2 -2 2 0h-2z" />
</font>
</defs>
</svg>
