<?xml version="1.0" standalone="no"?>
<!DOCTYPE svg PUBLIC "-//W3C//DTD SVG 1.1//EN" "http://www.w3.org/Graphics/SVG/1.1/DTD/svg11.dtd" >
<svg xmlns="http://www.w3.org/2000/svg" xmlns:xlink="http://www.w3.org/1999/xlink" version="1.1">
<metadata></metadata>
<defs>
<font id="kingthings_callicalligraphica" horiz-adv-x="750" >
<font-face units-per-em="2048" ascent="1638" descent="-410" />
<missing-glyph horiz-adv-x="414" />
<glyph horiz-adv-x="0" />
<glyph unicode="&#xd;" horiz-adv-x="390" />
<glyph unicode=" "  horiz-adv-x="414" />
<glyph unicode="&#x09;" horiz-adv-x="414" />
<glyph unicode="&#xa0;" horiz-adv-x="414" />
<glyph unicode="!" horiz-adv-x="404" d="M-14 -151l215 148l48 240l-217 -152zM42 186l233 186l194 968l-233 -176z" />
<glyph unicode="&#x22;" horiz-adv-x="542" d="M13 1099q-13 -64 12 -100t63 -39l168 134q-61 63 -45.5 128t69.5 101l-22 27q-142 -90 -187 -138.5t-58 -112.5zM273 1099q-13 -64 12 -100t63 -39l168 134q-61 63 -45.5 128t69.5 101l-22 27q-142 -90 -187 -138.5t-58 -112.5z" />
<glyph unicode="#" horiz-adv-x="863" d="M-32 466h852l67 96l-848 -1zM4 47l56 -76l548 1306l-52 81zM25 748h852l66 96l-847 -1zM225 47l56 -76l548 1306l-51 81z" />
<glyph unicode="$" horiz-adv-x="920" d="M7 387q-39 -75 11.5 -177.5t131.5 -156.5t190 -58.5t227.5 84.5t207 201.5t98.5 232.5t-42.5 168t-274 163t-200 201.5t141.5 96t172.5 -61.5t-35.5 -161l20 -23l238 231q-27 92 -103 136.5t-218 3.5t-237.5 -138t-131 -205.5t24 -187t257 -179t223 -170.5t-38 -135.5 t-160.5 -54.5t-185 73t-125.5 128t26.5 169l-10 17zM243 -191l110 -69l342 1715l-105 77z" />
<glyph unicode="%" horiz-adv-x="837" d="M21 -111l54 -83l714 1226l-47 87zM28.5 658q-31.5 -100 21 -180.5t102 -87t96 29.5t115 123.5t75 165.5t-37.5 132t-84 63t-71.5 -5t-108 -77.5t-108 -163.5zM121 736.5q10 48.5 61 67t101 -43.5t51.5 -129.5t-29 -97.5t-82.5 -19t-82 92.5t-20 130zM388.5 258 q-31.5 -100 21 -180.5t102 -87t96 29.5t115 123.5t75 165.5t-37.5 132t-84 63t-71.5 -5t-108 -77.5t-108 -163.5zM481 336.5q10 48.5 61 67t101 -43.5t51.5 -129.5t-29 -97.5t-82.5 -19t-82 92.5t-20 130z" />
<glyph unicode="&#x26;" horiz-adv-x="1220" d="M7.5 211.5q13.5 -197.5 189 -218.5t290.5 66.5t136 128.5q131 -149 269 -198l325 344l-22 23l-160 -143q-85 41 -214 144l431 471l-14 28l-307 1l-235 -251l24 -24l57 56l220 1l-210 -242q-187 128 -323 478q-35 131 -3.5 185.5t90.5 65t110 -45.5t36.5 -139t-150.5 -178 l20 -37l261 220q93 113 35 209t-178.5 88.5t-292.5 -145.5t-134 -342l43 -132q-307 -216 -293.5 -413.5zM274 245.5q-141 146.5 48 347.5q81 -167 267 -377q-174 -117 -315 29.5z" />
<glyph unicode="'" horiz-adv-x="258" d="M139 988l22 -27q142 90 187 138.5t58 112.5t-12 100t-63 39l-168 -134q61 -63 45.5 -128t-69.5 -101z" />
<glyph unicode="(" horiz-adv-x="447" d="M1.5 146.5q4.5 -244.5 110.5 -440.5l194 163q-300 600 277 1431l-6 33q-163 -157 -299.5 -356t-208.5 -392.5t-67.5 -438z" />
<glyph unicode=")" horiz-adv-x="446" d="M-133 -262l6 -33q163 157 299.5 356t208.5 392.5t68 438t-111 440.5l-194 -163q300 -600 -277 -1431z" />
<glyph unicode="*" horiz-adv-x="422" d="M-7 1129l131 12l-94 -72l-1 -103l126 125l-35 -132l74 -42l23 176l80 -131l39 99l-68 80l108 -1l55 89l-155 -19l90 83l-3 81l-111 -108l40 155l-82 -45l-18 -113l-64 115l-38 -80l53 -88h-99z" />
<glyph unicode="+" horiz-adv-x="795" d="M12 418l279 2l-69 -344l205 172l35 172h165l178 180h-311l64 316l-190 -148l-34 -171h-160z" />
<glyph unicode="," horiz-adv-x="284" d="M1 -91l23 -29q152 96 200 147.5t62 120t-12.5 107t-67.5 41.5l-179 -143q65 -67 48 -136.5t-74 -107.5z" />
<glyph unicode="-" d="M-15 409l14 -13q64 76 157 72h396q117 21 235 247l-5 16q-100 -94 -196 -91h-333q-160 -13 -268 -231z" />
<glyph unicode="." horiz-adv-x="415" d="M5 131q106 -19 83 -160l217 149q33 132 -84 178z" />
<glyph unicode="/" horiz-adv-x="450" d="M-197 -242l84 -97l747 1665l-77 103z" />
<glyph unicode="0" horiz-adv-x="786" d="M23 459.5q-56 -176.5 37 -318t186.5 -152.5t183.5 52t213.5 217.5t133.5 291.5t-73 232.5t-158 111t-132.5 -9t-196 -136.5t-194.5 -288.5zM169.5 613q41.5 132 162 146t212.5 -85.5t73 -274t-96.5 -231.5t-174.5 -18t-157.5 185t-19 278z" />
<glyph unicode="1" horiz-adv-x="467" d="M-28 15l11 -19h273l182 116l-12 23q-127 0 -244 -1q141 58 171 155l119 593l-11 18l-336 -231l12 -35l114 65l-80 -399q-16 -139 -199 -285z" />
<glyph unicode="2" horiz-adv-x="678" d="M-19 25l18 -25h488l158 199l-28 9l-46 -54l-357 2q329 275 422.5 410.5t16.5 240.5t-230 64.5t-251 -127.5t-107.5 -179.5t41.5 -146.5l239 182l-10 15q-62 -25 -73 41.5t20.5 108t94.5 35.5t99 -160.5t-58 -236.5z" />
<glyph unicode="3" horiz-adv-x="664" d="M-58 -384l46 -22q362 319 490.5 467t112.5 309.5t-231 156.5l302 335l-9 21l-401 2l-230 -241l16 -24q87 80 143 60l256 4l-385 -412l27 -38q193 209 269.5 39t-138.5 -393z" />
<glyph unicode="4" horiz-adv-x="831" d="M-62 28l31 -15q48 61 89 76t150.5 -18t143.5 -36q-13 -293 -150 -356l55 -41q184 145 227 235l50 132q105 -30 171 33t144 225l-46 18q-36 -89 -99.5 -101t-161.5 26l97 592l-224 -313l-37 -229q-164 38 -209 3q491 688 483 1071l-244 -214q129 -158 -470 -1088z" />
<glyph unicode="5" horiz-adv-x="674" d="M11 269l15 -26q104 133 232.5 117t171 -111t-7 -213t-352.5 -418l23 -30q355 337 421.5 430t100.5 203t-11.5 200.5t-114 113.5t-132.5 21t-162 -53l91 198h290l146 172l-5 19h-384z" />
<glyph unicode="6" horiz-adv-x="833" d="M-0.5 368.5q-2.5 -155.5 104.5 -280.5t243.5 -81.5t287 199t159 313t-89.5 243.5t-219.5 57.5t-302.5 -246.5q40 204 147.5 336t201.5 178.5t186 12.5l149 206q-281 -84 -412.5 -188t-222 -213.5t-160 -245t-72 -291zM182 504q110 153 234 152.5t179.5 -128t0.5 -249.5 t-142 -123q-258 11 -272 348z" />
<glyph unicode="7" horiz-adv-x="600" d="M-22 637l34 -6q69 68 134 67l338 -2l-297 -456q-164 -220 -182.5 -330t5.5 -180.5t92 -134.5l194 250q-158 82 -39 355l407 672l-15 25l-476 -1z" />
<glyph unicode="8" horiz-adv-x="717" d="M-1.5 201q12.5 -108 103.5 -159t169.5 -49t150 54t158.5 152t100.5 170.5t-24 132t-209.5 103.5t-173.5 104t77 79.5t166 -37t-31.5 -148.5l40 -10q144 78 163.5 151t-51 127.5t-158 39.5t-158 -57.5t-113 -85t-74 -129t11 -148.5t199 -104t182.5 -81.5t6 -79t-56 -53 t-107 -2.5t-138.5 45.5t-88 86t72.5 118.5l-32 18q-198 -130 -185.5 -238z" />
<glyph unicode="9" horiz-adv-x="855" d="M-60 -394q281 84 412.5 188t222 213.5t160 245t72.5 291t-104 280.5t-244 81.5t-287.5 -199t-159 -313t90 -243.5t219.5 -57.5t291 235.5q-29 -193 -136.5 -325t-201.5 -178.5t-186 -12.5zM231 636q34 119 121 120q249 -45 261 -359q-99 -142 -214 -130t-158.5 131 t-9.5 238z" />
<glyph unicode=":" horiz-adv-x="368" d="M-2 121q106 -19 83 -160l217 149q33 132 -84 178zM68 471q106 -19 83 -160l217 149q33 132 -84 178z" />
<glyph unicode=";" horiz-adv-x="325" d="M7 -91l23 -29q151 96 199.5 147.5t62 120t-12.5 107t-68 41.5l-178 -143q64 -67 47.5 -136.5t-73.5 -107.5zM48 471q106 -19 83 -160l217 149q33 132 -84 178z" />
<glyph unicode="&#x3c;" horiz-adv-x="654" d="M22 449q284 -111 380 -362l136 142q-68 222 -324 304l485 260l-21 38l-648 -347z" />
<glyph unicode="=" horiz-adv-x="961" d="M24 259l14 -13q67 76 164 72h413q122 21 244 247l-6 16q-104 -94 -203 -91h-348q-167 -13 -278 -231zM86 469l14 -13q67 76 164 72h413q122 21 244 247l-6 16q-104 -94 -203 -91h-348q-167 -13 -278 -231z" />
<glyph unicode="&#x3e;" horiz-adv-x="646" d="M-23 125l21 -38l648 347l8 35q-284 111 -380 362l-136 -142q68 -222 324 -304z" />
<glyph unicode="?" horiz-adv-x="916" d="M92 802l213 90q-50 176 37.5 278t207 72.5t130.5 -173t-64 -260t-332 -241.5l-96 -381l218 119l74 298q318 193 394 410.5t-83.5 314t-450 -47.5t-248.5 -479zM100 -153l232 148l58 233l-232 -145z" />
<glyph unicode="@" horiz-adv-x="1306" d="M-10.5 250.5q14.5 -140.5 123 -255t200 -97t392.5 262.5l-39 26q-242 -208 -391.5 -57.5t-104 341t170.5 324t264 196.5t273.5 44t195.5 -119.5t46.5 -262t-117 -227t-143 12.5t67.5 480l-270 3q-255 -168 -325 -332t-3 -271.5t144 -76t219 129.5q19 -96 105 -127 q381 172 466.5 364.5t42.5 339.5t-195 201.5t-311 15t-288.5 -124.5t-269.5 -226t-204 -282.5t-49.5 -282zM453.5 493.5q19.5 170.5 104.5 297.5h206q-101 -273 -83 -371q-247 -97 -227.5 73.5z" />
<glyph unicode="A" horiz-adv-x="1106" d="M-196 -1l290 1l195 221l-224 6q116 41 221 231h226l163 140l107 -463q33 -130 151 -141l181 270l-35 26l-64 -82q-8 -5 -15 -5q-29 0 -46 75l-219 1016q-4 16 -5 32q0 62 65 123l-20 23q-204 -153 -219 -239q-5 -27 -5 -53q0 -57 23 -108q-86 -43 -119 -104l-184 -337 h-146l-160 -199l32 -26l49 52h126q-93 -161 -368 -459zM375 626l221 358l77 -358h-298z" />
<glyph unicode="B" horiz-adv-x="1014" d="M-113 23l11 -24l538 -1q102 69 297 247q209 153 221 298q1 16 2 31q0 120 -82 172q-76 49 -184 49q-22 0 -46 -2q204 118 218 304q1 10 1 20q0 169 -241 210h-396l-211 -220l31 -21l67 71l173 1l-56 -92q-158 -867 -213 -909zM113 212l164 144l56 262l222 -1h11 q142 0 188 -75q21 -33 20 -72q0 -52 -38 -118q-66 -112 -135 -140h-488zM365 801l67 354q35 2 66 2q221 0 221 -117q1 -8 -1 -18q-20 -154 -143 -224z" />
<glyph unicode="C" horiz-adv-x="936" d="M22 526q8 -146 127.5 -324.5t315.5 -213.5l280 261l-25 23l-94 -80q-147 16 -241.5 113.5t-138.5 239.5q-15 50 -15 111q0 111 51 257q95 195 279 195h16q164 -18 164 -122q0 -44 -29 -102l16 -7q226 171 240 219q3 9 4 19q0 43 -49 101q-60 72 -123 80q-29 4 -57 5 q-33 0 -63 -6q-56 -11 -210.5 -124.5t-229.5 -192.5q-74 -80 -150 -193q-69 -103 -69 -233q0 -13 1 -26z" />
<glyph unicode="D" horiz-adv-x="1139" d="M-81 18l5 -23l517 -10q118 28 186 77.5t149 117.5t220 208t158 362q2 25 2 51q0 191 -130 345q-136 160 -415 160q-24 0 -49 -1l-226 -7l-226 -260l32 -14l74 73l246 4q-159 -132 -183 -222l-118 -576q-6 -71 -242 -285zM165 206q156 147 189 247l115 552q-2 94 78 102 q18 1 35 1q160 0 263 -94q113 -104 127 -293q2 -25 2 -49q0 -159 -76 -283q-88 -142 -171 -181z" />
<glyph unicode="E" horiz-adv-x="880" d="M-88 -5l671 1l262 289l-49 3q-78 -80 -160 -80h-2l-484 1q80 21 168 162l51 253h117l208 172l-12 24l-267 1l54 273l324 2l217 185l-2 20l-712 -2l-227 -267l31 -14q74 72 146 72l173 -1q-139 -51 -171 -159l-29 -140l-180 -199l10 -22l140 66l-68 -333q-6 -71 -209 -307 z" />
<glyph unicode="F" horiz-adv-x="747" d="M-97 -22l26 -14q38 32 203 32q55 0 124 -4l198 185l-290 -3q78 44 154 114l63 335l117 2l205 175l-11 24l-268 -4l49 274l344 8l214 189l-3 20l-732 -15l-222 -271l31 -13q45 70 116 74l202 2l-167 -162l-27 -140l-177 -202l10 -22q82 56 121 56q9 0 15 -3l-62 -336 q-7 -84 -233 -301z" />
<glyph unicode="G" horiz-adv-x="997" d="M4 511q-1 -12 -1 -25q0 -150 111 -314q120 -179 352 -184l168 115l-22 -131l27 -12l197 134q62 512 123 568l110 134l-11 24l-368 1l-240 -234l9 -15q88 58 151 66l231 2q-124 -12 -153 -240l-38 -218q-19 -1 -37 -1q-164 0 -265 89q-113 100 -139 282q-8 53 -8 103 q0 121 45 224q133 235 344 235h5q176 -22 176 -131q0 -43 -28 -99l15 -7q226 170 241 219q3 9 3 20q0 42 -48 100q-61 71 -124 80q-28 5 -59 5q-36 0 -75 -6q-71 -11 -226 -124.5t-229.5 -193t-150.5 -192.5t-86 -274z" />
<glyph unicode="H" horiz-adv-x="1118" d="M-128 -33l24 -4q54 34 262 34q32 0 68 -1l201 181l-290 2q89 43 158 222l39 183h337l103 106l-83 -405q-9 -84 -239 -318l24 -4q54 34 262 34q32 0 68 -1l201 181l-290 2q89 43 162 192l157 725l207 185l-2 20l-372 -2l-227 -267l31 -14q46 69 117 72l182 -1 q-114 -70 -158 -174l-28 -134h-406l62 313l4 2l217 185l-2 20l-372 -2l-227 -267l31 -14q46 69 117 72l182 -1q-112 -69 -155 -179l-30 -150l-48 -2l-233 -247l10 -22q116 93 209 93q13 0 26 -2l-60 -295q-9 -84 -239 -318z" />
<glyph unicode="I" horiz-adv-x="553" d="M-98 -33l24 -4q54 34 262 34q32 0 68 -1l203 191l-20 18q-45 -28 -197 -28q-39 0 -85 2q85 73 198 222l147 693l4 2l187 185l-2 20l-372 -2l-227 -267l31 -14q46 69 117 72l202 -1q-164 -99 -189 -199l-110 -545l-24 -122q-48 -106 -217 -256z" />
<glyph unicode="J" horiz-adv-x="1049" d="M-24 262q51 -151 172 -233q69 -44 137 -44q88 0 174 74q218 136 332 396l133 665l138 1l203 183h-812l-238 -257l37 -19l79 86h488l-113 -115l-107 -535q-47 -240 -92 -283q-18 -17 -43 -17q-37 0 -89 38q-179 117 -179 247q0 73 57 150l-11 17l-129 -102 q-130 -97 -137 -252z" />
<glyph unicode="K" horiz-adv-x="1000" d="M-128 -33l24 -4q54 34 262 34q32 0 68 -1l203 191l-20 18q-45 -28 -197 -28q-39 0 -85 2q138 110 176 222l41 199q22 28 58 29h2q36 0 91 -53q56 -54 82.5 -152.5t68 -237t141.5 -202.5l243 184l-20 24q-41 -34 -67 -34q-16 0 -26 12q-49 63 -68 142t-50.5 191.5 t-82 179.5t-170.5 95l566 501l8 20h-344l-233 -227l12 -17q81 43 136 44l143 1l-471 -411l83 407l217 185l-2 20l-372 -2l-227 -267l31 -14q46 69 117 72l182 -1q-112 -69 -165 -179l-114 -565l-24 -122q-48 -106 -217 -256z" />
<glyph unicode="L" horiz-adv-x="735" d="M-128 -33l24 -4q54 34 473 34q64 0 137 -1l211 231l-20 18q-58 -65 -172 -65h-7l-391 -1q85 73 178 222l147 693l4 2l217 185l-2 20l-372 -2l-227 -267l31 -14q46 69 117 72l182 -1q-112 -69 -165 -179l-114 -565l-34 -122q-48 -106 -217 -256z" />
<glyph unicode="M" horiz-adv-x="1284" d="M-152 -33l24 -4q52 33 252 33q36 0 77 -1l198 187l-21 17q-43 -27 -193 -27q-40 0 -87 2q82 71 161 217l96 585l206 -399q23 -29 23 -60q0 -51 -61 -111l31 -33l138 130q65 58 64 120q0 54 -50 110l368 434q46 37 90 37q82 0 159 -126l156 172q-40 34 -111 68 q-44 21 -94 22q-31 0 -64 -8q-87 -21 -197 -129l-342 -392q-222 494 -297 495q-2 0 -4 -1q-72 -16 -303 -214l27 -21q78 57 132 57q55 0 85 -60q-131 -131 -135 -179l-98 -552l-20 -119q-46 -104 -210 -250zM638 -33l24 -4q52 33 252 33q36 0 77 -1l198 187l-21 17 q-43 -27 -193 -27q-40 0 -87 2q82 71 161 217l146 756l-29 11l-189 -213l-109 -609l-20 -119q-46 -104 -210 -250z" />
<glyph unicode="N" horiz-adv-x="1148" d="M-138 -33l24 -4q52 33 252 33q36 0 76 -1l199 187l-21 17q-43 -27 -194 -27q-40 0 -87 2q83 71 162 217l97 545l344 -781q-46 -72 -191 -185l25 -4q51 34 253 34q35 0 75 -1l199 191l-20 18q-41 -26 -159 -26q-40 0 -90 3q51 70 131 219l133 723l3 2l213 155l-3 20 l-371 -2l-222 -237l31 -14q45 69 117 71h182q-113 -70 -153 -217l-75 -467q-342 857 -411 857h-1q-68 -6 -318 -224l28 -21q78 57 132 57q56 0 86 -60q-113 -111 -116 -159l-100 -552l-19 -119q-46 -104 -211 -250z" />
<glyph unicode="O" horiz-adv-x="1024" d="M29 674q-32 -104 -32 -199q-1 -140 69 -263q118 -206 241 -222q18 -2 37 -2q104 0 206 78q120 92 290 316q169 224 187 424q3 29 3 57q0 163 -91 281q-106 138 -203 162q-38 9 -73 9q-55 0 -102 -22q-78 -36 -265 -199.5t-267 -419.5zM216 879q73 211 251 250q33 7 63 7 q136 0 232 -142q82 -122 82 -277q0 -67 -16 -141q-50 -244 -154 -326q-77 -61 -169 -61q-33 0 -67 8q-132 31 -214 251q-43 116 -42 229q0 102 34 202zM342 676q87 -16 87 -115q0 -21 -4 -45l217 149q7 28 7 53q0 89 -92 125z" />
<glyph unicode="P" horiz-adv-x="980" d="M-144 -3l8 -30q58 29 215 29q56 0 125 -4l213 205q-89 -28 -193 -28q-44 0 -90 5q147 82 184 234l7 36q48 -10 94 -10q173 0 317 148q184 188 234 367q15 55 14 105q0 110 -74 190q-92 99 -215 99q-23 0 -47 -3l-346 2l-145 -175l-74 -75l24 -34l99 95l213 -10 q-137 -65 -177 -233l-125 -622q-76 -189 -261 -291zM361 645l96 501q47 5 88 5q123 0 183 -50q80 -67 88 -230v-18q0 -149 -123 -216q-45 -25 -93 -24q-90 0 -188 87z" />
<glyph unicode="Q" horiz-adv-x="1038" d="M64 674q-34 -107 -34 -206q0 -138 65 -260q111 -211 247 -222q15 -2 30 -2q119 0 220 82q114 91 283 316t187 424q2 29 2 56q0 164 -90 282q-106 139 -204 162q-38 9 -72 9q-55 0 -102 -22q-78 -36 -265.5 -199t-266.5 -420zM246 871q77 219 246 263q35 9 67 9 q129 0 230 -140q90 -125 90 -286q0 -65 -15 -137q-51 -247 -156 -330q-93 -74 -204 -74q-13 0 -26 1q-127 10 -218 243q-49 125 -49 248q0 103 35 203zM427 335l2 -30q42 21 73 21q15 0 27 -5q38 -15 69.5 -164.5t69.5 -317.5t88 -191q8 -3 18 -3q64 0 254 119l-17 40 q-50 -39 -83 -39q-12 0 -22 6q-35 21 -62.5 146t-72 309t-83.5 208q-6 5 -17 5q-58 0 -244 -104z" />
<glyph unicode="R" horiz-adv-x="984" d="M-129 -7l5 -30q80 34 292 34q33 0 68 -1l203 191l-20 18q-45 -28 -197 -28q-39 0 -85 2q138 110 176 222l48 237h13q94 0 132 -28q40 -30 78.5 -89.5t59 -134.5t41.5 -197t128 -211l227 190l-20 24q-41 -34 -67 -34q-16 0 -26 12q-49 63 -68 142t-41 172q-20 92 -74 154 q-43 49 -119 49q-18 0 -39 -3q154 26 255 140q86 96 86 220q0 22 -3 46q-18 152 -176 201l-105 10l-344 -2l-227 -267l31 -14q46 69 117 102l182 7q-142 -77 -195 -217l-114 -565l-24 -122q-48 -106 -198 -230zM373 708l83 420q39 4 73 4q99 0 159 -32q67 -36 67 -124 q1 -18 -3 -40q-18 -120 -90 -176q-70 -53 -274 -52h-15z" />
<glyph unicode="S" horiz-adv-x="860" d="M-24 387q-17 -33 -17 -71q1 -48 29 -106q50 -102 131 -156q81 -56 190 -60h11q104 0 217 85q119 89 207.5 201.5t98.5 232.5q2 19 2 36q0 91 -45 132q-52 48 -274 163q-202 105 -203 186q1 8 3 16q22 86 141 96q14 1 27 1q100 0 146 -63q20 -27 19 -56q0 -49 -55 -105 l20 -23l238 231q-26 93 -102 137q-39 23 -97 23q-53 0 -121 -20q-142 -41 -238 -138t-132 -205q-13 -40 -13 -77q0 -61 38 -111q60 -78 257 -178q196 -101 222 -171q7 -20 8 -40q0 -49 -46 -95q-54 -56 -132 -57q-14 0 -28 2q-96 11 -184 73t-126 128q-14 24 -14 54 q0 50 40 115l-10 17z" />
<glyph unicode="T" horiz-adv-x="805" d="M-88 1032l31 -14q46 69 117 72l413 -1q-133 -69 -194 -219l-106 -525l-24 -122q-48 -106 -217 -256l24 -4q54 34 262 34q32 0 68 -1l203 191l-20 18q-45 -28 -196 -28q-39 0 -85 2q84 73 207 222l136 687l293 1l229 192l-12 18h-901z" />
<glyph unicode="U" horiz-adv-x="1234" d="M29 416q67 -269 298 -416q16 -3 32 -3q94 1 207 107q125 118 125 130q0 1 -1 1q11 -187 115 -237l269 365l-21 30q-59 -57 -90 -57q-33 0 -33 66q0 34 9 87l122 612l45 1l175 173l-2 20l-372 -2l-212 -242l31 -14q42 67 106 67l174 -1q-142 -106 -196 -257l-98 -491 q-98 -166 -159 -166q-9 0 -18 4q-124 49 -203 173q-80 123 -104 251q-14 71 -13 134q1 49 9 93q20 100 202 273l190 179h-308l-11 -16l-225 -237l22 -14q60 62 262 65q-339 -285 -339 -570q0 -54 12 -108z" />
<glyph unicode="V" horiz-adv-x="1078" d="M-53 948l27 -28q64 72 99 72q28 0 38 -45l190 -895q31 -59 86 -59q34 0 78 22q513 511 577 713q28 86 28 172q0 114 -50 226q-81 183 -197 184q-8 0 -17 -1q-128 -14 -250.5 -123.5t-201.5 -188.5l-51 260q-7 49 -27 49q-21 0 -56 -53zM365 947q125 127 267 154 q17 3 32 3q116 0 166 -174q27 -96 27 -188q1 -98 -31 -192q-60 -181 -252 -338q-2 -1 -5 0q-80 -1 -204 735z" />
<glyph unicode="W" horiz-adv-x="1408" d="M-63 948l26 -29q66 78 108 78q28 0 45 -34l149 -848q21 -121 78 -121q47 0 117 81l176 141l-14 59l-105 -78h-4q-82 0 -179 722q101 77 158 77q39 0 56 -36l170 -871q21 -96 69 -96q45 0 114 82q449 452 512 653q28 88 28 176q1 112 -45 222q-75 183 -187 183 q-9 0 -17 -1q-122 -14 -365 -283l13 -43q140 150 236 150q8 0 15 -1q100 -13 139 -199q15 -71 15 -143q1 -115 -39 -233q-64 -190 -251 -319q-91 43 -190 709l-10 50l-50 261q-5 41 -26 41q-25 0 -72 -57l-281 -266l-49 282q-7 48 -28 48q-22 0 -59 -53z" />
<glyph unicode="X" horiz-adv-x="995" d="M-33 270q-17 -56 -17 -103q0 -67 36 -111q51 -64 130 -63q15 0 30 2l287 314l-12 26q-108 -89 -176 -89q-49 0 -77 46q-13 21 -13 46q0 103 227 259l165 -472q64 -130 165 -130l206 247l-19 33q-26 -51 -58 -51q-102 0 -262 527l499 510l-12 44l-311 -1l-228 -221l14 -25 q74 48 189 48q40 0 85 -6l-255 -253l-129 399q-12 55 -51 55q-63 0 -196 -144l-135 -132l17 -40q52 58 98 58q84 0 144 -202l46 -149q-345 -284 -387 -422z" />
<glyph unicode="Y" horiz-adv-x="760" d="M-71 1104l23 -27q51 48 83 48q25 0 39 -27l187 -446l-71 -359q-26 -94 -258 -296l389 2l222 207l-26 23q-37 -60 -212 -60q-57 0 -128 6q204 124 245 261l43 288l487 567l-14 7l-289 -2l-218 -203l13 -21q49 39 166 39q42 0 93 -5l-280 -320l-184 434q-29 85 -73 85 q-40 0 -91 -67z" />
<glyph unicode="Z" horiz-adv-x="938" d="M-7 24l29 -32q88 124 227 124q80 0 177 -42q179 -77 264 -76q41 0 59 18q58 54 106.5 142.5t102.5 168.5l-30 23q-47 -100 -109 -125q-34 -14 -71 -14q-32 -1 -64 9q-72 20 -370 122l609 926l-17 32l-612 -4l-224 -300l41 -17q49 71 243 104h331z" />
<glyph unicode="[" horiz-adv-x="516" d="M40 275q75 -199 255 -281l172 194q-123 47 -199 168.5t-63 289t76.5 314t236.5 348.5l-21 18q-323 -262 -427.5 -557t-29.5 -494z" />
<glyph unicode="\" horiz-adv-x="338" d="M-2 1326l108 103l253 -1671l-113 -97z" />
<glyph unicode="]" horiz-adv-x="535" d="M16 12l21 -18q323 262 427.5 557t29.5 494t-255 281l-172 -194q123 -47 199 -168.5t63 -289t-76.5 -314t-236.5 -348.5z" />
<glyph unicode="_" horiz-adv-x="976" d="M2 -406l21 -8q65 45 188 43h521q149 12 245 146l-12 10q-106 -56 -233 -54h-438q-208 -8 -292 -137z" />
<glyph unicode="`" horiz-adv-x="404" d="M1 1218q142 -197 233 -186l167 154q-130 -22 -259 153z" />
<glyph unicode="a" horiz-adv-x="762" d="M-12 413q-8 -28 -8 -59q0 -88 62 -198q84 -149 145 -157q131 94 213 153q6 -107 125 -160l245 239l-28 23l-53 -47q-20 -8 -36 -8q-28 0 -43 25t-15 58q0 19 5 41l97 481q17 73 73 97l-334 -1q-136 -73 -277 -226t-171 -261zM197 326q-30 62 -30 129q0 134 121 287h243 l-48 -68l-8 -37l-86 -429q-27 -19 -54 -19q-72 0 -138 137z" />
<glyph unicode="b" horiz-adv-x="807" d="M31 341q-4 -40 -4 -74q1 -63 13 -105q18 -65 58 -108t144 -60q6 -1 12 -1q107 0 349 260q169 242 169 403v8q-4 162 -122 226q-24 13 -54 14q-112 0 -300 -190l112 452q24 168 138 274l-20 11q-140 -78 -218.5 -167t-116.5 -224zM238 414l43 228q74 80 162 84q2 0 3 1 q85 1 123 -175q9 -42 9 -85q0 -137 -93 -275q-69 -46 -122 -46q-45 0 -79 35q-53 55 -54 153q1 37 8 80z" />
<glyph unicode="c" horiz-adv-x="682" d="M12 344q30 -186 108 -274q64 -74 129 -74q13 0 26 3q175 116 353 301l-21 22q-103 -96 -194 -124q-15 -3 -29 -3q-89 0 -148 121q-41 85 -41 165q-1 53 17 104q44 129 105 145q18 5 35 5q42 0 82 -27q50 -33 51 -122q0 -12 -1 -26l193 143q13 35 13 64q0 51 -40 86 q-54 46 -130 46q-13 0 -26 -1q-100 -38 -235 -145q-249 -201 -249 -372q-1 -19 2 -37z" />
<glyph unicode="d" horiz-adv-x="865" d="M19 281q13 -81 93 -199q59 -85 106 -85q18 0 35 12l240 153q13 -162 115 -162h1l175 175l60 55l-23 34l-85 -75q-28 8 -28 76q0 60 22 167l135 672q44 222 154 284l-25 17q-260 -95 -314 -292l-43 -215h-248q-308 -348 -345 -442q-28 -71 -28 -135q0 -20 3 -40zM204 528 q30 111 88 158h224l104 111l-115 -575q-64 -27 -115 -27q-92 1 -140 87q-55 97 -55 182q1 33 9 64z" />
<glyph unicode="e" horiz-adv-x="632" d="M-8 344q30 -186 120 -290q53 -61 110 -61q39 0 79 29q149 93 297 258l-21 22q-73 -76 -152 -119q-27 -13 -52 -13q-77 0 -135 122t-58 227q0 34 6 67q24 132 110 161q26 9 49 9q51 0 83 -47q23 -34 23 -65q0 -29 -21 -53q-43 -51 -124 -102l-85 -56l21 -42l291 201l96 71 q19 56 19 99q0 60 -38 91q-54 46 -130 46q-13 0 -26 -1q-100 -38 -215 -145q-249 -201 -249 -372q-1 -19 2 -37z" />
<glyph unicode="f" horiz-adv-x="597" d="M-346 -347q51 -6 98 -6q232 0 368 145q162 173 210 373l96 544l117 3l193 171l-276 -4q51 279 90 331q41 14 70 14q71 0 71 -84q0 -21 -5 -49l139 96q44 43 44 92q0 15 -3 29q-17 67 -161 106l-314 -254q-61 -42 -110 -287l-113 -7l-154 -163l237 3l-144 -730 q-40 -183 -107 -215q-16 -8 -34 -8q-57 0 -131 80z" />
<glyph unicode="g" horiz-adv-x="830" d="M-112 -247q97 -125 188 -143q38 -8 72 -8q48 0 89 14q71 26 228 173.5t176 311t79.5 449t141.5 329.5l-7 22l-370 -1q-139 -73 -282.5 -226t-178.5 -261q-10 -31 -10 -67q0 -86 60 -195q86 -154 148 -162q145 104 235 163q-48 -332 -71 -379q-59 -29 -114 -29 q-33 0 -65 10q-85 28 -171 154zM217 280q-32 62 -32 135q0 131 105 297l329 -1q-66 -68 -83 -149l-70 -350q-60 -40 -111 -40q-83 0 -138 108z" />
<glyph unicode="h" horiz-adv-x="810" d="M-24 168q-5 -29 -5 -53q0 -99 90 -115l226 186l-16 20l-67 -49q-20 9 -20 53q0 37 14 97l75 375l126 62h8q133 0 133 -134q0 -32 -8 -71l-74 -367q-7 -32 -7 -59q0 -92 85 -109l227 184l-15 26l-69 -54q-20 3 -20 43q0 28 10 75l80 397q6 34 6 63q0 86 -54 128 q-57 44 -125 44q-18 0 -38 -3l-265 -178l79 396q36 214 128 274l-12 19q-271 -127 -313 -348l-97 -492z" />
<glyph unicode="i" horiz-adv-x="439" d="M40 710l12 -37l69 44h1q29 0 29 -47q0 -37 -19 -104l-81 -406q-3 -21 -3 -39q0 -111 94 -127l235 192l-18 23l-66 -50q-33 2 -33 56q0 37 15 98l84 423q9 50 10 86q0 77 -43 90zM173 1131q87 -16 87 -115q0 -21 -4 -45l217 149q7 28 7 53q0 89 -92 125z" />
<glyph unicode="j" horiz-adv-x="464" d="M-151 -324l15 -14q365 182 418 576l100 498q9 46 9 80q0 83 -52 96l-286 -202l13 -20q31 18 52 18q37 0 37 -61q0 -32 -10 -81l-81 -406q-29 -191 -61 -282.5t-154 -201.5zM186 1131q87 -16 87 -115q0 -21 -4 -45l217 149q7 29 7 53q0 89 -91 125z" />
<glyph unicode="k" horiz-adv-x="817" d="M4 183q-3 -20 -3 -38q0 -105 90 -151l260 191l-20 27q-49 -38 -76 -38q-34 0 -35 60q0 63 38 191q38 16 67 16t51 -16q43 -32 104 -233t134 -201l238 220l-25 26q-41 -46 -73 -46q-54 1 -86 133q-50 210 -165 230q89 42 157 128q63 80 63 200v18l-253 -144q3 -33 3 -61 q-1 -86 -33 -117q-44 -41 -181 -83l118 590q53 252 149 313l-26 17q-297 -171 -339 -447z" />
<glyph unicode="l" horiz-adv-x="410" d="M30 210q-2 -19 -2 -36q0 -129 113 -180l236 192l-11 20q-46 -26 -79 -26q-49 0 -68 58l96 478l78 391q34 197 129 273l-13 22q-283 -172 -307 -336z" />
<glyph unicode="m" horiz-adv-x="1285" d="M10 713l18 -30l70 53q52 -3 52 -74q0 -36 -13 -90l-82 -410q-5 -29 -5 -53q0 -99 90 -115l227 186l-16 20l-68 -49q-20 9 -20 53q0 37 14 97l75 375l86 62h8q133 0 133 -134q0 -32 -8 -71l-74 -367q-7 -32 -7 -58q0 -93 85 -110l227 184l-15 26l-69 -54q-20 3 -20 43 q0 28 10 75l79 395l86 71q134 -10 134 -154q0 -24 -4 -51l-74 -367q-6 -32 -6 -57q0 -94 85 -111l226 184l-21 20l-52 -41q-28 3 -28 48q0 27 10 69l70 347q8 40 8 74q0 177 -203 199l-233 -175q-14 162 -208 178l-225 -178q1 13 1 25q0 137 -117 153z" />
<glyph unicode="n" horiz-adv-x="852" d="M10 713l18 -30l69 53q53 -3 53 -75q0 -36 -13 -89l-82 -410q-5 -29 -5 -53q0 -99 90 -115l226 186l-16 20l-68 -49q-20 9 -19 53q0 36 13 97l75 375l117 62q31 7 55 7q95 0 96 -104q0 -45 -18 -108l-75 -367q-8 -40 -8 -71q0 -81 57 -97l257 184l-15 26l-69 -54 q-20 3 -20 43q0 28 10 75l80 397q6 34 6 62q0 87 -54 129q-57 44 -126 44q-18 0 -38 -3l-254 -178q1 13 1 24q0 137 -118 154z" />
<glyph unicode="o" horiz-adv-x="770" d="M37 462q-21 -67 -21 -129q0 -103 57 -191q93 -142 181 -153q13 -2 26 -2q74 0 144 54q82 63 202 218t132 293q1 18 1 35q1 115 -67 199q-78 96 -148 111q-27 6 -53 6q-39 0 -73 -15q-56 -25 -190.5 -137.5t-190.5 -288.5zM201 607q37 109 136 125q13 2 25 1q84 0 156 -93 q73 -94 73 -199q0 -14 -1 -28q-11 -120 -73 -181q-52 -51 -128 -52q-14 0 -29 2q-96 12 -146 164q-29 88 -28 161q-1 54 15 100z" />
<glyph unicode="p" horiz-adv-x="869" d="M-142 -303l11 -15q22 7 43 7q52 0 97 -41q53 -48 127 -48q16 0 32 2l213 205q-58 -36 -122 -36q-96 0 -204 83q166 92 175 155l22 65q49 -50 105 -50q41 0 85 28q105 65 246 218t165 295q4 24 4 47q0 114 -98 205q-84 79 -139 79q-23 0 -40 -13l-200 -153 q-11 141 -116 162l-175 -175l-60 -55l23 -34l85 75q34 -1 34 -84q0 -59 -17 -159l-98 -482q-31 -141 -198 -281zM279 255l89 401l83 62q28 12 54 12q58 0 105 -58q54 -65 54 -187q0 -33 -4 -71q-19 -175 -145 -220q-28 -10 -52 -10q-87 0 -133 126z" />
<glyph unicode="q" horiz-adv-x="778" d="M12 413q-9 -29 -9 -62q0 -88 57 -200q79 -154 136 -162q189 104 227 151l-116 -557l424 288l-26 33l-167 -101l200 957q11 86 79 111l-13 30h-299q-191 -74 -327.5 -227t-165.5 -261zM223 271q-40 79 -40 167q0 119 72 254h342q-76 -34 -81 -109l-77 -375 q-48 -48 -93 -48q-66 0 -123 111z" />
<glyph unicode="r" horiz-adv-x="685" d="M18 650l22 -20q70 70 105 70q7 0 13 -4q17 -9 17 -41q0 -33 -17 -89l-101 -406q-3 -21 -3 -40q0 -107 84 -126l246 192l-10 20q-47 -26 -72 -26q-27 0 -28 32q0 11 4 26l98 392q36 116 89 121h5q50 0 78 -103l202 131q-40 99 -110 117q-19 5 -37 5q-49 0 -95 -34 q-62 -47 -117 -122q1 12 1 24q0 107 -118 123z" />
<glyph unicode="s" horiz-adv-x="720" d="M10 268q-15 -24 -15 -53q0 -33 19 -71q36 -72 100 -108t154 -40q7 0 14 -1q81 -1 147 47q72 52 147 132q76 80 98 164q9 34 8 64q0 46 -19 84q-31 64 -203 109q-173 44 -173 107q-1 60 77 78q25 6 51 5q53 0 103 -25q35 -17 36 -46q0 -32 -46 -79l15 -3l191 158 q-18 64 -74 95q-37 20 -84 20q-24 0 -50 -5q-78 -16 -155 -58t-125 -84q-48 -41 -68 -118q-8 -31 -8 -59q0 -41 18 -77q30 -60 187 -112t182 -92q14 -22 14 -44q0 -17 -9 -35q-20 -39 -56 -52.5t-109.5 -13.5t-142 37t-82.5 88q-3 12 -4 23q0 40 38 83l-8 16z" />
<glyph unicode="t" horiz-adv-x="563" d="M6 656l29 -23q60 86 142 86q17 0 35 -4l-100 -494q-6 -29 -6 -55q0 -117 118 -180l264 228l-18 33q-73 -59 -113 -59q-50 0 -49 90l90 448h108l169 147l-4 28h-250l4 20l41 205q8 58 98 133l-16 20q-39 -9 -149 -97t-137 -184l-22 -121l-48 -3z" />
<glyph unicode="u" horiz-adv-x="814" d="M21 714l15 -26l69 54q21 -3 21 -43q0 -37 -17 -105l-61 -300q-9 -46 -9 -85q-1 -89 47 -141q68 -76 165 -81l220 186q-1 -13 -1 -25q0 -137 117 -153l226 188l-18 30l-70 -53q-52 3 -52 74q0 36 13 90l82 410q5 29 5 53q0 99 -90 115l-227 -186l16 -20l68 49 q24 -8 24 -51q0 -37 -18 -99l-75 -375l-109 -79q-120 9 -120 138q0 37 10 84l74 367q7 32 6 58q0 93 -84 110z" />
<glyph unicode="v" horiz-adv-x="840" d="M-47 641l21 -19q48 49 75 49q22 0 31 -31l170 -607q25 -40 68 -40q26 0 60 15q386 348 432 484q18 53 18 106q0 84 -44 168q-69 133 -160 134q-2 0 -6 -1q-94 -5 -194.5 -104t-128.5 -134l-55 178q-12 45 -34 45q-20 0 -48 -36zM306 627q68 83 158 87h7q86 0 141 -110 q33 -67 33 -135q-1 -48 -17 -97q-40 -118 -137 -201q-2 -1 -5 0q-74 -1 -180 456z" />
<glyph unicode="w" horiz-adv-x="1265" d="M-24 655l22 -20q51 52 87 52q26 0 45 -27l156 -576q27 -89 76 -89q39 0 91 56l149 106l-15 37l-53 -33q-4 -2 -9 -3q-63 0 -166 477q63 59 107 59q34 0 57 -34l171 -601q26 -57 66 -57q37 0 84 49q358 311 404 451q17 52 18 105q0 87 -48 175q-71 132 -159 131h-11 q-94 -9 -296 -212l10 -38q92 75 159 75q66 0 110 -72q56 -94 56 -182q1 -49 -17 -95q-48 -130 -147 -215q-67 18 -173 480l-12 34l-47 181q-22 30 -49 30q-30 0 -67 -36l-225 -189l-50 195q-21 35 -49 35q-29 0 -66 -38z" />
<glyph unicode="x" horiz-adv-x="861" d="M8 185q-11 -35 -11 -64q0 -50 33 -83q44 -44 111 -44q13 0 27 2l233 216l-10 18q-89 -61 -147 -61q-42 0 -67 32q-13 17 -13 38q0 72 161 184l153 -338q58 -89 143 -89l192 170l-16 23q-27 -36 -59 -36q-99 0 -240 355l427 351l-13 40l-240 -1l-198 -173l12 -17 q28 29 132 29q39 0 88 -4l-225 -180l-105 280q-13 65 -46 65q-30 0 -76 -55l-194 -192l27 -28q54 62 91 62q25 0 42 -27l87 -188q-268 -190 -299 -285z" />
<glyph unicode="y" horiz-adv-x="856" d="M-110 -270q104 -105 230 -105q111 0 240 82q273 175 351 396l128 637q1 12 1 23q0 125 -92 145l-259 -214l16 -32l76 61h4q33 0 33 -53q0 -34 -13 -89l-63 -317q-90 -76 -183 -76q-10 0 -19 1q-88 8 -88 134q0 21 2 45l75 368q6 31 6 56q0 95 -89 112l-252 -224l12 -37 l74 59q12 5 21 5q27 0 27 -49q0 -25 -7 -62l-64 -321q-3 -26 -3 -50q0 -174 176 -237q153 77 303 189l-23 -115q-40 -277 -199 -292q-16 -2 -31 -2q-139 0 -239 122z" />
<glyph unicode="z" horiz-adv-x="740" d="M-75 17l16 -18q40 33 119 33q64 0 152 -22q90 -22 158 -21q82 0 130 32q88 59 236 274l-25 15q-83 -120 -275 -120q-105 0 -243 36l610 627l-12 26h-498l-211 -249l14 -17q79 87 216 87q12 0 24 -1h238q-550 -537 -649 -682z" />
<glyph unicode="{" horiz-adv-x="511" d="M11 499q99 -136 74 -251q-89 -519 47 -588l203 229l-11 24q-102 -76 -59 268l30 152q4 133 -89 176q130 62 174 247l59 294q54 295 152 386l-13 26q-299 -205 -342 -461l-48 -242q-26 -140 -177 -260z" />
<glyph unicode="}" horiz-adv-x="459" d="M-109 -314l13 -26q299 205 342 461l48 242q26 140 177 260q-99 136 -74 251q89 519 -47 588l-203 -229l11 -24q102 76 59 -268l-30 -152q-4 -133 89 -176q-130 -62 -174 -247l-59 -294q-54 -295 -152 -386z" />
<glyph unicode="&#xa4;" horiz-adv-x="899" d="M-3.5 531q7.5 -146 127.5 -324.5t316 -213.5l280 261l-25 23l-94 -80q-147 16 -241.5 113.5t-138 239.5t35.5 368q99 204 295 195q232 -25 135 -224l16 -7q226 170 240.5 218.5t-45.5 120t-123 81t-119.5 -1.5t-211 -124.5t-229.5 -193t-150.5 -192.5t-68 -259zM96 352 l13 -13q64 76 157 72h396q118 21 236 247l-6 16q-100 -94 -195 -91h-333q-161 -13 -268 -231zM158 593l13 -13q64 76 158 72h396q117 21 235 247l-6 16q-100 -94 -195 -91h-333q-161 -13 -268 -231z" />
<glyph unicode="&#xa8;" horiz-adv-x="710" d="M68 1159q109 -19 115 -160l187 149q6 132 -120 178zM384 1155q109 -19 115 -160l187 149q6 132 -120 178z" />
<glyph unicode="&#xa9;" horiz-adv-x="1556" d="M69 678q37 185 166.5 355.5t318 262t366.5 91.5q179 0 330.5 -91.5t213 -262t24.5 -355.5q-37 -184 -164.5 -353t-315.5 -262.5t-372 -93.5t-333.5 93.5t-210 262.5t-23.5 353zM131 678q-34 -168 21 -322t191.5 -240t304.5 -86t340 86t288 240t150 322q34 169 -22 324.5 t-194 239.5t-302 84q-163 0 -335 -84t-290 -239.5t-152 -324.5zM359 572.5q6 -110.5 97 -245.5t239 -162l213 198l-19 17l-72 -60q-111 12 -182.5 85.5t-104.5 181.5t27 279q75 155 223 148q176 -19 103 -170l12 -5q171 129 182 165.5t-34.5 90.5t-93 61.5t-90.5 -1 t-160 -94.5t-174 -146t-114.5 -146t-51.5 -196.5z" />
<glyph unicode="&#xad;" d="M-15 409l14 -13q64 76 157 72h396q117 21 235 247l-5 16q-100 -94 -196 -91h-333q-160 -13 -268 -231z" />
<glyph unicode="&#xae;" horiz-adv-x="1556" d="M69 678q37 185 166.5 355.5t318 262t366.5 91.5q179 0 330.5 -91.5t213 -262t24.5 -355.5q-37 -184 -164.5 -353t-315.5 -262.5t-372 -93.5t-333.5 93.5t-210 262.5t-23.5 353zM131 678q-34 -168 21 -322t191.5 -240t304.5 -86t340 86t288 240t150 322q34 169 -22 324.5 t-194 239.5t-302 84q-163 0 -335 -84t-290 -239.5t-152 -324.5zM322 251l3 -21q65 27 252 23l141 133l-13 13q-40 -25 -197 -18q96 76 123 154l33 166q74 1 101.5 -20t54.5 -62.5t41.5 -93.5t29 -137t89.5 -147l158 132l-14 17q-45 -39 -65 -16q-34 44 -47.5 99t-28.5 119.5 t-52 107.5t-110 33q108 18 178.5 97t57.5 185.5t-123 140.5l-73 7l-240 -1l-159 -187l22 -9q32 48 82 71l127 5q-99 -54 -136 -152l-80 -394l-17 -85q-33 -74 -138 -160zM672 750l58 292q106 11 162.5 -19.5t44 -114.5t-63 -122t-201.5 -36z" />
<glyph unicode="&#xb2;" horiz-adv-x="396" d="M-4 616l10 -14h275l89 113l-15 5l-27 -30l-200 1q185 156 238.5 233.5t10 137t-130.5 36.5t-142 -72.5t-60 -102t23 -83.5l135 103l-6 9q-35 -14 -41 24t12 61.5t53 20t55.5 -91.5t-32.5 -135z" />
<glyph unicode="&#xb3;" horiz-adv-x="416" d="M-4 373l17 -13q224 184 284 252.5t71.5 147t-139.5 137.5l185 193l-7 12l-255 1l-141 -139l10 -14q54 47 91 35l169 2l-236 -237l10 -22q91 87 151 -2t-44 -201z" />
<glyph unicode="&#xb4;" horiz-adv-x="410" d="M35 1002l32 -48l259 159q98 83 33 233l-231 -155q105 -87 -93 -189z" />
<glyph unicode="&#xb8;" horiz-adv-x="234" d="M36 -119l5 -9q31 42 69.5 35.5t48.5 -33t3.5 -57t-33.5 -61.5l-76 -80l8 -9q107 106 127 135t30.5 63.5t-3 63t-35 35.5t-40.5 6.5t-48 -16.5l27 62l-19 5z" />
<glyph unicode="&#xb9;" horiz-adv-x="277" d="M-14 606l6 -11h165l110 65l-7 13q-77 0 -148 -1q84 33 102 87l67 332l-6 10l-203 -129l8 -20l68 36l-45 -223q-8 -78 -117 -159z" />
<glyph unicode="&#xbc;" horiz-adv-x="793" d="M11 -111l54 -83l714 1226l-47 87zM43 409l7 -11h165l110 65l-7 13q-77 0 -148 -1q84 33 102 87l66 332l-6 10l-202 -129l8 -20l68 36l-45 -223q-8 -78 -118 -159zM255 29l17 -9q30 27 53.5 32t77.5 -14.5t68 -23.5q-14 -145 -56 -174l6 -8q112 60 141 100l13 61 q50 -7 100 14t116 111l-17 7q-34 -51 -76 -55.5t-106 16.5l57 275l-136 -145l-20 -99q-67 24 -95 9q315 300 334 479l-149 -89q62 -79 -328 -487z" />
<glyph unicode="&#xbd;" horiz-adv-x="768" d="M-9 -111l54 -83l714 1226l-47 87zM23 409l7 -11h165l110 65l-7 13q-77 0 -148 -1q84 33 102 87l66 332l-6 10l-202 -129l8 -20l68 36l-45 -223q-8 -78 -118 -159zM353 14l11 -14h275l89 113l-15 5l-27 -30l-201 1q186 156 239.5 233.5t9.5 137t-130.5 36.5t-142 -72.5 t-60.5 -102t24 -83.5l135 103l-6 9q-35 -14 -41 24t11.5 61.5t53 20t56 -91.5t-33.5 -135z" />
<glyph unicode="&#xbe;" horiz-adv-x="883" d="M30 171l16 -13q224 184 284 252.5t72 147t-139 137.5l184 193l-6 12l-255 1l-142 -139l10 -14q55 47 91 35l170 2l-237 -237l11 -22q90 87 150.5 -2t-44.5 -201zM91 -111l54 -83l714 1226l-47 87zM335 29l17 -9q30 27 53.5 32t77.5 -14.5t68 -23.5q-14 -145 -56 -174 l6 -8q112 60 141 100l13 61q50 -7 100 14t116 111l-17 7q-34 -51 -76 -55.5t-106 16.5l57 275l-136 -145l-20 -99q-67 24 -95 9q315 300 334 479l-149 -89q62 -79 -328 -487z" />
<glyph unicode="&#xc6;" horiz-adv-x="1715" d="M-176 -1l290 1l195 221l-224 6q116 41 221 231h226l123 140l102 -399q58 -118 -77 -175l-10 -29h257l549 1l262 289l-49 3q-79 -81 -162 -80l-484 1q80 21 168 162l51 253h117l208 172l-12 24l-267 1l54 273l324 2l217 185l-2 20l-712 -2l-227 -267l31 -14q74 72 146 72 l173 -1q-139 -51 -171 -159l-29 -140l-180 -199l10 -22l140 66l-58 -284q-27 -115 -36 -133l-14 60l-219 1016q-21 79 60 155l-20 23q-214 -153 -244 -239t3 -161q-56 -43 -89 -104l-174 -337h-146l-160 -199l32 -26l49 52h126q-93 -161 -368 -459zM395 626l181 358l77 -358 h-258z" />
<glyph unicode="&#xd7;" horiz-adv-x="711" d="M-27 192l39 -46l275 253l161 -247l173 144l-157 255l268 240l-38 45l-270 -234l-148 237l-193 -154l168 -233z" />
<glyph unicode="&#xe6;" horiz-adv-x="1327" d="M27.5 413q-29.5 -108 54.5 -257t145 -157q131 94 213 153q6 -107 125 -160l245 239l-28 23l-53 -47q-55 -23 -79 17t-10 99l97 481q17 73 73 97l-334 -1q-136 -73 -277.5 -226t-171 -261zM237 326q-91 187 91 416h243l-48 -68l-8 -37l-86 -429q-101 -69 -192 118z M692.5 344.5q29.5 -186.5 119.5 -290.5t189 -32q149 93 327 278l-21 22q-103 -96 -182 -139q-99 -20 -167 127.5t-57.5 277.5t96 150t116.5 -34.5t2.5 -109t-109.5 -105.5l-85 -56l21 -42l291 201l96 71q45 136 -18.5 190t-156.5 45q-100 -38 -215 -145 q-276 -222 -246.5 -408.5z" />
<glyph unicode="&#xf7;" horiz-adv-x="866" d="M5 355l8 -16q70 80 181 72h462q137 21 264 227l-8 16q-79 -66 -224 -91h-389q-188 -13 -294 -208zM212 221q106 -19 83 -160l217 149q33 132 -84 178zM328 751q106 -19 83 -160l217 149q33 132 -84 178z" />
<glyph unicode="&#x152;" horiz-adv-x="1540" d="M29 674.5q-80 -256.5 37.5 -462.5t240.5 -222t243.5 75.5t289.5 316.5t187 424.5t-88 338t-203 161.5t-175 -13t-265 -199t-267 -419.5zM229 897.5q60 192.5 219.5 213t276.5 -124.5t85 -399t-136.5 -337t-230.5 -26.5t-200 269t-14 405zM342 676q105 -19 83 -160 l217 149q32 132 -85 178zM402 -5l820 1l263 289l-50 3q-79 -81 -162 -80l-483 1q80 21 167 162l52 253h117l207 172l-11 24l-268 1l55 273l323 2l217 185l-2 20l-901 -2l140 -209q33 -52 2 -160l-29 -140l-30 -155l-69 -333q-6 -71 -358 -307z" />
<glyph unicode="&#x153;" horiz-adv-x="1261" d="M37 461.5q-56 -176.5 36 -319t180.5 -153.5t170 52t202 218t132 293t-66 233.5t-147.5 111.5t-126 -9t-190.5 -137.5t-190.5 -289zM201 607q37 109 134 144t180.5 -78.5t73.5 -246.5t-72 -194t-157 -49.5t-145.5 163.5t-13.5 261zM603 344.5q30 -186.5 119.5 -290.5 t188.5 -32q149 93 327 278l-21 22q-103 -96 -181 -139q-99 -20 -167 127.5t-57.5 277.5t96 150t116 -34.5t2 -109t-109.5 -105.5l-84 -56l20 -42l291 201l97 71q44 136 -19.5 190t-155.5 45q-101 -38 -215 -145q-277 -222 -247 -408.5z" />
<glyph unicode="&#x2dc;" horiz-adv-x="552" d="M11 999l19 -32l67 71q89 60 177 -26t160 15l140 166l-16 32l-57 -67q-75 -55 -165.5 35t-201.5 -49z" />
<glyph unicode="&#x2000;" horiz-adv-x="766" />
<glyph unicode="&#x2001;" horiz-adv-x="1532" />
<glyph unicode="&#x2002;" horiz-adv-x="766" />
<glyph unicode="&#x2003;" horiz-adv-x="1532" />
<glyph unicode="&#x2004;" horiz-adv-x="510" />
<glyph unicode="&#x2005;" horiz-adv-x="383" />
<glyph unicode="&#x2006;" horiz-adv-x="255" />
<glyph unicode="&#x2007;" horiz-adv-x="255" />
<glyph unicode="&#x2008;" horiz-adv-x="191" />
<glyph unicode="&#x2009;" horiz-adv-x="306" />
<glyph unicode="&#x200a;" horiz-adv-x="85" />
<glyph unicode="&#x2010;" d="M-15 409l14 -13q64 76 157 72h396q117 21 235 247l-5 16q-100 -94 -196 -91h-333q-160 -13 -268 -231z" />
<glyph unicode="&#x2011;" d="M-15 409l14 -13q64 76 157 72h396q117 21 235 247l-5 16q-100 -94 -196 -91h-333q-160 -13 -268 -231z" />
<glyph unicode="&#x2012;" d="M-15 409l14 -13q64 76 157 72h396q117 21 235 247l-5 16q-100 -94 -196 -91h-333q-160 -13 -268 -231z" />
<glyph unicode="&#x2013;" horiz-adv-x="972" d="M-15 409l18 -13q82 76 200 72h506q149 21 300 247l-6 16q-128 -94 -251 -91h-425q-204 -13 -342 -231z" />
<glyph unicode="&#x2014;" horiz-adv-x="1996" d="M-15 409l36 -13q163 76 401 72h1011q299 21 600 247l-13 16q-255 -94 -500 -91h-851q-408 -13 -684 -231z" />
<glyph unicode="&#x2018;" horiz-adv-x="276" d="M13 1099q-13 -64 12 -100t63 -39l168 134q-61 63 -45.5 128t69.5 101l-22 27q-142 -90 -187 -138.5t-58 -112.5z" />
<glyph unicode="&#x2019;" horiz-adv-x="379" d="M109 988l22 -27q142 90 187 138.5t58 112.5t-12 100t-63 39l-168 -134q61 -63 45.5 -128t-69.5 -101z" />
<glyph unicode="&#x201c;" horiz-adv-x="565" d="M53 1099q-13 -64 12 -100t63 -39l168 134q-61 63 -45.5 128t69.5 101l-22 27q-142 -90 -187 -138.5t-58 -112.5zM313 1099q-13 -64 12 -100t63 -39l168 134q-61 63 -45.5 128t69.5 101l-22 27q-142 -90 -187 -138.5t-58 -112.5z" />
<glyph unicode="&#x201d;" horiz-adv-x="614" d="M60 988l21 -27q142 90 187.5 138.5t58 112.5t-12 100t-63.5 39l-168 -134q61 -63 45.5 -128t-68.5 -101zM342 987l22 -27q142 90 187 138.5t58 112.5t-12 100t-63 39l-168 -134q61 -63 45.5 -128t-69.5 -101z" />
<glyph unicode="&#x2022;" horiz-adv-x="421" d="M1 459l129 12l-80 -72l20 -103l101 125l-9 -132l82 -42l-12 176l106 -131l20 99l-84 80l108 -1l37 89l-151 -19l73 83l-19 81l-89 -108l9 155l-73 -45l4 -113l-87 115l-22 -80l71 -88h-99z" />
<glyph unicode="&#x2026;" horiz-adv-x="955" d="M15 131q106 -19 83 -160l217 149q33 132 -84 178zM335 131q106 -19 83 -160l217 149q33 132 -84 178zM655 131q106 -19 83 -160l217 149q33 132 -84 178z" />
<glyph unicode="&#x202f;" horiz-adv-x="306" />
<glyph unicode="&#x205f;" horiz-adv-x="383" />
<glyph unicode="&#x25fc;" horiz-adv-x="900" d="M0 0v900h900v-900h-900z" />
</font>
</defs>
</svg>
