<?xml version="1.0" standalone="no"?>
<!DOCTYPE svg PUBLIC "-//W3C//DTD SVG 1.1//EN" "http://www.w3.org/Graphics/SVG/1.1/DTD/svg11.dtd" >
<svg xmlns="http://www.w3.org/2000/svg" xmlns:xlink="http://www.w3.org/1999/xlink" version="1.1">
<metadata></metadata>
<defs>
<font id="mutlu_ornamental" horiz-adv-x="546" >
<font-face units-per-em="2048" ascent="1638" descent="-410" />
<missing-glyph horiz-adv-x="481" />
<glyph horiz-adv-x="0" />
<glyph unicode="&#xd;" horiz-adv-x="481" />
<glyph unicode=" "  horiz-adv-x="481" />
<glyph unicode="&#x09;" horiz-adv-x="481" />
<glyph unicode="&#xa0;" horiz-adv-x="481" />
<glyph unicode="!" horiz-adv-x="481" d="M-641 -119q0 274 367 533q78 51 235 155q342 227 342 437q0 180 -190 297q-4 2 -2 6t6 2q190 -117 202 -285l27 135q29 143 51.5 175t61.5 32q73 0 73 -78q0 -39 -43 -149l-280 -723l-10 2l84 428q-57 -125 -240 -254q-100 -68 -301 -205q-346 -246 -346 -508 q0 -186 115.5 -301t302.5 -115q98 0 206 91q100 82 142 180q31 76 28 135q-4 72 -32 127q-18 -8 -39 -8q-39 0 -66.5 28.5t-27.5 67.5v10q-25 8 -54 8q-6 0 -4 7q0 4 4 4q29 0 56 -6q18 68 92 67q39 0 65.5 -26.5t26.5 -65.5t-29 -68q43 -59 47 -143q8 -190 -188 -348 q-121 -96 -227 -96q-201 0 -328 126t-127 326z" />
<glyph unicode="&#x22;" horiz-adv-x="704" d="M-356 1087q0 182 188 396q252 285 721 284q340 0 549 -147q235 -170 235 -496q0 -248 -268 -446q-6 2 -6 8q264 195 264 438q0 319 -233 486q-207 147 -541 147q-463 0 -713 -280q-186 -211 -186 -390q0 -135 72 -235q80 -113 208 -113q131 0 248 115q104 100 150 236 q6 20 45 86q23 39 57 38q49 0 49 -47q0 -20 -34 -77l-203 -336l-13 4l78 246q-74 -131 -149 -195q-96 -80 -228 -80q-133 0 -217 117q-74 102 -73 241zM524 758l113 340q39 117 88 116q49 0 49 -47q0 -20 -35 -77l-202 -336z" />
<glyph unicode="#" horiz-adv-x="827" d="M-412 391q0 147 82 293q80 139 205 229q-37 -12 -76 -12q-129 0 -129 139q0 35 51 138q2 6 7 4q4 -2 2 -6q-49 -111 -49 -136q0 -129 118 -129q102 0 213 115q33 35 183 236q111 150 194 200q242 147 463 148q346 0 557 -187q98 -86 152 -243q45 -137 45 -287 q0 -340 -306 -696q-129 -152 -360 -297q-356 -225 -625 -226q-164 0 -327.5 78t-255.5 207q-143 201 -144 432zM-383 391q0 -213 143 -414q88 -125 248 -198q154 -72 314 -72q266 0 606 215q221 139 352 293q166 195 225 307q86 164 86 371q0 143 -45 281q-51 156 -145 239 q-205 182 -549 182q-211 0 -455 -147q-102 -61 -219 -229q-133 -190 -203 -248q164 80 267 80q131 0 219 -29l49 129h27l-54 -137q119 -45 189 -146l108 283h27l-119 -309q8 -10 14 -23h144l-10 -24h-123q37 -84 37 -174q0 -104 -50 -189q-2 -4 -8 0h-160l-135 -358h-24 l135 358h-246l-135 -358h-25l136 358h-175l11 25h172l129 338h-172l10 24h172l66 178q-82 27 -209 27q-63 0 -164 -39q-90 -33 -156 -74q-133 -84 -217 -223q-88 -145 -88 -297zM272 457h244l129 338h-244zM410 819h243l9 21q-72 104 -187 149zM543 457h159q33 67 33 147 q0 98 -47 191h-16z" />
<glyph unicode="$" horiz-adv-x="761" d="M-463 -10q0 115 47 225q53 121 144 178q123 78 305 70q4 -4 0 -8q-330 10 -436 -244q-43 -102 -43 -221q0 -264 202 -439q195 -166 463 -165q172 0 289 57q209 102 295 334q45 121 45 203q0 242 -166 428q6 -33 6 -66q0 -74 -31 -145q-90 -207 -356 -207q-27 0 -74 4 l-59 -174h-39l59 178q-244 49 -243 147q0 57 55 58q33 0 70 -49l57 -76q27 -37 72 -55l194 571q-76 76 -110 133q-201 150 -201 328q0 168 114.5 282.5t280.5 114.5q295 0 535 -240q4 -4 0 -8t-8 0q-236 238 -527 238q-162 0 -273.5 -111.5t-111.5 -275.5q0 -160 172 -291 q-27 59 -26 131q0 156 106.5 247t261.5 83l43 125h41l-45 -129q188 -35 189 -125q0 -47 -46 -47q-27 0 -53 38q-20 31 -41.5 63t-54.5 48l-160 -469q152 -147 191 -272q213 -209 213 -477q0 -113 -55.5 -237t-137.5 -210q-172 -180 -471 -180q-276 0 -475 178 q-207 186 -207 459zM236 14q47 -6 75 -6q119 0 200 71.5t81 188.5q0 135 -170 297zM319 981q0 -102 130 -225l155 456q-39 4 -51 5q-92 0 -163 -72t-71 -164z" />
<glyph unicode="%" horiz-adv-x="1026" d="M-35 369q0 137 53 229q27 47 62 47q41 0 41 -61q0 -4 -21 -86q12 51 13 86q0 47 -29 47q-53 0 -80 -111q-18 -74 -18 -151q0 -80 43 -148q47 -78 123 -78q10 0 45 15q96 39 170.5 150.5t72.5 213.5q0 43 -34.5 76t-75.5 23q-29 -12 -56 -13q-109 0 -108 125q0 127 92 295 q104 188 217 189q51 0 82 -37t31 -90q0 -104 -71 -246t-152 -201q39 -4 66.5 -43t27.5 -78q0 -63 -27 -137l526 840l9 -6l-402 -639q-57 -92 -63 -170q-10 -150 71 -306v17q0 119 86 282q94 180 203 199q31 18 66 19q80 0 153 -86q55 -66 93 -156q45 -121 45 -248 q0 -182 -95 -287q-63 -72 -161 -71q-252 0 -408 340q-72 152 -72 282q0 33 4 62l-286 -457l-8 4l124 199q-86 -90 -165 -90q-84 0 -140 90q-47 76 -47 166zM242 780q0 -135 82 -135q88 0 145 176q45 137 45 248q0 117 -78 117q-47 0 -94 -58q-100 -125 -100 -348zM639 4 q47 -59 96 -104q102 -92 217 -93q156 0 213 205q17 59 17 127q0 109 -39 217q-43 123 -115 187q-51 45 -100 51q68 -31 67 -119q0 -121 -98 -293q-106 -186 -215 -186q-25 0 -43 8zM647 168q0 -135 84 -135q86 0 146 176q45 135 45 248q0 102 -62 114q-63 -53 -63 -168 q0 -23 2 -43q2 -6 -4 -6q-6 -2 -7 4q-6 29 -6 58q0 100 47 155q-41 -6 -81 -55q-100 -123 -101 -348z" />
<glyph unicode="&#x26;" horiz-adv-x="2011" d="M-201 379q0 178 93.5 331.5t250.5 239.5v11q0 178 119 307t295 129q125 0 182 -64q78 20 170 21q92 0 152 -37q72 -45 72 -133q0 -90 -142 -97h-20q-18 -2 -35 0q-14 0 -18 3q2 4 2 8v2l4 -2q47 0 78.5 30.5t35.5 77.5q4 55 -45 92q-45 31 -102 31q-55 0 -125 -37 q14 -31 14 -71q0 -141 -159 -211q170 -45 184 -174q23 -20 22 -48q0 -53 -55 -86q-47 -27 -104 -26q-94 0 -168 78q-31 -18 -56 -43q-127 -123 -127 -267q0 -129 89 -225q84 -88 212 -121q125 139 125 308q0 37 -19 92t-19 51q0 2 2 4q6 2 8 -2q20 -37 33 -74 q23 135 143 217q111 76 254 76q76 0 178 -29q160 -45 174 -47q53 -10 74 -10q188 0 274 61q68 49 88 125q2 10 13 9q10 -2 8 -13q-23 -84 -101 -137q-70 -49 -161 -57q-68 -6 -121 -6q-74 0 -213 47t-213 47q-141 0 -264 -94q-131 -102 -131 -240q0 -68 38 -133q-4 18 -4 39 q0 41 29 88q88 143 391 143q53 0 159.5 -8t160.5 -8q195 0 338 61q197 84 196 258q0 92 -61.5 148.5t-153.5 56.5q-78 0 -139 -37q-74 -41 -74 -114q0 -39 24.5 -69t63.5 -30q31 0 66 21v-4l2 -2q-57 -45 -117 -45q-63 0 -104 39.5t-41 103.5q0 94 90 158q82 59 180 59 q119 0 207 -79t88 -198q0 -180 -154 -303q-143 -113 -327 -112q-45 0 -340 49q-123 20 -166 20q-20 0 -76 -14q127 -45 127 -164q0 -121 -115 -225q-147 -135 -379 -135q-51 0 -96 6q-78 -70 -168 -102q-74 -27 -190 -27q-59 0 -101 10q-154 39 -235 195q-70 133 -70 307z M-174 379q0 -162 68 -285q76 -141 221 -178q41 -10 90 -10q102 0 167.5 20.5t143.5 77.5q-145 27 -254 127q-117 111 -117 252q0 190 193 336q-178 25 -193 213q-150 -86 -234.5 -233.5t-84.5 -319.5zM176 948q4 -88 54.5 -147.5t134.5 -61.5q39 27 84 52q-39 70 -39 135 q0 45 10 88q-129 -8 -244 -66zM176 967q119 55 248 61q29 104 111 184t188 115q-53 43 -166 43q-162 0 -270.5 -121t-110.5 -282zM545 905q0 -16 4 -57q76 29 131 26h49q29 -1 64 -28q-20 119 -193 153q-12 2 -43 -12q-12 -45 -12 -82zM555 809q63 -92 156 -92q31 0 56.5 18 t25.5 47q0 66 -91 66q-72 0 -145 -37zM569 1020q16 -4 35 -6q166 68 166 207q0 37 -14 65q-121 -76 -187 -266zM651 90q41 -8 82 -8q188 0 309 119q72 71 72 159q0 51 -36 90t-87 39q-49 0 -84 -30.5t-35 -79.5q0 -27 43 -70q6 -6 5 -16q-4 -70 -70 -70q-33 0 -51 35 q-27 33 -41 74q-16 -123 -107 -242z" />
<glyph unicode="'" horiz-adv-x="448" d="M244 758l112 340q39 117 90 116q50 0 50 -47q0 -20 -35 -77l-205 -336z" />
<glyph unicode="(" horiz-adv-x="704" d="M156 6q0 449 145 785q141 328 465 649l10 -8q-59 -94 -203 -349q-338 -647 -385 -1392h-12q-20 150 -20 315z" />
<glyph unicode=")" horiz-adv-x="575" d="M-68 -297q117 184 203 348q154 287 262 678q104 375 121 715h14q21 -150 21 -322q0 -446 -145 -782q-141 -328 -465 -647z" />
<glyph unicode="*" horiz-adv-x="743" d="M551 1120q10 49 10 84q0 14 -3 45t-3 45q0 76 53 76q60 0 60 -49q0 -20 -52 -94q-55 -82 -65 -107z" />
<glyph unicode="+" horiz-adv-x="755" d="M-412 541q0 115 109 196q98 76 217 76q76 0 197 -61q4 -2 2 -7q-2 -4 -7 -2q-119 59 -192 60q-111 0 -205 -74q-100 -80 -100 -188q0 -137 125 -234q117 -88 258 -88q131 0 240.5 75t162.5 195q10 33 29 111h-293l10 29h297l97 305h30l-96 -305h297l-8 -29h-297l-47 -149 l-49 -156h-31l20 65q-143 -170 -362 -170q-152 0 -273 99q-131 104 -131 252z" />
<glyph unicode="," horiz-adv-x="409" d="M-106 -246q168 61 239 238q-31 -4 -41 -4q-37 0 -63.5 27.5t-26.5 64.5q0 41 26.5 67.5t67.5 26.5q43 0 70 -30.5t27 -73.5q0 -88 -70 -176.5t-156 -122.5q-20 -6 -73 -23v6z" />
<glyph unicode="-" d="M16 481l27 68q18 166 133 203q-104 -61 -123 -179h412l-35 -92h-377q10 -88 75 -170t146 -112q49 -18 121 -19q143 0 265 135.5t122 280.5q0 158 -77 266q-86 123 -238 123q-80 0 -148 -47q-76 -53 -75 -129q0 -86 84 -121q0 -4 -2 -6q-102 27 -103 115q0 96 70 153 q63 53 162 54q158 0 260 -127q96 -121 96 -281q0 -166 -126 -300t-290 -134q-121 0 -202 63q-131 102 -150 256h-27z" />
<glyph unicode="." horiz-adv-x="245" d="M-2 96q0 39 27.5 65.5t66.5 26.5q41 0 66.5 -25.5t25.5 -66.5q0 -39 -26.5 -66.5t-65.5 -27.5t-66.5 27.5t-27.5 66.5z" />
<glyph unicode="/" horiz-adv-x="808" d="M-82 -156l954 1522l19 -10l-954 -1522z" />
<glyph unicode="0" horiz-adv-x="792" d="M-301 496q0 344 305 524q119 70 248 84q-133 -27 -240 -96q-303 -197 -303 -512q0 -215 159 -369t374 -154q229 0 469 217q266 242 266 584q0 109 -73 185.5t-181 76.5q-203 0 -422 -182q-33 -27 -80 -84q70 70 123 74q80 51 178 51q106 0 168 -70.5t62 -179.5 q0 -147 -82 -317t-197 -265q-98 -82 -215 -81q-104 0 -164.5 62t-60.5 167q0 160 90 348q23 193 188 340q195 172 426 172q121 0 197 -85t76 -208q0 -350 -287 -606q-256 -229 -496 -229q-219 0 -373.5 165.5t-154.5 387.5zM150 365q0 -313 208 -314q267 0 267 504 q0 287 -195 287q-106 0 -180 -84t-74 -191q0 -127 135 -127q94 0 162 78q45 53 45 100q0 82 -133 74q68 20 125 -16q33 -20 33 -55q0 -57 -70 -121q-61 -57 -123 -78q-49 -16 -94 -16q-70 0 -104 36q-2 -37 -2 -77z" />
<glyph unicode="1" horiz-adv-x="569" d="M-125 786q10 70 96 115q33 16 66 23q8 2 57 10q156 8 312 -96q57 33 104 65q4 -4 10 -8q-18 -47 -41 -115q57 -53 101 -127q-4 -6 -11 -6q-39 70 -94 119l-92 -281q100 82 219 82q293 0 356 -358q9 -47 9 -76q0 -125 -65.5 -232.5t-178.5 -164.5q-135 -70 -313 -70 q-133 0 -229.5 95.5t-96.5 228.5v10h-104q-96 -23 -97 72q0 57 60 94q51 35 110 35q51 0 88 -27q14 37 41 113l94 278q16 49 60 174q4 6 4 11q0 6 -12 6q-16 -4 -152 -49q-98 -33 -158 -33q-43 0 -75 12q-78 29 -68 100zM-111 782q-14 -96 131 -96q121 0 371 143 q-182 111 -352 82q-20 -4 -62 -24q-78 -41 -88 -105zM-78 86q0 -61 70 -61q82 0 117 75l10 23q6 10 18 39q-43 33 -98 33q-43 0 -72 -27q-45 -43 -45 -82zM113 0v-10q0 -119 88 -202t209 -83q317 0 467 223q67 103 67 224q0 166 -86 280q-94 127 -256 127q-121 0 -223 -88 q-23 -59 -94 -272q-31 -90 -31 -117q0 -20 35 -33q18 -4 71 -16q84 -18 84 -82q0 -39 -34.5 -64.5t-75.5 -23.5q-53 4 -90 69q-20 37 -25 68h-106zM236 0q4 -27 22 -59q33 -59 90 -60q33 0 56.5 20.5t21.5 53.5q-4 45 -109 45h-81z" />
<glyph unicode="2" horiz-adv-x="768" d="M-190 643q0 113 59 191q66 86 174 86q131 0 225 -115q117 84 246 84q86 0 156 -51q78 -55 78 -140q0 -84 -66 -145q-43 -41 -141 -90q88 -96 88 -193q0 -55 -31 -137q-18 -43 -53 -133h-133q76 -47 182 -47q123 0 260 94q117 80 203 197l24 14q-96 -131 -231 -225 q-160 -111 -299 -111q-61 0 -123 19q-78 20 -104 59h-377q47 139 264 303q2 51 12 92q-12 -2 -26 -2q-53 0 -84 40t-31 95q0 152 174 273q-90 109 -215 108q-180 0 -219 -194zM45 135h115q12 0 39 2t39 2q-35 61 -29 148q-57 -47 -164 -152zM94 520q0 -115 107 -114 q12 0 24 2q29 96 97 129q4 26 4 55q0 119 -58 196q-66 -41 -112 -104q-61 -82 -62 -164zM227 299q-2 -88 41 -160q35 0 105.5 -2t105.5 -2q127 0 127 133q0 113 -78 189q-102 -49 -301 -158zM227 315q86 58 256 179q-51 33 -100 32q-29 0 -53 -10q-20 -88 -90 -115 q-10 -39 -13 -86zM244 414q48 18 71 94q-55 -35 -71 -94zM276 795q61 -84 62 -205q0 -25 -2 -49q20 8 43 8q59 0 117 -45q102 80 102 176q0 72 -45 121t-117 49q-80 0 -160 -55z" />
<glyph unicode="3" horiz-adv-x="823" d="M-147 0q0 90 61 160.5t152 70.5q111 0 157 -118q61 -14 101 -66q-31 20 -97 53q14 -41 15 -75q0 -49 -31 -99q-51 -82 -129 -82q-29 0 -57 19q-57 37 -58 102q0 37 19 66q55 88 180 88q23 0 43 -4q-47 109 -152 108q-96 0 -157 -96q-33 -51 -33 -107q0 -127 149 -219 q18 -12 68 -75q35 -45 82 -45q129 0 223 126q88 117 88 250q0 84 -41 148q-47 76 -127 76q-41 0 -141 -31v10l35 14q-70 2 -117 49.5t-47 116.5q0 143 166 297t309 154q86 0 145.5 -52.5t59.5 -136.5q0 -96 -94 -192q-49 -51 -174 -141q174 -92 174 -260q0 -186 -166 -326 q-158 -131 -348 -131q-82 0 -148 24q-90 35 -90 101q0 39 45 51q-66 43 -65 172zM-14 -33q0 -39 27.5 -73.5t64.5 -34.5q76 0 127 82q26 43 26 86q0 35 -16 77q-23 6 -47 7q-113 0 -166 -86q-16 -27 -16 -58zM49 438q0 -70 48 -111.5t118 -39.5q37 2 117 49q72 43 102 76 q37 41 37 104q0 127 -119 127q-82 0 -123 -72l-20 -12q53 96 151 96q59 0 95.5 -38.5t36.5 -98.5q0 -41 -19 -82q107 100 107 217q0 70 -45.5 122t-112.5 52q-109 0 -241 -140t-132 -249z" />
<glyph unicode="4" horiz-adv-x="792" d="M-416 -260l13 8q0 -113 46 -162t158 -49q111 0 222.5 50.5t183.5 131.5q39 106 112 318h-413l35 90l671 747q23 72 97.5 130.5t148.5 58.5q156 0 213 -168q16 -47 16 -96q0 -143 -137 -334q-14 -18 -53 -68q-8 -16 -23 -51q-82 -145 -233 -231q-20 -47 -31 -78h-153 q-10 -31 -121 -348h-76q-29 0 -61 -2q-68 -66 -179 -115q-117 -51 -206 -51q-229 0 -230 219zM-29 125h377q4 8 8 20l228 670zM494 127h55q61 29 169.5 114t141.5 134t33 143q0 82 -51 152q-55 78 -133 82zM569 127h76q133 94 199 213q-125 -129 -275 -213zM655 895h25 q16 2 27 2q8 0 24 -2h27l-43 -125h12q86 0 145 -80q51 -74 52 -164q0 -45 -15 -94q138 180 138 348q0 51 -15 103q-47 166 -180 166q-61 0 -118.5 -46.5t-78.5 -107.5z" />
<glyph unicode="5" horiz-adv-x="755" d="M-229 35q0 164 98 293t256 157l125 334q111 6 194 6h191q70 0 86 35q4 6 14 33q7 0 17 -2q-4 -8 -7 -19l-10 -30q-8 -23 -24.5 -70t-24.5 -72h-2q-33 -74 -116 -127t-162 -53q-55 0 -68 39q-8 29 -12 45l8 6l4 -6q20 -31 80 -43q20 -4 43 -4q129 0 207 143q-98 2 -133 0 q-4 -2 -72 -2h-47q-43 2 -68 2h-119q-27 -70 -77 -211q23 2 45 3q168 0 252 -119q152 -68 151 -264q0 -96 -49 -191q-139 -266 -434 -266q-193 0 -287 160q-59 100 -59 223zM-217 33q0 -164 86 -260v14q0 55 53 55q35 0 80 -49l72 -78q47 -39 96 -39q102 0 180 101 q111 141 105 307q-104 -160 -299 -160t-289 164l2 12q84 -145 291 -145q98 0 184 51q102 59 102 150q0 53 -72.5 98t-129.5 45q-84 0 -187 -37q-2 0 -10 10q4 16 74 203q-152 -29 -245 -157t-93 -285zM106 350q119 49 211 49q52 0 97 -14q-82 94 -228 94q-18 0 -39 -2 q-39 -111 -41 -127z" />
<glyph unicode="6" horiz-adv-x="749" d="M49 301q0 354 318 637q-6 35 -7 80q0 37 5 80l14 8q-2 -23 -2 -43q0 -55 14 -105q106 92 164 132q205 141 395 141q168 0 234 -115q30 -53 30 -104q0 -37 -14 -74q-49 -125 -165.5 -210t-252.5 -95q-49 -4 -88 2q14 -35 15 -76q0 -178 -140 -373q-150 -207 -319 -206 q-102 0 -158 114q-43 92 -43 207zM156 172q0 -61 22 -109q29 -61 82 -61q104 0 219 254q103 225 103 346q0 139 -129 139q-86 0 -166 -145q-23 -78 -21 -133q0 -39 19 -74q23 -41 59 -41q31 0 56.5 29t25.5 59q0 12 -4 23q-12 18 -39 30q8 4 16 5q23 0 43 -29q14 -20 2 -68 q-20 -76 -110 -75q-98 0 -101 129q-2 14 0 30q-78 -193 -77 -309zM350 735q66 27 103 33q-20 23 -41 57q-33 -43 -62 -90zM436 858q29 -43 96 -94q82 -14 132 -74q78 -29 165 -22q240 18 336 260q21 51 21 94q0 88 -74 145.5t-164 57.5q-68 0 -125 -31q-217 -117 -387 -336z " />
<glyph unicode="7" horiz-adv-x="647" d="M0 549q-8 94 78 176q37 35 52 94.5t33.5 84t80.5 75.5q68 41 143 41q113 0 166 -88q31 -51 29 -109h116q6 0 19 2q-31 -41 -60 -82q-111 -162 -186 -309q94 41 281 182l4 -6q-72 -51 -142 -102q-84 -57 -151 -88q-53 -106 -101 -217q23 -6 46 -6q94 0 118 92l25 14 q-16 -63 -76.5 -102t-128.5 -37q-59 -143 -110 -324q-55 -188 -136 -188q-72 0 -71 76q0 31 39 125q61 150 188 344q-55 39 -100 39q-39 0 -64 -31l-26 -17q55 72 141 72q39 0 80 -16l98 145q-66 -18 -129 -18q-59 0 -113 12q-129 31 -143 166zM51 578q0 -137 123 -166 t223 -4l197 294q-33 -2 -66 -2q-109 -125 -284 -125l20 13q150 0 250 110h-47q-39 2 -57 2h-101h-76q-84 0 -96 -2q-86 -14 -86 -120zM193 866q10 -41 57 -41l321 -2q2 57 -26 105q-47 78 -154 78q-53 0 -127 -43q-84 -47 -71 -97z" />
<glyph unicode="8" horiz-adv-x="796" d="M0 260q0 168 215 281l166 86q-10 23 -23 45l-63 110q-23 51 -23 127q0 129 96.5 219.5t227.5 90.5q104 0 180 -58q84 -63 84 -164q0 -180 -319 -323q154 -178 170 -316q150 137 149 289q0 47 -18 88q30 -28 30 -114q0 -152 -159 -281v-16q0 -150 -112 -249.5t-263 -99.5 q-135 0 -232 74q-106 80 -106 211zM129 270q0 -106 66 -188q70 -88 174 -88q96 0 160.5 72t64.5 170q0 12 -2 26q-102 -59 -180 -59q-74 0 -125 44t-51 118q0 100 94 215q-201 -113 -201 -310zM301 375q0 -66 44 -105t110 -39q39 0 137 41q-12 88 -66 166q-35 49 -104 146 l-14 20l-11 6q-49 -18 -75 -102q-20 -63 -21 -133zM375 985q0 -88 49 -164q10 -14 106 -137q234 121 234 324q0 80 -52.5 133t-131.5 53q-74 0 -130.5 -47t-70.5 -121q61 72 145 72q53 0 96.5 -36t43.5 -87q0 -39 -34 -76t-73 -37q-29 0 -31 2q2 0 37 3t63.5 38t28.5 68 q0 47 -37.5 77.5t-87.5 30.5q-104 0 -155 -77v-19z" />
<glyph unicode="9" horiz-adv-x="763" d="M-459 -70q0 203 168 303l10 7q61 37 129 36q59 0 92 -43t33 -104q0 -104 -102 -162l-8 -6l-4 8q104 59 104 162q0 57 -31.5 96t-87.5 39q-63 0 -127 -37q-141 -84 -141 -258q0 -100 51 -188q72 -123 213 -123q45 0 97 10l-3 2q309 162 476 478q-96 -39 -156 -39 q-86 0 -145.5 54t-59.5 140q0 154 98.5 318.5t233.5 236.5q59 31 113 31q211 0 211 -293q0 -328 -213 -586q-203 -244 -527 -344q-86 -27 -153 -26q-158 0 -226 116q-45 78 -45 172zM190 295q0 -150 119 -150q115 0 205 222q-29 -35 -41 -48q-27 -27 -51 -36 q-35 -14 -88 -15q-39 0 -63.5 35t-24.5 76q0 78 73 168q63 80 142 123q4 -6 2 -8q-66 -37 -109 -101q-49 -70 -49 -139q0 -80 51 -98q18 -6 35 -7q96 0 174 197q37 141 37 227q0 131 -100 131q-63 0 -123 -73q-80 -98 -133 -238q-55 -145 -56 -266z" />
<glyph unicode=":" horiz-adv-x="411" d="M-287 143q0 104 59.5 183.5t161.5 79.5q111 0 187 -81t76 -194q0 -29 -13 -47q-14 -82 -92 -82q-37 0 -65.5 28.5t-28.5 65.5q0 39 27.5 65.5t66.5 26.5q43 0 72 -30q-12 96 -82 160.5t-166 64.5q-90 0 -142.5 -69.5t-52.5 -161.5q0 -121 75 -195t196 -74 q131 0 227 107.5t96 240.5q0 51 -18 95q-49 -16 -86 -17q-98 0 -162 90q-59 82 -59 183q0 131 80 241q86 123 213 123q55 0 103 -37t48 -90q0 -33 -14 -55q-2 -37 -28.5 -62.5t-63.5 -25.5q-41 0 -69 28.5t-28 69.5q0 39 29 64.5t70 25.5q55 0 80 -49q-6 49 -47 83t-91 34 q-115 0 -194 -115q-72 -104 -72 -225q0 -104 60 -180q63 -82 165 -82q31 0 62 6q-25 45 -78 80l12 8q47 -31 76 -86q37 8 66 18q-18 -6 -62 -26q20 -45 21 -99q0 -137 -101.5 -247.5t-236.5 -110.5q-121 0 -199 75t-78 195z" />
<glyph unicode=";" horiz-adv-x="407" d="M-195 106q0 102 68 191q74 98 172 84q51 94 133 147q91 56 191 50q-139 -35 -146 -37q-84 -37 -166 -162q100 -23 101 -123q0 -61 -43 -82q78 -14 78 -106q0 -88 -70 -175.5t-156 -121.5q-20 -6 -73 -23v6q168 61 235 236h-41q-14 -41 -54 -73t-81 -32q-72 0 -113 78 q-35 66 -35 143zM-182 104q0 -78 30 -135q37 -70 109 -69q78 0 117 92q-72 16 -72 88q0 61 53 86q-35 23 -35 102q0 55 17 97h-21q-90 0 -147 -89q-51 -78 -51 -172zM33 264q0 -86 41 -92q12 2 22 2q49 18 49 86q0 80 -96 100q-16 -41 -16 -96zM231 770q0 41 28 66.5 t69 25.5q39 0 64.5 -26.5t25.5 -65.5t-25.5 -66.5t-64.5 -27.5t-68 27.5t-29 66.5z" />
<glyph unicode="&#x3c;" horiz-adv-x="954" d="M98 696v9l215 137q-6 82 33 145l21 14q-39 -68 -33 -147l590 381q25 -115 61 -346q4 -45 -37 -152q60 -88 60 -209q0 -102 -39 -180q-12 -25 -37 -76q-8 -20 -10 -57q0 -20 8 -57l-213 139zM276 760l70 -51q-18 39 -27 79zM342 803q18 -72 61 -137q76 -55 177 -119 q35 -8 69 -8q70 0 133 28q90 66 125 207q-86 96 -178 96q-63 0 -113 -51l-30 -18q39 43 63 55l8 6q35 20 76 21q90 0 178 -97q25 109 17 236q-2 53 -8 158zM643 506q92 -57 279 -176l2 2q59 119 59 248q0 86 -39 147q-31 -76 -74 -113q-23 -20 -55 -39l-53 -30 q-57 -33 -119 -39z" />
<glyph unicode="=" horiz-adv-x="741" d="M-57 367l12 6q55 -43 119 -45q139 -6 260 63q59 35 104 92q2 0 -149 9q-82 4 -148 -9q-29 -16 -90 -39q-14 -2 -40.5 5.5t-34 19.5t-7.5 25q0 27 37 47l27 14q61 33 133 47l178 35q39 8 121 37q29 16 47 39q-86 4 -123 4h-219l8 26h37q49 2 37 2h278q4 18 -4 37 q-29 45 -108 45q-78 0 -178 -41l-56 -22l60 35q90 41 178 41q51 0 88 -21q45 -27 33 -74h20q16 23 27 31q25 29 47 41l18 10q70 39 144 27q18 -2 45 -8q49 -16 49 -47q8 -33 -86 -72q-27 -10 -139 -16q-41 -2 -109 0q-25 -68 -86 -199q164 -2 258 4l-8 -24q-172 -8 -270 -9 q-49 -66 -107 -94l-16 -8q-156 -78 -273 -74q-39 2 -114 60zM14 494q12 -23 35 -19q8 4 60 17l14 2q129 18 213 18h121q27 70 88 199l-19 2q-25 -31 -51 -43l-12 -6q-47 -23 -123 -39q-47 -10 -178 -35q-70 -12 -137 -49q-27 -14 -11 -47zM578 745h180q14 0 73 11 q13 16 13 22q-2 6 -2 10q-20 27 -80 37q-68 12 -111 -12.5t-73 -67.5z" />
<glyph unicode="&#x3e;" horiz-adv-x="858" d="M-168 643q0 70 39 137q20 35 53 70q49 51 58 61q39 45 77 93q43 55 60 102v43q0 47 -4 82q82 -57 395 -270q135 -92 426 -279v-2q-221 -129 -438 -266q2 -18 2 -37q0 -172 -146 -254l-8 -6l-24 -13l-5 7l9 6q78 35 119.5 115.5t31.5 166.5q-184 -117 -336 -223 q-25 -16 -51 -22q-16 -2 -33 -2q-184 0 -184 204q0 63 31 123q-72 47 -72 164zM-113 621q0 -66 39 -105q100 150 256 150q45 0 99 -13q172 -39 211 -207q82 56 266 177q-111 84 -223 161q-70 47 -402 260q-6 -16 -43 -55l-51 -53q-29 -31 -86 -115q-66 -119 -66 -200z M-98 365q0 -45 45 -95q57 -63 133 -63q41 0 74 20q106 68 317 205q-18 74 -71.5 133.5t-123.5 75.5q-55 12 -100 12q-102 0 -172 -63q-41 -37 -67 -84q43 -33 102 -33q37 0 65 12q37 27 37 62l13 8q0 -49 -37 -72l-17 -10q-37 -23 -92 -22q-49 0 -88 18q-18 -47 -18 -104z " />
<glyph unicode="?" horiz-adv-x="755" d="M-33 264q0 80 58 150q-8 84 28 153q61 115 277 242l10 4q47 25 164 88q143 80 143 238q0 78 -41 142.5t-114 86.5q-86 -4 -142.5 -57.5t-56.5 -136.5q0 -59 33.5 -104.5t91.5 -45.5q23 0 61 23q-74 41 -73 94q0 72 69 71q49 0 70 -47q25 -37 24 -78q0 -92 -118 -172 l-19 -12q-51 -35 -121 -35q-82 0 -138 65.5t-56 147.5q0 88 65 185q37 55 84 77l8 5q82 41 150 41q29 0 55 -7q31 6 64 7q123 0 208 -83t85 -206q0 -121 -88 -221q-55 -63 -189 -156q-113 -78 -209 -156q-45 -37 -76 -90q37 -23 72 -92q25 -47 8 -117v-4q16 -4 33 -4 q41 0 73 26.5t32 67.5q0 35 -39 78q-2 -78 -45 -78t-43 45q0 31 18 41q8 14 41 15q84 0 84 -88q0 -53 -40 -87t-93 -34q-12 0 -25 2q-12 -49 -59 -82q45 -27 45 -82q0 -39 -26.5 -66.5t-65.5 -27.5q-147 0 -230 125q-47 72 -47 149zM-6 217q0 -39 20 -84q39 -84 170 -121 q-35 31 -34 74q0 35 26 61q-41 10 -53 37l-8 17q-18 39 10.5 72.5t71.5 33.5q31 0 56.5 -22.5t25.5 -51.5q0 -47 -56 -47h-20q6 0 47 19q18 12 18 31q0 55 -63 55q-49 0 -72 -45q-16 -31 4.5 -54.5t55.5 -29.5q23 14 53 14q16 0 30 -4q48 29 60 78q-68 16 -111 73.5 t-43 127.5q-74 -12 -131 -85t-57 -149zM41 434q66 66 145 70q18 96 101 170q27 25 213 155q115 80 155 125q78 82 78 174q0 86 -59.5 156t-145.5 82q129 -66 129 -229q0 -152 -145 -240l-10 -6q-53 -25 -185 -98q-264 -160 -276 -359zM141 1104q0 -61 31 -115v-2 q20 -37 29 -43q37 -55 131 -55q59 0 104 26q119 71 119 177q0 14 -2 26q-4 -49 -47 -76.5t-94 -27.5q-63 0 -100.5 46t-37.5 111q0 154 177 205q-20 2 -41 2q-137 0 -215 -112q-53 -78 -54 -162zM252 397q0 -100 88 -129l2 6q6 31 6 54q0 43 -20.5 69.5t-67.5 46.5 q-8 -25 -8 -47z" />
<glyph unicode="@" horiz-adv-x="1474" d="M152 621q0 324 221 538.5t545 214.5q238 0 401 -129q176 -142 176 -373q0 -227 -173 -398t-400 -171q-119 0 -119 76q0 35 14 86q-18 10 -35 20q-127 -180 -237 -180q-100 0 -101 107q0 139 146 350q0 12 5 35.5t5 33.5q6 145 98 259q-205 -45 -303 -236 q-66 -123 -65 -254q0 -258 256 -379q133 -63 286 -63q217 0 326 129l27 16q-51 -63 -105 -94l-10 -4q-100 -59 -242 -60q-147 0 -280 62q-147 68 -215 184q-53 92 -54 211q0 131 62.5 252t171.5 186l10 7q61 37 146 55q39 43 90 74l10 6q102 61 233 61q154 0 238 -98 q51 -59 51 -164q0 -170 -100 -227l-29 -17q-29 -16 -65 -16q-78 0 -93 61q-59 -133 -73 -166q-43 -106 -53 -167q43 -12 88 -13q117 0 213 72l8 6l4 -6q-12 -10 -39 -27l-10 -6q-92 -55 -193 -55q-39 0 -76 8v-18q0 -74 80 -74q119 0 234 96q104 88 159 205q47 102 48 209 q0 233 -141.5 368.5t-377.5 135.5q-307 0 -503.5 -206t-196.5 -515q0 -276 166 -446.5t440 -170.5q207 0 404 123q4 -2 10 -16q-201 -129 -447 -129q-283 0 -459.5 174t-176.5 457zM573 418q0 -57 41 -58q55 0 150 132l4 4q-88 61 -133 135q-61 -137 -62 -213zM612 831 q0 -12 4 -30q169 229 306 258q-55 41 -138 41q-35 0 -69 -8q-94 -113 -103 -261zM651 664q39 -80 131 -148q14 20 33 49q43 70 98 191q64 143 76 215q-16 43 -47 71q-59 -14 -158 -153q-78 -111 -133 -225zM725 1104q33 6 61 6q92 0 150 -49q8 2 16 2q33 0 74 -35l25 27 l116 2q-29 -33 -45 -74q-37 -90 -37 -123q0 -41 52 -100q10 -14 28 -15q25 0 47 9q101 75 101 245q0 90 -37 134q-86 100 -240 100q-195 0 -311 -129zM797 506q12 -8 26 -17q2 13 29 105q-29 -49 -55 -88zM956 1044q21 -22 35 -55v12q0 41 -35 43z" />
<glyph unicode="A" horiz-adv-x="2115" d="M23 539q41 70 114 86q158 350 457 374q27 2 70 2q242 0 368 -178q74 -102 80 -209q1 -14 1 -28q0 -41 -9 -82l289 360q168 199 321 334q10 33 60.5 81t85.5 62q-72 -41 -119 -118q217 180 420 180q295 0 295 -287q0 -96 -39 -198q-41 -111 -103.5 -169.5t-124.5 -89.5 q72 -96 72 -219q0 -43 -12 -104q-31 -158 -203 -260q-147 -88 -295 -88q-8 0 -23.5 3t-23.5 3q-18 2 -33 4q-39 6 -60 6h-9q-55 -4 -181 -4q-8 0 -24 -2h-27q-160 0 -250 29q-121 39 -202 108q-39 -61 -140 -153q-37 -35 -104 -84q-53 -29 -139 -54q41 14 131 58 q47 29 100 80q96 90 141 159l-16 17q-193 -164 -428 -164q-184 0 -326 106q-151 116 -151 295q0 84 37 144zM-2 397q0 -158 147 -260q131 -90 295 -90q54 0 109 12q-33 -4 -66 -4q-178 0 -284 84q-115 92 -115 264q0 78 29 162q-55 -10 -85 -59t-30 -109zM156 492 q0 -113 57 -213q4 -6 29 -39q117 -152 331 -152q49 0 95 10q88 39 172 113q-41 47 -76 106q-78 135 -78 211q0 84 80 121q-61 -47 -61 -127q0 -82 67 -198q31 -53 78 -103q84 78 182 195q17 67 17 128q0 21 -2 42q-10 119 -70 207q-127 191 -357 191q-15 0 -30 -1 q-305 -16 -412 -354h4q74 0 131.5 -52.5t57.5 -125.5q0 -39 -20.5 -70t-57.5 -31q-35 0 -47 37q-4 10 5 33.5t9 32.5q0 41 -28.5 72.5t-69.5 39.5q-6 -37 -6 -73zM905 170l15 -10q16 26 28 51q-20 -23 -43 -41zM930 152q161 -120 333 -120q16 0 31 1q31 2 97 22 q35 20 86 115q12 20 57 141q17 45 119 299q-31 0 -76 6q-116 -139 -116 -317q0 -14 1 -29q-6 29 -6 58q0 160 111 290q-59 10 -84 11q-96 0 -197 -4q-176 -240 -287 -361q-20 -35 -69 -112zM1325 690q164 0 256 -6q29 -2 53 2q16 16 64 47q8 19 24 58q-55 94 -55 210 q0 76 25 144q-123 -123 -238 -279zM1638 96q0 -84 156 -90q141 10 263 96t161 215q23 76 23 146q0 117 -60 192q-68 -37 -137 -41q-11 -1 -21 -1q-97 0 -182 51l-164 -431q-39 -102 -39 -137zM1651 688l26 4q9 11 17 29q-16 -10 -43 -33zM1683 1008q0 -106 46 -197 q76 201 110 283q68 153 146 266q-119 -45 -271 -193q-31 -76 -31 -159zM1849 682q89 -56 183 -56q9 0 18 1q62 4 125 35q-110 129 -275 129h-10zM1894 803h10q168 0 281 -137q129 68 199 233q43 107 43 209q0 100 -45 172q-51 84 -146 94q-127 -10 -204 -215z" />
<glyph unicode="B" horiz-adv-x="1409" d="M-242 440q0 250 199 465q0 106 59.5 205.5t153.5 153.5q150 84 293 108q94 16 330 17q467 0 585 -224q29 -53 29 -114q0 -260 -438 -316q352 -49 491 -266q99 -152 99 -326q0 -238 -179 -393q-41 -35 -98 -67q115 80 181.5 212t66.5 275q0 160 -84 289q-139 215 -447 258 l-14 2q338 -117 338 -348q0 -125 -92 -217q-82 -82 -211 -115q-66 -16 -238 -35q-39 -4 -209 -4q-47 0 -143 6t-143 6q-31 0 -92 -4q-12 0 -44 -5t-51 -5q-164 0 -278 199q-63 111 -64 243zM-186 485q0 -135 67 -254q108 -192 275 -192h2q63 0 104 18q63 45 127 213l98 258 q-29 -6 -57 -6q-174 0 -307 90q-145 100 -164 267q-145 -184 -145 -394zM12 938q0 -98 70 -199q131 -188 381 -188q16 0 35 2l204 532q60 154 60 177q0 69 -125 69h-4q-188 0 -344 -90q-125 -72 -168 -178q117 90 278 90q188 0 240 -92q-98 78 -229 78q-168 0 -297 -97 q-10 -35 -11 -71q0 -61 31 -107q35 -53 94 -53q33 0 62.5 22.5t29.5 55.5q0 8 -6 21.5t-6 19.5q0 16 20.5 26.5t37.5 10.5q63 0 63 -66q0 -57 -49 -93t-109 -36q-80 0 -134 52.5t-54 131.5q0 31 6 60q-14 -10 -76 -78zM12 961q25 31 84 86q31 86 111 155q172 152 508 170 q-35 4 -72 4q-246 0 -444 -114q-178 -102 -187 -301zM494 88q0 -35 92 -53q61 -12 129 -12q174 0 307 98q145 108 145 278q0 143 -102 234q-94 84 -240 94q-53 -70 -135 -117l-2 -2l-178 -465q-16 -43 -16 -55zM694 625q64 43 111 102q-43 -4 -78 -14zM741 748h78 q74 104 74 219q0 61 -23 120zM842 748q420 14 420 344q0 98 -66 165.5t-164 67.5q-70 0 -100 -80l-55 -143q30 -72 30 -143q0 -116 -65 -211z" />
<glyph unicode="C" horiz-adv-x="1427" d="M6 238q0 412 324 753q317 336 729 381q119 117 323 123h12q157 0 222 -102q20 -33 20 -72q0 -47 -43 -123q-59 -104 -67 -125q-10 -66 -60 -205q-98 -193 -276 -245q45 -96 45 -217q0 -211 -168 -394q-160 -172 -373 -221q-68 -16 -119 -18q-21 -1 -41 -1 q-203 0 -352 109q-176 131 -176 357zM172 203q0 -174 106.5 -288t278.5 -114q252 0 446.5 180.5t194.5 430.5q0 123 -70 192q-33 -8 -63 -8q-90 0 -147 66q-82 -16 -138 -72q-57 -61 -57 -141q0 -68 47 -68q6 0 20.5 6t20.5 4q29 -8 29 -39q0 -86 -97 -86q-49 0 -81.5 38 t-32.5 89q0 78 53 152q86 117 217 139q-54 76 -54 155q0 13 1 25h-11q-139 0 -254 -102q-120 -106 -145 -250q-5 -30 -5 -60q0 -58 18 -114q29 -94 97 -145.5t171 -51.5q174 0 266 125q-104 -143 -285 -143q-147 0 -229 129q-55 88 -55 194q0 170 131 300q128 128 295 128h8 q18 113 121 173l4 -7q-96 -74 -113 -166q209 -12 322 -235q88 31 155 100q125 127 125 291q0 100 -51 180q-20 33 -41 52q-94 90 -237 90q-37 0 -76 -4q-31 -43 -31 -101q0 -51 27 -100q47 -86 164 -86q84 0 157 43q-68 -57 -162 -57q-123 0 -176 92q-30 51 -30 105 q0 60 30 102q-246 -41 -489 -314q-209 -236 -309 -506q-66 -178 -66 -323zM856 829q0 -80 55 -143q25 4 52 4q109 0 180 -61l28 8q-113 213 -313 227q-2 -18 -2 -35zM934 664q53 -43 135 -43q19 0 39 2q-57 43 -141 43q-16 0 -33 -2zM1079 1374q39 2 78 2q188 0 338 -104 q31 -23 53 -21q56 2 56 74t-107 119q-72 31 -126 31h-7q-188 -4 -285 -101zM1159 614q31 -32 51 -75q-12 41 -30 82q-14 -4 -21 -7z" />
<glyph unicode="D" horiz-adv-x="1728" d="M-393 336q0 242 196 426q37 242 318 403q104 61 258 111q246 80 504 80q631 0 796 -391q41 -97 41 -193q0 -268 -190 -498q-131 -158 -307 -223q-147 -55 -379 -61h-24q-51 0 -132 6q-111 6 -158 6q-150 0 -260 -22q-72 -23 -190 -52q-43 -6 -82 -6q-74 0 -154 29 q-98 35 -182 180q-55 96 -55 205zM-332 385q0 -117 60 -219q78 -135 178 -170q80 -29 155 -29q106 0 181 37q94 61 161 162q33 70 84 205q-115 -29 -229 -29q-311 0 -410 172q-43 74 -47 164q-2 37 0 55q-133 -156 -133 -348zM-104 733q0 -178 137 -264q111 -70 301 -70 q84 0 168 15l284 741q19 47 19 74q0 82 -166 82q-35 0 -92 -13q-139 -31 -180 -45q-88 -33 -162 -118q-76 -92 -76 -183q0 -10 2 -18q39 6 78 6q106 0 194 -45q121 -61 121 -178q0 -29 -8 -60q0 90 -20 125q-55 94 -205 129q25 -23 24 -53q0 -41 -32.5 -71.5t-73.5 -30.5 q-57 0 -94 49q-31 41 -35 102q-68 -10 -174 -82q-10 -53 -10 -92zM-92 838q84 61 172 82q2 88 70 178q57 78 141 131q-332 -119 -383 -391zM135 918q12 -37 53 -37q31 0 64 39q-25 4 -53 4q-31 0 -64 -6zM553 78q0 -51 100 -62h133q188 0 308 45q137 51 249 185 q216 254 216 569q0 205 -113 340q-121 141 -322 141q-115 0 -159 -116l-275 -715q16 8 68 39q174 109 303 250q162 176 170 329l61 35q-10 -174 -180 -360q-137 -150 -309 -250q-35 -18 -123 -70l-109 -282q-18 -47 -18 -78z" />
<glyph unicode="E" horiz-adv-x="1142" d="M-270 932q0 141 115.5 259t256.5 118q74 0 134 -41q-65 22 -120 22h-5q-88 0 -176.5 -51t-141.5 -127q-55 -84 -55 -176q0 -74 37 -139q59 -106 209 -113q92 193 348 268q12 31 45 111q74 182 299 264q100 170 295 170q141 0 246 -104l2 -13q-104 104 -244 105 q-176 0 -273 -150q113 39 232 39q123 0 213 -51q108 -63 108 -178q0 -141 -112.5 -240.5t-255.5 -99.5q-37 0 -70 8q33 -35 96 -123q66 -117 66 -221q0 -35 -4 -70q-23 -199 -217 -333q76 23 139 57q186 100 289 270l20 15q-113 -195 -299 -312q-231 -145 -397 -145 q-164 0 -285 69q-227 129 -274 353q-12 57 -12 112q0 92 32 172q-133 6 -204 136q-37 66 -37 139zM-43 479q0 -57 10 -106q35 -166 187 -269q-45 72 -45 160q0 256 305 473q-63 92 -62 191q-27 -72 -61 -111q-139 -160 -299 -160q-35 -86 -35 -178zM4 684q141 0 246 121 q41 47 76 133q-231 -70 -322 -254zM260 367q0 -139 72 -234q80 -102 215 -102q104 0 204.5 68.5t151.5 164.5q41 78 45 146q1 21 1 40q0 141 -50 236q-27 49 -108 133q-80 27 -129 99q-76 39 -162 43q-8 -35 -8 -72q0 -49 24 -101q98 37 164 37q123 0 123 -84 q0 -70 -86 -102q-27 -10 -68 -10q-98 0 -213 82q-176 -117 -176 -344zM502 975q75 -4 145 -35q-39 72 -39 160q0 47 13 96q-92 -100 -119 -221zM524 766q51 -92 150 -92h3q87 0 87 67q0 59 -92 60q-68 0 -148 -35zM631 1116q0 -178 139 -256q63 -35 135 -35q98 0 181 54.5 t116 144.5q-49 -47 -121 -47q-47 0 -82 24q-41 29 -41 74q0 31 27 50.5t57 19.5q10 0 21 -27q16 -37 63 -37q35 0 59.5 23.5t24.5 58.5q0 88 -88 142q-74 47 -168 47q-172 0 -311 -131q-12 -51 -12 -105z" />
<glyph unicode="F" horiz-adv-x="1470" d="M-459 -182q0 182 68 350q-57 123 -58 274q0 172 54 310q25 47 47 98q4 10 10 27q70 207 318 372q231 156 462 183q90 10 162 10q190 0 291 -88q43 -10 231 -51q139 -31 232 -31q109 0 254 63q129 57 258 115q162 63 313 63q209 0 352 -108q160 -119 160 -320 q0 -131 -62.5 -245.5t-174.5 -180.5q-186 -108 -337 -108h-3q-104 0 -174 53q-80 59 -80 160q0 147 137 276t287 129q102 0 178 -39q96 -49 96 -141q0 -27 -17.5 -65.5t-39.5 -51.5l-51 -30q81 81 81 147q0 76 -81 121q-66 37 -148 37q-221 0 -338 -174q-61 -92 -61 -178 q0 -100 82 -158q72 -51 176 -51q301 0 426 248q57 115 57 235q0 242 -209 363q-111 63 -225 63q-121 0 -348 -84q-123 -45 -260 -137q-143 -98 -222 -193q100 -127 101 -254q0 -66 -27 -139q-10 -29 -43 -77t-43 -72q68 -63 109 -136q123 -217 123 -452q0 -188 -78 -344 q-82 -166 -238 -256q-244 -141 -555 -142l21 13q293 0 522 131q152 86 231 264q74 158 74 346q0 248 -108 434q-37 63 -107 131q-84 -182 -131 -370h-12q30 103 30 170q0 65 -59 98q-49 27 -115 27q-55 -127 -102 -238q-35 -82 -98 -223q-158 -326 -320 -490 q-225 -229 -520 -229q-123 0 -207 34t-164 122q-127 137 -127 389zM-430 -123q0 -193 86 -338q29 -49 90 -106q18 35 55 35q27 0 134.5 -78t195.5 -78q283 0 455 373q70 154 157 381q72 192 144 385q-43 4 -58 4q-139 0 -268 -88q-76 -57 -227 -166q-127 -88 -244 -88 q-264 0 -391 202q-31 -53 -53 -106q98 -252 301 -252q18 0 65 13.5t61.5 22.5t69.5 64q41 41 72 41q43 0 43 -43q0 -66 -96 -106q-80 -35 -152 -35q-268 0 -391 231q-49 -139 -49 -268zM-401 451q0 -111 39 -218q22 48 53 97q-59 98 -70 266q-22 -60 -22 -138v-7zM-342 633 q0 -117 68 -250q160 223 321 317q119 70 240 117q-23 39 -23 72q0 59 19 72q4 -70 63 -125q96 24 239 24h11q53 0 104 -4q-8 33 -8 70q0 221 150 303q-315 69 -421 69h-3q-256 0 -477.5 -173t-278.5 -420q-4 -18 -4 -72zM-291 936q158 211 424 328q248 110 521 110h5 q85 0 179 -12q-94 59 -252 59q-72 0 -162 -10q-215 -25 -416 -154q-209 -133 -299 -321zM-266 369q121 -221 403 -222q86 0 209 89q201 143 234 161q154 88 319 90q62 159 121 263q-94 43 -174 65q-37 -25 -92 -55l14 -15l-12 -6l-13 17q-96 -49 -200 -49q-186 0 -250 102 q-193 -72 -319 -171t-240 -269zM356 827q95 -79 258 -79h4q62 0 117 18q-23 33 -33 76q-53 6 -110 6q-139 0 -236 -21zM707 922q0 -35 6 -68q66 -8 131 -25q139 115 139 256q0 61 -22 121q-47 8 -107 21q-72 -33 -113 -131q-34 -80 -34 -169v-5zM715 840q12 -43 30 -70 q45 18 86 49q-57 14 -116 21zM860 823q76 -20 168 -61q123 213 301 352q-55 53 -119 86q-55 -6 -102 -6q-53 0 -113 8q23 -61 23 -123q0 -139 -158 -256zM1087 489h33q133 0 217 66q-78 66 -180 125q-14 -31 -70 -191zM1161 692q106 -61 185 -129q47 41 85.5 121t38.5 141 q0 125 -98 242q-109 -135 -211 -375zM1245 1206q53 -33 101 -82q85 55 249 176q-188 -70 -350 -94z" />
<glyph unicode="G" horiz-adv-x="1380" d="M-68 -113q0 141 56 271q59 139 164 219q-10 47 -11 96q0 283 181 535q-4 39 -5 73q0 227 185 396q177 163 404 163h3q252 0 348 -202q89 32 181 32h6q268 0 391 -215q57 -100 57 -221q0 -150 -78.5 -286t-207.5 -209q-109 -61 -236 -76q-78 -8 -127 -29 q-47 -47 -110 -215l-62 -162q-76 -197 -131 -290q-88 -145 -219 -224q-186 -110 -376 -110h-3q-236 0 -346 190q-63 111 -64 264zM-10 -20q0 -170 82 -314q100 -176 356 -184q-57 10 -111 53q-61 49 -61 103q0 90 80 90q59 0 67 -58q2 -10 -9 -28.5t-11 -28.5q0 -47 38 -83 t85 -36q258 0 446 643q-203 -141 -368 -141q-162 0 -281 104.5t-149 266.5q-164 -131 -164 -387zM334 1024q266 352 637 352q76 0 139 -14q53 41 137 72q-88 194 -339 194h-3q-143 0 -281.5 -75.5t-209.5 -198.5q-81 -139 -81 -295q0 -17 1 -35zM336 504q0 -43 4 -82 q10 1 20 1q56 0 82 -40q-41 29 -77 29q-12 0 -23 -4q14 -125 78 -207q96 -123 239 -123q195 0 316 194q16 27 22 52q-123 -86 -252 -86q-80 0 -155 34l28 17q55 -27 134 -27q158 0 249 80l15 78q-10 2 -38 8t-44 6q-33 0 -99.5 -6t-99.5 -6q-137 0 -170 98q-14 43 -14 82 q0 47 22 92q-106 51 -178 144q-59 -170 -59 -334zM399 850q70 -94 181 -145q93 161 282 161h2q158 0 244 -133q250 117 250 295q0 106 -84 193q-76 80 -184 108q-121 -121 -121 -305q0 -74 24 -135l-10 -6q-25 66 -25 143q0 184 119 307q-52 14 -104 14q-83 0 -168 -34 q-125 -51 -225 -160q-117 -127 -181 -303zM602 682q-2 -20 -2 -38q0 -55 23 -97q35 -63 114 -64q33 0 102.5 12.5t104.5 12.5q31 0 76 -14q53 -16 74 -19q30 69 30 135q0 59 -26 107q-158 -74 -299 -74q-102 0 -197 39zM606 694q94 -39 197 -39q127 0 291 72 q-70 127 -240 127q-84 0 -154 -39q-80 -45 -94 -121zM1114 725q47 -82 47 -147q0 -51 -26 -103q213 0 327 31q162 47 271 178q137 165 137 358q0 113 -51 203q-121 213 -385 213q-88 0 -174 -28q29 -63 28 -138q37 -23 77 -45q29 -16 58 -16q11 0 21 2q41 8 69 55l7 -2l4 -2 q-25 -51 -74 -174q-6 -29 -33 -104q-57 -139 -225 -238q-25 -14 -78 -43zM1122 1360q74 -19 154 -62q-2 72 -25 127q-80 -27 -129 -65z" />
<glyph unicode="H" horiz-adv-x="1933" d="M-547 -221q0 78 55 223q27 72 115 172q80 90 154 141q25 16 213 127q133 78 332 78q76 0 141 -14q20 51 57 133l101 227q20 47 69 187q53 152 53 184q0 84 -168 92q-32 1 -60 1q-71 0 -116 -7q-129 -23 -225 -98q-111 -90 -111 -211q0 -66 37 -115q39 -55 103 -55 q98 0 98 80q0 14 -13.5 38.5t-11.5 34.5q12 51 64 52q33 0 54.5 -28t21.5 -63q0 -68 -55.5 -113.5t-124.5 -45.5q-88 0 -141.5 53t-53.5 141q0 63 29 121q119 240 495 240q61 0 186.5 -7.5t186.5 -7.5q96 0 168 9q200 23 200 24h-1q211 0 327 -96q182 184 363 184 q55 0 105 -38t50 -91q0 -41 -26 -71.5t-64 -30.5q-57 0 -57 49q0 18 39 45q25 16 24 41q0 31 -29.5 52.5t-60.5 21.5q-141 0 -286 -219q53 -66 102 -256q86 -8 143 -39q49 -27 110.5 -94.5t74.5 -137.5q4 -26 4 -103v-57q-25 133 -31 150q-23 74 -78 129q-84 82 -217 107 q2 -37 2 -74q0 -281 -192 -506q-88 -104 -160 -150q-82 -51 -205 -71q2 -72 74 -94q35 -10 108 -11l-2 -12q-43 0 -126 2t-126 2q-53 0 -158.5 -2t-158.5 -2v6q131 14 193 129q-41 20 -66 64q-63 109 -63 217q0 154 106 268q-75 2 -139 2q-96 0 -168 -4q-63 -156 -101 -238 q158 -98 158 -290q0 -201 -150.5 -364t-349.5 -163q-86 0 -172 35q-179 -151 -356 -151h-2q-158 0 -238 112q-53 76 -53 156zM-477 -262q27 45 80 45q50 0 50 -32q0 -4 -1 -9q-4 -23 -21 -51q-12 -18 -10 -39q0 -53 57 -88q51 -29 109 -29q150 0 276 146q-70 37 -120 98 l10 6q47 -57 121 -94q84 100 198 344q19 40 166 405q-96 33 -198 33q-319 0 -549 -270q-78 -90 -107 -168q-62 -161 -62 -270q0 -14 1 -27zM115 -328q81 -30 163 -30h5q176 0 301 121.5t125 297.5q0 197 -129 301q-211 -471 -465 -690zM727 711l322 -2q117 111 311 174 q110 213 235 352q-117 104 -333 104q-121 0 -234 -39q-92 -51 -166 -239zM938 393q0 -102 51 -188q23 -39 64 -60q20 37 53 125l158 412h-17q-55 0 -205 2q-104 -119 -104 -291zM1065 709q41 -1 78 -1q75 0 135 3q35 79 74 155q-182 -57 -287 -157zM1243 127q119 20 199 70 q68 43 153 143q158 184 158 432q0 74 -14 152q-27 2 -53 2q-74 0 -162 -17q-29 -68 -144 -362q-29 -70 -81 -207t-56 -213zM1534 932q111 27 199 31q-18 88 -25 108q-16 59 -51 98q-59 -100 -123 -237z" />
<glyph unicode="I" horiz-adv-x="1134" d="M-121 225q0 80 51 131q33 219 199 306q94 49 209 49q193 0 307 -133l39 88q131 297 238 450q37 53 106 139q-102 -22 -195 -22h-8q-51 0 -154.5 9t-154.5 9q-117 0 -199 -53q-96 -61 -96 -172q0 -51 29 -87t78 -36q80 0 80 70q0 55 6 61q14 14 49 13q63 -6 63 -78 q0 -55 -48 -88t-105 -33q-70 0 -119 55t-49 125t47 137q139 197 475 197q63 0 191.5 -7t191.5 -7q57 0 156 20l4 -6q-117 -37 -209 -213q-53 -102 -162 -387q-92 -244 -180 -391v-39v-13q0 -186 -111 -346q-123 -176 -307 -200q186 53 291 207q98 144 98 336v8 q-88 -131 -209 -211q-186 -123 -346 -123q-111 0 -183.5 63.5t-72.5 171.5zM-39 66q61 -49 154 -50q239 0 315 160q-85 -117 -272 -117h-6q-127 0 -199 125q-28 48 -28 117q0 12 1 25q-32 -50 -32 -115q0 -94 67 -145zM-39 360q4 -78 43 -145q53 -92 215 -94q66 0 150 43 q63 33 137 131q29 39 65 121l60 133q-108 149 -302 149h-3q-238 0 -332 -186q-31 -61 -33 -129q57 39 113 39q51 0 89 -32t38 -83q-2 -88 -66 -98q-4 -1 -8 -1q-38 0 -49 54q-2 10 5 28.5t7 29.5q0 54 -76 55q-29 0 -53 -15z" />
<glyph unicode="J" horiz-adv-x="1075" d="M-133 -332q0 25 18.5 44.5t42.5 19.5q23 0 89.5 -73t136.5 -73q164 0 288 391q23 74 68 226q-113 31 -188 112q-80 86 -80 196v5q2 129 102 215q92 80 225 86q10 1 20 1q63 0 122 -23q92 233 217 385q-143 -62 -219 -62h-9q-63 4 -220.5 124t-239.5 120q-49 0 -89 -49 t-40 -101q0 -35 28 -34q8 0 27.5 16t36.5 16q67 0 67 -61q0 -68 -65 -68q-45 0 -76 37t-31 82q0 94 76 154q70 55 166 55q100 0 178 -57q57 -53 115 -107q76 -59 139 -59q125 0 178 18q129 172 205 172q41 0 41 -30q0 -59 -147 -136q-117 -201 -207 -471q27 -18 100 -28 q59 -8 96 -9q182 2 244 109q11 24 21 47q-37 -169 -295 -169q-17 0 -35 1q-72 4 -139 21l-39 -111q72 -16 117 -70q41 -47 41 -108q0 -8 -1 -16q-8 -113 -139 -181q-76 -39 -162 -39q-152 -426 -358 -565q-97 -65 -236 -65h-4q-57 0 -116 28q-70 33 -70 84zM299 539 q0 -217 221 -303l113 348q-102 -25 -152 -113q51 94 156 127q8 20 63 170q-66 35 -145 35q-74 0 -143 -47q-113 -76 -113 -217zM659 207h11q254 0 254 217q0 111 -138 154q-41 -125 -127 -371z" />
<glyph unicode="K" horiz-adv-x="1691" d="M-31 766q0 57 23 127q59 186 225 303q150 106 356 137q141 20 156 21q41 0 125 -3t125 -3q141 0 229 6l-2 -17q-117 0 -192 -129q-18 -31 -96 -233l-119 -320q104 74 409 316l76 61q94 74 178 148q35 31 35 69q0 72 -125 88l-2 17q92 -6 197 -6q106 0 225 6v-27 q-104 -25 -268 -145q-72 -53 -242 -199q-61 -53 -235 -186q45 -215 116 -418q78 215 260 354q190 147 412 148q303 0 555 -179q260 -186 332 -475q26 -108 26 -149q0 -328 -282 -524q-182 -127 -369 -127q-281 0 -532 163q-231 150 -387 406q106 -403 594 -539l-15 -10 q-510 143 -610 559q-2 23 -12 64q-27 53 -93 192q-70 160 -139 432l-121 -86q-59 -145 -96 -237q-86 -219 -86 -267q0 -90 160 -92v-12h-541l2 12q98 0 152 56q41 39 82 145q4 8 71 182q-70 -31 -161 -33h-5q-157 0 -273 120q-118 122 -118 284zM-2 756q4 -104 72.5 -207 t165.5 -141q55 -23 139 -23q86 0 157 27q293 747 293 800t-75 80q-53 18 -121 19q-319 0 -414 -203q-37 -78 -37 -129q0 -119 115 -119q35 0 62.5 24.5t27.5 59.5q0 10 -8 26.5t-8 26.5q0 63 55 64q86 0 86 -94q0 -70 -53.5 -114t-124.5 -44q-84 0 -138.5 47t-54.5 129 q0 63 47 137q43 66 101 107q-127 -66 -209 -200q-78 -128 -78 -260v-13zM1176 344q51 -145 92 -225q137 -266 340 -438q242 -201 506 -201q88 0 184 51q110 58 110 138q0 50 -39.5 74t-39.5 34q0 55 65 55q51 0 82 -41t31 -94q0 -51 -29 -98q92 70 141 194q45 113 45 240 q0 350 -249.5 588.5t-602.5 238.5q-223 0 -401 -151q-170 -143 -235 -365z" />
<glyph unicode="L" horiz-adv-x="796" d="M-102 111q0 86 88 131q68 34 161 34h5q53 0 112 -24q27 55 88 207q55 164 209 590q92 242 273 391q43 37 92 71q178 104 303 105q96 0 183 -46t133 -128t46 -158q0 -121 -96 -203q-86 -76 -211 -88q-61 -80 -164 -80q-51 0 -96 31t-45 80q0 29 19.5 53.5t48.5 24.5 q-10 25 -11 41q0 16 13 22q2 -47 30.5 -84t73.5 -37q53 0 89 42t36 96q0 92 -82 139q-55 29 -109 29q-133 0 -231 -131q-57 -76 -129 -250q-53 -131 -162 -394q-94 -219 -194 -378q59 -41 106 -88q66 -66 236 -234q182 -176 295 -250q182 -119 364 -119q96 0 176 50 q90 55 90 147q0 23 -8 37q-29 -4 -57 -4q-182 0 -266 143q-45 78 -45 158q0 186 184 313q166 117 358 117q307 0 475 -291q50 -84 50 -217q0 -281 -242 -444q-225 -154 -580 -154q-197 0 -333 47q-109 37 -285 158q-115 78 -246 219q-80 88 -158 178q-96 104 -172 160 q-113 -119 -262 -119h-43q-43 6 -76.5 35t-33.5 72zM-80 117q0 -37 35 -56.5t74 -19.5q120 0 196 137q-86 53 -153 53q-59 0 -103 -26q-49 -33 -49 -88zM721 1227q140 149 324 149h2q119 0 196 -57q88 -66 88 -180q0 -66 -31 -121q104 12 168 67q74 62 74 160q0 78 -49 162 q-33 55 -82 88q-117 76 -242 76q-266 0 -448 -344zM1219 -541q164 -57 358 -57q98 0 199 16q418 68 508 398q16 60 16 123q0 137 -51 223q-172 293 -467 293q-184 0 -338 -117q-170 -125 -170 -303q0 -80 41 -152q74 -129 254 -129q25 0 47 2q-39 41 -39 56q0 69 63 69h2 q82 0 82 -94v-6q49 18 86 51q-33 -39 -88 -65q-4 -84 -84 -164q-145 -145 -387 -145q-16 0 -32 1z" />
<glyph unicode="M" horiz-adv-x="2557" d="M-922 78q0 270 215 479q238 229 596 229q385 0 527 -299q57 -121 57 -243q0 -74 -20 -156l-39 -22q32 125 32 208q0 105 -43 205q-129 301 -512 301q-145 0 -286 -49q-195 -68 -324 -229q-137 -170 -137 -369q0 -121 66.5 -231.5t173.5 -173.5q166 -100 368 -101 q190 0 441 88q225 78 407 193q137 86 277 211q-203 -127 -443 -127q-184 0 -311 80q-147 96 -148 270q0 102 57.5 177t157.5 75q55 0 96.5 -37t41.5 -92q0 -76 -72 -76q-53 0 -53 27q0 6 3 17t3 18q0 33 -27.5 54t-60.5 21q-63 0 -99 -52t-36 -120q0 -156 137 -243 q119 -76 283 -76q315 0 577 241q188 174 303 439q104 244 129 520q-43 20 -180 20q-176 0 -254 -24q-141 -45 -141 -180q0 -121 100 -121q35 0 59.5 24.5t24.5 61.5t41 45q29 6 46 -14.5t17 -51.5q0 -53 -37.5 -84.5t-93.5 -31.5q-70 0 -120 50t-50 120q0 150 142 237 q123 76 280 76q27 0 271 -6q133 -377 170 -651q242 266 421 407q352 276 570 277q57 0 100 -25q51 -31 51 -84q0 -37 -30 -37q-31 0 -31 31q0 8 4 24.5t4 24.5q0 47 -59 47q-96 0 -236 -176q-176 -221 -280 -530q-70 -205 -70 -375q0 -225 147 -226q82 0 136 95l8 -4 q-84 -162 -240 -162q-205 0 -205 317q0 211 117 463q106 231 262 402q37 41 72 71q25 23 111 98q-111 -33 -220 -96q-178 -106 -335 -252q-100 -92 -293 -303q20 -137 20 -256q0 -156 -33 -262q-51 -164 -172 -164q-53 0 -84 43q-28 36 -28 88q0 172 188 420 q-16 266 -151 621q-43 -338 -162 -586q-94 -199 -295 -403q-109 -111 -299 -248q-289 -207 -635 -314q-207 -63 -369 -63q-207 0 -370 104q-100 63 -163 176t-63 230zM1419 152q0 -109 78 -109q59 0 88 145q21 103 21 205q0 18 -13 162q-174 -240 -174 -403z" />
<glyph unicode="N" horiz-adv-x="2215" d="M-1331 430q0 135 47 254q53 137 149.5 201.5t192.5 64.5q113 0 145 -61q-39 47 -131 47q-113 0 -190 -53q-147 -100 -148 -328q0 -289 222 -504q195 -186 495 -262q86 -22 188 -22h9q147 0 268 40q227 76 408 228q-68 -39 -146 -39q-96 0 -159.5 56.5t-63.5 152.5 q0 53 29.5 91t81.5 38q25 0 42 -21.5t17 -46.5q0 -20 -28.5 -48t-28.5 -52q0 -57 46 -95t103 -38q113 0 234 149q236 291 407 899q12 45 33 138q-124 24 -316 24h-16q-321 0 -321 -148q0 -85 79 -85q57 0 80 49q14 33 41 41q29 6 47.5 -17.5t18.5 -52.5q0 -88 -111 -88 q-78 0 -127 48q-44 43 -44 109q0 8 1 17q8 127 150 187q104 43 252 43h-3q0 -1 347 -15q-27 104 -45 228q-31 215 -31 337q0 252 115 547q53 135 116 232q127 193 338 307q100 55 228 55q133 0 237 -57q125 -72 125 -195q0 -127 -124 -228t-230 -101q-57 0 -96 26 q-45 33 -46 86q0 33 24 61.5t54 20.5q25 -6 31 -29q20 -61 127 -65h7q54 0 108 29q-14 -2 -27 -2q-41 0 -82 22q35 -6 64 -6q106 0 145 98q14 37 14 72q0 111 -118 180q-100 57 -220 57q-119 0 -227 -59q-186 -100 -297 -297q-88 -154 -160 -432q-43 -166 -43 -336 q0 -123 31 -332q27 -180 62 -295l61 -200q57 -186 133 -361q131 -299 260 -493q33 186 132.5 448t199.5 418q57 90 84 125q51 68 176 145q37 20 86 23q45 0 77 -33t32 -80q0 -84 -78 -108q-27 -8 -53 -4q-23 4 -41 4q-244 0 -451 -551q-90 -238 -123 -447q12 -20 78 -102 q463 -582 963 -582q182 0 249 119q33 57 33 96q0 18 -17.5 41t-15.5 33q12 51 68 51q39 0 66.5 -30.5t27.5 -69.5q0 -147 -237 -236q-81 -30 -190 -30h-7q-164 0 -344 53q-383 113 -662 428q-215 242 -426 690q-150 317 -208 510q-125 -432 -347 -811q-111 -190 -333 -350 q-203 -147 -432 -225q-121 -41 -269 -41q-106 0 -196 22q-403 100 -592 399q-84 133 -84 324z" />
<glyph unicode="O" horiz-adv-x="1345" d="M-848 551q0 113 31 235q113 444 555 674q23 197 108 336q186 305 445 479q274 186 643 187q424 0 739 -217q359 -247 359 -646q0 -137 -62.5 -343.5t-138.5 -321.5q-166 -250 -447 -412q-78 -45 -190 -86q-193 -315 -535 -442q-76 -29 -122 -43l-183 -57 q-102 -31 -182 -39q-127 -14 -229 -15q-502 0 -693 330q-98 170 -98 381zM-809 578q0 -213 100 -385q182 -311 686 -312q121 0 252 15q82 8 230 55q-25 -2 -51 -2q-203 0 -326 145q-115 135 -115 342q0 178 94 377q217 457 627 547l4 -4q-229 -78 -416 -432 q-170 -324 -170 -580q0 -166 72 -266q84 -113 244 -113q313 0 569 430q-33 -2 -61 -2q-344 0 -441 256q-28 75 -28 141q0 143 92 295q88 145 211 222q107 67 252 67h4q164 0 252 -133q74 -113 74 -285q0 -260 -138 -497q160 51 320 182q150 121 250 270q86 127 141 320 q55 186 55 346q0 387 -336 633q-307 225 -714 225q-143 0 -273 -33q-223 -57 -338 -135q-268 -182 -442 -465q-86 -139 -115 -332q186 92 365 93q176 0 330 -88l-17 -9q-145 84 -315 84q-178 0 -365 -90q-8 -68 -8 -135q0 -113 27 -211l-11 -6q-32 112 -32 233v7q0 49 6 102 q-406 -207 -516 -651q-29 -115 -29 -221zM506 842q0 -145 100 -146q68 0 68 63v11q14 35 57 35q74 0 74 -76q0 -53 -55.5 -92t-110.5 -39q-70 0 -115 43q53 -119 207 -176q111 -42 243 -42q17 0 34 1q186 326 186 594q0 129 -61 211q-70 92 -195 92q-133 0 -250 -100 q-104 -92 -156 -226q-26 -68 -26 -147v-6z" />
<glyph unicode="P" horiz-adv-x="1474" d="M-1358 707q0 96 15 178q61 350 241 549q205 225 539 225q123 0 266 -39q172 -45 238 -119q-190 113 -400 113q-307 0 -542 -217q-227 -209 -283 -516q-18 -102 -19 -189q0 -266 142 -477q135 -199 379 -328q205 -108 470 -108h33q387 8 594 225q-82 -4 -127 -4l2 14 q174 0 254 140q6 12 66 145q12 37 108 274q-115 68 -206 168q-35 -18 -72 -18q-86 0 -133 57.5t-47 145.5q0 170 178 299q76 227 278 346q184 106 439 106l-23 -12q-485 0 -670 -426q201 129 549 129q45 0 93 -2q68 152 79 176q51 100 103 164q162 197 350 229q74 12 145 13 q281 0 420 -242q90 -156 90 -332q0 -289 -215 -547q-201 -240 -487 -344q-156 -57 -338 -57q-221 0 -399 80l-56 -158q0 -2 -47 -123q-33 -86 -33 -119q0 -82 138 -94q18 0 41 -2l-2 -2v-8q-158 6 -308 6q-59 0 -127 -2q-70 -68 -196.5 -143.5t-214.5 -98.5 q-193 -49 -313 -49h-9q-240 4 -465 131q-242 135 -380 362.5t-138 500.5zM234.5 868q31.5 -39 76.5 -39q15 1 27 9q-49 74 -49 174q0 78 30 162q-116 -103 -116 -218q0 -49 31.5 -88zM315 1040q0 -98 45 -174q8 20 35 43q14 4 26 4q34 0 46 -34q4 -8 10 -35q3 -9 3 -18 q0 -33 -36 -64q80 -80 191 -146q51 133 194 517q11 28 19 59q2 13 2 24q0 45 -31 72q-39 33 -106 33q-211 0 -371 -127q-27 -76 -27 -154zM766 547q199 -92 432 -92q475 0 774 401q180 242 180 506q0 178 -88 328q-140 237 -407 237h-2q-66 0 -137 -12q-143 -25 -281 -203 q-51 -66 -94 -168q-33 -92 -68 -182q549 -43 549 -391q0 -176 -127 -283q-119 -100 -299 -100q-170 0 -291 82l4 10q121 -61 209 -62q164 0 254 138q78 119 78 288q0 121 -73.5 197t-194.5 76q-139 0 -195 -154z" />
<glyph unicode="Q" horiz-adv-x="1552" d="M258 276q-29 27 -51 52q-76 84 -122 219t-46 252q0 82 18 178q61 317 301 521t562 204q147 0 284 -45q248 -80 404 -244q170 -178 202 -422q11 -77 11 -145q0 -393 -314 -590q-176 -111 -340 -111q-74 0 -157 21l96 55q66 -14 127 -14q115 0 229 53q285 133 285 535 q0 78 -10 163q-27 229 -195 414q-158 174 -387 248q-152 49 -295 49q-289 0 -487 -188q-184 -178 -242 -471q-16 -84 -16 -164q0 -240 166 -469q16 -23 75 -92q158 0 357 -115q96 55 211 197q211 260 211 487q0 170 -125 300t-295 130q-147 0 -252 -101.5t-105 -248.5 q0 -160 125 -256q78 -63 168 -64q86 0 162 92.5t76 180.5q0 49 -19 88q-25 49 -69 49q-18 0 -41 -11.5t-23 -27.5q0 -12 15 -27l26 -26q6 -8 6 -17q-6 -65 -65 -65h-2q-78 0 -78 78q0 51 40 87t93 36q145 0 146 -154q0 -45 -21 -115q-31 -104 -117 -174.5t-192 -70.5 q-127 0 -204 81.5t-77 208.5q0 215 167 381t382 166q111 0 209 -74q150 -111 160 -342q1 -12 1 -24q0 -174 -106 -365q-20 -37 -121 -163q-106 -135 -247 -269q76 -49 220 -158.5t225 -160.5t155 -94q119 -51 178 -52q18 0 59 17.5t41 31.5q0 6 -13 30t-13 44 q0 27 21.5 46.5t47.5 19.5q70 0 70 -72q0 -104 -236 -141q-53 -8 -96 -8q-92 0 -199 38q-59 23 -202 93q-80 39 -211 131q-63 43 -213 155q-188 -88 -332 -88q-86 0 -148 29q-79 39 -79 115q0 127 231 163zM104 164q0 -78 76 -125q66 -43 148 -43q106 0 241 76 q-133 113 -237 149q-80 29 -127 29q-39 0 -70 -23.5t-31 -62.5z" />
<glyph unicode="R" horiz-adv-x="1570" d="M-174 647q0 182 113 344q102 145 272 244q186 106 395 139q60 9 139 9t175 -9q205 -20 274 -35q150 -33 246 -110q114 -95 114 -234q0 -154 -129 -266q-63 -55 -145 -80q-45 -14 -166 -28q37 -207 121 -404q184 53 348 154q-33 90 -33 190q0 137 59.5 263t168.5 200 q195 133 448 133q209 0 395.5 -96t298.5 -266q148 -226 148 -545q0 -334 -170 -563q-113 -150 -344 -230q-192 -65 -409 -65h-7q-256 0 -508 172q-270 184 -438 442q-53 80 -90 156q-234 -74 -490 -74h-26l2 -4q25 -76 174 -78v-6q-193 4 -307 4q-154 0 -291 -4v6h14 q110 0 193 88q-63 8 -138 35q-344 125 -397 418q-10 57 -10 100zM-94 657q0 -227 125 -344q104 -98 248 -147q72 -25 122 -35q37 57 66 129l348 905q12 34 12 52q0 47 -71 75q-57 25 -113 25q-217 0 -360 -146q-80 -82 -80 -163q0 -12 2 -25q10 -78 71 -102h9q27 0 65 -9 q10 -8 12 -26q4 -33 -27.5 -51.5t-66.5 -18.5q-63 0 -102 47t-39 111q0 152 152 268q129 98 294 129q8 2 31 12q-5 1 -12 1q-31 0 -111 -19q-84 -23 -123 -37q-244 -96 -364 -305q-88 -154 -88 -326zM580 123q33 -1 66 -1q215 0 444 62q-57 139 -156 430q-72 10 -146 45 q-70 -186 -192 -487q-6 -14 -16 -49zM809 694q106 -30 187 -30h5q201 0 316 143q84 104 84 233q0 115 -65.5 193t-178.5 78q-82 0 -127 -54q-23 -27 -39 -69q-25 -68 -98 -256q-16 -37 -47 -113q-37 -92 -37 -125zM1243 201q31 -68 70 -135q139 -236 338 -408 q252 -217 485 -217q82 0 156 33q108 47 108 135q0 18 -15 40.5t-15 33.5q2 53 51 71q17 6 33 6q32 0 56 -26q36 -38 36 -92q0 -125 -152 -199q150 23 242 61q119 51 192 150q168 225 168 559q0 164 -55 324q-43 121 -96 204q-113 176 -291 281q-184 108 -385 108h-4 q-199 0 -363 -108q-215 -143 -215 -463q0 -90 21 -174q135 88 274 262q111 139 152 227q-33 -100 -146 -241q-131 -168 -278 -256q23 -92 98 -195q-76 53 -123 180q-195 -115 -342 -161z" />
<glyph unicode="S" horiz-adv-x="1368" d="M-1112 31q0 555 469 841q279 170 559 170q213 0 358 -112q-18 104 -18 196q0 291 164 568q84 143 158 196q-133 -154 -187 -258q-110 -221 -110 -486q0 -120 30 -247q70 -63 111 -149q44 -84 44 -160q0 -9 -1 -19q195 -311 557 -346q-41 205 -180 453q-96 170 -125 254 q-37 106 -37 213q0 141 63 289q86 201 273.5 318.5t408.5 117.5q199 0 364 -90t259 -260q98 -177 98 -404q0 -254 -123 -477q-254 -463 -825 -463q-37 -285 -287 -532q-152 -150 -360 -254q-365 -180 -748 -181q-602 0 -829 445q-86 168 -86 377zM-1075 37q0 -201 86 -363 q220 -415 744 -415h3q453 0 824 206l143 80q72 44 125 97q-227 -131 -520 -131q-338 0 -480 206q-53 80 -53 168q0 137 109 262q168 195 407 211l11 4q84 33 116 150q-119 180 -161 395q-147 119 -373 119q-422 0 -701.5 -283.5t-279.5 -705.5zM-61 -45q0 -201 145 -309 q129 -96 336 -97q248 0 429 165t181 411q0 27 -2 53q-367 12 -577 320q-31 -88 -117 -138l2 -2h2h6h7q97 0 155 -53q60 -55 61 -155q0 -92 -71.5 -165t-163.5 -73q-49 0 -88 39q-32 32 -32 70q0 8 1 16q8 39 38 67q26 24 58 24q5 0 10 -1q10 -2 33 -29.5t47 -27.5 q39 0 68 28.5t29 67.5q0 74 -54.5 117t-130.5 43q-154 0 -263 -110t-109 -261zM317 870q32 -98 136 -274q-4 84 -56 172q-18 33 -80 102zM717 1153q33 72 112 129q129 92 312 92q258 0 346 -182q29 -59 29 -119q0 -82 -53.5 -145.5t-133.5 -63.5q-115 0 -121 101q-1 8 -1 15 q1 34 17 56q18 25 58 25h6q14 0 34.5 -13.5t23.5 -23.5q4 -45 30 -41q70 10 70 98q0 115 -92 189q-83 69 -200 69h-3q-254 0 -281 -206q-1 -8 -1 -17q0 -64 49 -172q10 -20 118 -223q123 -229 156 -498q567 16 795 473q106 214 106 439q0 197 -82 352q-86 166 -251 256 t-353 90q-207 0 -375 -102q-178 -104 -258 -289q-49 -113 -57 -289z" />
<glyph unicode="T" horiz-adv-x="1724" d="M-635 1200q0 307 240 488q214 161 528 161h4q344 0 602 -182q170 188 394 299q238 119 477 119q455 0 694 -416q61 -106 61 -233q0 -135 -73 -316q-51 -125 -107 -186q-37 -41 -133 -109q-167 -114 -351 -114h-3q-133 0 -254 63q-51 27 -123 86q-35 29 -84 78l-63 -156 q-72 -184 -361 -938q-25 -64 -25 -109q0 -20 5 -36q8 -27 26 -45q47 -25 103 -43q27 -4 67 -4h55v-19q-55 2 -102 2h-2l-4 2q-102 2 -272 2q-51 0 -383 -8q2 4 6 17q12 -1 23 -1q114 0 198 56q47 31 92 109q-266 231 -311 616q-92 23 -166 131q-59 88 -86 199 q-51 -16 -174 -35h-6q-217 0 -357 151q-135 147 -135 371zM-575 1241q0 -215 151 -367q154 -156 330 -156q12 0 24 1q43 2 103 18l-2 2q-12 63 -13 115q0 119 78 254q41 72 99 121q-63 90 -168 90q-113 0 -179 -92q63 133 211 133q127 0 201 -86q96 55 242 72q33 68 153 221 q1 -1 58 69q-250 195 -596 195q-256 0 -445 -115q-215 -133 -241 -373q-6 -53 -6 -102zM55 864q0 -51 15 -114q114 88 149 229q13 53 13 103q0 54 -15 104q-39 -31 -74 -78q-88 -121 -88 -244zM72 733q18 -100 67 -178q61 -100 146 -106q-1 25 -1 51q0 304 183 768 q-109 -8 -178 -39q39 -84 39 -131q0 -43 -27 -123q-39 -119 -141 -193q-27 -20 -88 -49zM342 555q8 31 58 31h6q59 -4 69 -72l2 -18q1 -41 -31 -72q-38 -37 -94 -43q47 -328 271 -574q33 61 118 291l373 985q-20 31 -59 95q-43 16 -162 55q-104 31 -248 37q-16 1 -39 1 q-45 0 -114 -3q-150 -382 -150 -705v-8zM526 1350q74 6 138 7q38 0 73 -3q134 -8 236 -39q-47 84 -62 106q-72 115 -188 207q-18 -23 -49 -61q-35 -45 -84 -109q-33 -45 -64 -108zM750 1659q76 -53 135 -119q49 -51 170 -252l37 -10l622 -197q168 -53 209 -53q51 0 51 41 q0 16 -23.5 35.5t-23.5 36.5q0 55 47 55q33 0 56.5 -22.5t23.5 -55.5q0 -27 -18 -61q-41 -78 -187 -78q-82 0 -213 35q-154 41 -323 92q-14 -27 -39 -80q51 -47 127 -111q27 -23 123 -86q109 -55 231 -55q166 0 308.5 96.5t209.5 249.5q54 121 54 256q0 156 -76 285 q-236 399 -672 399q-227 0 -457 -114q-215 -106 -372 -287z" />
<glyph unicode="U" horiz-adv-x="1423" d="M-1012 1085q0 246 164 453q156 199 393 287q133 49 279 49q342 0 479 -240q68 -118 68 -266v-16q74 -8 127 -9q72 0 153 19q-14 -45 -61 -107q-39 -47 -78 -96q-121 -156 -176 -262q-127 -242 -127 -451q0 -205 121 -305q87 -73 206 -73h3q182 0 297 147q74 94 147 309 q-147 195 -147 422q0 217 139 418q217 313 586 313q170 0 337 -80q383 -182 383 -649q0 -346 -196 -645q-129 -197 -344 -336q-234 -151 -450 -151h-3q-164 0 -272 78q-125 88 -125 245q0 33 14 142q-227 -324 -485 -324q-221 0 -328 162q-35 51 -45 102q-18 87 -18 141v11 q10 266 121 473q31 55 106 209q35 96 53 170q-43 4 -215 28q-25 4 -53 4q-34 0 -72 -6q-196 -31 -196 -160q0 -87 75 -87q18 0 34 17t24 13q33 -6 33 -49q0 -27 -22.5 -48.5t-49.5 -18.5q-37 4 -74 55q-33 45 -35 86q-1 11 -1 21q0 164 177 251q88 43 226 43q59 0 172 -16 q2 31 2 61q0 123 -49 209q-135 233 -465 234q-143 0 -281 -52q-223 -84 -364 -272q-143 -197 -144 -430q0 -285 201 -420q102 -68 217 -74q15 -1 29 -1q232 0 348 182l22 12q-143 -226 -407 -226q-16 0 -33 1q-117 6 -217 73q-203 135 -203 430zM188 819q84 137 201 260 q37 40 139 146q-88 -6 -106 -6q-33 0 -68 2q-12 -72 -39 -142q-18 -49 -61 -131q-49 -92 -66 -129zM868 967q0 -211 129 -400l17 56q90 303 227 579q51 104 115 135q37 18 227 19q33 0 33 -6q-82 -8 -146 -70q-78 -76 -190 -342q-106 -250 -172 -492q185 -157 496 -157h4 l-41 -17q-299 0 -471 136q-43 -164 -43 -240q0 -117 100 -117q78 0 137 76l6 -4q-86 -160 -229 -160h-14q113 -102 313 -102q199 0 395 133q176 117 297 301q180 272 180 612q0 467 -378 660q-148 75 -312 75h-4q-326 0 -530 -264q-145 -188 -146 -411z" />
<glyph unicode="V" horiz-adv-x="1288" d="M-928 1481q0 209 287 325q221 92 463 92q125 0 223 -24q6 74 25 166q55 272 276 434q194 145 443 145q26 0 53 -2q287 -16 499 -221q273 -264 273 -684q0 -147 -35 -323q-31 -158 -131 -392q-51 -104 -182 -379q-119 -250 -287 -415q-213 -213 -440 -213 q-176 0 -278.5 112.5t-102.5 290.5q0 242 116 475q27 55 66 111l68 98q-113 80 -203 199q-78 8 -144 8q-231 0 -231 -125q0 -88 90 -88q20 0 52 14.5t38 14.5q33 0 33 -41q0 -98 -104 -98q-141 0 -142 155q0 123 115 195q92 57 227 63q-97 176 -97 409q0 28 1 56 q-94 27 -236 27q-266 0 -466 -88q-238 -104 -238 -291q0 -78 45 -170q27 -55 86 -98q37 -25 111 -76q-106 51 -131 69q-43 31 -80 86q-61 94 -62 183zM70 1831q-1 -17 0 -34q0 -239 106 -421q74 0 168 -4q119 -6 168 -8v17q0 86 -37 151q-119 207 -405 299zM72 1868 q358 -102 473 -297q57 -98 57 -199q0 -121 -108 -309q147 -80 315 -80q211 0 448 129q-78 63 -83 70q-47 47 -48 94q0 39 37 68.5t76 29.5q102 0 143 -186q4 -18 4 -88q0 -117 -26 -219q90 195 110 245q55 135 76 258q35 204 35 347q0 385 -264 641q-227 221 -543 221 q-254 0 -440.5 -144.5t-237.5 -392.5q-20 -100 -24 -188zM248 1272q82 -102 178 -168q20 33 61 133q-80 12 -239 35zM311 535q0 -336 217 -408q57 -18 138 -18q66 0 147 34q201 84 348 336q139 242 139 469q0 109 -32 152q-246 -143 -473 -144q-168 0 -318 80 q-90 -158 -121 -239q-45 -119 -45 -262z" />
<glyph unicode="W" horiz-adv-x="1951" d="M-748 1243v39q0 364 144 634q152 284 478.5 502t793.5 244q72 4 125 4q391 0 649 -180q289 -205 303 -579q215 -45 434 -197q477 -330 477 -872q0 -170 -41 -349q133 109 185 154q92 84 163 193q229 348 230 753q0 184 -49 299q73 -155 73 -323q0 -358 -227 -723 q-78 -125 -182 -224q-47 -43 -203 -165q-63 -242 -190 -443q-334 -526 -1151 -612q-117 -12 -211 -12q-483 0 -817 303q-131 119 -320 379q-342 195 -504 489q-152 279 -160 686zM-721 1278q0 -715 606 -1124q-59 154 -59 346q0 104 37 223q43 137 112 192 q-108 -140 -108 -433v-5q0 -203 82 -364q438 -252 944 -252q414 0 864 162q426 152 780 409q54 193 54 377q0 539 -424 870q-174 137 -422 203q0 -229 -199 -559q-68 -113 -102 -291q-12 -68 -43 -309q-35 -283 -74 -447q719 666 719 930q0 61 -56.5 72.5t-56.5 56.5 q0 43 35 74t78 31q55 0 86 -49q27 -41 27 -99q0 -233 -525 -757q-102 -100 -307 -304q-135 -137 -289 -249q129 168 195 645q35 252 72 391q-104 -139 -273 -393q-150 -225 -293 -389q-231 -262 -370 -267q109 90 163 244q37 100 68 291q6 43 57 387q4 35 32 166t28 153 q0 63 -78 99q-57 26 -128 26h-5q-125 0 -216 -82t-91 -204q0 -88 57 -111q33 -14 47 -6q27 9 27 51v6v5q0 43 32 55q8 2 17 2q63 0 63 -90q0 -55 -48 -91t-105 -36q-158 0 -158 198q0 39 16 115q39 182 150 348q168 254 432 365q229 98 561 98q76 0 140 -4q18 -2 262 -39 q-61 365 -310 530q-223 147 -614 148q-406 0 -748 -164q-371 -174 -571 -502q-170 -276 -170 -649zM2 20l4 -8q197 -391 690 -547q164 -51 361 -51q106 0 243 15q735 78 1031 542q124 199 194 422q-299 -213 -706 -358l-201 -72q-104 -37 -215 -63q-244 -59 -529 -60 q-297 0 -612 82q-141 37 -260 98zM182 1157q121 209 461 209q41 0 124 -10t124 -10q31 0 74 8l8 -11q-111 -109 -176 -565q-49 -342 -103 -545q154 160 383 517q244 381 373 526q250 285 250 545q0 37 -6 73q-100 23 -248 39q-55 6 -156 6q-502 0 -819 -297 q-125 -119 -188 -217q-76 -119 -101 -268z" />
<glyph unicode="X" horiz-adv-x="1638" d="M-1270 1599q0 195 53.5 335.5t184.5 275.5q184 190 387 246q91 26 187 26h7q301 0 576 -198q242 -176 407 -463q117 -203 203 -396q18 -41 41 -71q104 3 165 3q30 0 50 -1l51 -2l-2 -8q-176 -6 -176 -97q0 -55 60 -229l82 -238q231 223 374 383q33 37 33 82q0 94 -153 99 l2 8l297 -4l53 4q244 229 528 377q329 170 614 170h25q289 -8 510 -185q238 -190 238 -471q0 -123 -54 -250q209 -311 209 -604q0 -406 -178 -651q-74 -98 -209 -203q-170 -131 -354 -178q-145 -37 -399 -37q-293 0 -598 103q-211 72 -348.5 155.5t-295.5 241.5 q-205 205 -296 422q-39 94 -130 368q-162 -150 -247 -241q-176 -190 -178 -265q0 -66 151 -86v-10q-141 4 -266 4t-230 -4v6q59 10 138 58q109 66 315 270l307 307q-20 53 -61 170q-25 86 -80 258q-66 195 -107 221q-29 18 -90 19q-127 0 -217 -74q-94 -80 -94 -205 q0 -106 72 -106q15 0 37 58q21 56 71 55h4q53 -2 53 -72q0 -57 -55 -98t-114 -41q-129 0 -129 147q0 176 143 281q125 92 311 100q-29 66 -207 371q-184 317 -387 481q-254 205 -569 205q-141 0 -262 -68q-59 -33 -133 -106q-137 -137 -193 -283q-51 -135 -51 -338 q0 -365 219 -692q236 -352 635 -352q186 0 395 84q-4 -6 -16 -17q-180 -104 -436 -104q-395 0 -645 338q-227 307 -228 716zM1016 750l117 -344q82 -240 157 -375q106 -188 273 -299q109 -72 206 -72q27 0 54 6v-4q-68 -18 -111 -18q-76 0 -151 22q166 -117 491 -211 q319 -94 531 -94q231 0 374 37q184 47 338 170q117 94 182.5 186t115.5 231.5t50 370.5q0 254 -194 586q-104 -201 -318 -307q-193 -98 -434 -98q-199 0 -403 86q-113 47 -180 110q274 -180 591 -180q240 0 428 96q207 104 306 307q-88 135 -150 203q-80 90 -197 166 q-166 106 -325 148q-136 36 -325 36h-29q-272 -4 -465 -110q-240 -133 -336 -308.5t-96 -455.5q0 -260 196 -408q162 -123 442 -159q-186 16 -288 53q-145 51 -238 170q-125 160 -125 348q0 285 101.5 459t347.5 313q215 121 473 121q354 0 592 -115q254 -123 446 -405 q47 119 47 235q0 254 -250 434q-227 164 -491 164q-330 0 -791 -280q-55 -33 -295 -213q66 2 109 2l-2 -6q-147 -23 -299 -142q-78 -61 -244 -231q-123 -125 -231 -225z" />
<glyph unicode="Y" horiz-adv-x="1390" d="M-2200 70q0 158 66 338q246 676 987 757q37 4 76 4q188 0 354 -94t258 -256q68 -117 68 -256q0 -197 -115 -334q-123 -145 -315 -145q-193 0 -201 66l4 12q35 -49 227 -49q174 0 279 137q94 127 94 305q0 315 -313 502q-166 98 -350 98q-39 0 -74 -4q-373 -43 -600 -217 t-352 -522q-72 -199 -72 -344q0 -238 145.5 -446t366.5 -306q240 -106 547 -107q145 0 293 25q303 51 540 221q205 147 400 410q41 53 112 137q-63 0 -114 -2v20h90q43 6 78 48l20 24q41 49 121 258l133 346q74 219 74 357q0 84 -39 137q-43 61 -123 61q-162 0 -221 -278 h-19q37 244 191 344q75 49 133 49h4q76 -2 139 -59q102 -92 103 -252q0 -33 -9 -125q331 497 887 497h2q231 0 473 -88q324 -119 457 -346q145 -251 145 -499q0 -61 -12 -132q-25 -137 -59 -219q-90 -209 -293 -362q-186 -141 -422 -205q-80 -22 -227 -22h-13 q-137 0 -260 18q-92 14 -204.5 86t-157.5 149q-98 170 -98 336q0 242 182 410q176 164 420 164q268 0 395 -219q67 -115 67 -240q0 -203 -126 -276l-15 -11q-78 -43 -254 -43l21 13q139 0 209 30q96 41 125 158q14 57 14 119q0 135 -70 250q-76 121 -196 166q-81 30 -177 30 h-6q-225 0 -391 -145.5t-166 -368.5q0 -170 105 -348q43 -72 159.5 -143.5t204.5 -84t219 -12.5q195 0 297 27q559 147 660 719q14 82 14 176q0 606 -559 809q-233 84 -469 84q-166 0 -311 -43h18q76 0 131 -31q66 -39 66 -108q0 -37 -26.5 -64.5t-63.5 -27.5q-55 0 -86 73 q-35 88 -113 88q-139 0 -287 -147q-119 -121 -192 -275q-12 -25 -137 -337q-31 -74 -91 -222q-65 -162 -65 -210q0 -56 59 -76q16 0 97 -4v-23h-13q-14 2 -28 2h-62q-233 0 -342 -86q-25 -20 -55 -59q-39 -49 -51 -62q-285 -299 -453 -411q-256 -172 -586 -201 q-84 -8 -186 -8q-309 0 -543 98q-276 117 -413 354q-133 231 -134 443z" />
<glyph unicode="Z" horiz-adv-x="1269" d="M-2537 25q0 201 96 363.5t272 252.5q154 78 324 78q217 0 375 -117q166 -123 200 -334q8 -49 8 -110q0 -295 -235 -432l-4 6q205 141 205 407q0 55 -11 117q-35 209 -175 332t-351 123q-170 0 -325.5 -83t-245.5 -221.5t-90 -310.5q0 -193 97 -381t255 -290 q150 -96 409 -152q96 -20 193 -21q281 0 678 185q231 109 512 321q129 98 413 344q35 29 246 228q340 317 832 790q-86 2 -131 8q-74 10 -271 109q-184 92 -270 92q-53 0 -86 -32.5t-33 -86.5q0 -61 43 -104q39 -29 78 -59q47 -41 47 -76q0 -31 -24.5 -52.5t-57.5 -21.5 q-66 0 -112 92q-39 78 -39 152q0 57 32 114q72 123 232 123q94 0 219 -32q106 -31 213 -62q156 -45 215 -45q47 0 121 45q12 8 47 29q150 125 293 211q442 266 840 266q201 0 385 -82q217 -96 323 -188q133 -115 210 -292t77 -358q0 -195 -90 -372q-145 -289 -408 -471 q-279 -195 -588 -195q-211 0 -387 57q-252 82 -393 308q-80 129 -84 247v17q0 246 170 385q162 133 426 133q154 0 297 -49l-16 -8q-115 41 -246 41q-252 0 -420 -132q-173 -135 -173 -357q0 -17 1 -34q6 -98 72 -209q51 -86 106 -133q131 -113 324 -176q182 -63 362 -63 q295 0 545 180q229 166 371 444q86 168 86 357q0 176 -78 357t-207 296q-109 96 -311 188q-180 82 -381 82q-379 0 -848 -293q-137 -86 -246 -188q-27 -29 -98 -96q-45 -41 -137 -125l-701 -660q-27 -23 -100 -92q127 -14 301 -229q51 -63 106.5 -159.5t104.5 -166.5 q70 -102 213 -305q109 -147 223 -211q90 -49 193 -49q82 0 153 41q84 47 84 125q0 27 -24 49q-45 39 -45 84q0 78 98 78q49 0 80 -37t31 -88q0 -129 -119 -213q-104 -74 -240 -74h-4q-98 0 -199 41q654 -448 1419 -448h3q571 0 1034 249q475 256 760 740q299 508 299 1069 q0 465 -214 835.5t-620 595.5q-567 315 -1354 316q-827 0 -1493 -332q-420 -209 -673 -438q-240 -215 -516 -619q-152 -221 -273 -495q80 229 242 487q258 414 483 631q528 512 1383 694q424 90 858 90q842 0 1384 -301q414 -229 637 -597.5t223 -837.5q0 -563 -310 -1084.5 t-804 -802.5q-438 -250 -987 -250q-412 0 -819 138q-397 135 -737 383q-219 160 -484 454q-68 76 -164 211q-84 119 -131 168q-94 100 -176 107h-11q-79 0 -161 -78q-381 -362 -850 -610q-524 -279 -893 -279q-279 0 -497 129q-231 137 -330 387q-61 156 -61 318z" />
<glyph unicode="[" horiz-adv-x="733" d="M-41 -293q0 14 250 803l252 795q8 27 31 92q10 27 32 26h283l-4 -8q-158 -10 -207 -112q-25 -51 -47 -129l-39 -134q-43 -139 -156 -503q-57 -180 -204 -652q-18 -59 -19 -88q0 -82 145 -94l-6 -14h-299q-12 0 -12 18z" />
<glyph unicode="\" horiz-adv-x="587" d="M387 1292l23 39l45 -1075q2 -51 22 -385l-28 -21q-14 182 -23 338q-18 301 -39 1104z" />
<glyph unicode="]" horiz-adv-x="647" d="M-127 -313l2 6q135 8 193 84q16 20 36 86q14 45 70 223l199 633q168 545 168 606q0 51 -49 72q-20 6 -95 16l13 12h297q10 -2 10 -12q0 -6 -23 -63q-25 -63 -26 -72q-125 -424 -435 -1425q-4 -10 -32 -113q-6 -18 -23 -43q-10 -10 -47 -10q-74 -2 -258 0z" />
<glyph unicode="^" horiz-adv-x="970" d="M-76 782q0 102 53 193q33 55 123 158q156 176 363 200l59 90h2l56 -90q170 -18 319 -176q168 -178 168 -401q0 -63 -20 -121l28 -45h-49q-47 -86 -121 -131q-82 -51 -172 -35q-102 18 -171.5 101t-69.5 188q0 109 62 191.5t167 82.5q8 0 8 -8q0 -6 -8 -6q-98 0 -158 -84 q-53 -74 -53 -176t83 -180t187 -78q121 0 217 143q-139 209 -419 643l-431 -645h-178l29 43q-74 39 -74 143zM-55 782q0 -96 65 -125l436 654q-188 -29 -331 -193q-84 -96 -117 -151q-53 -90 -53 -185zM596 1311l119 -187q88 -129 313 -462q16 45 16 94q0 211 -163 385 q-137 145 -285 170z" />
<glyph unicode="_" horiz-adv-x="878" d="M-8 -246q-2 4 4 6q154 63 334 70q53 2 139 -6q33 -2 207 -33q162 -27 229 25q10 8 14.5 0.5t4.5 -9.5q0 -6 -37 -36q-55 -33 -107 -33q-14 0 -92 6q-51 4 -182 31q-115 23 -184 22q-125 -2 -168 -6q-74 -8 -154 -39q-6 -2 -8 2z" />
<glyph unicode="`" horiz-adv-x="720" d="M578 1247q0 23 18 43.5t41 20.5q57 0 80 -68l74 -227l4 12l-11 -10q-25 27 -43 45l-120 121q-43 43 -43 63z" />
<glyph unicode="a" horiz-adv-x="821" d="M-686 500q0 156 88 297t227 221q113 65 242 65h4q188 0 270 -141q27 -45 27 -98q0 -57 -31 -111q-33 -59 -84 -78q45 25 73 82.5t28 112.5q0 49 -23 88q-78 133 -266 133q-141 0 -261 -75.5t-196 -202.5q-84 -141 -84 -293q0 -133 62 -236q72 -119 196 -119 q141 0 326 140q145 109 244 243q256 348 426 349q39 0 77 -46l35 35l109 4q-74 -150 -176 -397q-127 -305 -127 -360q0 -23 20 -23q27 0 123 123q8 12 33 43q61 72 86 96q51 53 99 81t112 28q43 0 80 -15q143 -56 143 -234q0 -111 -81 -190t-185 -79q-16 0 -35 2l-25 -13 q18 -4 37 -4q113 0 196 84q79 80 79 187v10q-4 109 -60.5 175.5t-160.5 66.5q-53 0 -87 -19q-102 -59 -212 -207q-166 -221 -252 -221q-37 0 -37 43q0 39 20 115q10 41 62 190q-121 -184 -170 -239q-96 -109 -193 -109h-4q-104 2 -104 109q0 137 114 329 q-258 -303 -508 -303q-131 0 -208 119q-68 104 -68 242zM119 121q0 -66 49 -66q109 0 285 324q165 303 165 426q0 55 -51 55q-84 0 -229 -227q-106 -168 -166 -309q-53 -127 -53 -203z" />
<glyph unicode="b" horiz-adv-x="753" d="M-1468 139q0 25 4 45q0 -115 55 -223q133 -264 526 -278q19 -1 39 -1q220 0 438 105q252 119 367 317q68 115 158 314q-139 23 -214 111.5t-75 228.5q0 96 37 184q98 240 285 346q121 70 256 70q39 0 81 -4q16 -4 33 -4h17q41 0 75 8q-27 -135 -79 -252q-31 -68 -80 -184 q-63 -152 -64 -170q0 -12 17 -9q96 137 221 138q55 0 94 -64q20 -33 20 -84q0 -23 -4 -49q117 123 273 283q-160 -197 -275 -297q-27 -158 -146.5 -340.5t-254.5 -270.5q-90 -59 -191 -59q-92 0 -106 139q-55 -139 -281 -272q-174 -102 -307 -148q-150 -50 -304 -50 q-17 0 -34 1q-403 16 -530 285q-51 109 -51 184zM-127 748q0 -123 67.5 -205t188.5 -105l45 101q25 53 281 688q22 55 22 82q0 33 -47 37q-162 -2 -266 -68q-160 -100 -250 -317q-41 -98 -41 -213zM145 96q0 -78 56 -78q59 0 143 113q129 172 229 436q-158 -96 -315 -131 q-20 -45 -35 -80q-78 -197 -78 -260zM262 449q147 31 316 131q51 132 51 206q0 66 -56 66q-80 0 -188 -168q-70 -109 -123 -235z" />
<glyph unicode="c" horiz-adv-x="634" d="M-535 721q0 96 58 168q63 80 155 80q27 0 43 -4q125 -31 125 -156q0 -98 -120 -133q110 41 110 131q0 31 -8 53q-33 96 -145 96q-88 0 -147.5 -75.5t-59.5 -165.5q0 -141 78.5 -224t220.5 -83q158 0 266 84q72 53 199 180q74 96 190 176q14 10 57 35q129 74 295 104 q35 6 66 6q115 0 211 -51q104 -57 147 -156q29 -65 29 -135q0 -209 -201 -325q-88 -51 -190 -52q-199 0 -287 152q-8 18 -14 66q10 -35 24 -60q88 -147 287 -147q94 0 172 45q199 115 199 319q0 197 -176 285q-94 47 -203 47q-33 0 -68 -6q-195 -35 -309 -115q39 14 78 14 q41 0 74.5 -20t33.5 -59q0 -68 -53 -68q-47 0 -47 47v21q2 14 2 20q0 45 -39 45q-20 0 -57 -24q-98 -66 -201 -328q-96 -248 -96 -387q0 -88 53 -88t133 86q70 76 103 143l12 -8q-47 -90 -115 -160q-86 -90 -164 -90q-68 0 -108.5 48t-40.5 118q0 184 149 424 q-84 -92 -153 -133q-121 -72 -256 -72q-176 0 -256 125q-55 86 -56 207z" />
<glyph unicode="d" horiz-adv-x="888" d="M-166 500q0 88 29 202q70 279 334 476q231 172 462 178q32 1 57 1q50 0 72 -3l197 2l-59 -150h11q283 0 406 -209q99 -164 99 -344q0 -125 -47 -270q-111 -340 -330 -469q-186 -111 -334 -111q-221 0 -307 105q-41 49 -51 92q-7 29 -7 61q0 39 11 82q10 39 43 162 q-207 -305 -338 -305q-100 0 -100 131q0 35 8 74q-78 27 -121 121q-35 80 -35 174zM-152 483q0 -88 31 -157q39 -84 113 -109q20 90 84 207q86 156 200 281q155 167 274 167h1q45 0 90 -49q51 121 111 267q82 201 82 221t-41 30q-23 3 -77 3q-27 0 -61 -1q-236 -6 -467 -180 q-250 -188 -309 -461q-31 -139 -31 -219zM98 109q0 -66 47 -66q41 0 129 94q63 70 107 133q72 104 137 240q84 172 84 258q0 92 -72 92q-88 0 -292 -389q-139 -266 -140 -362zM393 -6q20 -45 45 -74q76 -88 250 -102q14 -1 28 -1q146 0 333 113q236 143 327 467 q41 144 41 273q0 184 -82 321q-121 203 -402 203h-11l-246 -610q-29 -70 -107 -260q-80 -197 -80 -220q0 -20 19 -20q35 0 168 170l6 -4q-53 -76 -133 -152q-100 -96 -152 -96q-8 0 -4 -8z" />
<glyph unicode="e" horiz-adv-x="636" d="M-322 33l17 10q25 -6 49 -6q102 0 191.5 97t113.5 196l2 8h-18q-103 0 -169 64q-72 70 -71 184q0 178 207 301q180 106 371 106q225 0 317 -151q51 -84 51 -168q0 -195 -209 -328q-12 -49 -43 -108q-125 -233 -309 -234q-153 0 -153 178q0 29 4 56q-41 -86 -121 -146 q-85 -65 -171 -65h-3q-29 0 -56 6zM-116.5 421q67.5 -69 173.5 -69q41 119 117 232q-23 -14 -72 -60q43 55 84 80q186 270 336 270q106 0 107 -106q0 -94 -146 -209q53 -74 54 -156q0 -23 -5 -43q193 142 193 322q0 80 -45 156q-88 145 -313 145q-184 0 -355 -98 q-196 -116 -196 -287q0 -108 67.5 -177zM51 338zM158 160q0 -111 82 -111q63 0 139 72q63 59 100 129q27 49 31 86q-12 -12 -72 -29q18 8 60 29q4 4 18 12q6 31 6 60q0 76 -49 143q-84 -78 -256 -164q-59 -121 -59 -227zM211 395q117 60 238 189q-55 51 -133 51h-11 q-59 -123 -94 -240zM309 645h11q79 0 137 -53q106 117 106 199q0 71 -57 71h-2q-86 0 -195 -217z" />
<glyph unicode="f" horiz-adv-x="671" d="M-279 -252q0 49 56 49q20 0 59 -30.5t58 -30.5q25 0 47 18q88 74 258 682q-96 70 -154.5 181.5t-58.5 230.5q0 254 241 393q8 4 15 0q-227 -158 -228 -385q0 -125 74 -254q39 -70 123 -125l59 207q-41 61 -49 133h-57q6 14 16 41h41q14 129 101 166q-78 -45 -91 -166 l86 -4q14 47 48 135q27 72 100 256q51 117 174 198t250 81q195 0 327 -148.5t132 -347.5q0 -291 -269 -504q-70 -55 -157 -102q-170 -92 -338 -96h-20q-138 0 -259 53q-178 -508 -346 -639q-74 -57 -156 -57q-31 0 -56.5 17t-25.5 48zM231 819q8 -61 45 -114l33 112 q-35 2 -78 2zM319 422q158 -60 299 -60h13q176 4 330.5 90.5t252.5 235.5q103 158 103 334q0 193 -123 334q-129 147 -320 147q-72 0 -135 -22q-166 -59 -243 -228l-13 -26q74 98 197 127q35 8 53 8q29 0 57.5 -15.5t28.5 -41.5q0 -49 -47 -50q-20 0 -51 30t-55 30 q-66 0 -138 -203q-14 -39 -73 -256h20q98 0 146 37q20 16 55 80q25 47 69 49h8q54 0 87 -47q30 -42 30 -101q0 -100 -55 -188q-86 -137 -262 -137q-92 0 -178 43l-27 -88q-10 -29 -29 -82zM383 616q92 -41 188 -41q174 0 242 127q33 62 33 134q0 66 -23 114q-28 62 -79 62 h-9q-35 -4 -47 -54q-14 -61 -45 -88q-53 -47 -197 -47q-23 -84 -63 -207z" />
<glyph unicode="g" horiz-adv-x="761" d="M-502 -244q0 258 223 381q119 66 234 66q43 0 88 -10q-27 4 -57 4q-141 0 -252 -62q-201 -113 -201 -364q0 -88 31 -172q82 -223 387 -301q88 -23 186 -23q209 0 383 100q90 53 148.5 153.5t58.5 205.5q0 172 -211 317q63 -51 64 -123q0 -37 -23 -82q-82 -163 -353 -163 h-3q-106 0 -195 32q-117 45 -117 135q0 92 172 173q29 14 95 45q-94 47 -95 104q0 90 162 176q-119 86 -119 209q0 125 101.5 219t226.5 94q102 0 148 -71q27 4 79 36.5t93 34.5h8q47 0 47 -47q0 -29 -25 -37q63 -29 100.5 -96t37.5 -141q0 -111 -66 -222.5t-162 -166.5 q-106 -61 -213 -74q113 -43 189.5 -137t76.5 -209q0 -106 -60 -209.5t-155 -157.5q-211 -121 -436 -121q-90 0 -172 21q-315 78 -395 313q-29 84 -29 170zM-8 -131q0 -88 82 -135q68 -37 162 -37q98 0 174 37q102 49 102 139q0 80 -186 143q-117 39 -146 47 q-88 -39 -125 -69q-63 -53 -63 -125zM135 240q0 -39 90 -72q59 -16 121 -32.5t115 -41.5q254 23 377 230q61 106 61 215q0 145 -121 221q-53 33 -90 37q-13 1 -25 1q-45 0 -73 -18q25 -66 28 -125v-15q0 -119 -94 -211q-100 -97 -231 -97q-8 0 -25.5 5t-27.5 5 q-25 0 -65 -39t-40 -63zM272 347q4 0 9 1q82 8 165 166q74 139 74 227q0 117 -84 117q-88 0 -164 -166q-65 -141 -65 -234q0 -111 65 -111z" />
<glyph unicode="h" horiz-adv-x="829" d="M-1569 178h2q6 0 58 -88q66 -111 192 -215q68 -55 178 -104q119 -51 199 -60q68 -6 143 -6q272 0 492.5 125t355.5 358q45 78 115 283q-199 10 -262 119q-49 84 -49 184q0 190 170 420q127 172 307 172q25 0 72 -6t71 -6h109q10 0 29.5 2t29.5 2q-25 -78 -231 -576 q-10 -29 -76 -192q2 -4 2 -8q8 0 14 10q57 96 142 168q102 90 194 90q60 0 60 -82q0 -59 -52 -193l-75 -194q-16 -39 -58 -150q-10 -27 -26 -94q-4 -29 24 -33h2q32 0 129 136l4 -4l-2 -5q-47 -76 -114 -141q-86 -86 -148 -86q-51 0 -51 47q0 31 49 162q23 55 64 166 q12 35 65 162q43 102 55 166q10 31 11 51q0 39 -33 28q-111 -16 -281 -294q29 4 226 77q-121 -70 -234 -90q-80 -131 -219 -469h-117q-294 -321 -726 -321h-3q-223 0 -379 67q-113 51 -180 107q-129 104 -199 225q-49 84 -49 90zM-133 766q0 -268 305 -285l59 146 q76 184 185 475q37 98 37 139q0 25 -9 45q-35 61 -106 62q-72 0 -161 -51.5t-134 -110t-100 -160.5q-76 -141 -76 -260z" />
<glyph unicode="i" horiz-adv-x="534" d="M23 508q6 66 118 186q12 12 148 125q41 33 84 49q-51 8 -97 45q-48 37 -48 79q0 5 1 9q6 59 84 103q63 37 133 41q-43 25 -43 67q0 37 26 61.5t63 24.5q33 0 54 -24t21 -57q0 -66 -67 -80q-16 -6 -92 -13q-129 -12 -144 -108q-1 -7 -1 -14q0 -42 43 -82q50 -46 104 -46 q47 0 47 -51q0 -29 -76 -217l-102 -254q113 29 210 99q-18 -14 -61 -48q-20 -12 -49 -26q-57 -29 -109 -41l-69 -172q-16 -43 -17 -58q2 -27 19 -26q41 0 176 182l6 -4q-63 -92 -133 -162q-96 -94 -158 -94q-57 0 -57 53t86 254l6 15q-107 24 -107 154q0 15 1 30zM33 504 q-1 -9 0 -18q0 -48 18 -87q27 -55 82 -63q57 123 109 248l57 137q16 39 16 51q0 23 -20 23q-41 0 -145 -111q-63 -68 -74 -82q-41 -51 -43 -98z" />
<glyph unicode="j" horiz-adv-x="520" d="M-1182 584q0 219 70 385q94 223 297 358l12 8q86 57 219 58q227 0 332 -183q57 -100 57 -215q0 -94 -38 -200q-98 -270 -314 -394l-8 -6q-98 -55 -229 -71l24 16q178 20 320 154q127 121 194 303q39 106 39 202q0 113 -53 205q-102 176 -328 176q-119 0 -219 -57 q-188 -109 -293 -356q-69 -164 -69 -379v-6q0 -287 129 -508q236 -406 684 -410h24q91 0 142 14h-19q-29 0 -54.5 17.5t-21.5 46.5q6 47 60 51h6q39 0 63 -24l9 -9q29 -29 47 -28q61 0 127 180q131 356 260 762q6 18 6 57q0 25 -25 25q-43 0 -127 -123q-12 -25 -37 -70 l-18 15q175 296 308 296h1q31 0 51 -38q2 -4 9 -17q39 -74 137 -74q20 0 55 7q131 23 131 206q0 98 -41 168q-49 82 -141 88q-30 2 -52 2t-34 -2q-12 -4 -29 -4q-35 0 -56.5 23.5t-21.5 58.5t25 60.5t59 25.5q33 0 58.5 -27.5t25.5 -60.5t-26 -55q27 5 53 5q13 0 25 -1 q88 -8 137 -92q43 -72 43 -166q0 -84 -37 -150q-41 -76 -117 -88q-25 -4 -55 -4q-98 0 -145 72q-4 -66 -41 -180l-56 -176q-23 -70 -78 -236q-113 -348 -323 -487q-10 -6 -29 -19q-111 -66 -293 -69h-22q-411 0 -658 428q-131 227 -131 512z" />
<glyph unicode="k" horiz-adv-x="800" d="M-553 1247q0 66 2 92q18 256 209 459q197 211 448 211q209 0 375 -123q180 -135 181 -338q0 -115 -37 -198h2q-10 -31 -33 -88l-238 -598q177 200 321 200h1q41 0 70.5 -26.5t29.5 -67.5q0 -121 -282 -332q-51 -37 -177 -114q10 -33 72 -256l80 -289q63 -207 121 -252 q39 -31 84 -31q72 0 102 60q2 2 13 86q6 53 51 53q49 0 49 -51q0 -39 -39 -90q-61 -82 -178 -82q-76 0 -133 36l6 -8q37 -47 76 -86q232 -237 588 -237h3q113 0 238 20q510 82 713 539q76 174 76 344q0 274 -197 440q-110 94 -222 129q-95 30 -220 30q-21 0 -43 -1 q-115 -4 -209 -39l22 16q131 49 215 54q22 1 43 1q124 0 216 -31q108 -36 222 -134q195 -167 195 -439q0 -184 -90 -374q-84 -178 -225 -314q-197 -190 -504 -237q-104 -16 -197 -17q-403 0 -643 238q-113 113 -168 219q-70 135 -143 418q-20 78 -84 258q-45 -102 -123 -299 q-16 2 -68 4q-37 2 -63 -2q18 39 76 168q172 387 403 1008q10 25 15 55q2 12 2 22q0 61 -70 70q-8 2 -31 4l2 6q18 -1 36 -1q36 0 71 3q5 -1 12 -1q20 0 53 5q125 35 125 209q0 201 -178 330q-162 119 -369 119q-250 0 -432 -203q-172 -193 -192 -446q-4 -53 -4 -78 q0 -371 299 -596q179 -135 327 -135h4q-172 8 -358 131t-246 278q-53 141 -53 299zM274 453q16 -43 41 -113q359 204 359 358q0 43 -31 72t-74 29q-61 0 -145 -82q-70 -68 -94 -127q-18 -43 -56 -137z" />
<glyph unicode="l" horiz-adv-x="524" d="M-1196 1372q78 252 387 475q391 283 772 283q276 0 475 -135q227 -154 228 -418q0 -123 -41 -223q-18 -45 -111 -271l-203 -499q-74 -184 -164 -410q-26 -66 -26 -75q0 -24 22 -23q68 0 215 239l4 -4q-72 -111 -108 -157q-121 -152 -219 -152q-14 0 -21 8v-23 q0 -154 49 -280q109 -276 365 -438q246 -156 551 -156q172 0 377 51q213 51 356 132t287 229q172 176 256 381q119 291 119 459q0 145 -78 292.5t-197 237.5q-109 80 -274 115q168 -35 278.5 -114t198.5 -228q96 -162 96 -330q0 -164 -104 -434q-78 -201 -260 -391 q-160 -168 -311.5 -253t-379.5 -137q-188 -43 -348 -43q-324 0 -579 160q-268 166 -383 459q-49 125 -49 270q0 129 49 250l409 1002q18 45 23 69q6 31 -33 41q-25 8 -59 4l4 15h55q10 0 53 24q118 67 118 228q0 13 -1 26q-12 190 -164 330q-176 162 -465 162 q-100 0 -215 -23q-287 -55 -563 -256q-295 -215 -391 -469z" />
<glyph unicode="m" horiz-adv-x="1263" d="M-717 346q61 74 135 117t80 43q-16 -14 -80 -51q-74 -41 -129 -117q-65 -83 -65 -156v-2q0 -137 287 -164q114 -11 213 -10q136 0 247 19l107 286l86 215q74 184 74 209q0 23 -17 27q-4 1 -8 1q-39 0 -102 -97q-33 -51 -76 -129l-2 2q113 287 243 297q25 2 40.5 -16.5 t13.5 -43.5q-4 -90 -90 -301q-10 -27 18 -26q10 0 21 12q27 47 57 92q49 74 104 141q141 174 262 174q72 0 72 -65q0 -55 -57 -234q-18 -35 -39 -96q-2 -10 6 -16q6 -4 18 2q88 150 197 264q137 145 234 145q88 0 88 -133q0 -156 -88 -375q-29 -72 -93 -208 q-92 -203 -92 -410q0 -180 76 -311q125 -217 393 -217q84 0 174 20q311 70 838 596q47 45 172 174q-27 -43 -102 -143q-147 -172 -447 -391q-356 -260 -596 -295q-47 -6 -92 -6q-264 0 -397 229q-66 113 -66 274q0 141 45 287q23 74 105 268q-135 -186 -230 -221 q-16 -6 -51 -6q-37 0 -63 18q-33 20 -33 56q0 65 48 65h1q45 0 45 -47q0 -6 -4 -29q-3 -11 -3 -20q0 -31 34 -31q92 0 213 322q98 262 98 379q0 84 -45 84q-59 0 -111 -56q-233 -254 -473 -731h-115q78 158 173 389q114 283 114 356v1q0 47 -24 53q-4 1 -7 1 q-82 0 -294 -329q-106 -166 -183 -325q-18 -43 -67 -152q-16 6 -43 6h-66q-100 -17 -230 -17q-105 0 -229 11q-294 27 -294 179q0 75 71 163z" />
<glyph unicode="n" horiz-adv-x="940" d="M-905 -18q0 39 6 86q-2 -37 -2 -70q0 -219 164 -363q158 -137 379 -137q362 0 706 240q274 190 428 500q92 184 92 360q0 27 -2 51q-25 -221 -180 -446q-139 -203 -264 -203q-37 0 -63.5 22.5t-26.5 57.5q0 76 61 76q49 0 49 -54q0 -12 -9 -32.5t-9 -28.5q0 -29 35 -29 q102 0 213 355q61 201 61 313q0 45 -20 86q-25 49 -64 49q-106 0 -274 -299q-29 -51 -127 -289l-90 -217q6 0 -115 -2q2 10 10 33l203 547q59 160 59 178q0 31 -24 31q-33 0 -101 -86q-59 -74 -90 -133l-6 2q53 137 195 245q63 49 98 49q47 0 47 -65q0 -74 -59 -240 q-4 -10 4 -14t14 4q180 311 328 311q111 0 145 -155q15 -63 15 -133q0 -182 -78 -338q-152 -305 -414 -492q-362 -258 -708 -282q-23 -2 -45 -2q-204 0 -364 133q-176 147 -177 381z" />
<glyph unicode="o" horiz-adv-x="710" d="M-299 610q0 94 70 195q63 92 151 143q127 74 293 74q266 0 375 -195q33 -59 37 -133q1 -18 1 -34q0 -31 -3 -50q-70 -418 -318 -567q-72 -43 -125 -43q-84 0 -123 90q-28 64 -28 156v6q0 61 10 121q-13 -1 -26 -1q-187 0 -271 111q-43 57 -43 127zM-289 614 q0 -68 37 -118q79 -112 271 -112q13 0 26 1q35 160 156 303q158 186 280 186h4q54 0 84 -30q-111 162 -360 162q-287 0 -432 -207q-66 -92 -66 -185zM109 129q0 -100 67 -117q5 -1 11 -1q52 0 128 122q31 49 91 172q82 168 118 316q25 98 25 149q0 88 -68 88 q-109 0 -291 -450q104 23 281 90q-160 -76 -287 -105q-2 -4 -61 -182q-14 -39 -14 -82z" />
<glyph unicode="p" horiz-adv-x="858" d="M-1665 -135q0 49 6 104q29 260 213 439.5t442 179.5q328 0 527 -269q51 27 115 27q125 0 176 -88q24 -41 24 -88q0 -164 -178 -248v-26q0 -114 -31 -189q57 -18 111 -18q102 0 156 65q10 12 45 70q66 135 149 354l139 361q27 66 95 239q-135 -49 -234 -182l-4 2 q121 164 248 231l67 152q-31 -14 -82 -37q-385 -162 -698 -170h-33q-424 0 -567 246q-27 45 -27 94q0 70 50.5 144.5t109.5 105.5l8 4q143 72 320 72q293 0 383 -154q31 -53 31 -108q0 -78 -52 -127l-34 -21q71 71 71 156q0 53 -24 94q-88 150 -377 150q-311 0 -428 -177 q-45 -68 -45 -137q0 -47 24 -90q125 -216 580 -216q28 0 57 1q322 8 660 147q37 14 80 35l2 2q33 10 94 31q27 8 59 25l-69 -177q135 0 209.5 -83t74.5 -224q0 -172 -86 -315q-88 -152 -241 -213q-82 -33 -140 -33q-63 0 -143 39q-2 -2 -14 -29q-68 -145 -101 -235 q-6 -16 6 -43q18 -43 111 -43l-2 -8q-6 -4 -38 -4q-21 0 -54 2q-133 7 -133 8h2q-6 0 -64 -4q-143 -215 -287 -320q-164 -119 -399 -147q-84 -10 -139 -10q-98 0 -221 38q-152 49 -238 111q-98 70 -172 197q-90 156 -90 307zM-1653 -119q0 -145 77 -284.5t202 -214.5 q86 -51 250 -99q123 -35 215 -35q70 0 161 17q209 37 351 139q133 97 252 283l-21 -2q-20 -2 -76 -9q-20 -2 -41 -2q-48 0 -98 13q-25 -49 -68 -105q-172 -213 -419 -213q-141 0 -308 80q209 -70 302 -70q242 0 415 213q47 59 68 97q-170 47 -246 178q-41 70 -41 149 q0 188 191 299q-199 264 -514 265q-250 0 -436.5 -180.5t-211.5 -432.5q-4 -43 -4 -86zM-655 33q0 -80 41 -152q66 -115 233 -172q31 74 31 182v25q-20 -8 -66 -25l43 27q12 4 23 8q-8 211 -133 381q-172 -94 -172 -274zM-471 313q123 -170 131 -383q70 33 119 99.5 t49 138.5q0 45 -23 84q-47 84 -170 84q-57 0 -106 -23zM168 59q55 -34 105 -34h3q111 0 218 141q161 215 161 440q0 90 -46 154.5t-134 73.5q-100 -256 -307 -775z" />
<glyph unicode="q" horiz-adv-x="782" d="M166 592q147 227 313 274q37 10 53 11q72 0 115 -68q2 -4 6 -4q10 0 35 59q23 -1 43 -1q41 0 72 3q-72 -156 -246 -592q-190 -479 -190 -520q0 -31 26 -47q45 -14 109 -22q57 -7 117 -7q287 0 647 154q141 59 272 164q143 115 215 235q68 115 78 191q2 12 2 24 q0 112 -139 193l28 -4q123 -72 123 -187q0 -14 -2 -28q-25 -213 -276 -434q-127 -111 -262 -168q-227 -96 -400 -129q-118 -22 -242 -22q-86 0 -176 11q-82 10 -202 11q-27 0 -89 -7q-48 -4 -79 -4h-17t-34 3l2 4q117 8 170 94q-81 78 -81 170q0 12 1 24q2 12 6 29 q-68 0 -107 66q-30 51 -30 122q0 185 139 402zM117 96q0 -72 51 -80q49 160 270 293q176 311 176 463q0 84 -65 84q-90 0 -227 -238q-205 -354 -205 -522zM168 -27q-1 -12 -1 -23q0 -83 77 -159q8 14 125 305q-127 -88 -195 -94q-4 -16 -6 -29zM178 16q96 5 248 269 q-201 -131 -248 -269z" />
<glyph unicode="r" horiz-adv-x="751" d="M-1829 41q0 139 121 244q106 92 252 118q-346 -135 -346 -350q0 -84 53 -176q205 -354 774 -354q219 0 424 65q225 70 377 201q164 141 235 270q74 170 230 555q10 29 39 101q8 14 24 69q4 14 -14 23l-18 4q-47 -2 -205 -223l-6 2q59 96 133 176q102 111 164 111 q49 0 49 -66q0 -61 -23 -166q88 125 133 168q72 68 152 68q39 0 66.5 -28t27.5 -67q0 -76 -68 -76q-6 0 -12 1q-29 2 -47 45q-25 55 -70 55q-31 0 -71 -39q-90 -86 -180 -293q-45 -109 -138 -325q-18 -45 -59 -144q-88 -6 -150 -65q-45 -45 -137 -135q-162 -147 -403 -228 q-223 -74 -459 -74q-590 0 -795 353q-53 92 -53 180z" />
<glyph unicode="s" horiz-adv-x="710" d="M-321.5 328q38.5 63 100.5 98q53 31 115 31q47 0 83.5 -24.5t36.5 -70.5q0 -74 -92 -126q-35 -20 -82 -27q23 8 74 33q76 45 76 106q0 20 -10 37q-31 49 -95 49q-47 0 -90 -24q-143 -84 -143 -224q0 -47 24 -88q42 -73 127 -73h2q88 0 177 75q80 68 137 183 q31 63 102 278q43 139 168 490q94 248 225 272q57 10 71 10h3q92 -13 92 -52v-5q-8 -47 -49 -49q-25 -2 -47 26q-39 47 -68 47q-57 0 -116 -176q-31 -111 -62 -219q-14 -47 -47 -174q63 121 180 189q74 43 142 43q84 0 143 -68q39 -46 39 -107q0 -68 -49 -145 q-47 -70 -109 -113q-50 -34 -115 -34h-4q-78 0 -108 57q-12 23 -12 49q0 61 59 105q49 38 108 38h9q-57 -8 -109 -47q-57 -43 -57 -96q0 -20 10 -43q29 -43 78 -43q84 0 157.5 88t73.5 174q0 39 -18 72q-37 68 -111 68q-49 0 -100 -31q-121 -72 -195 -211q-47 -90 -104 -268 q-98 -311 -209 -486q-70 -111 -121 -160q-81 -73 -177 -73h-3q-33 0 -65.5 17.5t-28.5 47.5q8 57 59 58q27 0 66 -33t61 -33q49 0 103 96q25 45 57 131q37 94 82 232q-150 -207 -313 -207q-88 0 -144 94q-26 43 -26 99q0 74 38.5 137z" />
<glyph unicode="t" horiz-adv-x="571" d="M-752 803q0 199 244 330q203 110 416 110h4q322 0 479 -217q47 16 141 51q-25 -55 -77 -182l4 -16l96 2h74l-21 -50q-47 -2 -145 -2v-18q0 -103 -43 -193q-49 -104 -141 -161q-111 -285 -111 -332q0 -18 6 -23q4 -2 9 -2q33 0 104 66q14 14 82 80q1 -1 1 -3 q0 -20 -120 -124q-128 -112 -194 -112q-4 0 -9 1q-4 2 -10 4l-2 -34q0 -157 119 -263q66 -57 137 -82q123 -43 270 -43q211 0 424 84t356 232q260 268 261 561q0 145 -82 260q-119 168 -373 168q-154 0 -309 -59l22 18q168 70 324 70q246 0 368 -174q76 -109 76 -248 q0 -150 -76 -318q-70 -158 -180 -270q-152 -156 -387 -250t-457 -94q-260 0 -400 130q-120 111 -120 293q0 31 4 64q10 92 99 324q-23 -4 -48 -4q-162 0 -245 143q-14 25 -23 49q-90 -20 -172 -20q-258 0 -344 147q-31 53 -31 107zM-725 817q0 -145 162 -209q72 -28 184 -28 h8q76 0 158 14q-10 37 -10 65q0 113 140 113h15h-12q-131 0 -131 -123q0 -25 8 -53q248 47 359 172q39 43 69 109l92 2q18 47 54 139l8 4q-55 68 -150 127q-127 80 -307 80q-203 0 -405 -105q-242 -123 -242 -307zM-195 573q57 -170 265 -170q27 0 51 5q4 8 49 118l123 297 q-23 0 -55 -2q-186 -186 -433 -248zM289 479q160 138 160 338v10h-15q-41 -88 -139 -331z" />
<glyph unicode="u" horiz-adv-x="886" d="M-211 223q76 156 234 357q104 133 217 225q81 67 132 67h1q47 0 47 -73q0 -57 -82 -262q-45 -109 -92 -218q-72 -178 -72 -204q0 -39 35 -39q39 0 123 92q176 195 307 487q16 33 55 121q10 27 41 96q16 -10 60 -14q29 -2 53 2l-205 -477q-104 -244 -104 -283 q0 -20 20 -20q37 0 168 170l4 -2q-57 -90 -125 -154q-90 -86 -157 -86q-18 0 -31 8v-14q0 -88 45 -149q31 -41 117 -105q41 45 147 152q-47 -55 -139 -158l12 -10q152 -127 416 -127q131 0 248 35q193 57 395.5 181t337.5 269q117 127 196 318q102 246 103 479 q0 229 -101 401q-147 252 -387 359q-207 90 -524 90q-72 0 -125 -2q-205 -8 -471 -164q-301 -176 -438 -502l-19 -12q139 334 451 520l10 6q260 156 471 164q53 2 129 2q322 0 529 -94q238 -109 385 -365q106 -184 106 -424q0 -223 -90 -450q-74 -184 -186 -312 q-309 -346 -813 -497q-117 -35 -238 -35q-256 0 -418 131l-8 8q-160 -162 -336 -262q-104 -59 -207 -59q-170 0 -256 135q-71 109 -71 284q0 208 100 414zM-289 -180q0 -45 6 -103q16 -156 80 -225q88 -96 219 -96q98 0 197 57q180 104 338 264q-154 125 -154 281 q0 131 90 324q6 14 13 45q-129 -223 -316 -332q-55 -33 -94 -33q-51 0 -51 76q0 41 84 250l139 346q27 66 27 86q0 31 -27 31q-45 0 -227 -220q-324 -389 -324 -751z" />
<glyph unicode="v" horiz-adv-x="952" d="M-1870 125q0 872 633 1241q299 174 649 174q199 0 414 -67q223 -70 375 -187q129 -98 217 -270q68 -133 94 -326q16 80 71.5 136.5t133.5 56.5q90 0 141 -74q43 -64 43 -158q0 -240 -219 -430q-186 -160 -444 -229q-8 -2 -33 -8q198 254 198 564q0 30 -2 60 q-12 223 -79 330q-41 66 -64 88q-37 37 -92 37q-49 0 -79 -33t-30 -82q0 -66 52 -141l-5 -2q-75 103 -75 178q0 72 48 120t118 48q90 0 137 -35q-166 217 -455 324q-225 84 -467 84q-350 0 -643 -168q-299 -172 -458.5 -477.5t-159.5 -735.5q0 -571 327 -878 q293 -274 713 -275q322 0 653 160q309 147 547 395q-217 -256 -545.5 -411.5t-660.5 -155.5q-440 0 -733 279q-319 303 -320 868zM365 61q419 203 419 557q0 178 -133 179q-137 0 -137 -189q0 -264 -149 -547z" />
<glyph unicode="w" horiz-adv-x="1146" d="M-1825 590q0 354 195 596q260 324 811 366q197 115 473 115q180 0 364 -47q410 -104 629 -471q72 -121 139 -383q90 117 175 117q68 0 102.5 -48t34.5 -118q0 -274 -299 -590q-47 -49 -148 -131q-4 0 -14 -2q4 25 12 78q45 281 45 479q0 37 -2 72q-205 -367 -487 -629h-8 q78 200 78 435q0 25 -1 50q-100 -98 -251 -184q-250 -141 -472 -141q-131 0 -256 51q-240 96 -368 321q-104 180 -105 385q0 190 88.5 356.5t245.5 270.5q-500 -49 -745 -354q-215 -266 -215 -576q0 -111 28 -215q104 -381 445 -573q284 -161 673 -160h46q193 4 350 53 q401 123 741 361q-344 -260 -735 -375q-176 -51 -381 -55h-31q-425 0 -690 161q-344 211 -442 582q-25 92 -25 203zM-1163 920q0 -203 102 -381q127 -223 365 -320q125 -51 252 -51q217 0 473 145q158 90 245 183q-6 117 -43 227q-53 156 -141 156q-43 0 -72.5 -37 t-29.5 -82q0 -74 45 -160q-4 -2 -6 -4q-51 90 -52 170q0 78 47.5 137.5t122.5 59.5q87 -1 150 -101q-16 43 -57 107q-152 244 -340.5 371.5t-470.5 179.5q-110 20 -197 20q-29 0 -55 -2q-160 -100 -249 -264t-89 -354zM-801 1552q7 1 17 0q62 0 219 -22q535 -78 811 -551 q61 -102 80 -170q70 221 233 221q123 0 178 -131q-51 162 -108 250q-238 362 -615 459q-184 47 -370 47q-268 0 -445 -103zM340 793q27 -55 41 -158q14 12 35 31l-33 -50q10 -80 10 -151q0 -184 -33 -281q211 230 326 484q-39 297 -197 297q-119 0 -149 -172zM764 119 q248 255 248 495q0 70 -29 127q-35 70 -96 70q-49 0 -101 -59q18 -127 19 -252q0 -164 -41 -381z" />
<glyph unicode="x" horiz-adv-x="890" d="M-1487 621q0 256 113 475q119 231 330 358q233 141 460 141q115 0 248 -32q141 -37 236 -93q295 -174 432 -507q45 -111 119 -377q4 -14 14 -54q203 342 305 342q68 0 68 -108q0 -72 -41 -156h-2q18 74 18 107q0 86 -74 86q-88 0 -266 -295q8 -16 62 -199 q39 -131 73 -188q12 -20 31 -21q43 0 115 164l6 -2q-70 -184 -205 -256q57 -115 174 -190.5t244 -75.5q162 0 342 123q248 168 248 487q0 233 -142 420q-174 229 -499 229q-184 0 -381 -73q215 94 407 94q305 0 490 -234q147 -186 147 -428q0 -338 -262 -514 q-169 -114 -339 -114h-3q-113 0 -238 49q-250 98 -362 569q-49 -76 -152 -223q-80 -104 -159 -127q-133 -96 -346 -168q-208 -70 -359 -70h-16q-369 10 -602.5 251t-233.5 610zM-1473 618q0 -367 229.5 -601t596.5 -244h17q149 0 349 65q207 68 338 160l6 6q-55 8 -55 96 q0 80 37 168l8 -2q-18 -63 -18 -98q0 -37 24.5 -61.5t61.5 -24.5q76 0 254 291q-18 80 -56 202q-10 39 -34 119q-31 92 -64 92q-31 0 -74 -86q-33 -66 -45 -100l-6 2q100 270 207 270q2 0 8 -2q-166 403 -475 572q-203 110 -454 110h-5q-225 0 -418.5 -117.5t-301.5 -316.5 q-129 -233 -130 -500z" />
<glyph unicode="y" horiz-adv-x="768" d="M-1958 289q0 236 174 506q117 180 330 290.5t432 110.5q338 0 580 -192q262 -209 262 -539q0 -125 -76 -279q-76 -160 -176 -227q104 98 170 231q69 139 69 273q0 332 -260 534q-238 186 -573 187q-358 0 -614 -236q-264 -242 -265 -598q0 -150 41 -258q31 -80 119 -219 q150 -236 383 -350q199 -96 522 -131q57 -6 121 -6q422 0 813 241q27 16 88 76q-51 -25 -92 -25t-72 19q-36 22 -36 59q0 27 19 45.5t44 18.5q23 0 65 -41t66 -41q29 0 74 37q53 61 72 127q14 51 14 145q0 332 -53 606q-8 41 -19 76q-18 63 -53 64q-70 0 -135 -240l-6 2 q55 231 161 293q41 24 61 24h1q55 0 82 -79q68 -205 80 -738q166 315 166 516q0 37 -12.5 112t-12.5 112q0 77 56 77h1q54 0 54 -102q0 -92 -72 -319.5t-244 -538.5q-33 -59 -72 -98q-139 -223 -555 -361q-354 -117 -683 -117h-11q-154 2 -379 91q-164 66 -284 163 q-365 299 -365 699z" />
<glyph unicode="z" horiz-adv-x="765" d="M-1257 49q0 371 226 624t595 310q156 25 301 25q215 0 364 -54q66 -25 197 -75q125 -47 215 -64q25 0 55 16q45 23 54 25q20 0 20 -10q0 -14 -37 -55q-27 -27 -94 -101q301 -10 598 -203q285 -186 440 -456q115 -201 115 -432q0 -242 -127 -398q-133 -164 -369 -182 q-19 -1 -37 -1q-166 0 -337 112q-154 100 -287 274q-43 57 -82 125q-168 -205 -401 -326q-244 -127 -498 -127q-225 0 -432 114t-330 304q-98 154 -135 383q-14 92 -14 172zM-1247 51q0 -86 12 -168q35 -225 135.5 -379.5t292.5 -279.5q211 -137 467 -137q248 0 492 129 q225 119 395 321l-160 238q-96 141 -182 217q-72 63 -129 63q-14 0 -45 -20q-39 -29 -43 -31q-8 2 -8 12q4 6 18 23q215 229 575 641q-158 -6 -297 -74q-4 -51 -59 -51q-14 0 -27 4q-47 -33 -104 -67l-10 -7l-4 9q59 41 108 69q-76 39 -76 150q0 94 86 135q49 24 97 24h4 q53 0 203 -34l-277 98q-145 51 -358 51q-150 0 -318 -26q-358 -57 -573 -303t-215 -607zM150 768q0 -59 36 -82l74 -45q12 -10 14 -25q145 72 310 76l4 4q-39 10 -240 90q-86 35 -135 35q-63 0 -63 -53zM176 168q102 -37 191 -160q43 -61 127 -182q76 -106 141 -174 q108 156 108 540v21q1 -39 1 -77q0 -347 -101 -492q123 -127 236 -127q47 0 88 20q49 27 49 70q0 14 -25 37q-16 18 -16 34q0 57 65 58q76 0 76 -82q0 -74 -86 -125q-76 -45 -153 -45q-131 0 -279 100q-10 -14 -33 -41q35 -59 84 -121q127 -158 289 -253q182 -109 367 -109 q227 0 350 184q104 160 104 398q0 225 -94 387q-156 266 -442 450q-295 190 -594 201q-147 -174 -453 -512zM444 -276l115 -173q11 12 31 39q-74 51 -146 134z" />
<glyph unicode="{" horiz-adv-x="806" d="M51 -174q0 61 23 133l98 311q45 143 45 170q0 98 -162 107q4 8 6 14q145 8 211 84q35 39 74 176q78 264 82 281q63 176 144.5 250.5t310.5 68.5l-4 -8q-219 -14 -291 -246l-127 -403q-49 -158 -230 -197l-6 -24q117 -23 117 -117q0 -59 -57 -244q-39 -121 -78 -243 q-12 -41 -12 -84q0 -143 135 -156v-2l-8 -12q-158 2 -199 20q-72 33 -72 121z" />
<glyph unicode="|" horiz-adv-x="692" d="M381 653q0 236 72 453q45 133 98 252q-92 -385 -92 -658q0 -145 52 -433.5t52 -440.5q0 -76 -6 -158q-14 0 -48 -23.5t-48 -25.5q4 57 4 117q0 154 -42 459t-42 458z" />
<glyph unicode="}" horiz-adv-x="806" d="M53 -317l4 10q219 14 291 244l127 405q49 156 230 197l6 24q-117 23 -117 115q0 61 57 244q39 121 78 243q12 41 12 86q0 78 -30.5 113t-106.5 43l2 2l8 12q156 -4 199 -22q72 -31 72 -119q0 -63 -23 -135l-98 -309q-45 -141 -45 -170q0 -98 162 -109l-2 -2l-5 -10 q-145 -8 -210 -84q-35 -39 -74 -176q-78 -264 -82 -281q-63 -176 -141 -248q-84 -78 -314 -73z" />
<glyph unicode="~" horiz-adv-x="1003" d="M266 1278q121 186 277 186q59 0 172.5 -42t173.5 -42q104 0 194 105l17 -8q-121 -178 -264 -179q-59 0 -182.5 43t-184.5 43q-94 0 -190 -114z" />
<glyph unicode="&#xa1;" horiz-adv-x="489" d="M-193 797q0 70 52 194q2 8 8 4q8 -2 4 -8q-49 -125 -49 -190q0 -152 75.5 -277t208.5 -192l48 127q51 131 98 250l67 167q6 18 27 70l12 -2q-2 -12 -8 -45l-123 -612q96 -23 181 -23q53 0 88 2q344 20 532 301q-29 -16 -65 10q-59 41 -60 179q0 31 31 270q4 37 0 45 q-4 4 -10 4q-10 0 -111 -153q-49 -76 -90 -76q-55 0 -55 104q0 14 8 103q0 4 2 4q4 -2 4 -6q-8 -86 -8 -101q0 -96 47 -96q29 0 74 63q39 70 75.5 124.5t55.5 54.5q39 0 30 -72q-6 -49 -16 -178q-12 -225 64 -226q55 0 77 48q63 135 64 284q0 70 -23 164q-37 154 -170 260.5 t-290 106.5q-66 0 -130 -27q-76 -33 -92 -88h17q27 0 52.5 -32t25.5 -60q0 -39 -31 -65.5t-72 -26.5q-39 0 -63.5 26.5t-24.5 65.5q0 37 25.5 65.5t62.5 30.5q20 59 94 92q63 29 136 29q160 0 295 -108.5t173 -264.5q27 -109 27 -168q0 -289 -187.5 -493.5t-473.5 -221.5 q-35 -2 -88 -2q-88 0 -185 23l-12 -57q-8 -37 -31 -131q-29 -76 -82 -76q-76 0 -75 76q0 49 43 157l30 78q-137 72 -215 207q-74 129 -74 289z" />
<glyph unicode="&#xa2;" horiz-adv-x="614" d="M-106 469q0 150 139 262q133 106 286 107q18 0 37 -2q45 25 93 34l40 125l23 4l-41 -122q8 2 25 4q35 6 67.5 -11.5t32.5 -52.5q0 -47 -41 -49q-10 0 -23 4q160 -112 160 -348q0 -307 -278 -498q-92 -63 -176 -63q-51 0 -93 24h-2q-104 63 -104 207v37q-10 41 -10 88 q0 72 24 166q-35 -18 -67 -18q-43 0 -67.5 29.5t-24.5 72.5zM-94 469q0 -92 80 -92q35 0 71 20l2 13q84 288 279 413h-19q-150 0 -276 -100q-137 -109 -137 -254zM68 68q12 -98 90 -138q12 41 20 66q-57 0 -110 72zM139 143q0 -72 47 -116q81 278 136 458q-86 -55 -148 -129 q-35 -133 -35 -213zM174 -76q41 -16 84 -16q61 0 127 45q285 192 285 471q0 125 -54 225q-59 109 -167 152l-84 -271q88 37 186 37q53 0 86 -8q-16 2 -41 0t-39 -2q-102 0 -201 -51l-149 -481q6 -2 33 6q109 33 196 217q-6 -72 -85 -157t-150 -91zM190 416q66 63 142 100 q47 156 94 291q-23 8 -49 12q-16 -16 -39 -51q-84 -131 -148 -352zM389 831q23 -4 43 -10l12 39q-18 -6 -53 -26zM453 815q34 -15 63 -33q-8 8 -8 25q-2 14 0 20q6 33 -41 33z" />
<glyph unicode="&#xa3;" horiz-adv-x="997" d="M-276 1075q0 209 165 344q154 127 367 127q127 0 238.5 -69.5t169.5 -182.5q117 82 247 82q63 0 121 -30q68 -37 68 -95q0 -49 -58 -49q-20 0 -88.5 70.5t-138.5 70.5q-76 0 -141 -73q35 -80 35 -166q0 -43 -17 -127q18 2 39 2q279 0 494 -252q-213 215 -494 215 q-23 0 -47 -2q-8 -35 -16 -68l10 68q-82 -6 -164 -29q-27 -90 -51 -161q219 0 332 -33q152 -43 245 -179.5t80 -291.5q-18 -227 -209 -375q-180 -139 -413 -139q-74 0 -144 14q-256 53 -358 272q-25 -8 -47 -8q-27 0 -27 25q0 35 43 69q-16 63 -16 132q0 274 188 483 q-414 16 -413 356zM-250 1075q0 -324 412 -332q94 96 219 156q131 287 272 389q-55 109 -164.5 175.5t-232.5 66.5q-203 0 -350 -125q-156 -131 -156 -330zM-14 236q0 -55 12 -107q33 20 84 45q78 88 174 416q-53 0 -150 -2q2 4 13 30q51 0 147 5q21 53 39 96 q-74 -2 -119 -2q-201 -203 -200 -481zM31 37q98 -193 334 -242q39 -8 86 -8q319 0 491 168q68 66 112 167t44 193q0 129 -97 236q-88 98 -217 135q-121 35 -321 35h-8q-18 -51 -37 -98q45 -4 200 -2l-6 -11q-6 -10 -8 -20q-16 0 -48 -2t-48 -2h-107q-78 -180 -223 -387 l98 53q61 33 111 33q72 0 117 -56q23 -29 55 -69q106 -137 178 -137q51 0 96.5 48t45.5 99q0 41 -29 41q-12 0 -32.5 -14.5t-35.5 -14.5q-55 0 -55 58q0 66 61 65q43 0 75 -33.5t32 -76.5q0 -115 -94 -175q-72 -45 -148 -45q-106 0 -214.5 121t-157.5 121q-10 0 -117 -37 q-23 -29 -58.5 -73t-74.5 -70zM215 743q35 2 100 2q21 54 41 101q-78 -43 -141 -103zM526 952q78 20 158 25q14 78 14 127q0 80 -32 156q-76 -94 -140 -308z" />
<glyph unicode="&#xa4;" horiz-adv-x="749" d="M-952 -182q0 180 143 368q133 176 307 258l4 -8q-172 -98 -297 -254q-147 -182 -147 -356q0 -104 51 -193q102 -176 326 -256q186 -66 420 -53q311 14 598 217q195 137 194 283q0 63 -53 129q2 -12 2 -25q0 -68 -55 -129q-49 -53 -119 -84q-86 -37 -189 -37 q-117 0 -204 35q-121 47 -121 137q0 94 172 173q45 20 96 45q-94 49 -94 104q0 90 160 176q-57 25 -90 88q-31 57 -31 123q0 127 104.5 220t233.5 93q88 0 135 -77q25 8 51 24q92 51 125 51q59 0 59 -47q0 -18 -18 -32q297 -61 432 -54q166 8 296 154.5t130 312.5 q0 31 -4 58q-29 188 -266 188q-150 0 -338.5 -72.5t-296.5 -160.5q-45 -41 -133 -121q-72 -63 -137 -64q-10 0 -29 4q-82 18 -82 152q0 27 4 59h2q29 -123 143 -123q68 0 175 74q53 41 161 115q244 150 498 149q256 0 309 -196q11 -37 11 -84q0 -164 -142.5 -306.5 t-308.5 -150.5q-104 -6 -291 29q-201 37 -291 37q-20 0 -49 -15q29 -68 29 -121q0 -129 -99.5 -226t-228.5 -97q-18 0 -55 12q-96 -63 -96 -98q0 -39 100 -78q68 -23 135 -45q186 -61 266 -199q27 -45 27 -90q0 -147 -193 -285q-330 -233 -661 -249q-229 -12 -414 63 q-211 84 -315 264q-51 88 -51 191zM12 -131q0 -90 74 -137q61 -41 158 -41q143 0 235 76q53 43 53 98q0 84 -184 147l-147 51q-90 -39 -127 -69q-61 -51 -62 -125zM231 463q0 -37 22.5 -65.5t57.5 -30.5q84 -4 162 155q70 142 70 232q0 106 -88 106t-162 -164 q-61 -135 -62 -233z" />
<glyph unicode="&#xa5;" horiz-adv-x="641" d="M-213 311q178 295 459 363q152 201 309 200q37 0 70.5 -22.5t33.5 -56.5q0 -57 -49 -58q-35 0 -45 43q4 -14 4 33q0 41 -37 41q-94 0 -184 -164h33q188 0 332 -94q168 -109 168 -287q0 -68 -35 -135q-78 -147 -238 -147q-92 0 -159 43q-12 8 -13 24q0 29 27 29q8 0 16 -4 q61 -39 152 -39q121 0 184 94q37 55 37 121q0 170 -156 283q-139 102 -315 102h-39q-20 -41 -43 -90q10 2 137 -29q-92 23 -141 19q-127 -291 -127 -457q0 -96 61 -96t138 88q53 61 94 143l8 -2q-47 -96 -113 -164q-84 -88 -168 -86q-43 -39 -43 -55q0 -14 21 -21 q51 -16 67 -28q29 -23 29 -68q0 -63 -49 -97t-115 -34q-47 0 -84 14q-51 23 -47 62q-37 10 -67 39q-94 82 -95 266q0 158 111 297q106 133 258 186q29 51 62 95q-270 -70 -441 -355q-2 -4 -6 -2t-2 6zM-150 84q0 -158 82 -229q31 -29 84 -31q39 -2 52 -39q6 -37 22 -37 q29 0 59.5 29.5t30.5 58.5q0 39 -26 55q-31 8 -60 19q-8 2 -8 6t84 88q-127 41 -127 166q0 160 121 379q-133 -57 -223.5 -189.5t-90.5 -275.5z" />
<glyph unicode="&#xa6;" horiz-adv-x="731" d="M31 -16q0 221 131 409q98 141 307 305v658h86v-25q66 70 180 70q98 0 164 -76t66 -176q0 -115 -156 -254q-127 -98 -254 -199v-4h-6q-12 -10 -125 -110q-299 -264 -299 -598q0 -57 22 -144q35 -131 107 -215q88 -102 211 -102q121 0 211 78q8 6 12 6q20 0 21 -21 q0 -8 -9 -14q-102 -88 -235 -88q-147 0 -258 93t-150 239q-27 100 -26 168zM469 303h86v-635h-86v635zM555 764q141 98 276 194q115 82 115 211q0 90 -60.5 156t-150.5 66q-119 0 -180 -74v-553z" />
<glyph unicode="&#xa7;" horiz-adv-x="856" d="M-90 -55q0 68 74 67q53 0 90 -67q51 -94 182 -95q106 0 173 68t67 174q0 127 -127 209q-37 20 -109 66q-125 80 -125 186q0 133 178 225q-96 72 -118 101q-51 61 -52 145q0 106 62.5 194.5t163.5 131.5q4 2 6 -4q2 -4 -2 -7q-84 -35 -144.5 -110.5t-70.5 -163.5 q-12 -94 49 -164q27 -31 139 -108q29 14 82 34l21 13l2 -2h2q-70 63 -95 98q-37 51 -36 113q0 106 92 202q117 123 295 125q76 0 141 -22q90 -33 90 -94q0 -53 -59 -54q-33 0 -74 76q-45 86 -123 86q-102 0 -168.5 -78t-66.5 -182q0 -90 122 -182q53 -39 160 -119 q90 -74 90 -160v-22q55 -63 51 -170q-6 -199 -196 -301q-4 -2 -6 2t2 8q82 41 133 121t55 170q2 86 -45 141q-35 -115 -237 -229l-11 -13q80 -78 80 -157q0 -123 -110 -230q-147 -141 -375 -141q-82 0 -152 22q-100 33 -100 97zM272 625q0 -82 129 -162q29 -19 117 -76 q18 207 -182 373q-63 -61 -64 -135zM362 782q90 -63 148.5 -165.5t58.5 -208.5q0 -25 -2 -48l11 7q100 106 100 190q0 80 -84 154q-25 31 -143 127l-23 -11q-39 -25 -66 -45zM563 358l4 2l-2 -6zM565 354z" />
<glyph unicode="&#xa8;" horiz-adv-x="858" d="M557 1145q0 70 72 69q29 0 49 -21t20 -50q0 -70 -69 -70q-72 0 -72 72zM782 1145q0 70 72 69q29 0 49.5 -21t20.5 -50q0 -70 -70 -70q-72 0 -72 72z" />
<glyph unicode="&#xa9;" horiz-adv-x="1544" d="M25 332q0 170 100 325q16 201 125.5 369t286.5 262q248 406 653 406q170 0 270 -80q111 -90 111 -256q0 -186 -103 -352q53 -121 54 -258q0 -209 -119 -394q76 49 141 109q6 -2 8 -8q-76 -68 -163 -121q-33 -49 -74 -90q-33 -74 -84 -148q-100 -145 -273 -225 q-164 -76 -348 -76q-176 0 -313 72q-150 78 -219 227q-53 115 -53 238zM41 334q0 -141 69.5 -262t192.5 -185q131 -68 299 -67q176 0 338 76q172 80 266 217q20 28 43 67q-219 -190 -491 -190q-268 0 -450.5 180t-182.5 448v13q-84 -145 -84 -297zM156 633 q0 -264 172 -442.5t434 -178.5q301 0 518 221q13 27 23 54q-147 -70 -275 -70q-135 0 -252 59q-39 -10 -90 -10q-119 0 -180 66q-18 -39 -45 -101q-6 -14 -21 -8q-12 6 -6 19q14 33 51 116q-33 55 -32 140q0 63 20 133q-57 145 -57 291q-160 -98 -258 -240q-2 -25 -2 -49z M160 705q100 135 256 229q4 149 100 319q-147 -90 -242.5 -235.5t-113.5 -312.5zM434 932q-2 -133 47 -277l13 29q-18 43 -19 96q1 121 60 207l-68 -37q-10 -6 -33 -18zM436 944q8 6 27 17l88 45q66 82 254 176q4 2 6 -2t-2 -6q-170 -86 -234 -154q186 94 320 94 q45 0 90 -10h4q55 0 131 -39q14 4 47 27l9 -2l-13 -60q123 -68 160 -178q70 67 119 145q-35 82 -96 150q-188 207 -476 207q-168 0 -321 -82q-106 -176 -113 -328zM485 780q0 -45 15 -82q49 113 140 214.5t196 150.5q65 31 112 37q-27 4 -53 4q-135 0 -338 -107 q-72 -88 -72 -217zM569 1305q156 74 324 73q182 0 334.5 -94t230.5 -258q92 156 92 332q0 158 -104 237q-92 74 -254 74q-391 0 -623 -364zM573 510q0 -12 2 -25q42 47 87 84q-43 4 -80 21q-8 -41 -9 -80zM582 438q30 -133 149 -135q-84 53 -149 135zM586 606q41 -20 84 -20 h10q123 98 281 135q53 12 122 12q39 0 76 -8l35 25q80 57 121 94q-35 109 -154 176l-33 -162q-6 -2 -10 -2q-8 227 -119 227q-129 0 -264 -178q-115 -152 -149 -299zM590 453q72 -92 164 -150q176 14 299 260l6 -4h2q-23 -106 -72 -278h-12v2l-2 4l-2 2q-4 27 -19 100 q-88 -84 -161 -108q111 -53 235 -54q129 0 279 74q26 76 26 164q0 197 -192 231q-127 -84 -297 -118q-14 -6 -37 -9q-43 -4 -96 -2q-63 -47 -121 -114zM731 584q147 0 287 59q47 20 102 57q-18 2 -37 2q-184 0 -352 -118zM1178 721q82 -25 131 -86q28 102 12 184l-2 10 q-55 -51 -117 -92zM1317 625q45 -66 45 -160q0 -78 -19 -146l15 9q133 188 133 411q0 131 -41 238q-51 -74 -123 -141q12 -41 12 -82q0 -53 -22 -129zM1337 301l6 6l-4 -2z" />
<glyph unicode="&#xaa;" horiz-adv-x="581" d="M-174 762q0 74 20 139q76 242 304 313q84 27 155 27q215 0 248 -180l2 4h76q-190 -393 -191 -451l4 -12q39 16 107 107l6 -4q-100 -152 -168 -152q-29 0 -29 27q0 29 37 145q-131 -174 -213 -174q-68 0 -67 72q0 111 131 274q135 172 239 172q20 0 52 -22l4 6 q-29 152 -228 151q-78 0 -153 -22q-207 -61 -283 -289q-23 -68 -22 -133q0 -190 134 -330.5t322 -140.5q211 0 346 166q125 154 125 366q0 156 -69 266q-80 127 -226 150q-6 0 -6 2q0 8 17 6q158 -25 239 -149q74 -111 74 -277q0 -86 -18 -164q-41 -172 -173.5 -283.5 t-306.5 -111.5q-203 0 -346 148.5t-143 353.5zM205 614q0 -29 26 -28q70 0 179 186q102 176 102 254q0 31 -29 31q-53 0 -157 -160q-121 -186 -121 -283z" />
<glyph unicode="&#xab;" horiz-adv-x="716" d="M86 549q0 45 168 178q66 51 215 156l6 -6q-166 -166 -276 -324q37 -90 63 -166q16 -47 64 -170l-4 -4q-236 276 -236 336zM340 553q0 41 141 160q14 8 113 80l121 88l6 -7q-156 -154 -275 -325q23 -59 78 -215q10 -33 41 -119l-2 -2q-223 291 -223 340z" />
<glyph unicode="&#xac;" horiz-adv-x="1083" d="M-270 362q0 199 108.5 342.5t298.5 202.5q139 43 234 41q156 -4 274 -67q147 -80 158 -219q4 -63 -21 -125h158v-527q-23 0 -86 -2q-70 -111 -200 -180.5t-261 -69.5q-264 0 -459 168q-205 176 -204 436zM-240 362q0 -240 201 -393q186 -143 432 -143q102 0 205.5 52 t169.5 134q2 47 2 340q0 6 -4 111q-4 2 -16 6h-5q-113 -158 -299 -158q-20 0 -38 2q-4 2 -5 6q0 6 7 5q16 -2 36 -2q178 0 291 149q-12 0 -37.5 2t-37.5 2h-578v62h690q25 64 19 125q-14 129 -160 200q-123 61 -262 58q-104 -2 -226 -39q-180 -53 -282.5 -191.5 t-102.5 -327.5z" />
<glyph unicode="&#xad;" d="M16 481l27 68q18 166 133 203q-104 -61 -123 -179h412l-35 -92h-377q10 -88 75 -170t146 -112q49 -18 121 -19q143 0 265 135.5t122 280.5q0 158 -77 266q-86 123 -238 123q-80 0 -148 -47q-76 -53 -75 -129q0 -86 84 -121q0 -4 -2 -6q-102 27 -103 115q0 96 70 153 q63 53 162 54q158 0 260 -127q96 -121 96 -281q0 -166 -126 -300t-290 -134q-121 0 -202 63q-131 102 -150 256h-27z" />
<glyph unicode="&#xae;" horiz-adv-x="1546" d="M47 748q0 244 260 397q51 31 84 43q217 186 500 186q174 0 322.5 -88t230.5 -242q104 47 223 48q143 0 267 -64.5t202 -181.5q100 -152 100 -367q0 -225 -116 -381q-147 -199 -512 -198q-233 0 -457 206q-188 -117 -408 -116q-236 0 -406.5 148.5t-205.5 379.5 q-84 90 -84 230zM100 754q0 -76 25 -140v7q-1 315 235 538q-119 -59 -189.5 -166.5t-70.5 -238.5zM199 635q0 -72 16 -139q94 -76 221 -97q27 41 43 86l234 613q10 27 10 35q0 33 -49 51q-37 14 -76 14q-70 0 -141 -29q-92 -76 -156 -178q0 -39 21 -63q20 -31 57 -25 q27 4 31 -20q2 -23 -19.5 -36t-44.5 -13q-70 0 -90 71q-57 -131 -57 -270zM233 436q25 -66 66 -121q68 9 117 58q-86 12 -183 63zM303 311q170 -236 475 -235q166 0 316 84q-117 119 -187 260q-168 -53 -348 -49l2 -4q16 -51 117 -52v-6q-131 4 -207 4q-94 0 -168 -2z M553 1235l20 2q106 10 211 0q76 -8 187 -23q88 -18 147 -63q94 -72 94 -170q0 -102 -86 -178q-61 -53 -211 -74q25 -139 82 -272q125 35 236 104q-23 59 -23 129q1 224 183 330q-74 145 -219 227q-137 76 -308 76q-160 0 -313 -88zM555 393q180 -8 344 41q-39 94 -104 291 q-49 6 -99 31l-129 -330q-4 -6 -12 -33zM711 778q74 -20 129 -20q137 0 213 96q57 72 57 158q0 78 -44 131t-120 53q-57 0 -88 -37q-16 -18 -92 -219q-55 -145 -55 -162zM1004 444q57 -127 155 -243q137 96 216 243.5t79 313.5q-96 -127 -203 -193q14 -63 66 -131 q-51 35 -82 121q-131 -78 -231 -111zM1208 145q207 -213 398 -213q63 0 114 27q63 31 64 88q0 10 -10.5 26.5t-10.5 22.5q2 37 35 49q37 12 61.5 -14.5t24.5 -62.5q0 -84 -104 -134q209 31 293 144q114 152 114 375q0 172 -78.5 319.5t-224.5 231.5q-125 72 -258 71 q-94 0 -178 -37q45 -88 61 -186q18 31 27 49q-6 -23 -25 -55q6 -47 7 -94q0 -180 -82 -339t-228 -268zM1235 688q0 -61 14 -117q101 64 205 201q-4 129 -57 240q-162 -98 -162 -324z" />
<glyph unicode="&#xaf;" horiz-adv-x="880" d="M565 1110l31 74h369l-31 -74h-369z" />
<glyph unicode="&#xb0;" horiz-adv-x="618" d="M217 983q0 98 68.5 166t167.5 68q84 0 154.5 -69t70.5 -151q0 -100 -64.5 -169.5t-164.5 -69.5q-92 0 -162 66.5t-70 158.5zM250 991q0 -84 58.5 -143.5t142.5 -59.5q88 0 144 59.5t56 147.5q0 84 -60.5 140.5t-144.5 56.5t-140 -58.5t-56 -142.5z" />
<glyph unicode="&#xb1;" horiz-adv-x="706" d="M0 184l2 25h25q12 225 170 393h-64q4 12 8 27l82 -2q123 117 273 174q29 84 45 139h28q-12 -45 -39 -125q145 47 390 47q68 0 198 -35q6 -2 4 -8t-8 -6q-131 35 -194 35q-242 0 -400 -62q-29 -90 -47 -157h301l-10 -25q-104 -6 -189 -8q145 -35 235.5 -148.5t90.5 -263.5 q0 -272 -196 -403q-117 -78 -244 -78q-143 0 -268 98q-164 129 -166 383h-27zM51 184q2 -236 162 -358q119 -90 248 -90q119 0 231 74q185 120 185 380q0 164 -100.5 277t-262.5 131q-16 0 -51 2q-27 -92 -98 -305h-31q6 18 16 53l78 252q-39 0 -190 2q-84 -82 -144 -221 q-10 -16 -18 -43q-23 -76 -25 -129h590q-6 -6 -14 -25h-576zM266 627q98 0 172 2q14 45 47 143q-109 -51 -219 -145z" />
<glyph unicode="&#xb2;" horiz-adv-x="595" d="M-10 829q129 328 364 400q70 47 156 47q61 0 102 -27q47 -33 47 -90q0 -92 -124 -188q-20 -14 -97 -68q-215 -154 -266 -268h262q57 0 80 51l14 -6l-47 -123h-370l2 4q-4 2 -4 10q8 166 127 258q57 33 165 103l19 16q16 14 65 62q37 47 39 104q2 43 -25.5 77t-70.5 36 q-29 2 -53 -2q-66 -37 -121 -115l-10 6q39 59 92 98q-209 -68 -338 -387q-2 -4 -6 -2t-2 4zM143 629q56 104 181 227q-152 -96 -181 -227zM397 1235q12 2 33 0q45 -2 75 -39t27 -82q-2 -35 -12 -65q43 55 43 104q0 41 -28.5 68.5t-69.5 27.5q-35 0 -68 -14z" />
<glyph unicode="&#xb3;" horiz-adv-x="610" d="M-518 -483q160 -51 262 -52q109 0 227 41q258 90 488 342q209 229 319 508q109 272 109 389q0 74 -23 140q-55 162 -213 162q-41 0 -84 -15q-33 -31 -84 -67q109 -68 109 -162q0 -113 -100 -191q-92 -74 -209 -73q-154 0 -154 77q0 33 39 33q18 0 62 -46t85 -46 q74 0 129 74q53 68 54 143q0 53 -25 92q-31 43 -82 43q-27 0 -88 -16v12q244 96 244 225q0 43 -26.5 74t-69.5 31q-78 0 -191 -131l-8 8q135 164 252 164q102 0 129 -84q20 47 20 90q0 45 -22 82q-76 121 -201 121q-49 0 -102 -19q-221 -76 -361 -292q-2 -4 -6 -3q-4 4 -2 9 q158 246 360 315q47 16 97 16q150 0 223 -143q27 -51 27 -104q0 -55 -29 -111q0 -47 -53 -104q37 10 71 10q170 0 228 -168q26 -78 26 -164q0 -141 -98 -385q-119 -293 -326 -524q-229 -258 -499 -350q-72 -25 -179 -25q-203 0 -325 74z" />
<glyph unicode="&#xb4;" horiz-adv-x="892" d="M672 1030v2l182 232q37 47 74 47q59 -1 59 -56q0 -33 -63 -71z" />
<glyph unicode="&#xb5;" horiz-adv-x="864" d="M-201 -287q0 35 86 154q18 25 58 84q-27 98 -27 209q0 184 84 360q221 465 793 465q6 0 6 -6q-2 -4 -6 -4q-555 0 -777 -463q-82 -172 -82 -352q0 -98 23 -189q70 104 117 256q61 199 172 508q25 -4 61 -4q-10 0 55 2q-180 -578 -180 -618q0 -39 33 -39t100 74 q121 131 217 350q6 14 80 170q6 23 23 67q45 0 104 -4q109 119 254 119q139 0 211 -113q62 -94 62 -241q0 -324 -240 -637q-98 -127 -248 -223q-166 -106 -317 -107q-231 0 -371 154q-78 86 -121 194q-4 -10 -21.5 -52t-47.5 -89q-43 -57 -72 -57t-29 32zM-20 -96 q43 -115 124 -207q133 -150 357 -150q147 0 311 101q147 90 246 219q237 312 237 631q0 139 -59 233q-72 111 -203 111q-143 0 -252 -121l-94 -270q-98 -283 -98 -342q0 -20 22 -21q37 0 146 162l6 -2l-2 -4q-8 -18 -31 -51q-39 -61 -104 -119q-78 -70 -129 -70 q-43 0 -43 47q0 29 24 127l49 197l-90 -137q-88 -133 -207 -209q-49 -31 -90 -31q-29 0 -71 31q-8 -25 -49 -125z" />
<glyph unicode="&#xb6;" horiz-adv-x="954" d="M-143 -59q0 23 17 40t40 17q25 0 51 -37q39 -53 51 -65q33 -31 74 -31q14 0 60 14q70 23 108 76q47 66 127 332l25 82q-35 10 -84 34q-106 53 -170 117q127 -86 262 -123q57 182 112 330q-78 -8 -116 -8q-96 0 -158.5 54t-62.5 149q0 172 123.5 309t293.5 137 q47 0 141.5 -10t141.5 -10q49 0 148.5 16t148.5 16q59 0 117 -20q194 -72 194 -316q0 -113 -41 -225q-84 -231 -287.5 -369.5t-451.5 -138.5q-94 0 -186 23q-207 -508 -508 -508q-53 0 -107 31q-63 35 -63 84zM449 801q0 -57 53 -58q6 0 37 9q90 286 264 577q-6 0 -25.5 4 t-29.5 4q-90 0 -201 -225q-98 -201 -98 -311zM545 360q84 -18 172 -18q238 0 438 129q209 135 287 352q43 121 43 234q0 227 -182 295q-55 20 -119 20q-96 0 -215 -57q-63 -47 -117 -144q-84 -150 -225 -579q-20 -66 -82 -232z" />
<glyph unicode="&#xb7;" horiz-adv-x="399" d="M-276 725q0 379 266 621q127 115 252 160.5t301 47.5q526 8 770 -436q102 -186 102 -424q0 -166 -92 -342q57 158 57 342q0 223 -98 406q-233 432 -739 424q-168 -2 -291 -47t-244 -154q-256 -231 -256 -598q0 -354 256 -571q66 -57 182 -95q111 -35 205 -34 q281 0 488 190.5t207 468.5q0 205 -115 356q-123 166 -322 166q-180 0 -313 -89t-195 -255q-37 -100 -36 -180q0 -68 24 -141q10 66 80 65q78 0 78 -80q0 -33 -22.5 -56.5t-55.5 -23.5q-111 0 -111 197q0 332 232 483q137 90 319 91q201 0 330 -170q117 -156 117 -363 q0 -287 -208 -488.5t-497 -201.5q-100 0 -217 38t-188 99q-266 229 -266 594z" />
<glyph unicode="&#xb8;" horiz-adv-x="575" d="M236 -260q14 -2 28 -2q94 0 94 67q0 49 -59 60l78 125h6l-37 -58q88 -32 88 -98q0 -106 -135 -106q-29 0 -63 10v2z" />
<glyph unicode="&#xb9;" horiz-adv-x="460" d="M-698 571q0 231 157 435q66 299 334 485q252 176 567 176q319 0 480 -188q149 -174 149 -500q0 -414 -303 -746q-141 -156 -330 -245q-195 -94 -397 -94q-279 0 -468 199.5t-189 477.5zM-664 571q0 -264 179.5 -452.5t443.5 -188.5q193 0 383 93q180 88 315 237 q150 164 213 334q91 240 91 385q0 465 -289 602q-139 66 -312 66q-303 0 -550 -164q-262 -174 -336 -457q299 369 690 369q338 0 569 -326q-2 -6 -8 -6q-94 131 -217 207l-186 -553q-33 -96 -33 -117q0 -27 80 -35l-4 -8h-259l3 8q14 2 41 6q39 14 86 152l159 471 q-59 -18 -127 -37v10q115 43 224 111q-147 84 -328 84q-205 0 -400 -121q-180 -111 -305 -291q-8 -51 -8 -104q0 -78 31 -168q6 -20 63 -158q2 -6 -2 -8t-6 4q-96 215 -96 330q0 43 6 86q-111 -168 -111 -361z" />
<glyph unicode="&#xba;" horiz-adv-x="518" d="M-152 731q0 371 238 473q57 25 119 25q57 0 103 -41t46 -98q0 -16 -8 -46q43 25 80 25q88 0 88 -154t-113 -272q-88 -94 -161 -94q-94 0 -95 151q0 121 80 230q115 121 115 168q0 51 -42 77.5t-95 26.5q-59 0 -107 -20q-221 -94 -221 -451q0 -135 90 -252 q98 -125 230 -125q82 0 165.5 51.5t128.5 124.5q109 178 109 363q0 135 -78 244q-88 119 -217 118h-63q-2 -2 -4 2q0 4 4 5q33 6 65 6q152 0 240 -115q80 -102 80 -260q0 -186 -115 -375q-47 -76 -137 -127t-180 -51q-150 -2 -250 123q-94 115 -95 268zM203 623 q0 -57 39 -58q49 0 138 173.5t89 275.5q0 43 -39 43q-59 0 -147 -189q-80 -172 -80 -245z" />
<glyph unicode="&#xbb;" horiz-adv-x="694" d="M0 223q176 172 279 324q-33 102 -127 336q239 -275 239 -332q0 -47 -158 -174q-125 -100 -229 -164zM238 217q170 162 282 330q-33 104 -125 332l15 2q82 -109 131 -174q96 -131 96 -158q0 -47 -164 -176q-106 -82 -229 -164z" />
<glyph unicode="&#xbc;" horiz-adv-x="1019" d="M-795 827q0 340 373 537q303 160 668 160q188 0 360 -101q160 -94 277 -256l35 58l10 -6l-39 -62q174 -246 174 -557q0 -70 -27.5 -168t-64.5 -158h2l-19 -57h-30q-41 -45 -97 -86l-41 -121h-90l72 207h-256l20 55l418 455h84l-155 -453h79q37 55 66 156.5t29 169.5 q0 305 -170 549l-721 -1149l-8 4l342 547q-31 -35 -54 -51q-350 -279 -639 -279q-272 0 -435 167t-163 439zM-762 827q0 -256 153.5 -398t411.5 -142q127 0 318 84q174 78 289 170q231 186 231 370q0 68 -63 129q-2 4 0 9q4 4 8 0q68 -68 67 -138q0 -76 -32 -163l256 409 q-256 356 -631 356q-365 0 -652 -153q-356 -190 -356 -533zM106 557l3 8q14 2 41 6q39 14 86 152l159 471q-59 -18 -127 -37v10q119 45 232 117l10 -8l-188 -559q-33 -96 -33 -117q0 -27 80 -35l-4 -8h-259zM557 274h229l134 394zM838 160q38 28 69 57h-51z" />
<glyph unicode="&#xbd;" horiz-adv-x="1087" d="M-121 643q0 158 119 313.5t270 210.5l232 117l10 -8l-188 -559q-4 -14 -19 -58q-6 -14 -14 -28q-6 -16 0 -31q16 -35 80 -35l-4 -8h-259l3 8q66 0 92 51q12 41 35 107l159 471q-203 -57 -340 -199q-154 -156 -153 -352q0 -74 37.5 -155.5t93.5 -135.5q80 -76 176 -76 q47 0 100 21l582 928l8 -6l-575 -916q78 35 198 111q143 90 195 118q129 70 211 95q-43 84 -137 84q-61 0 -110.5 -43t-53.5 -105l-11 8q14 74 74 121t135 47q49 0 105.5 -25.5t77.5 -66.5q61 10 133 10q117 0 193.5 -63t76.5 -176q0 -59 -22 -119q-61 -166 -238 -293 q-18 -14 -135 -74q-4 0 -4 2q-2 2 0 5q51 25 129 81q170 123 229 285q18 49 19 96q0 100 -76 162q-70 55 -172 55q-66 0 -121 -8v-8q2 -47 -29 -98q-8 -14 -86 -78q-51 -43 -86 -66q-162 -109 -201 -157q-37 -57 -73 -113h262q61 -10 80 49l14 -6l-47 -123l-412 -10 q59 143 148 225q55 51 192 168q37 29 111 90q57 51 47 109q-78 -25 -207 -92q-109 -74 -278 -172q-39 -23 -162 -76l-160 -252l-8 4l151 244q-35 -10 -67 -10q-145 0 -242 133q-88 123 -88 272z" />
<glyph unicode="&#xbe;" horiz-adv-x="1177" d="M-109 1147l3 2q12 57 36 121q45 115 238 231q248 150 547 150q256 0 393 -117q63 -53 100 -160q35 -96 35 -188q0 -100 -29 -209l99 35q4 2 6 -2t-2 -6q-35 -14 -107 -39q-35 -123 -98 -238h80l-129 -377q106 55 223 56q102 0 170 -52q76 -57 76 -157q0 -293 -242 -580 q-178 -211 -358 -309q-201 -109 -459 -109q-170 0 -301 80q-141 88 -182 244q-23 84 -23 198q0 233 146 463q-8 -2 -82 -18q-33 -8 -33 27q0 20 20 26l136 27l14 18q199 256 328 340q106 76 331 215l254 406l11 -6l-246 -392q111 55 340 140q39 115 39 219q0 90 -33 182 q-35 100 -96 154q-129 113 -381 112q-295 0 -539 -145q-180 -109 -229 -227q-12 -29 -37 -117v-66q8 -57 53 -96t103 -39q145 0 327 170q4 4 8 0t0 -8q-190 -174 -335 -174q-63 0 -114.5 41t-57.5 102q-2 2 -3 72zM8 -279q0 -84 27 -186q37 -141 166 -219q119 -72 272 -72 q248 0 440 105q172 94 344 297q228 268 228 551q0 80 -58.5 125t-140.5 45q-125 0 -239 -64l-11 -29h94l-20 -57h-96l-70 -207h-90l70 207q-125 -113 -203 -278q-4 -8 -12 -5q-8 4 -4 13q74 158 182 270h-217l20 55l107 115q-141 -86 -310 -131l-161 -256l-9 4l156 250 l-10 -4q-10 -2 -320 -60q-135 -217 -135 -469zM129 616q0 33 39 33q18 0 62 -46t85 -46q74 0 129 74q53 68 54 143q0 53 -25 92q-31 43 -82 43q-27 0 -88 -16v12q244 96 244 225q0 43 -26.5 74t-69.5 31q-78 0 -191 -131l-8 8q135 164 252 164q55 0 94 -33t39 -86 q0 -84 -154 -192q109 -68 109 -162q0 -113 -100 -191q-92 -74 -209 -73q-154 0 -154 77zM184 252q111 16 330 65l303 486q-104 -57 -239 -156q-41 -27 -144 -102q-82 -66 -250 -293zM528 322q162 49 301 149q249 176 353 483q-231 -84 -346 -143zM715 274h229l133 392 q-98 -150 -219 -236l-2 -2z" />
<glyph unicode="&#xbf;" horiz-adv-x="716" d="M10 279q0 135 127 260q41 41 242 184q106 78 137 106q74 72 74 150q0 53 -38 96t-91 43q-39 0 -70 -25.5t-31 -64.5q0 -43 33 -65q12 -2 17 6q2 4 0 16q-4 29 22 29q37 0 37 -41q0 -49 -55 -49q-78 0 -78 84q0 53 41 89t94 36q90 0 141.5 -64t51.5 -156q0 -123 -136 -231 q-78 -57 -235 -170q-176 -129 -176 -258q0 -88 72.5 -164t158.5 -76q84 0 144.5 53.5t60.5 137.5q0 57 -36 103t-91 46q-23 0 -59 -20q72 -41 71 -94q0 -72 -69 -72q-33 0 -55.5 24.5t-22.5 59.5q0 51 43 83t96 32q66 0 104.5 -47.5t38.5 -112.5q0 -92 -90 -158 q-82 -59 -178 -59q-131 0 -213 78.5t-82 210.5zM184 260q0 129 232 250q287 150 286 399q0 137 -100 205q-6 6 -6 10q131 -90 131 -215q0 -166 -86 -272q-68 -84 -227 -164q-199 -98 -199 -215q0 -16 30.5 -51t39.5 -35q-100 0 -101 88zM504 1296q0 41 29.5 70t70.5 29 q37 0 63.5 -31t26.5 -68q0 -39 -30.5 -65.5t-69.5 -26.5q-90 0 -90 92z" />
<glyph unicode="&#xc0;" horiz-adv-x="2119" d="M-12 741q0 199 108.5 342.5t300.5 202.5q139 43 234 41q154 -4 274 -70q145 -78 156 -217q10 -139 -102.5 -244.5t-253.5 -105.5q-18 0 -37 2q-2 2 -2 6q0 2 2 4q18 -2 37 -2q139 0 245 101q115 104 101 239q-12 129 -158 201q-123 61 -262 57q-106 -2 -225 -38 q-180 -55 -284 -192.5t-104 -326.5q0 -92 33 -176q57 80 152 80q74 0 133 -54t59 -128q0 -39 -22.5 -71t-61.5 -32q-45 0 -45 33q0 12 6.5 36t6.5 36q0 49 -35 79.5t-86 30.5q-57 0 -95 -36q74 -158 246 -250q160 -84 344 -84q174 0 318 127q27 31 86 100q76 94 225 285 q182 229 289 342q334 352 606 352q80 0 168 -29l-4 -8q-31 10 -60 10q-53 0 -112 -41q-23 -16 -47 -36q-31 -35 -70 -138l-354 -923q-39 -102 -39 -133q0 -86 156 -93v-4l-3 -12q-123 4 -170 0q-20 4 -186 0l-188 -4l4 14q156 4 227 160q8 16 39 98l139 363l-80 -4 q-106 -6 -143 8h-154q-102 -152 -213 -289q-20 -25 -47 -55q-260 -291 -559 -291q-225 0 -370 152q-106 113 -107 250q0 66 27 122q-43 100 -43 213zM18 408q0 -160 142 -261q127 -90 291 -90q169 1 321 97q-61 -16 -119 -17q-195 0 -360 96q-174 100 -252 273 q-23 -43 -23 -98zM1343 700h361q55 156 125 330q76 191 172 334q-190 -70 -371 -291q-82 -106 -287 -373zM1880 1677q0 27 19.5 44.5t46.5 17.5q37 0 102 -121q25 -47 72 -139l-2 -2q-33 23 -119 79q-27 14 -73 46t-46 75z" />
<glyph unicode="&#xc1;" horiz-adv-x="2131" d="M4 406q0 98 49 163q55 76 150 76q74 0 133 -54t59 -128q0 -39 -22.5 -71t-61.5 -32q-45 0 -45 33q0 12 6.5 36t6.5 36q0 49 -36 83t-85 34q-70 0 -110 -52.5t-40 -123.5q0 -160 146 -261q127 -90 295 -90q115 0 227 47q-86 215 -86 478q0 315 186 653q123 221 361 344 q221 115 487 115q258 0 485 -107l113 105q47 43 80 43q57 0 57 -62q0 -43 -71 -72l-115 -47q86 -47 186 -120q4 -4 0 -9l-2 -2q-2 0 -4 2q-104 76 -192 123l-162 -67l-2 2l104 96q-229 106 -483 106q-264 0 -479 -114q-225 -121 -348 -344q-160 -289 -160 -645 q0 -240 94 -455q158 82 418 414q240 305 344 424q180 207 303 299q197 150 387 149q78 0 164 -31l-4 -8q-37 14 -64 14q-137 0 -221 -217l-37 -94q424 -35 643 -313q244 -309 244 -637q0 -381 -283 -641q-272 -252 -657 -252q-522 0 -832 244q-172 135 -339 399 q-53 84 -91 168q-104 -39 -219 -39q-227 0 -370 152q-106 113 -107 250zM752 63q35 -72 88 -155q158 -250 323 -377q184 -141 457 -197q162 -33 342 -32q356 0 610 231q262 240 262 592q0 301 -231 594q-211 268 -610 297l-295 -770q-39 -102 -39 -140q0 -84 156 -90l-3 -6 h-542l2 6h18q145 0 213 164q10 25 35 92l141 367h-379q-313 -463 -548 -576zM1350 700h354q37 103 117 312q-270 -43 -471 -312zM1507 920q156 131 338 153q74 170 160 299q-219 -86 -498 -452z" />
<glyph unicode="&#xc2;" horiz-adv-x="2119" d="M-90 1303q0 225 74 438q78 229 223 379q516 532 1184 532q242 0 510 -94t460 -246q371 -288 371 -663q0 -266 -199 -437q-82 -70 -268 -170q301 168 401 416q33 80 33 193q0 379 -340 645q-203 160 -456 252q-260 94 -512 94q-354 0 -643 -143q-258 -127 -525 -402 q-135 -139 -221 -377q-82 -225 -82 -430q0 -78 14 -147q72 -346 222 -496l6 -6q18 4 41 4q68 0 124 -46t66 -112q150 -59 346 -59q221 0 443 158q201 256 325 397q178 201 295 287q188 141 375 141q78 0 164 -31l-4 -8q-37 14 -64 14q-137 0 -221 -217l-354 -923 q-39 -102 -39 -140q0 -84 156 -90l4 -16h-549l2 16h18q102 0 162 82q14 18 45 86q12 23 41 88l141 367h-379q-131 -195 -260 -344q-250 -291 -559 -291q-227 0 -370 152q-106 113 -107 250q0 78 33 139q37 70 104 90q-231 246 -231 668zM8 406q0 -160 146 -261 q127 -90 295 -90q203 0 364 127q76 59 330 357l12 14q-215 -143 -416 -143q-195 0 -344 57v-4q0 -39 -23.5 -71t-60.5 -32q-45 0 -45 33q0 12 6.5 36t6.5 36q0 47 -33 80l-33 24q-27 12 -55 13q-70 0 -110 -52.5t-40 -123.5zM1343 700h361q61 172 125 332q76 193 176 340 q-178 -70 -371 -295q-78 -92 -291 -377zM1774 1479l264 258h110l88 -258l-4 -2l-164 178l-292 -178z" />
<glyph unicode="&#xc3;" horiz-adv-x="2119" d="M-152 219q-2 4 2 8q4 2 9 -2q123 -221 295 -338q158 -106 417 -161q47 -10 150 -11q467 0 760 285h-203l2 12q113 -10 182 109q43 72 164 385q14 37 45 110l-350 19q-45 -47 -141 -178q-84 -115 -146 -174q-145 -141 -248 -199q-141 -80 -305 -80q-211 0 -356 139 q-121 117 -121 260q0 96 54.5 169t144.5 73q74 0 131 -54t57 -128q0 -98 -78 -98q-37 0 -37 26q0 14 4.5 37t4.5 31q0 43 -42 79.5t-85 36.5q-66 0 -103 -52t-37 -120q0 -164 144 -260q125 -86 295 -86q193 0 352 123q115 88 338 371l217 272q135 164 250 279 q-139 227 -363 366q-238 147 -493 148q-236 0 -428 -139q-213 -154 -213 -377q0 -166 141 -275q129 -100 299 -100q53 0 123 8q90 10 123 12q6 0 6 -4q0 -6 -4 -6q-33 -2 -123 -12q-78 -8 -125 -8q-176 0 -307 102q-143 111 -144 283q0 229 218 385q197 141 434 141 q303 0 469 -82q254 -125 426 -405q133 125 237 190q131 80 285 80q88 0 172 -27l-14 -18q-39 14 -74 14q-127 0 -207 -209l-354 -923q-37 -96 -37 -140q0 -84 156 -86l-2 -20h-295q-84 -92 -168 -150q-268 -182 -631 -182q-111 0 -160 10q-258 55 -424 183 q-158 123 -289 358zM1350 698l354 2q13 33 31 86q-25 147 -105 287q-18 -23 -280 -375zM1667 1114q68 -119 100 -244q123 332 236 500q-160 -59 -336 -256zM1796 1532q92 168 186 168q41 0 127 -54.5t109 -54.5q61 0 111 92l4 -2q-78 -180 -183 -180q-31 0 -92 35 q-43 27 -88 53q-33 18 -55 19q-57 0 -115 -80z" />
<glyph unicode="&#xc4;" horiz-adv-x="2117" d="M12 414q25 223 197 223q72 0 130 -53.5t58 -124.5q0 -37 -20.5 -72t-54.5 -35q-33 0 -41 27q-2 8 2 19.5t4 15.5q0 59 -35 108t-92 49q-117 0 -137 -170q-8 -70 47 -157q125 -197 385 -197q209 0 370 133q123 102 322 352q492 623 741 779q141 88 295 88q256 0 305 -201 q13 -51 13 -106q0 -213 -164 -375t-377 -162q-76 0 -127 14l-129 -336q-39 -100 -39 -137q0 -57 68 -78q33 -10 90 -12l-4 -6h-543v6q115 6 172 68q39 43 88 170l147 387q-131 0 -374 -2q-123 -184 -262 -344q-250 -291 -558 -291q-184 0 -313 100q-184 141 -164 320z M1352 690h321q-23 45 -22 101q0 164 186 231q74 187 168 330q-213 -88 -463 -406q-39 -53 -190 -256zM1683 791q0 -29 19 -66l8 -16q10 23 119 295q-145 -72 -146 -213zM1796 1595q0 27 23.5 47.5t50.5 20.5q31 0 59.5 -24.5t28.5 -55.5t-26.5 -54.5t-57.5 -23.5 q-29 0 -53.5 30t-24.5 60zM1843 596q68 -18 117 -18q207 0 362.5 153.5t155.5 360.5q0 154 -80 229q-51 47 -119 47q-109 0 -172 -102q-14 -25 -47 -107l-47 -121q25 -2 79 -26.5t54 -38.5q-4 2 -14 8q-47 35 -123 47zM2109 1602q0 25 21.5 45t46.5 20q35 0 63.5 -22.5 t28.5 -57.5q0 -29 -27.5 -54.5t-56.5 -25.5q-76 0 -76 95z" />
<glyph unicode="&#xc5;" horiz-adv-x="2117" d="M4 406q0 98 49 163q55 76 150 76q74 0 133 -54t59 -128q0 -39 -22.5 -71t-61.5 -32q-45 0 -45 33q0 12 6.5 36t6.5 36q0 49 -36 79.5t-85 30.5q-61 0 -97 -50t-36 -113q0 -68 34 -136q109 -211 387 -210q305 0 549 284q74 86 271 346q166 219 278 338q162 170 283 252 q178 123 348 123q74 0 168 -29l-2 -4l-4 -6q-35 14 -58 14q-113 0 -190 -131q-12 -20 -37 -84l-356 -925q-39 -100 -39 -138q0 -57 67 -77q33 -10 91 -13l-3 -16h-544v12q12 -2 18 -2q109 0 178 115q41 68 111 252l98 262h-373l-38 -59q-61 -86 -121 -166 q-311 -410 -658 -410q-186 0 -325 107q-154 115 -154 295zM1343 700h326q27 0 37 21q37 70 133 317q82 207 158 324q-180 -72 -369 -291q-66 -76 -285 -371zM2009 1614q0 47 37 81t84 34t81 -36t34 -83q0 -49 -35 -83t-84 -34t-84 36t-33 85zM2025 1614q-2 -47 31 -77 t80 -28q68 2 70 86q0 43 -32 77t-75 28q-72 -10 -74 -86z" />
<glyph unicode="&#xc6;" horiz-adv-x="2449" d="M4 410q0 141 98 204q47 31 99 31q78 0 135 -52t57 -130q0 -39 -21.5 -71t-60.5 -32q-41 0 -41 29q0 16 9 39q-2 8 -3 37q0 47 -32.5 81t-79.5 34q-141 0 -141 -166q0 -162 139 -264q127 -92 295 -93q356 0 696 490q51 76 117 158q-197 43 -381 159q-229 145 -230 305 q0 68 40 114t108 46q37 0 84 -24q0 -6 -6 -11q-29 16 -78 17q-115 0 -115 -142q0 -156 234 -286q182 -102 377 -140q348 416 600 555q164 90 342 91q262 0 364 -129q41 -51 41 -117q0 -72 -49 -119t-121 -47q-47 0 -85 28.5t-38 73.5q0 27 18.5 50.5t45.5 23.5q18 0 30 -14 q2 -2 11 -21q16 -37 63 -37q33 0 56.5 22.5t23.5 55.5q0 94 -90 146q-76 43 -176 43q-195 0 -328 -154q-84 -98 -110 -227q-12 -59 -13 -125q0 -37 17 -45q53 31 133 41q57 8 106 -13q57 -27 58 -82q0 -119 -166 -118q-84 0 -197 90q-188 -125 -188 -346q0 -143 71 -234 q80 -100 220 -100q117 0 239 86q111 80 174 190q-12 -82 -139 -198q-172 -158 -377 -158q-139 0 -235 84q-102 86 -103 223q0 221 275 451q-92 -33 -258 -33q-119 0 -179 12q-78 -115 -292 -401q-227 -287 -566 -287q-223 0 -370 154q-106 113 -107 252zM1384 737 q45 -12 136 -12q147 0 297 25q-39 63 -39 151q0 154 114 279q106 114 262 155q-176 -27 -389 -217q-236 -209 -381 -381zM1923 770q55 -84 164 -84q16 0 35 8q53 23 47 66q-6 49 -92 49q-98 0 -154 -39z" />
<glyph unicode="&#xc7;" horiz-adv-x="1552" d="M-590 -760q0 360 285 518q129 72 280 72q203 0 367 -119q27 -18 84 -121q45 -82 96 -82q12 -8 23 -8q55 0 51 82q-4 59 -66 74q-39 8 -38 12q0 10 45 49q25 23 24 39q0 16 -29 19q-188 20 -308 146t-120 315q0 283 175 557q164 258 417 413q272 168 557 168 q190 0 342 -106q29 -20 47 -21q23 0 56 37l12 -6q-90 -221 -154 -410l-12 4q8 47 8 107q0 371 -319 371q-410 0 -746 -525q-215 -336 -215 -624q0 -182 102.5 -291t282.5 -109q186 0 339 97.5t239 265.5q61 121 61 244q0 111 -66.5 186.5t-174.5 75.5q-86 0 -160 -58 q-78 -63 -78 -147q0 -74 53 -74q8 0 22.5 3t22.5 3q27 0 27 -39q0 -35 -27.5 -64.5t-62.5 -29.5q-123 0 -123 144q0 117 107 202q100 82 219 82q131 0 207.5 -80t76.5 -211q0 -291 -311 -505q-174 -121 -379 -121q-88 -68 -88 -78q0 -14 41 -27q61 -18 74 -90 q10 -61 -44 -98t-118 -37q-133 0 -133 76q0 45 55 41q-27 37 -94 114q-154 141 -373 142q-152 0 -278.5 -71t-196 -203t-69.5 -292q0 -166 73 -296q80 -141 226 -203q127 -53 223 -53q111 0 211 67q125 86 161 217q16 59 17 111q0 170 -148 278q-100 74 -194 74 q-31 0 -76 -10q-139 -33 -201 -154q-8 -16 -8 -35q0 -23 14.5 -65.5t14.5 -61.5q0 -35 -43 -49q-35 -12 -57 31q-20 35 -21 72q0 49 35 131q39 94 135 145q88 47 197 47q113 0 229 -88q164 -125 164 -313q0 -61 -21 -131q-43 -147 -182 -236q-104 -66 -215 -65 q-141 0 -274.5 76.5t-200.5 199.5q-74 135 -74 299z" />
<glyph unicode="&#xc8;" horiz-adv-x="1146" d="M-61 1268q0 170 86 322.5t231 240.5q125 76 264 94q-145 -35 -274 -130t-199 -224q-82 -154 -82 -307q0 -203 141 -400q104 -143 222 -202q43 37 96 75q-61 92 -62 185q0 23 3 47q-164 125 -164 295q0 104 56 201.5t146 158.5q137 96 314 96q37 0 76 -4q18 20 45 21 q37 0 67 -47q274 -96 359 -375q28 -94 20 -170q-29 -283 -270 -453q-184 -129 -377 -129q-147 0 -287 60q-86 -109 -86 -256q0 -139 74 -234q80 -104 215 -104q121 0 240 86q109 78 170 192l10 -8q-84 -152 -215 -244q-143 -100 -305 -100q-137 0 -235.5 87t-98.5 222 q0 203 188 379q-119 63 -221 207q-147 205 -147 418zM209 1264q0 -164 158 -287q27 186 208 299q162 100 363 100q115 0 201 -45q105 -55 123 -157q0 160 -95.5 292.5t-246.5 196.5l96 -184l-4 -2l-183 122q-53 37 -53 74q0 16 6 29q-41 6 -82 6q-137 0 -252.5 -65.5 t-183.5 -182.5q-55 -96 -55 -196zM367 643q133 -55 270 -55q188 0 364 123q205 143 248 362q-43 -96 -155 -96q-47 0 -84 24.5t-39 69.5q-86 -131 -242 -172q-117 -31 -227 0v-20q0 -43 20 -93q92 35 160 35q127 0 127 -84q0 -55 -49 -84q-39 -25 -98 -24q-100 0 -216 82 q-45 -31 -79 -68zM504 907q109 -31 223 0q102 27 170 92q20 18 80 99q35 47 76 47q10 0 22 -25q16 -37 64 -37q37 0 61.5 24.5t24.5 61.5q0 86 -88 140q-76 45 -168 45q-178 0 -315.5 -133.5t-149.5 -313.5zM528 764q49 -92 150 -92q98 -1 98 69q0 59 -92 60q-72 0 -156 -37 z" />
<glyph unicode="&#xc9;" horiz-adv-x="1146" d="M119 264q0 256 305 473q-61 92 -62 185q0 205 189 335q170 119 387 119q119 0 213 -55q115 -66 115 -176q0 -70 -52.5 -117t-121.5 -47q-43 0 -82 25.5t-39 66.5q0 27 23.5 47.5t52.5 20.5q10 0 20 -21q20 -39 76 -30q74 12 74 73q0 86 -87 142q-76 49 -167 49 q-178 0 -318.5 -142.5t-140.5 -320.5q0 -49 22 -103q88 35 158 35q129 0 129 -90q0 -55 -53 -84q-43 -25 -103 -24q-84 0 -211 86q-180 -119 -180 -340q0 -139 72 -234q80 -106 213 -106q160 0 309 155q70 74 103 127q215 10 423.5 126t331.5 292q119 168 131 367 q20 322 -237 489q-147 96 -389 94q47 -8 47 -59q0 -43 -72 -74l-235 -98q-14 -6 -50 -23l-4 5l226 206q41 37 69 43q-207 -6 -361.5 -74.5t-295.5 -220.5q-41 -45 -98 -163q-6 -2 -11 4q61 129 131 203q121 131 295 204.5t357 73.5q223 0 397 -113q270 -175 268 -497 q-2 -221 -127 -398q-258 -362 -790 -413q-41 -82 -133 -164q-186 -168 -387 -168q-135 0 -232.5 87t-97.5 222zM532 766q51 -94 146 -94q98 -1 98 69q0 59 -98 60q-66 0 -146 -35z" />
<glyph unicode="&#xca;" horiz-adv-x="1146" d="M-303 326q0 225 102 399q119 199 324 240q4 -4 2 -11q-197 -39 -299 -239q-86 -168 -86 -389q0 -264 178 -418q170 -145 438 -146q274 0 537 134q240 123 438 340q326 356 486 901q41 139 41 276q0 256 -145.5 394.5t-405.5 138.5q-223 0 -408 -119q-238 -154 -364 -373 q-74 -127 -93 -297q78 102 224 164q133 55 272 55q154 0 244 -73q98 -82 98 -232q0 -121 -63 -270q-47 -109 -125 -180q-137 -125 -279 -125q-197 0 -305 176q-29 16 -62 39q-182 -121 -182 -344q0 -139 74 -234q80 -104 215 -104q121 0 240 86q109 78 170 192l10 -8 q-84 -152 -215 -244q-143 -100 -305 -100q-137 0 -235.5 87t-98.5 222q0 256 305 473q-61 92 -62 185q0 96 44 178q8 207 102 368q133 229 375 385q209 135 424 136q279 0 442.5 -165t163.5 -444q0 -127 -39 -260q-96 -330 -178 -497q-109 -219 -310 -439 q-209 -227 -464 -356q-274 -137 -566 -137q-303 0 -481 167t-178 468zM502 879q0 -43 20 -93q92 35 160 35q127 0 127 -84q0 -55 -49 -84q-39 -25 -98 -24q-33 0 -66 8q63 -68 176 -86q27 -4 43 -4q119 0 248 104q72 57 131 178q76 152 68 291q-8 -63 -55.5 -103t-112.5 -40 q-49 0 -86 26.5t-37 73.5q0 29 26.5 48.5t55.5 19.5q10 0 22 -25q16 -37 64 -37q37 0 61.5 25t24.5 61q0 86 -88 140q-76 45 -168 45q-188 0 -327.5 -143.5t-139.5 -331.5zM528 764q49 -92 150 -92q98 -1 98 69q0 59 -92 60q-72 0 -156 -37zM676 1477v2l262 258h111l88 -258 l-4 -2l-164 178z" />
<glyph unicode="&#xcb;" horiz-adv-x="1146" d="M-225 346q-6 164 22.5 284t106.5 261q106 190 264 315v25q0 410 317 663q195 156 494 156q172 0 336 -55q174 -59 293 -170q193 -178 301 -443q106 -254 106 -524q0 -272 -110 -504q-86 -182 -169 -289.5t-237 -238.5q-391 -334 -899 -334q-348 0 -532 168 q-276 252 -293 686zM-164 346q16 -416 277 -651q166 -152 483 -152q219 0 461 97q236 92 407 239q150 127 228 225q90 111 168 273q112 237 112 526q0 260 -92 496q-98 250 -281 418q-242 223 -620 223q-295 0 -487 -154q-313 -250 -314 -655v-19q172 131 398.5 206 t445.5 75q166 0 328 -63q172 -68 274 -185q176 -203 176 -440q0 -256 -166 -453q-176 -209 -426 -192q-152 10 -264 92q-86 -133 -209 -211q-135 -86 -282 -86q-137 0 -235.5 87t-98.5 222q0 256 305 473q-61 92 -62 185q0 209 189 340q168 115 387 114q125 0 217 -53 q109 -66 109 -182q0 -72 -49.5 -118t-120.5 -46q-49 0 -86 26.5t-37 73.5q0 29 26.5 48.5t55.5 19.5q10 0 22 -25q16 -37 64 -37q37 0 61.5 25t24.5 61q0 86 -88 140q-76 45 -168 45q-188 0 -327.5 -143.5t-139.5 -331.5q0 -43 20 -93q92 35 160 35q127 0 127 -84 q0 -55 -49 -84q-39 -25 -98 -24q-100 0 -216 82q-182 -121 -182 -344q0 -139 74 -234q80 -104 215 -104q125 0 240 84q102 76 170 194q145 -96 272 -104q225 -12 387 172q154 176 154 405q0 227 -172 430q-96 115 -265 179q-154 57 -317 57q-500 0 -840 -289q2 -18 8 -55 q-4 -4 -10 -2l-6 49q-111 -96 -199 -244.5t-120 -290.5q-25 -115 -19 -268zM528 764q49 -92 150 -92q98 -1 98 69q0 59 -92 60q-72 0 -156 -37zM680 1595q0 33 24.5 55.5t57.5 22.5t54.5 -23.5t21.5 -56.5t-22.5 -55t-55.5 -22t-56.5 23.5t-23.5 55.5zM995 1595 q0 33 23.5 55.5t56.5 22.5t55.5 -23.5t22.5 -56.5t-23.5 -55t-56.5 -22t-55.5 23.5t-22.5 55.5z" />
<glyph unicode="&#xcc;" horiz-adv-x="1259" d="M-193 -82q-12 154 5 246q39 223 178 364q152 154 370 154q236 0 371 -170l60 137q152 350 352 606q-104 -18 -219 -18q-49 0 -145.5 8t-145.5 8q-115 0 -203 -55q-102 -66 -102 -174q0 -49 32.5 -85t81.5 -36q80 0 80 72q0 6 -2 17.5t-2 17.5q0 35 49 34q31 0 52.5 -22.5 t21.5 -52.5q0 -51 -44 -84t-97 -33q-74 0 -125 52t-51 126q0 98 84 184q143 147 434 148q61 0 219 -8q-12 16 -146 194q-197 262 -456 262q-117 0 -205 -63q-129 -92 -137 -207q-6 -94 53 -154.5t154 -60.5q100 0 167.5 78t67.5 178q10 -27 10 -53q0 -88 -77.5 -152.5 t-167.5 -64.5q-104 0 -169 62.5t-61 166.5q6 135 156 232q133 86 274 86q227 0 383 -179q86 -100 140 -190q27 -47 79 -139q55 -2 99 -2q59 0 155 20l4 -6q-80 -25 -151 -125q61 -47 135 -61q70 61 178 61q121 0 121 -45q0 -49 -223 -49q-18 0 -37 2q-16 -12 -25 -27 q-111 -162 -165 -362l-121 -432q-80 -246 -172 -412q-242 -430 -635 -430q-176 0 -321.5 130t-160.5 306zM-156 -80q12 -158 148.5 -272.5t296.5 -114.5q346 0 577 412q117 207 187 436q33 109 121 389q29 92 67 197q33 92 98 178l7 8q-70 16 -134 57q-59 -90 -129 -266 q-51 -141 -104 -282q-70 -176 -160 -312q23 -68 29 -143q-8 72 -33 139q-102 -152 -237 -246q-156 -111 -318 -110q-106 0 -182 57q-84 63 -84 166q0 86 58.5 147.5t144.5 61.5q47 0 82.5 -30t35.5 -75q0 -84 -77 -84q-45 0 -45 29q0 8 6 27.5t6 29.5q0 57 -70 58 q-59 0 -96 -51.5t-37 -112.5q0 -96 65.5 -146.5t163.5 -50.5q180 0 314 160q86 104 180 320q-137 158 -365 157q-205 0 -348 -149q-131 -135 -166 -346q-14 -84 -2 -238zM1006 1673q0 63 61 64q41 0 74 -64l102 -194l-4 -2l-182 122q-51 35 -51 74zM1454 1167q147 1 145 13 q0 6 -47 6q-53 -2 -98 -19z" />
<glyph unicode="&#xcd;" horiz-adv-x="1306" d="M-113 588q0 444 301 712q4 4 7 0q4 -4 0 -6q-274 -246 -275 -706q0 -229 76 -408q-2 16 -2 33q0 86 58.5 147.5t144.5 61.5q47 0 82.5 -30t35.5 -75q0 -92 -71 -92q-49 0 -49 43q0 8 5 25.5t5 25.5q0 57 -70 58q-59 0 -96 -51.5t-37 -112.5q0 -96 65.5 -146.5 t163.5 -50.5q168 0 297 142q90 100 177 293q25 57 86 198q156 354 352 606q-104 -18 -219 -18q-49 0 -145.5 8t-145.5 8q-96 0 -178 -43q-94 -49 -119 -133q-4 -27 -4 -45q0 -129 110 -129q80 0 80 72q0 6 -4 18q-2 10 0 17q6 35 49 34q31 0 52.5 -22.5t21.5 -52.5 q0 -51 -44 -85t-97 -32q-180 4 -181 207q0 160 84 323q201 391 756 392q465 0 782.5 -332t317.5 -799q0 -569 -410 -903q-317 -260 -766 -275q-514 -16 -788 244q-213 201 -305 393q-102 209 -103 486zM49 72q88 -154 277 -332q252 -238 757 -223q358 10 623 166 q279 166 426 477q111 233 111 483q0 461 -312 787q-315 334 -772 333q-549 0 -745 -387q-55 -109 -74 -264q20 53 68 102q143 147 434 148q63 0 191 -7t192 -7q59 0 155 20l4 -6q-100 -31 -196 -193q-45 -78 -156 -368q-90 -238 -147 -342q-109 -197 -254 -320 q-178 -150 -371 -149q-131 0 -211 82zM1194 1589q0 53 38 91t91 38t91 -38t38 -91t-38 -91t-91 -38t-91 38t-38 91z" />
<glyph unicode="&#xce;" horiz-adv-x="1259" d="M-418 715q0 172 86 284q92 125 258 131q6 0 6 -4q0 -6 -4 -6q-160 -6 -247 -129q-78 -111 -78 -276q0 -158 118.5 -292t276.5 -167q14 72 69.5 119t129.5 47q47 0 82.5 -30t35.5 -75q0 -16 -4 -28q111 37 307 198q100 82 209 244q47 109 154 268q121 184 162 256 q-104 -18 -219 -18q-49 0 -145.5 8t-145.5 8q-115 0 -203 -55q-102 -66 -102 -174q0 -49 32.5 -85t81.5 -36q80 0 80 72q0 6 -2 17.5t-2 17.5q0 35 49 34q31 0 52.5 -22.5t21.5 -52.5q0 -51 -44 -84t-97 -33q-74 0 -125 52t-51 126q0 98 84 184q143 147 434 148q59 0 180 -7 t180 -7q59 82 139 155q-70 147 -157 148q-117 0 -285 -174l-2 2l227 223q-184 63 -266 63q-76 0 -137 -39q-70 -43 -70 -114q0 -154 160 -178q4 0 4 -7q0 -4 -6 -4q-168 27 -168 189q0 76 74 125q63 43 143 43q92 0 287 -60l16 17q27 27 56 26q31 0 61 -75q37 -6 72 -7 q16 0 51 -3t53 -3q59 0 123 6q123 78 199 78q37 0 32 2q25 -6 25 -24q0 -9 -6 -19l-2 -2l-2 -4q-31 -43 -252 -63l-33 -23q-106 -72 -180 -145l2 -2l-6 -2q-61 -61 -111 -129q51 2 137 20l4 -6q-100 -31 -196 -193q-45 -78 -156 -368q-90 -238 -147 -342 q-109 -197 -254 -320q-178 -150 -371 -149q-104 0 -178 53q-84 59 -88 160q-170 37 -291 187.5t-121 324.5zM2 201q6 -90 74 -140q61 -45 155 -45q188 0 330 183q89 114 187 350q-45 -53 -99 -98q-145 -121 -209 -158q-72 -43 -182 -74q-125 -35 -197 -24q-29 0 -59 6z M8 254q61 -10 115 -4q18 2 70 10v2q0 8 6 27.5t6 29.5q0 57 -70 58q-100 0 -127 -123zM1141 1255zM1292 1653q23 -59 56 -144q82 75 174 136q-37 -2 -68 -3q-18 0 -53 3.5t-53 3.5q-27 0 -56 4zM1634 1688q86 12 144 34q16 6 20 13v-2l2 2q-10 2 -24 2q-57 0 -142 -49z" />
<glyph unicode="&#xcf;" horiz-adv-x="1282" d="M-338 113q0 274 156 462q176 215 487 216q190 0 223 -148q6 -29 -14 -74t-45 -65q41 49 41 102q0 84 -61 131q-55 41 -144 41q-285 0 -457 -186t-172 -471q0 -217 105 -367q121 -170 328 -170q152 0 272 62q78 39 227 159q133 106 244 314q59 109 119 258q43 115 129 346 q78 205 162 315q-74 -23 -150 -30l-8 -19q-8 -16 -103 -268q-61 -162 -116 -262q-109 -197 -254 -320q-178 -150 -371 -149q-106 0 -182 57q-84 63 -84 166q0 86 58.5 147.5t144.5 61.5q47 0 82.5 -30t35.5 -75q0 -84 -77 -84q-45 0 -45 29q0 8 6 27.5t6 29.5q0 57 -70 58 q-59 0 -96 -51.5t-37 -112.5q0 -96 65.5 -146.5t163.5 -50.5q168 0 297 142q90 100 177 293q25 57 86 198q90 207 178 355q-203 18 -363 155q-25 23 -86 78q-193 -57 -192 -213q0 -49 32.5 -85t81.5 -36q80 0 80 72q0 6 -2 17.5t-2 17.5q0 35 49 34q31 0 52.5 -22.5 t21.5 -52.5q0 -51 -44 -84t-97 -33q-74 0 -125 52t-51 126q0 145 155 240q-78 55 -151 55q-119 0 -201 -92q-72 -84 -86 -209q0 -6 -6 -4q-4 0 -4 4q14 131 88 217q84 94 209 94q88 0 168 -55q145 82 346 82q63 0 191 -7t192 -7q59 0 155 20l4 -6q-100 -31 -196 -193 q-27 -45 -58 -116q72 14 156 47q37 14 152 63q-125 -100 -228 -354q-59 -154 -178 -461q-106 -270 -129 -313q-88 -174 -229 -283q-158 -123 -236 -153q-117 -47 -329 -48q-215 0 -338 181q-109 158 -109 381zM543 1243l14 -10q16 -16 64 -55q154 -127 372 -136 q66 109 150 213q-104 -18 -219 -18q-49 0 -145.5 8t-145.5 8q-45 0 -90 -10zM956 1595q0 35 24 56.5t58 21.5q33 0 54.5 -23.5t21.5 -56.5t-22.5 -55t-55.5 -22t-56.5 23.5t-23.5 55.5zM1257 1595q0 33 24 55.5t56 22.5q33 0 55.5 -23.5t22.5 -56.5t-22.5 -55t-55.5 -22 q-35 0 -57.5 22.5t-22.5 56.5z" />
<glyph unicode="&#xd0;" horiz-adv-x="1726" d="M-225 1368q0 78 14 160q66 369 381 583q291 197 680 197q117 0 231 -20q307 -55 498 -263q152 -166 152 -354q0 -250 -230 -446q139 -96 203 -252q37 -90 37 -180q0 -227 -139.5 -432t-352.5 -287q-164 -63 -383 -64h-680v6q125 0 183 70q33 37 90 186l157 412 q-37 -4 -73 -4q-184 0 -375 86q-137 63 -215 135q-178 168 -178 467zM-188 1372q0 -295 174 -450q39 -35 155 -105q-37 45 -37 115q0 78 50 155q180 289 747 289q375 0 592 -145q227 192 227 440q0 184 -149 348q-188 205 -492 258q-106 18 -219 19q-381 0 -665 -199 q-307 -213 -371 -575q-12 -70 -12 -150zM143 971q0 -76 64 -76q33 0 76 43q23 0 37 -23.5t14 -46.5q0 -41 -32 -66.5t-73 -25.5h-12q100 -45 189 -57q59 -8 223 -8l178 465q18 46 18 75q0 80 -163 80q-147 0 -273 -55q-139 -63 -207 -180q-39 -68 -39 -125zM571 92 q0 -51 88 -63h125q174 0 293 34q219 66 367 310q137 227 137 469q0 221 -121 352q-170 -125 -352 -125q-82 0 -162 33l-149 -391h370l-8 -27h-373l-194 -508q-20 -53 -21 -84zM950 1110q78 -31 158 -31q178 0 344 121q-117 121 -311 121q-111 0 -156 -119z" />
<glyph unicode="&#xd1;" horiz-adv-x="2639" d="M-817 1432q0 446 342 628q172 92 393 92q203 0 375 -59q127 -47 270 -154q197 -147 324 -362q90 -154 180 -414q115 -330 166 -446q156 -352 270 -520q92 369 170 567q119 301 291 485q119 127 215 127q55 0 90 -41t35 -98q0 -98 -109 -98q-20 0 -20 39q0 70 -64 69 q-86 0 -196 -131q-238 -281 -383 -958q205 -305 446 -484q295 -217 611 -217q193 0 264 105q25 35 24 71q0 23 -22 52l-6 10q-10 12 -10 22q0 57 65 58q35 0 59.5 -26.5t24.5 -61.5q0 -51 -41 -105q-115 -152 -381 -151q-188 0 -379 59q-475 147 -813 641q-256 375 -456 987 q-193 -709 -480 -999q-121 -123 -260 -123q-88 0 -155.5 52t-67.5 138q0 147 108 148q61 0 62 -68q0 -18 -35 -51q-20 -18 -20 -47q0 -53 46 -97t99 -44q217 0 444 508q166 371 228 682q-145 27 -326 26q-328 0 -328 -151q0 -35 24 -59.5t58 -24.5q37 0 64 26l41 56 q8 10 20 10q66 0 66 -68q0 -90 -113 -90q-76 0 -123 47t-47 123q0 111 117 180q78 45 254 56q43 2 270 4q-104 287 -354 495q-152 127 -250 181q-164 90 -371 90q-197 0 -352 -84q-170 -90 -252 -258q-72 -145 -71 -344q0 -160 53 -287q63 -152 188 -215q98 -49 199 -49 q186 0 346 145q-170 -172 -367 -172q-270 0 -389 266q-61 139 -61 312zM1262 1532q90 166 184 166q39 0 123 -53.5t110 -53.5q68 0 117 92h2l4 -2q-16 -37 -53 -102q-63 -82 -141 -82q-39 0 -124 55.5t-110 55.5q-53 0 -108 -80z" />
<glyph unicode="&#xd2;" horiz-adv-x="1484" d="M-223 426q0 375 321 717q301 317 682 416q6 2 4 4q-2 4 -8 2q-102 -27 -270 -111q-174 -84 -252 -147q-207 -166 -328 -377q-133 -233 -133 -477q0 -92 17 -170q61 -295 327 -488q193 -139 447 -139q119 0 268 53q-96 96 -129 260q-84 -20 -166 -20q-205 0 -328 143 q-115 135 -114 344q0 178 94 377q217 459 629 549l4 -8q-268 -82 -465 -535q-129 -293 -129 -512q0 -156 76 -248q82 -100 235 -100q80 0 160 31q-10 55 -10 116q0 262 127 498q-25 -6 -48 -6q-86 0 -133 59.5t-47 147.5q0 203 177.5 387t379.5 184q209 0 291 -211 q119 27 164 21q109 -16 176.5 -88t73.5 -180q4 -68 -45 -213q67 -107 67 -246q0 -178 -125 -416q-98 -188 -251 -307q-174 -133 -369 -133q-176 0 -283 94q-150 -59 -280 -59q-293 0 -461 137q-346 281 -346 651zM647 854q0 -59 27 -104q31 -57 84 -58q33 0 47 29t26 57 q8 20 39 21q39 0 60 -31l4 6q164 246 397 348q-49 201 -248 201q-133 0 -249 -100q-102 -92 -156 -226q-31 -78 -31 -143zM735 106q0 -55 8 -106q244 111 428 451q170 313 170 571q0 41 -6 80q-260 -119 -383 -340l-10 -19q2 -8 2 -16q0 -72 -76 -111q-133 -242 -133 -510z M750 -25q37 -166 133 -254q145 57 258 140q193 139 382 377.5t273 453.5q-76 111 -199 111q-61 0 -122 -29q-53 -279 -254 -502t-471 -297zM881 1673q0 63 61 64q43 0 76 -64l102 -194l-4 -2l-182 122q-53 37 -53 74zM897 -289q96 -78 250 -78q186 0 352 129 q147 115 242 295q121 230 121 402q0 117 -52 209q-111 -291 -369.5 -563.5t-543.5 -393.5zM1464 1145q29 -86 29 -189q0 -74 -10 -147q57 25 114 25q129 0 211 -107q47 127 43 193q-4 96 -69.5 163.5t-161.5 81.5q-45 6 -156 -20z" />
<glyph unicode="&#xd3;" horiz-adv-x="1484" d="M-201 432q0 305 123 543q133 262 391 387q123 59 344 102q-256 -80 -391 -157q-436 -250 -436 -875q0 -188 93 -360t249 -285q211 -154 524 -154q70 0 178 25q229 53 461 250q223 190 326 411q94 203 94 498q0 154 -72 250q-82 109 -229 109h-2q41 -98 41 -220 q0 -264 -135 -496.5t-365 -375.5q-217 -135 -436 -135q-205 0 -328 143q-115 135 -114 344q0 178 94 377q217 459 629 549l4 -8q-268 -82 -465 -535q-129 -293 -129 -512q0 -156 76 -248q82 -100 235 -100q213 0 414 213q160 170 262 408q106 248 106 442q0 72 -20 131 q-264 -84 -377 -434q-39 -121 -156 -121q-86 0 -133 59.5t-47 147.5q0 203 177.5 387t379.5 184q182 0 271 -166q10 2 18 2q162 0 254 -118q84 -109 84 -277q0 -299 -98 -512q-94 -201 -320.5 -410.5t-492.5 -271.5q-109 -25 -185 -24q-567 0 -802 452q-94 180 -95 381z M647 854q0 -59 27 -104q31 -57 84 -58q33 0 47 29t26 57q8 20 39 21q37 0 60 -29q125 332 379 418q-66 135 -226 135q-133 0 -249 -100q-102 -92 -156 -226q-31 -78 -31 -143zM989 1481l228 209q47 43 79 43q56 -1 56 -62q0 -41 -72 -72l-289 -120z" />
<glyph unicode="&#xd4;" horiz-adv-x="1484" d="M-227 633q0 291 397 637q119 102 461 278q-188 -98 -238 -127q-109 -66 -217 -159q-393 -344 -393 -629q0 -260 354 -359q-23 78 -22 162q0 178 94 377q217 459 629 549l4 -8q-209 -63 -379 -361q-96 -170 -156 -354q59 80 154 158q35 29 164 123q49 174 202 311 q164 145 338 145q106 0 183 -59q154 53 294 53q119 0 207 -47q111 -57 111 -166q0 -150 -229 -366q-168 -158 -336 -261q-137 -283 -402 -446q-217 -135 -436 -135q-147 0 -257 81t-157 222q-371 106 -370 381zM248 307q0 -31 2 -59q86 -12 170 -12q326 0 745 204 q176 318 176 582q0 154 -81 235q-27 -12 -148 -67q-254 -119 -438 -268l-23 -19q-4 -25 -4 -49q0 -59 27 -104q31 -57 84 -58q33 0 47 29t26 57q8 20 39 21q31 0 52.5 -20.5t21.5 -51.5q0 -57 -48 -93t-108 -36q-86 0 -133 59.5t-47 147.5q0 35 6 72q-98 -76 -147 -117 q-125 -106 -180 -193q-39 -147 -39 -260zM252 227q43 -268 307 -268q174 0 342 143q134 115 240 295q-395 -184 -721 -184q-82 0 -168 14zM662 946q238 174 440 266q39 17 137 62q-63 49 -156 49q-145 0 -268 -119q-111 -109 -153 -258zM807 1479l264 258h111l88 -258l-6 -2 l-162 178l-293 -178zM1370 1298q123 -115 123 -342q0 -193 -78 -378q186 117 326 241q211 190 211 326q-1 72 -62 125q-88 78 -245 78q-129 0 -275 -50z" />
<glyph unicode="&#xd5;" horiz-adv-x="1484" d="M115 440q0 150 63 303q-16 66 -16 134q0 199 108.5 344t298.5 202q135 41 234 39q184 -4 309 -90q27 4 53 4q164 0 252 -133q76 -115 76 -287q0 -262 -136 -496.5t-364 -375.5q-217 -135 -440 -135q-205 0 -326 145q-113 137 -112 346zM193 877q0 -43 6 -82l6 12 q113 225 252 354q172 160 381 201l4 -8q-215 -63 -391 -385q-104 -188 -160 -383q90 -119 237 -185q141 -61 297 -61q119 0 237 64.5t169 164.5q110 215 110 453q0 215 -151 276q39 -57 45 -122q10 -139 -103.5 -245t-254.5 -106q-18 0 -37 4q-4 0 -4 5q0 6 6 4q16 -2 35 -2 q137 0 249.5 102t98.5 238q-8 74 -62 131q-37 10 -82 10q-129 0 -245 -98q-104 -90 -156 -220q-31 -78 -31 -141q0 -59 25 -106q29 -57 82 -58q35 0 51 27q2 4 22 57q8 20 41 21q27 0 51.5 -20.5t24.5 -47.5q0 -55 -50 -94t-108 -39q-80 0 -131 66q-49 59 -49 141 q0 182 150 356q145 168 327 207q-125 70 -282 66q-106 -2 -225 -39q-180 -55 -282.5 -192.5t-102.5 -325.5zM248 317q0 -160 76 -254q82 -102 239 -102q301 1 557 404q-143 -92 -295 -93q-160 0 -306 69t-243 194q-29 -123 -28 -218zM829 1532q90 166 185 168q4 2 8 2 q41 0 126 -53.5t105 -53.5q61 0 107 88l6 -2q-78 -180 -182 -180q-31 0 -92 35q-43 27 -88 53q-33 18 -56 19q-59 0 -114 -80z" />
<glyph unicode="&#xd6;" horiz-adv-x="1484" d="M125 416q0 74 31 194q10 43 77 209q53 133 140 242q-29 92 -11 205q33 211 199 313q143 92 369 92q147 0 252 -35q23 37 67 37q33 0 54.5 -23.5t21.5 -56.5q0 -14 -4 -26q119 -90 106 -221q-4 -2 -8 0q12 125 -102 213q-20 -43 -76 -43q-72 0 -72 73q0 23 9 41 q-84 27 -207 33q41 -18 41 -92q0 -18 -28 -36.5t-48 -18.5q-33 0 -59.5 20t-26.5 53q0 53 45 76q-195 -8 -326 -112.5t-161 -292.5q-12 -82 6 -152q90 123 260 209t323 86q82 0 140 -29q14 2 28 2q92 0 176 -59q156 -109 156 -371q0 -195 -107.5 -419t-332.5 -394 q-244 -184 -479 -184q-211 0 -332 127t-121 340zM252 328q0 -139 84 -246q90 -117 225 -117q215 0 414 211q158 166 262 410.5t104 437.5q0 170 -108 248q25 -61 10 -150q-20 -131 -103 -225t-210 -129q14 -18 14 -41q0 -57 -48 -93t-108 -36q-115 0 -165 119q-18 43 -15 92 q-6 2 -39 20q-76 41 -127 105q-190 -348 -190 -606zM473 985l2 -4q49 -63 119 -102l18 -11q18 121 117 252q94 125 207 191q88 51 184 61q-61 27 -125 27q-281 0 -522 -414zM655 860q0 -8 2 -16q76 -39 172 -39q152 0 263.5 86t136.5 233q14 92 -17 162q-59 35 -127 35 q-125 0 -243 -104q-104 -92 -156 -220q-31 -76 -31 -137zM670 780q29 -84 92 -84q43 1 57 58q-82 0 -149 26z" />
<glyph unicode="&#xd8;" horiz-adv-x="1488" d="M-37 -47q0 16 96 96q57 47 119 96q-27 49 -45 99q-121 119 -121 358q0 256 89 441.5t290 342.5q250 195 596 195q178 0 375 -51q4 -2 2 -6q0 -4 -6 -4q-188 51 -361 51q-340 0 -583 -193q-197 -156 -282 -339t-85 -437q0 -131 62 -260q-8 47 -9 94q0 266 187 543 q90 135 235 242q160 119 303 139l2 -6q-264 -86 -458 -523q-127 -287 -127 -495q0 -55 12 -125l2 -2l469 393q-131 57 -131 203q0 201 178 385t379 184q182 0 281 -178q70 57 202 170l8 -6l-204 -180q43 -106 43 -217q0 -326 -203 -603.5t-512 -375.5q25 -47 80 -78t110 -31 q109 0 240 68q115 61 203 147q328 326 327 799q0 168 -77 350q2 4 4 4q104 -200 104 -360q0 -252 -76 -439q-72 -170 -243 -372q-80 -94 -220.5 -161t-261.5 -67q-66 0 -127 37t-88 96q-100 -29 -198 -28q-225 0 -357 184q-74 -63 -223 -188v8zM266 164q72 -201 283 -201 q92 0 182 39q-6 25 -6 49q0 140 80 283q-209 -190 -404 -191q-72 0 -135 21zM270 203q63 -25 131 -25q164 0 304 115q29 25 243 221q6 6 13 6q18 0 18 -18q0 -8 -6 -13q-29 -25 -129 -118q-94 -154 -94 -320q0 -18 4 -37q221 109 397 420q172 303 172 563q0 41 -6 86 l-391 -331q4 -18 4 -27q0 -53 -47 -90t-103 -37q-12 0 -37 2q-86 -74 -473 -397zM633 854q0 -59 26 -104q31 -57 84 -58q45 0 57.5 41t16.5 45q12 20 39 21q31 0 62 -31q84 66 401 332q-12 68 -29 96q-66 125 -219 125q-135 0 -250 -100q-102 -88 -155 -224 q-33 -84 -33 -143z" />
<glyph unicode="&#xd9;" horiz-adv-x="1783" d="M-168 1059q0 141 170 299q139 129 371 129q123 0 282 -49q16 -4 207 -97q76 2 146 19l4 2h4q4 0 4 -4q0 -8 -51 -74q51 -29 94 -39q176 178 317 178h2q14 -4 35 -18q4 -14 4 -29q0 -68 -104 -125q-92 -51 -158 -51q-51 0 -96 10l-12 -12q-98 -98 -160 -276 q-57 -166 -53 -316q4 -113 61 -194q68 -96 174 -97q92 0 213 56q33 76 82 221q131 383 246 614q53 106 104 131q43 20 254 19v-8q-121 -8 -209 -142q-33 -53 -114 -241q-102 -240 -172 -471q18 8 47 30q131 139 159 267q6 23 9 24q4 2 4 -10q0 -14 -4 -35 q-37 -182 -131 -283q-35 -37 -115 -100q-43 -162 -43 -231q0 -117 94 -117q88 0 152 94l6 -6q-88 -164 -236 -164q-76 0 -121 49t-45 127q0 35 15 150h-2q-213 -332 -484 -332q-172 0 -277.5 106.5t-105.5 278.5q0 369 363 737q70 70 145 150q-76 -12 -121 -12 q-74 0 -222 23.5t-222 23.5q-90 0 -152 -35q-74 -45 -73 -129q0 -37 24.5 -61.5t61.5 -24.5q23 0 65 33q4 2 6 2q31 0 37 -50q25 55 35 113q0 6 6 4q4 0 4 -6q-20 -123 -94 -211q-84 -100 -201 -100q-109 0 -170 78q-59 72 -59 182zM-139 1059q0 -43 16 -94 q45 -141 184 -142q113 0 195 95q-14 -4 -29 -5q-59 0 -94 56q-29 47 -29 108q0 104 89 191q111 109 286 108q59 0 160 -14q115 -17 160 -19q-47 31 -150 78q-174 55 -276 56q-193 0 -344 -111q-168 -121 -168 -307zM565 430q0 -158 84 -260q90 -111 246 -111q221 1 346 222 q-96 -33 -168 -33q-131 0 -215 117q-74 102 -78 239q-4 152 69 326t183 284l4 5q-39 12 -88 38q-18 -20 -55 -67q-125 -158 -195 -289q-133 -248 -133 -471zM1090 1239q33 -6 69 -6q68 0 154 41q100 49 100 110q0 25 -33 27q-119 4 -290 -172zM1184 1673q0 63 61 64 q43 0 76 -64l102 -194l-4 -2l-182 122q-53 37 -53 74z" />
<glyph unicode="&#xda;" horiz-adv-x="1783" d="M104 1077q0 104 89 191q111 109 286 108q61 0 181 -17.5t182 -17.5q86 0 164 19q176 225 479 299l33 31q45 43 81 43q55 0 56 -60q281 0 438 -98q221 -137 334 -369q108 -217 108 -487q0 -258 -96 -510q-160 -418 -541 -645q-358 -215 -823 -215q-412 0 -696 284 q-115 115 -180 275q-92 221 -82 407q16 334 245 545q68 63 197 129q82 43 176 62l27 28q39 39 145 150q-76 -12 -121 -12q-74 0 -222 23.5t-222 23.5q-90 0 -152 -35q-74 -45 -73 -129q0 -37 24.5 -61.5t61.5 -24.5q23 0 65 33q4 2 6 2q37 0 37 -56q0 -35 -24.5 -57.5 t-59.5 -22.5q-59 0 -94 56q-29 47 -29 108zM158 315q-8 -176 80 -391q61 -150 172 -260q258 -256 665 -256q436 0 789 209q377 221 524 612q102 271 102 535q0 539 -407 790q-172 106 -430 109q-6 -37 -70 -64l-289 -120l-2 2l178 164q-281 -80 -507 -369q-57 -70 -166 -215 q61 6 149 6q125 0 250 -49q139 -53 207 -144q23 -29 41 -65q84 221 170 397q51 106 104 131q43 20 254 19v-8q-88 -6 -151 -70q-129 -127 -314 -686q2 -14 2 -29q0 -168 -94 -301q-12 -68 -12 -106q0 -117 94 -117q88 0 152 94l6 -6q-88 -164 -236 -164q-152 0 -166 158 q-74 -37 -157 -41q-139 -123 -314 -123q-172 0 -277.5 106.5t-105.5 278.5q0 340 293 664q-70 -20 -119 -48q-125 -66 -188 -122q-213 -197 -227 -521zM565 430q0 -158 84 -260q90 -111 246 -111q66 0 127 23q-209 29 -209 254q0 88 66 196q6 2 12 0q-41 -63 -41 -196 q0 -217 227 -217h17q96 59 172 213q41 80 102 260q42 119 62 174q-74 154 -244 221q-119 47 -240 47q-102 0 -174 -10q-207 -311 -207 -594zM1139 123q61 10 114 39q3 29 17 133q-41 -70 -58 -92q-37 -51 -73 -80z" />
<glyph unicode="&#xdb;" horiz-adv-x="1783" d="M-315 594q0 190 116.5 328.5t304.5 169.5q4 94 87 176q111 109 286 108q61 0 181 -17.5t182 -17.5q86 0 166 19l4 2h4q4 0 4 -4t-127 -168q-63 -82 -100 -135q94 8 258 114q-164 -129 -275 -139q-211 -315 -211 -600q0 -219 152 -319q348 133 432 448q-6 -86 -68 -182 q2 -2 9 -4q41 -10 94 61q37 49 61 109q16 37 127 393q68 215 107 291q61 119 137 172q84 57 207 51q-51 -2 -88 -10q-152 -33 -248 -230q-33 -68 -98 -286q-31 -113 -127 -396q-74 -197 -177 -176q-4 4 -14 8q-113 -164 -346 -256q74 -45 170 -45q250 0 381 289 q35 78 92 244q129 379 246 614q53 106 104 131q43 20 254 19v-8q-88 -6 -151 -70q-102 -102 -262 -539q-156 -428 -156 -583q0 -117 94 -117q88 0 152 94l6 -6q-88 -164 -236 -164q-76 0 -121 49t-45 127q0 35 17 156q-215 -338 -488 -338q-152 0 -254 86q-139 -35 -252 -35 q-248 0 -428 172q-164 156 -163 414zM-281 594q0 -246 150 -393q176 -174 428 -174q100 0 221 24q-119 109 -119 291q1 352 316 688q-213 0 -338 21q-63 10 -148 10q-49 0 -100 -8q25 -39 74 -39q23 0 65 33q4 2 6 2q37 0 37 -56q0 -35 -24.5 -57.5t-59.5 -22.5 q-102 0 -121 138q-172 -31 -279.5 -157t-107.5 -300zM117 1094q55 8 112 8q92 0 156 -10q242 -39 344 -39h6l27 26q43 44 145 150q-76 -12 -121 -12q-74 0 -222 23.5t-222 23.5q-88 0 -149 -35q-76 -43 -76 -129v-6zM1124 1479q135 242 265 258q127 16 172 -58 q34 -59 26 -200q-20 88 -49 125q-39 49 -119 51q-129 2 -293 -178z" />
<glyph unicode="&#xdc;" horiz-adv-x="1765" d="M104 1092q0 125 127 215q16 225 215 340q172 96 410 82q137 -8 293 -97q25 43 74 43q35 0 60.5 -28.5t19.5 -63.5q-2 -18 -13 -31q119 -66 242 -65q219 0 375 166q-123 -209 -355 -209q-131 0 -284 86q-25 -16 -47 -17q-35 0 -58.5 30t-19.5 65q-188 111 -355 110 q-205 0 -352 -100q-166 -109 -192 -303q94 61 223 61q61 0 181 -16.5t181 -16.5q43 0 172 19q6 2 7 -2q0 -4 -50 -70q-115 -152 -143 -192q-80 -109 -129 -201q-127 -233 -127 -426q0 -178 72 -285q82 -127 252 -127q195 0 315 177q68 98 154 348q82 238 104 295 q63 166 125 288q37 74 49 95q51 80 144 94q20 4 186 0v-8q-86 -6 -148 -66q-88 -86 -225 -436q-188 -483 -188 -676q0 -127 94 -127q82 0 141 90l6 -6q-86 -164 -233 -164q-78 0 -123 49t-45 127q0 31 14 142q-227 -330 -497 -330q-172 0 -273 110q-96 104 -96 279 q0 299 244 608q23 29 92 101q39 41 158 170q-55 -6 -86 -7q-76 0 -223.5 22.5t-223.5 22.5q-72 0 -108 -14q6 -39 20 -143q2 -10 12 -58q8 -39 9 -51q0 -70 -78 -69q-43 0 -74 65q-25 55 -25 105zM119 1081q0 -78 71 -77q23 0 46 18q16 15 10 78q-4 39 -17 139 q-111 -45 -110 -158zM1456 1593q0 35 24.5 57.5t59.5 22.5q31 0 54.5 -24.5t23.5 -55.5q0 -33 -26.5 -57.5t-59.5 -24.5t-54.5 25t-21.5 57z" />
<glyph unicode="&#xdd;" horiz-adv-x="1423" d="M-244 944q0 156 99 338q94 172 223 272q305 238 633 238q211 0 389 -121l20 19q47 43 80 43q55 0 55 -62q0 -41 -67 -69q115 -100 180 -228q12 2 25 2q74 0 129 -30q65 -37 65 -107q0 -41 -24.5 -68.5t-63.5 -27.5q-31 0 -49 14q49 -178 49 -377q0 -242 -100 -446 q-106 -219 -305 -334q-156 -90 -314 -90q-129 0 -270 100h-377v6h23q145 0 213 164q10 25 34 92l125 324q117 303 117 469q0 82 -39 135q-43 61 -123 62q-164 0 -223 -279l-18 4q47 246 198 344q70 45 133 45q115 0 179 -96q57 -86 57 -205q0 -31 -10 -145q248 393 526 440 q-59 115 -174 215l-254 -106l-2 2l178 166q-168 115 -362 114q-332 0 -619 -223q-145 -115 -223 -278q-63 -135 -70 -152q-33 -88 -32 -164q0 -166 77 -301q92 -160 242 -160q59 0 137 56q10 8 121 98q4 4 6 0q4 -6 0 -8q-41 -33 -121 -99q-72 -57 -143 -57q-156 0 -250 164 q-80 139 -80 307zM524 109q0 -35 22.5 -52.5t45.5 -27.5q31 -10 94 -13v-6h-55q78 -31 149 -30q137 0 279 81q184 106 284 308q97 190 97 411q0 313 -86 525q-18 10 -45 10q-145 0 -295 -154q-117 -119 -197 -282q-37 -76 -139 -340l-125 -324q-29 -74 -29 -106z" />
<glyph unicode="&#xde;" horiz-adv-x="1525" d="M-731 799q0 453 459 743q381 242 858 242h2q150 0 241 -103q84 -98 84 -262q0 -31 -2 -59q260 -6 355 -6l-4 -8q-141 -10 -226 -162q74 6 101 6q182 0 307 -100q135 -107 135 -285q0 -172 -131 -277q-121 -96 -297 -96q-170 0 -289 82l4 10q119 -63 207 -63 q162 0 254 141q80 123 80 287q0 123 -69.5 198.5t-190.5 75.5t-164 -110l-186 -478q-109 -264 -222 -462q-332 -588 -700 -588q-88 0 -158 41q-84 49 -84 131q0 39 26 67.5t65 28.5q55 0 55 -41q0 -4 -16.5 -36.5t-16.5 -57.5q0 -57 55 -90q45 -29 107 -29q166 0 317 191 q113 143 226 401q70 180 141 361q113 279 229 581q49 129 49 174q0 86 -157 94q-37 2 -58 2q-295 0 -417 -178q-51 -74 -52 -149q0 -66 37 -113q41 -53 105 -53q41 0 73.5 23.5t32.5 62.5q0 20 -15.5 44t-15.5 26q0 53 66 53q35 0 54.5 -29t19.5 -63q0 -68 -55.5 -113 t-125.5 -45q-82 0 -137 57.5t-55 139.5q0 66 37 133q121 223 498 223q78 0 192 -2q2 29 2 59q0 150 -82 235t-231 95q-176 12 -432 -66q-242 -74 -406 -176q-440 -276 -440 -708q0 -213 180 -342q160 -113 381 -113q387 0 604 315q4 8 14 9q20 0 21 -19q0 -6 -4 -12 q-227 -332 -635 -332q-238 0 -410 125q-190 139 -190 369z" />
<glyph unicode="&#xdf;" horiz-adv-x="1103" d="M-289 -258q0 55 53 55q20 0 59.5 -30.5t59.5 -30.5q72 0 154 223q59 162 98 303t115 420q186 682 469 682q92 0 92 -61q0 -16 -16.5 -31t-34.5 -15q-25 0 -59.5 36t-57.5 36q-43 0 -76 -72q-23 -49 -51 -145q-16 -59 -33 -141q66 102 164 162q106 63 221 55 q115 176 269 176q29 0 58.5 -16.5t29.5 -42.5q0 -16 -20.5 -34t-37.5 -18q-18 0 -55 37t-59 37q-39 0 -72 -59q-8 -16 -37 -94q213 -63 330 -334q65 -158 65 -332q0 -319 -226 -561t-535 -242q-109 0 -205 45q-80 -70 -168 -69q-82 0 -82 61q0 53 55 53q25 0 58 -28l14 -11 q31 -23 45 -22q29 0 55 28q-57 29 -119 86q-68 63 -90 154q-84 -145 -139 -209q-100 -113 -209 -112q-82 0 -82 61zM160 43q18 -104 90 -172q4 -4 59 -49q31 -20 62 -35q81 117 233 668q-180 14 -311 -88q-66 -188 -133 -324zM309 414q113 72 250 71q27 0 53 -2l41 158 q90 347 207 535q-217 10 -358 -211q-66 -100 -113 -269q-27 -94 -80 -282zM399 -225q96 -37 199 -37q242 0 475 190q254 207 254 576q0 168 -61 319q-66 162 -189 262q-66 53 -135 76q-68 -238 -162 -551q-20 -70 -47 -151q76 -27 135 -76q156 -129 156 -313q0 -78 -29 -168 q18 68 19 131q0 193 -160 325q-57 47 -129 74q-164 -489 -326 -657z" />
<glyph unicode="&#xe0;" horiz-adv-x="798" d="M-20 113q0 135 118 333q84 139 205 265q158 162 266 161q37 0 76 -38l29 32q-27 -2 53 -6q25 0 70 4q-41 -80 -115 -248q57 -33 57 -116q0 -166 -127 -336q-117 -156 -202 -156q-43 0 -43 39q0 53 65 248q-27 -33 -80 -98q-141 -193 -268 -193q-104 0 -104 109zM115 115 q0 -57 49 -58q68 0 176 150q18 25 66 92q66 104 149 299q-96 -53 -137 -172q-4 -10 -12 -6q-10 4 -7 12q45 135 164 186q53 130 53 185q0 57 -55 57q-70 0 -196 -180q-90 -125 -160 -270q-90 -184 -90 -295zM489 1251q0 23 21.5 41.5t46.5 18.5q51 0 70 -58l39 -125l34 -106 l-4 -2q-47 45 -166 162q-41 41 -41 69zM492 113q0 -18 16 -29q37 12 106 102q111 142 111 314q0 74 -49 102q-184 -418 -184 -489z" />
<glyph unicode="&#xe1;" horiz-adv-x="815" d="M-20 113q0 135 118 333q84 139 205 265q158 162 266 161q37 0 76 -38l29 32q-27 -2 53 -6q25 0 70 4q-41 -80 -115 -248q57 -33 57 -116q0 -166 -127 -336q-117 -156 -202 -156q-43 0 -43 39q0 53 65 248q-27 -33 -80 -98q-141 -193 -268 -193q-104 0 -104 109zM115 115 q0 -57 49 -58q68 0 176 150q18 25 66 92q66 104 149 299q-96 -53 -137 -172q-4 -10 -12 -6q-10 4 -7 12q45 135 164 186q53 130 53 185q0 57 -55 57q-70 0 -196 -180q-90 -125 -160 -270q-90 -184 -90 -295zM492 113q0 -18 16 -29q37 12 106 102q111 142 111 314 q0 74 -49 102q-184 -418 -184 -489zM508 977q49 66 182 233q39 49 76 50q20 0 36.5 -20t16.5 -40q0 -37 -137 -123l-172 -102z" />
<glyph unicode="&#xe2;" horiz-adv-x="798" d="M-20 113q0 133 110 319q94 160 219 285q-6 29 -6 57q0 111 150 283q12 14 243 250q25 0 60 4l6 2q16 -91 43 -275l-8 4q-8 10 -23 37q-4 10 -12 27l-62 106q-213 -150 -243 -178q-121 -117 -121 -260v-31q141 129 233 129q45 0 80 -43l31 35h12q4 86 -43 164q-4 8 -4 12 q2 4 4 7q6 6 13 -7q49 -84 40 -176q12 0 37 -4q14 -10 49 -31q-41 -66 -165 -362q-133 -313 -134 -356q0 -27 21 -27q37 0 162 174l2 -2q-162 -252 -268 -252q-39 0 -39 43q0 37 22 115q16 55 62 190q-29 -47 -99 -153q-137 -195 -268 -195q-104 0 -104 109zM115 123 q0 -72 47 -72q82 0 207 189q104 155 188 362q-49 -27 -96 -24q-76 2 -121 65q-115 -172 -178 -330q-47 -115 -47 -190zM354 666q35 -53 107 -62q49 -4 108 29q45 123 45 174q0 53 -43 53q-86 0 -217 -194z" />
<glyph unicode="&#xe3;" horiz-adv-x="815" d="M-20 113q0 80 45 192q41 100 96 174q-115 55 -115 193q0 90 47 188t119 156q154 127 313 125q6 8 17 16q6 -2 8 -6l-12 -10q20 0 39 -2q29 18 63 18q31 0 101.5 -41t91.5 -41q23 0 49 19q25 51 59 57q23 6 37 6q61 0 61 -76q0 -94 -110 -192q14 -47 14 -107 q0 -178 -119 -401q-201 -377 -378 -377q-41 0 -41 35t22 117q14 55 62 192q-199 -344 -365 -344q-104 0 -104 109zM27 659q0 -129 110 -151q168 244 322 330q-61 57 -62 137q0 70 52 129q-141 -12 -263 -107q-66 -51 -112.5 -151.5t-46.5 -186.5zM109 106q0 -20 17 -36.5 t38 -16.5q104 0 270 297q153 274 178 432h-4q-70 0 -125 37q-53 -47 -118 -139q-125 -176 -205 -371q-51 -125 -51 -203zM420 975q0 -74 63 -123q47 20 86 20t80 -43l31 35h115q23 12 47 33l10 8q-25 59 -74 105q-18 -8 -39 -9q-39 0 -99 36t-85 36q-74 0 -109 -82l-4 2 q27 76 58 113h-35q-45 -57 -45 -131zM489 106q0 -20 23 -20q41 -4 131 111q66 84 107 155q124 217 124 424q0 53 -10 94q-43 -33 -90 -51q-8 -14 -20 -39q-35 -76 -129 -307l-17 -37q-119 -291 -119 -330zM506 838q43 -27 102 -27h8q0 53 -47 53q-27 0 -63 -26zM807 1026 q43 -43 67 -102q93 85 93 157q0 49 -37 49q-41 0 -64 -36q-29 -45 -59 -68z" />
<glyph unicode="&#xe4;" horiz-adv-x="806" d="M-20 113q0 135 118 333q82 135 205 265q160 166 266 166q37 0 80 -48l31 35q137 0 133 140q-2 43 -35 79q-16 -12 -37 -14q-49 0 -65 59q-51 0 -98 -24q-14 -23 -39 -29q-45 -27 -111 -160q18 55 29 84q20 49 45 74q-57 10 -60 70q0 33 25 54.5t57 16.5q61 -6 66 -71v-4 q41 16 84 16q10 59 71 59q31 0 52.5 -23.5t17.5 -53.5q-2 -27 -20 -43q14 -29 32 -90q0 -82 -170 -450t-170 -445q0 -25 23 -25q37 0 158 162q-57 -86 -119 -152q-86 -90 -143 -90q-39 0 -39 43q0 35 22 115q12 41 57 182q-55 -90 -100 -151q-135 -188 -262 -189 q-104 0 -104 109zM119 117q0 -57 41 -58q117 0 291 318q163 297 163 428q0 53 -45 53q-88 0 -233 -223q-217 -332 -217 -518z" />
<glyph unicode="&#xe5;" horiz-adv-x="798" d="M-20 113q0 135 118 333q160 266 396 410q23 76 32 105q20 57 49 98q-39 35 -38 86q0 45 33.5 77.5t78.5 32.5q53 0 90 -47q66 37 135 37q105 1 121 -110q18 -113 -116 -211q-18 -14 -86 -60q-66 -143 -148 -334q33 -12 74 -12q102 0 162 84q-57 -94 -162 -94 q-43 0 -78 12l-18 -43l6 -2q68 -37 73 -129q4 -82 -106.5 -209t-189.5 -133q-39 -2 -39 43q0 29 22 113q16 63 57 180q-111 -160 -176 -229q-102 -106 -186 -107q-104 0 -104 109zM121 119q0 -61 45 -62q78 0 194 174q76 111 140 246q-131 -25 -250 -151q90 139 256 163 q25 50 43 97q-57 76 -57 192v43q-14 -12 -41 -39q-106 -117 -215 -325q-115 -221 -115 -338zM492 121q0 -10 8 -21.5t18 -7.5q45 20 111.5 113.5t62.5 140.5q-6 76 -67 117l-7 4q-127 -301 -126 -346zM518 778q0 -100 41 -170q57 142 57 201q0 51 -45 51q-23 0 -47 -14 q-6 -39 -6 -68zM526 868q23 4 43 4q39 0 80 -43l31 35h94q113 84 141 115q70 75 60 149q-14 102 -101 103q-53 0 -65 -4q-20 -4 -61 -31q14 -23 14 -47q0 -49 -33 -83t-82 -34q-27 0 -49 12q-14 -33 -45 -96q-12 -27 -27 -80zM557 1143q0 -41 29 -68q53 74 137 123 q-29 35 -76 35q-37 0 -63.5 -26.5t-26.5 -63.5zM608 1059q18 -8 41 -8q41 0 66.5 25.5t25.5 66.5q0 23 -12 43q-72 -49 -121 -127z" />
<glyph unicode="&#xe6;" horiz-adv-x="1073" d="M-180 360q0 264 176 500q291 389 749 389q272 0 474 -206t200 -478q-4 -631 -426 -848q-127 -66 -270 -65q-61 0 -109 10q-236 51 -278 215q-8 35 -8 96q2 94 90 170q-72 -82 -72 -174q0 -39 12 -82q45 -156 269 -200q41 -8 80 -9q133 0 294 80q209 104 316 385 q80 211 78 426q-2 264 -193.5 465t-456.5 201q-449 0 -737 -385q-172 -229 -172 -490q0 -229 103 -229q37 0 81 31q20 125 123 289q86 139 193 251q158 168 266 168q39 0 82 -41l27 31h18q-10 0 102 -2l-16 -39q98 49 146 49q109 0 108 -100q0 -137 -297 -313 q-29 -16 -121 -68q-57 -109 -57 -225q0 -106 80 -107q96 0 246 203l6 -2q-131 -211 -283 -250q-12 -4 -20 -6q-168 0 -168 186q0 39 20 133q-104 -150 -166 -213q-100 -102 -186 -102q-106 0 -107 109q0 12 2 26q-35 -20 -69 -20q-68 0 -103 92q-27 68 -26 149zM158 127 q0 -68 47 -68q109 0 284 318q166 299 166 422q0 55 -49 55q-88 0 -237 -236q-211 -332 -211 -491zM643 397q115 57 227 166q129 125 129 217q0 74 -63 74q-74 0 -174 -184q-66 -123 -119 -273z" />
<glyph unicode="&#xe7;" horiz-adv-x="641" d="M-664 -418q4 4 9 4q100 -166 245 -264q160 -109 340 -108q176 0 316 102q156 113 155 283q0 156 -143 204q-25 -100 -160 -100q-47 0 -84 14q-51 23 -47 62q-37 10 -67 39q-94 82 -95 266q0 158 111 297q106 133 258 186q178 307 381 307q37 0 70.5 -22t33.5 -57 q0 -57 -49 -58q-35 0 -45 43q4 -14 4 33q0 41 -37 41q-41 0 -73 -23q-74 -49 -160 -241q10 2 137 -29q-92 23 -141 19q-127 -291 -127 -457q0 -96 61 -96t138 88q53 61 94 143l8 -2q-47 -96 -113 -164q-84 -88 -168 -86q-43 -39 -43 -55q0 -14 21 -21q45 -14 61 -24 q31 -18 33 -58q76 -31 123 -105.5t47 -158.5q0 -178 -168 -286q-143 -94 -332 -95q-184 0 -346 111q-147 100 -248 268zM-150 84q0 -158 82 -229q35 -31 66 -31q82 51 176 43q-10 25 -80 43q-8 2 -8 6t84 88q-127 41 -127 166q0 160 121 379q-133 -57 -223.5 -189.5 t-90.5 -275.5zM63 -205q12 -47 27 -47q57 0 86 66q-66 0 -113 -19z" />
<glyph unicode="&#xe8;" horiz-adv-x="620" d="M-293 469q0 182 178 348q154 141 344 203q6 2 9 -4q0 -4 -5 -6q-178 -55 -327 -201q-168 -164 -168 -340q0 -68 39 -123q43 -61 106 -61q74 0 166 51q61 225 254 416q123 121 209 120q111 0 111 -106q0 -109 -166 -223q-12 -8 -256 -162q-47 -121 -47 -215 q0 -43 21.5 -80t62.5 -37q98 0 245 213l4 -2q-47 -94 -127 -168q-94 -90 -182 -90q-158 0 -158 182q0 49 13 103q-86 -37 -150 -37q-82 0 -131 72q-45 63 -45 147zM205 395q111 55 223 170q129 131 129 219q0 74 -63 74q-74 0 -172 -184q-70 -131 -117 -279zM414 1251 q0 59 63 60q43 0 70 -68q14 -35 71 -221l-2 -2q-78 76 -163 164q-39 39 -39 67z" />
<glyph unicode="&#xe9;" horiz-adv-x="704" d="M20 184q0 141 107 334q41 76 102 150q-10 18 -10 37q0 166 266 358q61 84 154 199q39 49 76 49q18 0 38.5 -12.5t20.5 -30.5q0 -16 -21.5 -45t-37.5 -37q-150 -92 -189 -119q-66 -45 -151 -125q-131 -121 -131 -237q0 -8 2 -17q156 184 268 184q113 0 113 -106 q0 -96 -162 -217q-8 -6 -258 -164q-51 -111 -51 -215q0 -115 90 -115q96 0 237 207l4 -2q-156 -256 -313 -256q-154 0 -154 180zM205 397q115 55 223 168q125 129 125 219q0 74 -59 74q-80 0 -187 -215q76 16 99 84q4 2 6 -2q-10 -35 -45 -64.5t-70 -33.5q-55 -115 -92 -230 z" />
<glyph unicode="&#xea;" horiz-adv-x="643" d="M-410 551l21 92q6 18 31 49q10 8 22 8q35 0 35 -36l-31 -48q-23 -45 -22 -92q0 -113 114 -174q76 -41 164 -41q55 0 117 17q66 225 262 424q121 123 209 122q111 0 111 -106q0 -100 -162 -221q-12 -8 -152 -99q-31 -20 -110 -69q-49 -133 -49 -232q0 -98 79 -98 q106 0 254 215l4 -2q-156 -256 -313 -256q-154 0 -154 180q0 57 17 123q-68 -20 -127 -20q-90 0 -162 39q-158 86 -158 225zM205 395q104 51 221 172q133 138 133 226q0 70 -57 69q-82 0 -180 -186q-66 -123 -117 -281z" />
<glyph unicode="&#xeb;" horiz-adv-x="657" d="M-434 711q0 78 53 129t133 51q76 0 148.5 -40t109.5 -103q6 -57 13 -68v2q0 18 -23 59q-33 61 -104.5 99.5t-145.5 38.5q-76 0 -125 -47.5t-49 -120.5q0 -53 35 -117q63 -115 185 -184.5t253 -63.5q68 215 254 404q121 123 209 122q111 0 111 -106q0 -102 -162 -221 q-119 -88 -264 -170q-47 -133 -47 -230q0 -98 79 -98q106 0 254 215l4 -2q-156 -256 -313 -256q-154 0 -154 180q0 63 19 135q-147 -8 -307 115q-166 129 -166 277zM205 395q111 55 225 174q129 134 129 224q0 70 -57 69q-82 0 -180 -186q-66 -123 -117 -281zM354 1145 q0 70 74 69q68 1 68 -71q0 -70 -70 -70q-31 0 -51.5 20.5t-20.5 51.5zM580 1145q0 70 73 69q68 1 68 -71q0 -70 -70 -70q-72 0 -71 72z" />
<glyph unicode="&#xec;" horiz-adv-x="526" d="M-137 319q0 152 227 431q-199 -256 -205 -428q-4 -115 74 -115q59 0 154 63l186 451q16 39 16 53q0 20 -20 21q-49 0 -203 -222l-6 5q205 295 317 294q53 0 54 -49q0 -18 -78 -219l-53 -137q135 154 249 154q95 0 95 -115q0 -94 -62 -139q-84 -63 -149 -58q88 16 143 80 q43 49 43 115q0 92 -78 92q-102 0 -256 -164l-110 -268q-20 -49 -21 -64q0 -23 23 -22q41 0 176 184l6 -4q-59 -86 -133 -160q-98 -96 -158 -96q-53 0 -53 51q0 39 59 183q-86 -55 -145 -56q-92 0 -92 139zM297 1251q0 59 63 60q49 0 72 -68l72 -221l-4 -2l-164 164 q-39 39 -39 67z" />
<glyph unicode="&#xed;" horiz-adv-x="630" d="M-143 610q0 109 180 224q96 57 287 170q59 37 122 110q49 68 101 133q37 47 71 47q56 0 56 -55q0 -33 -58 -70q-76 -49 -274 -174q-96 -51 -285 -157q-174 -106 -174 -222q0 -121 121 -120q76 0 219 41l76 184q16 39 16 53q0 20 -20 21q-49 0 -203 -222l-6 5 q205 295 317 294q53 0 54 -49q0 -4 -78 -219l-8 -22q86 27 112 26q16 0 17 -10q0 -18 -54 -68l-155 -145l-90 -221q-20 -51 -21 -64q0 -23 23 -22q41 0 176 184l6 -4q-59 -86 -133 -160q-98 -96 -158 -96q-53 0 -53 51q0 23 20 82q-121 -160 -178 -334q-4 0 -8 2 q84 258 219 420l125 305q-150 -43 -227 -43q-135 0 -135 125zM311 434l84 74q64 56 64 72q0 8 -15 8q-20 0 -77 -17z" />
<glyph unicode="&#xee;" d="M-45 -63q0 137 192 413l152 371q16 41 16 53q0 20 -20 21q-49 0 -203 -222l-6 5q205 295 317 294q53 0 54 -49q0 -23 -25 -88q98 119 98 199q0 59 -67 59q-111 0 -242 -106q-113 -92 -178 -205q-2 -4 -6 -2q-6 2 -2 6q68 119 182 211q133 106 246 107q86 0 86 -82 q0 -84 -64 -160q-41 -47 -86 -111l-20 -47l-178 -440q-20 -51 -21 -64q0 -23 23 -22q41 0 176 184l6 -4q-59 -86 -133 -160q-98 -96 -158 -96q-53 0 -53 51q0 14 8 43q-49 -57 -49 -143q0 -84 78 -84q16 0 26 4q168 68 330 266q-41 -70 -117 -149q-158 -166 -268 -166 q-94 0 -94 113z" />
<glyph unicode="&#xef;" horiz-adv-x="581" d="M-156 12q0 94 47 181q29 51 113 155q59 74 229 217l66 156q16 39 16 51q0 23 -20 23q-49 0 -203 -222l-6 5q205 295 317 294q53 0 54 -51q0 -25 -33 -108q123 100 123 159q0 61 -66 62q-291 0 -487 -442q53 184 190 317q152 145 332 145q31 0 53.5 -20t22.5 -49 q0 -70 -184 -213q-6 -16 -29 -70l-178 -438q-20 -51 -21 -64q0 -23 23 -22q41 0 176 184l6 -4q-59 -86 -133 -160q-98 -96 -158 -96q-53 0 -53 51q0 39 68 205l106 262l-98 -86q-242 -209 -242 -422q0 -88 64 -102q82 -16 174 22q168 72 268 207q109 143 108 318 q0 66 -16 129q25 -70 25 -148q0 -168 -107 -315q-100 -139 -260 -209q-70 -31 -125 -31q-39 0 -78 15q-84 31 -84 114zM279 1145q0 70 73 69q68 1 68 -71q0 -70 -70 -70q-31 0 -51 20.5t-20 51.5zM494 1145q0 70 73 69q68 1 68 -71q0 -70 -70 -70q-31 0 -51 20.5t-20 51.5z " />
<glyph unicode="&#xf0;" horiz-adv-x="704" d="M-272 735q250 315 753 525q-16 49 -35 102l64 86q33 -90 53 -158q274 100 570 101q551 -1 571 -394q8 -143 -143 -264v-33q0 -262 -262.5 -447t-581.5 -185q-35 0 -105 8q-14 0 -12 14t16 14q68 -8 101 -8q303 0 564 184.5t261 419.5v19q-223 -168 -602 -187 q-23 -2 -64.5 3.5t-60.5 5.5q-4 0 -4 6q0 4 6 4q18 0 59.5 -5t63.5 -3q379 18 602 188q-16 203 -201 324q-162 106 -376 106q-180 0 -357 -37q41 -190 41 -338q0 -221 -74 -403q-84 -211 -247 -322q-88 -59 -144 -59q-78 0 -118 90q-31 68 -31 158q0 276 201 481 q135 139 239 139q29 0 78 -28q-6 119 -33 264q-164 -41 -422 -193q-264 -156 -360 -182l-2 -4q-6 2 -8 8zM-236 764q317 229 590 338l154 61q-8 33 -19 64q-492 -197 -725 -463zM109 100q0 -90 65 -90q88 0 232 295q80 166 118 316q27 104 27 159q0 82 -64 82 q-82 0 -206 -252q-172 -348 -172 -510zM573 1260q10 -37 21 -76l121 33l12 -48q53 8 104 7q111 -4 134 -5q213 0 381 -106q193 -119 213 -320q141 115 135 250q-20 379 -512 379q-293 0 -609 -114z" />
<glyph unicode="&#xf1;" horiz-adv-x="931" d="M-694 131q0 96 106 238q80 106 182 190q250 207 500 260q96 20 203 8q47 39 80 39q43 0 47 -63q53 -14 104 -35q96 102 189 102q74 0 112.5 -47t38.5 -121q0 -45 -8 -98q51 -14 101 -14q82 0 169 49q100 57 166 160q17 24 99 198q-45 -145 -74 -206q-88 -178 -256 -228 q-49 -14 -98 -14q-55 0 -115 18q-66 -283 -277 -495q-18 -18 -47 -52q-47 -29 -98 -28q-80 0 -86 69q-6 78 62 78q43 0 43 -45q0 -10 -7.5 -30.5t-7.5 -28.5q0 -18 25 -19q78 0 168 230q78 199 102 377q-68 39 -207 108q-129 -150 -207 -342q-100 -252 -155 -379 q-18 0 -57.5 -2t-57.5 -2h-4q6 16 18 51l232 623q27 72 26 92q0 23 -18 23q-47 0 -166 -189q-164 -260 -256 -366q-178 -209 -364 -248q-20 -4 -45 -4q-162 0 -162 143zM-670 135q0 -59 39 -92t101 -33q20 0 38 4q272 57 488 394q53 90 164 268q34 55 114 131 q-90 12 -176 -6q-250 -53 -493 -256q-92 -76 -170 -178q-104 -135 -105 -232zM377 571l4 -8q10 2 14 10q54 98 109 166q-43 18 -82 31q-4 -74 -45 -199zM463 1075q55 162 153 162q33 0 102.5 -41t94.5 -41q47 0 98 78l4 -4q-74 -152 -157 -152q-37 0 -146 70q-29 14 -45 14 q-61 0 -100 -88zM547 760q25 -10 184 -98q2 10 2 18q0 45 -22 86q-25 51 -66 51t-98 -57z" />
<glyph unicode="&#xf2;" horiz-adv-x="694" d="M-313 186q0 258 340 490q150 102 407 190q2 2 4 0q20 4 41 4q117 0 135 -198q94 20 177 20q135 0 135 -84q2 -123 -158 -305q-186 -215 -436 -311q-176 -68 -342 -68q-123 0 -209 70q-94 74 -94 192zM-291 186q0 -106 92 -174q84 -59 195 -59q207 0 416 106 q195 100 340 265q153 174 153 280q0 55 -114 55q-72 0 -173 -28v-17q0 -170 -82.5 -323.5t-226.5 -241.5q-76 -47 -125 -47q-78 0 -118 88q-33 70 -33 158q0 27 2 55q-63 -74 -101 -162q2 6 9 25q37 90 96 168q29 223 197 397q55 57 104 90q-195 -78 -307 -153 q-324 -219 -324 -482zM113 119q0 -100 71 -101q53 0 133 125q39 63 89 162q75 158 112 295q-135 -49 -301 -147l-10 -7q-45 -111 -62 -161q-33 -106 -32 -166zM231 506q139 92 299 143q21 82 21 133q0 80 -66 80q-98 0 -254 -356zM399 1251q0 59 64 60q49 0 72 -68l71 -221 l-4 -2l-164 164q-39 39 -39 67z" />
<glyph unicode="&#xf3;" horiz-adv-x="729" d="M-104 293q0 147 102 301q90 139 225 227q162 106 352 107q218 0 218 -180q0 -102 -66 -207q-59 -94 -152 -158q-82 -227 -276 -342q-66 -39 -115 -39q-78 0 -118 90q-31 68 -31 158q0 272 201 481q135 139 239 139q76 0 115 -92q29 -68 28 -155q0 -115 -36 -224 q199 147 198 349q0 170 -205 170q-160 0 -337 -117q-131 -86 -220 -219q-96 -145 -96 -289q0 -74 34 -154t90 -118.5t157 -38.5q125 0 268 116q119 98 199 228q6 10 10 10q10 0 -6 -27q-90 -145 -197 -239q-139 -123 -274 -123q-238 0 -293 196q-14 49 -14 150zM121 127 q0 -37 14 -68q18 -37 51 -36q76 0 215 278l5 8q-25 -6 -50 -6q-141 0 -141 166v2q-94 -225 -94 -344zM233 453q0 -139 123 -140q27 0 56 6q139 295 139 459q0 82 -68 82q-76 0 -211 -266q-6 -12 -18 -37v-4q-20 -49 -21 -100zM489 1032l39 49q4 12 66 88l78 95q37 45 73 45 q54 -1 54 -56q0 -31 -58 -69q-25 -14 -84 -51q-27 -18 -98 -62q-23 -14 -67 -41z" />
<glyph unicode="&#xf4;" horiz-adv-x="694" d="M-145 475q0 182 170 359q156 160 344 217q27 31 92 102l149 158q12 0 54 2l55 -285l-4 -2q219 -112 213 -358q-4 -193 -162 -422q-109 -158 -242 -264q-168 -135 -323 -136q-190 0 -191 220q0 68 27 145q-2 20 -2 41q0 59 10 115q-37 -12 -74 -13q-117 0 -116 121z M-135 475q0 -111 106 -110q37 0 76 14q39 197 189 352q133 139 239 139q96 0 129 -135q113 33 240 33q12 0 10 -4q0 -6 -14 -6q-117 0 -230 -49q8 -45 8 -95q0 -172 -87 -328.5t-232 -244.5q-66 -39 -115 -39q-102 0 -137 143q-8 -43 -8 -79q0 -193 162 -193q119 0 245 90 q180 129 306 301q149 207 149 389q0 178 -107.5 287t-285.5 109q-213 0 -424 -179q-219 -186 -219 -395zM113 117q0 -35 19.5 -66t51.5 -31q55 0 133 123q39 61 89 162q94 195 133 377q-190 -80 -336 -242q-39 -94 -56 -149q-35 -119 -34 -174zM233 510q45 49 129 137 q6 0 7 -6q-20 -25 -68 -74q121 98 244 148q6 36 6 67q0 80 -64 80q-98 0 -254 -352zM381 1055q68 18 127 18q113 0 203 -45l-37 62q-31 51 -39 71l-31 49l-149 -104q-29 -18 -74 -51z" />
<glyph unicode="&#xf5;" horiz-adv-x="741" d="M-123 594q0 182 156 328q141 131 329 168q55 147 150 147q33 0 102.5 -41t92.5 -41q47 0 100 78l4 -4q-74 -152 -158 -152q-27 0 -147 70q-25 14 -45 14q-53 0 -90 -71q47 10 90 10q238 0 379 -166q133 -157 133 -399q0 -424 -381 -682q-127 -86 -242 -86 q-135 0 -219 118q-51 72 -53 183q-43 70 -43 182q0 115 37 217q-35 -10 -68 -10q-55 0 -91 41t-36 96zM-104 594q0 -49 29.5 -86t78.5 -37q37 0 74 14q49 135 158 246q135 139 239 139t135 -159q84 25 174 24q35 0 93 -14q23 -6 24 -10q0 -6 -115 -6q-88 0 -172 -25 q4 -33 4 -66q0 -172 -86 -329.5t-233 -243.5q-66 -39 -115 -39q-35 0 -61 18q41 -195 254 -194q86 0 176 61q145 98 225 203q164 214 164 445q0 229 -123 383q-133 164 -358 163q-203 0 -379 -141q-186 -150 -186 -346zM117 98q10 -82 69 -82q55 0 133 125q152 242 218 508 q-256 -113 -367 -354q-49 -106 -53 -197zM201 424q129 186 344 266q10 51 10 90q0 78 -66 78q-115 0 -288 -434z" />
<glyph unicode="&#xf6;" horiz-adv-x="704" d="M37 258q0 229 156 420q-23 -8 -46 -8q-41 0 -66.5 30.5t-25.5 71.5q0 131 109 238q98 94 235 125v10q0 70 72 69q70 0 70 -71v-2q47 -8 88 -25q-4 14 -4 29q0 70 71 69q70 0 70 -71q0 -61 -61 -70q155 -115 155 -344q0 -307 -280 -502q-66 -45 -125 -57 q-51 -59 -119 -109q-86 -59 -148 -59q-82 0 -122 92q-29 70 -29 164zM68 772q0 -92 79 -92q29 0 60 14q68 80 133 125q18 25 72 109q2 4 4 2q4 -2 2 -6l-60 -93q61 37 119 37q41 0 72 -24q82 31 172 30q43 0 90 -10q6 -2 10 -6q-39 145 -147 219q-16 4 -27 15 q-51 27 -108 34q-14 -53 -68 -53q-51 0 -68 47q-131 -29 -227 -121q-109 -102 -108 -227zM115 115q0 -35 18 -64q20 -35 53 -35q62 0 152 158q-137 45 -137 221q0 16 2 37q-37 -90 -56 -153q-33 -111 -32 -164zM229 395q0 -147 133 -180q68 125 125 277q68 184 68 288 q0 18 -4 33q-111 -43 -201 -139q-121 -129 -121 -279zM326 690l4 4q105 105 207 146q-16 18 -48 18q-68 0 -163 -168zM498 225q35 14 53 27q287 194 287 477q0 61 -15 119q-2 -18 -20 -14q-43 10 -82 10q-78 0 -150 -25q49 -68 50 -205q0 -209 -123 -389z" />
<glyph unicode="&#xf7;" horiz-adv-x="733" d="M129 602l12 27h627q-4 -14 -8 -27h-631zM213 272q0 104 81 185.5t185 81.5q109 0 187 -95q2 -2 -2 -6q-2 -2 -7 0q-70 88 -168 88q-106 0 -177.5 -82t-71.5 -190q0 -150 127 -234q109 -72 266 -71q201 0 329 115.5t128 316.5q0 242 -168 397q-129 121 -322 105 q4 -8 4 -21q2 -37 -26.5 -61.5t-65.5 -18.5q-63 10 -66 72q-2 90 146 90q90 0 194 -33q115 -37 175 -92q174 -163 174 -411q0 -246 -174 -379q-135 -102 -332 -103q-143 0 -252 62q-127 70 -154 200q-10 51 -10 84zM301 373q0 33 25.5 53t58.5 18q68 -1 74 -69 q2 -31 -22.5 -54.5t-57.5 -23.5t-55.5 21.5t-22.5 54.5z" />
<glyph unicode="&#xf8;" horiz-adv-x="712" d="M-182 653q39 178 195.5 303t338.5 125q43 0 92 -10q197 -41 314 -201q110 -153 110 -358q0 -281 -159 -489q-174 -229 -447 -230q-84 0 -173 47t-126 119q-51 102 -45 223q12 201 180 365q59 121 160 215q123 115 211 115q66 0 117 -103l90 105l12 -13q-33 -37 -96 -110 q6 -23 10 -43q90 -25 150 -97q4 -6 4 -12q0 -20 -21 -20q-8 0 -14 8q-43 53 -111 74q2 -20 2 -43q0 -178 -85 -335t-236 -247q-66 -39 -113 -39q-74 0 -127 113l-61 -72q31 -104 127 -156q74 -39 145 -39q258 0 424 207q158 195 158 457q0 225 -133 387q-141 172 -361 172 q-178 0 -331.5 -123t-190.5 -297q-2 -4 -6 -4q-6 2 -4 6zM-25 178q-2 -59 9 -110q39 45 59 65q-12 57 -12 117q0 75 16 149q-66 -111 -72 -221zM113 106q0 -86 65 -86q57 0 148 146q136 223 206 514h-4q-12 -16 -233 -281q-43 -53 -160 -188q-23 -78 -22 -105zM129 233 l375 447q-115 -2 -228 -62q-12 -23 -32 -65q-59 -127 -115 -320zM315 686q98 39 195 39q16 0 31 -2q4 41 4 51q0 86 -68 86q-59 0 -162 -174z" />
<glyph unicode="&#xf9;" horiz-adv-x="856" d="M41 72q0 49 65 219l21 53q-18 76 -18 150q0 72 10 145q-25 -35 -43 -64l-4 3q23 37 49 75q43 276 280 471q-2 10 -2 21q0 70 72 69q20 0 37 -10q100 61 203 62q84 0 157.5 -45t104.5 -121q25 -57 24 -137q2 -100 -49 -220q-49 -111 -121 -190q-84 -92 -176 -150l-8 -20 q-104 -260 -104 -283t20 -22q43 0 131 131q137 205 172 246q113 133 213 135q57 2 92 -38t37 -97q4 -205 -184 -363q-178 -150 -389 -153q-227 -4 -371 149q-102 -86 -170 -86q-49 0 -49 70zM139 496q2 -45 11 -101l112 279q27 65 27 90q0 27 -25 27q-29 0 -94 -80 q-33 -102 -31 -215zM172 109q0 -35 35 -35q18 0 47 20q-35 39 -61 86q-20 -53 -21 -71zM178 733q115 139 195 139q47 0 47 -61q0 -59 -70 -236l-104 -264l114 11q57 6 115 26q90 139 258 516h117l-172 -401q164 131 235 299q45 109 45 201q-2 111 -68.5 177t-176.5 72 q53 -12 53 -69q0 -70 -70 -70q-72 0 -71 72q0 51 49 65q-63 -10 -135 -49q2 -8 2 -18q0 -70 -70 -70q-23 0 -39 10q-180 -147 -254 -350zM205 213q29 -57 69 -104q16 14 54 53q70 72 129 160q-78 -16 -152 -19h-63zM279 104q135 -152 352 -147q199 4 373 147 q186 154 182 349q-4 125 -111 122q-109 -2 -219 -151q-33 -45 -96.5 -138t-95.5 -139q-109 -147 -211 -147q-49 0 -50 43q0 29 37 133q12 33 54 156q-12 -4 -27 -6q-111 -154 -188 -222zM487 352l15 6l6 23z" />
<glyph unicode="&#xfa;" horiz-adv-x="851" d="M-231 446q0 207 192 361q180 145 391 145q217 0 357 -145l24 57h117l-68 -155q82 -140 82 -322q0 -424 -381 -682q-127 -86 -241 -86q-133 0 -219 119q-55 78 -56 196q0 186 146 371l123 305q-86 -137 -144 -198q-98 -102 -196 -103q-55 0 -91 41t-36 96zM-213 446 q0 -49 29.5 -85.5t79.5 -36.5q100 0 208 122q55 61 150 211q35 80 35 107t-25 27q-57 0 -188 -216l-4 3q57 98 133 184q98 111 168 110q47 0 47 -61q0 -57 -70 -236l-37 -94q133 82 291 97l94 204q-131 152 -346 152q-203 0 -379 -141q-186 -150 -186 -347zM8 -66 q0 -117 71 -186.5t189 -69.5q86 0 176 62q145 98 226 203q164 213 164 444q0 160 -66 289l-41 -96q29 -2 61 -9q-25 2 -65 0l-80 -188q-104 -246 -104 -283q0 -23 20 -22q37 0 168 172l4 -2q-55 -84 -129 -156q-94 -90 -158 -90q-41 0 -41 41q0 29 37 133q23 61 68 205 q-272 -379 -418 -379q-49 0 -49 70q0 16 6 41q-39 -96 -39 -179zM172 109q0 -35 35 -35q37 0 121 88q143 149 268 401q-158 -25 -307 -141l-66 -166q-51 -129 -51 -147zM399 1145q0 70 72 69q70 1 70 -71q0 -70 -70 -70q-72 0 -72 72zM625 1145q0 70 71 69q70 1 70 -71 q0 -70 -70 -70q-72 0 -71 72z" />
<glyph unicode="&#xfb;" horiz-adv-x="854" d="M-231 446q0 207 192 361q180 145 391 145q217 0 357 -145l24 57h117l-68 -155q82 -140 82 -322q0 -420 -360 -663q-145 -98 -266 -99q-127 0 -215 113q-55 72 -56 196q0 186 146 371l123 305q-86 -137 -144 -198q-98 -102 -196 -103q-55 0 -91 41t-36 96zM-213 446 q0 -49 29.5 -85.5t79.5 -36.5q162 0 358 333q35 59 35 107q0 27 -25 27q-57 0 -188 -216l-4 3q57 98 133 184q98 111 168 110q47 0 47 -61q0 -57 -70 -236l-37 -94q133 82 291 97l94 204q-131 152 -346 152q-203 0 -379 -141q-186 -150 -186 -347zM8 -66q0 -174 146 -235 q59 -25 114 -21q96 6 221 97q111 76 181 168q164 213 164 444q0 160 -66 289l-41 -96q29 -2 61 -9q-25 2 -65 0l-80 -188q-104 -246 -104 -283q0 -23 20 -22q37 0 168 172l4 -2q-55 -84 -129 -156q-94 -90 -158 -90q-41 0 -41 41q0 29 37 133q23 61 68 205 q-178 -262 -324 -346q-57 -33 -94 -33q-49 0 -49 70q0 16 6 41q-39 -96 -39 -179zM172 109q0 -27 35 -27q39 0 121 86q149 155 268 395q-158 -25 -307 -141l-66 -166q-51 -129 -51 -147z" />
<glyph unicode="&#xfc;" horiz-adv-x="856" d="M41 72q0 59 65 219l56 135q-47 76 -74 168q-6 -10 -12 -19l-4 3q8 12 14 24q-23 86 -23 174q0 244 158 371q43 35 94 35q49 0 84 -33q2 66 72 65q70 0 70 -71q0 -70 -70 -70q-16 0 -31 6q14 -41 15 -94q0 -84 -47 -242q-29 -96 -58 -168l-94 -235q63 -61 141 -94 q94 119 185 291q-51 123 -52 266q0 178 78 332q127 250 324 262q172 10 260 -121q72 -109 72 -289q0 -115 -29 -223q-68 -258 -279 -428q-119 -96 -251 -131q-152 -205 -263 -205q-39 0 -39 43q0 31 37 133l11 29q-31 8 -60 20q-106 -131 -207 -190q-55 -33 -94 -33 q-49 0 -49 70zM82 774q0 -76 18 -151q158 250 273 249q43 0 47 -53q22 92 22 160t-22 115q-12 12 -19 28l-4 6q-25 37 -75 37q-47 0 -89 -32q-152 -121 -151 -359zM102 616q23 -92 68 -167l92 225q27 65 27 90q0 27 -25 27q-47 0 -162 -175zM172 109q0 -35 35 -35 q33 0 121 92q26 26 55 63q-74 33 -135 93l-25 -66q-51 -137 -51 -147zM406 244q25 -10 51 -17q31 88 51 154q-63 -90 -102 -137zM539 100q0 -23 20 -22q29 0 127 123q-61 -12 -123 -13q-25 -68 -24 -88zM567 776q0 -115 29 -211q41 82 137 299h117l-191 -444 q20 -35 107 -144q-53 45 -115 130l-8 -23q-18 -35 -59 -139l-11 -29q193 4 365 143q199 162 260 410q23 93 23 197q0 164 -54 268q-70 139 -219 131q-162 -8 -246 -150q63 -6 64 -71q0 -70 -70 -70q-39 0 -61 31q-68 -141 -68 -328z" />
<glyph unicode="&#xfe;" horiz-adv-x="786" d="M-567 961q0 2 2 4q90 72 342 258q276 197 702 196q365 0 594 -178q254 -197 254 -551q0 -213 -121 -414q-205 -338 -631 -481q-154 -51 -290 -51q-131 0 -230 35q-2 -8 -2 -17q0 -66 131 -73l-2 -6h-424l2 6q123 0 185 147q-246 162 -246 481q0 4 6 5q4 0 4 -5 q0 -297 248 -450l377 930q-145 -68 -248 -205l-4 4q119 160 266 238l211 522l123 37q-96 16 -203 16q-420 0 -698 -197q-92 -70 -340 -256q-2 -2 -4 -2t-3 2t-1 5zM66 -184q92 -35 219 -35q303 0 614 217q182 127 293 297q121 190 121 395q0 328 -219 520q-156 137 -394 181 l-208 -521q133 0 210.5 -81.5t77.5 -217.5q0 -195 -137 -374q-145 -193 -334 -193q-61 0 -151 43q-33 -76 -92 -231zM162 57q59 -35 110 -34q115 0 224 145q163 221 163 448q0 90 -45 152q-51 68 -137 70z" />
<glyph unicode="&#xff;" horiz-adv-x="768" d="M-174 668q0 141 49 245q61 127 184 154q29 6 54 6q135 0 238.5 -110.5t101.5 -245.5q0 -4 -4 -4q-6 0 -7 4q2 129 -98 237.5t-227 108.5q-29 0 -56 -6q-109 -25 -165 -144q-45 -96 -46 -223q0 -139 72 -301q129 -291 430 -321q0 109 -4 174q-8 131 -29 280 q-31 219 -61 258q-14 18 -33 19q-74 0 -141 -246l-6 2q18 82 61 166q51 102 107 133q39 23 55 23q53 0 80 -74q76 -207 84 -735h2q162 315 162 499q0 39 -12.5 114t-12.5 114q0 78 64 77q20 0 32.5 -28.5t6.5 -48.5q8 -6 8 -15v-20q0 -244 -232 -690q217 25 344 209 q117 168 117 395q0 158 -78 280q-59 92 -145 150q-20 -31 -57 -31q-72 0 -72 72q0 47 45 65q8 6 22 7q37 0 58 -27q135 -72 215 -211t80 -295q0 -248 -150 -432q-156 -195 -397 -215q-82 -154 -146 -230q-109 -127 -225 -126q-37 0 -67 20q-37 25 -37 59q0 25 20.5 42.5 t44.5 17.5q39 0 70 -41l12 -17q25 -33 51 -32q39 0 82 45q78 80 82 262q-319 31 -456 340q-70 156 -70 291zM367 1145q0 70 73 69q68 1 68 -71q0 -70 -70 -70q-72 0 -71 72z" />
<glyph unicode="&#x152;" horiz-adv-x="2031" d="M-377 803q0 195 133 385q123 178 303 274q115 61 263 111q78 27 272 78q4 -4 4 -9q-217 -57 -272 -75q-139 -45 -263 -111q-178 -96 -299 -272q-129 -186 -129 -381q0 -184 156 -318q135 -113 332 -151q-8 51 -8 102q0 66 12 133q-88 129 -88 275q0 211 194 358 q178 133 398 133q49 0 96 -8q53 20 111 33l2 -6q-39 -12 -78 -35q63 -16 119 -47q137 102 282 102q184 0 275 -194q193 195 473 194q121 0 213 -51q112 -63 112 -176q0 -74 -48 -122t-122 -48q-49 0 -83.5 27.5t-34.5 74.5q0 27 27.5 44.5t54.5 17.5q6 0 18 -23 q16 -35 59 -35q84 0 84 82q0 86 -90 140q-76 43 -168 43q-195 0 -329 -148.5t-131 -345.5l4 -6q0 -4 4 -10l4 -4q14 -43 33 -43q25 0 73.5 15t73.5 15l2 -2q121 0 121 -88q0 -18 -6 -33q0 -6 -35 -41q-86 -86 -234 -198q-100 -76 -215 -127q12 -127 93.5 -211t205.5 -84 q115 0 230 84q102 78 162 186q6 -4 16 -6q-82 -150 -219 -244q-147 -102 -309 -102q-236 0 -336 246q-246 -203 -459 -242q-88 -16 -137 -16q-164 0 -277 104q-106 98 -141 262q-203 37 -344 160q-160 141 -160 334zM76 844q0 -119 61 -223q25 92 72 192q168 357 467 494 q-23 2 -45 2q-203 0 -373 -127q-182 -139 -182 -338zM248 295q2 -147 82 -240q84 -98 229 -98q243 0 479 297q-92 -16 -184 -16q-209 0 -393 75q-88 -18 -182 -18h-31zM248 322q14 -2 31 -3q71 1 141 13q-90 43 -162 100q-10 -59 -10 -110zM264 471q90 -76 213 -127 q207 55 377 231q63 66 137 209q47 91 47 197q0 162 -166 262q-125 -88 -188 -244q-31 -76 -31 -137q0 -63 23 -108q29 -59 84 -60q41 0 58.5 52.5t49.5 52.5q31 0 53.5 -21.5t22.5 -52.5q0 -55 -49 -91t-107 -36q-88 0 -137 66q-45 59 -45 149q0 113 80 244q70 115 168 196 q-59 31 -127 45q-168 -113 -309 -391q-113 -223 -154 -436zM520 330q160 -57 334 -58q111 0 217 23q20 27 41 59q16 92 53 154q12 20 62 78q6 8 20 24q2 4 23 60q69 192 69 344q0 131 -59 211q-68 90 -195 90q-98 0 -186 -53q174 -109 174 -281q0 -143 -108 -319 q-37 -59 -80 -105q-162 -168 -365 -227zM1298 373q135 64 373 254q-20 -4 -39 -4q-94 0 -196 71q-137 -135 -138 -321zM1497 762q61 -90 156 -90q96 -1 96 69q0 59 -94 60q-68 0 -158 -39z" />
<glyph unicode="&#x153;" horiz-adv-x="1009" d="M-436 348q0 154 84 265.5t231 156.5q106 33 182 31q55 -2 117 -17q213 207 504 265q63 12 111 12l73 -6q109 -8 174.5 -73t65.5 -171q0 -184 -143 -348q-119 -135 -308 -230q-4 -4 -6 3q-2 4 2 6q186 92 303 227q141 162 142 342q0 98 -64.5 155.5t-167.5 65.5l-71 6 q-43 0 -107 -12q-274 -53 -479 -250q27 -10 53 -22q123 119 213 118q102 0 141 -196q170 197 279 196q109 0 108 -106q0 -135 -303 -317q-10 -4 -123 -70q-49 -111 -49 -217q0 -111 90 -111q88 0 193 139q16 27 55 78l6 -4q-55 -96 -135 -168q-100 -92 -186 -92 q-78 0 -119 64q-55 -82 -154.5 -134.5t-197.5 -52.5q-33 0 -64 4q106 -152 312 -151q55 0 202 55q166 61 273 178q23 14 67 58q4 2 9 0q4 -4 0 -9q-14 -25 -50 -73q-113 -121 -286 -187q-137 -51 -215 -51q-240 0 -353 186q-174 33 -288 156q-121 127 -121 301zM-412 348 q0 -150 107 -260q98 -102 250 -139q-39 92 -39 190q0 311 160 518q41 54 96 111q-49 12 -101 10q-82 -2 -174 -30q-141 -43 -220 -148.5t-79 -251.5zM-63 139q0 -104 45 -196q47 -8 96 -9q90 0 178 49.5t135 127.5q-127 -109 -207 -109q-78 0 -118 90q-31 68 -31 158 q0 274 201 481l12 10q-27 12 -55 21q-168 -168 -228 -377q-29 -102 -28 -246zM113 119q0 -100 71 -101q41 0 92 68q90 119 179 332q96 231 96 360q0 82 -66 82q-63 0 -153 -155q55 -51 61 -125q6 -98 -65.5 -176t-171.5 -93q-4 -12 -9 -20q-35 -117 -34 -172zM158 319 q98 16 164 89q73 76 63 172q-6 66 -59 114q-96 -166 -168 -375zM575 385q180 113 275 227q86 104 86 174q0 72 -64 72q-78 0 -178 -188q-66 -125 -119 -285z" />
<glyph unicode="&#x178;" horiz-adv-x="1437" d="M133 10v6q125 0 182 70q31 37 88 186q35 88 105 265q53 137 88 268q-57 88 -57 172q0 104 79 182q-33 102 -135 103q-172 0 -223 -279q-6 2 -10 0h-8q47 248 192 344q76 49 139 49q135 0 199 -133q47 10 98 10q90 0 164 -36q180 160 359 159q74 0 129 -30q66 -37 65 -107 q0 -41 -24.5 -68.5t-63.5 -27.5q-53 0 -86 80q-37 92 -104 92q-119 0 -248 -115l10 -6q0 -6 -6 -8l-12 8q-66 -61 -119 -135q-96 -133 -133 -215q-27 -57 -64 -152q182 -133 414 -133q315 0 469 289q55 104 55 223q0 168 -108 322q-98 141 -256 225q-55 29 -115 41 q35 -23 35 -66q0 -33 -23.5 -55t-56.5 -22t-55.5 23.5t-22.5 55.5q0 55 55 74q-121 8 -223 -33q10 -20 10 -43q0 -33 -22.5 -55t-54.5 -22q-33 0 -56.5 23.5t-23.5 55.5q0 49 47 70q119 74 280 74q141 0 258 -62q164 -88 266.5 -243.5t102.5 -337.5q0 -139 -65 -262 q-162 -303 -494 -304q-61 0 -123 13q-184 37 -303 127q-23 -66 -49 -131l-125 -324q-29 -74 -29 -106q0 -59 66 -80q33 -10 96 -13v-6h-553zM551 985q0 -76 51 -154q33 126 33 216q0 61 -12 104q-72 -72 -72 -166zM776 1235q33 -74 33 -160q0 -31 -10 -145q106 169 227 278 q-72 37 -160 37q-45 0 -90 -10z" />
<glyph unicode="&#x2c6;" horiz-adv-x="3665" d="M0 0v1638h3664v-1638h-3664zM106 145h2960l59 107h-2959zM330 592q-14 -244 178 -244q145 0 219 129q35 63 84 262h246l-166 -379h119l153 379h117v-379h106v379h236l59 107h-295v434h-94l-190 -434h-508l-59 -107h155l-10 -49q-20 -100 -43 -145q-41 -82 -113 -82 q-66 0 -65 100q0 16 2 35q14 125 47 279q66 301 174 301q84 0 78 -121l127 47q-10 188 -185 188q-147 0 -233 -153q-53 -96 -94 -284.5t-45 -262.5zM539 1386h2961l57 107h-2959zM1202 846l78 201v-201h-78zM1516 360h389l59 107h-262l452 813h-374l-60 -106h254zM1980 739 h246l-8 -34q-8 -35 -12 -103q-14 -254 172 -254q225 0 323 391h310l-213 -379h383l59 107h-256l151 272h97l59 107h-96l244 434h-377l-60 -106h254l-184 -328h-348q27 117 31 188q16 258 -172 258q-240 0 -334 -440l-2 -6h-207zM2335 602q4 51 10 96q4 16 8 41h219 q-68 -276 -170 -276q-76 0 -67 139zM2376 846l6 24q76 307 176 308q76 -1 68 -142q-2 -23 -13 -94q-6 -45 -18 -96h-219z" />
<glyph unicode="&#x2dc;" horiz-adv-x="907" d="M541 1073q55 164 153 164q33 0 102.5 -41t94.5 -41q45 0 98 76l4 -2q-74 -152 -157 -152q-27 0 -148 70q-25 14 -45 14q-59 0 -98 -88h-4z" />
<glyph unicode="&#x2000;" horiz-adv-x="1518" />
<glyph unicode="&#x2001;" horiz-adv-x="3037" />
<glyph unicode="&#x2002;" horiz-adv-x="1518" />
<glyph unicode="&#x2003;" horiz-adv-x="3037" />
<glyph unicode="&#x2004;" horiz-adv-x="1012" />
<glyph unicode="&#x2005;" horiz-adv-x="759" />
<glyph unicode="&#x2006;" horiz-adv-x="506" />
<glyph unicode="&#x2007;" horiz-adv-x="506" />
<glyph unicode="&#x2008;" horiz-adv-x="379" />
<glyph unicode="&#x2009;" horiz-adv-x="607" />
<glyph unicode="&#x200a;" horiz-adv-x="168" />
<glyph unicode="&#x2010;" d="M16 481l27 68q18 166 133 203q-104 -61 -123 -179h412l-35 -92h-377q10 -88 75 -170t146 -112q49 -18 121 -19q143 0 265 135.5t122 280.5q0 158 -77 266q-86 123 -238 123q-80 0 -148 -47q-76 -53 -75 -129q0 -86 84 -121q0 -4 -2 -6q-102 27 -103 115q0 96 70 153 q63 53 162 54q158 0 260 -127q96 -121 96 -281q0 -166 -126 -300t-290 -134q-121 0 -202 63q-131 102 -150 256h-27z" />
<glyph unicode="&#x2011;" d="M16 481l27 68q18 166 133 203q-104 -61 -123 -179h412l-35 -92h-377q10 -88 75 -170t146 -112q49 -18 121 -19q143 0 265 135.5t122 280.5q0 158 -77 266q-86 123 -238 123q-80 0 -148 -47q-76 -53 -75 -129q0 -86 84 -121q0 -4 -2 -6q-102 27 -103 115q0 96 70 153 q63 53 162 54q158 0 260 -127q96 -121 96 -281q0 -166 -126 -300t-290 -134q-121 0 -202 63q-131 102 -150 256h-27z" />
<glyph unicode="&#x2012;" d="M16 481l27 68q18 166 133 203q-104 -61 -123 -179h412l-35 -92h-377q10 -88 75 -170t146 -112q49 -18 121 -19q143 0 265 135.5t122 280.5q0 158 -77 266q-86 123 -238 123q-80 0 -148 -47q-76 -53 -75 -129q0 -86 84 -121q0 -4 -2 -6q-102 27 -103 115q0 96 70 153 q63 53 162 54q158 0 260 -127q96 -121 96 -281q0 -166 -126 -300t-290 -134q-121 0 -202 63q-131 102 -150 256h-27z" />
<glyph unicode="&#x2013;" horiz-adv-x="880" d="M-18 487q-12 182 112 301q6 160 86 265q86 113 240 137q27 4 59 4q166 0 290 -131t124 -299q0 -186 -135 -291l-2 -8l-19 -2q-133 -14 -381 -10l-20 -4q-29 -2 -57 6q-96 4 -177 10q12 41 29 90q12 -2 29 -2q-61 94 -66 207q-102 -109 -92 -271t152 -253q131 -86 297 -76 q80 6 155.5 58t108.5 126q6 16 22 16q25 0 25 -24q0 -72 -121 -148q-109 -68 -188 -73q-176 -12 -317.5 93t-153.5 279zM115 780q0 -135 61 -229q121 -10 301 -10q47 68 47 147q0 31 -8 57q2 2 6 3q8 -29 8 -60q0 -80 -47 -147q53 0 105 2q92 68 92 164q0 102 -102 151 q-86 41 -193 31q-164 -14 -270 -109zM117 807q117 94 266 100q115 6 201 -39q102 -53 102 -161q0 -94 -88 -164q98 2 172 10q78 92 78 211q0 152 -109 278q-115 131 -264 132q-158 0 -254 -103.5t-104 -263.5z" />
<glyph unicode="&#x2014;" horiz-adv-x="1095" d="M20 469l37 90q10 0 52 2h69h12q113 92 254 92q125 0 236 -94h238q6 0 53 -4q29 -2 53 0l-39 -84q-33 -2 -74 -4h-37q-49 2 -34 2q-23 0 -76 -2q72 -94 110 -211q2 -4 -2 -6q-6 -2 -6 2q-43 121 -121 215q-29 -2 -47 -2q-10 0 -65 4q-20 -2 -150 -2l-329 2 q-76 -104 -76 -225q0 -145 106 -277q141 -176 416 -176q242 0 418 131q256 190 256 426q0 348 -512 348h-193q-104 0 -147 9q-98 18 -105 86q-2 20 11 51q6 14 22 37l68 67q-35 -31 -90 -104q-6 -16 0 -51q10 -66 104 -80q25 -4 137 -4q33 0 96.5 3t96.5 3q534 0 534 -365 q0 -262 -258 -454q-186 -139 -440 -140q-289 0 -442 191q-113 141 -113 295q0 119 70 229h-93zM250 559h39q12 2 18 2h41q39 -2 62 -2h104h129q-90 63 -188 64q-106 0 -205 -64z" />
<glyph unicode="&#x2018;" horiz-adv-x="524" d="M-2 829q0 250 209 388q80 53 168 77q39 23 117 60q63 23 137 22q117 0 207 -55q227 -141 227 -424q0 -154 -78 -282t-213 -195q-125 -61 -270 -62q-166 0 -301 84q-203 127 -203 387zM8 829q0 -256 197 -378q131 -82 297 -82q141 0 264 59q131 63 203 178q84 133 84 291 q0 276 -224 416q-88 55 -204 55q-66 0 -113 -18q-113 -47 -154 -158q27 4 33 4q41 0 69.5 -25.5t28.5 -66.5q0 -39 -27.5 -66.5t-66.5 -27.5q-45 0 -72.5 31.5t-27.5 78.5q0 82 78 162q-199 -49 -295 -205q-70 -113 -70 -248z" />
<glyph unicode="&#x2019;" horiz-adv-x="497" d="M-119 1376q0 168 125 273q119 96 291 96t287 -96q123 -105 123 -273q0 -135 -76 -235q-78 -106 -209 -129q123 31 196.5 130t73.5 228q0 164 -117 258q-106 88 -274 88q-162 0 -268 -88q-111 -94 -111 -254q0 -121 77 -217t194 -127q39 -10 71 -10q70 0 131 53 q57 47 84 117q-25 -4 -30 -4q-39 0 -68 26.5t-29 65.5t27 66.5t65 27.5q43 0 71 -29.5t28 -74.5q0 -102 -85 -177t-192 -90q-39 -4 -110 15q-123 33 -199 133t-76 227z" />
<glyph unicode="&#x201a;" horiz-adv-x="180" d="M-1077 272q0 219 108 414q207 371 643 414q-401 -59 -612 -430q-106 -188 -106 -402q0 -276 163.5 -499.5t427.5 -296.5q102 -29 211 -29q299 0 522.5 211t223.5 508q0 264 -209 458.5t-475 194.5q-152 0 -283 -75.5t-205 -207.5q-68 -123 -67 -256q0 -195 145.5 -330.5 t337.5 -135.5q193 0 332 143q20 29 33 63q-27 -6 -33 -6q-43 0 -71.5 25.5t-28.5 66.5t27.5 68t68.5 27q94 0 94 -107q0 -86 -67.5 -158.5t-153.5 -99.5q-117 -35 -213 -35q-272 0 -416 244q-63 109 -63 235q0 137 69.5 261.5t186.5 197.5q152 94 323 94q274 0 483 -194 q216 -201 216 -473q0 -160 -73 -309.5t-198 -253.5q-223 -186 -508 -187q-113 0 -219 31q-274 78 -444 310.5t-170 518.5z" />
<glyph unicode="&#x201c;" horiz-adv-x="788" d="M20 1094q0 178 92.5 348t241.5 268q209 139 418 139q219 0 305 -161l-10 -5q-96 152 -309 152q-172 0 -391 -143q-147 -96 -236.5 -260t-89.5 -338q0 -43 6 -86q18 -123 47 -199q72 -186 238 -297t366 -111q123 0 240 45q340 131 426 506q14 63 14 123q0 193 -155 291 q-94 59 -199 49q-303 -29 -367 -219q20 2 27 2q100 0 100 -90q0 -41 -27.5 -67.5t-68.5 -26.5q-43 0 -70.5 28.5t-27.5 71.5q0 131 151 225q129 80 281 93q166 12 274.5 -91.5t108.5 -265.5q0 -66 -14 -129q-88 -381 -447 -518q-119 -45 -246 -45q-207 0 -377.5 113.5 t-244.5 306.5q-55 143 -56 291zM297 1124q0 80 63 150q59 63 142 88q20 6 69 18v-4q-168 -49 -211 -180q20 2 27 2q102 0 102 -90q0 -39 -27.5 -66.5t-66.5 -27.5q-98 0 -98 110z" />
<glyph unicode="&#x201d;" horiz-adv-x="761" d="M-471 1534q0 154 90 309q72 123 209 199t281 76q285 0 440 -250q74 -119 74 -230q0 -170 -119 -286q39 -31 39 -86q0 -102 -82 -170q-59 -49 -182 -99q-82 -33 -160 -32q-61 0 -162 26q-221 57 -336 242q-92 147 -92 301zM-457 1546q0 -190 118 -336.5t302 -195.5 q90 -25 154 -25q63 0 151 27q29 8 84 28q39 18 68 50q47 51 47 80q0 14 -12 14l-15 -4q-35 0 -60.5 25.5t-27.5 60.5q-16 -4 -35 -6l-2 6q18 2 35 6v2q0 37 28 65.5t64 28.5q33 0 56 -16q118 104 118 284q0 111 -71 226q-154 246 -434 245q-143 0 -277.5 -74.5 t-206.5 -197.5q-84 -143 -84 -293zM563 1006v6q160 45 213 178q-23 -2 -28 -2q-102 0 -103 90q0 39 27.5 66.5t66.5 27.5q97 0 97 -102q0 -86 -57.5 -152.5t-143.5 -93.5q-18 -6 -72 -18z" />
<glyph unicode="&#x201e;" horiz-adv-x="602" d="M-920 158q0 160 78 319q41 84 99 141q158 158 407 199q-164 -41 -258 -108q-299 -209 -299 -553q0 -225 149.5 -409.5t370.5 -233.5q141 -31 269 -5q-209 57 -357 259q-59 80 -94 165q-94 94 -94 242q0 154 108 283q61 160 240 284q117 82 274 101q-164 -43 -264 -113 q-106 -76 -188 -215q145 115 336 115q72 0 143 -17q82 27 170 27q139 0 265 -65.5t206 -178.5q47 -66 75.5 -162t20.5 -172q-29 -299 -262 -462q-172 -121 -369 -121q-78 0 -159 18q-82 -25 -168 -24q-78 0 -158 18q-231 53 -386 242.5t-155 425.5zM-643 178q0 -127 80 -223 q-43 109 -43 219q0 127 55 256q-92 -115 -92 -252zM-578 170q0 -135 64 -266q113 -98 262 -99q78 0 162 27q-117 49 -199 166q-57 82 -57 182q0 137 94 256q88 113 221 164q-63 16 -127 16q-190 0 -331 -122q-88 -164 -89 -324zM-504 -115q27 -53 64 -104q150 -207 381 -258 l6 -2q98 31 194 98q175 121 230 287q-115 -102 -308 -103q-78 0 -137 23q-88 -33 -174 -33q-143 0 -256 92zM-338 180q0 -109 80 -209q74 -94 180 -135q135 49 182 170q-29 -4 -34 -4q-41 0 -70 25.5t-29 66.5q0 39 28 66.5t67 27.5q43 0 69.5 -30.5t26.5 -75.5 q0 -160 -223 -252q61 -20 131 -20q104 0 193 47t130 137l2 12q-25 -4 -30 -4q-98 0 -99 92q0 39 28 66.5t66 27.5q14 0 29 -6q-27 109 -82 189q-121 172 -321 227q-137 -47 -228 -160q-96 -119 -96 -258zM-6 -487q57 -10 112 -11q193 0 357 115q223 155 250 446 q6 74 -20.5 164t-71.5 154q-78 113 -204 178.5t-263 65.5q-70 0 -138 -19q195 -55 312 -221q66 -94 90 -217q39 -31 39 -86q0 -74 -49 -137q-51 -203 -252 -344q-82 -57 -162 -88z" />
<glyph unicode="&#x2022;" horiz-adv-x="974" d="M270 711q0 248 171 426t419 178q168 0 285 -76q137 -88 137 -248q0 -68 -22 -121q96 -14 151 -77.5t55 -159.5q0 -117 -80 -234q-170 -248 -473 -258q27 -12 56 -30q4 -4 -2 -7q-23 0 -78 37h-4q-231 0 -420 168q-195 172 -195 402zM291 711q0 -207 174 -363 q164 -147 377 -166q-106 106 -113 232q-23 -4 -45 -4q-117 0 -199 81.5t-82 198.5t82 199t199 82q84 0 154.5 -46t103.5 -124q121 72 268 71q20 0 39 -2q23 55 23 121q0 156 -133 240q-115 70 -279 69q-238 0 -403.5 -175t-165.5 -414zM768 422q0 -131 102 -242h15 q299 0 467 244q71 105 71 209q0 84 -48 137t-132 61q-72 -123 -282 -190q-31 -168 -193 -219zM956 764q8 -37 9 -74q0 -20 -2 -39q198 68 268 183h-21q-141 0 -254 -70z" />
<glyph unicode="&#x2026;" horiz-adv-x="1126" d="M-4 104q0 51 53 78l4 -2q20 8 39 8q76 0 90 -79q6 -23 6 -17q-4 -6 -8 -16q-16 -74 -88 -74q-39 0 -67.5 32t-28.5 70zM369 96q0 37 22.5 67t59.5 30h6l10 -7h10q33 0 55.5 -27.5t22.5 -62.5q0 -96 -88 -96q-37 0 -67.5 29.5t-30.5 66.5zM741 88q0 37 13 57q27 45 55 45 q76 0 104 -49q19 -31 19 -49q0 -35 -30 -62.5t-64 -27.5q-37 0 -67 25.5t-30 60.5z" />
<glyph unicode="&#x202f;" horiz-adv-x="607" />
<glyph unicode="&#x2039;" horiz-adv-x="946" d="M-1735 188q0 303 135.5 562.5t385.5 423.5q154 100 286.5 142t313.5 42q270 0 446 -176l-10 -6q-170 170 -438 170q-178 0 -312.5 -43t-279.5 -146q-203 -143 -355 -444q-98 -197 -98 -449q0 -174 51 -293q45 -111 166 -247q256 -289 694 -289q209 0 500 106 q199 72 295 144q129 94 279 276q137 166 225 324q-225 -297 -516 -297q-102 0 -180 60.5t-78 160.5q0 76 54 139.5t130 63.5q43 0 76 -28t33 -71q0 -66 -50 -65q-33 0 -38 24q-2 8 5 24.5t7 22.5q0 49 -72 50q-55 0 -97 -52.5t-36 -107.5q25 -188 225 -189q209 0 361 228 q51 78 192 401q55 127 115 242q96 184 233 360q-94 -16 -186 -16q-53 0 -159.5 9t-159.5 9q-117 0 -203 -59q-98 -66 -99 -178q0 -47 32 -80t79 -33q80 0 80 72q0 6 -2 17.5t-2 17.5q0 35 51 34q29 0 50.5 -23.5t21.5 -51.5q0 -51 -44 -84t-98 -33q-74 0 -125 52t-51 126 q0 94 80 180q143 152 438 152q63 0 192.5 -7t192.5 -7q57 0 156 20l2 -6q-86 -74 -102 -84q-2 -4 -13 -14q-88 -94 -167 -283q-35 -80 -79 -211t-132 -395q-70 -195 -228 -375q-219 -250 -588 -444q-391 -207 -694 -207q-440 0 -696 311q-195 238 -195 528zM872 1599 q0 82 80 82q39 0 64.5 -23.5t25.5 -62.5q0 -33 -25.5 -56t-58.5 -23q-37 0 -61.5 23.5t-24.5 59.5z" />
<glyph unicode="&#x203a;" horiz-adv-x="530" d="M-709 526q0 319 310 598q256 229 516 236q123 4 215 -66.5t135 -189.5q25 -66 25 -127t-29 -158q-8 -16 -22.5 -58t-61.5 -157q-41 -98 -146 -366q-39 -106 -38 -125q0 -16 20 -17q10 0 39 25q63 55 113 127l10 -2q-51 -76 -133 -152q-98 -92 -154 -92q-29 0 -39 25 q-29 -84 -28 -166q0 -127 62 -231.5t175 -151.5q74 -31 150 -31q193 0 417 162q299 213 469 549l15 10q-78 -152 -150 -246q-139 -182 -334 -321q-238 -170 -436 -170q-78 0 -145 28q-240 100 -240 404q0 186 100 397q37 84 130 301q61 143 61 207q0 20 -10 20 q-41 4 -195 -215l-6 2q117 174 231 259q53 39 86 38h9q14 55 14 101q0 66 -35 139q-98 209 -336 203q-287 -8 -519 -258t-232 -537q0 -252 198 -321l-14 -9q-197 68 -197 336z" />
<glyph unicode="&#x205f;" horiz-adv-x="759" />
</font>
</defs>
</svg>
