<?xml version="1.0" standalone="no"?>
<!DOCTYPE svg PUBLIC "-//W3C//DTD SVG 1.1//EN" "http://www.w3.org/Graphics/SVG/1.1/DTD/svg11.dtd" >
<svg xmlns="http://www.w3.org/2000/svg" xmlns:xlink="http://www.w3.org/1999/xlink" version="1.1">
<metadata></metadata>
<defs>
<font id="proclamate_lightlight" horiz-adv-x="1177" >
<font-face units-per-em="2048" ascent="1638" descent="-410" />
<missing-glyph horiz-adv-x="512" />
<glyph horiz-adv-x="0" />
<glyph horiz-adv-x="682" />
<glyph unicode=" "  horiz-adv-x="512" />
<glyph unicode="&#x09;" horiz-adv-x="512" />
<glyph unicode="&#xa0;" horiz-adv-x="512" />
<glyph unicode="!" horiz-adv-x="614" d="M20 1559q0 -18 11.5 -42t26 -48.5t28.5 -50t20 -46.5q23 -70 30 -141.5t7 -145.5q0 -25 -1 -65.5t-2 -91.5t-3 -104.5t-4 -102.5q-10 -23 -15 -35t-13.5 -20.5t-19.5 -14.5t-30 -16v-14q0 -4 14.5 -21.5t36 -41t47 -50.5t49 -49.5t40 -36.5t18.5 -14h12q6 12 37 46.5 t66 72.5t63 68l27 30q0 8 -10.5 18t-23.5 21.5t-24.5 19.5t-13.5 10q-18 25 -24.5 59.5t-6.5 69.5q0 37 2.5 102.5t4.5 145.5t4 165t4 163q2 57 16.5 93t41 59.5t64.5 37t87 27.5q6 2 8 11t2 18v8q-66 0 -136.5 -15.5t-131 -46t-106.5 -77t-62 -107.5h-19q-16 35 -40.5 87 t-53.5 87h-10q-16 0 -17 -22zM141 131q0 -16 5.5 -39.5t14.5 -46t23.5 -39t34.5 -16.5q35 0 69 15t59.5 41t40.5 58.5t15 67.5q0 53 -32.5 80t-79.5 27q-70 0 -110 -38t-40 -110z" />
<glyph unicode="&#x22;" horiz-adv-x="665" d="M20 1505q0 -27 11.5 -59.5t30 -60t45 -47t57.5 -19.5q20 0 41.5 21.5t40 51t31 59.5t12.5 46q0 29 -7.5 57.5t-23.5 51t-40.5 37t-57.5 14.5h-10q-55 -23 -92.5 -54.5t-37.5 -97.5zM375 1505q0 -27 11 -59.5t30.5 -60t46 -47t57.5 -19.5q18 0 41 21.5t41.5 51t30.5 59.5 t12 46q0 29 -7 57.5t-23.5 51t-41 37t-59.5 14.5h-8q-57 -23 -94 -54.5t-37 -97.5z" />
<glyph unicode="&#x26;" horiz-adv-x="2011" d="M20 432q0 -61 19.5 -118.5t52.5 -108.5t75 -97.5t87 -87.5q14 -12 32.5 -29.5t38 -32.5t38 -25.5t30.5 -10.5t52 19.5t84 45t81 50t43 35.5q20 20 57.5 36.5t65.5 32.5q25 14 42.5 28.5t47.5 14.5h4q70 -51 129.5 -87t119 -59.5t127 -34.5t153.5 -11q309 0 557 184 q18 14 26.5 21.5t8.5 25.5q0 31 -31 31q-16 0 -39 -8t-46.5 -18.5t-46 -20.5t-38.5 -14q-47 -12 -95 -14.5t-96 -2.5q-61 0 -113 6t-100.5 19.5t-95.5 35t-98 52.5q-41 23 -75 40t-64 56q8 8 35.5 33.5t64.5 59.5t78 71t74.5 67.5t56.5 51.5l24 20h5q25 -20 46 -32.5 t43.5 -18.5t48 -8t62.5 -2q61 0 108.5 17.5t85.5 47t72.5 66.5t71.5 78l1 3t1 5q0 18 -18.5 22t-32.5 4h-6q-25 0 -42 -11t-32.5 -23.5t-32 -23.5t-41.5 -11q-49 0 -70.5 17.5t-29.5 38t-10 37.5t-8 19h-35q-45 0 -68.5 -9t-40 -24.5t-34 -36t-48.5 -42.5 q-29 -23 -61.5 -52.5t-62 -58t-54 -49t-39.5 -23.5l-139 -139q-4 -18 -10 -27.5t-23 -15.5q-35 43 -80 76t-86 72q-47 45 -74.5 102t-56.5 123v18q0 12 2 19.5t17 15.5l225 113q18 23 46 46t56.5 43.5t55 36t43.5 21.5q12 4 11 20.5t13 22.5q10 6 17 6q8 0 13 3.5t10 9.5 t14 24q8 14 30.5 33t47 40.5t43 43t18.5 43.5q0 10 -34 56t-76 97.5t-80 95.5t-46 52h-73q-117 0 -224.5 -24.5t-206.5 -88.5q-80 -53 -134 -110t-88 -125t-49 -147.5t-17 -174.5v-6q0 -35 10 -65.5t10 -63.5q0 -8 -14 -15t-33.5 -14.5t-38 -13.5t-26.5 -12 q-98 -66 -158 -161t-60 -216zM281 563q0 20 5 55t17 68t33.5 57.5t52.5 24.5q4 0 8 -1l4 -1q4 -47 32 -103.5t67 -112.5t84 -110.5t85 -95.5t68.5 -66.5t36.5 -25.5q2 0 2 2q0 -10 -22.5 -28.5t-54 -37t-64.5 -33t-53 -14.5q-66 0 -120 44t-95 108.5t-63.5 138.5t-22.5 131z M625 1118q0 82 12 160q4 27 20.5 74t41 93t55 78.5t65.5 32.5q8 0 22.5 -14t28 -32.5t24.5 -38t11 -29.5q43 -53 83 -103.5t83 -103.5v-4q0 -35 -53 -84t-123 -96t-138.5 -80t-99.5 -33q-6 0 -12 1t-8 9q-12 82 -12 170z" />
<glyph unicode="'" horiz-adv-x="309" d="M20 1505q0 -29 11.5 -60.5t30 -60t45 -47t57.5 -18.5q18 0 40.5 21.5t41 50t31 58.5t12.5 46q0 31 -7.5 59.5t-23.5 51t-40.5 37t-59.5 14.5h-8q-55 -23 -92.5 -56t-37.5 -96z" />
<glyph unicode="," horiz-adv-x="301" d="M20 129q0 -51 17.5 -78.5t39 -42t39 -20.5t17.5 -13q0 -16 -9 -29.5t-21.5 -25.5t-21.5 -26.5t-9 -32.5q0 -14 10 -19.5t24 -5.5q27 0 58 34t57.5 82t43 101t16.5 94v52q-14 45 -43 62.5t-70 17.5q-70 0 -109 -39t-39 -111z" />
<glyph unicode="-" d="M20 874q0 -16 12.5 -31.5t22.5 -29.5q29 -41 58.5 -83t64.5 -75.5t78 -54t98 -20.5q80 0 148.5 36.5t133 80.5t131.5 81t146 37q68 0 111 -30.5t90 -84.5h4q16 0 27.5 12.5t11.5 28.5q0 14 -9 34t-21.5 38t-26 34.5t-21.5 26.5q-72 78 -151.5 126.5t-186.5 48.5 q-80 0 -148.5 -36t-133 -78t-130 -78t-139.5 -36q-29 0 -50 11.5t-39.5 24.5t-32 24.5t-21.5 11.5q-10 0 -18.5 -3.5t-8.5 -15.5z" />
<glyph unicode="." horiz-adv-x="301" d="M20 129q0 -16 5.5 -39.5t14.5 -45t23.5 -38t34.5 -16.5q35 0 68 15t58.5 41t41 58.5t15.5 67.5q0 53 -32 80t-81 27q-70 0 -109 -39t-39 -111z" />
<glyph unicode="0" horiz-adv-x="1013" d="M20 754q0 -76 9.5 -161t30 -171t56.5 -165t88 -139.5t123.5 -96t166.5 -35.5q104 0 183 43t134 114.5t91 163.5t55.5 189.5t27.5 192.5t8 173q0 66 -12 145.5t-37.5 160.5t-64.5 158t-92.5 136.5t-120 95t-148.5 35.5q-94 0 -168 -42t-129 -111.5t-93 -158.5t-62.5 -182 t-35 -183t-10.5 -162zM324 629v104v51q0 25 4 98.5t10 165t16.5 183.5t22.5 151q4 23 16.5 48.5t28.5 46t38.5 34t49.5 13.5q70 0 105.5 -61.5t50 -150.5t14.5 -190v-172v-57q0 -180 -7 -359.5t-36 -357.5q-18 -51 -48 -91t-91 -40t-94 41t-48.5 98.5t-18.5 117.5t-3 99 q0 8 -2 42t-3 72t-3 72t-2 42z" />
<glyph unicode="1" horiz-adv-x="665" d="M20 1149q0 -12 3.5 -22.5t17.5 -10.5t27.5 7t27 16.5t26.5 16.5t32 7q31 0 57.5 -15t26.5 -52v-142v-155q0 -76 -1 -152t-3.5 -153.5t-4.5 -163.5q-2 -31 -5 -66t-11 -67.5t-25.5 -61.5t-46.5 -49q-8 -6 -24.5 -8t-31.5 -5t-27.5 -9.5t-12.5 -20.5q0 -4 2 -14.5t8 -12.5 l70 -8q2 0 52 -1t119 -2t141.5 -3t119.5 -2h80q8 2 8 14v9q0 14 -21.5 28.5t-48 32.5t-50 40.5t-27.5 57.5q-2 12 -5.5 37t-6.5 49.5t-5 45t-2 24.5v80q0 59 1 123.5t2 123t1 80.5l6 824h-69l-279 -303q-16 -6 -33.5 -18.5t-33 -28t-29.5 -32t-25 -26.5v-12z" />
<glyph unicode="2" horiz-adv-x="978" d="M20 27q0 -2 3.5 -5.5l5.5 -5.5q104 -10 206.5 -14t206.5 -4q80 0 160 1t160 1h143q-2 -4 4 38t15.5 101.5t19.5 123t14 102.5v34q0 14 -4 20.5t-22 6.5h-6q-16 0 -24.5 -27.5t-12.5 -59.5t-8 -59.5t-11 -27.5h-563l-8 8l8 8t8 11q121 106 237 203.5t206 198.5t145 210.5 t55 241.5q0 98 -30.5 178t-86 136t-134 86t-175.5 30q-68 0 -133 -20.5t-120.5 -58.5t-98.5 -93.5t-63 -122.5q-16 -51 -26.5 -79t-10.5 -71q0 -16 5 -29.5t28 -13.5h4q6 0 8 2q6 51 29.5 100.5t59.5 89.5t84 64.5t103 24.5q66 0 114 -23.5t79 -65.5t46 -96.5t15 -115.5 q0 -96 -29.5 -177t-75.5 -155t-99.5 -146.5t-100.5 -150.5l-330 -395v-4z" />
<glyph unicode="3" horiz-adv-x="1003" d="M20 283q0 -82 45.5 -138.5t112 -91.5t143 -50t142.5 -15q106 0 201.5 42t166 113.5t111.5 167t41 201.5q0 41 -11 98.5t-31.5 113.5t-52.5 103t-71 70q-8 6 -22.5 13.5t-28.5 14.5t-25.5 14t-11.5 11q0 10 16.5 23.5t38 27t42 25.5t26.5 18q41 43 60.5 96.5t19.5 112.5 q0 82 -33 146.5t-87 109.5t-126 69t-149 24q-113 0 -215.5 -51.5t-171.5 -141.5q-12 -16 -32 -46t-20 -54q0 -23 23 -23q2 0 6 1t6 1q43 80 113.5 118t159.5 38q117 0 187.5 -77t70.5 -191q0 -68 -31 -125.5t-79 -101.5t-108.5 -74.5t-121.5 -45.5q-8 -8 -10.5 -27.5 t-2.5 -35.5q25 0 48.5 5t46.5 5q74 0 134 -37t103 -94t65.5 -126.5t22.5 -135.5q0 -61 -16.5 -119.5t-48 -104.5t-81.5 -74t-118 -28q-66 0 -101.5 27t-55 68t-31 88t-26.5 88t-42 67.5t-80 26.5q-55 0 -83 -45t-28 -94z" />
<glyph unicode="4" horiz-adv-x="1013" d="M18 516q0 -8 1 -22.5t1 -16.5l9 -8l11 -2t24.5 -3t27.5 -2t25 -1h202q27 0 63 2t67.5 -2t53 -17.5t21.5 -42.5v-84q0 -51 -6 -104t-29 -92q-12 -18 -36.5 -31.5t-49 -24t-44 -18.5t-19.5 -16q0 -6 1 -12.5t9 -10.5q45 -4 112.5 -6t145.5 -3t162 -1h162v45q-61 2 -94 28.5 t-49.5 66.5t-19.5 88t-3 96q0 18 -2 40.5t1 42t12 33t34 13.5h182v153h-55q-37 0 -75 2t-66.5 6t-28.5 13v8q0 23 1 91.5t3 160.5t4 195.5t3 195.5t3 160.5t2 91.5v8q-2 6 -5 16l-3 11h-139l-8 -9q-100 -156 -197.5 -310t-193.5 -314q-25 -41 -62 -88t-71.5 -97.5 t-60.5 -99.5t-26 -92v-37zM141 633v6q0 23 16.5 51.5t39 59t46 59.5t38.5 51q25 37 62.5 100.5t75.5 127t69.5 109.5t46.5 46q0 -88 2 -190.5t2 -194.5q0 -90 -3.5 -153.5t-11.5 -71.5l-8 -8h-364q-2 0 -5.5 3t-5.5 5z" />
<glyph unicode="5" horiz-adv-x="944" d="M20 268q0 -66 36 -118t89.5 -88.5t118 -57t121.5 -20.5q115 0 213 46t171 122.5t114 179t41 215.5q0 119 -33 219t-97.5 171t-159.5 110.5t-218 39.5q-59 0 -117.5 -15t-112.5 -38h-6q-12 0 -12 17v26q2 20 2 62q0 41 2 81t6 70.5t15 30.5h18q41 -23 69.5 -25t67.5 -2 q141 0 247.5 51.5t162.5 182.5q6 16 17 41.5t11 48.5q-39 0 -75.5 -19.5t-73.5 -25.5q-31 -8 -70 -9t-75 -1h-89q-35 0 -72.5 1t-66.5 9q-33 6 -61.5 24.5t-65.5 18.5h-6q-12 0 -14 -8q0 -29 1 -97.5t1 -146.5q0 -90 -3 -166t-7.5 -147.5t-9.5 -145.5t-9 -157v-37 q0 -16 12 -17q14 0 36 22.5t38 31.5q43 23 91 28.5t95 5.5q84 0 148.5 -33.5t108 -89t66 -128t22.5 -150.5q0 -57 -15.5 -114.5t-46.5 -102.5t-79 -74t-111 -29q-66 0 -102 26t-55 62.5t-28.5 81.5t-25 82t-42 62.5t-77.5 25.5q-59 0 -82 -40t-23 -93z" />
<glyph unicode="6" horiz-adv-x="960" d="M20 670q0 -109 24 -228.5t78 -221t143 -168t220 -66.5q117 0 203 56t142.5 144t84 194.5t27.5 207.5q0 80 -17.5 160.5t-55.5 146.5t-101 107.5t-156 41.5q-55 0 -94 -17t-69.5 -47t-56 -68t-50.5 -76q-2 -4 -8 -10.5t-10 -8.5q-8 2 -9 10v17q6 106 10.5 226t24 222.5 t62.5 170t129 67.5q51 0 76.5 -24.5t39 -61.5t18.5 -80t17.5 -80t37 -61.5t73.5 -24.5q61 0 85.5 32t24.5 91q0 66 -28.5 118t-74.5 88t-105.5 54t-120.5 18q-106 0 -190.5 -45t-147 -120.5t-105.5 -173t-69.5 -201t-39 -204.5t-12.5 -185zM315 494v8q0 49 6.5 107.5 t26 108.5t57 84t103.5 34q45 0 79 -32t56.5 -78t33.5 -95t11 -82v-303q-12 -35 -23.5 -71t-27.5 -64.5t-45 -47t-78 -18.5q-74 0 -114 50t-59 122t-22.5 147.5t-3.5 129.5z" />
<glyph unicode="7" horiz-adv-x="925" d="M20 1120q0 -10 3.5 -16t19.5 -6q23 0 28 22.5t11 38.5q14 51 46 81t74 45t90 20.5t95 5.5q31 0 59.5 -1t55.5 -1h61h49q35 0 69 -2t59.5 -6.5t25.5 -10.5q0 -4 -3 -13t-5 -13q-55 -111 -112.5 -218.5t-113.5 -216.5q-2 -4 -8 -13t-10 -11l-397 -807h309l211 694 q4 33 14.5 67t28.5 62l207 652q14 16 18 35.5t4 37.5q-92 0 -182 6.5t-182 6.5h-4q-47 0 -118 -2.5t-137.5 -3.5t-113.5 -2l-47 -1l-8 -10l-7 -24q-8 -25 -19 -64t-23.5 -87t-22.5 -93t-17.5 -84t-7.5 -60v-8z" />
<glyph unicode="8" horiz-adv-x="995" d="M20 403q0 -66 20.5 -126t58.5 -110t90.5 -86t117.5 -54q31 -10 74 -22.5t80 -12.5q96 0 188 30.5t165 88t117 140.5t44 185q0 78 -20.5 147.5t-55.5 131t-82 117t-102 106.5l8 8q4 4 25.5 17.5t25.5 17.5q66 59 116 128t50 161v14q-4 76 -41 136.5t-93 101.5t-126 62.5 t-139 21.5q-150 0 -261.5 -58.5t-173.5 -201.5q-4 -10 -10 -30t-6 -24v-182l7 -18q7 -19 17.5 -41.5t18.5 -41t8 -20.5q20 -35 63.5 -80t84.5 -86l1 -1q1 -1 1 -3l-2 -4q0 -6 -28 -28.5t-64.5 -54.5t-74.5 -69.5t-59 -72.5q-25 -41 -34 -90.5t-9 -96.5zM193 395 q0 98 30.5 178t91.5 156q10 12 26.5 27.5t33.5 15.5q18 0 33.5 -12t27.5 -23q57 -37 117.5 -75.5t110 -86t81 -107.5t31.5 -136t-27.5 -128t-70.5 -84t-97.5 -46.5t-107.5 -14.5q-72 0 -125 28t-88 75t-51 107t-16 126zM281 1323q0 123 67.5 168t179.5 45q53 0 101.5 -16.5 t84.5 -48t57.5 -76.5t21.5 -103q0 -53 -7.5 -95t-24 -79t-43 -69.5t-65.5 -67.5q-2 0 -8 -1t-8 -1q-29 0 -47.5 15.5t-40.5 29.5q-43 27 -91 54.5t-87 62.5t-64.5 79t-25.5 103z" />
<glyph unicode="9" horiz-adv-x="952" d="M20 993q0 -86 15.5 -168t53.5 -145.5t102.5 -102t162.5 -38.5q66 0 114 30.5t81 68.5t51 68.5t27 30.5v-30q0 -20 1 -43t1 -43v-29q-2 -18 -1 -65.5t-4.5 -107t-16.5 -125t-34.5 -119.5t-63.5 -89t-101 -35q-49 0 -73 24.5t-36 61.5t-18.5 80t-19.5 80t-39.5 61.5 t-78.5 24.5q-53 0 -79.5 -32t-26.5 -85q0 -66 29.5 -118t76.5 -88.5t105.5 -56t118.5 -19.5q59 0 118.5 17t108.5 52q102 78 167.5 177.5t103.5 212t52.5 235.5t14.5 246q0 100 -21.5 218t-74 219t-137.5 168.5t-210 67.5q-119 0 -206.5 -55t-146 -142t-87.5 -194.5 t-29 -212.5zM262 1180v16q0 41 2 85t11.5 86t29 79t53.5 65q4 4 17.5 10.5t17.5 6.5h105q2 0 8 -3t8 -5q43 -37 67.5 -83t37 -97.5t15.5 -105.5t3 -110v-65q0 -47 -6 -102.5t-25.5 -104.5t-55.5 -82t-97 -33q-47 0 -79 23.5t-53.5 61.5t-33 87t-17.5 98.5t-7 94.5t-1 78z " />
<glyph unicode=":" horiz-adv-x="301" d="M20 129q0 -16 5.5 -39.5t14.5 -45t23.5 -38t34.5 -16.5q35 0 68 15t58.5 41t41 58.5t15.5 67.5q0 53 -32 80t-81 27q-70 0 -109 -39t-39 -111zM20 926q0 -16 5.5 -40t14.5 -45.5t23.5 -38t34.5 -16.5q35 0 68 15.5t58.5 41t41 57.5t15.5 67q0 53 -32 80.5t-81 27.5 q-70 0 -109 -38.5t-39 -110.5z" />
<glyph unicode=";" horiz-adv-x="309" d="M20 129q0 -51 17.5 -78.5t39 -42t39 -20.5t17.5 -13q0 -16 -9 -29.5t-21.5 -26.5t-21.5 -26.5t-9 -31.5q0 -14 10 -19.5t24 -5.5q27 0 58 34t57.5 82t43 101t16.5 94v52q-14 45 -43 62.5t-70 17.5q-70 0 -109 -39t-39 -111zM29 924q0 -16 5 -40t14 -45.5t23.5 -38 t34.5 -16.5q35 0 68 15.5t58.5 41t41 58.5t15.5 68q0 53 -32 79.5t-81 26.5q-68 0 -107.5 -38.5t-39.5 -110.5z" />
<glyph unicode="?" horiz-adv-x="1161" d="M20 1165q0 -57 26 -97t67 -65.5t90 -37t98 -11.5q23 0 72 4.5t101 14.5t97 27.5t58 41.5v5q0 14 -9.5 22t-21.5 8h-14q-55 -41 -116.5 -55t-129.5 -14q-39 0 -80 8t-74.5 28.5t-55.5 51t-22 78.5q0 70 44.5 126t110 96t140 60.5t136.5 20.5h73q6 -6 30 -11.5t40 -15.5 q72 -33 109.5 -91.5t37.5 -133.5q0 -115 -66.5 -218.5t-162.5 -190.5t-206.5 -153.5t-196.5 -107.5q-10 -6 -18.5 -16.5t-8.5 -22.5q0 -8 9 -10t18 -2h8q16 0 26.5 5t24.5 5q33 0 63.5 -14.5t60.5 -34t59.5 -38.5t60.5 -28h65q61 0 116.5 20.5t106 51.5t97.5 70t92 75 q10 8 14 12.5t4 14.5q0 14 -12 16.5t-23 2.5q-20 0 -40.5 -11.5t-43 -25t-47 -24.5t-51.5 -11q-23 0 -55.5 11t-64 28.5t-58.5 38t-39 37.5q20 29 60 43t69 34q72 47 139.5 99.5t124 113t98.5 132t64 159.5q8 29 17.5 55.5t9.5 57.5q0 82 -56.5 137t-132 89t-149.5 48.5 t-109 14.5q-92 0 -208.5 -35t-220 -100.5t-174.5 -164t-71 -223.5zM420 131q0 -16 5 -39.5t14.5 -46t23.5 -39t35 -16.5q35 0 68.5 15t59 41t41 58.5t15.5 67.5q0 53 -33 80t-82 27q-68 0 -107.5 -38t-39.5 -110z" />
<glyph unicode="A" horiz-adv-x="1777" d="M20 1085q0 -61 29 -112t74 -91t98 -69t103 -45q29 0 54 -22.5t25 -51.5v-12q0 -2 -4 -10t-9 -16.5t-9 -15.5t-4 -9v-4q0 -10 12 -16.5t23 -6.5h8q49 39 80.5 92.5t31.5 116.5q0 70 -30.5 109t-77.5 61.5t-100.5 37.5t-100.5 39.5t-77.5 67.5t-30.5 119q0 59 23.5 106.5 t63.5 79t91 49t106 17.5q72 0 143.5 -33.5t130 -88t94.5 -125t36 -144.5q0 -72 -10.5 -146.5t-34 -145.5t-61.5 -134.5t-95 -112.5q-84 -72 -169 -145.5t-179 -132.5v-17q0 -10 2 -18t16 -8q25 0 49.5 9t51.5 9t66.5 -13t58.5 -32l174 -164q33 -33 78 -43t88 -10 q61 0 114.5 22.5t101.5 58.5t91 79t82 84h8q10 0 27.5 -41t46 -89t69.5 -89t101 -41h8q14 12 35.5 29.5t42 35t36 28.5t17.5 11l131 129q8 10 8 27q0 27 -20 26q-23 0 -40.5 -9t-39.5 -9q-57 0 -82 47t-31 118q-4 43 -4 89q0 30 2 64q4 82 4 155q0 137 1 229.5t4 167t7 144 t9 160.5v51q27 10 44 41.5t34 54.5q10 12 26.5 18.5t16.5 22.5q0 12 -6.5 24.5t-20.5 12.5l-461 -217q-16 -8 -21 -16.5t-5 -22.5q0 -12 11 -20.5t25.5 -20.5t26.5 -31.5t16 -54.5q2 -16 3 -39t2.5 -46.5t2.5 -44t1 -28.5l-13 -33v-710q0 -6 -21.5 -32t-55 -53.5t-73.5 -50 t-75 -22.5q-39 0 -79 25.5t-78 61.5t-72.5 72t-61.5 58q-10 8 -27.5 15.5t-35 15.5t-30.5 16t-13 19q0 2 17.5 17t42 35.5t52 43t45.5 39.5q57 49 110.5 109.5t94.5 128t66.5 142t25.5 152.5q0 121 -38.5 217.5t-110.5 163t-171 102t-218 35.5q-82 0 -160 -31.5t-144.5 -86 t-116.5 -123t-75 -142.5q-16 -51 -21.5 -105t-5.5 -108z" />
<glyph unicode="B" horiz-adv-x="1949" d="M20 1085q0 -72 35 -132t89.5 -104t121 -69.5t131.5 -25.5q23 0 71 9t97 25.5t86 40t37 52.5v4l-13 13l-13 13h-9q-33 -23 -59.5 -39t-54 -27t-58 -16.5t-69.5 -5.5q-55 0 -109.5 17.5t-95.5 51.5t-66.5 82t-25.5 109q0 174 101 261.5t269 87.5h82q80 -18 135.5 -61.5 t91 -102t52 -129t16.5 -146.5q0 -135 -51 -227t-131 -160.5t-177 -127t-190 -126.5q0 -10 5.5 -20t17.5 -10q27 0 51 9t53 9q45 0 90 -22.5t89.5 -57.5t90.5 -76t95 -78.5t102.5 -66.5t110.5 -39h20q16 0 34 -1t32 -1h22q80 0 171.5 18.5t180.5 54t171 88t144 119t99 146.5 t37 172q0 131 -71.5 239.5t-188.5 161.5q-4 2 -16.5 5.5t-24.5 7.5t-23.5 10t-13.5 12l8 8q16 16 52.5 31.5t79.5 31t87 32t76 36.5v5q0 16 -11 26t-26.5 18.5t-32 16.5t-26.5 20q-16 20 -20 47t-15 50q-25 70 -54.5 129t-71.5 102t-100 66.5t-140 23.5q-102 0 -189 -53 q-14 -8 -40.5 -38t-52 -61.5t-45.5 -56.5l-21 -26h-5q-4 0 -23.5 20.5t-47 50t-62 60.5t-67.5 51q-59 41 -126 51t-138 10q-141 0 -247 -43t-174.5 -121.5t-103.5 -188t-35 -245.5zM723 547v4q0 2 35 29.5t78 63.5t81.5 67.5t49.5 42.5q74 84 114.5 188.5t40.5 214.5 q0 47 -5 90t-5 90q0 74 41 132.5t121 58.5q57 0 92 -32t56.5 -77t34.5 -97t30 -91q10 -29 29.5 -60.5t39.5 -60.5v-8q0 -16 -18 -27l-408 -207q-8 -6 -8 -18q0 -27 25 -27h10q2 0 14.5 2t24.5 3t23.5 3.5t15.5 2.5h4q76 0 158 -30t150.5 -83t112.5 -125t44 -154 q0 -63 -25.5 -116.5t-69.5 -93t-100.5 -62.5t-117.5 -23q-86 0 -170 44.5t-165 106.5t-162 129t-163 112q-8 0 -8 8z" />
<glyph unicode="C" horiz-adv-x="1456" d="M18 975q0 -27 1 -52.5t1 -52.5v-155q31 -150 97.5 -281t166 -229.5t230.5 -155.5t291 -57q315 0 577 184q12 6 24.5 22.5t12.5 20.5q0 10 -4 18.5t-14 8.5h-8q2 0 -19.5 -8.5t-50.5 -19.5t-57.5 -21.5t-38.5 -12.5q-41 -12 -84 -15t-86 -3h-35q-172 0 -307 80t-227.5 207 t-141.5 284.5t-49 313.5q0 45 5 102t18.5 118.5t35 120t55 104.5t80 74.5t107.5 28.5q27 0 58.5 -9t58 -25.5t44 -42t17.5 -58.5q0 -18 -49 -48t-107.5 -75t-107.5 -108.5t-49 -145.5q0 -55 27.5 -106t72.5 -101.5t101.5 -101.5t111.5 -106q39 -41 62.5 -73t23.5 -85 q0 -35 -12 -60.5t-30.5 -49t-42 -47t-46.5 -50.5q0 -14 11.5 -16t21.5 -2q25 0 86 30.5t123.5 81t111 114t48.5 126.5q0 68 -31 124t-76 106.5t-98.5 95.5t-98.5 90t-75.5 93t-30.5 105q0 35 18.5 68t47 57.5t64.5 40t71 15.5q47 0 89 -18.5t78.5 -40t67.5 -39t55 -17.5h13 l200 192q8 8 9.5 23.5t1.5 26.5h-37q-23 0 -47.5 2t-40.5 8l-217 104h-33l-201 -164q-4 -4 -10 -7l-6 -3q-6 2 -12.5 9.5t-10.5 16.5t-8 17t-4 10q-37 61 -101.5 92t-131.5 31q-129 0 -233.5 -70.5t-176.5 -176t-111 -229.5t-39 -228z" />
<glyph unicode="D" horiz-adv-x="1732" d="M20 1063q0 -94 28 -178t81 -147.5t130 -101.5t175 -38q45 0 90 6t86 29v12q0 16 -7 28.5t-23 12.5t-27.5 -7t-28.5 -11q-35 -6 -55 -7.5t-51 -1.5q-66 0 -121 29t-95 75t-63.5 105.5t-23.5 120.5q0 102 48 184t125 139.5t172 88.5t189 31q164 0 328 -56.5t294 -160 t212 -248t82 -320.5q0 -78 -20.5 -156.5t-63.5 -142t-107.5 -102.5t-150.5 -39q-55 0 -122 19.5t-141.5 51t-154.5 72.5t-160 84q-12 6 -25.5 7t-27.5 1h-37q-59 0 -114.5 -23.5t-106.5 -59t-97.5 -78.5t-84.5 -82q-2 -2 -2 -9v-8q0 -6 2 -20.5t12 -14.5q16 0 35.5 11.5 t41 24t46 23.5t49.5 11q45 0 88 -14.5t84 -35t79 -45t75 -44.5q139 -78 294 -78q172 0 311.5 76t238 198.5t152.5 278.5t54 315q0 217 -88 376t-227.5 262.5t-312.5 153.5t-343 50q-94 0 -190 -25.5t-182 -73.5t-157 -118t-114 -158q-27 -55 -52.5 -131t-25.5 -141z M532 1071q0 -47 14.5 -86t38 -73.5t52.5 -66.5t59 -65q16 -16 43 -38.5t52.5 -50t44 -57.5t18.5 -63q0 -45 -26.5 -67.5t-61.5 -44.5v-8q0 -16 11 -21.5t24 -5.5q39 0 88 30.5t91 74.5t70.5 95.5t28.5 94.5q0 88 -49 156.5t-107.5 128t-107.5 113.5t-49 114q0 43 22.5 65.5 t55.5 57.5l1 3t1 5q0 18 -23 18q-33 0 -82 -26.5t-95 -69.5t-80 -99.5t-34 -113.5z" />
<glyph unicode="E" horiz-adv-x="1464" d="M8 899q0 -129 38 -267t111.5 -260t181 -214t245.5 -131q37 -10 64.5 -16.5t51 -9.5t47 -4t52.5 -3q29 0 57.5 3t56.5 7h5q18 0 44.5 6t54 15.5t53.5 19.5t44 16q20 8 67.5 29t96.5 46.5t86 51t37 43.5q0 12 -7.5 21.5t-19.5 9.5h-8q-76 -49 -162 -68.5t-174 -19.5 q-176 0 -315.5 78t-235.5 203t-147 283.5t-51 320.5q0 66 11 161t43 183t88 150.5t146 62.5q29 0 62 -10.5t61.5 -30t47 -46t18.5 -56.5v-5q-6 -12 -33 -32.5t-61.5 -47t-75.5 -58.5t-74 -68.5t-55.5 -76.5t-22.5 -81q0 -66 34 -124t86 -115.5t113.5 -114t114.5 -115.5 q23 -25 42.5 -55.5t19.5 -65.5q0 -31 -12.5 -56.5t-32 -47t-43 -41t-43.5 -37.5q-2 -2 -5 -8.5t-3 -10.5l-2 -4q0 -10 15 -12t21 -2q23 0 64 26.5t84 53.5q41 25 79 52.5t66.5 60t46 71.5t17.5 88q0 43 -11.5 76t-31 61.5t-43 57t-47.5 65.5q0 23 13 28t30 5 q37 0 66.5 -16.5t58 -37t58.5 -36.5t66 -16h13q16 0 41.5 17t51.5 43t47.5 56.5t33.5 57.5v28q0 12 -8 15h-23q-49 0 -79.5 15t-56.5 33.5t-54.5 34t-73.5 15.5q-51 0 -89 -28.5t-67.5 -63.5t-49 -63.5t-34.5 -28.5h-4q-29 27 -65.5 59.5t-68.5 70.5t-53.5 78.5t-21.5 81.5 q0 43 21.5 78t55.5 59.5t75 38t78 13.5t73.5 -12.5t71.5 -30t67.5 -36.5t61.5 -36h8l12 11q13 10 29.5 23t33.5 27.5t30 24.5q14 12 36.5 27.5t43 33t36 37t15.5 43.5q0 8 -19.5 12.5t-45 7.5t-50 6t-33.5 7q-31 12 -67.5 29.5t-70.5 32t-59.5 25t-33.5 10.5h-21 q-10 -10 -37.5 -32t-57 -47.5t-57.5 -48t-38 -30.5q-4 -2 -13.5 -8.5t-13.5 -8.5h-4q-6 0 -14 9.5t-15.5 20.5t-12.5 20.5t-5 11.5q-41 47 -93 80t-118 33h-41h-69q-74 -16 -133.5 -60.5t-105.5 -105t-80 -129t-57.5 -136t-37.5 -125t-21 -96.5q-12 -68 -12 -135z" />
<glyph unicode="F" horiz-adv-x="1595" d="M20 1008q0 -90 34 -167t92.5 -135.5t136 -91t168.5 -32.5q14 0 55 4t84 13t75.5 23.5t32.5 32.5q0 14 -9 23.5t-21 9.5q-25 0 -48.5 -7t-47 -15.5t-48 -15.5t-51.5 -7q-66 0 -132.5 20.5t-120.5 63.5t-88 110.5t-34 161.5v70q16 25 21.5 56.5t21.5 56.5q78 117 177.5 168 t238.5 51q86 0 171 -19.5t167 -51.5t158.5 -75t146.5 -92h14q25 0 46.5 17.5t35.5 36.5l271 190q8 4 8 14v13q0 12 -3 19t-20 7q-25 0 -47 -9t-49 -9q-45 0 -88 11t-84 27.5t-82 37t-80 36.5q-106 47 -224 76t-234 29q-129 0 -246 -53.5t-205 -143.5t-140.5 -207.5 t-52.5 -246.5zM184 453q0 -10 15.5 -19.5t33 -23t33 -32t15.5 -46.5q0 -39 -8.5 -77t-18.5 -76t-18.5 -76.5t-8.5 -79.5q0 -92 50.5 -155t125 -100.5t160.5 -54t160 -16.5q117 0 221.5 51t183 135t124.5 191.5t46 220.5q0 111 -34.5 199t-87.5 184l-2 4q0 20 26.5 25.5 t40.5 5.5q47 0 83 -34t69 -63h8q10 0 38.5 34t58.5 73t53.5 69.5t23.5 24.5v17q0 2 -20.5 22.5t-51 46t-65.5 54t-64 51.5h-8q-10 0 -40 -33t-64.5 -77t-70.5 -87t-58 -63l-218 278q-20 23 -28 52.5t-8 60.5q0 20 8 40.5t18 39t18.5 33t8.5 20.5q0 14 -21 14h-6 q-25 0 -61.5 -29.5t-72.5 -70.5t-64.5 -82t-34.5 -62q-8 -25 -9 -37t-1 -36q0 -51 13 -95.5t33.5 -84t47 -77.5t55.5 -77q39 -59 80 -117.5t72.5 -120t52 -128t20.5 -140.5q0 -68 -23.5 -134.5t-66.5 -119.5t-103.5 -86t-131.5 -33q-47 0 -90 15.5t-77 44t-53.5 69.5 t-19.5 90q0 35 8 68t19.5 65.5t19.5 65.5t8 70q0 63 -26.5 108t-69.5 73t-99.5 41t-115.5 13q-18 0 -24.5 -4t-6.5 -22z" />
<glyph unicode="G" horiz-adv-x="1662" d="M10 905q0 -43 10 -80q0 -184 70 -337.5t188.5 -265t277.5 -174t337 -62.5q145 0 280.5 50t240 141t166.5 217t62 278q0 72 -23.5 142.5t-67.5 128.5t-104.5 99t-133.5 54v16l252 182q16 12 21 17.5t5 21.5q0 8 -16 22.5t-37.5 33t-46.5 37t-39 34.5q-16 14 -50 48t-71 70 t-65.5 63.5t-34.5 27.5q-12 0 -42 -19.5t-67 -47t-77.5 -57t-77.5 -52.5q-6 0 -21.5 16.5t-34 38t-37 41t-30.5 27.5q-47 31 -93 47t-104 16h-4q-92 0 -174 -38.5t-152.5 -102t-127 -144.5t-96.5 -167t-61.5 -170t-21.5 -152zM324 948q0 51 6 121t21.5 143.5t42 144 t66.5 126t94 90.5t126 35q18 0 56 -13.5t75 -34t65.5 -46t28.5 -50.5v-4q-4 -4 -17.5 -17t-17.5 -18q-59 -33 -120.5 -67.5t-111.5 -79.5t-83 -102.5t-33 -133.5q0 -61 22.5 -114.5t56.5 -102.5t74 -96t73.5 -95t56 -100.5t22.5 -111.5q0 -27 -18 -51.5t-39.5 -46l-39 -39 t-17.5 -27.5q0 -23 22 -22q4 0 30 14t56.5 32.5t59 38t41.5 29.5q27 18 56.5 44t54 55.5t39.5 63.5t15 71q0 59 -22.5 112.5t-56 102.5t-73.5 96t-74 95t-56.5 100.5t-22.5 109.5q0 41 33 87t76 84t85 63.5t60 25.5q4 -2 35 -31.5t70 -67.5t79 -79t65.5 -65.5t27.5 -26.5 q0 -12 -12.5 -20.5t-22.5 -12.5l-287 -201q-14 -10 -20 -15t-6 -17q0 -4 1 -11.5t9 -7.5h129q25 0 51.5 -15.5t44.5 -27.5q88 -63 131 -156.5t43 -199.5q0 -96 -29.5 -179t-85 -143.5t-135.5 -95.5t-180 -35q-102 0 -188 43t-155 115t-121 165t-87 192.5t-52 197.5t-17 182z " />
<glyph unicode="H" horiz-adv-x="1646" d="M20 219q0 -12 6.5 -17t20.5 -16h4q16 0 29.5 9.5t34.5 9.5q55 0 94 -33t76 -73t80 -72.5t106 -32.5q49 0 95 26.5t88 63.5t79 77t68 68q33 31 60.5 59.5t48 61.5t30.5 72t10 86q0 45 -14 89t-36.5 86t-48.5 81t-50 74v8q0 14 30.5 31.5t66.5 31t63.5 22.5t21.5 9h4 q37 0 77 -18.5t66 -40.5q111 -96 169.5 -215t58.5 -263q0 -119 -47 -225t-127 -192t-183.5 -146t-216.5 -80v-51q76 0 148 27.5t139 58.5q111 49 211 125t177 172t122 210t45 241q0 102 -28.5 189t-78 164t-114 146.5t-135.5 141.5q0 2 -9.5 22.5t-21.5 20.5h-4 q-4 -2 -39 -24.5t-87 -57.5t-111.5 -76t-111.5 -76t-88 -60.5t-40 -27.5h-17q-10 0 -30.5 21.5t-45 53.5t-51 68.5t-48 69.5t-36 56.5t-16.5 25.5q-10 23 -13 48.5t-3 49.5q0 37 17 74t47 66.5t67 48t73 18.5q53 0 89 -32.5t69 -71.5t70 -72t92 -33q39 0 76 14.5t70.5 37 t64.5 50t55 54.5v10q-2 2 -8 8.5t-10 8.5q-72 0 -110 28.5t-70.5 63.5t-74.5 63.5t-122 28.5q-59 0 -127 -24.5t-135.5 -65.5t-131 -96.5t-112.5 -118t-77.5 -129t-28.5 -129.5q0 -84 36.5 -162t96 -159t134.5 -167t148 -184q23 -25 38.5 -53.5t15.5 -63.5q0 -41 -33 -78.5 t-76 -37.5q-47 0 -87 34.5t-81 77.5t-85 78t-99 35q-29 0 -75 -27.5t-89 -62.5t-74 -68t-31 -43z" />
<glyph unicode="I" horiz-adv-x="1239" d="M20 238q0 -18 17 -19q27 0 48 13.5t50 13.5h21q12 0 22.5 -1t24.5 -7q63 -59 117.5 -104.5t108.5 -76t112.5 -47t126.5 -16.5q88 0 185 40t179 106.5t134.5 153.5t52.5 183q0 92 -40 169t-87.5 151.5t-87 150.5t-39.5 166q0 45 21.5 82t53 67.5t70.5 56.5t74 46v31h-19 q-51 0 -94 14t-84 39t-82 58.5t-86 72.5q-63 35 -121.5 49.5t-130.5 14.5q-10 0 -42.5 -1.5t-43.5 -1.5q-68 -25 -117 -46t-88.5 -50.5t-72.5 -76t-70 -121.5q-4 -6 -8 -18.5l-8 -25t-7.5 -22.5t-3.5 -12v-174q0 -12 11.5 -40t15.5 -38q47 -104 135 -164.5t203 -60.5 q8 0 30.5 1t47 5t43 10t18.5 16t-3 19.5t-13 9.5q-23 0 -45.5 -5t-46.5 -5q-61 0 -119.5 19.5t-105 55t-74 88t-27.5 117.5q0 90 26.5 151.5t96.5 115.5q16 12 39.5 27.5t46.5 15.5h147q47 0 92.5 -30t92.5 -65.5t97 -65.5t110 -30h8v-8q0 -10 -11.5 -21.5t-27.5 -20.5 t-32.5 -16.5t-24.5 -11.5q-57 -53 -106.5 -113.5t-49.5 -142.5q0 -96 39 -176t87 -156.5t87 -156.5t39 -174v-62q-12 -29 -29.5 -53.5t-52.5 -24.5q-57 0 -103.5 23t-88.5 56.5t-79.5 73.5t-78.5 74t-88 56.5t-103 22.5q-78 0 -137 -39t-117 -92q-16 -14 -25.5 -20.5 t-9.5 -22.5z" />
<glyph unicode="J" horiz-adv-x="1456" d="M18 84q0 -23 25 -23q29 0 56.5 17.5t62.5 17.5q31 0 61.5 -17.5t60 -44t61.5 -58t67 -62.5q78 -68 167 -107.5t193 -39.5q88 0 183.5 30.5t181.5 83.5t153.5 126t102.5 159q20 51 27 105.5t7 109.5q0 51 -20.5 111.5t-51 126t-69.5 135t-76 141.5q-16 49 -30.5 89 t-14.5 93q0 51 21.5 90t52.5 68t69 51.5t68.5 42t52 38.5t21.5 44q-6 0 -26.5 1t-43.5 1q-20 0 -40.5 1t-26.5 1q-35 4 -65.5 31t-55.5 47q-55 49 -109.5 91t-114 75t-125 51.5t-141.5 18.5q-106 0 -206.5 -43.5t-177 -116t-122.5 -169.5t-46 -206q0 -94 30.5 -180 t87 -150.5t136 -103.5t180.5 -39q72 0 133 10t129 43v12q0 12 -2 26.5t-19 14.5q-23 0 -47 -7t-48.5 -15t-51.5 -15.5t-53 -7.5q-80 0 -151 24.5t-123 71t-82.5 114t-30.5 151.5q0 63 24.5 125.5t67.5 113t101 81t126 30.5q94 0 162.5 -38t131 -84t128 -86t151.5 -44l11 -8 q-2 0 -5 -3t-6 -5q-43 -37 -81.5 -72t-69.5 -73t-48.5 -83t-17.5 -106q0 -111 46.5 -208t102.5 -189.5t102 -182.5t46 -188q0 -45 -20.5 -84t-54 -68.5t-75.5 -47t-85 -17.5q-61 0 -113.5 27.5t-98.5 68.5t-91 90t-93.5 90t-102.5 69t-122 28q-104 0 -185 -54.5t-149 -128.5 q0 -2 -1 -6t-1 -6z" />
<glyph unicode="K" horiz-adv-x="1767" d="M20 199l21 -17q16 0 34 9.5t38 9.5q41 0 72.5 -32t68.5 -70t85 -69.5t122 -31.5q37 0 86 23.5t100 62.5t101.5 89t89.5 103.5t62.5 106.5t23.5 96q0 74 -30 137.5t-66.5 124t-66.5 123t-30 135.5q0 41 11.5 83t35 76t59 54.5t83.5 20.5q74 0 115.5 -42t72.5 -99.5 t59.5 -118t75.5 -96.5v-19q-27 -12 -79 -42t-103 -63.5t-89 -65.5t-38 -48q57 0 99 -11.5t71 -64.5q33 -61 54.5 -122.5t46 -123t57 -122t86.5 -117.5q18 -20 46.5 -45t57.5 -25q8 0 32.5 13.5t55.5 34t64.5 44t61.5 45t46.5 38t18.5 20.5q0 6 -1 13t-10 9q-80 2 -123 26.5 t-72.5 77t-57 134.5t-76.5 196q-45 84 -113 140v8q0 2 24.5 17.5t56.5 36t63.5 39t45.5 28.5q23 14 47.5 23.5t24.5 39.5q0 6 -11 14.5t-26.5 19.5t-30 21.5t-20.5 20.5q-37 59 -66.5 122.5t-67.5 116t-93.5 85t-141.5 32.5q-104 0 -182 -32.5t-128 -92t-75.5 -143.5 t-25.5 -184h-10q-16 18 -31 44.5t-25 58.5t-16 67t-6 65q0 96 47 170t120.5 123t163 73.5t172.5 24.5q100 0 194.5 -32.5t166.5 -100t116 -170t44 -239.5q0 -70 -10.5 -114t-32 -78t-54 -63.5t-77.5 -70.5v-14q0 -20 16 -21q61 0 115.5 43t94.5 107.5t63.5 139.5t23.5 138 q0 41 -13.5 82t-29.5 80q-47 98 -113.5 170t-149.5 119t-180.5 69.5t-203.5 22.5q-174 0 -312.5 -62.5t-273.5 -170.5q-25 -37 -57.5 -75t-55.5 -81q-12 -57 -20 -113.5t-10 -113.5v-17q0 -54 11 -107q13 -61 50 -120q53 -84 130 -181.5t143 -189.5q29 -39 45 -72.5 t16 -80.5q0 -43 -34 -71t-75 -28h-18q-8 0 -15.5 1t-13.5 7l-182 183q-12 12 -27.5 15t-31.5 3h-23q-43 0 -80 -14.5t-70.5 -37t-64.5 -51t-59 -55.5q-2 -4 -5.5 -12t-3.5 -12v-10z" />
<glyph unicode="L" horiz-adv-x="1239" d="M18 295q0 -12 6.5 -23.5t22.5 -11.5q25 0 51.5 13.5t57.5 13.5q45 0 90 -21.5t86 -51.5t79 -62.5t70 -55.5q59 -43 133 -69.5t148 -26.5q63 0 117.5 20.5t102.5 54.5t91 74.5t84 83.5q14 16 38 40t24 53q0 8 -6.5 11t-12.5 3q-23 0 -43 -18.5t-41.5 -40t-46.5 -39 t-51 -17.5h-129q-27 0 -60.5 16.5t-67.5 40t-64.5 47t-51.5 36.5q-10 6 -51 31.5t-86 53t-80 50t-35 24.5q0 8 21.5 26.5t50.5 43t57.5 53.5t44.5 55q18 31 22.5 64t4.5 68q0 74 -28.5 136t-64.5 123.5t-64.5 125t-28.5 139.5q0 117 71.5 187.5t200.5 70.5q90 0 153.5 -30 t102.5 -82t56.5 -122.5t17.5 -150.5q0 -55 -15.5 -108.5t-45 -94.5t-76 -66.5t-107.5 -25.5q-29 0 -53.5 9t-50.5 9q-16 0 -17 -20q0 -25 20.5 -39t49 -20.5t58.5 -7.5t46 -1q117 0 210 50.5t151 148.5q47 98 47 192q0 68 -23.5 131.5t-75.5 122.5q-39 47 -90 80 t-107.5 54.5t-116.5 31t-120 9.5h-26q-14 0 -30.5 -1.5t-29.5 -1.5h-14q-82 -4 -167 -39.5t-154.5 -96t-113.5 -140.5t-44 -168q0 -70 20.5 -133.5t51 -123.5t67.5 -118.5t70 -118.5q8 -10 17 -35.5t9 -41.5q0 -53 -35.5 -108.5t-86 -104.5t-108 -87t-100.5 -55q0 -4 -1 -10 t-1 -8z" />
<glyph unicode="M" horiz-adv-x="2402" d="M20 1112q0 -61 14.5 -123.5t45.5 -115t78 -91.5t114 -53h70q49 0 89 13.5t87 13.5q29 0 41 -16.5t18.5 -37t10.5 -37t16 -16.5q29 0 35 33t6 61v25q0 84 -46 136t-132 52q-53 0 -105.5 -18t-107.5 -18q-43 0 -76 18t-54.5 49t-32.5 69t-11 77q0 68 26.5 124t70.5 97 t103.5 64.5t127.5 23.5q139 0 234 -78t154.5 -193.5t85 -247.5t25.5 -243q0 -51 -3 -105.5t-14 -106.5t-31.5 -101.5t-57.5 -87.5q-16 -20 -42 -46t-57 -26q-39 0 -66.5 31.5t-56 68.5t-63.5 69t-88 32q-47 0 -90 -18.5t-83 -46.5t-75 -61.5t-63 -64.5q-10 -12 -11 -27 q0 -10 6.5 -18t16.5 -8t20.5 7t20.5 15.5t22.5 15.5t26.5 7t23.5 -1t21.5 -9q33 -33 65.5 -68t65.5 -64.5t66 -48t65 -18.5q74 0 133.5 44t106.5 95q162 170 264.5 376t102.5 446q0 113 -28 210t-69 201q-8 10 -17 23.5t-9 27.5t13 24.5t30.5 16.5t35 9.5t27.5 3.5 q57 0 104.5 -29t83 -76t63.5 -105.5t46.5 -120t30.5 -118.5t18 -100q0 -8 4 -41t8.5 -73t7.5 -78t5 -58v-21q0 -18 -1 -55t-6 -82t-15.5 -93t-28 -87t-43 -63.5t-62.5 -24.5q-33 0 -55.5 19.5t-47 42t-55 42t-77.5 19.5q-37 0 -71 -22.5t-64.5 -55.5t-59.5 -71t-55 -70 q-12 -14 -15.5 -18.5t-3.5 -20.5q0 -10 3.5 -16.5t15.5 -6.5q20 0 29.5 6t16.5 12.5t17.5 12.5t34.5 6q33 0 58.5 -20.5t50 -45t53.5 -45t70 -20.5q59 0 96 35t76 78q78 86 146.5 190.5t118.5 218t79.5 234.5t29.5 239q0 100 -19.5 189.5t-41.5 187.5v12q0 20 11 46 t28.5 47.5t40 36t45.5 14.5q68 0 103.5 -25.5t53 -66.5t23.5 -92.5t16 -102.5q10 -63 41 -116.5t72 -100.5v-8q0 -10 -29.5 -40t-68.5 -67t-76 -72.5t-51 -56.5q-45 -66 -62.5 -142.5t-17.5 -154.5q0 -33 1 -55t4 -41.5t8 -40t14 -51.5q10 -31 39.5 -81t66.5 -98t76 -83 t69 -35q8 0 45 28.5t82.5 67.5t88.5 77t63 54l27 31q0 10 -8.5 20.5t-18.5 10.5q-25 0 -46.5 -9.5t-47.5 -9.5q-61 0 -101.5 44t-65 106.5t-34.5 129t-10 111.5q0 168 87 288t253 163v29q0 4 -1 7t-7 9q-39 29 -58.5 57.5t-29 60.5t-15.5 68.5t-20 81.5q-35 115 -124 179.5 t-206 64.5q-63 0 -105 -18.5t-74 -46t-59.5 -61.5t-64.5 -66q-10 8 -14.5 13t-7.5 10t-7 11.5t-14 18.5q-66 72 -133.5 109.5t-167.5 37.5q-47 0 -90 -16.5t-81 -43t-73 -59t-63 -63.5h-9q-90 84 -185 134t-220 50q-115 0 -212 -47t-168 -126t-112 -180t-41 -212z" />
<glyph unicode="N" horiz-adv-x="1898" d="M20 1075q0 -68 24 -131t66 -112.5t99 -80t127 -30.5q47 0 90 13.5t88 13.5q31 0 44 -15.5t21.5 -33t13.5 -33t17 -15.5q31 0 38 32t7 62v37q0 86 -41 138.5t-120 52.5h-5q-6 0 -33.5 -4t-58 -8.5t-57.5 -8.5t-33 -4q-2 -2 -14 -2h-17q-47 0 -82.5 21.5t-58 55.5t-34 76 t-11.5 83q0 70 24.5 119t66.5 80.5t98.5 46t117.5 14.5h66q47 -18 93 -31.5t89 -46.5q80 -59 133 -143t86 -179.5t46.5 -196t13.5 -194.5q0 -25 -4.5 -67.5t-13.5 -92t-24.5 -99.5t-38 -91t-52 -66.5t-68.5 -25.5q-47 0 -78 36t-59.5 78t-64.5 77.5t-91 35.5 q-27 0 -75 -23.5t-96 -56t-83 -65.5t-35 -53q0 -12 2 -20.5t17 -8.5h8q2 0 12 3t22.5 6t23 6t12.5 3h4q43 0 72.5 -35.5t58 -77.5t62.5 -78t83 -36q37 0 67.5 7t57.5 20.5t52.5 33t54.5 45.5q180 160 285.5 362t105.5 450q0 86 -18.5 164.5t-18.5 160.5q0 45 7 89t25.5 78 t52.5 55.5t87 21.5q66 0 100.5 -28.5t53 -74t27.5 -97.5t22 -97q16 -53 39.5 -95t64.5 -79v-25l-158 -157q0 -2 -13 -27t-30 -41q-41 -70 -64.5 -142.5t-23.5 -154.5t16.5 -147.5t48.5 -122t77 -108.5t104 -107q2 -2 8 -5.5t8 -3.5h9l295 279q4 2 7 11t3 14q0 12 -5 15 t-14 3q-23 0 -45 -9t-49 -9q-55 0 -95 40.5t-65.5 97t-38 118t-12.5 102.5q0 129 47 227.5t154 169.5q10 6 31.5 13.5t44 15.5t39 19.5t16.5 25.5q0 12 -10 21.5t-22.5 18.5t-26 19.5t-19.5 22.5q-10 20 -14 33.5t-5 25t-1 25.5t-6 39q-16 70 -49 131t-80.5 107t-108.5 73 t-137 27q-63 0 -120.5 -24.5t-103 -62.5t-77 -85t-43.5 -90q-6 0 -32 27.5t-58.5 62t-66.5 67.5t-52 43q-74 41 -144.5 59.5t-156.5 18.5q-88 0 -172 -30.5t-153.5 -85t-120 -129t-70.5 -162.5q0 -10 -1 -33t-3 -49.5t-3.5 -50t-1.5 -31.5v-21z" />
<glyph unicode="O" horiz-adv-x="1619" d="M20 266q0 -10 4.5 -19t16.5 -9q27 0 49 9t49 9q37 0 75 -16.5t80 -42t86 -56t91 -59.5q84 -51 168 -73.5t180 -22.5q168 0 311.5 67.5t248 181t162.5 262t58 312.5q0 283 -132 476.5t-388 313.5q-4 0 -14 3.5t-12 5.5q-53 33 -124 55.5t-136 22.5q-25 0 -30 -12.5 t-22 -31.5l-104 -104q-16 -16 -39 -26.5t-39 -24.5l-321 -166q-82 -41 -128.5 -121t-46.5 -170q0 -98 39 -162.5t98.5 -108.5t128 -73t128 -53.5t98.5 -50t39 -64.5q0 -23 -11.5 -43t-11.5 -43q41 0 77 28.5t62.5 69.5t42 88.5t15.5 81.5q0 72 -35 116t-87 73t-113.5 50.5 t-113.5 49t-87 68.5t-35 108q0 66 31.5 109t81 69.5t109 37t114.5 10.5q152 0 295 -64.5t253.5 -174.5t178 -251t67.5 -295q0 -82 -22.5 -165t-67.5 -149.5t-110.5 -108.5t-151.5 -42q-72 0 -141.5 22.5t-132.5 55.5q-10 12 -12.5 15.5t-4.5 3.5h-2q-2 0 -5 1t-11 7 q-39 31 -84 69.5t-93 73.5t-100.5 59.5t-105.5 24.5t-99 -17.5t-89 -45t-84 -60.5t-82 -61q-8 -6 -9 -13v-10z" />
<glyph unicode="P" horiz-adv-x="1941" d="M20 1182q0 -86 25 -163t73 -135.5t119.5 -93t163.5 -34.5q18 0 60.5 7t85.5 19.5t75.5 29.5t32.5 40q0 8 -6 21.5t-16 13.5q-4 0 -16.5 -5t-27 -11.5t-26.5 -12.5t-14 -6q-39 -14 -69.5 -20.5t-71.5 -6.5q-68 0 -126.5 24.5t-101.5 68t-66.5 101.5t-23.5 126t27.5 121 t73 91t104.5 57.5t121 19.5q98 0 165.5 -46.5t111.5 -119t67.5 -163.5t35 -179t13.5 -166t2 -125v-182q-10 -12 -27.5 -21.5t-38 -15.5t-40 -11.5t-33.5 -13.5q-27 -14 -60.5 -43t-62.5 -62.5t-49.5 -66.5t-20.5 -57q0 -10 5 -20.5t18 -10.5h4q51 80 137 80q76 0 117 -13.5 t60.5 -43t22.5 -76.5t3 -115v-10v-74q0 -29 -2 -53.5t-8 -58.5q-6 -33 -27 -62t-21 -63h11q43 0 73.5 31.5t53 79.5t38 103.5t28 103.5t21.5 80t19 32h4q66 -29 129.5 -54.5t134.5 -25.5q61 0 123 27.5t120.5 72.5t112.5 103.5t99 121t81 125t58 115.5q20 47 23.5 100.5 t3.5 102.5v10q0 98 -30.5 192.5t-100.5 165.5l-268 271q-23 23 -34 60.5t-11 66.5q0 14 14 40.5t31 49.5v4q0 39 -35 39h-8l-17 -11q-18 -10 -39.5 -23t-43 -25.5t-31.5 -18.5q-92 -49 -176.5 -94t-174.5 -98q-6 0 -29.5 25.5t-53 59t-62.5 67.5t-59 48q-111 61 -234 62 q-104 0 -200.5 -32t-172 -92.5t-121 -147.5t-45.5 -197zM1018 1311q0 12 19.5 29.5t44 31.5t49 24.5t34.5 10.5q8 0 13.5 -11.5t9.5 -26.5t7 -29.5t5 -18.5q33 -72 87 -133.5t117.5 -117.5t127 -111.5t116 -115t85 -128t32.5 -150.5q0 -66 -23.5 -127t-65.5 -110t-99 -79 t-125 -30q-33 0 -77 12.5t-95 33t-104.5 43.5t-104.5 48q-16 10 -30.5 20.5t-14.5 29.5q0 135 13.5 266t13.5 264v149q-2 57 -18.5 114.5t-16.5 111.5z" />
<glyph unicode="Q" horiz-adv-x="1724" d="M14 254q35 0 60.5 15.5t56.5 15.5q33 0 61.5 -11.5t55 -29t51.5 -37t51 -35.5q55 -35 108.5 -67.5t110 -58.5t115.5 -41t125 -15q119 0 219 34.5t199 104.5h8q14 0 35.5 -18.5t48.5 -40t57.5 -39t63.5 -17.5q35 0 80 30t86 72t69.5 89t28.5 82q0 12 -3 18t-20 6h-4 q-20 -20 -39.5 -41.5t-44.5 -21.5q-2 0 -27.5 1t-54 8t-53 22.5t-24.5 44.5q0 14 15 40.5t34.5 55.5t39 55.5t25.5 42.5q27 66 39 138.5t12 142.5q0 150 -37.5 271.5t-109.5 222t-174 179t-234 140.5q-57 27 -118.5 48t-124.5 21q-23 0 -43.5 -16t-41 -38.5t-40 -46.5 t-39.5 -38q-84 -55 -183.5 -97t-186.5 -94.5t-145.5 -129t-58.5 -199.5q0 -94 52.5 -166t138.5 -111l305 -139q12 -6 23.5 -24.5t11.5 -32.5q0 -29 -19.5 -51.5t-19.5 -51.5q45 0 85 25t70.5 62.5t48 84t17.5 87.5q0 70 -34.5 114.5t-87 74.5t-113 54.5t-112.5 54t-87 72.5 t-35 113q0 51 23.5 90t60.5 65.5t83 40t91 13.5q162 0 317.5 -60.5t276.5 -167t194.5 -252t73.5 -315.5q0 -2 -1 -34.5t-7 -70.5t-17 -70t-32 -32q-2 0 -7 1t-7 1q-39 45 -70 62.5t-88 17.5q-47 0 -86 -18.5t-73.5 -46t-65.5 -62.5t-60 -65v-9q0 -10 6.5 -18t16.5 -8 q25 0 45 17.5t59 17.5h25q12 0 23.5 -1t15.5 -8l88 -88q-14 -29 -48 -36t-69 -7h-31q-70 0 -130 26t-116.5 62.5t-107.5 81.5t-105.5 82t-110.5 62.5t-120 25.5q-43 0 -102 -24.5t-111.5 -59t-89.5 -74.5t-37 -73z" />
<glyph unicode="R" horiz-adv-x="2011" d="M20 1081q0 -82 35 -154.5t92.5 -128t131 -88t153.5 -32.5q31 0 79 6t93 18.5t78 32t33 43.5q0 12 -6.5 21.5t-20.5 9.5h-8q-59 -41 -123.5 -55.5t-130.5 -14.5q-68 0 -124 29t-98 75t-65.5 106.5t-23.5 123.5q0 227 209 318q10 4 29.5 10t23.5 6h172q6 0 25.5 -7 t41 -15.5t40 -17.5t24.5 -11q86 -82 142.5 -156t90 -154.5t48 -175t14.5 -215.5q0 -43 -11.5 -119.5t-38 -153.5t-67.5 -133t-100 -56q-37 0 -68 33.5t-65.5 74.5t-76.5 75t-102 34q-43 0 -80.5 -20.5t-71.5 -49.5t-63.5 -61.5t-54.5 -59.5v-14q0 -10 5 -20.5t18 -10.5 q20 0 35.5 14.5t39.5 14.5q45 0 78 -33t65 -73t68.5 -72.5t89.5 -32.5q55 0 115 30.5t118 82t111.5 116t97.5 131t76.5 130t47.5 110.5q27 88 35 168t8 170q0 92 -18.5 181t-18.5 181q0 76 45 130.5t123 54.5q53 0 87 -22.5t57.5 -58.5t41 -82t35.5 -92t43 -88t63 -73 q0 -2 1.5 -3t1.5 -3l-19 -21q-47 -31 -116.5 -73.5t-134 -84.5t-111.5 -76t-47 -48t7 -17.5t17 -3.5h29q45 -6 71.5 -40t41 -78t21.5 -90t13 -79q16 -78 37 -143t52.5 -123.5t76.5 -109t113 -93.5h4q12 0 32.5 13.5t41 31t40 35t29.5 25.5q8 6 29.5 23.5t44 37t44 37 t30.5 23.5v14q0 10 -2 20.5t-15 10.5q-23 0 -39 -10.5t-41 -10.5q-61 0 -95 47t-53.5 112t-28.5 133.5t-21 109.5q-27 84 -60.5 149.5t-97.5 126.5q12 18 33.5 32.5t46 27t50.5 23.5t44 22q18 10 56 31.5t76 44t66.5 45t28.5 34.5q0 27 -17 26t-36 9q-25 16 -39 39 t-24.5 47.5t-17.5 52t-15 54.5q-18 53 -47 100t-69 83t-89 56.5t-110 20.5q-104 0 -186.5 -52.5t-147.5 -130.5q-8 -10 -13.5 -24t-10.5 -29.5t-12 -30t-18 -20.5q-29 25 -49 59.5t-45 61.5q-82 82 -194.5 128t-227.5 46q-121 0 -222 -47t-174 -126t-114 -183.5t-41 -221.5z " />
<glyph unicode="S" horiz-adv-x="1619" d="M18 762q0 -178 62.5 -321.5t171 -243t258 -153.5t321.5 -54q109 0 215.5 25.5t200.5 76.5t169 128t122 179q27 57 44 111.5t17 118.5q0 90 -35.5 176t-97 152.5t-143.5 106.5t-174 40q-80 0 -148.5 -36t-133 -79t-130 -79t-139.5 -36q-29 0 -50.5 11.5t-40 25t-31.5 24.5 t-21 11q-10 0 -18.5 -3t-8.5 -13q0 -18 12.5 -33.5t22.5 -28.5q29 -41 58.5 -83t64.5 -75.5t78 -55t98 -21.5q80 0 148.5 37t133 81t131 80.5t146.5 36.5q98 0 153.5 -64.5t55.5 -156.5q0 -111 -61.5 -181.5t-152.5 -112.5t-196.5 -58t-193.5 -16q-145 0 -277.5 45t-234 130 t-161.5 206.5t-60 277.5q0 86 27.5 175t79.5 162t128 120t172 47q78 0 149.5 -29t141.5 -63.5t140.5 -63.5t148.5 -29q47 0 80.5 9.5t68.5 44.5l227 211q0 10 -12 12t-20 2h-13q-23 -12 -40 -18.5t-33.5 -10.5t-32.5 -5t-37 -1q-41 0 -99.5 16.5t-124 42t-136 56.5 t-138.5 59h-12q-4 0 -29.5 -9t-58.5 -22.5t-63.5 -26.5t-44.5 -22q-137 -68 -255 -144.5t-204 -174.5t-135.5 -224t-49.5 -290z" />
<glyph unicode="T" horiz-adv-x="1619" d="M20 1159q0 -78 27 -147.5t74 -120.5t113.5 -81t146.5 -30q51 0 91 7.5t87 37.5v9q0 8 -6 21t-16 13q-37 0 -74 -17t-78 -17q-61 0 -113.5 23.5t-91.5 64.5t-60.5 95t-21.5 116q0 76 30 137t80 105t116.5 67.5t138.5 23.5q70 0 137.5 -20.5t132 -51t125 -69.5t117.5 -76 q35 -23 69.5 -49t70.5 -48t76 -36t83 -14q49 0 94 22.5t86 55t77 70.5t68 69v8q0 16 -11 21.5t-23 5.5q-27 0 -48.5 -13.5t-52.5 -13.5q-45 0 -96 25.5t-103.5 60.5t-102.5 72t-93 59q-66 35 -127 58.5t-123.5 38t-129 20.5t-140.5 6q-98 0 -192.5 -42t-169 -112.5 t-121 -162t-46.5 -191.5zM37 422q0 -23 22 -23q23 0 42 13.5t44 13.5q20 0 50 -12.5t43 -22.5l337 -295q51 -45 124 -67.5t137 -36.5h104q143 0 255 51t222 147q16 14 25.5 20.5t9.5 22.5q0 20 -22 21q-12 0 -29 -9t-35 -21.5t-34.5 -24t-26.5 -17.5q-41 -20 -84 -27.5 t-88 -7.5q-72 0 -143.5 34t-139.5 83t-129.5 105.5t-110.5 99.5q-27 25 -51 54.5t-52 56t-59.5 45t-72.5 18.5q-37 0 -84 -23.5t-94 -56.5t-90.5 -68.5t-69.5 -60.5v-12zM549 1024q0 -35 13 -78t40 -69l252 -252q18 -18 22.5 -40t4.5 -46q0 -25 -16.5 -45.5t-37 -38t-37 -32 t-16.5 -24.5q0 -27 21 -26q43 0 102 26.5t113.5 68.5t91.5 94t37 106q0 53 -31 109.5t-79 112.5t-108.5 111.5t-119.5 108.5q-12 16 -19.5 29.5t-7.5 36.5q0 25 10.5 41t23.5 30.5t23.5 27.5t10.5 30q-53 0 -105.5 -25t-93.5 -64.5t-67.5 -90t-26.5 -101.5z" />
<glyph unicode="U" horiz-adv-x="1515" d="M20 229q0 -10 8.5 -16t18.5 -6q14 0 27.5 7t27 15.5t28.5 15.5t32 7q68 0 118 -39t98 -87t99 -87t119 -39q59 0 115.5 27.5t97.5 68.5l209 217l8 -10q4 -90 28.5 -151.5t102.5 -116.5q23 -16 42.5 -29.5t47.5 -13.5h13q16 12 43.5 36.5t59.5 56.5l66.5 66.5l65.5 65.5v12 q0 23 -27 23q-16 0 -32.5 -5t-32.5 -5q-37 0 -58.5 26.5t-31.5 61.5v321q0 35 1 122t2 185.5t3 185.5t2 122q6 72 16.5 119t27.5 80.5t42 61t61 60.5q0 2 1 8.5t1 10.5q0 8 -3 17t-13 9l-26 -13q-25 -13 -61 -30.5t-70.5 -36t-53.5 -26.5q-43 -18 -92 -38t-90 -40.5 t-68.5 -39.5t-27.5 -38q0 -18 13 -29.5t28.5 -26t29 -38t13.5 -64.5q0 -23 -2.5 -44t-2.5 -40v-53q0 -10 -1 -42t-2 -75t-2 -91t-2 -91t-2 -74.5t-1 -42.5v-122q0 -37 -4 -66t-17.5 -56.5t-39 -57t-68.5 -70.5q-25 -23 -55.5 -42.5t-65.5 -19.5q-45 0 -93 27t-97 64.5 t-99.5 79.5t-101.5 73q-8 0 -8 8v8q39 45 91 86t99.5 85t80 96.5t32.5 119.5q0 61 -45 126t-98 132.5t-98.5 137t-45.5 143.5q0 35 15.5 66.5t42 56.5t58.5 39t67 14q18 0 42.5 -5t46 -17.5t36 -29.5t14.5 -42q0 -53 -18.5 -82t-51.5 -68v-12q0 -10 4.5 -20.5t18.5 -10.5h4 q49 35 72.5 76t23.5 101q0 47 -21.5 80.5t-55 56t-76.5 33t-84 10.5q-74 0 -143.5 -37t-125 -96.5t-88 -133t-32.5 -145.5q0 -43 8 -88t37 -82l190 -260q20 -29 27.5 -59.5t7.5 -65.5q0 -43 -20.5 -80t-51.5 -67.5t-65.5 -57t-63.5 -51.5q-18 -16 -52 -49t-65.5 -64.5 t-56.5 -57t-25 -27.5v-7z" />
<glyph unicode="V" horiz-adv-x="1890" d="M20 1133q0 -78 25 -153t72 -132t114.5 -92t153.5 -35q43 0 79 7t68.5 20.5t64.5 33t67 43.5q10 8 14 12.5t4 14.5q0 12 -10 19.5t-23 7.5q-18 0 -37.5 -21.5t-36.5 -32.5q-43 -25 -93 -35t-97 -10q-63 0 -116.5 27t-91.5 72t-58.5 102t-20.5 117v6q68 303 359 303 q76 0 148.5 -36t130 -92t92 -124t34.5 -131v-217q0 -18 -10 -53t-28.5 -75t-42 -77t-48.5 -55q-90 -14 -151.5 -30.5t-111.5 -44.5t-97 -72t-109 -113l-2 -4q0 -12 11.5 -17.5t21.5 -5.5q16 0 32.5 9.5t34 21.5t38.5 21.5t46 9.5q39 0 75 -16.5t70 -40t64.5 -51.5t59.5 -48 q92 -72 198.5 -123t225.5 -51q98 0 197.5 28.5t188.5 80t162.5 124t120.5 158.5q18 33 29.5 71t32.5 68v51q0 61 -21.5 110.5t-55.5 92.5t-76 82t-83 80q-16 23 -29.5 49.5t-13.5 54.5q0 53 36 93.5t78 70t78 49t36 31.5t-11 17q-31 14 -50 29.5t-33.5 34.5t-28 44t-27.5 57 q-2 4 -11 30t-13 30q-51 66 -119 106.5t-152 40.5q-94 0 -177 -41t-134 -123q-4 -6 -9 -17t-11.5 -25.5t-14.5 -26.5t-18 -19q-35 29 -61.5 65t-59.5 66q-63 57 -152.5 77t-171.5 20q-109 0 -207 -39t-173.5 -108.5t-120 -164t-44.5 -206.5zM784 504v18q61 57 116.5 121 t97.5 133.5t67 148.5t25 167q0 66 -5.5 129t-5.5 129v73q20 47 54 77t86 30q57 0 95 -45t71.5 -106.5t70.5 -123t92 -92.5v-16q-33 -33 -62.5 -65.5t-53 -67.5t-37 -75t-13.5 -87q0 -80 41 -138.5t90.5 -112.5t90.5 -111.5t41 -135.5q0 -49 -21.5 -88t-56.5 -65.5t-80 -41 t-90 -14.5q-37 0 -68 6.5t-65.5 20.5t-78.5 40t-106 67q-37 25 -76.5 55.5t-77.5 62t-74 60t-67 47.5z" />
<glyph unicode="W" horiz-adv-x="2332" d="M18 1143q0 -86 27 -161t77 -130t120.5 -87t158.5 -32q35 0 83 8.5t91 21.5t74 32.5t31 42.5q0 27 -27 26q-10 0 -23.5 -7t-28.5 -15t-28.5 -17.5t-21.5 -11.5q-25 -10 -63.5 -18.5t-67.5 -8.5q-72 0 -130.5 22.5t-101.5 64.5t-66.5 99.5t-23.5 127.5t27 128t73 98 t106.5 62.5t127.5 22.5q96 0 176 -38t136.5 -101.5t88 -147.5t31.5 -178q0 -121 -48 -218t-128 -185q-18 -20 -21 -27.5t-20 -7.5q-25 0 -47 5t-47 5q-53 0 -101.5 -16.5t-92.5 -43t-85 -59t-79 -63.5q-8 -6 -9.5 -8t-1.5 -6v-9q0 -23 19 -22q33 0 66.5 22.5t70.5 22.5 q45 0 90 -18.5t76 -51.5l182 -192q39 -39 93.5 -54.5t105.5 -15.5q92 0 165.5 34t147.5 81q29 16 53.5 38.5t59.5 22.5h12q10 0 14 -2q45 -37 88 -71.5t90.5 -61.5t98.5 -42t110 -15q102 0 207 47t189 125t137 177t53 204q0 92 -41 148t-90 99t-90 82t-41 93q0 43 22.5 72.5 t55.5 50t70.5 34t70.5 23.5v16q0 16 -10 25.5t-23.5 17.5t-27 17.5t-19.5 25.5q-29 86 -68.5 160t-95 127t-127 84t-163.5 31q-106 0 -194.5 -49.5t-166.5 -116.5h-8q-16 0 -31.5 25.5t-36 57t-49 57.5t-71.5 26q-41 0 -71 -27t-52.5 -57.5t-40 -57t-31.5 -26.5 q-100 86 -201.5 131t-230.5 45q-109 0 -206 -38t-170 -106.5t-115 -163t-42 -204.5zM715 473v10q59 53 126.5 111.5t124 121t93.5 128t37 133.5v235q0 27 -9.5 51.5t-21.5 48t-21.5 48t-9.5 51.5q0 20 14.5 39.5t36 34t44 23t38.5 8.5h17q14 0 29.5 -1.5t21.5 -7.5l88 -92 q0 -18 -17.5 -38.5t-27.5 -35.5q-41 -61 -67.5 -120.5t-26.5 -135.5q0 -84 33.5 -157.5t74.5 -145t75 -145.5t34 -158q0 -59 -26.5 -112.5t-70.5 -93.5t-99.5 -63.5t-112.5 -23.5h-48l-69 45zM1391 1325q0 37 15 73t42 63.5t61.5 45t73.5 17.5q61 0 104.5 -24.5t75 -64.5 t56 -90.5t48 -100.5t53.5 -95t71 -76v-18q-29 -25 -57.5 -53.5t-53.5 -60.5t-40 -67.5t-15 -76.5q0 -55 21.5 -98.5t55 -79t71.5 -67.5t72 -65.5t55.5 -72.5t21.5 -88q0 -76 -49.5 -125t-124.5 -49q-51 0 -96.5 21.5t-86.5 53t-77.5 68.5t-69.5 65q-23 20 -56 31.5t-49 38.5 q53 51 92.5 124t39.5 151q0 88 -40 161.5t-87.5 146t-87 147.5t-39.5 165z" />
<glyph unicode="X" horiz-adv-x="1499" d="M18 1190q0 -74 24 -143.5t67 -123t105 -85t140 -31.5q10 0 34 1t48.5 6t43 16.5t18.5 29.5q0 10 -5.5 18.5t-15.5 8.5q-33 0 -63.5 -13.5t-63.5 -13.5q-51 0 -98 22.5t-83 59.5t-57.5 84t-21.5 98q0 98 56.5 172t142.5 111h78q162 0 255 -97.5t93 -262.5q0 -31 -18.5 -64 t-45 -63.5t-55.5 -57t-47 -45.5v-24q14 0 33.5 2t42.5 2q33 0 57.5 -9.5t24.5 -39.5v-27q-10 -53 -19.5 -130t-31 -148.5t-57.5 -123t-97 -51.5q-33 0 -58.5 16.5t-50 37t-51.5 37t-59 16.5q-31 0 -70 -31t-75 -77t-60.5 -98t-24.5 -97q18 0 28.5 7t20 14t19.5 14.5t26 7.5 q39 0 65 -18.5t52.5 -40t57 -39t79.5 -17.5h45q94 68 150.5 171t91.5 212q2 2 5 15.5t7.5 26.5t7.5 24.5t7 11.5h8q20 -129 80.5 -240.5t179.5 -175.5q31 -16 76 -38.5t80 -22.5q18 0 48 26.5t66.5 65.5t76.5 84t79 84v8q0 14 -9 20.5t-20 6.5q-29 0 -55.5 -9.5t-56.5 -9.5 q-78 0 -138.5 40t-100.5 101.5t-60.5 136t-20.5 142.5q0 18 2 52t8 42l9 12h225q6 0 25.5 28t40 60.5t38 60.5t17.5 30t1 6t1 6q0 8 -2 15t-13 7h-4q-10 0 -34.5 1t-52 2.5t-52 3.5t-35.5 2h-35q-18 0 -49.5 2t-53 4t-26.5 2l-10 8q0 -10 0 10q0 23 3 61t11.5 85t25 88 t42 68.5t62.5 27.5h22q41 -20 93.5 -45t101.5 -25q31 0 55.5 26t45 62.5t36.5 78.5t33 75v18q0 10 -2 18.5t-17 8.5q-18 0 -36.5 -18.5t-45.5 -18.5q-29 0 -51 15.5t-46 34t-50.5 33.5t-59.5 15q-37 0 -59 -17t-38.5 -43t-30 -54.5t-33.5 -50.5l-78 -217h-8 q-23 84 -63 155.5t-97 123.5t-132 82t-165 30q-109 0 -193 -33t-140 -93.5t-86 -145.5t-30 -189z" />
<glyph unicode="Y" horiz-adv-x="1828" d="M20 1018q0 -4 10.5 -34t16.5 -44q41 -106 131 -166.5t205 -60.5q78 0 154.5 18.5t126.5 85.5v6q0 10 -8.5 20.5t-18.5 10.5q-2 0 -5 -1l-3 -1q-53 -45 -105.5 -65.5t-124.5 -20.5q-68 0 -125 23.5t-98 64.5t-63.5 99.5t-22.5 125.5q0 70 28.5 128.5t76 101.5t109 66.5 t128.5 23.5q98 0 175 -48t130.5 -122t81 -165t27.5 -177q0 -111 -38 -209t-99.5 -187.5t-137 -168t-151.5 -146.5q-10 -12 -10 -26q0 -12 8 -15.5t18 -3.5q16 0 26.5 5t26.5 5q49 0 89 -24.5t80 -53t82 -53t91 -24.5q39 0 83 14t69 45l182 227q4 0 6.5 8.5t4.5 12.5 q0 4 -9.5 9t-17.5 13h-8q-35 -33 -73 -60.5t-85 -27.5q-20 0 -61 17.5t-85 41t-81 48t-49 41.5q49 49 111.5 113.5t115.5 138t90 153.5t37 160v354q0 76 46 126t118 50q63 0 99 -37.5t56.5 -93t32.5 -115t31 -102.5q4 -12 17.5 -28.5t26.5 -33t23.5 -32.5t10.5 -29v-8 q-41 -20 -86 -51t-82 -71t-60.5 -88t-23.5 -99q0 -59 29.5 -117.5t65.5 -118t65.5 -119t29.5 -116.5v-174q0 -14 -9 -35.5t-22.5 -44.5t-26.5 -41t-20 -27q-84 -100 -196.5 -145t-241.5 -45q-98 0 -174 21.5t-138.5 58.5t-115.5 87t-104 109q-6 10 -11 11h-4q-30 0 -30 -31 q0 -18 16 -39.5t29 -34.5q117 -125 246.5 -189.5t306.5 -64.5q68 0 152.5 17.5t172.5 53.5t172 88t149.5 121.5t105.5 157t40 189.5q0 86 -32.5 162t-72.5 146.5t-73 140t-33 145.5q0 47 26.5 84t66.5 64.5t86.5 47t82.5 35.5q0 2 1 10.5t1 10.5q0 12 -9 22.5t-22.5 20.5 t-26.5 19t-21 20q-14 51 -33 114.5t-46.5 123t-67.5 108.5t-97 71q-16 6 -42 15.5t-28 9.5h-147q-43 -27 -76 -42t-58.5 -33.5t-49 -48.5t-50.5 -83q-4 -10 -8 -27.5t-18 -17.5q-4 0 -15.5 12.5t-24 29t-25.5 33.5t-21 30q-39 45 -90.5 75.5t-107.5 51t-115.5 29.5t-116.5 9 q-72 0 -139.5 -24.5t-125 -67.5t-102.5 -100t-72 -121q-4 -10 -10 -26.5t-11 -33t-9.5 -28.5t-4.5 -14v-209z" />
<glyph unicode="Z" horiz-adv-x="1429" d="M20 4v-8q0 -16 4.5 -23.5t20.5 -7.5q25 0 43 10.5t47 10.5q25 0 44.5 -4.5t39.5 -24.5l209 -207q2 -2 12.5 -8t14.5 -10q39 -23 70.5 -38.5t62 -24.5t64.5 -13t79 -4q131 0 253 54t216 144.5t151.5 210t57.5 252.5q0 119 -42 211t-132 170q-10 10 -42 23.5t-64.5 26 t-58.5 21.5t-26 13l9 13q57 29 107 65.5t88 81.5t60.5 101.5t22.5 123.5q0 82 -27.5 147.5t-74.5 114t-112.5 82t-141.5 56.5q-6 2 -19.5 5t-15.5 3h-209l-15 -4q-14 -4 -33 -9.5t-39.5 -11.5t-33.5 -10q-74 -23 -135 -63.5t-107 -96t-72 -124t-26 -144.5q0 -68 23.5 -126 t65.5 -101t99.5 -68t125.5 -25v46l-25 8q-43 12 -82 30.5t-69.5 46t-48 65.5t-17.5 89q0 68 38 118t95 82t123 48t121 16q70 0 136.5 -18.5t117.5 -56t82.5 -95t31.5 -135.5q0 -96 -54 -160.5t-134 -109.5t-170 -72.5t-162 -46.5q-8 -2 -9 -9t-1 -13q0 -4 1 -17.5t9 -13.5 h209q4 0 37 -9.5t49 -15.5q70 -29 130.5 -78t104.5 -111.5t69.5 -135t25.5 -148.5q0 -59 -17.5 -114.5t-51 -98.5t-84 -69.5t-115.5 -26.5q-51 0 -104.5 21.5t-88.5 58.5l-225 233q-31 33 -81 51.5t-95 18.5t-84 -13.5t-76 -35t-70.5 -48t-70.5 -51.5q-8 -2 -9 -14z" />
<glyph unicode="a" horiz-adv-x="960" d="M20 516q0 -74 19.5 -136.5t50.5 -117.5t72 -108.5t84 -110.5q10 -14 14 -28.5t25 -14.5l247 190l35 19q14 -31 24.5 -53.5t23 -42t31 -36t50.5 -34.5q8 -4 22.5 -11t29 -14.5t24.5 -12.5t12 -5h9l129 217q12 4 15 10t3 17v12q0 8 -2 15.5t-12 7.5q-16 0 -30.5 -14.5 t-35.5 -14.5q-23 0 -41 19.5t-18 41.5v520q0 35 22.5 65t46.5 48v6q0 4 -29.5 21.5t-70.5 40l-82 45t-61 35.5q-37 27 -68 59.5t-70 54.5q-14 0 -38.5 -31.5t-49.5 -56.5q-72 -76 -140 -134t-121.5 -121.5t-86.5 -144.5t-33 -202zM246 602v45q0 96 19.5 179t76.5 163 q6 8 16 8h9q8 -6 30.5 -26.5t30.5 -26.5q12 -10 33.5 -22.5t45 -26.5t43 -30.5t25.5 -33.5v-198q0 -18 -1 -68.5t-2 -106t-3 -104.5t-2 -67q-23 -29 -45 -45.5t-57 -16.5q-41 0 -77 30t-62.5 72t-45 88t-26.5 79q-6 29 -7 54t-1 54z" />
<glyph unicode="b" horiz-adv-x="944" d="M20 1520q0 -4 7.5 -13.5t15.5 -21.5t16.5 -26.5t12.5 -26.5q35 -66 48 -135.5t13 -141.5v-739q0 -41 -13.5 -67.5t-30.5 -45t-30.5 -32t-13.5 -25.5t2 -13.5t16 -7.5q98 -39 179.5 -82t169.5 -108q16 -8 24 -22.5t27 -14.5q2 0 8 1t10 1q47 82 122 154.5t146.5 147.5 t123 159t51.5 192q0 68 -14.5 126.5t-40 112.5t-58.5 105.5t-70 104.5q-8 10 -13 24.5t-11 26.5t-14.5 20.5t-22.5 8.5q-2 0 -34 -19.5t-76 -47.5t-93 -60.5t-84 -57.5h-8q-2 2 -5 5.5t-3 5.5v381q0 74 33.5 111.5t74.5 56t75 24.5t34 18q0 25 -21 25q-100 0 -194 -47 t-160 -119q-2 -4 -11 -17.5t-20.5 -29.5t-22.5 -28.5t-20 -12.5q-10 10 -26.5 39t-31.5 59.5t-27.5 54t-16.5 23.5q-2 0 -3 -1t-3 -1l-17 -20v-4zM369 356v572q0 10 14 20t32.5 17.5t38 12.5t29.5 5q53 0 94 -48t68 -114.5t40 -135.5t13 -112q0 -98 -22.5 -172.5 t-81.5 -156.5q-2 -4 -8 -10.5t-11 -8.5h-4q-18 0 -53 21.5t-67.5 47t-57 45t-24.5 17.5z" />
<glyph unicode="c" horiz-adv-x="727" d="M20 602q0 -61 6.5 -125.5t24 -124t47 -115t78.5 -98.5q41 -37 86 -67.5t80 -71.5h4q18 0 40 15.5t42 19.5l279 155v23q0 8 -2.5 15.5t-10.5 7.5q-39 0 -70.5 -13.5t-74.5 -13.5q-94 0 -154.5 59.5t-96.5 145.5t-49 180t-13 162v32q0 29 2 65t7 77t17 75.5t31.5 57 t50.5 22.5t50.5 -45t34.5 -98t28.5 -98t31.5 -45h9l32 11q31 11 68 25.5t68.5 29t31.5 20.5v8q-10 31 -32.5 82t-46 101t-46 87t-32.5 37q-59 0 -124 -19.5t-118 -52.5q-80 -49 -133 -102t-86 -116.5t-46.5 -139.5t-13.5 -168z" />
<glyph unicode="d" horiz-adv-x="952" d="M20 1386q0 -78 31 -130t79 -91t108.5 -69.5t119.5 -63.5q4 -4 14.5 -13t12.5 -13q-20 -27 -50 -42.5t-62.5 -24.5t-66.5 -13t-65 -6l-8 -35v-504q0 -29 -12 -45.5t-26.5 -29.5t-27 -24.5t-12.5 -25.5v-14q92 -35 178 -80t152 -119q8 -10 13 -22.5t22 -12.5h8 q98 43 189.5 104.5t161 140.5t111.5 176t42 212q0 137 -30 234.5t-88 169t-146 127t-205 112.5q-35 16 -84 31.5t-94 37t-77 53.5t-32 81q0 31 13.5 46t31 25.5t30.5 17.5t13 19q0 16 -15.5 21.5t-27.5 5.5q-47 0 -85 -21.5t-63.5 -55.5t-39 -76t-13.5 -83zM367 684v123v121 l34.5 34.5t42.5 18.5q27 0 43.5 -10t44.5 -27q55 -31 93.5 -78t62 -103t34.5 -116.5t11 -120.5q0 -16 -6 -68t-19.5 -107.5t-34 -99.5t-48.5 -44q-8 0 -45 19.5t-78 44t-74 45t-35 22.5l-16 16l-2 39t-3 91.5t-3 107.5t-2 92z" />
<glyph unicode="e" horiz-adv-x="735" d="M20 584q0 -94 9.5 -163t36 -126t71.5 -109.5t117 -113.5q29 -25 45 -48.5t53 -23.5q4 0 10 1l5 1l329 209l1 3t1 7q0 10 -3 17.5t-15 7.5q-33 0 -64.5 -13.5t-66.5 -13.5q-59 0 -113.5 32t-96.5 80t-67.5 106.5t-25.5 111.5q0 12 34.5 30.5t87 40t113 44t112.5 43t87 37 t35 26.5v4q-6 18 -17.5 56t-27 83t-31.5 93.5t-32.5 87.5t-33 63.5t-28.5 24.5h-8q-37 0 -90.5 -14.5t-88.5 -28.5q-98 -41 -163.5 -94.5t-104.5 -122t-54.5 -152.5t-15.5 -186zM226 758.5q-1 23.5 1 58.5t7.5 78t16.5 80t31.5 61.5t51.5 24.5q12 0 23.5 -21.5t21.5 -49 t18.5 -55.5t14.5 -40q4 -10 14 -34.5t20.5 -51.5t18.5 -47.5t8 -22.5q0 -12 -29.5 -29.5t-67.5 -34t-76 -28.5t-54 -12q-15 0 -17 8v19q0 14 -1 29.5t-1 27.5v20q0 -4 -1 19.5z" />
<glyph unicode="f" horiz-adv-x="718" d="M20 1034q16 -8 27.5 -9t46.5 -1h29q12 0 18 2l19 -18v-140l78 -884q0 -10 -1 -25.5t-1 -34.5q0 -41 2 -92t7 -97t14 -77t22 -31h8q2 4 6 29t10 58.5t11.5 71.5t10.5 70.5t8 56.5t3 28l90 884v62q0 12 2 32.5t3 40t3 34.5l2 14l17 18q39 2 90 5t92 11q6 23 8 37.5t2 34.5 v8q0 10 -3 19.5t-15 13.5q-18 0 -41 -1t-47 -1q-49 0 -102.5 6t-98.5 24.5t-73.5 54.5t-28.5 95q0 35 19 68t58 33q27 0 51.5 -7.5t49 -15.5t49 -15t51.5 -7q41 0 75 25.5t58.5 63.5t38.5 81t14 79q-16 0 -26 -8t-21.5 -17t-22.5 -16.5t-30 -7.5q-31 0 -60.5 9.5t-59 21.5 t-59.5 21.5t-61 9.5q-55 0 -88.5 -30t-51 -74t-23.5 -92t-6 -85q0 -20 1 -38.5t1 -35.5q0 -43 -5.5 -78.5t-21.5 -64.5t-49 -52.5t-90 -39.5q-2 -2 -5.5 -8t-3.5 -11v-8z" />
<glyph unicode="g" horiz-adv-x="917" d="M20 504q0 -74 20.5 -138.5t51.5 -125t64.5 -121t62.5 -127.5h10q49 25 113 56.5t121 59t100 47t51 19.5q14 0 24.5 -28.5t15.5 -66.5t7.5 -74t2.5 -48v-31q0 -57 -11.5 -109.5t-38 -92t-70.5 -64.5t-108 -25q-66 0 -100.5 36t-61 78t-57.5 78t-86 36q-37 0 -56.5 -26.5 t-19.5 -61.5q0 -55 34 -92t82 -59.5t102.5 -32t95.5 -9.5q53 0 104 5t102 24q66 23 124.5 70t102.5 107t69.5 130t25.5 139v13q0 6 -2 23.5t-3 37t-2 36.5t-1 23q-14 51 -31.5 120t-32 130.5t-23.5 105.5t-9 48v53q0 86 23.5 147.5t80.5 125.5q0 2 1 7t1 7q0 10 -32.5 28.5 t-79 40t-93.5 44t-76 38.5q-14 8 -36.5 25.5t-45 36t-42 32t-27.5 13.5q-10 0 -18.5 -10.5t-15.5 -24.5t-12 -27.5t-9 -19.5q-2 -2 -9.5 -10t-15.5 -17.5t-16.5 -18.5t-12.5 -13q-61 -68 -122.5 -123.5t-108.5 -115.5t-77 -133t-30 -175zM254 612q0 20 9 74.5t24.5 112 t37 102.5t48.5 45h12q72 -51 137.5 -85t139.5 -70l10 -15v-4q-51 -72 -79 -144.5t-28 -160.5q0 -59 18.5 -112.5t18.5 -112.5q0 -16 -15.5 -27.5t-36 -19t-42 -10.5t-33.5 -3q-63 0 -105 51.5t-68 121t-37 142t-11 115.5z" />
<glyph unicode="h" horiz-adv-x="901" d="M20 1483q51 -74 74 -156t23 -172q0 -205 -5.5 -397.5t-5.5 -403.5v-69q-2 -16 -13 -29.5t-23.5 -26t-22.5 -23.5t-10 -24q0 -14 11 -22t26.5 -14.5t32 -11.5t26.5 -13q6 -6 19.5 -15.5t25.5 -19.5t21.5 -17.5t11.5 -9.5q14 -12 33.5 -36.5t46.5 -24.5l33 32q32 31 71 72 t71 81t32 59q0 18 -19 18l-51 -45h-8q-6 2 -19.5 9t-27 16.5t-22.5 18.5t-9 17v652q0 8 12.5 17t28.5 17.5t30.5 13.5t18.5 5q2 0 10.5 -3t12.5 -7q59 -53 98 -121t61.5 -141.5t31.5 -152.5t9 -155q0 -113 -38.5 -207t-100 -177t-137.5 -157.5t-150 -148.5 q-8 -4 -30.5 -19.5t-22.5 -31.5q0 -12 7 -23.5t20 -11.5l407 348q55 70 104.5 131.5t86.5 127t58.5 139t21.5 170.5q0 117 -33 213t-80 200q-6 12 -24.5 48t-39 76t-37 71t-18.5 31l-20 -9q-72 -41 -134.5 -80.5t-136.5 -93.5h-14q0 57 -2 110.5t-2 104.5q0 74 9 137.5 t42 111.5t92.5 77t161.5 33v41q-61 0 -113.5 -4t-98.5 -16.5t-92 -34t-95 -56.5q-12 -8 -28.5 -34.5t-33 -56.5t-30 -52.5t-17.5 -22.5h-4q-6 14 -16.5 43t-22.5 58.5t-27.5 51t-29.5 21.5q-16 0 -17 -16v-10z" />
<glyph unicode="i" horiz-adv-x="552" d="M20 918q0 -8 1.5 -16.5t11.5 -8.5h4q18 6 29.5 25.5t27.5 19.5h4q6 -4 29 -20.5t23 -24.5v-666q0 -49 18 -86t48 -65.5t68 -51t74 -40.5h9q6 0 26.5 28.5t45 67.5t48 78t37.5 59q4 10 6 13t2 14q0 18 -18 18q-16 0 -25.5 -14.5t-25.5 -14.5q-29 0 -53.5 26t-24.5 54v555 q0 35 29.5 55.5t56.5 30.5v19q-39 23 -68.5 44t-57.5 45.5t-55.5 53.5t-60.5 64h-6q-6 0 -38.5 -39t-69.5 -87t-66 -90t-29 -46zM176 1432q0 -16 5 -40t14.5 -46.5t23.5 -38t35 -15.5q35 0 68.5 15.5t59.5 40t41 57.5t15 68q0 53 -32.5 79.5t-81.5 26.5q-68 0 -108 -37.5 t-40 -109.5z" />
<glyph unicode="j" horiz-adv-x="491" d="M20 -442q0 -16 15 -17h6q47 0 87 17.5t76 44t65.5 60.5t54.5 69q8 10 16 27.5t18 23.5q14 -6 21.5 -43t14.5 -79t18.5 -74.5t33.5 -32.5q0 37 -9 78.5t-21.5 89t-21.5 95.5t-9 97v952q0 35 29.5 55.5t56.5 30.5v17q-39 23 -69.5 45t-58.5 46.5t-55.5 53.5t-60.5 64h-4 q-4 0 -21.5 -18.5t-40 -47.5t-47 -61.5t-46 -62.5t-35 -50t-13.5 -25q0 -6 1.5 -14t11.5 -8h4q16 6 28.5 25.5t28.5 19.5q23 0 34 -13.5t16.5 -32t6.5 -41t1 -40.5q0 -272 -8.5 -543.5t-18.5 -541.5q-2 -4 -5 -13.5t-5 -13.5q-6 -18 -21.5 -41t-32 -44.5t-29 -36.5 t-12.5 -17zM176 1427q0 -16 5 -39.5t14.5 -45t23.5 -38t35 -16.5q35 0 67.5 15.5t58.5 41t41 57.5t15 66q0 53 -31.5 81t-80.5 28q-68 0 -108 -39t-40 -111z" />
<glyph unicode="k" horiz-adv-x="665" d="M20 981q0 -4 1.5 -13.5t7.5 -9.5h121v-628q0 -43 -25 -72t-53 -57q0 -2 -1 -5.5t-1 -5.5q0 -8 11 -14t24.5 -12t26.5 -10t18 -7q14 -6 48.5 -31.5t71.5 -53t67 -49t34 -21.5h6q16 0 48 43t63.5 94t55 94t23.5 41q0 8 -2 15.5t-12 7.5h-4q-6 -4 -13.5 -14.5t-13.5 -20.5 t-13 -18.5t-15 -8.5q-10 0 -26.5 7.5t-34 16.5t-31 20.5t-17.5 17.5q0 25 -1 75t-2 112.5t-2 133t-2 133t-1 111.5v76v6q0 8 8 12t17.5 6t17.5 2h8h190l19 9v120h-217q-8 0 -9 6.5t-1 10.5v6q0 33 28.5 51.5t66.5 29.5t75.5 14t56.5 5q0 8 1 27.5t2 41t3 41t2 27.5v27 q-2 8 -5 35t-3 35h-19q-43 0 -76.5 -25.5t-61 -62.5t-48 -78t-35.5 -70q-10 0 -12 16.5t-2 32.5v17q0 59 13.5 116.5t47.5 104.5q18 25 50 36t65 20t56.5 21.5t23.5 37.5q-53 0 -109.5 -8.5t-109.5 -27t-100.5 -49t-81.5 -73.5q-14 -16 -28.5 -46t-33.5 -40q-23 14 -36 43 t-26.5 56.5t-32 49t-50.5 21.5q0 -18 3 -28.5t8 -16.5t12 -14.5t18 -24.5q39 -57 63.5 -120.5t24.5 -133.5q0 -59 -21.5 -96t-48.5 -58.5t-48.5 -34t-21.5 -24.5z" />
<glyph unicode="l" horiz-adv-x="614" d="M20 1524q0 -18 11.5 -42t26 -48.5t28.5 -50t20 -46.5q23 -70 30 -141.5t7 -142.5q0 -160 -5 -320t-5 -319v-92q0 -4 1 -7.5t1 -7.5q0 -23 -12 -37t-27.5 -25.5t-28 -23.5t-12.5 -31v-8q78 -35 131.5 -81t120.5 -109h8q18 0 27 8l209 240v4q-4 4 -12.5 12t-10.5 6 q-4 0 -4 -2l-53 -43h-10q-49 0 -71 41q-20 42 -26 102q-3 33 -4 68q0 28 2 60q4 68 5 124q0 133 1 230.5t2 180.5t3 163t4 178q0 57 15.5 93t42 59.5t64.5 37t87 27.5q6 2 8 11.5t2 17.5v8q-66 0 -136.5 -15.5t-131 -46t-106.5 -76.5t-62 -108h-19q-16 35 -40.5 87t-53.5 87 h-10q-16 0 -17 -22z" />
<glyph unicode="m" horiz-adv-x="1490" d="M20 928q0 -14 19 -15q18 0 29.5 14.5t33.5 14.5q23 0 40.5 -19.5t17.5 -41.5v-566q0 -23 -12.5 -39t-28 -29.5t-27.5 -24.5t-12 -21q0 -12 17.5 -29.5t40 -36t44 -36t29.5 -25.5q6 -6 14 -19.5t17.5 -27t20.5 -23.5t22 -10h14q8 18 38 52t61.5 67.5t57 59.5t25.5 30 q0 8 -12 19t-27.5 26.5t-28 34t-12.5 43.5v563q0 8 16.5 23.5t38 29.5t44 24.5t32.5 10.5q25 0 43.5 -12.5t33 -32t21.5 -43t7 -43.5v-504q0 -35 -12.5 -56.5t-27.5 -37t-27.5 -25.5t-12.5 -20v-8t2 -9q59 -49 100 -89t82 -103h9q8 0 18 12t22.5 28.5t23.5 34t22 29.5 q8 10 27.5 22.5t39 27t33.5 30t14 31.5q0 8 -12 18.5t-27.5 23.5t-28 31.5t-12.5 43.5v563q0 4 15.5 18.5t36 29.5t41 27.5t30.5 12.5q12 0 29.5 -10.5t36 -24.5t32 -31.5t15.5 -29.5q-2 -47 -2 -97v-94q0 -131 3 -261t7 -261q4 -25 26.5 -57.5t52.5 -62.5t62.5 -50.5 t57.5 -20.5h10q14 25 40 63t49.5 76t40.5 66.5t17 34.5t-1 13.5t-11 7.5q-12 0 -22.5 -4.5t-22.5 -4.5q-23 0 -48.5 16.5t-25.5 45.5v547q0 49 13.5 74.5t31 40t30.5 22.5t13 22q0 10 -16 20.5t-37.5 21t-43 20.5t-34.5 20q-8 6 -26.5 22.5t-39 34t-38.5 34t-27 22.5h-4 q-4 0 -34.5 -25.5t-71.5 -61.5t-84 -74t-74 -64h-4q-6 0 -19.5 33.5t-37 75.5t-62.5 76t-96 34q-4 0 -9 -1l-5 -1l-244 -217h-4q-6 0 -10.5 14t-10.5 32.5l-12 37t-14 28.5q-33 39 -77 67t-89 46l-4 2q-6 0 -34 -37t-60.5 -83t-58.5 -90t-26 -56z" />
<glyph unicode="n" horiz-adv-x="1030" d="M20 936q12 0 20.5 5t15.5 11t15.5 11.5t18.5 5.5q37 0 56.5 -33t21.5 -64v-278q0 -16 -3 -57t-5 -86t-5 -86t-3 -58q-10 -20 -16.5 -32.5t-13.5 -20.5t-18.5 -15.5t-31.5 -17.5v-12q0 -4 14 -21.5t35.5 -41t47.5 -51t49.5 -50t38.5 -37t19 -14.5q2 0 6.5 1t6.5 1 q6 12 37.5 47t65.5 73t62 68l27 29q0 6 -10 17.5t-22.5 21.5t-23.5 19.5t-13 11.5q-12 16 -15.5 41.5t-3.5 50.5v41q0 125 2 243.5t6 247.5q12 12 28.5 29.5t35 32t38 25t38.5 10.5q12 0 29.5 -10.5t34 -25t28.5 -30.5t12 -31v-139q0 -104 -5 -207.5t-5 -208.5v-33 q0 -20 1 -45.5t1 -48.5v-30q8 -76 66.5 -122t123.5 -69h4q10 0 14.5 10.5t8.5 16.5q18 31 45 71.5t51.5 79.5t42 68t17.5 33q0 18 -19 18q-18 0 -28.5 -14.5t-32.5 -14.5q-23 0 -41.5 19.5t-18.5 42.5v166q0 23 1 79t2 119.5t3.5 119.5t2.5 79q4 25 18 46.5t29.5 37.5 t28 27.5t12.5 19.5q0 10 -9.5 19.5t-21.5 15.5t-23.5 10t-15.5 6q-12 6 -37.5 26.5t-52.5 42t-49.5 38t-30.5 16.5q-18 0 -52 -21.5t-75 -52t-84 -65.5t-80 -62q-8 -6 -12 -7t-12 -1h-11q-2 37 -21.5 71t-49 63.5t-63.5 51t-64 31.5h-8q-4 -2 -21.5 -27.5t-43.5 -60.5 t-54.5 -74.5t-55.5 -70.5v-41z" />
<glyph unicode="o" horiz-adv-x="944" d="M20 246q0 -8 3.5 -9t13.5 -6q53 -23 108.5 -44t107.5 -46.5t99 -60.5t84 -82h23q8 0 12 8q39 61 81 103.5t86 79t89 74.5t92 91q12 14 29.5 38t35 49.5t29 51t11.5 44.5v182q0 55 -26 105t-60.5 97.5t-69.5 93.5t-53 93q-2 6 -7.5 19.5t-10.5 28.5t-10 28.5t-7 19.5h-8 q-35 0 -73 -20.5t-67 -30.5q-98 -37 -196 -65.5t-203 -38.5l-16 -687q0 -18 -15.5 -31.5t-34 -24.5t-33 -23.5t-14.5 -28.5v-8zM358 354v78q0 150 3 291t8 299q10 18 36.5 26.5t45.5 8.5q4 0 20 -24.5t35.5 -56.5t37 -61.5t23.5 -40.5q49 -72 94.5 -155.5t45.5 -175.5 q0 -25 -8.5 -77t-25 -104.5t-42 -91.5t-60.5 -39h-12q-47 31 -104.5 57.5t-96.5 65.5z" />
<glyph unicode="p" horiz-adv-x="1013" d="M20 193q0 -12 2.5 -19.5t16.5 -7.5q18 0 26.5 13.5t30.5 13.5q35 0 63.5 -7.5t51.5 -35.5q6 -137 32.5 -275.5t55.5 -273.5q4 -10 9 -13.5t16 -3.5q4 0 10 1t8 7l78 461q0 8 8 8h8q12 -4 28.5 -14t34 -20.5t34 -18.5t26.5 -8q14 0 38 31.5t48 56.5q43 45 83 81t80 75 t77 88t73 121q0 2 8.5 12t8.5 14q12 35 15 55.5t3 49.5v24q0 109 -22.5 177.5t-58 124t-76.5 112.5t-78 141h-25l-278 -190q-12 0 -20.5 13t-14.5 29.5t-12.5 34t-14.5 27.5q-6 6 -16 17.5t-21.5 22.5t-20.5 19.5t-11 10.5q-16 12 -39 22.5t-43.5 22.5t-34.5 28.5t-14 43.5 q0 23 14 38t14 35q0 18 -18 19h-8q-53 -47 -92.5 -109.5t-39.5 -136.5q0 -37 10.5 -63.5t29 -50t42 -46t50.5 -47.5l8 -24l1 -40t2 -93.5t3 -112t2 -94.5v-29q0 -18 2 -35.5t-4 -34t-22.5 -34t-53.5 -31.5q-23 -10 -43 -30.5t-35.5 -46.5t-25 -53.5t-9.5 -51.5zM436 322v565 q0 14 12.5 24.5t29 16.5t35 9t28.5 3q57 0 101 -50t73.5 -117.5t45 -138.5t15.5 -114q0 -10 -9 -60t-24.5 -108.5t-36 -104.5t-42.5 -46h-11q-23 12 -57.5 31.5t-68 37t-57.5 30.5l-24 13q-4 2 -7 5z" />
<glyph unicode="q" horiz-adv-x="909" d="M20 485q0 -72 23 -134t57.5 -119.5t75.5 -111.5t78 -110l14 -10h4q2 2 8.5 5t8.5 5q66 39 135.5 93.5t124.5 97.5h10q2 -2 5 -4t3 -4q4 -147 27.5 -286t58.5 -280q2 -8 15 -8h8q14 0 28.5 34t27.5 87t23.5 118.5t18.5 130t13.5 121t5.5 91.5q3 103 3 206q0 51 -1 103v61 q0 124 6 246q2 23 15 43.5t29.5 36.5t30 29.5t13.5 19.5q0 14 -19.5 26.5t-45 23t-50 17.5t-33.5 11q-72 33 -136 83t-124 99q-2 2 -10 2t-10 -1t-6 -9q-33 -43 -72 -82t-79 -75.5t-79 -73.5t-73 -80q-66 -82 -99 -189.5t-33 -212.5zM254 678v78q4 8 10 46t17.5 80t28 75.5 t40.5 33.5l209 -131q12 -10 16 -26v-322q0 -12 -1 -46t-2 -71t-3 -70.5t-2 -45.5q-18 -23 -46.5 -42.5t-57.5 -19.5q-23 0 -43.5 11.5t-39 28.5t-32.5 36.5t-24 36.5q-49 78 -59.5 168t-10.5 180z" />
<glyph unicode="r" horiz-adv-x="743" d="M20 924q12 0 20.5 5t14.5 11t13.5 11t19.5 5q33 0 48.5 -20.5t23.5 -48.5v-291q0 -72 -2 -137.5t-8 -145.5q-6 -18 -21.5 -33.5t-32 -27.5t-29 -23.5t-12.5 -23.5v-4q0 -2 3 -4t5 -4q78 -39 144.5 -81t124.5 -110h10l16 16q31 39 64 81t60.5 79t46 67.5t18.5 51.5h-25 l-51 -53h-27l-9 7t-20.5 16t-20.5 17.5t-9 12.5v190q0 61 -1 141v26q0 64 4 124q5 72 20.5 121t50.5 49l4 -2q4 -2 10 -8t6 -8l88 -156q4 -10 17 -10l22 20q23 19 49.5 47.5t48 58.5t21.5 52q0 6 -17.5 45t-40 84t-43 82t-26.5 37l-14 -8q-29 -35 -62 -74t-62.5 -70.5 t-48 -53t-14.5 -21.5l-4 2q-8 0 -8 8q-16 45 -23.5 70.5t-20.5 44t-37.5 36t-74.5 47.5q-29 18 -57 19h-8q-8 0 -14 -8l-130 -217v-41z" />
<glyph unicode="s" horiz-adv-x="874" d="M20 236q1 -17 9 -19q49 -18 101 -39.5t98 -42t83 -40t56 -34.5q6 -6 12 -16t11 -20.5t11.5 -17.5t14.5 -7h4q45 45 113.5 99.5t132 115.5t108.5 132t45 149q0 41 -17.5 76.5t-44 67.5t-56 60.5t-56.5 55.5v35q37 33 74 67.5t66.5 74.5t49 85t19.5 98q0 70 -30.5 124 t-80 91t-113 56.5t-128.5 19.5l-4 -2q-23 -4 -60 -15.5t-45 -19.5v-4q0 -23 21 -23q25 0 46 5.5t50 5.5q39 0 91 -9.5t98 -32t79 -59t33 -90.5q0 -53 -41 -83.5t-90 -30.5q-78 0 -140.5 42t-119.5 89h-4q-10 0 -43 -25t-74 -61.5t-86 -76.5t-80 -71q-41 -47 -68.5 -94 t-27.5 -109q0 -51 23.5 -90t51 -72.5t51 -64.5t23.5 -67v-11q0 -20 -10 -30zM184 881q0 16 8.5 35.5t21.5 36t29.5 27.5t32.5 11q6 0 17.5 -1t13.5 -1l17 -8q6 -4 25.5 -15.5t41 -24.5t41 -24.5t23.5 -13.5q14 -8 37.5 -17t48 -19.5t45 -20.5t24.5 -21q-35 -41 -70.5 -74.5 t-64.5 -58t-48 -38.5l-19 -13q-20 0 -58.5 27.5t-75 66.5t-63.5 80t-27 66zM227 391q0 2 1 5l1 3l199 183l5 1t7 1q16 0 53 -29t75 -66.5t67 -77.5t29 -61q0 -18 -6.5 -39.5t-17.5 -41t-28.5 -32t-40.5 -12.5q-18 0 -73.5 24.5t-115.5 54.5t-107.5 56.5t-47.5 30.5z" />
<glyph unicode="t" horiz-adv-x="649" d="M20 995q0 -4 1.5 -12t7.5 -8h139v-422q-8 -27 -8 -72q0 -29 2 -57.5t2 -56.5q0 -51 -13.5 -77t-29 -41.5t-28.5 -26.5t-13 -29l10 -13q27 -16 51.5 -22t53.5 -29q8 -6 27.5 -23.5t42 -37t42 -37t27.5 -25.5q2 -2 8 -5t8 -3h8q4 0 21.5 18.5t40 47t47.5 62.5t46.5 64.5 t34.5 54t13 29.5q-16 0 -24.5 -5t-16.5 -12t-15 -12t-20 -5q-27 0 -51 21.5t-41 39.5v100q0 129 5 254t5 254v43l9 15h217v125l-8 8h-35q-41 0 -83 3t-83 7v16q0 43 17.5 88.5t42 90.5t53 85t53.5 74v6q0 23 -23 23q-2 0 -6 -1t-6 -1q-61 -55 -101 -98t-85.5 -89.5 t-107.5 -100.5t-167 -128q-20 -16 -45 -33.5t-25 -46.5z" />
<glyph unicode="u" horiz-adv-x="1013" d="M20 942q0 -10 3.5 -16t15.5 -6q16 0 27.5 13t27.5 13q27 0 43.5 -28.5t22.5 -49.5v-69q0 -125 -5 -236.5t-14 -249.5q-4 -23 -10 -38t-17.5 -28.5t-25.5 -25.5t-33 -31v-8q0 -8 29 -29.5t66.5 -49t74.5 -56.5t56 -47h8q6 0 23.5 10t42 28.5t55 42t61.5 50.5 q8 6 26.5 20.5t38 29t37 25.5t25.5 11h4q16 -8 15 -31.5t1 -29.5q8 -25 30 -51.5t49.5 -50t57 -39t52.5 -15.5h8q6 0 12 8l166 236v30q-14 0 -22 -5t-15.5 -11t-14.5 -11t-19 -5q-31 0 -44.5 12t-23.5 41v201q0 70 -2 146v33q0 57 5 109q7 68 27.5 120t65.5 77v8 q0 6 -10 16.5t-24.5 23.5t-31 27.5t-30.5 28.5l-8 9q-12 14 -24.5 32.5t-25 35t-21.5 26.5t-15 10h-8q-6 0 -23.5 -14.5t-40 -36t-47.5 -47t-45.5 -49t-33.5 -40t-13 -20.5q0 -23 20.5 -34t32.5 -27q18 -25 22.5 -55.5t4.5 -61.5v-43q0 -16 -1 -59t-2 -98.5t-3 -114 t-5.5 -107.5t-7.5 -80.5t-8 -31.5q-29 -23 -55.5 -39.5t-57.5 -40.5h-26q-16 20 -32.5 31.5t-29 26.5t-19.5 42t-7 78q0 49 1 90t9 88v461q0 20 -22.5 53t-52 63.5t-61.5 52t-50 21.5h-4q-12 -23 -41 -61.5t-58.5 -80.5t-52.5 -76t-23 -46z" />
<glyph unicode="v" horiz-adv-x="987" d="M20 1006q0 -72 37 -126.5t81 -106.5t81 -108.5t37 -129.5q0 -98 -40 -183.5t-99 -161.5q-2 -2 -2 -6v-6q0 -12 36.5 -26.5t86 -28.5t98.5 -27.5t76 -25.5q12 -6 27.5 -18.5t31.5 -26t32.5 -23.5t28.5 -10t17 8q49 86 120.5 158.5t137 147.5t113 160t47.5 196 q0 66 -21.5 130t-54.5 124.5t-73 117t-77 103.5q-4 12 -11 32.5t-25 20.5l-347 -236h-8q-12 0 -41.5 33t-61.5 73t-55.5 73.5t-23.5 37.5q0 16 8 28.5t18.5 25t18.5 24t8 27.5q0 6 -3 12t-11 6q-16 0 -46 -29.5t-58.5 -65.5t-50 -67.5t-23.5 -37.5q-6 -12 -7.5 -24.5 t-1.5 -27.5v-36zM342 338v18q8 20 24.5 57.5t32 82.5t26.5 94t11 96q0 31 -9 62.5t-21.5 61.5t-21.5 56.5t-9 44.5q0 16 13 27.5t31.5 20t38 11.5t31.5 3q27 0 51.5 -13.5t47 -32t41 -40t33.5 -37.5q51 -59 69.5 -141t18.5 -160q0 -20 -7.5 -73.5t-22.5 -109t-36.5 -98.5 t-48.5 -43q-37 0 -75 23.5t-71 38.5q-23 8 -47 16t-45.5 15.5t-37 11.5t-17.5 8z" />
<glyph unicode="w" horiz-adv-x="1447" d="M20 1167q0 -55 18.5 -84.5t43 -50t47.5 -42t31 -60.5q0 -4 2 -19.5t3 -35t2 -38t1 -28.5v-295q0 -12 -2 -43t-5 -65.5t-5 -65.5t-4 -43q-6 -6 -19.5 -16.5t-27 -21.5t-23.5 -23.5t-10 -22.5q0 -12 14 -27.5t33.5 -30t39 -28.5t27.5 -23q8 -10 17.5 -28.5t21 -34.5 t24.5 -28.5t30 -12.5q8 0 11 2t4 6t3 10.5t10 16.5t35 36.5t55.5 54.5t52 50.5t23.5 28.5v6q0 6 -2 6q-47 31 -58.5 62.5t-11.5 80.5v21q0 16 2 18q0 16 1.5 82t2.5 140.5t3 140t2 82.5q0 61 25.5 92t86.5 55h4q47 0 75 -27.5t41 -65.5t16.5 -81t3.5 -74v-4q0 -18 -2.5 -65 t-3.5 -99.5t-3 -99.5t-2 -65q-6 -55 -21.5 -84t-56.5 -64v-14q0 -12 26 -28.5t56.5 -31t58 -25.5t34.5 -13q66 -39 122 -76t103 -90h22q8 0 13 8q63 94 136 171t159 150q27 8 45 33t32.5 56.5t24.5 65.5t20 62v105q0 76 -11 133t-32.5 107.5t-52.5 102.5t-69 118 q-10 16 -20.5 43.5t-31.5 42.5h-8q-27 -23 -71 -57.5t-90 -66.5t-84.5 -54.5t-51.5 -22.5q-12 25 -36.5 59.5t-56.5 68.5t-67.5 57.5t-68.5 23.5q-6 0 -39 -25.5t-75 -60.5t-83 -70t-59 -51q-2 0 -11.5 21.5t-21.5 51t-26.5 58.5t-26.5 41q-16 16 -47 32.5t-60.5 34t-52 37 t-22.5 44.5q0 35 18 59t18 57q-37 0 -68.5 -27.5t-53 -66.5t-34 -83t-12.5 -75zM879 373q0 100 14 202.5t14 202.5q0 14 -5 23.5t-5 19.5t5 17.5t5 17.5t-5 13t-5 14q0 14 11.5 28.5t27.5 26.5t33.5 19.5t31.5 7.5q55 0 95.5 -52.5t68 -122t41 -140t13.5 -109.5 q0 -18 -12.5 -72.5t-30 -112t-39 -102.5t-39.5 -45h-11q-23 20 -57.5 41.5t-68 42t-58 41.5t-24.5 39zM942 903q0 -8 8 -8q6 0 6 8q0 10 -6 10q-8 0 -8 -10z" />
<glyph unicode="x" horiz-adv-x="821" d="M20 -20q0 -84 37 -152t96.5 -115t134 -72.5t152.5 -25.5q27 0 67 2t77 12.5t62.5 34t25.5 64.5t-29 59t-63 18q-31 0 -57.5 -15t-54.5 -32.5t-62.5 -33t-81.5 -15.5q-49 0 -96.5 19.5t-86.5 52.5t-62.5 78t-23.5 98q0 61 38 102t100 41q45 0 77.5 -16t56 -35.5t40 -36 t30.5 -16.5h4q-2 0 4.5 6t13.5 14.5t15 17.5t10 15q2 2 11.5 15.5t19.5 27.5t19.5 26.5t11.5 16.5q6 8 23.5 27.5t35 41t31.5 40t14 24.5q0 8 -6 20.5t-16 12.5q-2 0 -3 -1l-1 -1l-52 -51q-2 0 -6 -1t-6 -1q-23 0 -43 14t-33 31v121q0 18 1 57t2.5 87t2.5 102.5t2 102.5 t2 87t1 57q12 25 31.5 45.5t39.5 34.5q6 0 12.5 -7t10.5 -11l86 -183h8q10 0 27.5 16.5t39 41t45 51.5t46.5 47v18q0 18 -12.5 46t-29 59t-37 64.5t-34.5 64.5l-14 8h-4q-27 -20 -55.5 -47t-56.5 -55.5t-52.5 -56t-42.5 -48.5h-8q-4 33 -23.5 72t-50.5 70.5t-66.5 53 t-72.5 21.5q-2 0 -18.5 -21.5t-36 -50t-40 -57t-30.5 -45.5q-12 -18 -25.5 -38.5t-13.5 -45.5q27 0 40 16.5t36 16.5q29 0 47 -21.5t18 -48.5v-495q0 -29 -4 -66t-20 -63q-78 -66 -126.5 -138.5t-48.5 -172.5z" />
<glyph unicode="y" horiz-adv-x="960" d="M18 1176q0 -47 22.5 -76t48.5 -57.5t48.5 -63.5t22.5 -90v-148q0 -92 1 -177v-20q0 -73 -7 -136q-7 -70 -29.5 -124.5t-69.5 -86.5v-27q72 -31 135.5 -79t124.5 -95h9q4 0 19 16.5t34.5 39t41 46t36.5 37.5q14 16 28.5 27.5t25.5 24t18.5 25.5t7.5 34q-16 0 -25.5 -5 t-18 -12.5t-16.5 -12.5t-20 -5q-16 0 -43 16.5t-27 38.5v129l8 17v530q0 12 11.5 21.5t25.5 16.5t29.5 11t25.5 4q2 0 10.5 -1t10.5 -1q111 -100 160 -231t49 -279q0 -66 -11.5 -136.5t-34 -138t-57 -128t-80.5 -109.5l-303 -321q-2 0 -2 -4v-8q0 -10 3 -16.5t16 -6.5 q8 0 13 1t13 7q106 88 224 190.5t216.5 221.5t163 254t64.5 289q0 160 -57.5 294t-143.5 269l-16 61h-27q-10 -6 -34.5 -22.5t-52 -35t-52.5 -33.5t-33 -21q-10 -6 -25.5 -18.5t-31.5 -24t-32.5 -19.5t-28.5 -8h-5q-8 0 -8 8v2q0 66 -34.5 105t-77.5 67.5t-78 54t-35 62.5 q0 20 13.5 37.5t30.5 32t30.5 24.5t13.5 19q0 10 -8 12t-17 2q-18 0 -20 -5t-27 -22q-66 -45 -116 -101t-50 -142z" />
<glyph unicode="z" horiz-adv-x="673" d="M20 -35v-86q8 -47 31 -99t56.5 -96t78.5 -73t101 -29q100 0 169.5 56.5t113.5 140.5t63.5 180t19.5 176q0 111 -47 208t-119 177v8q0 16 19 27l139 78q8 4 8 12v8q0 23 -22 23q-27 0 -53.5 -16.5t-52 -36t-50 -36t-47.5 -16.5q-10 0 -32.5 8.5t-46 17.5t-42 18.5 t-18.5 13.5v4q37 31 83 59.5t85 63.5t65.5 78t26.5 100q0 45 -18.5 84t-48 69.5t-66.5 55t-76 43.5q0 2 -8 2h-4q-2 0 -4 -2l-86 -86q-6 -6 -30 -26.5t-50.5 -43t-47 -42t-20.5 -25.5v-39q31 0 57.5 19.5t61.5 19.5q27 0 49.5 -13.5t39.5 -33t26.5 -44t9.5 -49.5 q0 -51 -27.5 -92t-68.5 -75.5t-90.5 -65.5t-92.5 -62q-8 -6 -9 -9t-1 -13q0 -25 29.5 -32t66.5 -11t67 -14.5t30 -40.5v-9q-27 -35 -64 -64.5t-68 -74.5q-47 -72 -66.5 -140.5t-19.5 -154.5zM123 -61q0 55 6 114.5t23.5 115.5t46 106.5t73.5 89.5h9q27 0 49 -26t39.5 -67 t30 -90t20.5 -96t12 -87t4 -58v-9q0 -43 -3 -94t-17.5 -96t-45 -76t-87.5 -31q-53 0 -85 33t-48.5 80t-21.5 99.5t-5 91.5z" />
<glyph unicode="&#xad;" d="M20 874q0 -16 12.5 -31.5t22.5 -29.5q29 -41 58.5 -83t64.5 -75.5t78 -54t98 -20.5q80 0 148.5 36.5t133 80.5t131.5 81t146 37q68 0 111 -30.5t90 -84.5h4q16 0 27.5 12.5t11.5 28.5q0 14 -9 34t-21.5 38t-26 34.5t-21.5 26.5q-72 78 -151.5 126.5t-186.5 48.5 q-80 0 -148.5 -36t-133 -78t-130 -78t-139.5 -36q-29 0 -50 11.5t-39.5 24.5t-32 24.5t-21.5 11.5q-10 0 -18.5 -3.5t-8.5 -15.5z" />
<glyph unicode="&#xdf;" horiz-adv-x="1134" d="M4 924h137l19 -21q14 -324 34.5 -643t51.5 -641q2 -16 6 -39.5t27 -23.5q4 0 7 1l3 1l123 858l8 18l35 365l120 129q16 18 43 27.5t50 9.5q55 0 91 -46.5t36 -95.5q0 -51 -28 -91t-69 -73.5t-91 -65.5t-93 -65q-8 -4 -8 -12v-8q0 -18 21.5 -27.5t49 -15.5t55 -10 t40.5 -13q2 -2 11 -10t18.5 -19.5t18.5 -20.5l11 -11q104 -92 152.5 -205t48.5 -254q0 -33 -8.5 -83t-27.5 -97t-51 -81t-79 -34q-35 0 -54.5 33t-41 72t-51 71.5t-80.5 32.5q-35 0 -51.5 -25.5t-16.5 -58.5q0 -49 27.5 -86t68.5 -60.5t89.5 -35.5t91.5 -12q88 0 155.5 53 t114.5 133t71.5 172t24.5 172t-13.5 144.5t-40 121t-67.5 106.5t-96 103q-10 2 -34.5 12.5t-50.5 20.5t-45 20.5t-19 12.5t1 3l1 1q37 29 82 58.5t84.5 64.5t66.5 78t27 100q0 47 -18.5 85t-48.5 69.5t-66.5 56t-75.5 43.5q0 2 -8 2t-9 -2q-37 -39 -90 -90t-104 -96.5 t-88 -77t-39 -31.5h-8q-16 47 -27.5 85t-42.5 73q-20 23 -46 41t-48.5 38.5t-37.5 45t-15 61.5q0 39 18 74t63 35q27 0 50.5 -8.5t47 -18.5t48 -18.5t49.5 -8.5q37 0 73 25.5t63.5 63.5t44 81t16.5 80q-18 0 -27.5 -6t-18 -14.5t-20.5 -14.5t-39 -6q-33 0 -61.5 9.5 t-57 21.5t-58.5 21.5t-62 9.5q-31 0 -59.5 -19.5t-51.5 -48.5t-37 -62.5t-16 -62.5l-27 -285q0 -12 -9 -25t-20.5 -25.5t-22.5 -23t-18 -14.5q-16 -14 -33.5 -15t-32.5 -4t-25.5 -13.5t-10.5 -40.5z" />
<glyph unicode="&#x2c6;" horiz-adv-x="1239" d="M20 594q0 -61 6.5 -126t24 -124t47 -114.5t78.5 -98.5q41 -37 86 -67.5t80 -71.5h8q2 0 10.5 4t16.5 9t15 9t9 4q25 10 64 35t83 49.5t85 44t67 19.5q35 0 71 -24.5t67.5 -54.5t59.5 -54.5t46 -24.5h4q18 8 50 50t64 89.5t55.5 88t23.5 47.5q0 6 -2 14t-13 8h-4 q-6 -4 -13 -14t-13 -20.5t-13.5 -18.5t-15.5 -8q-10 0 -27.5 7t-34 16t-29.5 20.5t-18 17.5q0 25 -1 75t-2 112.5t-2 133t-2 133t-2 113t-1 74.5v6q0 8 8.5 12.5t17.5 6.5t17 2h10h191l18 8v121h-217q-8 0 -9 6t-1 10v6q0 33 28.5 52.5t66.5 30t76 14.5t56 4q0 8 1 27.5 t2 41t3.5 42t2.5 28.5v25q-2 8 -5.5 34.5t-3.5 34.5h-18q-43 0 -77 -25.5t-61.5 -62.5t-48 -78l-34.5 -69q-10 0 -12.5 16t-2.5 33v16q0 59 13.5 117.5t48.5 105.5q18 23 50 34t64.5 20.5t56 21.5t23.5 37q-53 0 -109 -8t-109.5 -26.5t-100.5 -48.5t-82 -75 q-14 -16 -29.5 -44.5t-31.5 -41.5q-23 14 -36.5 43t-26.5 56.5t-31.5 49t-51.5 21.5q0 -18 2 -27.5t7 -16.5t13.5 -15t18.5 -25q39 -57 63.5 -120.5t24.5 -133.5q0 -59 -22.5 -96t-48 -58.5t-48 -33.5t-22.5 -25q0 -4 2 -13t8 -9h121v-629q0 -29 -17.5 -55.5t-43 -47 t-55 -32.5t-56.5 -12q-94 0 -155.5 59t-96.5 145.5t-49 180.5t-14 162q0 49 3 110.5t21.5 116.5t57 92t110.5 37q18 0 28.5 -8.5t17.5 -18.5t12.5 -18t15.5 -8q8 0 17 8t18.5 20.5t15.5 24.5t6 20q0 14 -9 21.5t-23.5 11.5t-29 5t-24.5 1q-119 0 -204 -52t-140 -135 t-82 -184.5t-27 -197.5z" />
<glyph unicode="&#x2000;" horiz-adv-x="864" />
<glyph unicode="&#x2001;" horiz-adv-x="1729" />
<glyph unicode="&#x2002;" horiz-adv-x="864" />
<glyph unicode="&#x2003;" horiz-adv-x="1729" />
<glyph unicode="&#x2004;" horiz-adv-x="576" />
<glyph unicode="&#x2005;" horiz-adv-x="432" />
<glyph unicode="&#x2006;" horiz-adv-x="288" />
<glyph unicode="&#x2007;" horiz-adv-x="288" />
<glyph unicode="&#x2008;" horiz-adv-x="216" />
<glyph unicode="&#x2009;" horiz-adv-x="345" />
<glyph unicode="&#x200a;" horiz-adv-x="96" />
<glyph unicode="&#x2010;" d="M20 874q0 -16 12.5 -31.5t22.5 -29.5q29 -41 58.5 -83t64.5 -75.5t78 -54t98 -20.5q80 0 148.5 36.5t133 80.5t131.5 81t146 37q68 0 111 -30.5t90 -84.5h4q16 0 27.5 12.5t11.5 28.5q0 14 -9 34t-21.5 38t-26 34.5t-21.5 26.5q-72 78 -151.5 126.5t-186.5 48.5 q-80 0 -148.5 -36t-133 -78t-130 -78t-139.5 -36q-29 0 -50 11.5t-39.5 24.5t-32 24.5t-21.5 11.5q-10 0 -18.5 -3.5t-8.5 -15.5z" />
<glyph unicode="&#x2011;" d="M20 874q0 -16 12.5 -31.5t22.5 -29.5q29 -41 58.5 -83t64.5 -75.5t78 -54t98 -20.5q80 0 148.5 36.5t133 80.5t131.5 81t146 37q68 0 111 -30.5t90 -84.5h4q16 0 27.5 12.5t11.5 28.5q0 14 -9 34t-21.5 38t-26 34.5t-21.5 26.5q-72 78 -151.5 126.5t-186.5 48.5 q-80 0 -148.5 -36t-133 -78t-130 -78t-139.5 -36q-29 0 -50 11.5t-39.5 24.5t-32 24.5t-21.5 11.5q-10 0 -18.5 -3.5t-8.5 -15.5z" />
<glyph unicode="&#x2012;" d="M20 874q0 -16 12.5 -31.5t22.5 -29.5q29 -41 58.5 -83t64.5 -75.5t78 -54t98 -20.5q80 0 148.5 36.5t133 80.5t131.5 81t146 37q68 0 111 -30.5t90 -84.5h4q16 0 27.5 12.5t11.5 28.5q0 14 -9 34t-21.5 38t-26 34.5t-21.5 26.5q-72 78 -151.5 126.5t-186.5 48.5 q-80 0 -148.5 -36t-133 -78t-130 -78t-139.5 -36q-29 0 -50 11.5t-39.5 24.5t-32 24.5t-21.5 11.5q-10 0 -18.5 -3.5t-8.5 -15.5z" />
<glyph unicode="&#x2013;" horiz-adv-x="1064" d="M20 874q0 -16 11.5 -31.5t20.5 -29.5q26 -41 52.5 -83t58 -75.5t70 -54t88.5 -20.5q72 0 133.5 36.5t119.5 80.5t118.5 81t131.5 37q61 0 100 -30.5t81 -84.5h4q14 0 24.5 12.5t10.5 28.5q0 14 -8 34t-19.5 38t-23.5 34.5t-19 26.5q-65 78 -136.5 126.5t-168.5 48.5 q-72 0 -133.5 -36t-119.5 -78t-117 -78t-126 -36q-26 0 -45 11.5t-35.5 24.5t-28.5 24.5t-20 11.5q-9 0 -16.5 -3.5t-7.5 -15.5z" />
<glyph unicode="&#x2014;" horiz-adv-x="2088" d="M20 874q0 -16 22.5 -31.5t40.5 -29.5q52 -41 105.5 -83t116.5 -75.5t140.5 -54t176.5 -20.5q144 0 267 36.5t239.5 80.5t237 81t262.5 37q123 0 200.5 -30.5t162.5 -84.5h7q29 0 49.5 12.5t20.5 28.5q0 14 -16 34t-38.5 38t-47 34.5t-38.5 26.5q-130 78 -273.5 126.5 t-335.5 48.5q-144 0 -267.5 -36t-240 -78t-234 -78t-251.5 -36q-52 0 -90 11.5t-71 24.5t-57.5 24.5t-38.5 11.5q-18 0 -33.5 -3.5t-15.5 -15.5z" />
<glyph unicode="&#x2018;" horiz-adv-x="301" d="M20 1362q12 -45 42 -61.5t71 -16.5q68 0 108 38t40 110q0 51 -17.5 79.5t-39 43t-39 19.5t-17.5 13q0 16 9 29.5t21.5 26t21.5 25.5t9 32q0 16 -11 21t-23 5q-29 0 -59 -33.5t-56.5 -82.5t-43 -103.5t-16.5 -93.5v-51z" />
<glyph unicode="&#x2019;" horiz-adv-x="301" d="M20 1577q0 -51 17.5 -79t39 -42t39 -20t17.5 -13q0 -16 -9 -29.5t-21.5 -25.5t-21.5 -26.5t-9 -32.5q0 -14 10 -19.5t24 -5.5q27 0 58 34t57.5 82t43 101t16.5 94v52q-14 45 -43 62t-70 17q-70 0 -109 -38.5t-39 -110.5z" />
<glyph unicode="&#x201c;" horiz-adv-x="622" d="M20 1362q12 -45 42 -61.5t71 -16.5q70 0 109 38t39 110q0 51 -17.5 79.5t-39 43t-39 20.5t-17.5 12q0 16 9 29.5t21.5 26t21.5 25.5t9 32q0 16 -10 21t-24 5q-29 0 -60 -33.5t-56.5 -81.5t-42 -102.5t-16.5 -93.5v-53zM340 1415q0 -6 1 -26.5t1 -26.5q12 -45 42 -61.5 t71 -16.5q68 0 107.5 38t39.5 110q0 51 -18.5 79.5t-40 43t-39 20.5t-17.5 12q0 16 10.5 29.5t21.5 26t21.5 25.5t10.5 32q0 16 -11.5 21t-23.5 5q-29 0 -59.5 -33.5t-56 -81.5t-43 -102.5t-17.5 -93.5z" />
<glyph unicode="&#x201d;" horiz-adv-x="622" d="M20 1579q0 -51 17.5 -80t39 -43t39 -20t17.5 -13q0 -16 -9 -29.5t-21.5 -25.5t-21.5 -25.5t-9 -31.5q0 -16 10 -21.5t24 -5.5q29 0 60 34t56.5 82t42 101t16.5 94v54q-12 45 -42 61t-71 16q-68 0 -108 -37.5t-40 -109.5zM340 1579q0 -53 17.5 -81t39 -42t40 -20t18.5 -13 q0 -16 -9.5 -29.5t-21.5 -25.5t-21.5 -25.5t-9.5 -31.5q0 -16 10.5 -21.5t22.5 -5.5q29 0 60.5 34t57 82t42 101t16.5 94v54q-14 45 -43 61t-70 16q-70 0 -109.5 -37.5t-39.5 -109.5z" />
<glyph unicode="&#x2026;" horiz-adv-x="890" d="M16 137q0 -16 5.5 -39.5t14.5 -45t23.5 -38t34.5 -16.5q35 0 68 15.5t58.5 41t40.5 58t15 67.5q0 53 -31.5 80t-80.5 27q-70 0 -109 -39t-39 -111zM305 135q0 -16 5 -39.5t14.5 -45t23.5 -38t35 -16.5q35 0 67.5 15.5t58.5 41t41 58t15 67.5q0 53 -31.5 80t-80.5 27 q-70 0 -109 -39t-39 -111zM602 139q0 -16 5 -39.5t14.5 -45t23.5 -38t35 -16.5q35 0 67.5 15.5t58 41t41 58t15.5 67.5q0 53 -31.5 80t-80.5 27q-70 0 -109 -39t-39 -111z" />
<glyph unicode="&#x202f;" horiz-adv-x="345" />
<glyph unicode="&#x205f;" horiz-adv-x="432" />
<glyph unicode="&#x25fc;" horiz-adv-x="1208" d="M0 0v1208h1208v-1208h-1208z" />
</font>
</defs>
</svg>
