<?xml version="1.0" standalone="no"?>
<!DOCTYPE svg PUBLIC "-//W3C//DTD SVG 1.1//EN" "http://www.w3.org/Graphics/SVG/1.1/DTD/svg11.dtd" >
<svg xmlns="http://www.w3.org/2000/svg" xmlns:xlink="http://www.w3.org/1999/xlink" version="1.1">
<metadata></metadata>
<defs>
<font id="proclamate_incisedheavy" horiz-adv-x="1126" >
<font-face units-per-em="2048" ascent="1638" descent="-410" />
<missing-glyph horiz-adv-x="618" />
<glyph horiz-adv-x="0" />
<glyph horiz-adv-x="682" />
<glyph unicode=" "  horiz-adv-x="618" />
<glyph unicode="&#x09;" horiz-adv-x="618" />
<glyph unicode="&#xa0;" horiz-adv-x="618" />
<glyph unicode="!" horiz-adv-x="753" d="M160 145q0 -53 30.5 -91t83.5 -38q37 0 78 10.5t74 32t54.5 53t21.5 72.5q0 31 -13.5 51.5t-35 33t-48 17.5t-53.5 5q-35 0 -69.5 -7.5t-62 -24.5t-44 -45t-16.5 -69zM252 150v8q18 23 41.5 41t54.5 18q16 0 39 -11t23 -28q0 -8 -16.5 -21.5t-38 -26.5t-40 -22.5 t-22.5 -9.5q-16 0 -28.5 18t-12.5 34zM352 184q-6 0 -17 -3t-22.5 -8t-19.5 -11t-8 -12v-13q6 0 18 4t22.5 8.5t18.5 9.5t8 7v18zM53 588q33 -14 71 -47t73.5 -67t65.5 -59.5t46 -25.5q29 0 43.5 25.5t32.5 40.5q14 12 46 34.5t64.5 45t57.5 43t25 30.5q0 8 -16.5 18.5 t-36 24t-38 31.5t-20.5 47q0 6 -1 24.5t-2 40t-2 40t-1 24.5q2 29 3 48.5t2 37t1 33.5v43v272q10 70 31.5 114t54.5 69.5t76 35t96 13.5q6 6 9 19t3 28q-141 0 -260 -31t-217 -115q-6 -6 -18.5 -19t-24.5 -27.5t-22.5 -26t-12.5 -11.5q-12 0 -28.5 25t-33 55.5t-35.5 55 t-38 24.5q-16 0 -21.5 -5t-5.5 -21v-17q35 -47 59.5 -86t41 -79t26 -84t15.5 -99l-8 -414q0 -23 -15.5 -33t-35 -18t-35 -17.5t-15.5 -27.5v-12zM219 596v25q2 100 6 156.5t6 92t4.5 62t2.5 67.5q0 94 -2.5 147.5t-8.5 88.5q0 2 -4 8t-4 8q0 8 21.5 15.5t27.5 17.5 q27 37 54.5 69.5t70.5 55.5l8 -12v-4q0 -43 -2 -106.5t-3 -123t-2 -101.5l-1 -42v-242q2 -35 9.5 -81t7.5 -85v-6q0 -2 -13.5 -14t-30 -26.5t-33 -26t-22.5 -11.5q-12 0 -25.5 8.5t-25.5 19.5t-23.5 22.5zM252 621l57 -50q23 0 40.5 18.5t27.5 31.5v8q0 20 -2 53t-4 54.5 t-2 25.5v575q-18 0 -32.5 -13t-28 -29.5t-25 -34t-23.5 -25.5l-8 -389v-225z" />
<glyph unicode="&#x22;" horiz-adv-x="770" d="M434 1413q0 -31 6 -50.5t17.5 -34.5t27 -30.5t33.5 -37.5q6 -10 16.5 -30t22.5 -39.5t27.5 -33.5t36.5 -14q10 0 31.5 29.5t43 69.5t38 83t16.5 68q0 70 -34 118t-112 48q-31 0 -61.5 -10.5t-54 -30t-39 -46t-15.5 -59.5zM20 1407q0 -29 21.5 -69t51.5 -75.5t57.5 -61 t39.5 -25.5h13q27 0 42 14t24.5 33.5t16.5 43t17 42.5q16 31 28.5 46t12.5 48q0 66 -37 111t-108 45q-31 0 -62 -11.5t-57.5 -32t-43 -48t-16.5 -60.5zM111 1399v8q0 12 9 22.5t22.5 18.5t27.5 13t25 5q18 0 38.5 -13t20.5 -32q0 -8 -7 -27.5t-15.5 -39t-17.5 -35.5t-11 -19 l-17 17q-4 4 -15 16.5t-22.5 24.5t-22.5 24.5t-15 16.5zM516 1407q0 12 10.5 23.5t24.5 18.5t29.5 12t25.5 5q23 0 42.5 -14t19.5 -41q0 -10 -6.5 -25.5t-15.5 -31t-20.5 -26.5t-21.5 -11l-86 82q0 2 -1 4t-1 4zM154 1407l41 -41q6 10 11 23.5t5 27.5q0 16 -21 17h-4 q-4 -4 -16 -13.5t-16 -13.5zM559 1407l45 -41q10 0 16.5 10t9.5 21.5t4 17.5t1 -2l-2 2q-4 10 -15.5 14.5t-21.5 4.5h-4q-4 -4 -16.5 -13.5t-16.5 -13.5z" />
<glyph unicode="&#x26;" horiz-adv-x="1806" d="M20 356q31 -55 57.5 -100t67.5 -98q10 -14 38 -42t60.5 -55.5t62.5 -49t46 -21.5q33 0 58.5 12t48 28.5t44 36t48.5 33.5q27 0 56.5 18.5t57 40t53 40t46.5 18.5q16 0 32.5 -9t34 -22.5t36 -28t40.5 -24.5q80 -47 169 -65.5t181 -18.5h89q4 0 21 3t38.5 7t42 8.5 t31.5 6.5q25 6 76 26.5t102 47t90 56t39 52.5q0 16 -3 25.5t-22 9.5h-16q-66 -35 -150 -51.5t-155 -16.5q-51 0 -126 25.5t-145.5 61.5t-121 72t-50.5 54v0q0 2 2 4l156 156q14 14 27.5 16t29.5 2q43 0 85 -9t87 -9q70 0 117 18.5t85 47t73 66.5t78 77v12q0 23 -19.5 26 t-36.5 3q-35 0 -53 -16.5t-41 -43.5h-92q-16 0 -22.5 14.5t-9.5 33t-6 35t-11 18.5h-33q-39 0 -61.5 -7.5t-39 -21.5t-31.5 -32.5t-42 -39.5q-33 -27 -86 -75.5t-103.5 -96t-89 -81t-45.5 -27.5l-16 8q-20 8 -41.5 29.5t-42 47t-40 52.5t-34.5 45q-23 31 -49 68t-26 78l2 4 q0 10 31.5 24.5t66.5 26.5t61.5 21.5t14.5 9.5q2 2 8 5t8 3q76 47 144.5 131t103.5 168v78q0 72 -17.5 138t-72.5 116h-92q-129 0 -241 -40t-214 -118q-45 -23 -79 -76t-55.5 -117.5t-31.5 -131t-10 -115.5q0 -29 5 -56.5t5 -56.5v-8q0 -8 -8 -11q-53 -29 -102.5 -58.5 t-87 -71.5t-61.5 -99t-24 -139v-25v-80zM94 455q0 63 31 108t70 92l20 17h4q4 -2 8 -5l4 -3q-10 -66 -10 -127t10 -123q0 -14 18.5 -47t41 -68t45 -63.5t33.5 -36.5q14 -14 36.5 -20.5t36.5 -28.5l2 -5q0 -6 -8 -14t-20.5 -17.5t-24.5 -15.5t-20 -6h-2q-12 2 -21.5 13.5 t-19.5 19.5q-39 31 -80 65.5t-75 75.5t-56.5 88.5t-22.5 100.5zM367 977q0 18 15 75.5t39.5 118t52.5 108.5t52 48q8 0 9 -10q-6 -37 -7.5 -63.5t-1.5 -55.5v-49q0 -76 10.5 -157t34 -160.5t61.5 -153.5t93 -131q51 -55 130 -124t170 -130.5t187.5 -102t180.5 -40.5h20v-9 q0 -4 -24.5 -8t-53 -8t-54.5 -7l-26 -3q-61 0 -115.5 15t-104.5 40t-97 56.5t-96 64.5q-72 47 -128.5 87t-103.5 86t-86 103.5t-73 137.5q-31 70 -57.5 129t-26.5 143zM119 453q0 -31 30.5 -86.5t73.5 -108.5t90 -93t82 -40q0 25 -26.5 41t-40.5 33q-14 16 -34 42.5 t-38 55.5t-32.5 54.5t-16.5 37.5q-12 53 -14.5 105.5t14.5 105.5q-16 0 -32.5 -17.5t-29 -42t-19.5 -49t-7 -38.5zM434 805q16 -31 31.5 -71t36.5 -70q39 -68 85 -121.5t98 -99.5t111.5 -87t127.5 -82q33 -20 67.5 -41.5t71.5 -40t76 -30.5t80 -12h4q-2 2 -32 19t-65.5 35.5 t-66.5 34l-35 17.5q-8 4 -21.5 12t-26.5 16.5t-23.5 14.5t-12.5 8q-131 102 -215 195.5t-134 198t-71.5 229.5t-25.5 289h-5q-12 0 -28.5 -35t-31.5 -78t-25.5 -82t-10.5 -47zM676 274q-2 -4 -21.5 -15t-41 -25.5t-39.5 -24.5l-19 -10q-31 0 -74 35.5t-83 83t-67.5 94.5 t-27.5 69v174q0 2 2 12.5t6 22.5t8.5 21.5t8.5 9.5h8q27 -47 51.5 -92t49 -89t54 -86t68.5 -81q27 -27 58.5 -48.5t58.5 -50.5zM1272 688v4q4 2 23.5 19.5t45 42t31.5 32.5h8q14 -35 29.5 -51t52.5 -22v-8q-27 -12 -43 -23.5t-47 -11.5q-29 0 -49 3t-51 15zM1354 709 q0 -10 9 -12.5t17 -2.5v29q-8 0 -17 -2t-9 -12zM592 1149v4q2 37 11 91t25.5 104.5t41 85t59.5 34.5q45 0 72.5 -25.5t42 -63.5t18.5 -80t4 -74q0 -41 -15 -93.5t-44 -99.5t-69 -79.5t-89 -32.5q-14 0 -24.5 24.5t-17.5 60t-11 75.5t-4 69zM891 1479q0 14 20 14h11 q25 0 47 -21.5t37.5 -52t24.5 -62.5t9 -52q0 -8 -13 -35t-29.5 -54.5t-32 -50t-17.5 -22.5h-8q0 63 -2 122.5t-7 104.5t-15.5 72.5t-24.5 32.5v4zM956 1419q0 -20 1 -45.5t2.5 -52.5t3.5 -49.5t2 -36.5h4q4 0 11 11t13 25.5t10.5 29t4.5 18.5q0 6 -4.5 22.5t-11.5 34 t-16.5 30.5t-19.5 13z" />
<glyph unicode="'" horiz-adv-x="356" d="M20 1413q0 -39 10.5 -61.5t26 -39t35 -31.5t37.5 -40q10 -23 24.5 -40t36.5 -17q14 0 39 27.5t48.5 63.5t41 72.5t17.5 55.5q0 66 -37 111t-109 45q-66 0 -118 -40t-52 -106zM102 1407q0 12 9.5 22.5t22.5 18.5t28.5 13t25.5 5q16 0 37 -13t21 -34q0 -8 -6.5 -22.5 t-16.5 -28.5t-22.5 -25.5t-22.5 -11.5q-2 0 -5 1l-3 1l-66 66q-2 2 -2 8zM145 1407l29 -33q10 0 19.5 19.5t9.5 21.5v8q0 2 -6.5 5.5t-10.5 5.5h-8q-4 -4 -16.5 -13.5t-16.5 -13.5z" />
<glyph unicode="," horiz-adv-x="348" d="M86 -123q0 -18 14.5 -22.5t26.5 -4.5q39 0 76 34t64.5 81t44 98.5t16.5 88.5v49q-18 53 -76 75h-53q-33 0 -65 -8t-57.5 -24.5t-41 -43t-15.5 -65.5q0 -59 37 -100t97 -41v-8q0 -18 -10.5 -30.5t-24 -24t-23.5 -24t-10 -30.5zM111 139q0 12 9 23.5t21.5 21t25.5 14.5 t23 5q20 0 42 -19.5t22 -40.5q0 -29 -17.5 -49t-50.5 -20q-29 0 -52 16t-23 49zM154 135q0 -35 39 -35q16 0 18 11.5t2 23.5q0 14 -3 19.5t-20 5.5q-10 0 -23 -5.5t-13 -19.5z" />
<glyph unicode="-" d="M20 770q0 -16 12.5 -31.5t20.5 -27.5q27 -39 55.5 -79t62.5 -72t75 -52.5t94 -20.5q76 0 141.5 35t127 78t126 78t139.5 35q66 0 107 -30t84 -79l1 -1t3 -1q14 0 25.5 12.5t11.5 26.5t-8 33.5t-20.5 37t-25 33t-20.5 25.5q-68 74 -144.5 120t-178.5 46q-76 0 -141.5 -34 t-127 -75t-124 -74.5t-132.5 -33.5q-27 0 -48 10t-38.5 23.5t-30 23.5t-20.5 10q-10 0 -18.5 -3t-8.5 -13zM236 629l8 8q57 14 112.5 39.5t107.5 56.5t104.5 61.5t107.5 57.5q14 6 20 7t21 1q8 0 34.5 -8t53 -19.5t48 -22.5t21.5 -19v-5q-84 -2 -148 -25.5t-122.5 -57 t-118 -72.5t-133.5 -70h-12q-29 0 -58.5 24t-45.5 44zM309 616q0 -10 8.5 -12t16.5 -2h6q31 0 65.5 15.5t68.5 37t64.5 44t53.5 36.5q41 27 81 44.5t85 31.5q-8 10 -18.5 13t-22.5 3h-17q-104 -45 -197.5 -102.5t-193.5 -108.5z" />
<glyph unicode="." horiz-adv-x="339" d="M20 133q0 -23 5.5 -46.5t16.5 -42.5t28.5 -31.5t42.5 -12.5q35 0 71.5 13.5t66.5 37t49 55t19 66.5q0 74 -75 102h-54q-72 0 -121 -30.5t-49 -110.5zM102 137q0 25 29 44.5t51 19.5q14 0 30.5 -9.5t16.5 -25.5q0 -8 -11 -20.5t-27.5 -24.5t-33 -21.5t-24.5 -9.5 q-16 0 -23.5 21.5t-7.5 25.5zM170 158q-16 0 -16 -13v-4l24 17h-8z" />
<glyph unicode="0" horiz-adv-x="1318" d="M20 737q0 -88 23 -178t65 -174t101 -156.5t132 -127t159 -86t180 -31.5q74 0 146.5 33.5t131.5 74.5q80 53 143.5 129t107.5 163t66.5 183.5t22.5 192.5q0 76 -10 157.5t-39 153.5q-37 92 -100.5 172t-146 137.5t-178 90t-195.5 32.5q-66 0 -122 -21.5t-114 -54.5 q-92 -53 -161.5 -127.5t-116.5 -166t-71 -192t-24 -204.5zM502 207v840q0 70 -1 144.5t10 137t43 102t97 39.5q45 0 73 -16t43 -42t23.5 -59.5t18.5 -66.5v-1087q0 -6 -2 -20.5t-5 -30t-6 -29t-3 -19.5l-68 -67q-6 -6 -28.5 -7t-32.5 -1q-55 0 -82 15t-39.5 40.5t-18.5 58.5 t-22 68zM94 748q0 84 22.5 163.5t62.5 152.5t95.5 137.5t118.5 117.5q8 6 20.5 16.5t14.5 7.5l8 -8v-215q0 -37 -1 -111.5t-2 -169t-2 -199.5t-2 -200.5t-1 -171.5v-110h-10q-63 51 -121.5 117.5t-104 142.5t-72 160t-26.5 170zM874 868v111q0 39 2.5 100.5t3.5 117.5t2 97 l1 41l8 8q2 2 11 -5t16 -11q133 -109 220 -248t87 -315q0 -90 -25.5 -176t-70 -165t-105.5 -146.5t-133 -118.5l-8 8q0 4 -1 44t-2 110.5t-2 147.5t-2.5 152.5t-1.5 127.5v120zM119 750q0 -74 27.5 -152t68.5 -149.5t89 -131t89 -94.5h8q0 35 1 107.5t2.5 163t2.5 190.5 t2 191.5t1 162.5v107q0 8 1 26.5t1 38.5v41v29q-8 0 -16.5 -7t-18.5 -11q-51 -47 -98.5 -105.5t-82 -125t-56 -138t-21.5 -143.5zM899 866q0 -162 3 -319.5t7 -323.5h17q47 41 95 101.5t88 132t65.5 150.5t25.5 157q0 74 -20.5 143.5t-55 132t-82 117.5t-100.5 105 q-12 10 -13 14t-11 4q-4 0 -6.5 -21.5t-4.5 -53t-3 -71.5t-2 -76t-2 -64.5t-1 -39.5v-88z" />
<glyph unicode="1" horiz-adv-x="960" d="M45 20v-6q0 -12 8 -14h340h68h110t126 2t119 4t89 7t35 12q0 4 -1 12t-7 8h-223q-12 0 -19.5 11.5t-10.5 26.5t-4 30.5t-1 21.5q0 215 5 427t5 427v531q0 10 -5 11t-9 1h-21q-6 0 -21.5 -1t-31.5 -2t-31.5 -3t-21.5 -2q-41 -94 -92.5 -148.5t-115 -83t-140 -40 t-166.5 -17.5q-8 -4 -9.5 -11t-1.5 -12q0 -16 6.5 -18t28.5 -2h183q8 0 23 -13.5t26 -27.5q6 -193 8 -367t2 -362q0 -49 2 -111.5t0 -120t-9 -99.5t-28 -50q-10 0 -32.5 1t-49.5 1h-47t-31.5 -1t-26 -3t-28.5 -6v-13zM360 74v1118q0 2 6.5 8t10.5 10q78 47 134 100.5 t97 139.5h10v-49t-1 -75t-1 -77v-49q-2 -84 -3 -198.5t-3 -238.5t-3 -246t-3 -218t-3 -157l-1 -60l-8 -8h-232zM385 948v-86v-88t1 -135t2 -159t2 -157.5t2 -134t1 -88.5h191v1233q-6 -6 -20.5 -21.5t-32 -32.5t-34 -31.5t-22.5 -20.5t-20.5 -14.5t-27.5 -14.5t-23.5 -12 t-10.5 -10q0 -8 -2 -31t-3 -47.5t-2 -48t-1 -31.5v-70z" />
<glyph unicode="2" horiz-adv-x="1185" d="M535 100q43 -18 70.5 -34.5t55 -28.5t59.5 -20.5t81 -8.5q31 0 63.5 8.5t59.5 24.5q84 49 132 116.5t72.5 147.5t31.5 167t7 177q-14 0 -22 -24.5t-16.5 -56t-20.5 -64.5t-35 -47q-41 -31 -98 -37t-109 -6h-32q-59 0 -121 5t-121 5q-98 0 -195.5 -6t-193.5 -21l-8 9 q35 53 97 78.5t118 45.5q84 31 173 53.5t173 49t157.5 61.5t130 89.5t89 133t32.5 193.5q0 119 -64.5 199t-160.5 129t-206.5 69.5t-201.5 20.5q-98 0 -190 -25.5t-164 -78t-115 -132.5t-43 -190q0 -47 20.5 -86t53.5 -67.5t76 -45t86 -16.5q51 0 89 21.5t63.5 56t39 78.5 t13.5 90q0 45 -19.5 68.5t-49.5 35.5t-64.5 16t-64.5 10.5t-49 18.5t-19 39q0 43 25.5 72.5t63.5 48t81 27t77 8.5q61 0 113.5 -21.5t90.5 -59.5t58.5 -90.5t20.5 -115.5q0 -86 -29.5 -162t-79 -145.5t-116 -135t-140.5 -133.5q-55 -51 -107 -101t-93 -105.5t-65.5 -121 t-24.5 -147.5q0 -18 5 -39.5t15 -40t27.5 -31t40.5 -12.5q31 0 43 27t12 53q0 27 -12.5 49.5t-25.5 44t-25.5 43t-12.5 50.5q0 31 24.5 52t53.5 21t61.5 -15t51.5 -34zM602 166q-23 20 -50.5 47t-51 51.5t-40 43t-16.5 24.5v16h607q0 -37 -28 -84t-68 -87t-86 -67.5 t-81 -27.5q-27 0 -51 9t-46.5 23.5t-44 28t-44.5 23.5zM627 190q18 -8 36.5 -20t38 -24.5t40 -21.5t42.5 -9q25 0 64 22.5t73.5 55t60.5 68.5t26 63h-506v-9zM793 1190v88q-2 37 -19.5 72.5t-17.5 70.5q51 0 109.5 -35.5t108.5 -88t84 -112t34 -108.5q0 -96 -52.5 -163.5 t-127 -114.5t-157.5 -77t-145 -50q-14 -4 -25.5 -7t-25.5 -3v10q113 98 173.5 232t60.5 286zM817 1190q0 -92 -15.5 -167t-51.5 -161q-4 -8 -18.5 -29.5t-31 -45t-30 -43t-13.5 -23.5h11q2 2 11 5t13 3q57 23 123 53.5t119 73.5t89 99.5t36 129.5q0 47 -30 95.5t-69.5 88.5 t-80.5 65.5t-62 25.5h-8q6 -23 7 -49.5t1 -55.5v-65zM94 1124v4q10 23 13.5 51.5t21.5 39.5l2 2q20 0 33.5 -11.5t30.5 -15.5q25 -6 56.5 -8t59 -9.5t47 -24.5t19.5 -54q0 -18 -12.5 -41t-32 -42.5t-42 -32.5t-42.5 -13q-23 0 -49.5 15t-50 37.5t-39 50t-15.5 52.5z M129 1133q0 -20 11.5 -42t28.5 -39.5t38.5 -28.5t42.5 -11q14 0 30.5 8t31 22.5t23.5 29.5t9 32q0 20 -27.5 34.5t-62.5 23.5t-67.5 12.5t-41.5 3.5h-8q-2 -4 -5 -20.5t-3 -20.5v-4z" />
<glyph unicode="3" horiz-adv-x="1193" d="M20 350q0 -92 48.5 -158.5t121 -109.5t159.5 -62.5t165 -19.5q100 0 216 22.5t214 73.5t164 135t66 209q0 80 -33 142.5t-87.5 108.5t-123 79t-137.5 51v17q72 20 144.5 57t111.5 109q16 27 25 54t26 54v49q0 104 -45 173t-118 110t-162 57.5t-177 16.5h-96 q-63 0 -138 -16.5t-140.5 -52.5t-109.5 -92.5t-44 -137.5q0 -98 47 -156.5t151 -58.5q90 0 149.5 49t59.5 141q0 63 -28.5 90t-63.5 39t-63.5 22.5t-28.5 43.5q0 31 20.5 49t48 29.5t58.5 14.5t53 3q29 0 59.5 -6t58 -20.5t48 -37t29.5 -53.5q10 -35 18 -90t8 -96 q0 -70 -5 -132.5t-26.5 -109.5t-66.5 -74.5t-127 -27.5h-190q-4 -2 -10.5 -8.5l-8.5 -8.5v-8q2 -4 8 -9t11 -7h223q78 0 123 -37t67.5 -94.5t28.5 -126t6 -129.5q0 -76 -9 -143.5t-39 -118t-85 -79t-145 -28.5q-20 0 -54.5 3t-68 14.5t-58 29.5t-24.5 49q0 23 28.5 36 t63.5 33.5t63.5 56.5t28.5 104q0 61 -25.5 113t-99.5 75h-133q-2 0 -12.5 -5t-23.5 -11.5t-26.5 -13.5t-21.5 -11q-39 -25 -52.5 -74t-13.5 -90zM793 424v131q0 6 -4.5 30.5t-8.5 52.5t-8 52.5t-4 30.5q-2 4 -2 10v8q8 0 10 -2q45 -18 101.5 -43.5t105.5 -62.5t83 -84 t34 -107q0 -51 -33 -105t-81 -100.5t-105.5 -76t-106.5 -29.5q0 35 8.5 67.5t10.5 69.5v158zM817 582v-410q31 0 74 29.5t82 70.5t65.5 87.5t26.5 76.5q0 39 -26.5 82t-66.5 80t-84 60.5t-81 23.5q0 -23 3 -53.5t7 -46.5zM94 348q0 25 13.5 48.5t35 43t46 30.5t47.5 11 q18 0 38.5 -10t38 -25.5t28.5 -35t11 -37.5q0 -33 -26.5 -60.5t-59.5 -47t-61.5 -31t-30.5 -11.5q-10 0 -23.5 17.5t-25.5 40t-21.5 43t-9.5 24.5zM127 352l2 -4q0 -4 5 -15t13.5 -24.5t16.5 -24t18 -10.5q14 0 38 8.5t46.5 21.5t37.5 30.5t15 34.5q0 29 -30.5 54.5 t-57.5 25.5q-12 0 -29.5 -9.5t-34.5 -24t-28.5 -32t-11.5 -31.5zM750 948q0 59 5 116.5t5 117.5q0 74 -9.5 134t-9.5 116q33 0 82 -26t93.5 -64.5t76 -81.5t31.5 -78q0 -43 -24.5 -89t-63.5 -84t-85 -63.5t-89 -25.5q-12 0 -12 20v8zM784 1343v-385q27 0 63 25t68.5 58.5 t54 71.5t21.5 65q0 25 -25.5 60.5t-61.5 68t-72.5 56t-57.5 23.5q0 -25 10 -43zM145 1204q0 2 6.5 19.5t15.5 37t21.5 35t22.5 15.5h8q4 -2 16.5 -16.5t16.5 -16.5q12 -6 35.5 -10t48 -11.5t42 -20.5t17.5 -36q0 -18 -11 -39.5t-28.5 -40t-38 -31t-38.5 -12.5 q-25 0 -48.5 10.5t-42 28t-31 40.5t-12.5 48zM178 1194q0 -12 10.5 -27.5t24.5 -28t29.5 -20.5t25.5 -8q27 0 55.5 27.5t28.5 52.5q0 18 -19.5 29.5t-44 19.5t-47 11t-30.5 3h-8q-4 -6 -13.5 -25.5t-11.5 -25.5v-8z" />
<glyph unicode="4" horiz-adv-x="1275" d="M643 246q0 -6 -1 -38t-5 -68t-12.5 -63.5t-24.5 -27.5h-174q-23 0 -34 -8t-11 -33h866v37h-207q-4 0 -14 16.5t-10 20.5v250l24 28h215v86l-16 19h-174q-14 0 -28.5 5t-20.5 19q0 29 -2 101t-3 152.5t-2 152.5t-1 100q0 2 -1 16.5t-1 20.5q0 23 1 35t9 35v424h-234 q-6 0 -31.5 -35t-54 -79t-54.5 -84t-34 -52q-12 -18 -39.5 -51t-57.5 -70t-54.5 -71.5t-30.5 -55.5l-381 -571q-16 -25 -21.5 -37t-5.5 -35q0 -16 6.5 -26.5t22.5 -10.5h14q18 0 86 1t147 3t146.5 3t85.5 1h33q29 -6 46.5 -10t25.5 -11t10 -20.5t2 -33.5v-35zM709 82v82 q0 205 -4.5 404.5t-4.5 402.5v90t5.5 96t15.5 89t29 71q4 8 17 30.5t29.5 47t31 44t22.5 19.5h82q10 0 13 -13t3 -30v-20q0 -92 -4 -181.5t-4 -181.5v-104q0 -12 1 -52t1 -94q0 -51 2 -111.5t2 -113.5q0 -51 1 -91t1 -52v-8q0 -35 -2 -89.5t-3 -104.5t-2 -86l-1 -36l-8 -8 q-4 0 -35 -2t-76 -4t-71 -2h-27q-12 0 -14 8zM725 969q0 -217 5 -430t5 -430h180v1327h-10q-20 0 -44.5 -19.5t-48.5 -48.5t-42 -62.5t-29 -62.5q-2 -66 -9 -136t-7 -138zM526 1085q10 8 21.5 25.5t24 36t26.5 33t31 14.5q10 0 12 -7t2 -16v-6q0 -23 -2 -39t-8 -41v-612 l-8 -8h-39q-117 0 -233.5 -5t-235.5 -5q0 33 20 59z" />
<glyph unicode="5" horiz-adv-x="1185" d="M20 344q0 -88 38 -155.5t100.5 -113.5t141.5 -69.5t161 -23.5q123 0 248 30.5t226 96t165.5 167t64.5 242.5q0 115 -42 207t-114.5 155.5t-171 97.5t-210.5 34q-68 0 -135.5 -12.5t-131.5 -36.5q-20 -8 -50.5 -31t-59.5 -47.5t-51.5 -44t-24.5 -19.5h-4q-6 23 -7 32 t-1 26v18v72t3 78.5t12 63.5t26 26q70 0 138.5 -13.5t139.5 -13.5q100 0 194.5 32t167 92t115.5 146t43 197q-18 0 -27 -18.5t-23.5 -41t-38 -44t-70.5 -29.5h-23q-14 0 -31.5 -1t-33.5 -1h-21q-23 0 -79 3t-126.5 7t-146.5 11t-137 14q-23 10 -37 14t-37 4h-6 q-16 0 -19 -10v-76q0 -154 -9 -304.5t-9 -303.5v-29q0 -16 1 -31.5t3 -28t6 -16.5h4q8 0 22.5 18.5t30 43t32 48t26.5 32.5q59 47 119.5 77.5t138.5 30.5t121 -49t64.5 -120.5t26.5 -152.5t5 -143v-49q0 -74 -14.5 -147.5t-48 -134t-92 -97.5t-144.5 -37q-18 0 -52 5.5 t-67 17.5t-57.5 30.5t-24.5 45.5q0 37 33 54t72 36.5t71.5 51.5t32.5 99q0 92 -59.5 150.5t-151.5 58.5q-96 0 -150.5 -64.5t-54.5 -156.5zM758 133q12 43 18 87t17 87v258q0 78 -13.5 146.5t-29.5 158.5q0 4 -3.5 13.5t-5.5 13.5v8q8 0 9 8h8q61 -25 122.5 -61.5 t110.5 -85.5t79 -111.5t30 -136.5q0 -68 -29 -126t-74 -107t-99 -88t-105 -64l-25 -8q-10 0 -10 8zM817 283q-8 -23 -9 -49.5t-1 -51.5h10q35 18 78 52t82 79t64.5 98.5t25.5 110.5q0 59 -30.5 119.5t-73.5 110t-90.5 80t-79.5 30.5h-11l1 -3t1 -5q0 -4 2 -15.5t5.5 -25.5 t6.5 -26.5t3 -14.5q2 -12 4 -39.5t5 -56.5t5 -53.5t2 -32.5v-154v-153zM94 344q0 23 11.5 47.5t30 44t42 32.5t47.5 13q18 0 41 -10t42.5 -26.5t31.5 -38t12 -41.5q0 -35 -22.5 -55.5t-54 -36t-63.5 -28t-50 -30.5q-29 23 -48.5 58.5t-19.5 70.5zM127 344q0 -20 10 -46 t35 -26q14 0 40 7.5t49.5 20.5t40.5 30.5t17 38.5q0 12 -10 26.5t-25.5 25.5t-31.5 19.5t-29 8.5q-16 0 -32.5 -11.5t-31 -28t-23.5 -34t-9 -31.5zM219 1221v174q0 6 6 7t11 1h24q63 -4 159.5 -9t186.5 -11.5t154 -10.5l65 -4l9 -8q-43 -47 -84 -80t-84 -54.5t-93.5 -30.5 t-113.5 -9h-66q-16 2 -43.5 5t-54.5 7t-46.5 8t-21.5 4zM244 1370v-133q0 -2 20.5 -5t48 -7t57 -8.5t48.5 -6.5h45q25 0 75 9.5t99 27t86 41t37 51.5q0 2 -31 5.5t-78 6.5t-103 6t-107.5 5t-89.5 4t-48 2q-8 2 -31 2h-28z" />
<glyph unicode="6" horiz-adv-x="1193" d="M18 741q0 -135 37 -269t113 -240.5t189.5 -173t265.5 -66.5q104 0 203.5 35.5t176 100.5t124 156t47.5 201q0 141 -69 247t-198 163q-31 14 -57.5 24.5t-61.5 10.5q-51 0 -91 -8.5t-73.5 -25.5t-65.5 -44t-64 -64h-9q-4 0 -7 35t-3 84q0 14 2 53t6 89.5t9.5 102.5t9.5 93 q12 100 57 157.5t150 57.5q18 0 42.5 -1t47 -7t38 -20.5t15.5 -40.5q0 -25 -19.5 -38.5t-44 -29.5t-44 -41t-19.5 -70q0 -78 54.5 -131t131.5 -53q39 0 78 11.5t68.5 34t48 56t18.5 76.5q0 76 -40 132.5t-101 94t-134 57t-136 19.5q-156 0 -284 -64.5t-219 -172t-141.5 -246 t-50.5 -285.5zM477 545q0 39 8.5 92t29 101t56 82t88.5 34q16 0 40 -20.5t26 -36.5l8 -92v-531q0 -59 -38 -104t-99 -45q-39 0 -61.5 17t-32.5 45t-13.5 61.5t-3.5 66.5v51q0 8 -1 42t-3 74t-3 73.5t-1 42.5v47zM809 125q0 37 -2 130t-3 197.5t-2 197.5t-1 130v60 q55 0 108.5 -35t96.5 -87t68.5 -113.5t25.5 -112.5q0 -59 -20.5 -109.5t-53.5 -93.5t-75 -79t-85 -69q-6 -4 -20.5 -14t-24.5 -10h-4q-8 0 -8 8zM94 743q0 188 92.5 335t239.5 257q2 0 5 -3l5 -5v-4q0 -72 -13 -139.5t-13 -139.5v-907q-16 0 -33 15.5t-25 21.5 q-127 119 -192.5 256t-65.5 313zM834 788v-622h8q37 31 79 64.5t75.5 72.5t56 85t22.5 101q0 35 -22.5 86.5t-56 98.5t-74.5 80.5t-76 33.5h-12zM119 741q0 -82 17.5 -151.5t48 -132t73.5 -119.5t94 -115q10 -10 13.5 -17t19.5 -7v872q0 49 9 96t9 95q-35 0 -76.5 -45.5 t-80.5 -106.5t-70 -123.5t-39 -99.5q-12 -45 -15 -64.5t-3 -52.5v-29zM809 1206q0 25 17.5 37t39 24.5t40 29t18.5 51.5l4 4q14 0 33.5 -15.5t38 -38t30.5 -46t12 -38.5q0 -18 -11 -36.5t-28.5 -34t-38 -24.5t-38.5 -9q-16 0 -37 8t-38 21.5t-29.5 31t-12.5 35.5zM850 1202 q0 -23 23.5 -40t46.5 -17q12 0 26.5 6t28.5 16.5t23.5 22.5t9.5 24q0 16 -17.5 40t-36.5 24q-6 0 -23.5 -8t-35.5 -20.5t-31.5 -26t-13.5 -21.5z" />
<glyph unicode="7" horiz-adv-x="1101" d="M236 299q0 -123 67.5 -207t196.5 -84q90 0 140 36t75.5 93.5t33 131t10.5 149.5t9 146.5t31 123.5q37 84 86 157t93 145.5t74.5 150.5t30.5 174q0 31 -3 66.5t-15 68.5t-34.5 54.5t-61.5 21.5q-78 0 -78 -80q0 -37 20.5 -60.5t46 -45t46 -45t20.5 -60.5q0 -23 -18.5 -37 t-40.5 -14q-43 0 -79 25.5t-71 63.5t-69.5 82t-77.5 82t-94.5 63.5t-116.5 25.5q-61 0 -108.5 -24.5t-85.5 -62.5t-68.5 -86t-57.5 -93q-8 -12 -10 -17.5t-14 -5.5v246q0 16 -17.5 25.5t-29.5 9.5q-29 0 -46 -27v-41q0 -66 9.5 -132.5t9.5 -131.5q0 -88 -9.5 -173t-9.5 -171 v-29q2 -10 17 -10h8q8 61 22.5 117.5t42 98.5t72.5 67.5t119 25.5q72 0 138.5 -10t135.5 -25q10 -10 35 -14t52 -4q55 0 99 2t84 9t75.5 20.5t76.5 35.5h17q0 -29 -14.5 -45t-34.5 -37q-57 -63 -134 -113t-158 -97.5t-160 -97.5t-140.5 -111.5t-99 -141.5t-37.5 -184z M309 299q0 74 42 144.5t103.5 131t132 106.5t130.5 73q8 -2 8 -17q0 -37 -15.5 -73.5t-17.5 -75.5q0 -8 -2 -43t-3 -76t-2 -77t-1 -44q-2 -35 -13.5 -81t-32 -87t-52 -69.5t-76.5 -28.5q-41 0 -77 19.5t-63.5 50t-44 69.5t-16.5 78zM342 297q0 -31 13.5 -62.5t36 -58t52 -44 t62.5 -17.5q37 0 65.5 29.5t47 71.5t28.5 85t12 72q0 41 2.5 92t5.5 95t5 76t4 36v16h-8q-47 -25 -104.5 -65.5t-106.5 -93t-82 -112t-33 -120.5zM211 1186l-8 8q12 10 33.5 52t54.5 87t76 81t96 36q39 0 84 -33t90 -80t88 -98t82 -88v-8l-19 -3q-20 -3 -30 -5h-90l-17 8 q-25 12 -78 19t-116.5 12.5t-129 7.5t-116.5 4zM668 1169q8 -8 22.5 -10t26.5 -2h18q0 16 -29.5 57t-72.5 84t-89 77t-77 34q-25 0 -60.5 -21.5t-67.5 -51t-55.5 -63.5t-23.5 -59v-4q109 -4 205.5 -12.5t202.5 -28.5z" />
<glyph unicode="8" horiz-adv-x="1275" d="M20 356q0 -88 63.5 -156.5t158 -116.5t201 -73.5t190.5 -25.5q117 0 228.5 27.5t199.5 88t141 153.5t53 224q0 88 -22.5 154.5t-65.5 119t-104.5 93.5t-138.5 76v16q37 23 84 44t87 48t67.5 61.5t27.5 84.5q0 104 -65.5 171.5t-160 107.5t-200 56.5t-184.5 16.5 q-109 0 -209.5 -33t-178 -94.5t-125 -151.5t-47.5 -205q0 -63 23 -121.5t59 -107.5q10 -12 41 -35.5t65 -47t60.5 -43t26.5 -23.5q0 -14 -10 -17q-49 -23 -96.5 -49.5t-84 -60t-60.5 -78t-24 -103.5zM203 313q0 25 16.5 79t41 111.5t54 100.5t54.5 43h8q4 -2 16.5 -8 t16.5 -8l307 -92q39 -25 91 -42.5t100 -43t82 -64.5t34 -102q0 -76 -37 -126t-92 -81t-121.5 -43t-128.5 -12q-66 0 -142.5 14t-143 47t-111.5 88t-45 139zM782 604l-280 84q-25 12 -91.5 37t-137 67t-125 103t-54.5 149q0 33 12.5 75t31 81t39 65.5t34.5 26.5h12v-123 q0 -31 29 -57.5t67.5 -49t76.5 -39.5t55 -28l383 -125q2 -2 11 -8t13 -8q55 -29 113.5 -64.5t107.5 -80.5t80 -101.5t31 -130.5q0 -29 -11.5 -65.5t-25.5 -68.5t-27.5 -54.5t-19.5 -22.5h-8q-4 68 -17.5 118t-47.5 89t-90 68.5t-144 54.5q-2 2 -8.5 5t-8.5 3zM94 369v4 q0 2 4 11t9.5 19.5t12.5 19.5t17 9v-10q0 -6 -2 -20.5t-3 -32t-2 -32.5t-1 -22h-8q-6 2 -13.5 15.5t-10.5 22.5t-3 12v4zM807 631q-6 2 10.5 -3t41 -14.5t52 -21.5t45.5 -21q72 -29 108 -82t58 -124q16 27 25.5 54t9.5 56q0 84 -46 151.5t-116.5 119t-157.5 89t-168 64.5 t-146.5 44.5t-96.5 27.5q-41 25 -83 42t-74.5 40.5t-53 58.5t-20.5 94v13q-16 -12 -29.5 -34t-22 -45.5t-12.5 -48t-4 -42.5q0 -74 47 -128.5t110.5 -93.5t126 -63.5t91.5 -42.5zM293 1272q0 68 34.5 107.5t87 61t113 29t111.5 7.5q57 0 120.5 -14.5t117 -45.5t88 -80 t34.5 -118q0 -23 -13 -66t-34.5 -86t-48 -74.5t-53.5 -31.5q2 0 -34 11t-85 26.5t-100 30.5t-80 24q-39 12 -84 29.5t-84 43t-64.5 61.5t-25.5 85zM1073 1251h4q16 0 23.5 -20.5t7.5 -32.5q0 -14 -9 -34.5t-26 -20.5v108z" />
<glyph unicode="9" horiz-adv-x="1202" d="M78 272q0 -74 38 -128t95 -90t126 -53t130 -17q135 0 251 43t207 119.5t152.5 185t87.5 241.5q18 80 19 191q0 137 -37 268t-111.5 233.5t-187.5 165t-264 62.5q-102 0 -203.5 -35t-181.5 -98.5t-129.5 -154.5t-49.5 -201q0 -82 26 -160t77 -138.5t127 -97.5t176 -37 q49 0 87 7.5t70.5 22.5t61.5 41t64 63h4q0 -12 1 -40t1 -63q0 -33 1 -66.5t1 -56.5v-22q0 -66 -2 -135.5t-16.5 -130t-47.5 -105.5t-92 -61h-65q-14 0 -41 1t-52.5 7t-45 20.5t-19.5 38.5q0 27 22.5 41t48 32.5t48 46.5t22.5 83q0 80 -54 121t-132 41q-90 0 -151.5 -43.5 t-61.5 -141.5zM160 268q0 43 38 79t81 36q12 0 32.5 -7t41 -19.5t34.5 -29t14 -32.5t-12 -30.5t-29.5 -26t-38 -21.5t-34.5 -18q-2 -4 -6.5 -13.5t-8.5 -19.5t-9 -18.5t-9 -8.5q-14 0 -30.5 16.5t-31 38t-23.5 43t-9 31.5zM793 1343q0 8 8 9h8q70 -45 126 -108.5t94 -137.5 t58.5 -156t20.5 -164q0 -160 -53.5 -301t-171.5 -254q-6 0 -19.5 -10t-29 -23.5t-32 -23.5t-28.5 -10q0 264 9.5 524t9.5 524v131zM195 274q0 -14 15 -40.5t30 -26.5q6 0 24.5 10t38 24.5t34.5 29t15 24.5q0 25 -28.5 40t-51.5 15q-10 0 -23 -7t-25.5 -18.5t-20.5 -25 t-8 -25.5zM817 1296q0 -268 -5 -532t-5 -533q12 0 27.5 9.5t23.5 17.5q109 109 167 241t58 285q0 57 -18 134t-52 151t-82 135.5t-106 89.5q-2 0 -4 1t-4 1zM459 926v24t1 39t1 39v25q2 8 3 41.5t2 78t5 93.5t13.5 91t24.5 68.5t42 26.5h92q27 0 44.5 -24.5t25.5 -61.5 t11 -81t3 -83q0 -33 -1 -57.5t-1 -32.5v-53q0 -53 -4 -125t-21.5 -137.5t-52.5 -111.5t-96 -46q-43 0 -62.5 30.5t-25.5 74.5t-5 94.5t1 87.5zM86 999q0 57 30.5 116t77 110t100.5 91t99 60q8 -2 8 -12v-10q0 -176 -5 -349.5t-5 -351.5q-53 0 -106.5 36t-98.5 88 t-72.5 112.5t-27.5 109.5zM119 985q0 -49 31.5 -102.5t72.5 -96.5t81 -70.5t56 -27.5h9v633q-23 0 -64 -33t-83 -83t-72.5 -109.5t-30.5 -110.5z" />
<glyph unicode=":" horiz-adv-x="348" d="M20 133q0 -20 7.5 -43.5t20.5 -43t31.5 -33t41.5 -13.5q35 0 71.5 13.5t66.5 37t49.5 55t19.5 66.5q0 76 -76 102h-57q-70 0 -122.5 -30.5t-52.5 -110.5zM111 137q0 25 29.5 44.5t49.5 19.5q16 0 32 -9.5t16 -25.5q0 -8 -11.5 -20.5t-28 -24.5t-32.5 -21.5t-25 -9.5 q-16 0 -23 21.5t-7 25.5zM178 158q-16 0 -16 -13v-4l24 17h-8zM20 895q0 -20 7.5 -44t20.5 -43.5t31.5 -32.5t41.5 -13q35 0 71.5 14.5t66.5 38t49.5 55t19.5 66.5q0 76 -76 102h-57q-70 0 -122.5 -30.5t-52.5 -112.5zM111 901q0 25 29.5 44.5t49.5 19.5q16 0 32 -9.5 t16 -25.5q0 -8 -11.5 -20.5t-28 -25t-32.5 -21.5t-25 -9q-16 0 -23 21.5t-7 25.5zM178 922q-16 0 -16 -13v-4l24 17h-8z" />
<glyph unicode=";" horiz-adv-x="356" d="M78 -123q0 -18 18.5 -21t30.5 -3q39 0 75 32.5t63.5 79.5t45 98.5t17.5 88.5v49q-18 53 -76 75h-53q-33 0 -65 -8t-57.5 -24.5t-41 -43t-15.5 -65.5v-14q0 -4 1.5 -6t7.5 -13q12 -29 21 -49t21.5 -32.5t31 -18.5t51.5 -8v-8q0 -18 -12.5 -30.5t-26 -24t-25.5 -24 t-12 -30.5zM111 139q0 25 28.5 44.5t50.5 19.5q20 0 42 -19.5t22 -40.5q0 -6 -3 -17t-8 -22.5t-11.5 -19.5t-12.5 -8h-74q-6 0 -13 9t-11 21.5t-5 17.5zM154 135q0 -35 34 -35q16 0 20.5 9.5t4.5 25.5t-5 20.5t-22 4.5q-12 0 -22 -4.5t-10 -20.5zM37 897q0 -20 5 -44 t16.5 -43t28.5 -32.5t42 -13.5q37 0 74 12t66.5 36t48 55.5t18.5 70.5q0 51 -34 76.5t-95 25.5q-72 0 -121 -30.5t-49 -112.5zM119 903q0 12 9 22.5t21.5 19.5t25.5 14.5t24 5.5q14 0 30.5 -8.5t16.5 -24.5q0 -18 -29 -36.5t-63 -39.5h-4q-16 0 -23.5 22.5t-7.5 24.5z M203 934q-12 0 -23.5 -9.5t-17.5 -17.5q0 -2 2 -2h2q4 2 20.5 8.5t16.5 10.5v10z" />
<glyph unicode="?" horiz-adv-x="1433" d="M508 123q0 -53 30.5 -91t84.5 -38q35 0 74.5 11t74.5 31.5t57.5 51.5t22.5 72q0 31 -14.5 52t-36 33.5t-48 17.5t-53.5 5q-35 0 -69.5 -7t-62 -24.5t-44 -45t-16.5 -68.5zM600 127v8q18 23 42 41.5t54 18.5q16 0 39 -11.5t23 -27.5v-4q-2 -2 -14.5 -11.5t-29 -20.5 t-33.5 -23.5t-30 -20.5h-8q-16 0 -29.5 17.5t-13.5 33.5zM700 162q-12 0 -38.5 -12.5t-26.5 -22.5v-12q6 0 17.5 4t21.5 8t18 9t8 7v19zM313 475q41 0 78 -15.5t72 -34.5t70.5 -36.5t74.5 -21.5h174q4 0 19.5 3t23.5 5q4 2 43 18.5t100.5 46t121 60t101.5 59.5t42 45 q0 14 -10.5 17.5t-22.5 3.5h-16q-27 0 -51.5 -10.5t-51 -23.5t-56.5 -23.5t-62 -10.5q-10 0 -51.5 10.5t-86.5 25.5t-80.5 31.5t-35.5 28.5q0 4 31.5 19.5t80.5 39t112.5 55.5t127 68.5t121 79.5t98.5 91q25 29 48.5 67.5t43 79.5t30.5 80t11 67q0 27 -11 43.5t-22 34.5 q-23 35 -45 59.5t-48.5 42t-59.5 31t-72 25.5q-23 8 -47.5 16.5t-50.5 8.5h-389q-55 0 -124 -18.5t-140.5 -51.5t-140 -77t-123 -93t-87.5 -103.5t-33 -105.5v-27q0 -66 36 -104.5t89.5 -59t115 -26.5t110.5 -6h49q23 0 43 1t42.5 2t53.5 5q14 2 51 10t76 19.5t68.5 23 t29.5 21.5q0 23 -14 29t-33 6q-41 0 -73.5 -21.5t-71.5 -30.5q-41 -6 -92 -7t-92 -1q-35 0 -82 4t-89 18.5t-72 44t-30 79.5q0 76 62.5 128t148.5 85.5t174 49t139 15.5h82q20 -16 50 -16q29 0 51 -8q33 -14 64.5 -33t58 -44.5t43 -56t16.5 -69.5q0 -55 -20.5 -101.5 t-53 -86.5t-72.5 -74.5t-79 -65.5q-84 -72 -191.5 -128t-206.5 -97q-12 -4 -44.5 -14.5t-66.5 -24.5t-60.5 -31.5t-26.5 -38.5q0 -10 12 -13t23 -3h14q18 0 31.5 5t29.5 5zM485 516q0 2 -1 4t-1 4q0 12 11 17l114 49q2 2 4 2h4t21.5 -8.5t39 -19.5t40 -20t24.5 -12 q6 -2 22.5 -8t35 -12t36 -12t23.5 -8v-9q0 -6 -22.5 -15t-51 -17.5t-55.5 -13.5t-33 -5q-23 0 -51.5 8.5t-59 20.5t-57.5 27.5t-43 27.5zM551 516q39 -10 71.5 -30.5t73.5 -20.5h19q14 0 29.5 3t21.5 15q-4 6 -26.5 17.5t-50 23t-52.5 18.5t-33 7h-4q-10 -4 -29.5 -13.5 t-19.5 -11.5v-8zM1073 973v2q0 14 3 41.5t14 38.5v174q-12 20 -14.5 43.5t-18.5 40.5q-55 45 -104.5 71.5t-107 41t-127 18.5t-163.5 4q0 4 24.5 11t55.5 15.5t59.5 14.5t38.5 6h258q100 -14 184.5 -54t137.5 -128q2 -4 9 -13.5t7 -13.5q0 -2 -7 -11t-9 -13 q-29 -78 -69 -137.5t-105 -118.5q-14 -14 -29.5 -19.5t-28.5 -21.5zM1118 1245v-207h12q6 0 30 23.5t51.5 59.5t49 79t21.5 82q0 51 -48 87t-113.5 58.5t-133 32.5t-104.5 10h-17h-26q-12 0 -23.5 -1t-17.5 -1q51 -8 103 -23t97 -42q23 -14 41.5 -32.5t40.5 -33.5l9 -8 q10 -20 9 -44t19 -40z" />
<glyph unicode="A" horiz-adv-x="1632" d="M336 207q100 0 184 -54.5t131 -146.5h4q10 0 26.5 13.5t35 32t37 40t37.5 39.5q35 29 77.5 67t79.5 71.5t61.5 56t22.5 20.5h8q12 0 17 -8q4 -109 46 -190.5t144 -133.5h13q10 0 15 1t13 8l258 223q25 8 46.5 30.5t21.5 49.5q-16 0 -29.5 -8.5t-26 -19.5t-26.5 -19.5 t-33 -8.5q-39 0 -54 33t-15 68v952q0 70 27.5 103.5t60 50t60.5 26.5t28 33q-102 0 -202.5 -33t-189.5 -80q-10 -6 -28.5 -24.5t-37 -39t-33.5 -36.5t-21 -16q-16 0 -26.5 32.5t-23 72.5t-30 73t-43.5 33q0 -23 9 -35.5t19 -34.5q31 -78 48.5 -166t17.5 -174v-621 q0 -33 -18.5 -65.5t-44 -62t-56.5 -55t-55 -42.5q-14 0 -29.5 11.5t-30 25.5t-27.5 27.5t-22 19.5q-8 6 -27.5 18.5t-41 25.5t-39 23.5t-23.5 14.5q-6 2 -27.5 7t-45 11.5t-42 13.5t-18.5 15q0 6 46 34t106.5 65.5t119 81.5t84.5 87q35 59 43.5 128t8.5 137q0 55 -4 115.5 t-19.5 117.5t-44.5 109.5t-76 89.5q-51 39 -88 59.5t-67.5 29.5t-61 10t-67.5 1q-96 0 -183.5 -31.5t-153 -89t-103.5 -139.5t-38 -182q0 -68 21.5 -138.5t79.5 -115.5q25 -18 59.5 -34.5t67.5 -34t56.5 -40t23.5 -53.5q0 -29 -19.5 -50.5t-45 -39t-54.5 -28.5t-47 -19v-15 q66 0 118 34t89 86t56 114.5t19 120.5q0 74 -24.5 123t-60 81.5t-77.5 54t-78 42t-60.5 45t-24.5 63.5q0 35 14 62.5t39 46t55.5 28t63.5 9.5q88 0 139 -53.5t75.5 -133t31 -170t6.5 -163.5v-78q0 -29 1 -59.5t1 -61.5q0 -72 -16.5 -138.5t-77.5 -111.5q-45 -35 -103.5 -81 t-110 -97t-87 -106.5t-35.5 -108.5q8 0 19 11t24.5 26.5t29 33t31.5 31.5q23 20 55.5 23.5t61.5 3.5zM1130 354v58q0 29 1.5 88t2.5 133t2 156.5t2 156.5t1 133v88q14 25 25.5 49.5t25.5 49t34.5 48t55.5 44.5l66 33l10 -9l1 -61t2 -145t3 -174.5t2 -149.5v-547q4 -23 6 -36 t2 -31q0 -12 -15.5 -32t-34.5 -39.5t-39.5 -32.5t-31.5 -13l-4 2q-55 43 -86 102t-31 129zM377 281v8q0 4 13 18.5t33.5 30.5t44.5 28.5t42 12.5q25 0 61.5 -15.5t73.5 -37t67.5 -46t45.5 -42.5v-9l-25 -24q-8 -6 -22.5 -18.5t-23.5 -20.5t-11 -10h-17q-63 66 -129.5 92.5 t-152.5 32.5zM1155 358q0 -16 9.5 -47.5t22.5 -62.5t31.5 -54.5t36.5 -23.5q2 0 5 1l4 1l73 66l1 26q1 27 1 64v75v64v235q0 109 -2 212.5l-4 207t-4 219.5h-4q-23 0 -45.5 -20.5t-44 -47t-39.5 -55t-33 -42.5v-93q0 -61 -1 -139t-2 -163t-2 -162.5t-2 -140t-1 -91.5v-29z M451 305q8 -2 33.5 -8t33.5 -8q16 -4 39 -18.5t45.5 -29t41 -25.5t24.5 -11q12 0 22 10t10 23q0 18 -29.5 37.5t-65.5 35t-65 25.5l-28 10q-18 0 -33.5 -14.5t-27.5 -26.5zM616 662q0 113 3.5 227.5t-6 218.5t-36 193.5t-83.5 154.5v10q94 0 161.5 -43t110.5 -109.5 t63.5 -147.5t20.5 -154q0 -111 -42 -191t-140 -143q-10 -6 -25.5 -16.5t-17.5 -8.5zM575 1425q0 -23 10.5 -46t14.5 -48q12 -53 19.5 -123.5t12.5 -152.5t7 -169t2 -175h6q4 0 13.5 6t19.5 13t18.5 13.5t10.5 8.5q61 55 88.5 116.5t27.5 143.5q0 76 -14 134t-44 106t-76 89 t-107 82zM94 1092v14q0 20 17 20q43 0 88 -24.5t82.5 -61t62.5 -82t25 -86.5q0 -10 -2 -32.5t-19 -22.5l-4 2q-43 18 -87 43t-80 58.5t-59.5 76t-23.5 95.5zM127 1077q0 -31 22.5 -67.5t55.5 -69.5t69.5 -54.5t65.5 -21.5q0 35 -19.5 73t-50 68.5t-68.5 51t-75 20.5z" />
<glyph unicode="B" horiz-adv-x="1716" d="M254 332q45 0 91 -23.5t90 -57.5t86 -71t79 -63q78 -59 171 -88t192 -29q70 0 148.5 25.5t156.5 70.5t149.5 104.5t125.5 128t87 141.5t33 144q0 74 -27.5 134.5t-81.5 113.5q-10 10 -30.5 22.5t-42 25t-36.5 25.5t-15 23v5q8 8 51 22t90 26.5t86 19.5t39 5v8q0 8 -8 9 q-43 2 -71 8t-43 21.5t-23.5 42t-12.5 69.5q-8 78 -20.5 143.5t-43 113.5t-86 74.5t-151.5 26.5q-47 0 -99.5 -8t-98.5 -27.5t-81.5 -54.5t-50.5 -86h-16q-2 0 -17.5 15.5t-23.5 25.5q-66 76 -144.5 101.5t-179.5 25.5q-90 0 -181 -27.5t-163.5 -82t-118 -133t-45.5 -181.5 q0 -49 12.5 -104t47.5 -96q18 -20 47 -40t55.5 -41.5t46 -46t19.5 -55.5q0 -39 -23.5 -58.5t-53.5 -30.5t-53.5 -21.5t-23.5 -30.5q68 0 128.5 31.5t106.5 83t73.5 115t27.5 128.5q0 57 -19.5 97.5t-50 69t-64.5 50t-64.5 43t-50 48t-19.5 65.5q0 35 16.5 58.5t41 39 t55 21.5t59.5 6q20 0 41.5 -10t36.5 -25q49 -45 76.5 -97t40 -110.5t15.5 -121t3 -123.5v-29q0 -35 1 -99.5t-3 -128t-17.5 -113.5t-40.5 -56q-74 -12 -144.5 -40t-125.5 -73t-89 -108.5t-34 -145.5q12 0 21 10q4 63 42 106.5t99 43.5zM352 414q2 8 23.5 15t47.5 13.5 t48.5 10.5t30.5 4q57 0 106 -22.5t94.5 -56.5t85 -74t78.5 -73q41 -35 83 -62.5t83 -59.5v-5q0 -10 -9 -16t-21.5 -9t-26.5 -4t-25 -1h-8q-74 0 -143.5 30.5t-135 75.5t-125 97.5t-112.5 95.5q-6 4 -16.5 9t-22.5 10t-22.5 10.5t-12.5 11.5zM434 406q41 -33 104.5 -85.5 t135 -101.5t142.5 -85t126 -36q16 0 16 15v4q-57 41 -108 86t-103.5 88t-107.5 82t-121 67h-20q-14 0 -39 -5t-25 -25v-4zM567 539q0 10 8 16q92 61 172 117.5t152 140.5l13 13t12 3h16q74 0 159 -45t157.5 -114.5t119.5 -150.5t47 -154q0 -92 -54 -155t-148 -63 q-68 0 -135.5 39t-132 92.5t-126 110.5t-118.5 92q-6 4 -30 12.5t-48.5 16.5t-44 16.5t-19.5 12.5zM1198 842v4q39 12 73 23.5t72 11.5q27 0 68 -26t81 -64.5t68.5 -83.5t28.5 -84q0 -12 -9 -42t-22.5 -59.5t-29 -52.5t-27.5 -23q-2 0 -3 2l-1 1q-18 61 -40.5 109t-55.5 91 t-79 84t-108 88q-4 2 -9 8.5t-7 8.5v4zM1272 821q76 -51 142.5 -130t90.5 -169h4q8 0 16.5 10.5t14.5 24.5t10 29.5t4 25.5q0 31 -22.5 71t-56 77t-71.5 61.5t-69 24.5q-4 0 -15 -1t-21.5 -3t-18.5 -6.5t-8 -10.5v-4zM508 1479q68 0 114 -15.5t81.5 -42t69.5 -61.5t77 -74 q6 -35 9 -59.5t5 -48t2 -45.5v-54v-49q0 -29 -1 -56.5t-12 -58t-36.5 -63.5t-75.5 -72q-8 -8 -23.5 -22.5t-32.5 -27.5t-34.5 -22.5t-29.5 -9.5q0 51 1 105.5t1 109.5q0 123 -9.5 241t-54.5 230q-8 25 -29.5 46.5t-21.5 48.5zM575 1438v-13q2 0 8.5 -17t13.5 -38.5t13 -41 t8 -25.5q18 -86 23.5 -175.5t5.5 -179.5q0 -49 -1 -98t-1 -96q16 0 43 22.5t54.5 52t52 59.5t39.5 42q6 45 7 74.5t1 72.5v51q0 8 -2 28t-5.5 42.5t-5.5 43t-4 28.5q-25 4 -47 30.5t-50 57.5t-65 55.5t-88 24.5zM94 1116q0 16 4 28.5t15 33.5h8q31 -18 69.5 -41t72.5 -50.5 t57.5 -62.5t23.5 -76q0 -8 -2 -23.5t-6 -30.5t-11.5 -27.5t-17.5 -12.5h-4q-31 23 -67.5 49.5t-68.5 59t-52.5 70.5t-20.5 83zM932 897q0 27 5 69t5 87q0 63 -9 124.5t-9 125.5q0 29 11 59.5t30.5 56t46 42t57.5 16.5q33 0 51.5 -20.5t29.5 -53.5t16 -73t10.5 -80 t13.5 -74.5t24 -55.5q16 -23 51 -41t70 -33.5t61.5 -26.5t26.5 -15q0 -10 -53 -29t-129 -39.5t-155.5 -41t-135.5 -32.5q-12 4 -15 11.5t-3 17.5v6zM125 1120q0 -35 15.5 -64.5t40 -56t53 -49t53.5 -39.5h8q16 0 16 23v8q0 27 -18.5 58.5t-47 58t-61 44t-59.5 17.5z M1214 1468q0 6 6.5 7.5t12.5 1.5h6q66 0 110 -31t69.5 -79t36.5 -108.5t11 -119.5v-45q-78 0 -122 31.5t-67.5 80.5t-33.5 109.5t-20 120.5q0 2 -4.5 15t-4.5 17zM1253 1444q0 -43 8.5 -97.5t29 -101.5t57 -78.5t94.5 -31.5q0 39 -9.5 92t-31 101t-57.5 82t-91 34z" />
<glyph unicode="C" horiz-adv-x="1624" d="M20 827q0 -209 73 -364.5t191.5 -258t272.5 -153.5t317 -51q133 0 238 23.5t185.5 76t141 136t107.5 204.5q6 18 12.5 33.5t6.5 36.5q-14 0 -37 -41t-48.5 -93t-53 -103.5t-54.5 -71.5q-74 -59 -140.5 -104.5t-141.5 -45.5h-224q-80 0 -140 33t-104 87t-72 120.5 t-45.5 134.5t-23.5 129t-6 102v76q0 145 12.5 278.5t47.5 274.5q4 4 11 26.5t13 41.5q29 66 78 107.5t121 41.5q70 0 110.5 -39t40.5 -108q0 -33 -15 -41t-36 -29q-37 -35 -71.5 -69.5t-61.5 -73.5t-43 -83t-16 -97q0 -84 45 -152t100 -130.5t100 -124.5t45 -136 q0 -51 -22.5 -69.5t-67.5 -18.5q-70 0 -113.5 52t-69.5 114.5t-39 115t-23 52.5t-11.5 -7.5t-1.5 -13.5q0 -23 5 -40t12 -40q18 -59 42.5 -111.5t61.5 -90t87 -59t118 -21.5q43 0 73.5 5t82.5 21q49 14 84.5 52t59 83t35 88t11.5 68q0 84 -34 157.5t-83 141.5t-105.5 131.5 t-101.5 124.5q-8 10 -20 37t-12 45q0 35 16 56.5t41 43.5h14q27 0 48.5 -27.5t37.5 -39.5q104 -84 242 -84q43 0 93 17.5t92 47t71 71.5t29 91q-35 0 -67 -13.5t-66 -13.5q-39 0 -73 24t-62.5 51.5t-49 51t-33.5 23.5q-27 0 -63.5 -24.5t-78.5 -55.5t-82 -55.5t-72 -24.5 q-8 0 -15.5 15.5t-16.5 35t-22.5 41t-32.5 33.5q-43 31 -89 41t-99 10q-147 0 -269 -61t-210 -162.5t-137.5 -232t-49.5 -269.5zM94 809q0 78 18.5 155.5t54.5 149.5t86 133.5t116 106.5q10 4 27.5 15t35 22.5t32.5 20.5t21 9q0 -16 -3 -34.5t-13 -32.5q-41 -162 -50 -316.5 t-9 -320.5v-99v-83q0 -41 4 -81t14 -84t31 -94q10 -27 34.5 -58.5t24.5 -59.5q-20 0 -48 19.5t-44 31.5q-55 43 -97 84t-75 85t-59.5 95t-49.5 117q-23 57 -37 108.5t-14 110.5zM119 811q0 -74 28.5 -157t72.5 -159.5t96.5 -140t101.5 -96.5h10q0 10 -7 34.5t-14.5 58.5 t-14.5 74t-7 83v223q0 84 2 155.5t6 140.5t12.5 139.5t20.5 152.5q2 4 2 14v15q0 2 -8 -2.5t-18.5 -10.5t-19.5 -13t-13 -11q-53 -47 -98.5 -103.5t-79 -121t-53 -134t-19.5 -141.5zM741 973q0 23 11.5 47t28 48t35 44.5t34.5 32.5q12 -10 24.5 -25.5t23.5 -34t21.5 -36 t20.5 -27.5q31 -39 76 -91t88 -108.5t72.5 -114t29.5 -106.5q0 -23 -17.5 -58.5t-42 -69.5t-53 -58.5t-49.5 -24.5h-4q-4 2 -8 5l-4 3v133q0 20 -21.5 50t-53 67t-68.5 78t-69 83t-53.5 84t-21.5 79zM774 967q0 -31 24.5 -64t43.5 -55q33 -47 70.5 -90t69.5 -88t53.5 -95.5 t21.5 -109.5v-14q0 -2 2 -2h2q16 0 35.5 18t37 43t29 51.5t11.5 42.5q0 31 -23 76t-53.5 90t-63.5 86t-53 66q-2 2 -17.5 21.5t-35 43l-39 47t-31.5 37.5l-12 8q-8 0 -20.5 -14t-23.5 -32.5t-19.5 -37t-8.5 -28.5zM1139 1362q0 8 11 17.5t25.5 16.5t30 13t25.5 10 q41 -37 84 -67.5t98 -40.5v-4q0 -12 -13.5 -20.5t-30.5 -13.5t-33.5 -8t-24.5 -3q-14 0 -43 10t-57.5 25.5t-50 33t-21.5 31.5zM1196 1358q0 -12 18.5 -24.5t42 -21.5t46 -14.5t30.5 -5.5q0 6 -15 19.5t-34.5 26t-37 22.5t-23.5 10t-16.5 -2t-10.5 -10z" />
<glyph unicode="D" horiz-adv-x="1640" d="M266 244q16 0 29.5 -4t32.5 -15l331 -166q66 -35 147 -47t155 -12q109 0 206 36t177.5 98.5t143 148.5t99.5 184q23 61 28 131t5 135q0 104 -19.5 190.5t-56.5 163t-93 146.5t-130 137q-59 55 -126 90t-139.5 55.5t-148.5 28.5t-151 8q-119 0 -220.5 -19.5t-187.5 -62.5 t-157.5 -114.5t-129.5 -175.5q-41 -80 -41 -179q0 -344 345 -344q10 0 27.5 2.5t34.5 7.5t29.5 15t12.5 27q-39 0 -74 -5.5t-71 -5.5h-72q-33 8 -63.5 25.5t-55 42.5t-40 56.5t-15.5 68.5q0 66 29.5 113t79 78.5t111.5 51t126.5 30t125 13.5t105.5 3h4q4 -2 18.5 -6.5 t14.5 -14.5v-6q-2 -2 -4 -7t-4 -9q-23 -33 -48.5 -68t-48 -71.5t-37.5 -75.5t-15 -82q0 -61 29.5 -101.5t73.5 -70t96 -49t96 -39t74 -41t30 -52.5q0 -10 -4 -26.5t-12.5 -31.5t-18.5 -26.5t-25 -11.5h-8q-39 12 -73.5 26.5t-71.5 25t-80 17.5t-98 7q-133 0 -232.5 -44 t-165.5 -165q-23 -39 -41 -76t-18 -84q16 0 28.5 22.5t30 50.5t45 50.5t76.5 22.5zM725 127q-57 29 -127 62.5t-130 62.5t-101 50l-41 20q0 18 22.5 30.5t50 21.5t52 13t26.5 4t31 1t43 1q68 0 127 -19.5t116.5 -47t114 -57t115.5 -52.5q51 -18 101.5 -23.5t105.5 -9.5v-8 q-10 -18 -45 -36.5t-78 -35t-85 -26.5t-62 -10q-57 0 -120 20.5t-116 38.5zM401 330l349 -178q43 -23 100 -37.5t104 -14.5q53 0 91 16.5t85 35.5v8q-74 10 -148.5 44t-148 70.5t-145.5 65.5t-139 29q-8 0 -32.5 -2t-50.5 -7.5t-45.5 -12.5t-19.5 -17zM932 358q-8 2 -8 15v8 q0 14 11 28.5t26.5 28t31 24.5t23.5 21q53 61 89 121t36 144q0 70 -32 114.5t-80 73.5t-104.5 46t-104.5 34.5t-79.5 40t-31.5 59.5q0 25 13 44.5t40 19.5h4q121 -14 260 -51t259 -107t199 -174.5t79 -253.5q0 -49 -15.5 -108.5t-45 -111.5t-75 -88t-104.5 -36 q-115 0 -203 27.5t-188 80.5zM616 840q0 8 8.5 29.5t19.5 44t23.5 41t22.5 18.5q8 0 10 -2l199 -66q14 -4 43 -20.5t55.5 -40t47 -51t20.5 -54.5q0 -39 -27.5 -77.5t-56.5 -63.5q-18 16 -52 31.5t-75 33t-83 35t-77 39t-56.5 47t-21.5 56.5zM649 838q0 -20 44 -53t101.5 -64 t110.5 -52.5t72 -21.5q8 0 18.5 13.5t18.5 30t13 30.5t5 18q0 37 -43 71t-99 60.5t-109.5 43t-71.5 16.5h-9q-16 -16 -33.5 -40.5t-17.5 -51.5zM680 1245q-104 0 -201.5 -8t-202.5 -25q-27 -4 -54 -19t-54 -15q0 16 17.5 36.5t25.5 30.5q106 127 259 184.5t316 57.5 q96 0 186.5 -26.5t170.5 -73t147.5 -111t122.5 -139.5q20 -29 48 -66t28 -76q-16 0 -34.5 11.5t-36 27t-34 30.5t-30.5 23q-152 94 -325 126t-349 32zM858 1270q133 -10 264 -47t250 -103v17q0 2 -16.5 21.5t-26.5 29.5q-111 123 -242 187.5t-296 84.5h-9q-16 -2 -43.5 -4 t-53.5 -5t-46.5 -5t-22.5 -2q-16 -2 -47.5 -12.5t-70.5 -25.5t-80 -35.5t-75 -42t-55.5 -44t-21.5 -43.5q61 0 143.5 14.5t157.5 14.5h113h178z" />
<glyph unicode="E" horiz-adv-x="1675" d="M20 827q0 -197 62.5 -351t174.5 -260.5t267.5 -162t343.5 -55.5q162 0 306.5 52t257.5 173q6 6 19 21.5t27.5 33t24.5 35t10 31.5v4q0 8 -8 8h-8l-8 -8q-2 -2 -9 -12t-15.5 -20.5t-15.5 -20.5t-9 -12q-98 -111 -220 -172.5t-270 -61.5q-160 0 -256 55.5t-148 147.5 t-68.5 215t-16.5 258q0 68 1 152t8 171t23.5 168.5t47 145t79 102.5t119.5 39q25 0 55.5 -7t58.5 -21.5t46.5 -36t18.5 -49.5q0 -14 -23 -35t-52.5 -42.5t-57 -42t-35.5 -32.5q-41 -57 -70 -110.5t-29 -127.5q0 -80 44 -152.5t97.5 -140t97.5 -133t44 -129.5v-47 q-12 -16 -20.5 -25.5t-17.5 -14.5t-22.5 -7t-35.5 -2q-53 0 -91 39t-65 94.5t-40 112.5t-15 94q-4 10 -13.5 11t-15.5 1q0 -74 19.5 -145.5t59.5 -128.5t101.5 -93t147.5 -36q59 0 119.5 21.5t109.5 59.5t80 92t31 122q0 70 -17.5 132t-17.5 130q0 31 7 66.5t22.5 65.5 t42 49.5t63.5 19.5q33 0 33 -31q0 -16 -11.5 -31.5t-23.5 -33t-23.5 -40t-11.5 -49.5q0 -66 39 -115.5t111 -49.5q43 0 71.5 19t46 50t25.5 69t8 75q0 31 -20.5 64.5t-51 63t-66.5 48t-65 18.5q-53 0 -92 -17.5t-66.5 -48t-44 -71.5t-26.5 -88l-8 -8l-16 16q-4 6 -17.5 26.5 t-29 45t-29 45t-17.5 24.5q-18 29 -45.5 60.5t-52.5 64.5t-42 69t-17 75q0 23 19.5 44t43.5 21h10t11 -2q35 -31 67.5 -58.5t66.5 -50t73.5 -36t91.5 -13.5q55 0 115.5 29t112.5 71t86 87t34 76v4q0 8 -8 8h-9q-35 -37 -64.5 -56.5t-78.5 -19.5q-55 0 -94 24.5t-65.5 55.5 t-40 55.5t-17.5 24.5q-35 0 -67.5 -25.5t-61.5 -42.5q-25 -12 -53.5 -28.5t-53 -31t-44 -23.5t-27.5 -9q-2 0 -3 1l-1 1q-31 33 -58.5 59.5t-58.5 45t-70 27.5t-92 9q-147 0 -270 -58t-211 -157.5t-137.5 -232t-49.5 -277.5zM162 498q-27 78 -51.5 158.5t-24.5 166.5 q0 98 41 201.5t99.5 188.5t123 139.5t111.5 54.5q0 -29 -12.5 -61.5t-22.5 -59.5q-20 -141 -26.5 -282.5t-6.5 -282.5v-74q6 -111 17.5 -218t33.5 -179q4 -16 14.5 -32.5t10.5 -35.5h-8q-2 0 -14.5 7.5t-29 18.5t-32.5 22.5t-25 19.5q-63 53 -111 114.5t-87 133.5zM119 809 q0 -141 59.5 -268t157.5 -226q10 -10 28.5 -25.5t20.5 -15.5h18q0 -2 -2 6.5t-4 20.5t-6 25.5t-6 21.5q-2 14 -4 54t-5 83t-5 82t-2 56v96q0 154 9 301t23 299v16q-12 -4 -26.5 -15t-22.5 -17q-104 -96 -168.5 -223.5t-64.5 -270.5zM733 1012q0 18 12.5 49t31 61.5t39 52 t38.5 21.5l4 -2q4 -6 16.5 -24.5t25.5 -38t24.5 -37t17.5 -23.5q27 -37 69 -93t82 -117.5t68.5 -124t28.5 -113.5q0 -25 -17.5 -64t-44 -74.5t-55.5 -61.5t-53 -26l-4 41q0 29 -3 60.5t-14 56.5q-23 49 -66.5 106.5t-87.5 119t-78 121t-34 110.5zM766 1014 q0 -47 31.5 -102.5t74.5 -113t86 -112.5t66 -104q12 -29 14 -63t2 -62h9q6 0 24.5 16t36.5 41t32.5 52.5t14.5 49.5q0 35 -21.5 88.5t-55 110.5t-72.5 114.5t-73 103.5t-59.5 75t-29.5 29q-10 0 -23.5 -15.5t-26 -36t-21.5 -41t-9 -30.5zM1413 860q0 18 9.5 32.5t20.5 27 t20.5 25.5t9.5 32v2l3 1t5 1q12 0 23.5 -10t21.5 -25.5t16 -31t6 -27.5q0 -8 -6 -22.5t-15 -30t-19.5 -26.5t-18.5 -11h-25l-51 49v14zM1446 866l2 -4q2 -4 11 -12t14 -12h4q14 0 25 18t11 33q0 8 -5 16t-15 8l-45 -43l-1 -1q-1 -1 -1 -3zM1139 1384q0 4 10 12.5t23.5 17.5 t30 17.5t28.5 12.5h8q20 -25 39.5 -39t40 -24.5t42 -21.5t46.5 -28q0 -4 -14.5 -10t-34 -12t-37.5 -10.5t-25 -4.5q-12 0 -37.5 8.5t-52 20.5t-47 28.5t-20.5 32.5zM1198 1368q35 -27 59.5 -35t65.5 -8v10q-6 2 -19.5 13.5t-28.5 23.5t-28.5 21.5t-19.5 9.5q-10 0 -20.5 -7 t-10.5 -20l1 -3q1 -3 1 -5z" />
<glyph unicode="F" horiz-adv-x="1583" d="M154 14q0 -111 58 -200.5t147.5 -152t198 -97.5t206.5 -35q129 0 250 44t213 123t147.5 189.5t55.5 245.5q0 86 -40 161t-89.5 145.5t-89.5 144t-40 159.5q0 18 6.5 43t18.5 48.5t30.5 40t41.5 16.5t22 -17q0 -33 -21.5 -63.5t-21.5 -65.5q0 -57 46 -101t104 -44 q41 0 72.5 16.5t52 44t31 63.5t10.5 73q0 39 -19.5 67.5t-48.5 45t-64.5 24.5t-66.5 8q-66 0 -110 -16.5t-69.5 -49t-35.5 -81t-10 -109.5l-9 -18q-25 20 -50 49.5t-44.5 64.5t-33 71t-13.5 71q0 23 7.5 45t27.5 39q18 -2 39 -2h43q70 0 149.5 9t145 38.5t109.5 83t44 139.5 q0 55 -22.5 99t-60 76t-86 49.5t-99.5 17.5q0 -25 34 -39.5t76 -34t75.5 -50t33.5 -87.5q0 -41 -26.5 -54.5t-59.5 -13.5q-55 0 -107 19.5t-101.5 48t-96.5 59.5t-90 55q-104 55 -222 102.5t-239 47.5q-98 0 -195.5 -31t-174 -90t-125 -144t-48.5 -192q0 -72 26 -132 t70 -104.5t104.5 -70t131.5 -25.5q45 0 96.5 10.5t98.5 31t88 52t65 72.5v4q0 10 -7 12.5t-13 2.5q-2 0 -6 -1t-6 -1q-61 -68 -136 -105t-167 -37q-49 0 -100.5 13.5t-92.5 40t-67.5 67.5t-26.5 98q0 55 23.5 94.5t60.5 64t85 35.5t97 11q57 0 113.5 -13t109.5 -36 q16 -8 53 -23.5t83.5 -36t95.5 -43t90 -41t67.5 -29.5t26.5 -13v-4q-10 -27 -30.5 -50.5t-45 -45t-47 -43t-35.5 -44.5q-33 -47 -54 -108.5t-21 -120.5l51 -186q0 -2 8 -16.5t20.5 -33t24.5 -37t20 -30.5q35 -49 75 -97.5t75 -100.5t58.5 -108.5t23.5 -119.5v-4 q-25 -152 -118 -226.5t-236 -74.5q-55 0 -108.5 17t-96.5 51t-69.5 82t-26.5 110q0 70 33.5 131t74.5 123.5t75 128t34 143.5q0 133 -65.5 214t-207.5 81q-113 0 -192.5 -54.5t-141.5 -146.5q-6 -10 -15 -29.5t-9 -31.5t16 -12h8q14 35 38 72.5t54.5 69.5t68.5 52.5t81 20.5 q33 0 45 -20.5t12 -49.5t-12 -57.5t-30.5 -56t-39 -52t-34.5 -47.5q-43 -63 -66.5 -135t-23.5 -150zM227 25q0 53 21.5 100t52.5 92t62.5 88t54.5 86q2 4 4 28.5t6 53.5t9 52.5t16 23.5q25 0 50 -21.5t46.5 -52.5t36 -63.5t14.5 -57.5q0 -31 -17.5 -70.5t-44 -83.5 t-58 -90.5t-62.5 -91.5q-25 -61 -31 -118.5t-10 -122.5h-4q-18 0 -43 30.5t-47.5 71.5t-39 82t-16.5 64zM831 610q0 23 7.5 49.5t19.5 51t29.5 45t36.5 32.5q14 -10 27.5 -28.5t25.5 -41t24.5 -44t22.5 -35.5q23 -29 53.5 -45t52.5 -45q6 -10 20.5 -33.5t31 -49.5t30 -50.5 t19.5 -32.5q18 -33 40.5 -67.5t41 -70.5t31 -75t12.5 -78q0 -29 -17.5 -78t-44 -98t-57.5 -87t-55 -44q-4 78 -9.5 148.5t-33.5 142.5q-29 70 -80 131t-102.5 123.5t-88.5 130t-37 149.5zM252 23q0 -45 33.5 -93.5t66.5 -76.5q4 59 19.5 108t39 95t53.5 92.5t62 101.5 q16 29 25.5 55.5t9.5 59.5q0 12 -8 34.5t-20.5 45t-28 39t-27.5 16.5h-20v-109q-18 -20 -28.5 -44.5t-27.5 -47.5q-16 -23 -40.5 -57.5t-49 -73.5t-42 -76.5t-17.5 -68.5zM864 608q0 -61 33 -122.5t78 -122t94 -118t80 -110.5q35 -63 45 -128.5t12 -137.5h8q14 0 33 29.5 t36 68.5t28.5 79t11.5 58q0 35 -20.5 82t-51 99.5t-66.5 102.5t-67 90t-53.5 66.5t-24.5 28.5q-18 14 -36.5 40t-36 50.5t-29.5 42t-14 17.5h-9q-16 -29 -26 -45t-15.5 -26.5t-7.5 -20t-2 -23.5zM1337 752q0 18 10.5 27t16.5 26q4 14 5 31.5t11 27.5q31 -14 66 -37.5 t35 -62.5q0 -10 -9.5 -23.5t-22.5 -27t-27.5 -22.5t-24.5 -9q-20 0 -40 26t-20 44zM1372 752v-4q2 -4 11.5 -13.5t13.5 -11.5h4q14 0 26.5 18.5t12.5 32.5q0 6 -10.5 23.5t-28.5 17.5q-4 -12 -16.5 -31.5t-12.5 -31.5zM193 1311q0 23 40.5 54.5t98 60t121 49t106.5 20.5 q78 0 148.5 -22.5t137 -58.5t131 -77t131.5 -78.5t136.5 -64.5t145.5 -33v-4q0 -16 -30 -30.5t-68 -24.5t-72.5 -16.5t-42.5 -6.5q-113 0 -219.5 37t-206.5 88q-66 33 -139.5 70t-149.5 37h-268zM287 1346q156 0 271.5 -38t214.5 -83t193.5 -83t207.5 -38q27 0 59.5 8 t54.5 25q0 8 -8 8q-86 35 -181 90t-190.5 107.5t-184.5 90t-165 37.5q-39 0 -86 -16t-89 -36.5t-69.5 -39t-27.5 -24.5v-8z" />
<glyph unicode="G" horiz-adv-x="1814" d="M20 762q0 -84 19.5 -157t54.5 -148q55 -127 150.5 -217t212 -146.5t249 -83t263.5 -26.5q84 0 178 18t185 54t175 89.5t147.5 122t101.5 152.5t38 180q0 111 -32.5 194t-125.5 142q-10 6 -33.5 14t-50 15.5t-46 13.5t-19.5 12q0 10 29.5 27.5t65.5 45.5t65.5 67.5 t29.5 95.5q0 45 -25.5 77.5t-57 55t-57.5 39t-26 26.5q0 18 22.5 30.5t48.5 23t48.5 19.5t22.5 24q0 10 -6.5 11t-14.5 1h-12q-43 -12 -110.5 -35.5t-131 -59.5t-109.5 -85t-46 -111q0 -59 31.5 -96t74.5 -78q0 -4 1 -12t1 -13q0 -31 -20.5 -56t-49 -45.5t-60.5 -37 t-54 -26.5h-4q-6 0 -24.5 26.5t-38 60t-36 64.5t-20.5 39q-92 123 -92 213q0 14 6 33.5t17.5 37t26.5 29t34 11.5q20 0 32.5 -17.5t22.5 -38t23.5 -38t35.5 -17.5v18q-23 33 -45 67t-22 50q0 20 17.5 31.5t39 22t39 22.5t17.5 35q-37 0 -73 -24.5t-63 -45.5h-12 q-16 0 -33.5 10.5t-35 22.5t-35 24.5t-33.5 18.5q-37 10 -51.5 13t-36.5 3h-45q-166 0 -301 -62.5t-232.5 -170t-151 -250.5t-53.5 -305zM467 756q0 90 5 195.5t22 217.5q6 55 24.5 100.5t32.5 98.5l108 107q23 23 65 28.5t71 5.5q12 0 41.5 -7t60.5 -18t54.5 -26.5 t23.5 -32.5q0 -6 -1 -9t-9 -7q-63 -47 -124 -95t-107 -105.5t-73.5 -125t-27.5 -151.5q0 -76 40 -142.5t89 -132t89 -136t40 -152.5q0 -37 -11.5 -54.5t-50.5 -17.5q-66 0 -104.5 44t-60 97.5t-30.5 97.5t-18 44h-10q0 -158 76 -245t236 -87q63 0 121.5 28.5t102.5 75.5 t70.5 107.5t26.5 122.5q0 61 -24.5 123.5t-51.5 115.5v8q0 14 10.5 25.5t25.5 19t31.5 10.5t29.5 3q45 0 69.5 -40t35.5 -92.5t13 -104.5t2 -79q0 -113 -20.5 -213t-70.5 -176t-134 -121t-213 -45q-162 0 -256 68t-143 174.5t-62.5 237.5t-13.5 260zM94 705v69 q0 74 18.5 154t55.5 154.5t91 141t126 111.5q12 8 30.5 22.5t37.5 14.5v-12q0 -6 -2 -8q-29 -150 -40.5 -296.5t-11.5 -299.5q0 -74 1 -121t3.5 -88t7.5 -86t15 -113q6 -37 21.5 -74.5t15.5 -76.5q-25 0 -54.5 20.5t-59.5 51t-59.5 63.5t-53.5 57q-31 31 -51.5 70t-36 80 t-28 84t-26.5 82zM1446 610v135q-6 29 -14.5 57.5t-14.5 52.5l-10 40t-4 18q63 0 120.5 -22.5t101.5 -61t69.5 -94t25.5 -119.5q0 -66 -39 -139.5t-91 -135.5t-103 -103t-76 -41q0 66 17.5 137.5t17.5 138.5v137zM1473 610q0 -86 -9.5 -169t-9.5 -169q4 0 12.5 3.5t12.5 7.5 q31 29 68.5 66.5t70.5 80.5t55.5 90t22.5 94q0 45 -20.5 91.5t-55.5 83t-79 60t-89 23.5q0 -12 3 -39.5t7 -63.5t7.5 -77t3.5 -82zM119 774q0 -53 25.5 -130t66.5 -152.5t91 -134t99 -74.5h9q-10 20 -16.5 74.5t-10.5 123t-6 142t-2 135.5q0 137 14 272t14 270h-10 q-84 -47 -137 -121.5t-84 -152.5t-42 -146.5t-11 -105.5zM715 969q0 16 15 54t36.5 76t46.5 66.5t41 28.5l18 -35q19 -35 41.5 -78t43 -81.5t24.5 -47.5q25 -41 56.5 -89t60 -98t48 -101.5t19.5 -100.5q0 -20 -20.5 -55t-49 -68.5t-60 -58.5t-54.5 -25h-8q-4 61 -15.5 115.5 t-42.5 108.5q-27 45 -61.5 90t-65 93t-52 99.5t-21.5 106.5zM799 813q35 -51 67.5 -98t59 -94.5t46 -99.5t25.5 -115h11q6 0 25.5 18t41 45t38.5 56.5t17 49.5q0 35 -19 80t-46 93.5t-57.5 95.5t-51.5 84q-10 18 -23 47t-27.5 58.5t-30 55t-33.5 37.5q-18 -6 -33.5 -24.5 t-29 -42t-22.5 -46t-16 -34.5v-12q0 -41 23 -79t35 -75zM1305 1243v2q0 12 16 31.5t37.5 38t43 32t32.5 13.5q6 0 31.5 -18.5t54 -42t52 -47t23.5 -33.5q0 -14 -23.5 -40t-53 -50.5t-58 -42t-39.5 -17.5q-6 0 -10 11.5t-7 25.5t-7 27.5t-8 19.5q-8 8 -21.5 17.5t-27 20.5 t-23.5 24.5t-12 27.5zM1346 1235q29 -25 55 -55.5t37 -53.5h8q8 0 26.5 11.5t37 27t31.5 30.5t13 24v8q-25 29 -59.5 56.5t-75.5 27.5q-10 0 -22.5 -7.5t-23.5 -18.5t-19 -23.5t-8 -22.5v-4z" />
<glyph unicode="H" horiz-adv-x="1699" d="M467 -121q0 -68 26.5 -121t71.5 -89t104.5 -54t123.5 -18q94 0 180 21.5t160 86.5q8 8 22 21.5t27.5 27t22.5 23.5l9 10v16h-16q-41 -37 -83 -69.5t-88 -58t-97 -40t-109 -14.5q-53 0 -110.5 13.5t-103.5 42t-75.5 73.5t-29.5 109q0 14 8 32.5t21.5 36t28.5 29.5t32 12 h108q47 -27 82 -54.5t76 -86.5h25l465 250q164 104 247.5 234t83.5 296q0 121 -42 213t-114.5 153.5t-171 92.5t-212.5 31q-63 0 -120.5 -19.5t-112 -49.5t-105.5 -64.5t-101 -65.5q-2 -2 -11 -5t-13 -3h-8q-25 16 -55.5 59t-57.5 95.5t-44 108.5t-17 101q0 31 16 64 t42 59.5t58.5 43t63.5 16.5q2 0 9 -10.5t16.5 -24.5t18.5 -30.5t15 -26.5q49 -59 120 -104.5t151 -45.5q49 0 104 14.5t98 36.5q33 16 83 53t96.5 80t80 89.5t33.5 80.5q-18 0 -38.5 -23.5t-49.5 -51t-70 -50t-102 -22.5t-110.5 35t-84 78t-55 77.5t-26.5 34.5h-5 q-76 -45 -148.5 -84t-150.5 -74q-76 -35 -160.5 -70.5t-156.5 -84.5t-119 -118t-47 -169q0 -74 22.5 -136.5t56.5 -119.5t73 -109.5t72.5 -105.5t56 -107.5t22.5 -115.5q0 -33 -13 -58.5t-35.5 -44t-51.5 -28.5t-60 -10q-14 0 -31.5 1t-32.5 7t-25.5 17t-10.5 30v20 q43 47 67.5 89t24.5 108q0 61 -37.5 103t-103.5 42q-39 0 -66.5 -16t-46 -43t-28 -60.5t-9.5 -66.5q0 -39 7.5 -66.5t20.5 -52t35.5 -46t53.5 -48.5q53 -29 95 -40t96 -11q76 0 159.5 35.5t153.5 95t115 135.5t45 156q0 45 -15.5 81.5t-35 67.5t-35 57.5t-15.5 51.5 q0 18 22.5 31.5t52.5 21.5t58.5 11t43.5 3q70 0 144.5 -31.5t136 -84t101 -121t39.5 -144.5v-108q0 -123 -24.5 -223.5t-116.5 -184.5h-16q-12 0 -26.5 14.5t-29 33t-28 38t-25.5 31.5q-35 39 -91 65.5t-110 26.5q-72 0 -138 -25.5t-116.5 -71.5t-80 -107.5t-29.5 -135.5z M766 41h-125q0 14 23.5 32.5t54.5 35t59.5 26.5t38.5 10q35 -16 59.5 -27.5t45 -25.5t40 -33.5t46.5 -48.5v-8l-9 -8q-6 -2 -19 -9.5t-29.5 -14.5t-31 -15t-20.5 -10q-23 12 -35 34.5t-39 22.5q-8 4 -29.5 19.5t-29.5 19.5zM733 70h6q31 0 57.5 -13.5t49 -29t37 -28.5 t20.5 -13h4q6 4 22.5 12t20.5 12v6q0 10 -17.5 25.5t-41 31t-44 27t-26.5 11.5h-4l-25.5 -8.5l-25.5 -8.5l-33 -16v-8zM1364 225q0 61 4 123t4 123q0 84 -23.5 167t-69.5 150.5t-113.5 115.5t-157.5 61v8q0 8 19.5 16t46 16.5t51 13.5t34.5 5q82 0 164 -34t146.5 -90 t104.5 -133t40 -163q0 -23 -9.5 -40t-17.5 -38q-18 -53 -36.5 -96t-43 -80t-57.5 -69.5t-78 -69.5q-8 2 -8 8v6zM1108 973q39 -25 76 -46.5t71 -52.5q49 -41 79 -95t44.5 -115.5t18.5 -126t4 -125.5v-127h12q6 0 33 31.5t57.5 80.5t54 105.5t23.5 105.5q0 72 -36 140.5 t-94 123t-130 87t-141 32.5h-25q-10 0 -29.5 -2t-19.5 -12v-2zM94 412q0 12 6 30.5t15.5 36t23 28.5t27.5 11q23 0 43 -19.5t20 -41.5q0 -37 -25.5 -64.5t-49.5 -50.5h-9q-20 0 -35.5 27t-15.5 43zM551 360v5q0 68 -22.5 127t-55.5 114.5t-72 105.5t-71.5 101t-55 104.5 t-22.5 110.5q0 20 16.5 58t40 73t51 61.5t50.5 26.5h8q10 -78 27.5 -146.5t56.5 -135.5q20 -35 56 -85.5t72 -105.5t62.5 -108.5t26.5 -92.5q0 -29 -16.5 -60.5t-40 -61t-49 -55t-46.5 -44.5q0 -2 -4 -2q-2 0 -12 10zM127 422q0 -8 6 -18.5t17 -10.5q14 0 30.5 24.5 t16.5 37.5q0 23 -27 22q-16 0 -29.5 -20.5t-13.5 -34.5zM285 1020q0 -35 13 -63.5t30 -57.5q31 -59 70.5 -116.5t78.5 -116t68.5 -120t38.5 -130.5q12 0 29.5 23.5t34 53t27.5 57.5t11 38q0 20 -17.5 54t-42 70t-48 68.5t-35.5 50.5q-33 55 -57.5 99.5t-42 84.5t-30 82 t-20.5 93h-8q-8 0 -24.5 -17.5t-34 -43t-29.5 -55t-12 -54.5zM801 1413l-1 3t-1 5q0 12 16 24.5t37.5 24t42 20.5t29.5 13q29 -23 49 -52.5t51 -53.5q12 -10 30.5 -17.5t36 -13.5t33 -14.5t25.5 -22.5q-20 -25 -57 -37t-68 -12q-72 0 -126 41t-97 92zM850 1413 q35 -41 78 -70.5t96 -29.5h14q10 0 19.5 2t9.5 10q0 10 -10 13t-17 8q-12 6 -30.5 24.5t-38 37.5t-34.5 33.5t-19 14.5q-16 0 -42 -11t-26 -28v-4z" />
<glyph unicode="I" horiz-adv-x="1501" d="M131 168q35 0 60.5 -40t45 -93t33 -105.5t25.5 -76.5q37 -84 90 -141.5t116.5 -92.5t137.5 -50t154 -15q123 0 241.5 35.5t211.5 105t151.5 174t58.5 240.5q0 86 -25.5 167.5t-63.5 159.5t-81 153t-80 150v52q0 18 4 30.5t21 26.5h39q57 0 89 -32t52.5 -69.5t34.5 -69.5 t37 -32q0 51 -21.5 97t-56.5 81t-82 55.5t-96 20.5q-74 0 -139.5 -22.5t-114.5 -65.5t-78 -104.5t-29 -137.5q0 -45 13.5 -107.5t35.5 -103.5l209 -372q29 -53 42.5 -91t23.5 -92v-4q0 -47 -19.5 -81.5t-51.5 -58.5t-71.5 -36t-80.5 -12q-98 0 -152.5 52t-88.5 131 t-59.5 170t-64.5 170t-102.5 131t-175.5 52q-88 0 -167 -29.5t-120 -111.5q-4 -8 -10.5 -23.5t-6.5 -17.5v-184q0 -14 7.5 -39t27.5 -25q0 39 -5 76t-5 78q0 20 3 42.5t12.5 41t26.5 31t44 12.5zM244 217v8q23 12 36 15.5t33 3.5q68 0 116 -34t82 -87t56.5 -121t42 -133.5 t39 -124.5t43.5 -98q-2 0 -6 -1t-6 -1q-37 0 -83 22.5t-71 36.5q-55 31 -91 79t-60.5 104.5t-43 116.5t-36.5 114q-8 20 -29.5 52t-21.5 48zM293 211q0 -14 11 -35.5t15 -32.5q10 -31 25.5 -75.5t35 -94t44.5 -97.5t54.5 -87t66.5 -63.5t82 -24.5v10q-20 61 -43 146.5 t-59 164t-91 134t-141 55.5zM942 569q0 41 22.5 80t52.5 72t60.5 55.5t46.5 30.5l9 -8q-2 -10 -3 -19v-16q0 -80 39 -159t87.5 -158.5t87 -159.5t38.5 -164q0 -41 -9 -76t-24.5 -66.5t-35 -63.5t-39.5 -64l-4 -3q-4 0 -14.5 26t-22.5 59.5t-23.5 67.5t-19.5 48l-207 373 q-14 27 -27.5 71.5t-13.5 73.5zM975 565q0 -25 10 -59.5t23 -56.5l206 -373q2 -6 12.5 -28.5t22 -48.5t18.5 -45l7 -20h4q14 0 28.5 27t24.5 59.5t17.5 63.5t7.5 39v4q-2 8 -7.5 24.5t-10.5 34t-9 30.5t-6 17q-18 49 -54 115t-72 134.5t-63.5 134t-27.5 114.5q0 4 1 8t1 9 q-2 0 -3 1l-1 1q-16 0 -39 -24t-43.5 -54.5t-33.5 -61.5t-13 -45zM102 1139q0 -78 24 -146.5t69 -122t109.5 -84t148.5 -30.5q16 0 61 7t92 21.5t84 35t37 48.5q0 2 -3 7.5t-7 5.5h-4q-29 0 -57.5 -23.5t-53.5 -34.5q-37 -16 -70.5 -21t-74.5 -5q-66 0 -124.5 23.5 t-101.5 65.5t-68.5 99t-25.5 125q0 49 19.5 89t51.5 68.5t74 45t87 16.5q74 0 137 -33.5t120.5 -81t112 -98.5t111.5 -86q70 -41 144.5 -58.5t156.5 -17.5q80 0 137.5 42t93 106.5t52 140.5t16.5 143q-27 0 -34 -30.5t-13 -68.5t-22.5 -68.5t-61.5 -30.5t-79 23.5t-62.5 56 t-55 67.5t-57.5 60q-94 78 -203.5 135t-236.5 57q-86 0 -179.5 -34.5t-169 -95t-125 -142.5t-49.5 -176zM385 1403v4q0 16 29.5 34.5t67.5 34t77 25.5t57 10q53 0 105.5 -16t100.5 -43t92 -59.5t85 -63.5q31 -25 55.5 -57.5t50 -62t56.5 -51t74 -21.5q20 0 31 2q8 -2 8 -17 v-8q0 -18 -16.5 -34.5t-40 -27t-48 -16.5t-39.5 -6q-72 0 -132 26.5t-116.5 66.5t-109.5 87t-112.5 89t-126 71t-148.5 33zM477 1427q92 -23 173 -83t159 -124.5t155.5 -114.5t163.5 -50h5q25 10 54.5 17t29.5 34q2 2 -9.5 6t-26 7t-26.5 6t-14 5l-142 142q-8 25 -53 61.5 t-104.5 70.5t-122 58.5t-105.5 24.5q-35 0 -72.5 -18.5t-64.5 -41.5z" />
<glyph unicode="J" horiz-adv-x="1492" d="M211 125q10 -33 27.5 -83t34 -98t25.5 -80t5 -28q27 -70 77 -117t112.5 -76.5t133 -43t140.5 -13.5q129 0 231.5 30t208.5 95q2 0 8.5 3t8.5 5q51 49 93 94.5t70.5 96.5t45 109.5t16.5 132.5q0 68 -18.5 133t-47 126.5t-64.5 121t-69 116.5q-18 29 -38.5 62.5t-20.5 68.5 q0 45 17.5 73t66.5 28q45 0 75.5 -33t51 -72t33 -71.5t22.5 -32.5q16 0 17 14q0 39 -16.5 77t-43.5 69.5t-60.5 55t-70.5 34.5q-10 2 -41 2h-39q-68 0 -131 -21.5t-112.5 -61.5t-79 -98.5t-29.5 -132.5q0 -59 10 -112.5t39 -106.5l242 -448q25 -49 24 -99q0 -47 -18.5 -83.5 t-50 -63.5t-72.5 -40t-86 -13q-76 0 -122 27.5t-74.5 72.5t-45 102.5t-30 118t-28.5 117.5t-44 102q-53 82 -124 124t-148 42q-164 0 -233 -83t-69 -242v-7q0 -27 11.5 -54t13.5 -38h16q0 37 -4 74t-4 74q0 20 3 42.5t11.5 41t25 31t42.5 12.5q29 0 47.5 -25.5t28.5 -50.5z M279 193q-4 4 -15.5 23.5t-19.5 33.5v8q6 10 24.5 13t28.5 3h10q29 0 50.5 -10t43.5 -22q61 -35 98.5 -89.5t60 -118t36.5 -131t31 -126.5q6 -25 24.5 -51.5t18.5 -49.5q-41 0 -75 15.5t-69 36.5q-66 39 -103.5 90t-62 110.5t-41.5 127t-40 137.5zM301 246q0 -23 6 -46.5 t12 -39.5q20 -66 36 -121t37.5 -104.5t54 -92.5t88.5 -82q14 -10 32.5 -22t34.5 -12q0 51 -20.5 138t-58.5 172t-94 147.5t-128 62.5zM924 594q0 39 14 71.5t38.5 61.5t54.5 53.5t61 42.5q4 2 9 5t7 3q8 0 8 -8v-24q0 -92 40 -171t89 -157t89 -159t40 -173q0 -72 -28.5 -125 t-71.5 -104q-4 -4 -11.5 -18.5t-17.5 -14.5h-4q-4 35 -11 67.5t-24 65.5l-239 447q-16 31 -29.5 66.5t-13.5 70.5zM1231 35q8 -20 20.5 -47t14.5 -29h4q12 0 26.5 25.5t26.5 58.5t19.5 61.5t7.5 32.5q0 78 -40 156t-89.5 154.5t-89 153.5t-39.5 155l-5 16q-20 0 -43.5 -21.5 t-44 -50t-35 -58.5t-14.5 -48v-4l6 -16q5 -17 12 -35.5t13 -36t10 -19.5zM113 1167q0 -72 21.5 -140.5t63.5 -121.5t102 -85t138 -32q23 0 70 6.5t94 19.5t82 36.5t35 60.5q-25 0 -39 -13t-37 -26q-39 -23 -84 -37t-90 -14q-66 0 -124 22.5t-101 64.5t-67.5 98.5 t-24.5 123.5q0 47 14 89.5t40.5 75t65.5 51t88 18.5q37 0 66 -8t59 -27q80 -49 152 -109.5t145.5 -113.5t155.5 -90t182 -37q92 0 153.5 37t99.5 98.5t53.5 139t15.5 157.5q-23 0 -28 -30.5t-10 -68.5t-19.5 -69t-57.5 -31q-23 0 -50.5 8.5t-45.5 24.5q-78 80 -149.5 148.5 t-149.5 119t-168 79t-205 28.5q-72 0 -149.5 -39t-144 -102.5t-109.5 -144.5t-43 -167zM717 1286q-86 63 -163 106.5t-163 43.5h-22v8q0 12 26.5 29.5t65.5 33t82 26.5t75 11q86 0 160 -40t139.5 -97t127 -119.5t120.5 -107.5q10 -8 24.5 -12.5t30 -9.5t28 -11t18.5 -17 q-25 -31 -63 -53t-79 -22q-59 -2 -111 19.5t-100.5 54t-92.5 71.5t-87 70zM469 1462q59 -10 114.5 -41.5t107.5 -73.5t102.5 -88.5t102.5 -85t106.5 -63.5t113.5 -25q23 0 40.5 3.5t33.5 23.5v4q0 10 -21.5 22.5t-27.5 16.5q-10 10 -39 38t-60.5 57.5t-59.5 57t-40 38.5 q-27 25 -66.5 54.5t-85 56t-91.5 45t-85 18.5q-6 0 -30.5 -5.5t-50 -13.5t-46 -17t-20.5 -18q0 -2 1 -2z" />
<glyph unicode="K" horiz-adv-x="1525" d="M20 266q0 -63 32 -113.5t81 -84t108.5 -51t114.5 -17.5q76 0 140.5 23.5t112.5 68.5t75 110.5t27 149.5q0 133 -60 262q-14 20 -28.5 51t-14.5 40q0 12 8.5 17t19.5 7t23 2h21q23 0 46.5 -5t41.5 -21q55 -45 74.5 -103.5t25.5 -124t9.5 -133.5t23 -130t66.5 -115.5 t141 -90.5l5 -1t7 -1q16 0 45 21.5t41 38.5l279 208q12 0 12 15q0 18 -12 18q-16 0 -29.5 -8t-28 -17.5t-30 -17.5t-33.5 -8q-35 0 -68.5 27.5t-40.5 64.5l-41 307q-4 33 -21 52.5t-38.5 35t-44.5 28.5t-37 34q12 12 27 16l223 49q6 2 7 8.5t1 12.5v12q0 90 -31.5 172 t-89 143.5t-134.5 97.5t-169 36q-61 0 -119.5 -17.5t-106.5 -49.5t-84 -80t-54 -109q-14 -53 -15.5 -100.5t-9.5 -100.5q-23 14 -36 44t-20 63.5t-9 66.5t-2 55q0 92 37.5 163t99 119t141.5 72.5t164 24.5q106 0 201.5 -38t171 -104.5t127 -156.5t71.5 -192q0 -16 1 -39 t6.5 -42.5t13.5 -32.5t22 -13q0 106 -25.5 199.5t-84.5 185.5q-57 86 -125 141t-148 86t-170 42t-192 11q-125 0 -250 -36.5t-225.5 -108.5t-163 -177.5t-62.5 -240.5q0 -47 7.5 -99t24 -101.5t42 -94.5t60.5 -78l206 -198q31 -14 57.5 -40t47 -58.5t33 -67.5t12.5 -68 q0 -57 -41 -99t-100 -42q-16 0 -35 4t-35 12.5t-26.5 21.5t-10.5 34q0 41 16.5 78.5t16.5 80.5q0 66 -40 113t-106 47q-78 0 -124 -44t-46 -122zM891 729v8q20 6 32.5 8.5t30.5 2.5q29 0 62 -13.5t60.5 -36t48 -50t24.5 -58.5l41 -307q6 -10 14 -28.5t14.5 -32t6.5 -15.5 t-1 -5l-1 -3l-107 -82h-26q-66 39 -95.5 95t-41 119.5t-12.5 130t-7 128.5q-2 10 -9 29.5t-14.5 41t-13.5 40t-6 28.5zM102 270q0 29 29 53.5t57 24.5l64 -57q2 0 2 -8v-13q0 -8 -4 -31.5t-9 -48t-11.5 -45t-10.5 -20.5q-18 8 -38.5 23.5t-38 35t-29 41.5t-11.5 45zM940 707 q0 4 2 -6.5t4 -26t5 -31.5t7 -29q6 -57 7 -122q0 -63 10 -127t37.5 -118t87.5 -89h2q23 0 47.5 21.5t24.5 43.5v10q0 6 -1.5 12.5t-7.5 12.5l-41 305q-4 18 -23.5 46t-44 53.5t-50 43t-39.5 17.5q-10 0 -18.5 -3t-8.5 -13zM137 262v-4q0 -4 3 -10t5 -8l54 -52q6 0 10 10.5 t7 22.5t4 24.5t1 16.5q0 16 -13 30.5t-30 14.5q-14 0 -27.5 -15.5t-13.5 -29.5zM137 930q0 6 -1 26.5t-1 26.5q0 59 29 128t73 128t95 99t96 40q0 -12 -6 -31.5t-14.5 -40t-14.5 -40t-8 -31.5v-111q0 -74 12.5 -137t34 -122.5t50 -119t61.5 -122.5q31 -59 65.5 -130 t34.5 -141v-20q-4 -10 -9 -29.5t-7 -19.5h-9q-20 88 -81.5 153.5t-132 125t-137 121.5t-97.5 146q-4 10 -10 29t-11.5 35t-8.5 27.5t-3 9.5zM494 506q6 -4 18 -13.5t25.5 -22.5t28 -27.5l26.5 -26.5q2 0 2 4v8q0 47 -37 111.5t-80 138.5t-80 152.5t-37 156.5v307h-16 q-14 0 -44 -30.5t-60.5 -76.5t-54 -101.5t-23.5 -102.5q0 -37 13 -80t32.5 -81t41 -69.5t38.5 -47.5zM575 772q-10 51 -13 80t-3 72q0 41 15.5 79.5t41 68.5t61.5 48.5t79 18.5q49 0 87 -24.5t63.5 -62.5t38.5 -84t13 -89v-33q0 -2 -45 -15.5t-104 -29t-116.5 -27.5 t-82.5 -12h-12q-21 0 -23 10zM1032 903q-2 33 -7 70t-16.5 70.5t-29.5 64.5t-45 53q-14 10 -40 27.5t-28 17.5h-118q0 18 18 31.5t44 23t51.5 13.5t37.5 4q55 0 104.5 -19.5t89.5 -52t71.5 -77t49.5 -93.5q10 -20 18.5 -39.5t8.5 -42.5q0 -14 -30.5 -25t-66.5 -18.5 t-64.5 -11.5t-22.5 -4h-8q-13 0 -17 8zM858 1235q4 0 16.5 -2t16.5 -6q90 -45 126 -123t40 -174q2 0 6 -1t6 -1q6 0 28.5 4t46 10t43 12.5t19.5 10.5q0 45 -31.5 95t-78.5 93t-100.5 71.5t-96.5 28.5q-10 0 -23.5 -4t-17.5 -14z" />
<glyph unicode="L" horiz-adv-x="1267" d="M268 274q72 -78 138.5 -131t132 -84.5t135 -45t149.5 -13.5q76 0 145.5 36t123 94t85 132t31.5 150q-18 0 -28.5 -31t-30 -68t-57 -67.5t-111.5 -30.5q-61 0 -114.5 22.5t-101.5 56.5t-94 70.5t-96 65.5q-49 31 -108 47.5t-115 28.5l-8 8q16 23 37.5 33t44.5 24 q37 23 70.5 49.5t61.5 59.5t44 72t16 84q0 51 -19 93t-49 78.5t-64.5 70.5t-64.5 71t-49.5 78t-19.5 90q0 33 16.5 68.5t43 65.5t61.5 48.5t70 18.5h174q39 0 75.5 -20.5t66.5 -50.5t47.5 -62.5t17.5 -55.5v-33q0 -66 -31 -116t-69 -97t-68.5 -97t-30.5 -116 q0 -59 18.5 -114.5t52 -98.5t84 -68.5t113.5 -25.5q31 0 75 13.5t84 37t68.5 55t28.5 68.5h-18l-109 -106q-12 -12 -34.5 -19.5t-38.5 -7.5q-29 0 -52.5 13.5t-23.5 46.5t16.5 60.5t40 52t49 47t43.5 46.5q84 111 84 254q0 98 -53 179t-135 137.5t-180.5 87.5t-186.5 31 q-100 0 -201.5 -28t-184.5 -83t-135 -140t-52 -198q0 -68 22.5 -124t59.5 -105.5t81 -94.5t87 -90q12 -14 26.5 -35.5t14.5 -42.5q0 -35 -21.5 -58t-52.5 -41.5t-63.5 -35t-53.5 -34.5q-29 -25 -57.5 -57t-52 -68.5t-38 -76.5t-14.5 -81h21q8 25 18.5 50.5t25.5 48 t36.5 36.5t52.5 14q29 0 52 -13.5t46 -27.5zM260 381v4q0 18 27.5 28.5t42.5 10.5q57 0 114.5 -23.5t109.5 -58.5t99 -74t88 -69q41 -31 99.5 -42.5t107.5 -15.5v-4q0 -14 -20.5 -26.5t-48 -20.5t-53 -12t-33.5 -4q-92 0 -160 35.5t-126 85t-115.5 101.5t-131.5 85zM332 393 q0 -14 9 -17t19 -11q43 -37 91.5 -84.5t102.5 -87t112.5 -67.5t124.5 -28q10 0 34.5 5.5t24.5 17.5v4q-72 14 -136.5 58t-126 91.5t-123.5 83t-132 35.5zM799 858q0 45 23.5 81t54 69.5t61.5 68.5t43 76q14 41 15 89t3 85h9q16 -16 37.5 -39.5t41 -51.5t33 -58.5t13.5 -61.5 q0 -68 -34 -118t-76 -96t-80 -94t-44 -112h-4q-14 0 -30.5 18.5t-31 45t-24.5 53.5t-10 45zM152 1110q0 33 15 73t34.5 73.5t39 56t27.5 22.5h8q4 -55 11.5 -112.5t40.5 -104.5q18 -29 53 -59.5t68.5 -66.5t59.5 -74.5t26 -81.5q0 -12 -9.5 -35t-24 -44.5t-30.5 -36.5 t-29 -15q-4 0 -20 18t-35.5 41.5t-37 45t-21.5 28.5q-27 29 -57.5 58.5t-57.5 63t-44 70.5t-17 80zM186 1106q0 -51 29 -98t69 -90.5t84 -82t74 -73.5h9q8 0 17 9t17.5 22.5t12.5 27t4 21.5q0 25 -25.5 61.5t-60.5 74.5t-70 73.5t-51 58.5q-23 29 -31 75t-12 75 q-31 -23 -48.5 -69t-17.5 -85zM831 854q0 -8 2.5 -21.5t7.5 -25.5t13 -20.5t20 -8.5q2 0 8.5 7.5t14.5 18.5t15.5 22.5t11.5 19.5q18 23 50 54.5t60.5 67.5t50 73.5t21.5 72.5q0 18 -8 37.5t-20.5 38t-27 35t-26.5 26.5q-2 -29 -4 -62.5t-12 -62.5q-12 -35 -41 -67.5 t-59.5 -64t-53.5 -66.5t-23 -74z" />
<glyph unicode="M" horiz-adv-x="2254" d="M154 217q29 0 68.5 -35t79.5 -78t72 -77.5t44 -34.5t16 8q72 106 164 212.5t174 215.5t138.5 222.5t56.5 238.5q0 113 -17.5 220.5t-34.5 217.5v16q0 31 21.5 66t56.5 35q43 0 71 -34t45 -88t26.5 -119.5t13.5 -130t5 -121t3 -89.5v-430q0 -4 1 -18.5t2 -31.5t3 -31.5 t2 -18.5v-19q0 -14 -3 -28.5t-13 -18.5q-31 25 -70 59.5t-74.5 65.5t-63.5 52.5t-34 21.5q-4 0 -21.5 -18.5t-38 -45l-41 -53t-32.5 -41.5q-10 -31 -42 -67.5t-66.5 -73.5t-62.5 -70t-28 -55q0 -16 13 -16q16 0 36.5 28.5t42 62.5t43 62.5t44.5 28.5h4q59 -49 122.5 -107.5 t127.5 -107.5h8l16 16q6 8 24.5 30.5t38 48.5t38 47.5t24.5 31.5q8 33 43 62.5t55 54.5q70 82 126.5 154.5t96.5 149.5t62.5 167t22.5 207q0 78 -8.5 155.5t-8.5 155.5q0 27 7.5 57.5t22.5 58t38.5 46t56.5 18.5q39 0 56.5 -41t24.5 -96t9 -108.5t8 -78.5q8 -29 31 -48 t45 -36q14 -10 46 -17t64 -12t56.5 -11.5t24.5 -12.5v-4q-10 -10 -32 -19.5t-46.5 -17.5t-48 -16t-39.5 -14q-80 -33 -125 -78t-67.5 -103.5t-27.5 -128t-5 -149.5q0 -102 11 -173t36.5 -121t67.5 -89t102 -78h8q2 2 8 4t8 4l348 264v27q-14 0 -26.5 -8t-24.5 -17.5 t-26.5 -17.5t-30.5 -8q-37 0 -60.5 23.5t-37 61.5t-19.5 86t-8 95t-1 89t1 69v51q0 53 7 108.5t36 96.5q14 20 46 31.5t63.5 19.5t56 14t24.5 19v8q-16 2 -35.5 4t-38 9t-31.5 19.5t-20 32.5q0 14 -1 53.5t-2 81.5t-3 79.5t-2 52.5v24q-35 96 -109.5 135t-172.5 39 q-59 0 -113.5 -19.5t-101.5 -53.5q-10 -8 -21.5 -25.5t-24 -36t-22.5 -33t-18 -14.5q-10 0 -29 20.5t-44.5 48t-55 55.5t-58.5 42q-33 16 -76 20.5t-77 4.5q-59 0 -124 -13.5t-106 -60.5q-4 -6 -15 -24.5t-24.5 -40t-24.5 -38.5l-10 -16q-2 0 -4 1t-4 1q-78 92 -169 141.5 t-218 49.5q-96 0 -175 -40t-134 -106.5t-86 -151.5t-31 -176q0 -45 6.5 -90t34.5 -84q18 -25 56 -49t76 -50t65.5 -53.5t27.5 -58.5q0 -33 -33.5 -52t-74.5 -30.5t-75 -18.5t-34 -13q0 -10 11.5 -16.5t17.5 -6.5q57 0 118.5 24.5t113 65.5t83 95.5t31.5 113.5v25 q0 78 -23.5 130t-60.5 88t-78 59.5t-77.5 45t-60 45t-23.5 60.5q0 27 12 48t31.5 37.5t43 26t48.5 9.5q27 0 45 -2t43 -17q61 -57 100 -124.5t60.5 -146.5t29.5 -168t8 -190v-208q0 -10 1.5 -50.5t3.5 -86.5t3 -86t1 -50v-6q0 -12 -17 -12q-2 0 -5 1l-3 1l-215 198l-4 1 q-4 2 -8 2q-6 0 -28.5 -24t-50.5 -57.5t-57.5 -71.5t-50.5 -65q-16 -20 -37.5 -40.5t-42 -42t-34 -45t-13.5 -50.5q27 0 43.5 18.5t28.5 42t26.5 42t37.5 18.5zM1720 477q0 72 8.5 128.5t31 102.5t65.5 81.5t110 64.5q8 0 9 -8v-8q0 -4 -3.5 -16.5t-5.5 -16.5v-191 q0 -76 3.5 -150.5t13.5 -148.5q4 -25 19.5 -51t15.5 -49q0 -6 -17.5 -20.5t-37 -29.5t-36.5 -27l-18 -13h-16q-2 0 -11.5 8t-21.5 20.5t-24.5 24.5t-18.5 21q-47 59 -56.5 123.5t-9.5 136.5v18zM858 258q14 16 31.5 36.5t34.5 37.5q29 -35 66.5 -63.5t66.5 -61.5v-4 q0 -8 -6.5 -20.5t-14.5 -24t-18 -19.5t-19 -8q-12 0 -31.5 15.5t-41 37t-40 43t-28.5 31.5zM268 270q0 4 9.5 18.5t20.5 30t23.5 27.5t18.5 12l137 -127v-16q-4 -4 -12 -14.5t-19.5 -21.5t-20.5 -21.5t-15 -16.5h-9q-18 14 -40.5 34t-43 38t-35 33.5t-14.5 23.5zM1745 477 q0 -90 20.5 -167t96.5 -136q2 0 6 -1t6 -1q16 0 38.5 18.5t22.5 36.5v13q0 6 -2 21t-5 32.5t-5 33t-4 21.5l-16 440h-9q-14 0 -21 -7t-20 -17q-70 -61 -89 -129t-19 -158zM907 258q2 -4 14.5 -16.5t26 -25.5t27.5 -23.5t20 -10.5q12 0 13 19l-68 82h-6q-10 0 -18.5 -5.5 t-8.5 -15.5v-4zM311 266q10 -10 25.5 -23.5t30 -25.5t24.5 -19l10 -8h5q12 0 17 10.5t5 20.5q0 8 -10 20.5t-24.5 25t-29 23.5t-20.5 17h-8q-2 0 -11.5 -12t-13.5 -21l-2 -4q0 -2 1 -2zM1139 1489q111 0 179 -47t106 -119t51.5 -157t13.5 -158v-43q0 -78 -15.5 -145.5 t-43.5 -139.5q-6 -16 -31 -59t-55.5 -87.5t-60.5 -78t-48 -33.5h-2q-2 0 -2 2l-25 754q0 6 -3 30.5t-7 54t-8 57.5t-6 40q-4 27 -23.5 62.5t-19.5 66.5zM469 1468q-2 0 -2 5q0 10 12.5 11t22.5 1q57 0 111.5 -26.5t95.5 -65.5q63 -59 100 -112.5t55.5 -112t22.5 -125 t4 -152.5v-45q-6 -6 -10 -19.5t-7.5 -27t-5.5 -23.5t-2 -12q-12 -45 -41.5 -93t-61.5 -91t-61.5 -78t-42.5 -53h-8q0 23 -1 80t-2 121.5t-3 122.5t-2 81q-4 86 -9 169t-22.5 161t-50.5 148t-92 136zM1188 1452q0 -2 7 -32.5t15.5 -70.5t14.5 -82t6 -65l29 -713q25 0 50 39 t46.5 84t35 76t13.5 17q25 68 42 135t17 133v35q0 61 -5 114.5t-20.5 99.5t-45 88t-78.5 83q-29 25 -58.5 42t-68.5 17zM551 1438q0 -2 10 -25.5t24.5 -52.5t26 -57.5t15.5 -42.5q31 -178 40 -359.5t9 -361.5h8l8 8q27 33 57.5 74t57.5 85t43 90t16 93q0 72 -8 142.5 t-29.5 135t-60.5 119.5t-100 98q-27 18 -54.5 36t-62.5 22v-4zM127 1100v16q0 12 2 24.5t12 12.5h4q41 -18 87.5 -43t84 -56.5t62 -73.5t24.5 -95q0 -12 -5 -38t-25 -26q-12 0 -29.5 14.5t-24.5 18.5q-35 25 -69.5 48.5t-62 52t-44 63.5t-16.5 82zM152 1104q0 -43 20.5 -78 t52 -63.5t68.5 -51t67 -41.5h5q12 0 12 17q0 31 -23.5 68.5t-57.5 70.5t-73.5 55.5t-70.5 22.5zM1802 1464q0 8 6.5 10.5t12.5 2.5h12q68 0 108.5 -30t62 -76t28 -102.5t6.5 -107.5q0 -14 -1 -42.5t-1 -33.5l-8 -8q-84 0 -124 32t-57.5 82t-21.5 112.5t-15 121.5 q0 4 -3 17.5t-5 17.5v4zM1839 1444q0 -43 3 -101.5t19.5 -109.5t51.5 -87t100 -36q0 39 -3 96.5t-20.5 110.5t-52.5 90t-98 37z" />
<glyph unicode="N" horiz-adv-x="1740" d="M141 209l4 -2q14 0 49 -35t75 -78t77 -77.5t55 -34.5q2 0 5 1l4 1l399 389q16 23 39.5 43t34.5 41q76 104 96 232t20 253q0 78 -5 155t-5 154q0 27 5 57.5t18.5 57.5t35 44t54.5 17q37 0 54.5 -25.5t25.5 -66.5t14 -90t19.5 -97t40 -89t75.5 -64q8 -4 29.5 -10t45.5 -12 t43 -13.5t21 -13.5q-10 -14 -29.5 -24.5t-40 -16.5t-40 -10t-29.5 -8q-96 -35 -148.5 -75t-77 -93t-28.5 -124t-4 -169v-76q0 -49 3 -87t15.5 -72.5t38 -68.5t68.5 -73q23 -18 47.5 -37.5t57.5 -19.5q18 0 56 22.5t79 53t79.5 61.5t61.5 45q14 12 34.5 22.5t37 21.5t29 23.5 t12.5 26.5q-35 0 -62.5 -18.5t-62.5 -18.5q-43 0 -70 22.5t-40 58.5t-17 78t-4 83q0 27 1 49.5t1 38.5v35q0 43 3 101.5t16 110.5t42 92t80 46q41 4 72.5 5t68.5 12v8q0 12 -8 16q-45 0 -71.5 11.5t-41 30t-18.5 44t-4 55.5q0 20 1 42t1 44v29q-4 63 -29.5 115.5t-67.5 89.5 t-96.5 57.5t-115.5 20.5q-80 0 -145.5 -21.5t-116.5 -87.5q-6 -8 -11.5 -22.5t-11.5 -28.5t-12 -27.5t-17 -19.5q-29 23 -52 59.5t-46 65.5q-23 25 -62.5 41t-85.5 27.5t-90.5 16.5t-70.5 5q-94 0 -186.5 -28.5t-164 -83t-116.5 -134.5t-45 -184q0 -72 22.5 -136.5 t77.5 -113.5q18 -16 50 -32.5t64 -35t55.5 -40t23.5 -50.5q0 -45 -33 -65.5t-73 -32.5t-72.5 -22.5t-32.5 -32.5q72 0 143.5 26.5t127.5 74.5t92 112.5t36 140.5q0 72 -24.5 119t-61.5 78.5t-80 54t-79.5 45.5t-61.5 51.5t-25 71.5q0 59 47.5 93t102.5 34q57 0 99 -34 t72 -85t49 -110.5t30.5 -111.5t16.5 -90t5 -42q4 -41 6 -75t3 -77t1 -104v-152v-47v-72t-1 -72.5t-1 -47.5v-13q0 -10 -3 -32.5t-17 -22.5q-25 23 -62.5 58.5t-73.5 69.5t-65.5 58.5t-40.5 24.5q-2 0 -6 -1l-4 -1l-315 -324q-6 -6 -8.5 -16t-2.5 -19q23 0 40.5 16.5t31.5 35 t26.5 35t24.5 16.5zM1139 377v33q0 55 3 110t18.5 104.5t47 90.5t88.5 65q20 8 42 17.5t44 9.5q0 -57 -5 -111.5t-5 -111.5v-74q0 -31 1 -61.5t2 -64.5t5 -77q0 -12 7.5 -30.5t14.5 -37t13 -34t6 -19.5v-4q-2 -2 -21.5 -17t-47 -38t-45.5 -35q-2 0 -3 -1t-4 -1 q-161 97 -161 287zM268 231v19l84 82h17q4 0 20.5 -13.5t36.5 -33t38.5 -39t29.5 -31.5v-8q0 -6 -12.5 -20.5t-29 -30t-30.5 -27.5t-21 -12h-16zM1343 758q-31 0 -61.5 -20.5t-55 -51.5t-38.5 -66.5t-14 -64.5v-248q0 -25 12 -48t30.5 -46t38 -41t33.5 -31h8q8 0 21.5 5.5 t26 12.5t20.5 16t8 20v4q-12 61 -18 131.5t-8.5 143.5t-2.5 144v140zM319 231q4 -4 13.5 -15t21 -22.5t24.5 -19.5t25 -8q16 0 28.5 12t12.5 29q0 8 -10 20.5t-24.5 24.5t-28.5 21.5t-21 9.5q-16 0 -29.5 -12.5t-13.5 -28.5q0 -2 1 -5.5t1 -5.5zM524 1460q203 0 306.5 -132 t103.5 -378q0 -104 -24.5 -223t-92.5 -205q-12 -14 -30.5 -35.5t-37 -41t-33 -34t-16.5 -14.5h-8q0 147 1 290.5t-9 275t-38 244t-87 202.5q-2 4 -16.5 21.5t-16.5 21.5zM600 1409q80 -168 98.5 -349t18.5 -366v-221q104 86 148 218t44 261q0 86 -13 162t-48 137.5 t-95.5 106.5t-152.5 67v-16zM111 1090q0 8 1 21t4 26.5t8 25t13 15.5q35 -33 87 -58.5t101.5 -56.5t84 -70t34.5 -98q0 -8 -3 -27.5t-9 -39t-14 -35t-21 -15.5q-4 0 -10 7.5t-13 16.5t-13.5 17t-8.5 10q-33 27 -74.5 51.5t-78.5 53.5t-62.5 66t-25.5 90zM139 1112 q0 -47 20.5 -83t51.5 -63.5t68.5 -48t72.5 -38.5q4 -2 22.5 -17.5t22.5 -15.5q10 0 16.5 12t6.5 21q0 47 -27.5 82.5t-67.5 63.5t-85 48.5t-78 38.5h-23zM1239 1444q0 6 6 7t12 1h7q47 0 87 -19.5t70.5 -51t52 -72.5t31.5 -82q0 -10 1 -35t2 -52.5t3 -52t2 -34.5v-19 q-96 0 -143 34t-68.5 89t-29.5 124t-25 136q0 4 -4 13.5t-4 13.5zM1280 1409q0 -47 8 -105.5t30.5 -110.5t61.5 -88t105 -36q0 94 -18.5 169t-94.5 138q-16 12 -36.5 23.5t-43.5 11.5l-5 -1t-7 -1z" />
<glyph unicode="O" horiz-adv-x="1716" d="M197 324q55 0 104 -22.5t96 -55.5t91 -69t87 -60q39 -23 87.5 -45.5t99.5 -40t102 -28.5t97 -11q160 0 287.5 59.5t221 158.5t148.5 231t70 280q6 8 7 12t1 12q0 348 -172 552t-516 253q-33 4 -64 10.5t-63 6.5q-117 0 -242 -30t-229.5 -93.5t-172 -160.5t-67.5 -232 q0 -57 22.5 -103.5t48 -87.5t48 -82t22.5 -86q0 -27 -20.5 -49t-46.5 -22q-43 0 -73 21.5t-51.5 54t-34.5 70.5t-24 71q0 8 -8 8h-4q-12 0 -12 -17q0 -57 21.5 -105t58.5 -82t86 -52.5t104 -18.5q106 0 193.5 41t142.5 133q4 8 10 20.5t6 14.5v158q0 45 -27.5 92t-60 96.5 t-60.5 98.5t-28 98q0 18 7.5 47t22.5 56.5t40 47t59 19.5q8 0 15.5 -1t7.5 -11v-4q0 -4 -4 -20.5t-9.5 -35t-9.5 -34t-4 -19.5v-16q0 -96 57.5 -148.5t143.5 -75.5q47 2 97 3.5t104 1.5q102 0 202.5 -11.5t186.5 -48.5t148.5 -106.5t90.5 -186.5v-80q0 -100 -20.5 -184 t-67.5 -145.5t-121.5 -96t-183.5 -34.5q-106 0 -196.5 47t-177.5 103t-179 103.5t-203 47.5q-45 0 -94 -6.5t-92 -20.5q-43 -12 -93 -47t-93 -81t-72 -99.5t-29 -102.5q14 0 28.5 21.5t33 48.5t46.5 48.5t73 21.5zM287 397q0 2 -1 3l-1 1q0 14 27.5 26.5t64.5 21t72.5 12.5 t50.5 4q57 0 112.5 -21.5t107.5 -54.5t101 -68.5t94 -62.5q74 -47 164 -68.5t176 -23.5v-8q0 -4 -28.5 -18.5t-69.5 -29t-84 -25.5t-74 -11q-98 0 -185 29.5t-171 78.5q-45 27 -87 57.5t-85 61.5t-88 56.5t-96 39.5zM377 412q0 -10 9 -18.5t21.5 -15.5t24.5 -12.5t21 -9.5 q61 -41 124.5 -86t131 -84t139.5 -63.5t151 -24.5q35 0 70 13.5t64 29.5q-27 18 -58 27.5t-62.5 18t-63 18.5t-58.5 26q-33 20 -83 56.5t-104.5 70t-108.5 58t-97 24.5q-8 0 -27.5 -3t-40 -7t-37 -9t-16.5 -9zM385 672q-2 47 -10 97t-31 93q-14 25 -31.5 48.5t-33 48 t-25.5 51t-10 57.5q0 41 21.5 87t49 84t53 63.5t33.5 25.5h9q2 -25 3 -60.5t13 -64.5q14 -33 43 -77t56.5 -92t48 -93t20.5 -82q0 -25 -22.5 -57.5t-54.5 -63t-65.5 -52t-54.5 -21.5h-4q-2 0 -4 3t-4 5zM276 1061q0 -25 10.5 -47.5t25 -44t29.5 -42t28 -40.5q23 -39 30 -85 t11 -89h8q18 0 41.5 17.5t46 42t38 49t15.5 40.5q0 37 -25.5 85t-57.5 99.5t-60.5 104.5t-34.5 102q-14 0 -31.5 -25.5t-34 -59t-28 -64.5t-11.5 -43zM874 1194q-29 8 -61.5 20.5t-59 32t-44 46t-17.5 63.5v12q4 33 9.5 57.5t16.5 40t31.5 22.5t57.5 7q106 0 207.5 -18.5 t191.5 -60.5t169 -108.5t138 -162.5q2 -4 5.5 -9.5t3.5 -7.5v-8q-51 12 -86 25.5t-80 25t-116 18.5t-196 7q-53 0 -102.5 -1t-67.5 -1zM899 1219q49 2 96 3t95 1q86 0 165.5 -6.5t165.5 -22.5h17q-102 127 -256 200.5t-320 73.5q-29 0 -53.5 -1t-42.5 -10t-29.5 -33.5 t-11.5 -69.5q0 -31 18.5 -54.5t45 -39t57 -25.5t53.5 -16z" />
<glyph unicode="P" horiz-adv-x="1748" d="M342 283q16 0 52 -7.5t74 -18.5t71.5 -26.5t44.5 -31.5l8 -9q2 0 8 -44t16.5 -108.5t22.5 -141t26.5 -141t30 -108.5t29.5 -44h66q4 0 11 19.5t15 44t14.5 47t10.5 30.5q2 6 11 25.5t13 23.5l66 232q8 27 31 26q23 0 43 -8t41.5 -17.5t44 -17.5t47.5 -8q104 0 205.5 62.5 t181.5 158.5t129 212t49 224q0 57 -16.5 93t-45 60t-69.5 40t-92 37q-16 10 -21.5 17t-5.5 22q0 12 10.5 23.5t24.5 13.5l231 32q2 0 4 3t5 6v8q-2 2 -4.5 5t-4.5 3h-108q-35 0 -43 30.5t-8 65.5q0 53 10 103.5t10 103.5q0 74 -27.5 119t-71.5 69.5t-98.5 32.5t-107.5 8 q-59 0 -104.5 -9t-98.5 -34q-20 -8 -39.5 -32.5t-36 -50t-29 -46t-16.5 -20.5h-4q-37 29 -64.5 65.5t-74.5 59.5q-78 39 -156 49t-164 10q-92 0 -177 -28.5t-149.5 -82t-103.5 -130t-39 -173.5q0 -37 9.5 -77.5t26 -79.5t42 -73t56.5 -54q14 -10 41.5 -21.5t55.5 -28t48 -36 t20 -43.5q0 -33 -25.5 -49.5t-56 -26.5t-56 -21.5t-25.5 -31.5q63 0 124.5 28.5t110.5 75.5t80 107.5t31 126.5q0 68 -26.5 130t-82.5 105q-25 20 -59.5 40t-65 44.5t-52 54t-21.5 70.5q0 33 16 53.5t42 32.5t55.5 16.5t56.5 4.5q68 0 110.5 -34t67 -88.5t34 -123t11.5 -139 t0 -137t-2 -113.5v-51t-1 -79t-1 -79v-51q-4 -10 -26.5 -16.5t-50.5 -11.5t-53.5 -9t-35.5 -6q-55 -16 -97 -58.5t-71 -97.5t-43 -115.5t-14 -111.5q14 0 22 19.5t21.5 44t37 44t68.5 19.5zM659 258l-8 8q-20 14 -54 29.5t-74 29t-82 22.5t-81 9q-8 0 -8 9q0 2 3 8l5 10 q31 35 63 55.5t67.5 32.5t74.5 18.5t86 16.5v663q0 55 -7 113.5t-28 110.5q-6 23 -15 39t-9 38q55 0 98 -22.5t80 -52t68.5 -60t60.5 -49.5l8 -8v-870q0 -18 19.5 -38t47 -38.5t55.5 -33.5t44 -24q27 -16 59.5 -34.5t62.5 -36t51.5 -30.5t25.5 -15v-4q0 -18 -15.5 -31.5 t-37 -23t-43 -13.5t-33.5 -4q-31 0 -50.5 6t-52.5 29h-157q-4 0 -11 -13l-6 -12l-65 -233q-6 -6 -12.5 -22.5t-12.5 -34t-11 -31t-11 -13.5q-4 0 -10.5 27t-15.5 70t-18.5 97t-18.5 109.5t-17.5 107.5t-14.5 89zM684 283q4 -23 13.5 -76t19.5 -114.5t19 -116t14 -74.5 q4 -8 6 -23.5t6 -11.5q2 0 7 4t5 14l68 232l6 12t10 12h207q8 -4 36.5 -16t39.5 -16h8q16 8 40.5 17t24.5 15v4q0 6 -24.5 21.5t-61 37t-79.5 45t-80 48.5t-61.5 47.5t-24.5 38.5v879q-18 0 -43 25.5t-55.5 54t-64.5 53t-71 24.5q0 -55 13.5 -110.5t13.5 -114.5v-705 q0 -8 -40 -15t-89 -18.5t-89 -27.5t-40 -41v-4q86 -16 154.5 -43t103.5 -49zM975 473q0 6 -1 24.5t-1 39.5v38v27q0 152 5 299.5t5 300.5v51q2 33 10 72t23.5 73t42 56.5t69.5 22.5q37 0 52.5 -23.5t19.5 -60.5t4 -84t4 -92.5t19.5 -86t52.5 -67.5q6 -4 30.5 -16.5 t51.5 -24.5t48.5 -22.5t21.5 -12.5q0 -10 -44.5 -20.5t-98.5 -35t-98 -73.5t-44 -139q0 -16 8 -36.5t20.5 -41t27 -37t28.5 -22.5l231 -125q39 -20 57.5 -54t18.5 -75q0 -45 -36 -83t-83 -38q-53 0 -125.5 43t-152.5 90q-18 10 -46 25.5t-53.5 32t-45 36t-21.5 39.5z M1530 522l-234 125q-20 12 -38.5 36t-26.5 48v4q0 23 12 47.5t32.5 44t45.5 32.5t47 13q14 0 22.5 -20.5t22.5 -30.5q31 -12 69 -26.5t70.5 -35t55 -49t22.5 -69.5q0 -10 -4 -33.5t-11 -48t-18.5 -43t-25.5 -18.5t-22.5 7t-18.5 17zM1272 748q0 -33 30.5 -61t74.5 -52.5 t95.5 -47t94.5 -40.5q6 0 13 12t12 28.5t8.5 33t3.5 22.5q0 33 -21.5 54.5t-53.5 38t-70 30.5t-70 31q-10 6 -21.5 16t-24.5 10q-25 0 -48 -25t-23 -50zM94 1137v8q2 12 7 28.5t10.5 31t10.5 23.5t7 9h8q41 -35 90 -67.5t92 -66.5t72 -73t29 -86q0 -10 -3 -29.5t-9.5 -38 t-14.5 -33t-20 -14.5h-4q-43 20 -92.5 50t-89.5 68t-66.5 86.5t-26.5 103.5zM127 1133q0 -33 23.5 -76t59.5 -83t76 -67.5t72 -27.5q16 0 25.5 24.5t9.5 38.5q0 23 -32.5 62.5t-75.5 77.5t-84 67t-60 29h-4q-6 -16 -8 -24.5t-2 -20.5zM1272 1487q29 0 70.5 -12.5t79.5 -34 t64.5 -52t26.5 -65.5q0 -20 -6 -62t-13 -84t-14 -74t-10 -32q-33 0 -67.5 18.5t-64 47t-48 63.5t-18.5 70v217zM1294 1452v-31t1 -48t1 -48v-31q2 -23 14.5 -53.5t32 -58t44 -46t51.5 -18.5q8 0 16 23.5t14.5 56.5t9.5 64.5t3 48.5q0 25 -20.5 50t-49.5 45.5t-60.5 33 t-56.5 12.5z" />
<glyph unicode="Q" horiz-adv-x="1980" d="M246 250q31 0 55.5 -7t47 -19.5t45 -28t48.5 -29.5q53 -31 111.5 -62.5t120 -58.5t125 -44t129.5 -17h4q20 2 54 6t66.5 8t57.5 7t29 3q57 8 109 31.5t100.5 56.5t91.5 72t80 80q10 10 18 24.5t17.5 26.5t19.5 21.5t27 9.5q0 -29 -2.5 -60.5t-2.5 -64.5q0 -41 5.5 -79 t22.5 -67.5t50 -48t86 -18.5q61 0 101.5 41t62 99t29.5 121.5t8 106.5q0 8 -1 35t-1 37v6q0 20 -16 21q-8 0 -12.5 -33t-15.5 -73t-32.5 -72.5t-64.5 -32.5q-51 0 -80 29.5t-42.5 72.5t-16.5 89t-3 81q0 68 5.5 134.5t5.5 133.5q0 186 -67 329t-180.5 239t-265 145 t-323.5 49q-111 0 -239 -31.5t-238.5 -94t-183 -155.5t-72.5 -214q0 -66 29.5 -123.5t66.5 -107.5t66.5 -96t29.5 -91q0 -27 -13 -54.5t-48 -27.5q-49 0 -86 25.5t-62.5 64.5t-42 84t-22.5 84q-6 10 -19 10q0 -61 19.5 -118.5t55.5 -101.5t88 -71.5t118 -27.5q63 0 128 25.5 t116 70.5t83.5 103.5t32.5 125.5q0 74 -33.5 132.5t-74.5 110.5t-75 105.5t-34 118.5q0 25 8.5 54.5t25 56.5t40 44t51.5 17q16 0 17 -14q0 -31 -12.5 -60.5t-12.5 -62.5q0 -51 20.5 -92t55.5 -69.5t79 -44t93 -15.5h340q92 0 182 -20.5t160 -65.5t113 -117.5t43 -175.5 q0 -88 -20.5 -175t-67 -157.5t-119 -114.5t-174.5 -44q-96 0 -183.5 38.5t-172.5 86t-173 86t-184 38.5q-68 0 -136.5 -16t-130 -48t-113.5 -79t-85 -106q-16 -31 -33.5 -60.5t-17.5 -66.5q18 0 31.5 21.5t33 47t52.5 47t94 21.5zM311 324v8q12 10 39 23.5t58.5 24.5 t67.5 19.5t67 8.5q49 0 97 -15.5t94 -37t89 -46t84 -43.5q92 -43 177 -69.5t188 -30.5v-4q0 -27 -42 -45.5t-96.5 -30.5t-106.5 -19.5t-71 -9.5h-8q-96 -2 -184 38t-168 89t-151 91.5t-134 48.5zM1667 209q37 0 74 -17.5t94 -17.5v-24l-66 -66q0 -2 -6 -2h-8q-23 0 -40 13.5 t-27.5 31.5t-15.5 41t-5 41zM399 336q0 -6 11.5 -7t15.5 -5q59 -33 120.5 -74t127 -76t134.5 -59.5t140 -24.5q57 0 115.5 10.5t110.5 40.5q-143 29 -271.5 92.5t-259.5 122.5q-63 27 -102 27t-72 -12.5t-68 -30.5zM1716 150q0 -12 15.5 -22.5t25.5 -10.5l29 33h-70z M203 1053q0 37 16.5 74.5t40.5 66.5l27.5 27.5l33 33t27.5 26.5l12 11h9q2 -29 3 -61.5t13 -61.5q18 -39 51 -80.5t66 -86t57.5 -87.5t24.5 -86q0 -39 -26 -75.5t-58.5 -66.5t-60 -47t-29.5 -17h-25v22q0 66 -28.5 116t-62.5 95t-62.5 91.5t-28.5 105.5zM233 1053 q0 -49 28 -90t60.5 -82t60.5 -87t28 -106l4 -16q18 0 39.5 18.5t41 44t35 50t21.5 36.5v8q0 18 -12.5 44t-20.5 38q-27 39 -56.5 75t-54 74t-42 78t-21.5 89h-8q-6 0 -22.5 -18.5t-34 -44t-32 -56t-14.5 -55.5zM633 1331q0 61 20.5 91t51 42.5t63.5 12.5h63h48 q88 0 178 -23.5t173 -67t153.5 -106.5t119.5 -143q0 -6 -8 -11h-8q-72 29 -131.5 40.5t-141.5 11.5h-340q-29 0 -69.5 9t-79.5 28.5t-65.5 48t-26.5 67.5zM825 1210q20 0 65.5 -1t102 -3t119 -4t118.5 -4t101 -3t66 -1h16q-6 18 -20.5 32.5t-28.5 24.5q-55 39 -111.5 76 t-116 64.5t-124 44t-133.5 16.5h-52t-45 -3t-45.5 -8t-52.5 -16q-4 -31 -6 -49t-2 -45v-22q35 -39 66.5 -62t82.5 -37z" />
<glyph unicode="R" horiz-adv-x="1740" d="M1141 225q6 -35 24.5 -75.5t43 -77.5t56 -61.5t66.5 -24.5q18 0 51 18.5t68 44t68.5 50t52.5 36.5q23 12 48.5 28.5t47 32t35.5 32t14 28.5q-18 0 -34.5 -7t-32 -16.5t-31.5 -16.5t-37 -7q-31 0 -45 21.5t-20.5 55t-5.5 71.5t1 73q0 78 5.5 156t5.5 155q0 35 -17.5 73 t-34.5 67v12q0 12 5.5 18.5t21.5 6.5h207q12 0 17 13t5 21q-25 0 -51 2t-47.5 11.5t-35 28t-13.5 50.5q0 37 4 74t4 74q0 70 -21.5 135.5t-61.5 115.5t-99 79.5t-135 29.5q-39 0 -82 -7t-82 -22.5t-72 -41t-51 -62.5q-2 -4 -6 -15t-9 -24.5t-12.5 -26t-15.5 -16.5 q-23 16 -34 44t-32 46q-72 72 -176 104t-202 32q-86 0 -171 -32t-153 -87t-110 -132t-42 -169q0 -59 12.5 -119.5t53.5 -110.5q18 -23 53 -44t68 -44.5t57.5 -48t24.5 -53.5q0 -35 -33 -54.5t-73 -31.5t-72.5 -18.5t-32.5 -14.5l8 -12q4 -2 14 -2h17q72 0 136 24.5 t112.5 69.5t76 106.5t27.5 135.5q0 61 -22.5 105t-55.5 77t-72.5 58.5t-72.5 50t-55.5 52t-22.5 66.5q0 68 49 97.5t111 29.5q61 0 104 -36.5t71.5 -94t45 -125t24 -130t9.5 -109.5t2 -62v-538q0 -51 -10.5 -109.5t-35 -108t-66.5 -82t-103 -32.5q-20 0 -45 6t-46.5 18.5 t-36 32t-14.5 43.5q0 33 25 49q76 6 130 41t54 119q0 66 -49 111t-115 45q-68 0 -128 -30t-83 -103v-66q0 -72 26 -128t70 -94t103 -57.5t129 -19.5q61 0 122.5 17.5t115.5 48.5q92 55 154.5 128.5t103.5 158.5t65.5 180.5t40.5 195.5q2 10 5 42t3 42l9 8l11 1t15 1 q47 0 70.5 -19.5t36.5 -66.5v-82q0 -55 -5.5 -109t-5.5 -110q0 -10 1.5 -39.5t3.5 -63.5t4 -66t2 -44zM1206 293v207q0 33 1 83t3 98t3 83l1 35l17 16l149 25q4 0 14.5 -16.5t21.5 -37t20.5 -40t9.5 -23.5v-498q2 -4 5 -20.5t3 -20.5l2 -4q0 -8 -17.5 -22.5t-39 -28.5 t-43 -25.5t-29.5 -11.5q-2 0 -3 1l-1 1q-51 41 -78 89.5t-39 109.5zM1231 389q0 -53 8 -106.5t41 -98.5q10 -10 28.5 -29.5t22.5 -19.5h8l13 7l25.5 17t24.5 16t11 9q0 27 2 95.5t3 145.5t2 145.5t1 95.5v32q-2 6 -9 20.5t-14 31t-15.5 30t-10.5 19.5l-12 8h-4 q-45 -8 -79 -14.5t-38 -10.5q-2 -59 -4 -108t-3 -95.5t-1 -93.5v-96zM518 1479v12q39 0 81 -12.5t82 -32t75 -46t61 -54.5q12 -14 28.5 -32t32 -32t26.5 -23.5t11 -5.5q4 -90 7.5 -183t3.5 -165q0 -18 -2 -41.5t-3 -43t-3.5 -31t-2.5 -7.5q-16 -92 -32.5 -169.5t-44 -147.5 t-71.5 -134.5t-116 -129.5v772q0 135 -30.5 263t-102.5 243zM135 287q0 23 10.5 46t26.5 41.5t38.5 31t45.5 12.5q14 0 31.5 -6t32 -17.5t23.5 -26t9 -30.5q0 -29 -20.5 -44t-48 -23.5t-55 -11.5t-42.5 -7q-2 -2 -12 -9t-12 -10h-4q-16 0 -19.5 17.5t-3.5 30.5v6zM236 383 q-8 -6 -20.5 -17.5t-25 -24.5t-21.5 -29.5t-9 -30.5q12 0 36.5 1t50 7t45 18t19.5 35q0 18 -21.5 30.5t-37.5 12.5q-2 0 -8 -1t-8 -1zM584 1436q27 -41 45 -102.5t29.5 -125t16.5 -121t5 -90.5v-712h12l10 11q9 11 21 26.5t24.5 33t18.5 27.5q49 76 75.5 169t41.5 179 q6 23 6 51q0 31 10 41v166q0 14 -1 49t-2 75t-3 75t-2 49q-25 0 -39 10t-25.5 25.5t-20.5 33t-24 31.5q-14 14 -36.5 31.5t-48 33t-52.5 26t-49 10.5h-6t-6 -2zM94 1126v15q0 16 3 35.5t20 19.5h4q33 -27 79 -55.5t89 -61t73.5 -73.5t30.5 -93q0 -20 -7 -48.5t-26 -41.5 q-37 33 -84 61.5t-86.5 62.5t-67.5 77t-28 102zM999 905q-6 84 -8 152.5t-2 159.5q0 31 1 73.5t12.5 80.5t35 64.5t68.5 26.5q27 0 43 -16t24.5 -39t11.5 -49.5t5 -44.5q4 -59 12 -113.5t30.5 -102.5t64.5 -86t116 -63l8 -12q0 -10 -44 -20.5t-105.5 -19.5t-126 -17.5 t-105.5 -14.5q-20 4 -28.5 12.5t-12.5 28.5zM117 1141q0 -41 22.5 -80t55 -73t70.5 -59.5t71 -39.5h8q12 0 14 10t2 21q0 25 -28.5 61.5t-68.5 72.5t-80.5 61.5t-65.5 25.5zM1247 1458q0 8 6.5 10t12.5 2h12q51 0 94 -26.5t75 -67.5t49 -91t17 -95q0 -51 -2 -93t-6 -100h-8 q-49 33 -89 59.5t-70.5 58.5t-49 75t-24.5 106q0 20 -2 46t-4.5 49.5t-5.5 41t-5 21.5v4zM1286 1432q0 -53 3 -99.5t14.5 -87.5t35 -78t66.5 -69q14 -12 28.5 -23.5t32.5 -11.5h15q4 33 6 62.5t2 60.5q0 37 -17.5 80t-46 79.5t-64.5 61.5t-75 25z" />
<glyph unicode="S" horiz-adv-x="1574" d="M20 817q0 -119 30 -234.5t87.5 -218t143.5 -184.5t196 -131q78 -35 170 -42t176 -7h68q139 0 256 49t202 133t133 199t48 244q0 106 -42 183t-112.5 126t-162 71.5t-189.5 22.5q-72 0 -154 -12t-145 -53l-256 -175q-23 -16 -44.5 -21t-47.5 -5q-59 0 -92 42t-33 99 q0 55 26.5 92t65.5 59.5t83 32t79 9.5q39 0 62.5 -5.5t41 -12.5t30.5 -12t32 -5q12 0 12 16t-22.5 27.5t-52 18.5t-58.5 10.5t-41 3.5q-98 0 -179 -47.5t-112 -143.5v-67q0 -90 33 -159t90 -115t134 -69.5t163 -23.5q96 0 189.5 30.5t170.5 88.5q41 29 80 63.5t80 64t87 50 t102 20.5q76 0 112.5 -47t36.5 -120q0 -72 -37 -120t-97 -81t-135 -50.5t-151 -25.5t-144.5 -10t-115.5 -2h-61q-68 0 -141.5 3t-144.5 16.5t-135.5 40t-115.5 73.5q-78 72 -122 147.5t-44 184.5q0 92 37 170.5t98.5 137t142.5 91.5t171 33q59 0 115.5 -14.5t110.5 -36 t107.5 -48t104.5 -51.5q51 -27 110.5 -31t114.5 -4q70 0 139.5 28t126 77t91 114.5t34.5 141.5q-20 0 -32.5 -19.5t-27.5 -44t-35.5 -44t-55.5 -19.5q-41 0 -84 16.5t-85 40t-82 49t-73 43.5q-84 45 -165.5 69t-178.5 24q-147 0 -277 -61.5t-228.5 -165t-155 -238 t-56.5 -279.5zM240 375q2 0 7 -1l5 -1q143 -41 277.5 -54.5t283.5 -13.5h80q55 0 103 1t110 9q61 6 125.5 24.5t126.5 18.5q0 -39 -45 -83t-109.5 -83.5t-136.5 -71.5t-127 -46h-102q-90 0 -166 13t-142.5 42t-129 75t-124.5 111q-8 10 -22 26t-14 34zM342 309q0 -27 32 -49 t60 -45q102 -63 198.5 -90t215.5 -27q100 0 194.5 41t171.5 101q4 4 18.5 14t30 22.5t26.5 23.5t11 15h-20q-104 -16 -184 -25t-170 -9h-113h-115t-78.5 2t-62.5 3t-63 5q-37 4 -75 11t-77 7zM401 684v4q35 2 70 7t64 26l256 174q37 25 77.5 34t79.5 25h72q14 0 47 -2 t66.5 -8t61.5 -16t36 -25q0 -2 -11.5 -8t-27.5 -13.5t-32.5 -15.5t-29.5 -12q-55 -33 -109 -80t-112.5 -90t-124 -73.5t-145.5 -30.5q-14 0 -53 9t-80 23.5t-73 34t-32 37.5zM485 664q39 -25 74 -38.5t80 -13.5q72 0 137.5 31t127 76t119.5 93t118 83q0 8 8 8 q-35 14 -63.5 20.5t-65.5 6.5q-51 0 -106.5 -15.5t-96.5 -44.5l-258 -174q-10 -8 -37 -18t-37 -14zM391 1346q0 20 48 46.5t108.5 48t118 37t75.5 15.5q70 0 133.5 -23.5t125 -57.5t121 -70.5t118.5 -65.5q2 0 18.5 -4t35 -10.5t32.5 -12.5t14 -10q0 -18 -26.5 -32.5 t-60 -25t-66.5 -16.5t-45 -6q-57 0 -111.5 18.5t-108 44t-106.5 53.5t-106 44q-59 18 -124 22.5t-128 4.5h-66zM494 1376q94 -6 177 -22.5t171 -50.5q33 -14 69.5 -34t75.5 -38.5t79 -31.5t77 -13q8 0 27.5 2t39 7t33.5 14.5t14 21.5l-2 4q-68 20 -130 58t-124.5 75 t-128 64.5t-139.5 27.5q-20 0 -56 -7t-74 -19.5t-69.5 -28t-39.5 -29.5z" />
<glyph unicode="T" horiz-adv-x="1509" d="M172 332q43 0 84 -17.5t79 -43t76 -54.5t74 -51q72 -43 143.5 -82t155.5 -59q33 -4 73 -11.5t85 -7.5q137 0 253 50t194 167q31 47 54 91t23 100h-18q-16 -53 -51 -106.5t-90 -76.5h-82q-16 0 -33.5 1t-34.5 8q-31 14 -88 39.5t-113.5 54t-98.5 55.5t-42 43q0 12 37 37 t81 62.5t81 89t37 116.5q0 70 -37 115t-87 80t-104.5 67.5t-89.5 79.5v13q0 37 35 36h16q49 -25 97.5 -50t97.5 -47.5t100 -37t109 -14.5q61 0 115.5 19.5t95.5 56.5t65.5 88t24.5 114q0 39 -26.5 82t-66.5 79t-85 59.5t-80 23.5q-16 0 -17 -20v-13q35 -12 76 -30.5t76 -44 t58.5 -60.5t23.5 -78q0 -23 -8 -34t-27 -27h-33q-45 0 -87 23.5t-82 55.5t-76.5 67.5t-69.5 60.5q-59 45 -119.5 83t-125 65.5t-133.5 44t-144 16.5q-90 0 -183.5 -29t-168 -85t-123 -139t-48.5 -192v-12q0 -8 3.5 -26.5t5.5 -40t5 -40t3 -26.5q14 -37 43 -66.5t63.5 -49 t73.5 -31t76 -11.5q41 0 74.5 5t68.5 28v4q0 10 -7 12t-13 2q-33 0 -62.5 -9t-64.5 -9q-96 0 -157.5 60.5t-61.5 152.5q0 59 20.5 97t55 59.5t80.5 30t98 8.5h61q27 -10 83 -29t111.5 -40.5t97.5 -44t42 -42.5q0 -16 -34 -41t-75 -59.5t-74.5 -85t-33.5 -119.5 q0 -53 22.5 -91t57 -67t73.5 -50.5t74 -42t57.5 -43t22.5 -50.5q0 -16 -10.5 -29.5t-26.5 -13.5q-8 0 -25.5 7t-41 18.5t-48 22.5t-47.5 19q-39 12 -63.5 18.5t-42 7.5t-33.5 1h-39q-88 0 -163.5 -26.5t-132 -77t-88.5 -123t-32 -164.5h21q2 27 11 57.5t25.5 57t40 43 t58.5 16.5zM244 406v4q0 10 25.5 22t57 23.5t62.5 18.5t41 7q53 0 111.5 -21.5t116 -53t112.5 -65.5t104 -58q23 -12 59 -31t70.5 -35t60.5 -29.5t28 -13.5l73 -20q0 -18 -27.5 -31.5t-63.5 -23t-69.5 -13.5t-46.5 -4q-78 0 -148.5 22.5t-136 58.5t-129 78t-126.5 83 q-41 29 -85 44t-89 38zM328 410q0 -2 13 -9.5t32.5 -16.5t39 -18.5t31.5 -17.5q57 -37 118 -79t124.5 -78.5t132 -60.5t139.5 -24q6 0 27 3.5t44.5 8.5t42 11t20.5 12q-4 0 -13.5 3t-13.5 6q-70 33 -134.5 66.5t-129 68t-134 70.5t-149.5 77q-33 10 -50 13.5t-44 3.5 q-8 0 -24.5 -2.5t-32 -6.5t-27.5 -11t-12 -19zM575 842q0 14 10.5 37.5t26 46t34 39t34.5 16.5q12 0 44 -18.5t66.5 -42t65.5 -47t43 -35.5q25 -18 46.5 -44t21.5 -61q0 -12 -9.5 -33.5t-22.5 -43t-30.5 -37t-34.5 -15.5q-8 0 -19 7t-23.5 17.5t-24.5 20.5t-19 15 q-18 12 -53 30.5t-69.5 42t-60.5 50t-26 55.5zM616 846q0 -20 35 -52t79 -63t86 -53.5t54 -22.5q10 0 21.5 8.5t21 20.5t15.5 25.5t6 23.5q0 25 -33 56.5t-76 61.5t-84 54.5t-57 32.5h-4q-10 0 -20.5 -10t-20.5 -24.5t-16.5 -31t-6.5 -26.5zM883 1178q-53 45 -125 76.5 t-131 56.5q-14 6 -37 12t-48.5 13t-49 16.5t-39.5 19.5h-242l-8 12q31 35 70.5 63t84.5 48.5t92.5 30.5t92.5 10q70 0 137.5 -20.5t129.5 -54.5t119.5 -76t110.5 -82q31 -25 63 -54.5t64.5 -55.5t68.5 -46.5t79 -26.5v-4q0 -10 -15.5 -21.5t-35 -20.5t-40 -15t-30.5 -6h-12 q-8 2 -21.5 4t-27 5t-23.5 5l-10 2zM477 1397q16 -10 40 -19.5t49.5 -16.5t48 -13.5t36.5 -12.5q25 -10 55.5 -22.5t62.5 -27.5t61.5 -31.5t52.5 -34.5q33 -16 69.5 -39t76.5 -44.5t81 -36t82 -14.5q16 0 24.5 3.5t22.5 15.5q-16 23 -50 39t-56 35q-61 49 -127 106 t-137.5 106.5t-148.5 81t-163 31.5q-29 0 -70 -6t-83 -19.5t-76.5 -34t-48.5 -46.5h198z" />
<glyph unicode="U" horiz-adv-x="1492" d="M891 381h8q4 0 7 -26.5t9.5 -61.5t15.5 -71t27 -56q10 -12 31 -38t44.5 -50.5t47 -44t39.5 -19.5t50 27t75 66.5t86 85t84 81.5q27 25 43.5 34t16.5 44q-29 0 -49.5 -15t-49.5 -15q-51 0 -73.5 36.5t-29.5 94t-4 126t3 134.5v110q0 80 2 154t8 160q2 43 26.5 65.5 t51 32.5t49.5 15t23 16q0 6 -21.5 20t-49.5 30.5t-53.5 31t-33.5 20.5t-30.5 25.5t-29.5 25.5q-4 4 -21 26.5t-36.5 48.5t-37 46.5t-19.5 20.5q-6 0 -26.5 -26t-45 -59.5t-49.5 -64.5t-37 -43q-12 -10 -41 -25.5t-59.5 -32t-53 -29.5t-22.5 -19q0 -2 1 -6l1 -3 q49 -6 77.5 -20t45 -39t22 -60.5t5.5 -84.5v-5q-2 -2 -5.5 -8t-5.5 -8v-514l-8 -65q0 -4 -14.5 -21.5t-37 -38t-48 -41t-47.5 -33.5h-4q-14 0 -40 10.5t-51.5 26t-44 32.5t-18.5 30v565q6 27 7 56.5t1 60.5v198q-12 49 -31.5 86t-46 67t-60.5 56.5t-71 57.5q-10 8 -16 12 t-17 4h-8l-332 -332v-22q14 0 26.5 6t27 13t32 13.5t44.5 6.5q31 0 48 -19.5t26 -47.5t11.5 -58.5t2.5 -53.5q0 -27 -2.5 -43t-8.5 -45q0 -27 1 -91t1 -136v-131q0 -49 -1 -87t-3 -71t-6 -73q-20 -49 -59 -56.5t-90 -9.5q-2 0 -4.5 -3t-4.5 -5v-8q2 -2 4.5 -5.5t4.5 -3.5 q90 -49 166.5 -95t156.5 -111q8 -6 17.5 -20.5t19.5 -29t21.5 -24.5t21.5 -10h4q23 12 40.5 30.5t41.5 26.5zM967 1262l82 81q8 8 21 30t30 22h2q4 0 6 -2q8 -8 28.5 -25.5t42 -36t38 -35t16.5 -22.5q0 -43 -13.5 -88t-13.5 -90v-699q0 -18 7.5 -39.5t14.5 -41t14 -34 t7 -20.5q0 -16 -15 -33.5t-35.5 -34l-41 -33t-33.5 -28.5q-20 18 -44.5 41t-46 48.5t-36 54t-14.5 63.5v780q0 23 -5 68t-11 74zM287 307v12q0 193 8 382.5t8 381.5q0 49 -2 94.5t-14 92.5q-4 12 -19.5 32.5t-15.5 28.5v4q18 14 35.5 35t33 39t28.5 30.5t24 12.5h4 q18 -14 43.5 -37.5t49.5 -50.5t40 -55.5t16 -55.5v-905q0 -20 14.5 -29.5t32 -15.5t31.5 -12t14 -21v-4q-10 -12 -26.5 -28.5t-34.5 -32t-33.5 -28.5t-21.5 -19h-17q-43 35 -95 76.5t-103 72.5zM1008 1253v-888q0 -57 34.5 -98.5t73.5 -76.5h8q8 0 19.5 7.5t23 16.5 t19.5 19.5t12 14.5v14q0 29 -8 55.5t-8 55.5v747q0 6 2 22.5t3 35t2 36t1 23.5v33q-25 25 -52.5 46t-39.5 21q-2 0 -4 -1l-2 -1zM319 332q4 -4 20.5 -17.5t40 -32t49.5 -38t48 -37.5h25l20 15q19 16 29 26l8 8q0 2 1 3t1 3q-16 12 -37.5 22.5t-21.5 39.5v903 q0 29 -17.5 60.5t-40 59t-42 46t-25.5 18.5h-8l-66 -80v-4q0 -2 2 -12t5 -20.5t6 -20.5t3 -12q6 -31 7.5 -53.5t1.5 -45.5v-73q0 -176 -4.5 -351.5t-4.5 -353.5v-53z" />
<glyph unicode="V" horiz-adv-x="1648" d="M254 399q45 0 85 -19.5t75 -49t66.5 -63.5t62.5 -60q41 -37 89 -75t102 -66.5t111.5 -47t117.5 -18.5q115 0 231.5 42t210.5 116.5t155.5 178t67.5 226.5v17q0 59 -21.5 111t-70.5 87l-16 17q-29 14 -63 31.5t-62.5 37t-47 41t-18.5 43.5q0 12 12.5 34t28.5 22h10 q49 -10 95.5 -22.5t99.5 -12.5h4l25 5l16 3v8q-35 6 -59.5 31.5t-24.5 60.5q0 31 9 59.5t9 61.5q0 100 -39.5 188.5t-134.5 129.5q-10 4 -36.5 15t-38.5 11h-183q-53 0 -85.5 -29.5t-54 -66.5t-34 -66.5t-20.5 -29.5q-20 10 -31.5 34.5t-22.5 40.5q-61 78 -143 102.5 t-192 24.5q-72 0 -129.5 -7t-108.5 -26.5t-97 -54t-91 -88.5q-39 -45 -66 -105.5t-27 -119.5t19.5 -101t48.5 -72t61.5 -51.5t61.5 -43t48.5 -46t19.5 -57.5q0 -39 -31 -57t-67 -29.5t-66.5 -19.5t-30.5 -27q78 0 148.5 25.5t123 72t83 112t30.5 144.5q0 51 -19.5 87t-49 64 t-64.5 49.5t-64.5 45t-49 50t-19.5 65.5q0 61 44 96t103 35q72 0 116 -41t69.5 -104.5t35 -137t11.5 -139t-1 -114t-3 -56.5q0 -47 -2.5 -96t-7.5 -93t-15 -78t-27 -46q-78 -4 -138 -16.5t-108.5 -40t-88 -72.5t-78.5 -111q-14 -23 -25.5 -48.5t-11.5 -51.5h18 q10 25 24.5 52.5t34 49t45 35.5t56.5 14zM360 465v4q0 12 19.5 20.5t46.5 13.5t50.5 8t33.5 3h4q61 0 118.5 -26.5t108 -66.5t96.5 -84t87 -81q41 -35 86 -69.5t88 -69.5l8 -15q0 -8 -18.5 -13t-42 -8t-45 -5t-27.5 -2q-88 0 -166 49t-150.5 114.5t-145.5 130t-151 97.5z M442 465q72 -51 137.5 -113.5t135 -118t146.5 -92.5t173 -37q0 18 -33.5 52t-78.5 73t-91.5 76t-72.5 60q-57 49 -120 82.5t-134 33.5h-19q-14 0 -28.5 -2t-14.5 -10v-4zM584 592v4q2 2 4 5t4 3q55 29 104 51.5t92 50t79 65.5t65 99q8 18 9 40t2 42.5t5 40t17 35.5v305 q0 53 33.5 98.5t88.5 45.5q49 0 70 -41t28 -97.5t11 -114t18 -89.5q6 -16 23.5 -33t34 -32t30 -28.5t13.5 -25.5t-40 -29.5t-89 -45.5t-89 -70t-40 -105q0 -59 29.5 -103.5t73.5 -80t95.5 -67.5t95.5 -64.5t73.5 -71.5t29.5 -90q0 -29 -14.5 -55.5t-38 -47t-52 -33 t-57.5 -12.5q-63 0 -134 47.5t-140.5 110.5t-133 124.5t-110.5 90.5q-12 8 -43 19.5t-63.5 22.5t-58 21.5t-25.5 14.5zM1139 766q0 10 14 29.5t32.5 38t37 32t28.5 13.5q12 0 19.5 -20.5t17.5 -29.5q25 -20 69 -44.5t88 -54.5t76.5 -66.5t32.5 -79.5q0 -14 -3 -35t-9 -42.5 t-15 -39.5t-24 -29q-29 33 -89 75t-121.5 85t-107.5 86t-46 82zM1180 762q0 -10 20.5 -32.5t52 -51.5t69.5 -59.5t71.5 -55t60.5 -41t37 -16.5q18 0 24.5 23.5t6.5 37.5q0 51 -30 81t-72 54.5t-89 51t-84 67.5h-12q-16 0 -35.5 -21.5t-19.5 -37.5zM573 1479q102 0 170 -60.5 t115 -142.5q6 -2 17.5 -5t15.5 -11v-86q0 -55 -3 -106.5t-15.5 -97.5t-37 -88t-69.5 -79q-20 -16 -53 -41t-68 -25q0 180 -3 310.5t-10 217.5t-21.5 138t-37.5 76zM633 1434q0 -29 11 -62t15 -63q8 -72 10.5 -149t2.5 -154q0 -57 -1 -112.5t-1 -107.5h6q66 33 103.5 74 t57 89t24.5 105.5t5 123.5v65q-25 2 -48 32t-50 64.5t-59.5 64.5t-75.5 30zM102 1147q0 8 1 23.5t6.5 29.5t12.5 24.5t19 10.5h4q39 -27 83 -57.5t81 -62.5t61.5 -64.5t24.5 -63.5q0 -6 -4 -23.5t-10 -34t-15.5 -29.5t-17.5 -13h-4q-27 33 -67.5 58.5t-79.5 54t-67 63.5 t-28 84zM135 1153q0 -37 21.5 -67.5t52.5 -55t65.5 -44t61.5 -34.5l3 -1t5 -1q12 0 14 13.5t2 23.5q0 25 -20.5 49.5t-50 49t-64.5 48t-63 44.5h-8q-12 0 -15.5 -7.5t-3.5 -17.5zM1237 1470q49 0 93 -24.5t77 -62t52.5 -85t19.5 -92.5q0 -31 -7.5 -65.5t-9.5 -63.5l-8 -8 l-1 -1q-1 -1 -5 -1q-10 0 -23.5 3t-19.5 7q-57 31 -87 66t-43 77t-17.5 91t-10.5 106q0 14 -5 31.5t-5 21.5zM1278 1427q0 -51 5 -98t20.5 -88t43 -76t74.5 -63h17q4 35 6 59.5t2 52.5q0 27 -15.5 64t-39 70.5t-53 56t-60.5 22.5z" />
<glyph unicode="W" horiz-adv-x="2213" d="M197 258q74 0 134 -39t118.5 -86t120 -86t137.5 -39q57 0 121.5 16.5t111.5 49.5q20 14 42 38.5t44.5 48t46 40t51.5 16.5q31 0 58.5 -12t52.5 -29.5t48.5 -38t47.5 -37.5q59 -43 123 -67.5t135 -24.5q109 0 213.5 47t185 126t131 181.5t50.5 212.5q0 59 -22.5 106.5 t-55.5 83.5t-72 62.5t-71.5 49t-55 41t-22.5 36.5v9q2 4 9 17t15.5 26.5t17.5 23.5t15 10h225q10 0 25.5 7.5t15.5 21.5v8q-23 0 -45 1t-40.5 7.5t-32 19.5t-15.5 40q-4 47 -5 82t-11 76q-20 74 -60 123t-94.5 78.5t-120 43t-133.5 13.5q-109 0 -192.5 -35t-161.5 -117h-10 q-16 0 -32.5 23.5t-40 52t-55.5 52.5t-75 24q-41 0 -76 -24t-62.5 -52.5t-45 -52t-23.5 -23.5h-4q-74 70 -158 111t-188 41t-194.5 -33t-156 -92.5t-103.5 -144.5t-38 -191v-33q0 -23 1.5 -47.5t7.5 -40.5q14 -45 58 -78t92 -60.5t86 -53t38 -56.5q0 -47 -28.5 -70.5 t-62.5 -37t-61.5 -24.5t-27.5 -32q74 0 136.5 35t109.5 91.5t73.5 125t26.5 135.5v66q-18 41 -40.5 72.5t-59.5 60.5q-25 18 -59 38.5t-65.5 45.5t-53 54.5t-21.5 70.5q0 33 18.5 58.5t47 41t60.5 23.5t60 8q72 0 111 -45t56.5 -113.5t20.5 -148.5t7 -150v-8q0 -8 -1 -12 t-7 -12q0 -14 1 -48t1 -73t-1 -73t-1 -48q0 -16 -3 -52t-11.5 -74t-20.5 -71t-31 -43h-24q-80 0 -139.5 -19.5t-105.5 -56t-81 -91t-66 -124.5q-14 -31 -24 -51t-10 -55q12 0 22 20.5t27.5 45t45.5 46t75 21.5zM1255 274v9q0 2 13.5 23.5t31 46t32 44t16.5 19.5 q43 0 86 -23.5t82.5 -56.5t74.5 -69t64 -60q23 -23 45 -41.5t37 -32.5l2 -4q0 -4 -17.5 -12t-40 -15.5t-45 -13.5t-34.5 -6q-49 0 -95.5 19.5t-90.5 48t-84 62t-77 62.5zM236 332v8q0 16 25.5 35.5t59 36t65.5 27t44 10.5q18 0 42 -8.5t48.5 -20.5t46 -25.5t33.5 -21.5 q51 -29 92 -56.5t78 -51t76 -43t88 -27.5q0 -16 -28.5 -35t-65.5 -34t-72 -25.5t-47 -10.5h-2q-55 0 -110.5 37t-114 81t-122.5 82t-136 42zM1307 283q29 -25 62.5 -54.5t70.5 -54t74.5 -42t76.5 -17.5q18 0 43 4t37 22q-29 31 -62.5 66t-71.5 68.5t-80 61.5t-85 44l-3 1 t-5 1q-4 0 -12.5 -12.5t-17.5 -27.5t-16 -30.5t-11 -21.5l-2 -4q0 -2 1 -3zM309 360q0 -6 12.5 -13t29 -13t30.5 -11.5t20 -7.5q31 -18 73 -50t86 -63.5t87 -55t74 -23.5q8 0 31.5 5t46 12t41 17.5t18.5 20.5v4q-57 10 -109.5 46t-104.5 76t-105.5 72t-114.5 32 q-35 0 -59.5 -12.5t-53.5 -30.5zM1380 489q-8 2 -8 17v8q68 61 117 136t49 173q0 66 -13.5 114t-51.5 107q-18 27 -49 59t-59 67.5t-48.5 73.5t-20.5 79q0 39 21.5 70.5t54.5 54t72 34t74 11.5q55 0 80.5 -38t38 -89t18.5 -104.5t24 -83.5q16 -31 48 -56.5t64 -44t55.5 -30 t23.5 -15.5q0 -8 -39 -26.5t-86 -51t-86 -82t-39 -116.5q0 -70 28.5 -121t72.5 -91t94.5 -72t94.5 -60.5t72.5 -58t28.5 -66.5q0 -49 -43 -77t-86 -28h-24q-8 0 -14.5 1t-14.5 7q-53 39 -103.5 88.5t-103.5 93.5t-112.5 77.5t-129.5 39.5zM526 506v8q0 6 30 21.5t69 33 t75.5 35t49.5 27.5q100 78 146 188.5t46 235.5q0 70 -9 138.5t-50 149.5v17q66 84 174 84q14 0 42.5 -5t58.5 -16.5t52.5 -26t22.5 -32.5q0 -16 -8 -23.5t-19 -21.5q-25 -37 -53.5 -79t-51 -87t-37.5 -92t-15 -94q0 -70 34.5 -123t77.5 -101.5t78 -97.5t35 -110 q0 -51 -24.5 -98.5t-63.5 -84.5t-88 -58.5t-99 -21.5q-51 0 -93 16.5t-81 42t-76.5 55.5t-80.5 54l-31 15.5t-38 18.5t-39 17.5t-34 14.5zM1704 745q0 16 7 38t20.5 41.5t30 32.5t34.5 13h8q33 -20 83 -56t96.5 -77t79 -86t32.5 -84q0 -10 -5 -30.5t-13.5 -43t-18.5 -39 t-18 -16.5q-33 18 -89.5 52t-111.5 75t-95 87t-40 93zM1735 745q0 -25 35.5 -65.5t83 -81.5t96.5 -70.5t78 -29.5q12 0 18 9t9 22.5t4 26.5t1 19v13q-10 20 -42.5 60t-73.5 78t-84 66.5t-72 28.5q-23 0 -38 -26.5t-15 -49.5zM1130 969q0 23 12.5 59.5t30 71.5t37 60.5 t31.5 25.5q10 0 20.5 -23.5t20.5 -34.5q31 -39 57.5 -67.5t49 -58t41 -62.5t34.5 -78v-20q0 -29 -9 -58.5t-24.5 -57.5t-35 -52.5t-39.5 -42.5q-18 10 -20.5 25.5t-12.5 31.5q-18 33 -51 65.5t-64.5 67.5t-54.5 72t-23 76zM618 1030q0 109 -6 217.5t-45 212.5q2 8 15 8h6 q31 0 62.5 -16t61 -38.5t54.5 -49.5t43 -45q2 -31 12 -58.5t19.5 -55t17.5 -57.5t8 -61q0 -123 -45 -216t-137 -175q-14 -12 -33.5 -25.5t-42.5 -13.5q0 94 5 187.5t5 185.5zM1163 975q0 -14 29 -59.5t64.5 -94.5t66.5 -87t37 -38q10 0 22.5 16.5t23.5 39t18.5 45t7.5 32.5 q0 33 -17.5 68t-44.5 71t-59.5 71.5t-63.5 72.5l-12 8q-8 0 -20.5 -18.5t-23.5 -42t-19.5 -48t-8.5 -36.5zM616 1419l1 -4q1 -4 1 -6q12 -166 21.5 -334t9.5 -354h10q2 0 11.5 7t20.5 18.5t23.5 22.5t18.5 19q55 57 82 139.5t27 159.5q0 29 -8.5 55.5t-18.5 52.5t-19.5 52.5 t-11.5 55.5q-20 18 -40.5 38.5t-42 38t-43.5 28.5t-42 11zM94 1085v9q0 10 1 28.5t4 37t9.5 31.5t18.5 13t12 -4t15 -14q37 -27 78.5 -51.5t78.5 -52t60.5 -60.5t23.5 -72q0 -23 -10 -57.5t-33 -46.5q-35 16 -79 37.5t-83.5 51.5t-67.5 66.5t-28 83.5zM119 1087 q0 -37 29.5 -70.5t68.5 -61t74 -44t45 -16.5h8q12 0 14 19.5t2 29.5q0 33 -16 57.5t-44 46t-63.5 42t-74.5 47.5q-10 4 -13.5 6t-11.5 2h-8q-10 -29 -10 -58zM1696 1473q0 12 16 12t26.5 -9.5t22.5 -15.5q49 -25 90 -52.5t72 -62t47.5 -80.5t16.5 -108v-37q-2 -10 -19 -10 h-12q-37 0 -62.5 16.5t-56.5 34.5q-84 49 -112.5 133.5t-28.5 178.5zM1735 1427q0 -86 29.5 -140t97.5 -101q27 -18 46 -30.5t54 -12.5q0 43 -16.5 93t-47 93t-72.5 70.5t-91 27.5z" />
<glyph unicode="X" horiz-adv-x="1517" d="M621 324q8 0 17 -16.5t19.5 -38t19.5 -42t15 -28.5q4 -4 15.5 -16.5t24.5 -25t25.5 -24.5t18.5 -16q8 -8 36 -29.5t61.5 -45.5t65.5 -41t48 -17h4q2 2 8.5 4t8.5 4l356 291q14 16 34.5 28.5t40 25.5t33 30.5t13.5 42.5q-25 0 -50.5 -18.5t-56 -42t-67.5 -42t-84 -18.5 q-70 0 -121 33.5t-84 87t-48.5 119t-15.5 126.5q0 8 8.5 26.5t16.5 18.5h191q43 0 72.5 28t50 67t32.5 81t19 70q4 12 10 28.5t6 29.5q0 6 -2 12t-10 6q-10 0 -17.5 -9t-11.5 -22.5t-8 -26t-8 -18.5q-31 -41 -81 -51t-104 -10q-25 0 -48 1t-44 1h-55l-8 10q-2 0 -4 24.5 t-5 41.5v8q0 8 1.5 12t7.5 12v70t5 99.5t16 109.5t33.5 101t59.5 75t93 29q16 0 29.5 -5.5t13.5 -25.5q0 -12 -13.5 -29.5t-29 -40t-28.5 -48t-13 -56.5q0 -78 52 -125t126 -47q41 0 74.5 17.5t58 47t39 66.5t14.5 76q0 51 -20.5 95t-54 74.5t-79 48t-96.5 17.5 q-68 0 -117 -27.5t-84.5 -72.5t-60 -99.5t-43.5 -109.5q-6 0 -23.5 23.5t-38 54t-40 59.5t-31.5 39q-66 59 -145.5 90t-161.5 60q-10 2 -13.5 4t-4.5 3t-5 1h-14h-12l-392 -381v-43q18 0 41 18.5t52.5 40t65.5 40t83 18.5q66 0 119 -28t90 -73t56.5 -104.5t19.5 -120.5 q0 -8 -1 -26.5t-3 -22.5l-9 -8q-29 2 -54 3t-52 1q-53 0 -101.5 -13.5t-85 -48.5t-59 -94t-22.5 -149q25 0 37 18t27.5 42t44 42t85.5 18q16 0 33.5 -1t32.5 -1h24q10 0 27.5 -1t33 -2t26.5 -3l12 -2l8 -8q0 -2 1 -14.5t1 -28.5v-31v-24q0 -76 -3 -143.5t-19.5 -128 t-50.5 -115t-95 -103.5q-25 -23 -48.5 -33t-58.5 -10q-18 0 -38.5 7t-20.5 30q0 20 20.5 35.5t46 34t46 46t20.5 77.5q0 90 -58.5 134t-137.5 44q-86 0 -131.5 -58.5t-45.5 -140.5q0 -59 21.5 -104t57.5 -76t83 -46.5t101 -15.5h69q35 14 62.5 27.5t51 29t44 37t41.5 56.5 q8 14 18.5 39.5t19.5 52.5t17.5 46.5t14.5 19.5zM659 748l-8 8l-282 16q8 12 24.5 24.5t32.5 12.5h225v262q-29 133 -104.5 193.5t-186.5 70.5l125 133h11q31 0 63 -16q61 -29 120.5 -66.5t107 -90t77 -120t29.5 -153.5q0 -29 -1 -59.5t-1 -65.5v-27q2 -12 4 -32.5t4 -20.5 h291q-4 -8 -14.5 -17t-23.5 -16.5t-25.5 -11.5t-18.5 -4h-193q-4 0 -13 -16.5t-11 -20.5v-76q0 -39 4 -93t16.5 -109.5t36 -103.5t60.5 -75q12 -8 29.5 -15t35 -15t31.5 -16.5t20 -20.5q-10 -12 -27.5 -30.5t-39 -36t-42 -30t-36.5 -12.5q-2 0 -6 1t-6 1q-106 57 -167 123 t-91.5 146t-39 173t-10.5 206zM102 262q0 18 8.5 40t22.5 39t33.5 29.5t40.5 12.5q14 0 32.5 -10.5t34 -25.5t26.5 -32.5t11 -31.5q0 -23 -15 -37.5t-35.5 -26.5t-39 -22.5t-26.5 -22.5q-4 -4 -5.5 -20.5t-11.5 -20.5q-29 23 -52.5 56.5t-23.5 72.5zM434 1364q0 -2 37 -19.5 t82 -51t83 -83t40 -114.5l16 -590q2 -41 32 -103.5t73 -121t92 -99.5t90 -41q8 0 20.5 6.5t23.5 14.5t19.5 18t8.5 19q0 2 -1 5l-1 3q-61 33 -98.5 83t-57 110.5t-24.5 127t-5 127.5q0 16 2 37t3 39.5t3 32.5t2 16v8q0 45 -2 100.5t-6 107t-12 93t-20 64.5q-55 100 -131 177 t-193 106h-8l-66 -68q-2 0 -2 -4zM135 262q0 -18 9.5 -36.5t29.5 -18.5q10 0 26.5 8t32 19.5t26.5 24.5t11 24q0 23 -22.5 40t-44.5 17q-27 0 -47.5 -27.5t-20.5 -50.5zM1214 1274q0 25 12.5 40t26 29.5t25.5 36t12 58.5v6q0 8 8 8q14 0 35 -16.5t39.5 -39t30.5 -45 t12 -36.5q0 -20 -9 -43t-25.5 -42.5t-37 -31.5t-43.5 -12q-12 0 -27.5 9t-27.5 22.5t-21.5 29t-9.5 27.5zM1255 1274q0 -18 17.5 -32.5t34.5 -14.5q27 0 51 29.5t24 54.5q0 8 -6 22.5t-15 27.5t-20.5 23.5t-21.5 10.5l-4 -9q0 -23 -9.5 -35t-20.5 -23t-20.5 -23.5 t-9.5 -30.5z" />
<glyph unicode="Y" horiz-adv-x="1558" d="M260 -244q0 -57 28.5 -97t75 -67.5t103.5 -43t115.5 -23.5t113 -10t92.5 -2q61 0 115.5 15t112.5 34q154 51 255 162.5t160.5 253t84 299t24.5 303.5q0 61 -2 132.5t-8 148.5t-19.5 154t-37.5 148q-23 70 -61 135.5t-90 116.5t-117.5 82t-143.5 31q-63 0 -100 -27.5 t-56.5 -59.5t-30 -59.5t-20.5 -27.5l-12 8q-78 92 -152 133t-176 41q-113 0 -204 -33t-155.5 -95t-100.5 -150.5t-36 -198.5q0 -84 21.5 -143.5t81.5 -108.5q20 -18 51 -33.5t57.5 -33t46 -40t19.5 -55.5v-29q-57 -80 -150 -108v-31q29 0 47.5 7.5t43.5 23.5 q98 59 145 152.5t47 207.5q0 39 -3 83t-24 79q-25 45 -69.5 74t-88.5 54.5t-76 57t-32 84.5q0 29 17.5 56.5t44 49t57.5 35t57 13.5q84 0 132.5 -49t72 -121t29.5 -150.5t6 -136.5v-8q0 -4 -1 -22.5t-3 -40t-3 -40t-1 -22.5q0 -23 -1 -87t-5.5 -135t-14.5 -130t-28 -72 q-27 -14 -57.5 -16t-59.5 -16q-33 -14 -81 -48t-93 -77t-77 -90.5t-32 -88.5v-4q8 0 8 -8h7q2 0 16 18.5t37.5 40t56.5 40t70 18.5q90 0 164.5 -50t130.5 -116q10 -10 16 -30.5t27 -20.5l3 1t5 1q6 4 21.5 17.5t32 27.5t31.5 27.5t21 17.5l9 8q18 16 60 56t87 82t78 73 l33 31v8q-2 2 -4.5 5t-4.5 3h-8q-14 -12 -31.5 -28.5t-34 -29.5t-30.5 -23.5t-25 -10.5h-12q-51 43 -99 87t-116 63q-29 8 -56.5 13t-27.5 28q0 14 31 34.5t70.5 42t79.5 41t61 31.5q41 37 64.5 84t34.5 101.5t14.5 116t3.5 124.5q0 70 -13.5 138.5t-13.5 135.5q0 27 6 54.5 t18.5 50t33 37t48.5 14.5q33 0 53.5 -29.5t34 -73.5t19.5 -95.5t8 -95.5t2 -73q0 -27 0 -24v-191q0 -10 2 -45.5t3 -77.5t3 -79t2 -45v-185v-108t-1 -96.5t-3 -97.5t-6 -111q-8 -23 -8 -50q0 -10 1 -18t1 -18q0 -145 -69.5 -252t-213.5 -135h-198q-8 0 -30 4t-45.5 9 t-41.5 11t-18 12q0 2 1 3l1 1q37 4 72.5 14.5t63 30t45 49t17.5 74.5q0 41 -21.5 73t-55 52.5t-72.5 30.5t-74 10q-37 0 -74 -11t-67.5 -33.5t-49 -54.5t-18.5 -73zM344 -244q0 18 14.5 33.5t34 28t41 19.5t35.5 7t37.5 -7t44 -18.5t36 -26.5t15.5 -32q0 -29 -18.5 -46 t-44 -26.5t-53 -13.5t-48.5 -4h-28q-16 16 -41 38.5t-25 47.5zM385 -242q0 -10 7 -19t15.5 -18.5t16.5 -16.5t10 -9h4q8 0 28.5 3t41 10t36 18.5t15.5 25.5q0 27 -31.5 43.5t-54.5 16.5q-10 0 -25.5 -4.5t-30 -11.5t-23.5 -17.5t-9 -20.5zM1190 481v267q0 29 -2 102.5 t-5 155t-5 154.5t-4 102q-2 12 -5.5 30.5t-6.5 40t-5 43t-2 37.5q49 0 92 -48t79 -113.5t62.5 -132t41.5 -105.5l43 -373q0 -115 -12.5 -226.5t-42 -216t-80 -202.5t-124.5 -184q-10 -12 -19 -27.5t-32 -15.5q0 2 1 8t1 10q16 174 20.5 346t4.5 348zM1214 483 q0 -158 -4 -312.5t-4 -311.5q12 0 31.5 24.5t38 55t32 57.5l15.5 31q18 43 32.5 76.5t24 60t15.5 49.5t10 45q10 49 16 90t10.5 78t6.5 75t2 83q0 78 -5 171t-24.5 189t-58.5 189.5t-105 171.5q-8 10 -23.5 25.5t-17.5 15.5h-8q0 -217 8 -431.5t8 -431.5zM360 285v4 q0 14 16.5 25.5t40 19.5t47 12t38.5 4q72 0 125 -30.5t106 -77.5q6 -4 12.5 -10.5t6.5 -10.5l-2 -4q0 -2 -14.5 -14.5t-33 -26.5t-34 -26.5t-17.5 -14.5h-16q-113 113 -275 150zM442 301q53 -25 105.5 -54.5t95.5 -70.5l49 41v4q0 18 -23.5 36.5t-55 34t-63.5 25t-48 9.5 q-14 0 -32 -7.5t-28 -17.5zM608 606v64q0 82 5 163.5t5 163.5v19q0 55 -2 113.5t-10 114.5t-27.5 109.5t-52.5 98.5q2 10 17 10q39 0 74.5 -20.5t66.5 -48t53.5 -55t36.5 -42.5q10 -10 23.5 -12t19.5 -14q4 -66 14.5 -124.5t10.5 -123.5q0 -76 -5.5 -132t-25.5 -103.5 t-61 -89.5t-115 -91l-17 -8q-10 0 -10 8zM643 997q0 -86 -5 -171t-5 -171q61 0 97 42t55.5 96.5t25.5 106.5t6 75v45q0 59 -10 116.5t-14 116.5q-25 2 -41.5 14.5t-30.5 30t-26.5 36t-26.5 36.5q-14 6 -32 16.5t-28 16.5v-17q0 -35 11.5 -70.5t15.5 -70.5q6 -74 7 -126 t1 -122zM94 1063v49q4 8 7 15.5t12 11.5q39 -20 82 -45t77.5 -55.5t57 -70.5t22.5 -91v-19q0 -23 -4 -46.5t-20 -23.5q-8 0 -9 3q-43 16 -83.5 42.5t-72.5 61.5t-50.5 78t-18.5 90zM117 1079q0 -41 21.5 -85t53 -80.5t67.5 -60.5t63 -24q0 70 -17.5 114t-77.5 87 q-8 6 -22.5 14.5t-28.5 15.5t-25.5 13t-13.5 6h-20z" />
<glyph unicode="Z" horiz-adv-x="1474" d="M178 -6q16 -55 25.5 -113.5t32.5 -111.5q35 -80 95 -130.5t134 -78t155.5 -37.5t159.5 -10q117 0 238 27.5t217 94t157.5 177t61.5 276.5q0 100 -27.5 177t-80.5 159q0 4 -14.5 19.5t-35 33t-41 35.5t-32.5 29q-12 8 -50 26.5t-80 37t-76 32.5t-36 18q10 16 49 21.5 t68 13.5q61 12 112.5 49t89 87.5t59 110.5t21.5 120q0 123 -57 214t-147.5 151.5t-201 90t-216.5 29.5q-96 0 -193.5 -25.5t-176.5 -80t-128 -135t-49 -191.5q0 -8 5 -16.5t15 -8.5q6 0 11.5 18.5t11.5 44.5t11 53.5t11 43.5q20 51 56.5 91t82.5 68t97 42t104 14 q96 0 163 -31.5t109 -87t60.5 -130t18.5 -160.5q0 -205 -68 -292t-203 -87q-18 0 -52 3t-65.5 12t-55 27.5t-23.5 47.5q0 23 22.5 33t49 24.5t49 42t22.5 88.5q0 57 -36 97t-93 40q-80 0 -138.5 -52t-58.5 -134q0 -57 34 -103t75 -79t75 -52.5t34 -23.5v-4q-2 0 -4.5 -3 t-4.5 -5t-12 -6t-21.5 -10.5t-21.5 -10.5t-12 -6q-74 -41 -121 -123t-47 -168h20q18 66 50 123t78 100t104.5 69t132.5 26q27 0 65.5 -1t65.5 -10q63 -18 103 -66t63.5 -108.5t33 -126t9.5 -120.5l-43 -490q-4 -37 -21.5 -65.5t-45 -49t-60.5 -32t-66 -11.5q-88 0 -132 32 t-63.5 82t-24.5 111.5t-15 124t-37 117t-90 88.5q-29 16 -60.5 29.5t-66.5 13.5q-92 0 -146.5 -24.5t-84 -70.5t-38 -111.5t-8.5 -149.5h23v80q0 41 8 77t26.5 59.5t53.5 23.5q16 0 29.5 -9.5t23.5 -23.5zM1081 193v90q-2 27 -9 59.5t-15 65t-14.5 63.5t-6.5 55 q55 0 115.5 -44t112 -108.5t84 -135t32.5 -125.5q0 -66 -18.5 -130.5t-52 -122t-78.5 -106.5t-101 -84q-12 -10 -37.5 -22.5t-45.5 -12.5q0 141 17 279t17 279zM252 47q0 20 16 21q20 0 44 -11.5t40 -21.5q51 -29 81 -73t44.5 -95t17.5 -107.5t3 -109.5q-53 0 -98.5 45 t-78 107.5t-51 130t-18.5 114.5zM1108 193q0 -125 -14.5 -249t-14.5 -249h27l8 6t19.5 13t21.5 15.5t16 14.5q37 31 70 75t58.5 93t40 100t14.5 101q0 51 -32 113.5t-75 115.5t-88 90t-72 37q0 -70 10.5 -137t10.5 -139zM293 14q0 -33 13 -86t37 -103t56.5 -87t71.5 -37 q0 106 -38 193.5t-138 132.5q-2 -2 -2 -7v-6zM1032 905v289q0 63 -27.5 121.5t-56.5 111.5h25q25 0 80 -30.5t111.5 -80.5t99.5 -116.5t43 -136.5q0 -47 -29 -100.5t-74 -100.5t-97 -77.5t-101 -30.5v10q2 14 5 34.5l6 41t5 34.5l2 15zM1057 881q-14 -16 -16.5 -41t-2.5 -45 q35 0 76 31.5t76 75.5t58.5 91t23.5 78q0 33 -24.5 82t-61.5 93t-79 76t-77 32q0 -35 13.5 -66t13.5 -69v-338zM401 895q0 59 30 93t91 34q35 0 57.5 -28.5t22.5 -63.5t-21.5 -48.5t-51 -17.5t-59.5 -3t-44 -7h-8q-2 4 -8.5 17.5t-8.5 17.5v6zM434 934q0 -23 5 -35t46 -12h9 q23 0 49 6t26 37q0 25 -14 46t-41 21q-29 0 -43 -13t-37 -38v-12zM940 1444q6 0 6 -8t-6 -9q-6 0 -6 9q0 8 6 8z" />
<glyph unicode="a" horiz-adv-x="968" d="M543 1104q-12 -8 -31.5 -21.5t-42.5 -29t-45.5 -28.5t-38.5 -21q-55 -27 -118.5 -50.5t-119 -57.5t-91.5 -82t-36 -124v-416q0 -39 16.5 -80.5t44.5 -79.5t61.5 -68t68.5 -44h8q2 0 22.5 18.5t49 43t57.5 49t45 39.5q20 16 44 40.5t52 24.5q8 0 27 -32.5t45.5 -71.5 t60 -72t70.5 -33q2 0 11.5 1t13.5 1q23 27 62.5 58.5t78.5 64.5t67.5 61.5t28.5 49.5q-23 0 -39 -9.5t-38 -9.5q-12 0 -24.5 10.5t-23 24.5t-16.5 29.5t-6 25.5v11q0 25 2 90t3 137t2 137.5t1 89.5q8 25 25.5 39.5t36 23.5t33 15t14.5 12q0 14 -9 19q-102 39 -179 89 t-161 126h-32zM483 946v8q10 6 31 19.5t37 13.5h8q37 -29 77 -55.5t81 -50.5l24 -17v-622q16 -23 17 -45q0 -10 -9.5 -22.5t-21.5 -23t-24.5 -19.5t-18.5 -13q-20 16 -40.5 36.5t-35.5 45.5l-37 73v582q0 14 -13 24.5t-30.5 19.5t-31 19.5t-13.5 26.5zM86 389q0 57 -2 135 t12.5 147.5t52 119t115.5 49.5v-615q2 -4 7 -16t5 -16l3 -5q0 -2 -1 -3l-2 -1l-57 -57q0 -2 -8 -2q-14 0 -22.5 12.5t-18.5 22.5q-47 51 -65.5 104t-18.5 125zM111 391q0 -14 7 -50t19.5 -73t30.5 -65.5t43 -28.5q8 0 16.5 4t8.5 15v600q-53 0 -78 -37t-34 -92.5t-10 -120 t-3 -119.5v-33zM543 938l41 -41q4 -4 8 -10l4 -6v-580q0 -6 9 -27.5t22.5 -43t30 -39t28.5 -17.5q8 0 19.5 3t11.5 16v645q0 2 -10.5 8t-14.5 10q-10 6 -31.5 21.5t-46 32t-45 28.5t-26.5 12v-12zM348 922h4q20 -16 46 -34t48.5 -38.5t39 -44t16.5 -49.5v-389 q0 -23 -7.5 -47.5t-21.5 -46t-34.5 -35t-47.5 -13.5q-20 0 -37.5 22.5t-17.5 45.5v620l8 9h4z" />
<glyph unicode="b" horiz-adv-x="944" d="M18 260q0 -20 30 -29.5t63 -31.5q23 -12 65.5 -45t87.5 -67t81 -60.5t44 -26.5h12q45 41 95.5 68.5t102.5 49t106.5 41t109.5 48.5q45 33 66.5 80t31 99t9.5 106q0 55 2 104v57q0 53 -1 102.5t-10.5 96.5t-28 91t-53.5 85q-8 8 -17 22.5t-20.5 29t-24.5 23.5t-30 9 q-6 0 -36.5 -20.5t-73.5 -50t-91.5 -63.5t-86.5 -58h-9l-16 16v192q0 72 5 134.5t29.5 108.5t75 74t140.5 30l8 12l-8 12q-10 0 -42 1t-42 1q-43 0 -91 -2t-94.5 -11t-90.5 -25.5t-80 -45.5q-27 -27 -56.5 -53.5t-42.5 -38.5h-8q-10 6 -22.5 28.5t-24.5 45t-24.5 41 t-24.5 18.5h-4q-8 0 -9 -8v-4q0 -12 9.5 -29.5t20.5 -35t21.5 -35t14.5 -29.5q8 -29 16.5 -75t8.5 -75v-802q0 -23 -14.5 -39.5t-32 -27.5t-32 -20.5t-14.5 -17.5zM356 1376q12 0 13 -16q0 -16 -9 -35v-1026q0 -12 16.5 -28.5t37 -35t41 -35t30.5 -26.5q-12 -16 -41.5 -33.5 t-50.5 -17.5q-6 0 -41 23.5t-72.5 51t-69.5 50.5l-32 24v971l24 21q23 20 54 43.5t59.5 44t36.5 24.5h4zM211 1227v-936q0 -4 22.5 -17.5t34.5 -25.5q12 -8 27.5 -21.5t33 -27t34 -23.5t30.5 -10h8q10 0 18.5 2t8.5 10l-2 4q-18 29 -48 45.5t-46 44.5v1045 q-18 -6 -32.5 -18.5t-28 -27t-28 -26.5t-32.5 -18zM535 897q10 0 25 -1t15 -9l17 -33v-522l-8 -84q0 -6 -6.5 -7t-10.5 -1h-8q-18 16 -40.5 34.5t-43 37t-35 34.5t-14.5 27v473q0 12 13.5 22.5t31.5 16.5t36 9t28 3zM657 252v4q0 27 1 81t2.5 121.5t2.5 142.5t2 142.5t2 121 t1 79.5q10 14 28.5 28.5t36.5 14.5q12 0 17.5 -6t15.5 -20q37 -43 54.5 -87.5t24.5 -92.5t7 -105v-125q0 -41 -7 -94.5t-27.5 -101.5t-56.5 -81.5t-93 -33.5q-2 0 -5.5 3t-5.5 5v4zM729 944h-4q-2 0 -11 -6t-14 -10l-8 -8v-631q8 0 17.5 2t15.5 8q68 59 85 130t17 153 q0 63 -2 111t-10 88t-25.5 77t-48.5 78l-8 8h-4z" />
<glyph unicode="c" horiz-adv-x="786" d="M20 287q12 -49 43 -89t71 -73t85 -59.5t82 -51.5q10 -6 14 -7t11 -1h10q12 0 35.5 15.5t54.5 37t65.5 46t67.5 42.5q8 4 42 21.5t71 38t65.5 41t28.5 31.5q0 18 -16 18q-39 0 -77 -17.5t-79 -17.5q-66 0 -115 24.5t-81.5 66.5t-48 97.5t-15.5 116.5q0 14 1 51t2 84.5 t3 96.5t5 90t7 67.5t8 26.5h9q8 0 26.5 -48t40 -105.5t44 -105.5t38.5 -48q6 0 8 2l232 106q6 4 7 12.5t1 12.5v8q-35 76 -69.5 153t-63.5 154h-25l-413 -125q-61 -18 -96.5 -54t-52.5 -83t-21.5 -101t-4.5 -110v-182v-182zM86 449v20q4 78 8 167t17 165q4 20 20 43.5t39 43 t47.5 33t46.5 13.5h4q8 0 8 -8v-4q0 -88 -4 -174t-4 -175v-137q16 -88 56.5 -146.5t126.5 -92.5l2 -4q0 -8 -14.5 -20.5t-35 -24t-42 -19.5t-33.5 -8q-4 0 -9.5 1t-7.5 1q-55 31 -97 60.5t-70.5 65.5t-43 84t-14.5 116zM121 354q10 -23 34.5 -56.5t55.5 -65t62.5 -54 t58.5 -22.5q10 0 24.5 12t20.5 20q-47 39 -90 97.5t-43 126.5v477q-37 0 -61.5 -30t-39 -72t-20.5 -88t-6 -78q0 -63 -2 -129t6 -138zM475 975v8q0 14 8 16l84 25q6 2 20.5 -22.5t28 -57.5t24.5 -62.5t11 -37.5t-2 -10l-92 -41q-6 0 -16.5 19t-20.5 48t-22.5 60.5 t-22.5 54.5zM516 971l43 -121q2 -8 16 -8q10 0 21.5 2t11.5 14q0 10 -6 31.5t-15 42t-18.5 36t-17.5 15.5h-8q-10 0 -18.5 -2t-8.5 -10z" />
<glyph unicode="d" horiz-adv-x="935" d="M20 225v-6q0 -12 9 -14q55 -23 101 -38t88 -35.5t83 -49.5t84 -76h25q35 41 78.5 77t95.5 56q55 20 109.5 32.5t98.5 34t74.5 60.5t40.5 113q6 55 7 115.5t1 117.5q0 121 -12 208t-39.5 150.5t-71.5 108.5t-106.5 83t-145.5 74t-188 79q-29 12 -60.5 34.5t-31.5 57.5 q0 27 16.5 41t39 21.5t49 9.5t47.5 2h22q2 2 5 4t3 4l2 4q0 4 -7 12t-11 8h-131q-41 0 -80 -26.5t-69.5 -65.5t-49 -83t-18.5 -81q0 -59 26.5 -105t69.5 -80t94 -57.5t101 -39.5q18 -10 18 -25q0 -18 -15.5 -29.5t-36 -17.5t-41 -8t-32.5 -2q-35 0 -66.5 4t-64.5 4h-8 q-8 0 -16.5 -1t-8.5 -7v-580q0 -12 -9 -23t-22.5 -21.5t-26.5 -18.5t-20 -12v-13zM170 817h186v-528q0 -6 12.5 -17.5t31 -25t39 -26.5t38.5 -23v-4q0 -6 -11 -16.5t-24.5 -18.5t-28 -14.5t-20.5 -6.5q-2 0 -4 1t-4 1q-49 37 -100.5 60.5t-106.5 46.5l-8 8v563zM195 270 q29 -6 56.5 -20t55 -29.5t54 -27t51.5 -11.5q0 14 -12.5 23.5t-28 17.5t-27.5 17.5t-12 21.5v531h-137v-523zM442 952q68 0 100.5 -42t45 -106.5t12.5 -141.5v-150v-174q-4 -12 -4 -27q0 -6 1 -11t1 -11q0 -16 -4 -29.5t-19 -13.5h-8q-16 12 -39.5 26.5t-46 28.5t-39 27.5 t-16.5 25.5v588q0 8 6 9t10 1zM162 1253v4q4 23 12 40.5t12 17.5l4 2l14 -9q13 -10 28.5 -22t31 -23.5t21.5 -13.5q90 -37 188 -76.5t180 -97t135.5 -139.5t53.5 -201v-291q0 -27 -12.5 -58.5t-32 -59t-46 -46t-55.5 -18.5h-20l-17 615q-2 51 -38.5 83.5t-87 54t-103.5 35 t-86 25.5q-23 8 -54.5 25.5t-60 42t-48 52t-19.5 58.5zM201 1245q0 -20 20.5 -42.5t48 -43t55 -37t44.5 -22.5q33 -12 86 -25.5t103 -35t87 -54.5t39 -84l16 -596l4 -1q3 -1 5 -1q45 0 67.5 39t31.5 88t9 96v64q0 162 -34.5 260t-104.5 162.5t-174.5 109.5t-243.5 103 q-14 4 -29.5 13t-27.5 19q0 -2 -1 -6t-1 -6z" />
<glyph unicode="e" horiz-adv-x="802" d="M20 571v-28q0 -82 3.5 -144.5t21.5 -115t57 -100.5t109 -101q12 -8 29.5 -20.5t36 -24.5t37 -20.5t34.5 -8.5h12q68 41 130.5 92.5t134.5 89.5q45 25 85 42.5t72 56.5v4q0 10 -7 12t-13 2q-18 0 -39 -7t-44.5 -14t-49 -14.5t-51.5 -7.5q-33 0 -77 17.5t-83 47t-65.5 66.5 t-26.5 74q0 18 33.5 44t85 54.5t109.5 56t109.5 53t85 45t33.5 32.5q0 6 -14 36.5t-35.5 73.5t-48.5 91.5t-50.5 88t-41 66.5t-23.5 27q-12 0 -16 -1t-7 -3.5t-8.5 -5.5t-19.5 -9q-10 -4 -51 -18.5t-87 -31.5t-86 -31.5t-50 -18.5q-84 -31 -129 -74t-65.5 -98t-25 -124 t-4.5 -151zM86 569q0 49 4 95.5t16.5 89.5t37 80.5t67.5 68.5q4 4 13 9.5t12 7.5h8l8 -9v-28q0 -66 -4 -131.5t-4 -130.5v-60q0 -49 4 -101t23.5 -100.5t59.5 -88.5t111 -64q8 0 9 -8v-4q0 -6 -15.5 -19.5t-35 -27t-37 -23.5t-23.5 -10q-20 0 -31.5 9t-32.5 26 q-59 45 -94 79.5t-54 72.5t-27.5 88t-14.5 124v55zM111 569v-30q8 -84 22 -137.5t35.5 -91.5t53.5 -68.5t79 -67.5q12 -10 17.5 -14t17.5 -4q10 0 29.5 8t19.5 22q0 4 -22.5 25.5t-51 50.5t-54.5 58.5t-30 52.5q0 6 -2 59t-4 127t-4 156t-2 143q-31 0 -51.5 -38t-32.5 -87 t-16 -97.5t-4 -66.5zM311 563q-2 6 -2 31v31q0 27 1 81t5 109t10.5 98t18.5 48q20 -16 46 -58.5t48.5 -89.5t39 -90t16.5 -61q0 -14 -20.5 -33t-48.5 -36.5t-54.5 -28.5t-38.5 -11q-6 0 -12.5 1t-8.5 9zM451 989v12q8 4 21 8.5t25.5 8.5t20.5 7l8 3q10 0 32 -32.5 t44.5 -74.5t39.5 -81t17 -52q0 -2 -1 -6l-1 -4l-86 -43q-6 0 -25.5 36t-41 81t-37.5 86t-16 51zM492 969q0 -8 5 -21.5t12 -28t14 -28.5t12 -23l40 -82h9q8 0 20 5.5t12 15.5q0 6 -13 34.5t-30.5 60.5t-36 57.5t-26.5 25.5q-18 0 -18 -16z" />
<glyph unicode="f" horiz-adv-x="679" d="M195 152l92 -566q0 -6 6 -7t10 -1q18 0 24.5 23.5t8.5 33.5l65 433q35 92 50.5 185t21.5 185t10 182.5t19 178.5q8 31 29.5 38t50.5 7q16 0 32.5 -2t28.5 -2l16 16v117q0 10 -34.5 17t-88 17.5t-114 26t-113.5 42t-88 67.5t-35 102q0 18 11.5 34.5t33.5 16.5 q23 0 41.5 -17t42 -37.5t55 -38t79.5 -17.5q57 0 91.5 25.5t54 65.5t26 88t6.5 93v29q-2 12 -5 35l-4 22h-24q-2 -16 -3 -36.5t-4 -38t-8.5 -30t-15.5 -12.5q-25 0 -46 18.5t-41.5 40t-42 40t-48.5 18.5h-106q-4 0 -17.5 -6t-17.5 -10q-35 -29 -56.5 -66t-33 -76.5 t-15.5 -84t-4 -87.5q0 -37 1 -71.5t1 -69.5v-26q-2 -47 -20.5 -77t-40 -50.5t-39 -34t-17.5 -25.5v-6q0 -6 1.5 -12t7.5 -6h92q8 -2 10 -20.5t6 -35.5l41 -422q0 -8 -1 -14t-1 -14q0 -45 7.5 -91t11.5 -87zM295 -49l-100 962v9q0 6 3 18t5 27.5t5 28t3 18.5h8 q45 -16 78 -30.5t80 -27.5q8 -2 40 -7t67.5 -10t63 -10t27.5 -7v-9h-51q-31 0 -57.5 -8t-30.5 -41l-51 -456q-31 -109 -46 -228t-28 -229h-16zM227 913l76 -780q14 35 20.5 73t11.5 75.5t10 75.5t15 75l50 490q-43 2 -86 22.5t-84 20.5q-8 0 -10.5 -11.5t-2.5 -21.5v-19z M244 1370v4q0 29 29.5 57.5t54.5 38.5h4q23 0 45 -16t45.5 -36.5t49.5 -40t54 -23.5v-4q0 -12 -8 -26.5t-19.5 -26t-24.5 -19.5t-25 -8q-31 0 -49.5 14t-37 32.5t-45 35t-73.5 18.5zM303 1395q25 -4 43.5 -18.5t34.5 -31t31.5 -29.5t31.5 -13q8 0 16.5 6t8.5 16 q0 4 -18.5 21.5t-42 36t-45 33t-27.5 14.5q-4 0 -19.5 -7.5t-15.5 -23.5l1 -1t1 -3z" />
<glyph unicode="g" horiz-adv-x="968" d="M53 -313q72 -90 175.5 -120t213.5 -30q82 0 170 23.5t161 72t120 119t47 164.5q0 55 -18.5 96t-40 80t-40 80t-18.5 94v8q0 27 3 92.5t5.5 139.5t5.5 139.5t3 91.5q10 49 30.5 73t77.5 28v8q0 6 -34.5 27.5t-81 48t-93.5 53t-73 45.5q-14 10 -31 28.5t-34 36t-34.5 30.5 t-34.5 13q-12 0 -29.5 -12t-35.5 -29.5t-35.5 -34t-30.5 -24.5q-4 -2 -20 -11t-36.5 -19.5t-39 -20.5t-29.5 -14q-35 -18 -74.5 -28.5t-74.5 -27t-59.5 -47.5t-30.5 -88q0 -18 -1 -56t-3 -87t-4 -101.5t-4 -101.5t-3.5 -87t-1.5 -56v-4q0 -72 24 -124.5t77 -95.5 q12 -10 32.5 -34.5t41.5 -24.5q25 0 64.5 31.5t83.5 68.5t86 69t71 32q14 0 18 -11q6 -61 21.5 -107t44.5 -99q12 -23 28.5 -44.5t29.5 -44t23.5 -47t10.5 -53.5q0 -49 -26.5 -88t-67.5 -65.5t-89.5 -41t-91.5 -14.5h-24q-29 0 -60.5 5.5t-48.5 27.5q12 23 33 30t39 16 t31.5 27.5t13.5 63.5q0 80 -51 113t-123 33t-123 -38t-51 -116q0 -10 7 -30.5t9 -30.5zM119 -244q12 20 38.5 46t57.5 26q33 0 57.5 -22.5t24.5 -57.5q0 -45 -33 -62.5t-71 -17.5q-12 0 -25.5 9.5t-24 23.5t-17.5 28.5t-7 26.5zM160 -258v-8q0 -16 8 -24.5t39 -8.5 q16 0 39.5 6t23.5 33q0 20 -15 37.5t-36 17.5q-59 0 -59 -53zM467 950q0 6 8 14.5t18.5 15.5t19.5 14t13 10h9l17 -12q17 -11 44 -29.5t58.5 -41t58 -41t44 -31.5t17.5 -15v-7q0 -141 -8 -281t-8 -282v-43q0 -29 1 -60.5t7 -51.5q6 -25 23.5 -47.5t34 -44t29.5 -44t13 -51.5 q0 -14 -11 -44t-27.5 -59.5t-36 -52t-33.5 -22.5h-8q2 10 2 18v19q0 76 -25 130t-55.5 100t-55 94.5t-24.5 111.5v629q0 2 -17.5 15t-39 29.5t-42 32t-26.5 23.5v4zM516 958q0 -14 15.5 -26t35 -23.5t34.5 -20.5t15 -18v-628q0 -59 25 -108.5t54.5 -97.5t54 -97.5 t24.5 -110.5v-18q23 16 41.5 50t18.5 62q0 25 -12.5 45.5t-29 39t-30.5 36.5t-21 41q-6 23 -7 59.5t-1 71.5v45q0 123 4 245t4 245v71q-31 20 -66.5 45t-68.5 45.5t-57.5 33.5t-32.5 13zM94 274v238v96t14.5 115.5t49.5 97.5t106 41h4q8 -4 8 -8v-680q0 -6 -8 -14t-20 -16.5 t-23.5 -13.5t-17.5 -5q-25 0 -45.5 15.5t-34.5 39t-22.5 49t-10.5 45.5zM121 299q0 -14 6 -37.5t17.5 -47.5t27.5 -40t35 -16h4q4 4 16.5 16t16.5 16q6 160 8 316t2 315q-47 0 -73.5 -24.5t-40 -61.5t-16.5 -79t-3 -78v-31q0 -2 -1 -16.5t-1 -34.5v-41v-31v-25v-39 q0 -18 1 -36.5t1 -24.5zM344 279v4q0 14 1 65t3 119t4 141.5t4 136t5.5 103.5t7.5 41q6 0 29.5 -14.5t50 -34t49 -37t28.5 -23.5v-182q0 -18 -2 -61t-3 -92.5t-2 -93.5t-1 -60q-4 -12 -19.5 -26.5t-34 -28t-37.5 -21.5t-30 -8q-29 0 -41 23.5t-12 48.5z" />
<glyph unicode="h" horiz-adv-x="952" d="M301 -426q0 -10 7 -11t14 -1q18 0 39.5 8t42 20.5t39 24.5t32.5 20q121 72 207 142.5t141.5 163t82 217.5t26.5 307v356q-4 74 -31 134.5t-78 113.5q-6 6 -15 16.5t-18.5 19.5t-16.5 16l-7 7h-16l-248 -192q-4 -2 -16.5 -7t-18.5 -9h-4q-10 0 -14.5 14t-6.5 20v197 q0 68 6.5 125t31 101t72.5 72t132 34v8q-2 4 -5 9t-3 9h-64q-68 0 -138.5 -10t-135 -37.5t-117.5 -75t-88 -118.5h-4q-10 4 -22.5 30.5t-26.5 57t-29.5 55.5t-30.5 25v-27q57 -100 83 -216t26 -230v-615q0 -41 -17.5 -62.5t-37 -33.5t-37 -20.5t-17.5 -20.5q0 -6 14.5 -15.5 t33 -19.5t38 -19.5t31.5 -15.5q10 -6 30.5 -28.5t42 -45t41 -41t30.5 -18.5q8 0 34.5 19.5t60.5 47t70.5 57.5t63.5 50q18 16 26.5 20.5t8.5 30.5h-78q-12 0 -22.5 19.5t-10.5 32.5v14q0 31 2 108.5t3 164.5t2 165t1 109q16 20 40 38.5t53 18.5h8q23 -12 41 -34.5t18 -51.5 q0 -4 -1 -6t-1 -6v-430q0 -66 -1 -131.5t-7 -134.5q-6 -10 -7 -20.5t-1 -20.5v-41q-8 -117 -50 -215.5t-141 -167.5q-8 -6 -23.5 -12.5t-30.5 -14.5t-26.5 -18.5t-11.5 -24.5zM668 555v315q-2 6 -5.5 29t-5.5 29v8q4 8 17.5 18.5t28 19.5t27.5 17t20 13q43 -35 66.5 -77 t34.5 -88t13 -96.5t2 -101.5v-76q0 -70 -3 -153.5t-15 -166.5t-38 -156t-69 -122q-8 -10 -22 -23.5t-27.5 -26.5t-23.5 -23l-11 -9h-8q0 168 9.5 335t9.5 335zM692 920v-76q0 -225 -5 -440.5t-5 -438.5q10 0 20.5 11.5t14.5 15.5q45 53 70.5 128t38 156.5t14.5 164.5t2 153 v61q0 37 -2 80t-10.5 84t-28 77t-51.5 58h-5q-12 0 -30.5 -15t-22.5 -19zM186 227v6q0 4 3.5 23.5t5.5 26.5v753q-4 35 -6.5 64.5t-2.5 64.5v21q0 2 11.5 12t13.5 12q20 27 35.5 51.5t34 46t43 40t61.5 36.5l8 -8q-2 -10 -5 -62t-5 -130t-5 -174.5t-5 -197.5t-3 -200.5 t-1 -179.5v-233q-10 -10 -32 -34t-44 -24h-8q-10 8 -26.5 22.5t-32 28t-28.5 23.5l-12 10v2zM219 1061v-819q0 -4 11.5 -13.5t24.5 -19.5t25 -19l13 -8h6q10 0 22.5 11.5t14.5 23.5q0 37 1 117t3 179t4 208.5t4 209t3 178.5t1 118v92q-31 0 -48 -23.5t-30.5 -51t-28 -51.5 t-34.5 -24v-8q0 -6 1 -20.5t3 -30.5t3 -29.5t1 -19.5z" />
<glyph unicode="i" horiz-adv-x="612" d="M119 268q0 -12 3 -31.5t8 -41t13.5 -41t18.5 -29.5l106 -109q8 -6 15.5 -7t15.5 -1q12 0 47 25.5t78 60.5t86 74t74 63l8 9q0 4 1 14t1 14q-23 0 -42.5 -10t-43.5 -10q-29 0 -42 21.5t-18.5 50t-5.5 57.5v45v373q8 33 27.5 50t40 26.5t35 15.5t14.5 16q0 4 -19.5 19.5 t-44 32t-47 29.5t-30.5 17l-119 109q-12 0 -31.5 -12.5t-40 -29.5t-38 -33.5t-27.5 -24.5q-20 -16 -55 -45t-58.5 -48.5t-28.5 -21.5v-35q16 0 31 9.5t31 9.5q33 0 41 -25t14 -51v-90q0 -90 -4 -178.5t-4 -176.5v-59q-8 -8 -9 -14.5t-1 -16.5zM289 985h4q25 -25 58.5 -45 t33.5 -41v-4l-2 -33t-3 -78t-3 -94t-2 -82q0 -102 5 -201.5t5 -199.5v-8q-6 -6 -16.5 -18.5t-22.5 -23t-24.5 -18.5t-24.5 -8q-2 -4 -16.5 6t-32 28.5t-31.5 40t-14 42.5v672q0 2 13 13t28.5 22.5t29 20.5t15.5 9zM227 272q2 -4 8.5 -20t8.5 -21l8 -16q8 -10 24 -25l17 -16 h18l41 41v109q0 33 -2 114.5t-3 174t-2 175t-1 115.5q-16 4 -28.5 18.5t-26.5 14.5q-12 0 -28.5 -11.5t-24.5 -21.5q0 -23 -2.5 -76t-3.5 -114.5t-2 -115.5t-1 -75v-125v-125zM160 1348q0 -14 3 -43t10 -57.5t19.5 -50t30.5 -21.5h13q92 20 154.5 60t62.5 118q0 61 -40 99 t-102 38q-70 0 -110.5 -36.5t-40.5 -106.5zM236 1346l57 61h26l50 -57q0 -8 -12.5 -21.5t-29 -26t-31.5 -20.5t-22 -8q-25 0 -31.5 27t-6.5 45zM305 1366q-16 0 -26.5 -14.5t-10.5 -28.5q12 0 31.5 4t19.5 21q0 18 -14 18z" />
<glyph unicode="j" horiz-adv-x="612" d="M154 -248q-8 -33 -31 -58.5t-46.5 -48t-42 -41t-18.5 -36.5q111 0 207 47t170 129q2 2 7.5 11t12.5 19.5t14 18.5t11 8h4q2 0 14.5 -34.5t27 -76.5t28.5 -77t23 -35h4q12 0 12 16v25q-29 70 -50.5 142.5t-25.5 148.5v373q0 27 2 96.5t3 147t2 146t1 97.5q6 45 24.5 66.5 t37 31t33 14.5t14.5 17v12l-82 41q-18 8 -48 36t-60.5 56.5t-55 51t-33.5 22.5q-2 0 -24.5 -16.5t-55 -42t-70.5 -55t-71 -57t-54.5 -49t-21.5 -30.5q25 0 47.5 9.5t47.5 9.5h10q29 -27 41 -44.5t16 -56.5v-337q0 -27 -2 -81.5t-4 -123t-5 -144t-6 -144.5t-5 -123t-2 -81z M240 223l4 631q-4 16 -6 31.5t-2 32.5q0 8 9 20t21.5 22.5t24.5 18.5t20 8l3 -1t5 -1q31 -31 51.5 -47t33 -25.5t17.5 -13.5t5 -12v-4q0 -10 -2 -25.5t-6 -19.5q0 -31 -1 -93.5t-3 -142.5t-4 -167t-4.5 -167t-3.5 -142.5t-1 -92.5v-148l-13 -10q-13 -10 -28.5 -23.5 t-28 -27.5t-12.5 -23q-10 -10 -29.5 -26.5t-31.5 -26.5t-14 -12h-17v33q0 25 2 90t4.5 137t4.5 137t2 90zM260 199v-389h4q18 0 30.5 13t23 29.5t21.5 31t30 18.5q2 27 4 95.5t5 144t5 144t2 95.5v498q-10 12 -35.5 34.5t-42.5 22.5h-6q-4 -2 -19.5 -10t-15.5 -15v-680z M203 1368q0 -96 57 -176h29q39 0 76.5 14.5t68.5 39t49.5 58t18.5 74.5q0 59 -45 98.5t-105 39.5q-70 0 -109.5 -41t-39.5 -107zM285 1370v12q4 6 20.5 22.5t22.5 20.5h14q27 0 42 -14t34 -37v-4q0 -14 -12.5 -27.5t-28 -23.5t-32.5 -19.5t-26 -15.5q-23 10 -28.5 38 t-5.5 48zM317 1362q0 -20 21 -21q31 0 31 29q0 23 -21 23q-4 0 -17.5 -13.5t-13.5 -17.5z" />
<glyph unicode="k" horiz-adv-x="720" d="M20 240q0 -6 19.5 -21.5t47.5 -36t59.5 -42t56.5 -40.5q10 -10 22.5 -26.5t25.5 -33.5t27.5 -29.5t28.5 -12.5q2 0 6 1t6 1q80 66 153 137.5t155 136.5q14 0 23 15.5t9 25.5q0 16 -12 17q-16 0 -31.5 -12.5t-33 -25.5t-36 -25.5t-42.5 -12.5q-37 0 -61.5 27.5t-24.5 64.5 v457q0 10 8 29.5t27 19.5h223l8 8l3 26q3 25 5 40v30q0 16 -3 31t-13 15h-207q-4 0 -21.5 3t-21.5 13v29q0 33 9 72.5t22.5 74.5t32 57.5t36.5 22.5h11q0 -18 1 -46t9 -52.5t23.5 -42t45.5 -17.5q31 0 47.5 15.5t24.5 37t10 45t2 39.5q0 41 -28.5 73t-73.5 32 q-29 0 -49.5 -12.5t-37.5 -31t-33.5 -39t-35.5 -34.5l-8 8q0 4 -1 20.5t-1 22.5q0 51 15.5 84t42 51.5t63.5 24.5t78 6h31q14 0 30 -2q8 2 8 15v14q0 12 -8 14h-80q-78 0 -140 -8t-116.5 -28.5t-104.5 -56.5t-106 -91q-12 0 -16 10l-59 115h-21q0 -23 8.5 -43.5t18.5 -40 t20 -40t17 -42.5q6 -29 7 -67t1 -68q0 -72 -23.5 -137.5t-77.5 -116.5v-29h101v-543q0 -23 -15.5 -32t-35 -13t-35 -10t-15.5 -20zM186 236v4q0 12 1 53t1 94t2.5 113.5t2.5 113.5q0 55 1 95.5t1 52.5v133q-4 10 -14.5 19.5t-10.5 17.5v4q10 53 17.5 134t7.5 157 q4 6 27.5 28.5t49 48t49 45t27.5 19.5h4q2 -2 5 -4t3 -4v-406q0 -10 13 -10q12 0 20 -8l2 -2q0 -8 -7 -12t-14 -9.5t-14.5 -14.5t-7.5 -28v-587q2 -4 5 -17.5t3 -17.5v-6q0 -6 -1 -24.5t-6 -38t-14 -34t-24 -14.5q-2 0 -18 12.5t-36.5 28.5t-40 30.5t-25.5 20.5l-9 8v5z M219 920v-672q2 -4 14.5 -12.5t29 -18.5t30.5 -20.5t18 -14.5h8q2 2 5.5 8.5t3.5 8.5v159q0 240 4 475.5t4 477.5l-100 -92l-17 -9l-1 -24q-1 -25 -2 -59.5t-3 -70.5t-2 -61v-43q0 -8 1 -15t7 -17z" />
<glyph unicode="l" horiz-adv-x="655" d="M20 215q43 -25 76 -49.5t63.5 -50t61.5 -56t66 -67.5h8q2 0 8 3t8 5q27 25 80 61.5t105.5 74.5t92.5 70t40 44v10q-31 0 -55.5 -14.5t-57.5 -14.5q-31 0 -47 22.5t-16 53.5v922q10 23 11 57.5t5 50.5q6 39 18.5 61.5t32 36t48 20.5t67.5 13v29q-111 0 -207 -21.5 t-184 -89.5q-8 -6 -21.5 -21t-28 -30.5t-26.5 -28t-18 -12.5q-14 0 -24.5 26t-22 55.5t-27 55t-39.5 25.5v-20q25 -45 38 -83t21 -73t13.5 -69.5t11.5 -73.5v-764q0 -43 -9.5 -81t-25.5 -38h-66v-39zM219 1229q20 20 43 44.5t45.5 46t45 36t44.5 14.5q0 -18 -2 -37.5 t-10 -38.5q0 -37 -1 -130t-2 -197.5t-3 -197.5t-2 -130v-348q6 -27 8 -45.5t2 -42.5q0 -10 -9 -23.5t-21.5 -26t-27 -20.5t-26.5 -8h-8q-18 18 -28.5 29.5t-19.5 18.5t-21.5 16.5t-30.5 25.5l-9 8v989l9 9q4 2 12 5t12 3zM211 258v-8q2 -4 14.5 -16.5t26.5 -25.5t29.5 -24.5 t25.5 -11.5q14 0 29.5 9t15.5 26v1089q-25 0 -39 -15t-27.5 -33.5t-28.5 -35t-38 -16.5v-109q0 -72 -1 -161.5t-2 -190t-2 -191.5t-2 -163t-1 -107v-16z" />
<glyph unicode="m" horiz-adv-x="1542" d="M733 39q4 -10 11.5 -25.5t23.5 -15.5q12 0 22.5 10t21.5 23.5t20.5 28t17.5 20.5q12 12 37.5 26.5t50.5 27.5t43 25.5t18 18.5v12q0 12 -10 20.5t-23.5 17t-23.5 19.5t-10 27v7q4 49 6 93t3 88t1 89v98q0 47 -1 88t-1 58q0 20 11.5 36.5t27.5 28.5t35.5 19.5t38.5 7.5 q29 0 41 -19.5t15 -48t1 -61.5t-2 -60q0 -111 -5 -218t-5 -218q0 -86 50 -153.5t116 -112.5l40 30q39 31 86.5 70t88.5 74t43 43q2 4 2 12v8h-76q-10 0 -16.5 10.5t-10.5 23t-6 23.5t-2 15v514q0 23 13.5 34t28.5 17.5t28.5 13.5t13.5 23q-14 -2 -51 30t-78 69.5t-73.5 70.5 t-37.5 33q-18 0 -18 -2t-16 -14q-59 -55 -113.5 -98.5t-126.5 -94.5q-2 0 -8 -3t-8 -5h-6q-6 0 -21.5 35t-39 78t-53.5 77.5t-63 34.5h-10q-6 -4 -19.5 -15t-29.5 -22.5t-29.5 -22.5t-19.5 -16q-6 -4 -34 -25.5t-59.5 -45t-61 -43t-40.5 -19.5q-10 0 -17 15.5t-13.5 36 t-12.5 40t-12 25.5l-29.5 29.5t-37 33t-40 26.5t-38.5 11h-13l-248 -239q0 -18 17 -19q16 0 22.5 9.5t26.5 9.5t33.5 -11.5t20.5 -28t10.5 -35.5t3.5 -36v-49q0 -25 -2 -84t-3.5 -126.5t-2.5 -127t-1 -84.5q-10 -35 -33.5 -61.5t-50.5 -46.5v-4q0 -6 12.5 -14.5t29 -17.5 t33 -17.5t26.5 -12.5q12 -8 31.5 -28.5t38 -42t33 -38t18.5 -16.5l12 8q14 20 25.5 37t23.5 31t27.5 27.5t38.5 29.5q8 6 24.5 11.5t33.5 12.5t29.5 16t12.5 24q0 23 -17.5 35t-23.5 34v25q0 18 -1 38.5t-1 39.5v24q0 82 3 203t7 234q8 25 39 50t55 25q25 0 37.5 -14 t18.5 -34.5t7 -43t1 -37.5q0 -106 -4 -211.5t-4 -212.5v-69l-11 -11q-10 -12 -22 -26t-23.5 -28.5t-11.5 -16.5q0 -16 8 -25.5t20.5 -15.5t25 -12.5t22.5 -14.5l19.5 -19.5l29.5 -29.5t29.5 -30.5t19.5 -20.5zM1174 918l65 59q18 0 48 -27.5t52 -56.5v-80t1 -120.5t2 -142.5 t2.5 -143.5t2.5 -122t1 -79.5v-8l-84 -74q-12 0 -27.5 20.5t-30 46t-23.5 48t-9 26.5v654zM700 213v705q0 14 12.5 28.5t27 26.5t27.5 20l13 8q10 0 24.5 -15t27 -35.5t22.5 -42t12 -31.5v-416q0 -63 -1 -128t-7 -120q-6 -6 -16.5 -17.5t-22.5 -21.5t-25.5 -18.5t-23.5 -8.5 h-4zM211 217q0 139 4 276.5t4 276.5v107q-2 6 -8 25.5t-8 25.5v8l8 8q8 6 20.5 17.5t24.5 22.5t22 18l9 8h16q14 0 30.5 -17.5t30 -43t23.5 -54.5t14 -51v-240q0 -20 -1 -72.5t-2 -111t-3 -110.5t-2 -72q-6 -10 -21.5 -20.5t-31.5 -21t-31.5 -18.5t-21.5 -14h-8 q-2 0 -25 15.5t-35 25.5l-8 8v4zM1198 289q2 -10 9 -29.5t16.5 -39t20.5 -34t26 -14.5l45 41v655l-66 60q-14 0 -24.5 -8.5t-18.5 -18.5q0 -25 -2 -88t-3 -134t-2 -135.5t-1 -88.5v-84v-82zM725 238l33 -41q2 0 5 -1t7 -1q37 0 52.5 29.5t19.5 71.5t2 88t-2 79v389 q-2 8 -8.5 24.5t-14.5 34t-18 29.5t-21 12q-10 0 -32.5 -9t-22.5 -25v-680zM295 961q-12 0 -31.5 -13.5t-19.5 -29.5v-689q0 -10 14 -13t25 -3q16 0 45.5 18.5t40.5 32.5q0 20 2 71.5t3 110t2 110.5t1 73v190q-6 23 -13.5 47.5t-16.5 46t-21.5 35t-30.5 13.5z" />
<glyph unicode="n" horiz-adv-x="1101" d="M70 195q0 -16 16 -23.5t27 -13.5q14 -10 43.5 -38t59.5 -58.5t52 -53.5l21 -24l14 8q31 31 55.5 59.5t49 51t52 41t66.5 30.5q2 2 4 8t5 8v5q0 10 -10.5 15t-23 9t-22.5 10.5t-10 18.5v565q0 16 11.5 31.5t27.5 27t34.5 18.5t32.5 7q12 0 30 -3t20 -24l8 -92v-61 q0 -39 -1 -90.5t-2 -108.5t-2 -108.5t-2 -92.5t-1 -59v-41q0 -33 12 -65.5t31.5 -62.5t43 -57.5t46.5 -47.5h8q45 18 80 51t69 65q14 6 43 23.5t56.5 39t48 45t20.5 44.5q-23 0 -40 -10.5t-39 -10.5q-10 0 -32 5.5t-24 21.5l-8 66l8 454q2 39 34 57.5t67 18.5v20q0 6 -9 13 q-66 49 -127 98t-114 117l-3 1t-5 1q-10 0 -34 -15.5t-50.5 -36t-52 -39t-38.5 -26.5q-6 -4 -22 -16.5t-34.5 -25.5t-35 -25.5t-22.5 -16.5h-8q-14 0 -21.5 10.5t-11.5 23.5t-7 27.5t-12 22.5l-49 49q-8 6 -23.5 17.5t-33 22.5t-31.5 19.5t-20 8.5q-16 0 -43 -18.5 t-54.5 -43t-53 -48t-40.5 -33.5q-35 -25 -55.5 -41.5t-20.5 -42.5q20 0 37 9t35 9q41 0 56.5 -27.5t15.5 -62.5v-473q0 -43 -14.5 -63.5t-32 -32t-31.5 -18.5t-14 -23zM772 971h10l101 -107q0 -156 -4.5 -291t-4.5 -286v-105q-14 -18 -44.5 -42.5t-55.5 -24.5 q-10 0 -23.5 14t-24.5 33.5t-18.5 39t-7.5 29.5v689q0 6 8.5 15t20.5 17.5t24.5 13.5t18.5 5zM227 199v671q-2 6 -4 29t-4 29v6q0 8 8.5 17.5t20.5 17.5t23.5 13t17.5 5q18 0 36.5 -11t34 -28.5t24.5 -38t9 -39.5v-655l-8 -8q-12 -8 -32.5 -24.5t-34 -28t-15.5 -13.5h-18z M725 258q2 -8 9 -24.5t15.5 -34t16.5 -29.5t12 -12h4q16 8 32.5 24.5t27.5 16.5l8 8v647q0 8 -9.5 21.5t-22.5 25.5t-26.5 20.5t-21.5 8.5l-4 -2q-6 0 -17.5 -10.5t-15.5 -14.5q0 -20 -2 -70.5t-3 -107.5t-2 -107.5t-1 -70.5v-146v-143zM295 946q-10 0 -26.5 -8t-16.5 -18 v-697q0 -2 13.5 -15t19.5 -18h18q6 4 28.5 20.5t28.5 20.5l9 9v606q0 35 -24.5 60.5t-49.5 39.5z" />
<glyph unicode="o" horiz-adv-x="919" d="M20 240q117 -49 211.5 -102.5t186.5 -137.5h8q12 0 22.5 11.5t21.5 26.5t20.5 30.5t19.5 23.5q25 20 51.5 32.5t54 21t57 14.5t60.5 14q55 14 89 46t51.5 75t22.5 93t5 101q0 35 -1 69t-1 65v172q-12 98 -51 162.5t-115 127.5q-12 10 -20 18.5t-27 8.5q-12 0 -35.5 -13.5 t-50.5 -30.5t-51.5 -33.5t-38.5 -22.5q-96 -41 -196.5 -52.5t-200.5 -15.5l-11 -16v-572q0 -35 -13 -50t-28.5 -21t-29 -11.5t-13.5 -21.5l1 -5t1 -7zM178 283v596h162v-555q0 -20 15.5 -39t36 -34t43 -28.5t34.5 -23.5v-9q0 -16 -23.5 -33.5t-35.5 -17.5l-4 1q-3 1 -5 1 q-4 2 -14 10.5t-22.5 15.5t-22.5 14t-14 9q-8 6 -34 18.5t-53.5 28t-49 27.5t-21.5 19h8zM203 854v-555l31 -19q30 -18 67 -38.5t71 -38t40 -17.5q0 18 -15.5 29.5t-33 22t-33 24.5t-15.5 37v555h-112zM600 948v4q4 4 31.5 22.5t44.5 29.5h4q12 0 27.5 -16.5t25.5 -26.5 q37 -43 57.5 -85t29.5 -88.5t11.5 -96.5t2.5 -107v-43q0 -39 -3.5 -79t-13.5 -77t-31.5 -67.5t-60.5 -53.5q-4 -2 -26.5 -13t-30.5 -11t-9 8v473q0 25 -5 58.5t-12 66.5t-18.5 59.5t-23.5 38.5v4zM410 920l16 16q61 -12 94 -50t49.5 -87t19.5 -104.5t3 -102.5q0 -29 1 -85 t-2 -111.5t-10.5 -97.5t-21.5 -42q-12 0 -36.5 15.5t-50.5 37t-44 44t-18 36.5v531zM649 934q0 -47 17.5 -93t17.5 -96v-458q20 0 41 20q61 51 72.5 120t11.5 142v15q0 55 -2 101t-12.5 89t-30 82t-55.5 80l-12.5 15t-16.5 3q-12 0 -21.5 -3t-9.5 -17z" />
<glyph unicode="p" horiz-adv-x="1044" d="M117 223q51 0 74.5 -23.5t32.5 -59.5t11.5 -78t8.5 -78q2 -12 7 -50t11 -86.5t16.5 -102.5t22.5 -98t28.5 -74t35.5 -30q20 0 39.5 39t35 98.5t28.5 128t23.5 128t17.5 98.5t11 39h6q8 0 21.5 -13.5t28 -29t28.5 -28.5t27 -13l12 10q12 25 21.5 42t19.5 32.5t23.5 32 t33.5 34.5q16 14 61.5 30.5t92.5 36t84 44t37 55.5q0 6 2 20.5t3 32t2 33t1 21.5v448q-6 31 -20.5 74t-33 84t-35.5 69.5t-28 28.5h-33q-70 -55 -148.5 -116.5t-166.5 -90.5h-4q-6 0 -14.5 26t-18.5 58.5t-23.5 64.5t-29.5 42q-6 4 -41 15t-74 26.5t-70.5 35t-31.5 40.5 q0 37 25.5 46t56.5 13t56.5 12t25.5 39q-66 0 -125.5 -18.5t-105.5 -54t-72.5 -90t-26.5 -126.5q0 -47 19.5 -74.5t43 -47t45 -37t25.5 -43.5v-150q0 -12 -1 -41t-2 -62.5t-3 -62t-2 -41.5q-4 -6 -34 -24.5t-64.5 -49t-63.5 -70.5t-29 -89v-125l13 -8l12 8q2 47 12.5 73.5 t59.5 26.5zM344 -158l-57 381q-4 25 -19.5 39t-36 22.5t-43 10.5t-43.5 2v6q0 20 21.5 37.5t46.5 31t45.5 24t20.5 18.5q0 12 1 40.5t2 62.5t3 62.5t2 41.5v282q-6 27 -24.5 43.5t-40 31.5t-38 34.5t-16.5 50.5q0 16 4 36.5t27 20.5q33 0 74.5 -16.5t80.5 -43t69 -59 t38 -65.5q4 -92 7 -188.5t3 -192.5q0 -43 -1 -84t-1 -82q6 -47 43 -82t79 -60.5t75.5 -44t33.5 -32.5q0 -2 -11 -17.5t-25.5 -33t-27.5 -31.5t-18 -14h-10q-8 4 -32.5 20.5t-32.5 20.5q-6 6 -15.5 17t-20.5 22.5t-23.5 19.5t-22.5 8h-8q-16 -96 -34 -188t-42 -184 q0 -4 -3 -10.5t-5 -8.5h-9zM209 328q0 -4 14.5 -8.5t32.5 -13.5t34.5 -23.5t20.5 -34.5l49 -332h9l16 51l41 264q2 2 4 5.5t4 3.5h10l131 -109q10 -6 15.5 -7t15.5 -1q16 0 30.5 12t14.5 29q0 12 -32.5 30.5t-70.5 43t-71 55.5t-33 69v158q0 98 -2 197.5t-8 193.5 q-20 74 -66 100.5t-116 49.5q-14 4 -26.5 11t-28.5 7q0 -31 16 -48t36.5 -31.5t39 -30t22.5 -41.5v-166v-98q0 -43 -1 -86t-3 -88.5t-4 -100.5q-14 -25 -45 -33t-49 -28zM774 281q0 35 -2 121.5t-5 185t-5 185.5t-4 122v10q0 10 13 24.5t30.5 27t36 21.5t28.5 9 q35 0 54.5 -44t27.5 -99.5t9 -107.5t1 -70q0 -29 2.5 -63t2.5 -71q0 -47 -5.5 -93t-22.5 -83t-50 -60.5t-86 -23.5h-6q-4 0 -10.5 1.5t-8.5 7.5zM543 414q0 20 -1 74.5t-3 116t-3 114.5t-1 76v10q0 43 30.5 63.5t69.5 20.5q31 0 45 -35t19.5 -83t3 -98t-2.5 -83v-275 q-4 -16 -16 -26q-18 12 -39.5 26.5t-42 30.5t-37 34t-22.5 34zM791 846q0 -10 1 -28.5t1 -22.5v-58q0 -41 1 -95t2 -113.5t3 -109.5t5 -82t9 -32q41 0 65.5 24.5t37 61.5t16.5 82t4 88q0 33 -1 59.5t-1 45.5q0 18 -2 59t-9.5 86t-20.5 84t-36 49h-4q-41 0 -56 -33.5 t-15 -64.5z" />
<glyph unicode="q" horiz-adv-x="968" d="M518 217q6 -72 15.5 -136.5t21.5 -125.5t27.5 -122.5t33.5 -129.5q14 -47 20.5 -78t29.5 -71h14q12 0 23.5 17t20.5 40.5t16.5 47.5t9.5 36l81 389l17 745q0 20 16.5 28.5t35 12.5t33.5 11.5t15 25.5v4q-2 2 -4 5.5t-4 3.5q-111 37 -217.5 92t-187.5 141h-17 q-41 -45 -84 -77t-89 -57.5t-95 -47t-105 -43.5q-16 -6 -26 -11.5t-18.5 -12.5t-16.5 -17t-23 -25q-14 -16 -22 -60t-12 -94.5t-5.5 -97.5t-1.5 -69v-19q2 -96 3.5 -157.5t5.5 -104.5t15 -72.5t34 -62.5q2 -2 5 -8t3 -8l109 -101q10 -8 24 -8h8q27 25 61 56.5t69.5 63.5 t72.5 59.5t72 45.5h8q0 -8 8 -8zM588 895q-6 2 -26.5 12.5t-41 22.5t-37 24.5t-16.5 20.5v4q2 0 9 6t16.5 15.5t18.5 16.5t15 11h9q10 -6 48 -26.5t80 -44t75.5 -44t35.5 -26.5v-244q0 -109 -4 -211t-13 -203.5t-24.5 -205t-40.5 -213.5q-2 -2 -5 -8.5t-3 -8.5h-10 q-16 47 -31.5 104.5t-28 115t-19.5 106.5t-7 80v696zM612 911v-686q0 -23 6.5 -59.5t14.5 -77.5t17 -84t16 -78q4 -10 6 -18t8 -8q4 -2 13 36.5t19.5 93t18.5 112t10 91.5q0 14 1 76t2 138.5t3.5 150.5t2.5 115v149q0 2 -32 20.5t-71 40t-72.5 39t-39.5 17.5h-11 q0 -10 11.5 -19.5t25.5 -18.5t29.5 -17.5t21.5 -12.5zM94 440v107q0 49 1 100t14.5 97.5t46 82t96.5 52.5l24 8q8 0 9 -8v-605q0 -20 9 -34.5t17 -32.5v-4q0 -4 -12 -17.5t-28.5 -28t-32 -24.5t-19.5 -10q-27 0 -49.5 27.5t-38.5 63.5t-26.5 72t-10.5 54v100zM119 440 q0 -20 3 -64t14 -89t30.5 -79t52.5 -34h8q8 6 20.5 18.5t12.5 14.5v635q-47 0 -75.5 -29t-44 -73t-19.5 -96t-4 -99q0 -33 1 -60t1 -45zM352 340v27q0 20 -1 41.5t-1 40.5v28q0 94 5 186.5t5 186.5v53q0 8 9 8h4q8 0 27.5 -10t41 -23.5t40 -27.5t28.5 -21l8 -8v-481 q0 -35 -20.5 -63.5t-57.5 -28.5q-39 0 -61.5 28.5t-26.5 63.5z" />
<glyph unicode="r" horiz-adv-x="952" d="M303 117l123 -109q16 0 25 8l217 183q6 2 31.5 20.5t53 40t50 43t22.5 33.5q0 20 -16 20q-18 0 -34.5 -13t-36 -28.5t-46 -29t-63.5 -13.5q-29 0 -51.5 13.5t-40 35t-26.5 48t-9 53.5v416l57 49q23 0 46.5 -39t45 -86t43 -86t39.5 -39h8l191 201l1 8t1 12t-19.5 48 t-47 95.5t-58.5 93.5t-51 42q-4 0 -25.5 -20.5t-50.5 -49.5l-58.5 -58.5t-48.5 -47.5q-4 -4 -23.5 -20.5t-25.5 -20.5h-8q-6 0 -22.5 34.5t-43 76.5t-63.5 77t-82 35h-4q-35 -29 -84 -71t-93 -81t-75 -68.5t-31 -35.5v-29q27 0 46.5 14.5t44.5 14.5t46 -19.5t21 -48.5v-463 q0 -23 -12 -38t-29.5 -26t-38 -17.5t-37.5 -10.5v-12q0 -10 20.5 -22.5t48.5 -23.5t55.5 -21.5t41.5 -18.5q18 -12 35.5 -26.5t40.5 -22.5zM244 272q0 16 8 35v223q0 20 -1 70.5t-2 108t-3 107.5t-2 71q-2 4 -8.5 20.5t-8.5 20.5v16q10 12 25.5 26.5t30 27t24.5 21.5t12 9h5 q14 0 32.5 -16.5t34 -38t25.5 -44t10 -34.5v-348l-16 -17v-133q12 -4 19 -23.5t13.5 -42t13.5 -46t19 -37.5l20.5 -20.5t22.5 -20.5v-4q0 -6 -11 -18.5t-25.5 -25t-29 -20.5t-22.5 -8l-20 15q-19 14 -43.5 32.5t-46 33.5t-27.5 19t-27.5 14.5t-21.5 26.5zM285 281 q4 -6 25.5 -21.5t46 -33t48 -31t31.5 -13.5q10 0 17.5 7.5t7.5 17.5q0 8 -2 8q-12 23 -20.5 38t-14.5 30.5t-11 34t-12 47.5l-16 16v166l16 16v307q0 12 -7 31t-18 36t-25.5 29.5t-28.5 12.5h-7q-4 0 -4 -2l-43 -47v-10q2 -37 4 -127.5t5.5 -192.5t5.5 -192t2 -127zM674 911 q0 8 2 9l65 65l3 1q4 1 6 1q6 0 19 -17.5t26.5 -37t23.5 -36.5t12 -17l-73 -84h-4q-8 0 -21.5 14t-27 34.5t-22.5 39t-9 28.5zM717 907v-4q0 -2 4 -11t10 -20.5t12.5 -19.5t10.5 -8q16 10 22 15t6 18q0 16 -11 32.5t-21 26.5h-9q-4 -4 -13 -12.5t-11 -12.5v-4z" />
<glyph unicode="s" horiz-adv-x="935" d="M70 182q111 -27 221 -68.5t203 -113.5l3 -1t5 -1q4 0 14 10t22.5 25.5t24.5 31t21 27.5q31 33 87 77t110.5 94t94 103.5t39.5 106.5v148q0 37 -28.5 64.5t-62 48t-62.5 36.5t-29 29v12q66 59 103.5 133t37.5 162q0 82 -33.5 145.5t-90 107.5t-128 67.5t-147.5 23.5 q-53 0 -110.5 -21.5t-104.5 -58.5t-76.5 -87t-29.5 -107q0 -16 16 -17q6 0 13 15.5t15.5 35t15.5 39t13 27.5q59 70 125 97.5t154 27.5q47 0 99 -14.5t95 -43t72 -70.5t29 -97t-44 -94.5t-98 -39.5q-39 0 -77.5 11.5t-71.5 31.5q-6 4 -16.5 13.5t-21.5 19.5t-20.5 18.5 t-15.5 8.5q-8 0 -28.5 -21.5t-46 -52.5t-53 -61.5t-48.5 -48.5q-45 -41 -88 -75t-77 -73t-54.5 -87t-20.5 -114q0 -55 29 -97t62.5 -71.5t62.5 -48t29 -26.5v-4q-2 -4 -4 -9.5t-4 -7.5l-117 -133q-8 -10 -8 -25v-8zM227 223v8q0 12 10.5 28.5t21.5 31t21 23.5l9 10 q23 0 60.5 -14.5t75.5 -35t71.5 -43t46.5 -41.5q-4 -4 -16.5 -20t-16.5 -20l-25 -25q-2 0 -3 -1l-1 -1q-2 0 -3 1l-1 1q-59 31 -121.5 56.5t-128.5 41.5zM285 240q47 -14 93 -33t89 -41h6q12 0 12 16q0 10 -21.5 27.5t-50 34t-56 28t-40.5 11.5q-33 0 -32 -39v-4zM311 406 q-6 4 -13 12t-5 8q0 25 22.5 50.5t55 47t70.5 35.5t69 14q45 0 79 -25.5t56.5 -64.5t34.5 -83t12 -83q0 -10 -1 -25.5t-5 -30.5t-11 -26.5t-20 -11.5h-6q-59 72 -154.5 118.5t-183.5 64.5zM674 612q0 8 25.5 30t41.5 38h4q16 0 34 -14.5t31 -35t22.5 -43t9.5 -36.5 q0 -12 -6.5 -35.5t-15.5 -48.5t-22.5 -43t-27.5 -18h-4l-4 9q-4 9 -9 23.5t-11.5 30.5t-8.5 29l-41 82q-8 8 -13 18t-5 14zM723 600q0 -31 22.5 -65.5t32.5 -63.5q8 0 15.5 10.5t12.5 24.5t8 26.5t3 18.5q0 8 -7 21.5t-18.5 26.5t-22.5 22.5t-19 9.5q-12 0 -19.5 -9.5 t-7.5 -21.5zM102 621q0 18 8.5 41.5t18.5 46t22.5 38t18.5 15.5h8q2 -12 17.5 -43t32 -63.5t29.5 -58.5l13 -26q0 -20 -21.5 -49.5t-37.5 -40.5q-37 16 -73 56.5t-36 83.5zM135 625q0 -29 19.5 -49.5t40.5 -36.5h8q12 10 19 15t7 17q0 2 -9 19.5t-21.5 39t-23.5 39t-13 19.5 q-16 -10 -21.5 -28.5t-5.5 -34.5zM252 838v6q0 18 5 43.5t30 25.5q6 0 30.5 -16t54 -36.5t59.5 -40t46 -25.5q29 -10 60.5 -14.5t64.5 -4.5q16 0 32.5 1t33.5 1l8 -12q0 -16 -22.5 -36.5t-28.5 -24.5q-47 -41 -85 -67t-102 -26q-41 0 -74.5 21.5t-58 54.5t-39 73t-14.5 77z M401 961l41 43h13q31 0 63.5 -8.5t56.5 -26.5h160q0 -25 -15 -45.5t-35.5 -37t-41 -25.5t-31.5 -9q-29 0 -60.5 11t-61 25.5t-53 30t-36.5 25.5v17zM457 971q0 -18 19.5 -35.5t46 -30t54 -20.5t41.5 -8t29 24.5t15 38.5h-111q-14 20 -42.5 25.5t-51.5 5.5z" />
<glyph unicode="t" horiz-adv-x="704" d="M29 231q0 -6 17 -15t40 -18.5t47.5 -19.5t36.5 -20q12 -8 35.5 -33t48.5 -50.5t46.5 -46t31.5 -20.5h4q45 39 84 73t78 64.5t77.5 61.5t83.5 67q2 2 4.5 11.5t4.5 13.5v8l-13 8q-14 0 -26.5 -8t-24.5 -17t-25.5 -17.5t-29.5 -8.5q-37 0 -55.5 16.5t-25.5 44t-8 63.5 t-1 77q0 86 3 183t7 198q4 4 12 10t13 6h182q4 35 6 57.5t2 53.5v22q0 4 -3 8.5t-5 4.5h-191l-16 20v442q-16 0 -34.5 -32.5t-37 -75.5t-35 -85t-26.5 -58q-35 -59 -63.5 -106.5t-58.5 -84.5t-64.5 -63.5t-79.5 -44.5q-35 -14 -43.5 -20.5t-8.5 -35.5v-10h136l16 -16v-66 q0 -12 -3 -61t-6 -104.5t-5 -104.5t-2 -62v-100q-4 -37 -24.5 -54.5t-43.5 -25.5t-40 -12.5t-17 -16.5zM219 250q0 152 9.5 297t9.5 293q0 20 -1 39.5t-1 40.5q45 43 82.5 95t66.5 105h12v-157q8 -8 15.5 -17.5t7.5 -13.5l-6 -8q-6 -9 -13 -13q0 -14 -2 -50t-3 -77t-2 -77.5 t-1 -51.5v-381q10 -20 14.5 -33.5t4.5 -29.5q0 -6 -8.5 -17.5t-20.5 -20.5t-24.5 -16t-18.5 -7t-25.5 12t-41 29.5t-38 34t-16.5 24.5zM252 352v-96l88 -66h4q6 4 15.5 13.5t9.5 11.5v805q-29 -23 -50.5 -53.5t-50.5 -55.5q-8 -152 -12 -284t-4 -275z" />
<glyph unicode="u" d="M53 227q0 -8 12.5 -17t28 -16.5t28.5 -12.5t15 -7q14 -8 46 -34.5t62.5 -56.5t54.5 -53l24 -22q6 0 30.5 19.5t53 45t57.5 50t45 35.5l74 49q10 8 17 16t20 8q2 0 21.5 -33.5t49 -73.5t67.5 -74t77 -34q6 0 31.5 19.5t61.5 48.5t77 61.5t75 61.5q16 14 20.5 17t4.5 20 q0 23 -16 22q-16 0 -32 -13t-38 -13q-31 0 -46.5 32.5t-21.5 78.5t-5 94.5t1 76.5q0 70 4 137.5t4 139.5v47q8 29 24.5 42t33 20t30 12.5t13.5 15.5t-8 16q-68 41 -118 86t-108 105h-16q-49 -51 -109.5 -102.5t-130.5 -79.5v-13q0 -12 9.5 -21t20.5 -19.5t21.5 -22 t14.5 -23.5v-28q0 -18 1 -40t1 -42v-27q0 -90 -5 -176t-5 -174v-51q0 -35 -32 -55.5t-61 -20.5q-45 0 -57 43v143q0 100 5 199.5t5 200.5q0 76 -13 137t-71 114q-23 20 -41 36t-47 16q-2 0 -16 -11.5t-34.5 -28t-43 -36t-41.5 -33.5q-10 -10 -35.5 -29.5t-53.5 -40 t-48.5 -38t-20.5 -21.5q0 -10 7.5 -11t13.5 -1q14 0 24.5 4t24.5 4q35 0 50.5 -32t20.5 -75t3 -87t-2 -68q0 -72 -2 -142.5t-6 -142.5q-2 -45 -18.5 -65.5t-35 -29.5t-33 -13.5t-14.5 -12.5zM700 299v215q0 23 1 82t2.5 124.5t3.5 125t2 82.5q4 8 18 20.5t31.5 24.5t31 22.5 t17.5 14.5h8q6 0 25.5 -18.5t34 -34t16.5 -17.5v-6q0 -104 -4 -207.5t-4 -208.5v-96q0 -29 2 -63.5t5 -66.5t6 -54.5t3 -26.5q0 -29 -23.5 -50.5t-52.5 -21.5q-6 0 -17 8.5t-24.5 19.5t-27 24.5t-21.5 23.5q-16 16 -18.5 40t-14.5 44zM219 254q0 102 4 201.5t4 201.5 q0 70 -4 138.5t-4 136.5l100 88h9q14 0 28.5 -14.5t26.5 -35t19.5 -42t7.5 -33.5v-696l-9 -9q-10 -10 -28.5 -25t-36.5 -15h-8q-16 12 -35 27.5t-35 29.5t-27.5 24.5t-11.5 14.5v8zM725 324q8 -14 15.5 -38t17.5 -47.5t24.5 -41t36.5 -17.5q16 0 31.5 8.5t15.5 24.5v10 q-6 53 -8 93t-3 85t0 104.5t1 156.5v159q0 76 2 107l-8 8q-10 8 -24 18l-15 9l-78 -52l-1 -48t-2 -115.5t-3 -139t-2 -119.5v-83v-82zM328 971q-18 0 -47 -20.5t-29 -39.5v-655l8 -8q10 -6 38 -28.5t38 -29.5h8q4 4 16.5 12.5t16.5 12.5q0 27 2 92.5t3 140t2 140t1 92.5v190 q0 29 -21.5 62t-35.5 39z" />
<glyph unicode="v" horiz-adv-x="944" d="M37 262q0 -12 17.5 -24.5t41 -23.5t45 -19.5t29.5 -12.5q18 -10 55 -39.5t75 -61.5t68.5 -56.5t37.5 -24.5h4q59 63 119.5 105t138.5 77q66 31 113.5 39t79.5 36t47.5 98.5t15.5 224.5v213q0 61 -3 104t-18.5 79t-45.5 70.5t-83 79.5q-2 0 -6 1t-6 1q-18 0 -35.5 -10 t-35 -24.5t-36 -30.5t-39.5 -27q-8 -6 -28.5 -20.5t-44 -30.5t-46 -29.5t-30.5 -19.5h-8q-10 0 -16.5 16.5t-12.5 39t-12 44t-17 33.5q-18 23 -54 40t-69.5 33.5t-59 33t-25.5 38.5q0 25 14 38.5t38.5 20.5t56.5 9t65 2h10q0 2 1 6t1 6q0 20 -27 21q-61 0 -120.5 -15.5 t-106.5 -47t-76 -81t-29 -116.5q0 -27 7.5 -60.5t25.5 -52.5l92 -90v-266l-8 -17v-223q0 -23 -15.5 -33t-34.5 -16t-34.5 -13.5t-15.5 -23.5zM211 264v664q0 6 -17.5 17t-37 29.5t-37 42t-17.5 52.5q0 12 5.5 27.5t21.5 15.5q49 -16 93 -34.5t76 -44t51.5 -64.5t19.5 -97 q0 -100 -4.5 -199.5t-4.5 -199.5v-67q0 -25 1 -48.5t8 -50.5q4 -18 21.5 -32.5t36.5 -26.5t34.5 -24.5t15.5 -28.5q0 -6 -9 -17.5t-21.5 -21t-24.5 -16.5t-19 -7h-2q-25 4 -48 21.5t-47.5 38t-48 40t-46.5 31.5zM236 291q16 -10 37.5 -28.5t44 -36t45 -31t38.5 -13.5t17 13 v4q-23 18 -38 32.5t-24.5 29.5t-14.5 32.5t-5 46.5v588q0 27 -23.5 52.5t-56.5 44.5t-66.5 31.5t-54.5 12.5q0 -8 2 -17.5t8 -15.5l91 -92v-653zM426 481q0 96 4 193.5t12 195.5q43 49 107 50q23 0 37 -15.5t21 -40t10.5 -54.5t3.5 -56q0 -23 -1.5 -43.5t-1.5 -32.5v-23 q0 -23 -2 -42t-12 -42v-335q-12 0 -29.5 11t-38 27.5t-43 36t-42.5 37.5q-16 14 -20.5 38t-4.5 48v47zM676 283q0 6 -1 21t-1 34v33v22v53q0 29 2 57.5t8 51.5v129q0 66 -5 129.5t-5 128.5q0 8 8 20.5t20.5 22.5t25.5 18.5t22 8.5q29 0 49 -25.5t33.5 -62.5t19.5 -78t6 -72 v-127q0 -63 -2 -129.5t-17.5 -121t-50 -89.5t-102.5 -35h-2q-2 2 -5 5.5t-3 5.5zM754 971q-10 0 -27.5 -13.5t-17.5 -21.5v-614q57 0 83.5 46t36 110.5t7.5 133t-2 111.5q0 10 -4.5 50t-13.5 84t-24 79t-38 35z" />
<glyph unicode="w" horiz-adv-x="1441" d="M543 236v-5q6 -12 22.5 -22t34.5 -18.5t34.5 -14.5t24.5 -10q16 -8 54.5 -35t76 -56.5t69.5 -52t36 -22.5q10 0 39 31.5t57 60.5q25 23 59.5 41.5t63.5 32.5q61 27 117.5 40t99.5 43t68.5 94.5t25.5 195.5q0 53 -2 103t-2 87v166q-16 78 -61 129t-105 102q-2 2 -8 5.5 t-8 3.5l-4 2q-2 0 -13.5 -8.5t-26.5 -19.5t-32.5 -24.5t-32.5 -23.5q-10 -10 -34.5 -31.5t-52 -44t-54 -40t-45.5 -17.5h-4q-8 2 -23.5 35.5t-37 73.5t-52 74t-69.5 34q-12 0 -46 -23.5t-74 -55.5t-82 -63.5t-71 -50.5q-16 10 -23 21.5t-10 23t-6.5 21.5t-11.5 18 q-16 25 -49 51.5t-57 47.5q-16 12 -39 15t-44.5 6t-36.5 13.5t-15 40.5q0 27 16 41.5t39.5 21.5t50.5 9t47 2h14q0 2 1 6t1 6q0 16 -11 19.5t-25 3.5h-21q-55 0 -106.5 -18.5t-91 -51t-63.5 -80t-24 -104.5q0 -59 18.5 -98t63.5 -80q16 -14 25.5 -18.5t17.5 -22.5v-275 q0 -14 -1 -51t-3 -77t-3 -76.5t-1 -51.5q-2 -20 -13 -30.5t-27.5 -16.5t-35 -8t-32.5 -4v-12q0 -14 14 -25.5t34.5 -21t39 -16.5t28.5 -15q35 -29 66 -64.5t49 -76.5h16q8 8 27 26.5t40.5 40t39.5 41t27 25.5q8 8 26.5 16t37 17.5t31.5 19.5t13 25q0 12 -7 18t-17.5 11 t-19.5 10.5t-15 15.5q-10 25 -14.5 52.5t-4.5 55.5q0 111 5.5 201t5.5 191v57q0 39 31.5 63.5t68.5 24.5q31 0 45 -23.5t19.5 -57.5t4 -73t-1.5 -69q0 -98 -4 -200.5t-14 -213.5q-2 -10 -11 -18.5t-19.5 -15.5t-18.5 -14t-8 -15zM676 266v29q0 104 4 208.5t4 209.5v207 q-2 4 -5 16t-3 16v9q4 6 14 17t22.5 22.5t24 19.5t21.5 8h8q35 -25 63.5 -70t28.5 -88v-596q0 -20 16.5 -31.5t37 -18.5t37 -12t16.5 -13v-9l-66 -49l-5 -1t-9 -1q-10 0 -42 16.5t-67 38t-64.5 42t-35.5 30.5zM211 240v671q0 16 -18.5 31.5t-40 33t-40 39t-18.5 50.5 q0 10 7.5 28.5t23.5 18.5q16 -12 50 -17t69 -18q12 -4 34.5 -21.5t44 -39t38 -42t16.5 -30.5t2 -38.5t3 -60.5t2 -59.5t1 -40.5v-28q0 -106 -4 -207.5t-4 -210.5v-43q-6 -2 -18.5 -14.5t-27 -26.5t-26.5 -26.5t-18 -14.5h-11zM700 283q20 -10 46 -27.5t52.5 -35t52.5 -30 t46 -12.5q0 16 -10 22.5t-21.5 10.5t-21.5 11t-10 26v598q0 12 -6.5 34.5t-17.5 44t-25.5 38t-30.5 16.5q-25 0 -37 -27q0 -25 -1 -76t-3 -115.5t-4 -135t-4.5 -135t-3.5 -115.5t-1 -76v-8v-8zM236 266l45 -45l71 53q-2 16 -2 60v96q0 57 2 96t3 68t3 55.5t2 63.5v8 q0 12 -1 39.5t-3 59.5t-3 60.5t-1 39.5q0 8 -16.5 28.5t-38 43t-44 41t-34.5 20.5l-10 1q-10 1 -23.5 2t-27 3t-21.5 2h-8q4 -18 21.5 -35.5t36 -33t34 -30t15.5 -26.5v-670zM924 459q0 86 4 164.5t4 164.5v58q6 33 40 54.5t66 21.5q29 0 43.5 -21.5t19.5 -53.5t5 -71v-71 v-33q0 -6 -3 -35t-6 -60.5t-5 -60.5t-2 -35v-180q0 -10 -3.5 -28.5t-13.5 -24.5h-8q-51 27 -80 37t-42 20t-16 31.5t-3 71.5v51zM1163 283v106q0 90 5.5 178t5.5 178v142q-4 16 -7.5 31.5t-3.5 31.5t24.5 39t39.5 23h4q47 -41 78.5 -80t46.5 -103v-100q0 -35 2 -74t2 -80 q0 -51 -7 -100t-26.5 -90t-56.5 -69.5t-96 -41.5q-11 1 -11 9zM1198 952v-43q0 -150 -6 -295t-6 -295q49 0 77.5 30t44 74t20.5 97t5 103q0 2 1 28.5t0 64.5t-6 81t-17.5 79.5t-34 61.5t-53.5 25q-15 -1 -25 -11z" />
<glyph unicode="x" horiz-adv-x="1003" d="M20 -37q0 -86 35 -155.5t93.5 -118.5t133 -76t156.5 -27q59 0 126 12.5t123 43t93 80t37 122.5q0 43 -27.5 68t-68.5 25q-59 0 -85 -23t-36 -55.5t-13 -72.5t-15.5 -72.5t-44 -55.5t-97.5 -23q-59 0 -122.5 20.5t-117 57.5t-87 90.5t-33.5 118.5q0 80 53 134.5t133 54.5 q59 0 110.5 -33t86.5 -76q0 -2 4 -2q4 2 42 30.5t99 74t119.5 89.5t100.5 76.5t42 36.5q0 18 -18 19q-18 0 -34.5 -9.5t-35 -20.5t-40 -20.5t-50.5 -9.5q-23 0 -45.5 9.5t-42 25.5t-31.5 36.5t-12 45.5v432q0 23 26.5 49.5t49.5 26.5q29 0 52 -35t41.5 -78t34 -77.5 t29.5 -34.5h17l141 141q16 8 29.5 21.5t13.5 29.5t-16.5 49t-41 73t-50 82t-43.5 77h-9q-18 0 -52 -37t-72.5 -80t-76.5 -80t-61 -37q-12 0 -29.5 37t-45 80t-68.5 80t-101 37q-10 0 -18 -1t-14 -8l-250 -249v-31q14 0 25.5 6t21.5 13.5t21.5 13.5t27.5 6q43 0 66.5 -22.5 t36 -55.5t15.5 -73t3 -72v-39v-101q0 -53 -3 -100t-10.5 -82t-21.5 -45q-98 -66 -148.5 -146.5t-50.5 -189.5zM713 -156h4l10 -10t6 -8q0 -10 -8 -25.5t-20.5 -30t-25.5 -25.5t-22 -11q0 10 3.5 28.5t9.5 37t16.5 31.5t26.5 13zM236 184v4q0 10 9 18.5t21.5 15.5t22.5 15.5 t14 20.5q12 51 15.5 104.5t3.5 106.5q0 47 -1.5 92t-1.5 92v80q0 37 -3 75t-13 73q-4 8 -12 17t-16.5 19.5t-15.5 18.5t-7 14v4q4 6 13 16.5t20.5 23t25 22.5t25.5 14h8q90 -55 115.5 -129t25.5 -174q0 -78 -4 -158t-4 -159q0 -66 16.5 -114t67.5 -95q0 -6 -13 -18.5 t-28.5 -25t-29 -21.5t-13.5 -11h-8q-35 18 -60.5 29.5t-50 17.5t-54 8t-68.5 4zM328 209q43 -4 77.5 -23.5t55.5 -19.5q12 0 26.5 10t14.5 25q0 14 -8.5 28.5t-17.5 29.5t-16 31.5t-7 35.5v505q0 23 -10.5 44.5t-26 41t-32.5 36t-32 28.5h-12q-31 0 -31 -29q0 -23 11.5 -40 t15.5 -40q6 -47 7 -80.5t1 -70.5v-68q0 -111 -8 -219t-8 -217v-8zM741 915l60 66h16q4 0 12.5 -15.5t17.5 -34t15 -34.5l6 -16q0 -6 -7 -18.5t-16 -23t-20.5 -18.5t-19.5 -8q-6 0 -16.5 13.5t-20.5 30.5t-18.5 34.5t-8.5 23.5zM782 909l2 -4q2 -2 10.5 -17.5t18.5 -15.5 q12 0 12 17q0 10 -6 22.5t-18 12.5q-6 0 -12.5 -3.5t-6.5 -11.5z" />
<glyph unicode="y" horiz-adv-x="978" d="M334 -430q0 -16 22 -16h4q72 27 133.5 60.5t124.5 72.5q92 55 154 109t99.5 116.5t56 139.5t26 179.5t7.5 235.5v311q0 66 -7.5 131.5t-35.5 96.5l-84 84q-2 2 -7.5 10t-12.5 16t-14 15.5t-16 7.5h-8q-8 -4 -33.5 -20.5t-33.5 -20.5q-16 -12 -50 -39t-71 -55.5t-70 -50 t-45 -21.5h-4q-8 0 -8 8q-10 51 -27.5 87t-43 63.5t-61.5 49t-85 40.5q-2 2 -11.5 9t-20.5 16t-19.5 18.5t-8.5 19.5q0 35 31 46t67.5 15.5t67.5 9.5t31 29v7q-63 0 -128 -12.5t-116 -43t-84 -82t-33 -127.5q0 -47 13.5 -90t52.5 -71q16 -10 30.5 -20.5t20.5 -31.5v-315 q0 -14 -1 -49t-3 -75t-3 -74.5t-1 -49.5q-8 -18 -20.5 -28.5t-24.5 -18.5t-21.5 -16t-9.5 -23q0 -10 16.5 -23.5t40 -29.5t49 -34.5t44.5 -35.5q6 -4 18 -17t27.5 -27.5t28 -27l18.5 -18.5h8q16 0 25 8q63 59 123.5 118t134.5 106v37q-25 0 -45.5 -14.5t-42.5 -14.5 q-23 0 -33 24.5t-12 42.5v232q0 53 -3.5 118.5t4 122t31 95.5t74.5 39q23 0 36 -13.5t20.5 -33t9.5 -41t2 -37.5v-242q0 -29 -1 -103.5t-3 -157.5t-3.5 -158t-1.5 -103q-10 -94 -23 -158.5t-42 -113t-77 -87t-124 -82.5q-18 -10 -18 -24zM684 -31q0 29 2 103.5t3 157.5 t2 158t1 104v372q-2 8 -4 34t-4 34v14q0 8 10.5 19.5t23.5 22.5t26.5 19.5t19.5 8.5l4 -2q43 -27 68.5 -60.5t38 -73.5t15.5 -85t3 -90v-58q0 -98 -7 -209.5t-12 -204.5q-4 -123 -49 -221t-149 -168v33q0 27 1 45t7 47zM717 940v-147q0 -219 -4 -433.5t-4 -437.5 q20 0 34.5 20.5t24.5 34.5q59 86 75.5 194t16.5 218q0 41 -1 79t-1 75v22v17q0 16 1 36.5t1 38.5v33q0 57 -2 97t-10 71t-24.5 55.5t-47.5 51.5h-8q-33 0 -51 -25zM94 1081q0 12 7.5 35t23.5 23h4q37 -16 82 -37t84 -49.5t64.5 -66.5t25.5 -87v-682q0 -6 -11.5 -19.5 t-24.5 -25.5t-26.5 -21.5t-15.5 -9.5l-4 2q-4 2 -16.5 11.5t-25.5 20.5t-25.5 20.5t-16.5 13.5l-16 16v715q0 14 -17.5 28.5t-37 31t-37 36.5t-17.5 45zM131 1090q0 -25 15.5 -41.5t33 -30.5t32.5 -26.5t15 -26.5v-715l17 -17q4 -2 25.5 -21t37.5 -19q12 0 25.5 12t19.5 20 q0 25 2 84.5t3 127t2 128t1 84.5v223q-6 41 -27.5 80t-52 70t-68.5 49.5t-81 18.5z" />
<glyph unicode="z" horiz-adv-x="802" d="M20 -29q0 -74 18.5 -149.5t58.5 -137t100.5 -100.5t146.5 -39q41 0 80 13.5t76 27.5q80 33 134 86.5t87 121t47 144t14 154.5q0 127 -41 242t-141 196v9q0 23 27.5 29.5t59.5 11t59.5 11.5t27.5 27q0 8 -7 10.5t-15 2.5h-7q-27 0 -52 -9.5t-50 -20.5t-50.5 -20.5 t-49.5 -9.5h-25q-14 0 -29.5 3.5t-27.5 7.5t-19 14q16 16 49 35.5t67 43t58.5 53.5t24.5 67v133q0 14 -23.5 50t-53 72.5t-56.5 65.5t-33 29q-10 0 -29.5 -15.5t-42 -36t-42 -40l-25.5 -25.5q-10 -8 -47 -30.5t-77 -51t-71.5 -58.5t-31.5 -52q18 0 33.5 8t30.5 17t31.5 17.5 t35.5 8.5q31 0 54 -16.5t40.5 -42t26 -55.5t8.5 -56q0 -53 -20.5 -85t-51.5 -49.5t-65.5 -27.5t-65.5 -21.5t-51.5 -26.5t-20.5 -46q0 -16 13.5 -27.5t29.5 -11.5q25 0 42.5 14.5t34.5 31.5t35.5 31.5t47.5 14.5q16 0 34.5 -4t28.5 -21l-8 -8q-72 -43 -133 -96t-105 -117.5 t-69 -138.5t-25 -158zM135 -8q0 272 217 440q14 10 18.5 13.5t18.5 3.5q20 0 32.5 -38t16.5 -88.5t5 -102.5t1 -83v-69q0 -143 -2 -250t-49 -164q-10 -12 -28.5 -31.5t-20.5 -19.5h-84q-27 0 -47 31.5t-34.5 73.5t-23 84t-10.5 61q-2 12 -4 37.5t-3 50t-2 41t-1 10.5z M510 68v231q-2 51 -11.5 94t-9.5 92q20 0 34 -13t28 -23q76 -70 125 -175.5t49 -207.5q0 -55 -17.5 -108.5t-46 -100.5t-66.5 -87t-77 -67h-18q0 92 5 182.5t5 182.5zM543 -182q-8 -8 -10.5 -19.5t-2.5 -21.5h13q18 0 45.5 29.5t52.5 73.5t42 93.5t17 89.5q0 20 -16 78 t-41 117t-54.5 105.5t-56.5 46.5q0 -129 5.5 -256t5.5 -256v-80zM442 721q-2 35 -6 60.5t-12 49t-19.5 46t-27.5 51.5v8q0 2 12 13.5t26.5 24.5t28 24.5t15.5 13.5h8q4 0 20.5 -15.5t34 -38t31.5 -48t14 -48.5q0 -12 -14 -37.5t-32.5 -50t-37 -44t-28.5 -19.5q-2 0 -4 2z M426 924l25 -54q2 -6 4 -18t5 -27.5t5 -28t2 -18.5h8q10 0 20.5 9.5t19.5 21.5t14.5 24.5t5.5 18.5q0 8 -7.5 26.5t-18.5 37t-23.5 33t-22.5 14.5l-4 -2l-16.5 -16.5l-16.5 -16.5v-4z" />
<glyph unicode="&#xad;" d="M20 770q0 -16 12.5 -31.5t20.5 -27.5q27 -39 55.5 -79t62.5 -72t75 -52.5t94 -20.5q76 0 141.5 35t127 78t126 78t139.5 35q66 0 107 -30t84 -79l1 -1t3 -1q14 0 25.5 12.5t11.5 26.5t-8 33.5t-20.5 37t-25 33t-20.5 25.5q-68 74 -144.5 120t-178.5 46q-76 0 -141.5 -34 t-127 -75t-124 -74.5t-132.5 -33.5q-27 0 -48 10t-38.5 23.5t-30 23.5t-20.5 10q-10 0 -18.5 -3t-8.5 -13zM236 629l8 8q57 14 112.5 39.5t107.5 56.5t104.5 61.5t107.5 57.5q14 6 20 7t21 1q8 0 34.5 -8t53 -19.5t48 -22.5t21.5 -19v-5q-84 -2 -148 -25.5t-122.5 -57 t-118 -72.5t-133.5 -70h-12q-29 0 -58.5 24t-45.5 44zM309 616q0 -10 8.5 -12t16.5 -2h6q31 0 65.5 15.5t68.5 37t64.5 44t53.5 36.5q41 27 81 44.5t85 31.5q-8 10 -18.5 13t-22.5 3h-17q-104 -45 -197.5 -102.5t-193.5 -108.5z" />
<glyph unicode="&#xdf;" horiz-adv-x="1218" d="M244 -172q8 -33 15 -79t13.5 -88t14.5 -71.5t20 -29.5q6 0 14.5 14t14.5 32.5t10 37t6 26.5l101 588q0 6 1 19.5t2 30t4 32.5t9 27l25 206l24 150l8 8q35 31 54.5 49.5t32 27.5t20.5 12t20 3q31 0 55.5 -16t41 -42t25.5 -55.5t9 -56.5q0 -59 -20.5 -93t-54 -52.5 t-77.5 -28.5t-89 -22q-12 -10 -22.5 -27.5t-10.5 -34.5q0 -16 13.5 -27.5t27.5 -11.5q25 0 43 14.5t34.5 33t35 33t47.5 14.5q39 0 81 -29t76.5 -70t57 -87t22.5 -81v-266q-14 -33 -24.5 -76t-25.5 -82t-38.5 -65.5t-66.5 -26.5q-16 0 -25.5 2t-26.5 8v9q0 4 9.5 12 t20.5 22.5t20.5 33t9.5 42.5q0 80 -52.5 114t-123.5 34q-70 0 -122 -39t-52 -117q0 -53 35.5 -91t88 -62.5t109.5 -37t100 -12.5q39 0 81 14.5t75 26.5q76 31 126 75t79 98.5t41 121t12 144.5q0 57 -15.5 122.5t-44 126t-71.5 109.5t-100 76q-29 8 -65 12t-44 20l8 9 q29 18 64 43.5t65.5 57.5t52 72t21.5 87q0 29 -12 63q0 14 -23.5 50t-53.5 73t-56.5 64.5t-32.5 27.5t-42 -27.5t-79 -62.5t-83 -67.5t-52 -40.5t-30.5 -21.5t-35 -26t-29.5 -20.5l-14 -8h-8q-2 23 -5 51.5t-11 57t-22.5 53t-37.5 39.5l-223 139q-29 18 -48 49t-19 63 q0 20 7 38t29 18q25 0 45.5 -22.5t46 -49.5t60.5 -49.5t88 -22.5q49 0 83 26t54.5 65.5t28.5 86t8 89.5v16t-3 29.5t-12 28t-26 12.5h-6v-86q0 -2 -11.5 -11.5t-17.5 -13.5h-8l-108 109q-2 2 -12.5 5t-25 7t-26.5 7t-18 5h-4q-55 0 -96.5 -24.5t-67 -63.5t-37.5 -88t-12 -98 q0 -57 9 -113.5t9 -114.5q0 -55 -17.5 -85.5t-37 -49t-37 -30t-17.5 -25.5q0 -8 10.5 -14.5t14.5 -8.5h76q6 0 10 -34.5t7 -79.5t4 -90t3 -68q0 -8 1 -23.5t2.5 -31t3.5 -28.5t2 -17zM535 -199q16 20 40.5 44t53.5 24q31 0 56.5 -20.5t25.5 -53.5q0 -10 -4.5 -26.5 t-11.5 -32t-18 -25.5t-26 -10q-18 0 -36.5 10t-34 25.5t-27.5 33t-18 31.5zM584 -203l43 -45h2q23 0 31 17.5t8 33.5q0 12 -10.5 22.5t-22.5 10.5q-14 0 -32.5 -12.5t-18.5 -26.5zM1016 -147v397q0 12 -7.5 33.5t-14.5 41t-14 34t-7 12.5l1 1t1 3q37 -31 64.5 -71t47 -86 t28.5 -95t9 -94q0 -18 -9 -59.5t-26.5 -83.5t-41 -72.5t-50.5 -30.5q0 16 6.5 35t12.5 35zM1049 201v-316q12 8 22 26.5t16.5 40t9.5 42t3 35.5q0 8 -4 35.5t-11.5 58.5t-15.5 54.5t-16 23.5h-4zM303 -66l-84 590q-2 104 -13 205.5t-11 206.5v22q0 18 2 36t5 31t9 13l16 -8 q51 -31 92 -56.5t70 -58t43 -78.5t14 -118q0 -23 -4 -44.5t-16 -35.5l-29 -231q0 -8 -6 -51.5t-14 -100.5t-19.5 -121.5t-19.5 -118t-14.5 -85t-6.5 -25.5q0 -2 2.5 12t8.5 49l-9 -33h-16zM219 934v-4q4 -92 10.5 -134t6.5 -65q0 -6 1 -33.5t3 -58.5t3 -57.5t1 -32.5 q2 -27 11 -92.5t20.5 -140t21.5 -140t14 -92.5q4 10 14.5 62.5t20.5 112.5t18.5 112.5t8.5 60.5l28 234q12 12 15.5 30.5t3.5 36.5v37q0 37 -16.5 70.5t-42 61.5t-59.5 48.5t-66 28.5h-9q0 -4 -3 -20.5t-5 -20.5v-4zM858 655q-2 37 -7 62.5t-12.5 48t-18.5 45.5t-27 53 q-2 0 -2 4v2q0 2 2 2l16 17q8 8 24.5 22.5t27.5 23.5t13 11h9q6 0 22.5 -15.5t33.5 -38t30.5 -48t13.5 -45.5q0 -12 -14.5 -38t-32.5 -51.5t-37.5 -45t-28.5 -19.5h-2q0 2 -2 2zM842 860v-4q10 -35 24.5 -66.5t24.5 -76.5q10 0 20.5 9t19.5 22.5t14 25.5t5 18q0 8 -7 27 t-18.5 37t-23.5 31.5t-22 13.5h-5q-4 -4 -16 -16.5t-16 -16.5v-4zM287 1370q-12 8 -33 8q-20 0 -27 17q27 29 42.5 44t49.5 15q14 0 41 -16.5t53.5 -38t49 -43t31.5 -29.5v-4q0 -8 -8.5 -20.5t-19.5 -22.5t-24.5 -18.5t-23.5 -8.5q-6 0 -22.5 11.5t-35 29t-39 38t-34.5 38.5 zM297 1419q0 -12 16.5 -33.5t39 -42t45 -36t36.5 -15.5v19l-106 108h-31z" />
<glyph unicode="&#x2c6;" horiz-adv-x="1335" d="M20 289q12 -49 43 -89t72 -73t85 -60.5t83 -52.5q8 -6 12 -7t11 -1h12q18 0 60 30t91.5 66.5t97.5 66.5t79 30q45 0 82.5 -31t69.5 -66.5t57.5 -66.5t46.5 -31q88 59 161.5 135t155.5 142q16 8 25.5 16t9.5 25q0 16 -12 16q-18 0 -34 -12.5t-32 -25.5t-35.5 -25.5 t-44.5 -12.5q-35 0 -59.5 27.5t-24.5 64.5v457q0 12 8.5 30.5t24.5 18.5h225l8 8q0 2 3.5 27t5.5 41v29q0 16 -3.5 30.5t-13.5 14.5h-207q-4 0 -21.5 3t-21.5 13v29q0 35 9.5 74.5t23.5 74.5t31.5 57.5t36.5 22.5h10q0 -20 1 -47t9 -51.5t23.5 -42t46.5 -17.5t48 15.5 t24.5 37t9.5 45t2 40.5q0 41 -30 72.5t-73 31.5q-29 0 -49 -12.5t-37.5 -30.5t-34 -38.5t-34.5 -35.5l-8 9q0 4 -1 19t-1 21q0 53 16 86t45 51.5t66.5 24.5t80.5 6q12 0 24.5 -1t27.5 -1q8 2 8 15v14q0 6 -10.5 9t-23.5 4t-30 1h-24q-78 0 -139.5 -7t-115.5 -27.5 t-103.5 -56.5t-100.5 -93h-8q-12 0 -19 8l-57 117h-22q0 -23 8 -43.5t18 -40.5t21.5 -40.5t15.5 -41.5q6 -29 8 -67.5t2 -69.5q0 -72 -23.5 -137.5t-76.5 -116.5v-29h98v-542q0 -23 -17.5 -35.5t-40 -17.5t-46 -6t-37.5 -1q-66 0 -114 25.5t-79.5 67.5t-47 97.5t-15.5 114.5 q0 25 1 92.5t4 140t7 129t12 56.5h9q8 0 26.5 -48t40 -105.5t44 -105.5t38.5 -48l125 57q2 2 4 5t4 5v3q0 8 -23.5 62t-51 117.5t-52 115t-26.5 51.5h-4q-66 -23 -133.5 -43.5t-133.5 -40.5q-72 -23 -113.5 -54.5t-62 -75.5t-26 -100.5t-5.5 -126.5v-182v-182zM86 449v22 q4 76 8 165t19 167q2 20 18 43.5t39 43t48.5 33t47.5 13.5h4q0 -8 9 -8v-4q0 -88 -5.5 -175t-5.5 -176q0 -74 7.5 -133t27 -105t55 -81t95.5 -57v-4q0 -8 -14.5 -20.5t-35 -24t-42 -19.5t-33.5 -8q-2 0 -8.5 1t-8.5 1q-55 31 -97 60.5t-70.5 65.5t-43 84t-14.5 116zM801 242 v4q0 12 1 53t1 94t2 114.5t2 115.5q0 53 1 94t1 53v133q-4 10 -14.5 18.5t-10.5 16.5v6q0 2 2 15.5t5.5 29t6.5 28.5t3 17q0 12 2 40t3 60.5t2 60.5t1 40q4 6 27.5 28.5t49 47t49 45t28.5 20.5l4 -2q8 0 8 -8v-405q0 -4 11 -10.5t22 -6.5l2 -4q0 -8 -7.5 -12t-14.5 -9.5 t-14 -14.5t-7 -27v-588q0 -20 11 -44t21 -40l-73 -66l-14 11q-15 10 -33.5 24t-38 29.5t-31.5 25.5l-8 9v4zM121 354q10 -23 34.5 -56.5t55.5 -65t62.5 -54t58.5 -22.5q10 0 24.5 12t20.5 20q-47 39 -90 97.5t-43 126.5v477q-37 0 -61.5 -30t-39 -72t-20.5 -88t-6 -78 q0 -63 -2 -129t6 -138zM834 928v-672q0 -4 14 -15.5t31.5 -23.5t32.5 -21l14 -8h4q10 0 15 9.5t5 19.5q0 23 -8 47v64q0 45 -1 95t-1 95v66q0 184 5 366.5t5 366.5l-100 -92l-16 -8l-2 -25q-1 -25 -2 -58.5t-3 -70.5t-2 -62v-43q0 -8 1.5 -14t7.5 -16z" />
<glyph unicode="&#x2000;" horiz-adv-x="817" />
<glyph unicode="&#x2001;" horiz-adv-x="1634" />
<glyph unicode="&#x2002;" horiz-adv-x="817" />
<glyph unicode="&#x2003;" horiz-adv-x="1634" />
<glyph unicode="&#x2004;" horiz-adv-x="544" />
<glyph unicode="&#x2005;" horiz-adv-x="408" />
<glyph unicode="&#x2006;" horiz-adv-x="272" />
<glyph unicode="&#x2007;" horiz-adv-x="272" />
<glyph unicode="&#x2008;" horiz-adv-x="204" />
<glyph unicode="&#x2009;" horiz-adv-x="326" />
<glyph unicode="&#x200a;" horiz-adv-x="90" />
<glyph unicode="&#x2010;" d="M20 770q0 -16 12.5 -31.5t20.5 -27.5q27 -39 55.5 -79t62.5 -72t75 -52.5t94 -20.5q76 0 141.5 35t127 78t126 78t139.5 35q66 0 107 -30t84 -79l1 -1t3 -1q14 0 25.5 12.5t11.5 26.5t-8 33.5t-20.5 37t-25 33t-20.5 25.5q-68 74 -144.5 120t-178.5 46q-76 0 -141.5 -34 t-127 -75t-124 -74.5t-132.5 -33.5q-27 0 -48 10t-38.5 23.5t-30 23.5t-20.5 10q-10 0 -18.5 -3t-8.5 -13zM236 629l8 8q57 14 112.5 39.5t107.5 56.5t104.5 61.5t107.5 57.5q14 6 20 7t21 1q8 0 34.5 -8t53 -19.5t48 -22.5t21.5 -19v-5q-84 -2 -148 -25.5t-122.5 -57 t-118 -72.5t-133.5 -70h-12q-29 0 -58.5 24t-45.5 44zM309 616q0 -10 8.5 -12t16.5 -2h6q31 0 65.5 15.5t68.5 37t64.5 44t53.5 36.5q41 27 81 44.5t85 31.5q-8 10 -18.5 13t-22.5 3h-17q-104 -45 -197.5 -102.5t-193.5 -108.5z" />
<glyph unicode="&#x2011;" d="M20 770q0 -16 12.5 -31.5t20.5 -27.5q27 -39 55.5 -79t62.5 -72t75 -52.5t94 -20.5q76 0 141.5 35t127 78t126 78t139.5 35q66 0 107 -30t84 -79l1 -1t3 -1q14 0 25.5 12.5t11.5 26.5t-8 33.5t-20.5 37t-25 33t-20.5 25.5q-68 74 -144.5 120t-178.5 46q-76 0 -141.5 -34 t-127 -75t-124 -74.5t-132.5 -33.5q-27 0 -48 10t-38.5 23.5t-30 23.5t-20.5 10q-10 0 -18.5 -3t-8.5 -13zM236 629l8 8q57 14 112.5 39.5t107.5 56.5t104.5 61.5t107.5 57.5q14 6 20 7t21 1q8 0 34.5 -8t53 -19.5t48 -22.5t21.5 -19v-5q-84 -2 -148 -25.5t-122.5 -57 t-118 -72.5t-133.5 -70h-12q-29 0 -58.5 24t-45.5 44zM309 616q0 -10 8.5 -12t16.5 -2h6q31 0 65.5 15.5t68.5 37t64.5 44t53.5 36.5q41 27 81 44.5t85 31.5q-8 10 -18.5 13t-22.5 3h-17q-104 -45 -197.5 -102.5t-193.5 -108.5z" />
<glyph unicode="&#x2012;" d="M20 770q0 -16 12.5 -31.5t20.5 -27.5q27 -39 55.5 -79t62.5 -72t75 -52.5t94 -20.5q76 0 141.5 35t127 78t126 78t139.5 35q66 0 107 -30t84 -79l1 -1t3 -1q14 0 25.5 12.5t11.5 26.5t-8 33.5t-20.5 37t-25 33t-20.5 25.5q-68 74 -144.5 120t-178.5 46q-76 0 -141.5 -34 t-127 -75t-124 -74.5t-132.5 -33.5q-27 0 -48 10t-38.5 23.5t-30 23.5t-20.5 10q-10 0 -18.5 -3t-8.5 -13zM236 629l8 8q57 14 112.5 39.5t107.5 56.5t104.5 61.5t107.5 57.5q14 6 20 7t21 1q8 0 34.5 -8t53 -19.5t48 -22.5t21.5 -19v-5q-84 -2 -148 -25.5t-122.5 -57 t-118 -72.5t-133.5 -70h-12q-29 0 -58.5 24t-45.5 44zM309 616q0 -10 8.5 -12t16.5 -2h6q31 0 65.5 15.5t68.5 37t64.5 44t53.5 36.5q41 27 81 44.5t85 31.5q-8 10 -18.5 13t-22.5 3h-17q-104 -45 -197.5 -102.5t-193.5 -108.5z" />
<glyph unicode="&#x2013;" horiz-adv-x="1064" d="M20 770q0 -16 12 -31.5t19 -27.5q26 -39 52.5 -79t58.5 -72t71 -52.5t89 -20.5q71 0 133 35t120 78t119 78t131 35q62 0 101 -30t79 -79l1 -1t3 -1q13 0 24 12.5t11 26.5t-7.5 33.5t-19.5 37t-23.5 33t-19.5 25.5q-64 74 -136 120t-168 46q-72 0 -134 -34t-119.5 -75 t-116.5 -74.5t-125 -33.5q-26 0 -45.5 10t-36 23.5t-28.5 23.5t-20 10q-9 0 -17 -3t-8 -13zM224 629l7 8q54 14 106.5 39.5t101.5 56.5t98.5 61.5t101.5 57.5q13 6 18.5 7t19.5 1q8 0 33 -8t50 -19.5t45 -22.5t20 -19v-5q-79 -2 -139.5 -25.5t-115.5 -57t-111 -72.5 t-126 -70h-11q-28 0 -55.5 24t-42.5 44zM293 616q0 -10 8 -12t15 -2h6q29 0 61.5 15.5t64.5 37t61 44t50 36.5q39 27 76.5 44.5t80.5 31.5q-8 10 -17.5 13t-21.5 3h-16q-98 -45 -186 -102.5t-182 -108.5z" />
<glyph unicode="&#x2014;" horiz-adv-x="2088" d="M20 770q0 -16 23.5 -31.5t38.5 -27.5q51 -39 105 -79t118 -72t141.5 -52.5t176.5 -20.5q144 0 267.5 35t239.5 78t237.5 78t262.5 35q125 0 202.5 -30t158.5 -79l2 -1q1 -1 5 -1q27 0 48.5 12.5t21.5 26.5t-15 33.5t-38.5 37t-47 33t-39.5 25.5q-128 74 -272 120t-337 46 q-143 0 -266.5 -34t-239.5 -75t-234 -74.5t-250 -33.5q-51 0 -90.5 10t-72.5 23.5t-56.5 23.5t-38.5 10q-19 0 -35 -3t-16 -13zM427 629l15 8q108 14 212.5 39.5t202.5 56.5t197 61.5t203 57.5q26 6 37.5 7t39.5 1q16 0 65.5 -8t99.5 -19.5t90.5 -22.5t40.5 -19v-5 q-158 -2 -278.5 -25.5t-231 -57t-222.5 -72.5t-252 -70h-23q-54 0 -109.5 24t-86.5 44zM565 616q0 -10 16 -12t31 -2h11q59 0 124 15.5t129 37t121.5 44t101.5 36.5q77 27 152.5 44.5t160.5 31.5q-15 10 -35 13t-43 3h-32q-196 -45 -372 -102.5t-365 -108.5z" />
<glyph unicode="&#x2018;" horiz-adv-x="288" d="M20 1284q12 -41 40 -57.5t67 -16.5q66 0 103.5 37t37.5 105q0 49 -17.5 75.5t-36.5 41t-36.5 19.5t-17.5 11q0 16 9 28.5t20.5 25t20.5 25.5t9 30q0 14 -10 19t-23 5q-27 0 -55.5 -31.5t-53 -77.5t-41 -98.5t-16.5 -91.5v-49zM94 1343q0 16 12.5 41t32.5 25t33.5 -22.5 t13.5 -40.5q0 -16 -17 -35t-34 -19q-16 0 -28.5 17.5t-12.5 33.5zM127 1360v-17h27v17h-27z" />
<glyph unicode="&#x2019;" horiz-adv-x="288" d="M70 1235q0 -16 10 -20.5t22 -4.5q27 0 56.5 32t54.5 78t40 97t15 90v49q-12 43 -39.5 59.5t-66.5 16.5q-66 0 -104 -36.5t-38 -104.5q0 -51 17.5 -78t37 -40t37 -17t17.5 -13q0 -16 -9 -28t-20.5 -24.5t-20.5 -26t-9 -29.5zM102 1495q0 16 17.5 35.5t32.5 19.5 q16 0 29.5 -17t13.5 -34q0 -16 -12.5 -41.5t-32.5 -25.5t-34 22.5t-14 40.5zM170 1511q-18 0 -27.5 -5t-9.5 -23h37v28z" />
<glyph unicode="&#x201c;" horiz-adv-x="595" d="M20 1284q12 -41 40 -57.5t67 -16.5q66 0 104.5 37t38.5 105q0 49 -17 75.5t-37.5 40t-38 19.5t-17.5 12q0 16 9 28.5t20.5 25t20.5 25.5t9 30q0 16 -10 21t-23 5q-27 0 -55.5 -32.5t-53 -78.5t-41 -98.5t-16.5 -89.5v-51zM328 1284q12 -41 39.5 -57.5t66.5 -16.5 q66 0 103.5 37t37.5 105q0 51 -17 77.5t-36.5 40t-37 17.5t-17.5 12q0 16 9 28.5t20.5 25t20.5 25.5t9 30q0 16 -10 21t-22 5q-25 0 -54.5 -32.5t-55.5 -78.5t-42 -97.5t-16 -90.5q0 -6 1 -25.5t1 -25.5zM94 1343q0 16 12.5 41t32.5 25t33.5 -21.5t13.5 -39.5q0 -16 -16 -36 t-33 -20q-16 0 -29.5 17.5t-13.5 33.5zM401 1343q0 16 12.5 41t32.5 25t34 -21.5t14 -39.5q0 -16 -17.5 -36t-34.5 -20q-16 0 -28.5 17.5t-12.5 33.5zM117 1370q0 -29 9 -34t38 -5q0 29 -9 34t-38 5zM446 1368q-16 0 -19 -11t-3 -26q10 0 27.5 2t17.5 17q0 12 -6.5 15 t-16.5 3z" />
<glyph unicode="&#x201d;" horiz-adv-x="595" d="M70 1235q0 -16 10 -20.5t22 -4.5q27 0 56.5 32t54.5 78t41 98t16 91q0 72 -29.5 98.5t-78.5 26.5q-66 0 -104 -36.5t-38 -106.5q0 -51 17.5 -78t37 -40t37 -17t17.5 -13q0 -16 -9 -28t-20.5 -24.5t-20.5 -26t-9 -29.5zM377 1235q0 -16 10 -20.5t21 -4.5q27 0 56.5 33 t54 79t40.5 97t16 90v50q-12 41 -39.5 58t-66.5 17q-66 0 -104.5 -36.5t-38.5 -106.5q0 -49 17 -75.5t36.5 -40t37 -19.5t17.5 -13q0 -16 -9 -28t-19.5 -24.5t-19.5 -26t-9 -29.5zM102 1497q0 16 17.5 34.5t34.5 18.5q16 0 28.5 -17t12.5 -32q0 -18 -12.5 -42.5t-32.5 -24.5 t-34 22.5t-14 40.5zM410 1497q0 16 16 34.5t33 18.5q20 0 32.5 -21.5t12.5 -37.5q-16 0 -27.5 7t-30.5 7q0 -16 6.5 -22t13.5 -8t13 -4.5t6 -10.5q0 -14 -9 -20t-19 -6q-23 0 -35 22.5t-12 40.5zM145 1509v-28q27 0 27 28h-27z" />
<glyph unicode="&#x202f;" horiz-adv-x="326" />
<glyph unicode="&#x205f;" horiz-adv-x="408" />
<glyph unicode="&#x25fc;" horiz-adv-x="1136" d="M0 1137h1137v-1137h-1137v1137z" />
</font>
</defs>
</svg>
